%TF.GenerationSoftware,KiCad,Pcbnew,(6.0.0)*%
%TF.CreationDate,2022-04-28T11:50:28-07:00*%
%TF.ProjectId,AMS-Mega2560-Base,414d532d-4d65-4676-9132-3536302d4261,rev?*%
%TF.SameCoordinates,Original*%
%TF.FileFunction,Copper,L4,Bot*%
%TF.FilePolarity,Positive*%
%FSLAX46Y46*%
G04 Gerber Fmt 4.6, Leading zero omitted, Abs format (unit mm)*
G04 Created by KiCad (PCBNEW (6.0.0)) date 2022-04-28 11:50:28*
%MOMM*%
%LPD*%
G01*
G04 APERTURE LIST*
G04 Aperture macros list*
%AMRoundRect*
0 Rectangle with rounded corners*
0 $1 Rounding radius*
0 $2 $3 $4 $5 $6 $7 $8 $9 X,Y pos of 4 corners*
0 Add a 4 corners polygon primitive as box body*
4,1,4,$2,$3,$4,$5,$6,$7,$8,$9,$2,$3,0*
0 Add four circle primitives for the rounded corners*
1,1,$1+$1,$2,$3*
1,1,$1+$1,$4,$5*
1,1,$1+$1,$6,$7*
1,1,$1+$1,$8,$9*
0 Add four rect primitives between the rounded corners*
20,1,$1+$1,$2,$3,$4,$5,0*
20,1,$1+$1,$4,$5,$6,$7,0*
20,1,$1+$1,$6,$7,$8,$9,0*
20,1,$1+$1,$8,$9,$2,$3,0*%
G04 Aperture macros list end*
%TA.AperFunction,ComponentPad*%
%ADD10C,1.727200*%
%TD*%
%TA.AperFunction,ComponentPad*%
%ADD11O,1.727200X1.727200*%
%TD*%
%TA.AperFunction,ComponentPad*%
%ADD12O,1.727200X2.032000*%
%TD*%
%TA.AperFunction,ComponentPad*%
%ADD13C,4.064000*%
%TD*%
%TA.AperFunction,ComponentPad*%
%ADD14C,1.650000*%
%TD*%
%TA.AperFunction,ComponentPad*%
%ADD15R,1.575000X1.575000*%
%TD*%
%TA.AperFunction,ComponentPad*%
%ADD16C,1.575000*%
%TD*%
%TA.AperFunction,ComponentPad*%
%ADD17R,2.200000X2.200000*%
%TD*%
%TA.AperFunction,ComponentPad*%
%ADD18O,2.200000X2.200000*%
%TD*%
%TA.AperFunction,ComponentPad*%
%ADD19R,1.050000X1.500000*%
%TD*%
%TA.AperFunction,ComponentPad*%
%ADD20O,1.050000X1.500000*%
%TD*%
%TA.AperFunction,ComponentPad*%
%ADD21C,1.600000*%
%TD*%
%TA.AperFunction,ComponentPad*%
%ADD22O,1.600000X1.600000*%
%TD*%
%TA.AperFunction,ComponentPad*%
%ADD23R,1.920000X1.920000*%
%TD*%
%TA.AperFunction,ComponentPad*%
%ADD24C,1.920000*%
%TD*%
%TA.AperFunction,ComponentPad*%
%ADD25R,2.000000X2.000000*%
%TD*%
%TA.AperFunction,ComponentPad*%
%ADD26C,2.000000*%
%TD*%
%TA.AperFunction,ComponentPad*%
%ADD27R,1.700000X1.700000*%
%TD*%
%TA.AperFunction,ComponentPad*%
%ADD28O,1.700000X1.700000*%
%TD*%
%TA.AperFunction,ComponentPad*%
%ADD29O,2.000000X2.000000*%
%TD*%
%TA.AperFunction,ComponentPad*%
%ADD30R,1.500000X1.050000*%
%TD*%
%TA.AperFunction,ComponentPad*%
%ADD31O,1.500000X1.050000*%
%TD*%
%TA.AperFunction,ComponentPad*%
%ADD32R,2.250000X2.250000*%
%TD*%
%TA.AperFunction,ComponentPad*%
%ADD33C,2.250000*%
%TD*%
%TA.AperFunction,ComponentPad*%
%ADD34R,2.600000X2.600000*%
%TD*%
%TA.AperFunction,ComponentPad*%
%ADD35C,2.600000*%
%TD*%
%TA.AperFunction,ComponentPad*%
%ADD36C,1.200000*%
%TD*%
%TA.AperFunction,ComponentPad*%
%ADD37R,1.600000X1.600000*%
%TD*%
%TA.AperFunction,ComponentPad*%
%ADD38R,1.150000X1.150000*%
%TD*%
%TA.AperFunction,ComponentPad*%
%ADD39C,1.150000*%
%TD*%
%TA.AperFunction,ComponentPad*%
%ADD40C,1.440000*%
%TD*%
%TA.AperFunction,ComponentPad*%
%ADD41R,1.160000X1.160000*%
%TD*%
%TA.AperFunction,ComponentPad*%
%ADD42C,1.160000*%
%TD*%
%TA.AperFunction,ComponentPad*%
%ADD43R,2.085000X2.085000*%
%TD*%
%TA.AperFunction,ComponentPad*%
%ADD44C,2.085000*%
%TD*%
%TA.AperFunction,ComponentPad*%
%ADD45C,2.360000*%
%TD*%
%TA.AperFunction,ComponentPad*%
%ADD46R,1.130000X1.130000*%
%TD*%
%TA.AperFunction,ComponentPad*%
%ADD47C,1.130000*%
%TD*%
%TA.AperFunction,SMDPad,CuDef*%
%ADD48R,1.250000X0.600000*%
%TD*%
%TA.AperFunction,SMDPad,CuDef*%
%ADD49R,1.925000X0.650000*%
%TD*%
%TA.AperFunction,SMDPad,CuDef*%
%ADD50RoundRect,0.250001X0.924999X-0.499999X0.924999X0.499999X-0.924999X0.499999X-0.924999X-0.499999X0*%
%TD*%
%TA.AperFunction,ViaPad*%
%ADD51C,0.600000*%
%TD*%
%TA.AperFunction,ViaPad*%
%ADD52C,1.524000*%
%TD*%
%TA.AperFunction,Conductor*%
%ADD53C,1.270000*%
%TD*%
%TA.AperFunction,Conductor*%
%ADD54C,0.250000*%
%TD*%
%TA.AperFunction,Conductor*%
%ADD55C,1.016000*%
%TD*%
%TA.AperFunction,Conductor*%
%ADD56C,0.635000*%
%TD*%
%TA.AperFunction,Conductor*%
%ADD57C,1.524000*%
%TD*%
%TA.AperFunction,Conductor*%
%ADD58C,0.508000*%
%TD*%
%TA.AperFunction,Conductor*%
%ADD59C,0.762000*%
%TD*%
G04 APERTURE END LIST*
D10*
%TO.P,P4,1,Pin_1*%
%TO.N,GND*%
X178021100Y-143971900D03*
D11*
%TO.P,P4,2,Pin_2*%
X180561100Y-143971900D03*
%TO.P,P4,3,Pin_3*%
%TO.N,SCLK*%
X178021100Y-141431900D03*
%TO.P,P4,4,Pin_4*%
%TO.N,unconnected-(P4-Pad4)*%
X180561100Y-141431900D03*
%TO.P,P4,5,Pin_5*%
%TO.N,MISO*%
X178021100Y-138891900D03*
%TO.P,P4,6,Pin_6*%
%TO.N,MOSI*%
X180561100Y-138891900D03*
%TO.P,P4,7,Pin_7*%
%TO.N,WaterCS*%
X178021100Y-136351900D03*
%TO.P,P4,8,Pin_8*%
%TO.N,Logging*%
X180561100Y-136351900D03*
%TO.P,P4,9,Pin_9*%
%TO.N,LsideCS*%
X178021100Y-133811900D03*
%TO.P,P4,10,Pin_10*%
%TO.N,IN3TTL*%
X180561100Y-133811900D03*
%TO.P,P4,11,Pin_11*%
%TO.N,RsideCS*%
X178021100Y-131271900D03*
%TO.P,P4,12,Pin_12*%
%TO.N,OUTPUTLED2*%
X180561100Y-131271900D03*
%TO.P,P4,13,Pin_13*%
%TO.N,FrontCS*%
X178021100Y-128731900D03*
%TO.P,P4,14,Pin_14*%
%TO.N,OUTPUTLED1*%
X180561100Y-128731900D03*
%TO.P,P4,15,Pin_15*%
%TO.N,AmbientCS*%
X178021100Y-126191900D03*
%TO.P,P4,16,Pin_16*%
%TO.N,RPMEN*%
X180561100Y-126191900D03*
%TO.P,P4,17,Pin_17*%
%TO.N,CarbCS*%
X178021100Y-123651900D03*
%TO.P,P4,18,Pin_18*%
%TO.N,unconnected-(P4-Pad18)*%
X180561100Y-123651900D03*
%TO.P,P4,19,Pin_19*%
%TO.N,SDCS*%
X178021100Y-121111900D03*
%TO.P,P4,20,Pin_20*%
%TO.N,unconnected-(P4-Pad20)*%
X180561100Y-121111900D03*
%TO.P,P4,21,Pin_21*%
%TO.N,SDDetect*%
X178021100Y-118571900D03*
%TO.P,P4,22,Pin_22*%
%TO.N,unconnected-(P4-Pad22)*%
X180561100Y-118571900D03*
%TO.P,P4,23,Pin_23*%
%TO.N,unconnected-(P4-Pad23)*%
X178021100Y-116031900D03*
%TO.P,P4,24,Pin_24*%
%TO.N,unconnected-(P4-Pad24)*%
X180561100Y-116031900D03*
%TO.P,P4,25,Pin_25*%
%TO.N,unconnected-(P4-Pad25)*%
X178021100Y-113491900D03*
%TO.P,P4,26,Pin_26*%
%TO.N,unconnected-(P4-Pad26)*%
X180561100Y-113491900D03*
%TO.P,P4,27,Pin_27*%
%TO.N,unconnected-(P4-Pad27)*%
X178021100Y-110951900D03*
%TO.P,P4,28,Pin_28*%
%TO.N,unconnected-(P4-Pad28)*%
X180561100Y-110951900D03*
%TO.P,P4,29,Pin_29*%
%TO.N,unconnected-(P4-Pad29)*%
X178021100Y-108411900D03*
%TO.P,P4,30,Pin_30*%
%TO.N,unconnected-(P4-Pad30)*%
X180561100Y-108411900D03*
%TO.P,P4,31,Pin_31*%
%TO.N,unconnected-(P4-Pad31)*%
X178021100Y-105871900D03*
%TO.P,P4,32,Pin_32*%
%TO.N,unconnected-(P4-Pad32)*%
X180561100Y-105871900D03*
%TO.P,P4,33,Pin_33*%
%TO.N,unconnected-(P4-Pad33)*%
X178021100Y-103331900D03*
%TO.P,P4,34,Pin_34*%
%TO.N,unconnected-(P4-Pad34)*%
X180561100Y-103331900D03*
%TO.P,P4,35,Pin_35*%
%TO.N,unconnected-(P4-Pad35)*%
X178021100Y-100791900D03*
%TO.P,P4,36,Pin_36*%
%TO.N,unconnected-(P4-Pad36)*%
X180561100Y-100791900D03*
%TD*%
D12*
%TO.P,P1,1,Pin_1*%
%TO.N,unconnected-(P1-Pad1)*%
X111981100Y-149051900D03*
%TO.P,P1,2,Pin_2*%
%TO.N,unconnected-(P1-Pad2)*%
X114521100Y-149051900D03*
%TO.P,P1,3,Pin_3*%
%TO.N,unconnected-(P1-Pad3)*%
X117061100Y-149051900D03*
%TO.P,P1,4,Pin_4*%
%TO.N,unconnected-(P1-Pad4)*%
X119601100Y-149051900D03*
%TO.P,P1,5,Pin_5*%
%TO.N,unconnected-(P1-Pad5)*%
X122141100Y-149051900D03*
%TO.P,P1,6,Pin_6*%
%TO.N,GND*%
X124681100Y-149051900D03*
%TO.P,P1,7,Pin_7*%
X127221100Y-149051900D03*
%TO.P,P1,8,Pin_8*%
%TO.N,+10V*%
X129761100Y-149051900D03*
%TD*%
%TO.P,P2,1,Pin_1*%
%TO.N,VoltageSensor*%
X134841100Y-149051900D03*
%TO.P,P2,2,Pin_2*%
%TO.N,/A1*%
X137381100Y-149051900D03*
%TO.P,P2,3,Pin_3*%
%TO.N,Vacuum1*%
X139921100Y-149051900D03*
%TO.P,P2,4,Pin_4*%
%TO.N,Vacuum2*%
X142461100Y-149051900D03*
%TO.P,P2,5,Pin_5*%
%TO.N,AltCurrent*%
X145001100Y-149051900D03*
%TO.P,P2,6,Pin_6*%
%TO.N,FuelPressure1*%
X147541100Y-149051900D03*
%TO.P,P2,7,Pin_7*%
%TO.N,FuelPressure2*%
X150081100Y-149051900D03*
%TO.P,P2,8,Pin_8*%
%TO.N,OilPressure*%
X152621100Y-149051900D03*
%TD*%
%TO.P,P3,1,Pin_1*%
%TO.N,AFR1*%
X157701100Y-149051900D03*
%TO.P,P3,2,Pin_2*%
%TO.N,AFR2*%
X160241100Y-149051900D03*
%TO.P,P3,3,Pin_3*%
%TO.N,/A10*%
X162781100Y-149051900D03*
%TO.P,P3,4,Pin_4*%
%TO.N,GPSBat*%
X165321100Y-149051900D03*
%TO.P,P3,5,Pin_5*%
%TO.N,ThrottlePositionADC*%
X167861100Y-149051900D03*
%TO.P,P3,6,Pin_6*%
%TO.N,SpareBufferedADC*%
X170401100Y-149051900D03*
%TO.P,P3,7,Pin_7*%
%TO.N,unconnected-(P3-Pad7)*%
X172941100Y-149051900D03*
%TO.P,P3,8,Pin_8*%
%TO.N,unconnected-(P3-Pad8)*%
X175481100Y-149051900D03*
%TD*%
%TO.P,P5,1,Pin_1*%
%TO.N,SCL*%
X102837100Y-100791900D03*
%TO.P,P5,2,Pin_2*%
%TO.N,SDA*%
X105377100Y-100791900D03*
%TO.P,P5,3,Pin_3*%
%TO.N,unconnected-(P5-Pad3)*%
X107917100Y-100791900D03*
%TO.P,P5,4,Pin_4*%
%TO.N,GND*%
X110457100Y-100791900D03*
%TO.P,P5,5,Pin_5*%
%TO.N,unconnected-(P5-Pad5)*%
X112997100Y-100791900D03*
%TO.P,P5,6,Pin_6*%
%TO.N,unconnected-(P5-Pad6)*%
X115537100Y-100791900D03*
%TO.P,P5,7,Pin_7*%
%TO.N,unconnected-(P5-Pad7)*%
X118077100Y-100791900D03*
%TO.P,P5,8,Pin_8*%
%TO.N,unconnected-(P5-Pad8)*%
X120617100Y-100791900D03*
%TO.P,P5,9,Pin_9*%
%TO.N,unconnected-(P5-Pad9)*%
X123157100Y-100791900D03*
%TO.P,P5,10,Pin_10*%
%TO.N,OUTPUTSiren*%
X125697100Y-100791900D03*
%TD*%
%TO.P,P6,1,Pin_1*%
%TO.N,OUTPUT4*%
X129761100Y-100791900D03*
%TO.P,P6,2,Pin_2*%
%TO.N,OUTPUT3*%
X132301100Y-100791900D03*
%TO.P,P6,3,Pin_3*%
%TO.N,OUTPUT2*%
X134841100Y-100791900D03*
%TO.P,P6,4,Pin_4*%
%TO.N,OUTPUT1*%
X137381100Y-100791900D03*
%TO.P,P6,5,Pin_5*%
%TO.N,IN2TTL*%
X139921100Y-100791900D03*
%TO.P,P6,6,Pin_6*%
%TO.N,IN1TTL*%
X142461100Y-100791900D03*
%TO.P,P6,7,Pin_7*%
%TO.N,unconnected-(P6-Pad7)*%
X145001100Y-100791900D03*
%TO.P,P6,8,Pin_8*%
%TO.N,unconnected-(P6-Pad8)*%
X147541100Y-100791900D03*
%TD*%
%TO.P,P7,1,Pin_1*%
%TO.N,GPSTX*%
X152621100Y-100791900D03*
%TO.P,P7,2,Pin_2*%
%TO.N,GPSRX*%
X155161100Y-100791900D03*
%TO.P,P7,3,Pin_3*%
%TO.N,ComTX*%
X157701100Y-100791900D03*
%TO.P,P7,4,Pin_4*%
%TO.N,ComRX*%
X160241100Y-100791900D03*
%TO.P,P7,5,Pin_5*%
%TO.N,unconnected-(P7-Pad5)*%
X162781100Y-100791900D03*
%TO.P,P7,6,Pin_6*%
%TO.N,unconnected-(P7-Pad6)*%
X165321100Y-100791900D03*
%TO.P,P7,7,Pin_7*%
%TO.N,SDA*%
X167861100Y-100791900D03*
%TO.P,P7,8,Pin_8*%
%TO.N,SCL*%
X170401100Y-100791900D03*
%TD*%
D13*
%TO.P,P8,1,Pin_1*%
%TO.N,unconnected-(P8-Pad1)*%
X98011100Y-149051900D03*
%TD*%
%TO.P,P9,1,Pin_1*%
%TO.N,unconnected-(P9-Pad1)*%
X150081100Y-143971900D03*
%TD*%
%TO.P,P10,1,Pin_1*%
%TO.N,unconnected-(P10-Pad1)*%
X180561100Y-149051900D03*
%TD*%
%TO.P,P11,1,Pin_1*%
%TO.N,unconnected-(P11-Pad1)*%
X99281100Y-100791900D03*
%TD*%
%TO.P,P12,1,Pin_1*%
%TO.N,unconnected-(P12-Pad1)*%
X150081100Y-116031900D03*
%TD*%
%TO.P,P13,1,Pin_1*%
%TO.N,unconnected-(P13-Pad1)*%
X174211100Y-100791900D03*
%TD*%
D14*
%TO.P,J4,1,1*%
%TO.N,Sense1-1*%
X196101600Y-78302400D03*
%TO.P,J4,2,2*%
%TO.N,SCL*%
X198001600Y-70682400D03*
%TO.P,J4,3,3*%
%TO.N,Sense1-3*%
X196101600Y-59252400D03*
%TO.P,J4,4,4*%
%TO.N,Sense1-4*%
X192291600Y-78302400D03*
%TO.P,J4,5,5*%
%TO.N,SDA*%
X194191600Y-70682400D03*
%TO.P,J4,6,6*%
%TO.N,Sense1-6*%
X192291600Y-59252400D03*
%TO.P,J4,7,7*%
%TO.N,Sense1-7*%
X188481600Y-78302400D03*
%TO.P,J4,8,8*%
%TO.N,Sense1-8*%
X190381600Y-70682400D03*
%TO.P,J4,9,9*%
%TO.N,Sense1-9*%
X188481600Y-59252400D03*
%TO.P,J4,10,10*%
%TO.N,Sense1-10*%
X184671600Y-78302400D03*
%TO.P,J4,11,11*%
%TO.N,Sense1-11*%
X186571600Y-70682400D03*
%TO.P,J4,12,12*%
%TO.N,Sense1-12*%
X184671600Y-59252400D03*
%TD*%
%TO.P,J5,1,1*%
%TO.N,Sense2-1*%
X180857300Y-78302400D03*
%TO.P,J5,2,2*%
%TO.N,Sense2-2*%
X182757300Y-70682400D03*
%TO.P,J5,3,3*%
%TO.N,Sense2-3*%
X180857300Y-59252400D03*
%TO.P,J5,4,4*%
%TO.N,Sense2-4*%
X177047300Y-78302400D03*
%TO.P,J5,5,5*%
%TO.N,Sense2-5*%
X178947300Y-70682400D03*
%TO.P,J5,6,6*%
%TO.N,Sense2-6*%
X177047300Y-59252400D03*
%TO.P,J5,7,7*%
%TO.N,Sense2-7*%
X173237300Y-78302400D03*
%TO.P,J5,8,8*%
%TO.N,Sense2-8*%
X175137300Y-70682400D03*
%TO.P,J5,9,9*%
%TO.N,Sense2-9*%
X173237300Y-59252400D03*
%TO.P,J5,10,10*%
%TO.N,Sense2-10*%
X169427300Y-78302400D03*
%TO.P,J5,11,11*%
%TO.N,Sense2-11*%
X171327300Y-70682400D03*
%TO.P,J5,12,12*%
%TO.N,Sense2-12*%
X169427300Y-59252400D03*
%TD*%
D15*
%TO.P,D7,1*%
%TO.N,Net-(D7-Pad1)*%
X92892200Y-85548400D03*
D16*
%TO.P,D7,2*%
%TO.N,GND*%
X92892200Y-71448400D03*
%TD*%
D17*
%TO.P,D10,1,K*%
%TO.N,Net-(D10-Pad1)*%
X149922800Y-121993000D03*
D18*
%TO.P,D10,2,A*%
%TO.N,+3.3VP*%
X160082800Y-121993000D03*
%TD*%
D19*
%TO.P,Q8,1,S*%
%TO.N,GND*%
X160890100Y-84718700D03*
D20*
%TO.P,Q8,2,G*%
%TO.N,OUTPUTLED1*%
X162160100Y-84718700D03*
%TO.P,Q8,3,D*%
%TO.N,Net-(Q8-Pad3)*%
X163430100Y-84718700D03*
%TD*%
D21*
%TO.P,R43,1*%
%TO.N,+VDC*%
X168607800Y-86594000D03*
D22*
%TO.P,R43,2*%
%TO.N,Net-(Q10-Pad1)*%
X166067800Y-86594000D03*
%TD*%
D17*
%TO.P,D1,1,K*%
%TO.N,Net-(D1-Pad1)*%
X80706300Y-89808700D03*
D18*
%TO.P,D1,2,A*%
%TO.N,PowerOn*%
X80706300Y-79648700D03*
%TD*%
D19*
%TO.P,Q16,1,S*%
%TO.N,GND*%
X174624500Y-84413200D03*
D20*
%TO.P,Q16,2,G*%
%TO.N,OUTPUTSiren*%
X175894500Y-84413200D03*
%TO.P,Q16,3,D*%
%TO.N,Net-(Q16-Pad3)*%
X177164500Y-84413200D03*
%TD*%
D23*
%TO.P,Q13,1*%
%TO.N,Net-(Q13-Pad1)*%
X152969100Y-73847300D03*
D24*
%TO.P,Q13,2*%
%TO.N,Sense2-9*%
X152969100Y-76387300D03*
%TO.P,Q13,3*%
%TO.N,+VDC*%
X152969100Y-78927300D03*
%TD*%
D21*
%TO.P,R5,1*%
%TO.N,Sense2-1*%
X108144700Y-138243300D03*
D22*
%TO.P,R5,2*%
%TO.N,GND*%
X108144700Y-140783300D03*
%TD*%
D21*
%TO.P,R65,1*%
%TO.N,GND*%
X120056900Y-124116900D03*
D22*
%TO.P,R65,2*%
%TO.N,FuelPressure2*%
X122596900Y-124116900D03*
%TD*%
D21*
%TO.P,R56,1*%
%TO.N,Net-(Q18-Pad1)*%
X180195400Y-86247700D03*
D22*
%TO.P,R56,2*%
%TO.N,Net-(Q16-Pad3)*%
X182735400Y-86247700D03*
%TD*%
D23*
%TO.P,Q6,1*%
%TO.N,Net-(Q6-Pad1)*%
X88471600Y-71436700D03*
D24*
%TO.P,Q6,2*%
%TO.N,Net-(J21-Pad1)*%
X88471600Y-68896700D03*
%TO.P,Q6,3*%
%TO.N,Net-(Q6-Pad3)*%
X88471600Y-66356700D03*
%TD*%
D25*
%TO.P,C30,1*%
%TO.N,Net-(C30-Pad1)*%
X197993900Y-123904500D03*
D26*
%TO.P,C30,2*%
%TO.N,GND*%
X202993900Y-123904500D03*
%TD*%
D21*
%TO.P,R59,1*%
%TO.N,Net-(Q20-Pad1)*%
X147774100Y-51494800D03*
D22*
%TO.P,R59,2*%
%TO.N,Net-(Q19-Pad3)*%
X145234100Y-51494800D03*
%TD*%
D21*
%TO.P,R48,1*%
%TO.N,Net-(Q13-Pad1)*%
X147351500Y-76587800D03*
D22*
%TO.P,R48,2*%
%TO.N,Net-(Q11-Pad3)*%
X147351500Y-79127800D03*
%TD*%
D21*
%TO.P,R64,1*%
%TO.N,GND*%
X120006400Y-119516000D03*
D22*
%TO.P,R64,2*%
%TO.N,FuelPressure1*%
X122546400Y-119516000D03*
%TD*%
D21*
%TO.P,R22,1*%
%TO.N,Net-(IC9-Pad5)*%
X139843100Y-77085100D03*
D22*
%TO.P,R22,2*%
%TO.N,GND*%
X137303100Y-77085100D03*
%TD*%
D21*
%TO.P,R41,1*%
%TO.N,+VDC*%
X147061400Y-57723300D03*
D22*
%TO.P,R41,2*%
%TO.N,Net-(Q9-Pad1)*%
X149601400Y-57723300D03*
%TD*%
D27*
%TO.P,J24,1,Pin_1*%
%TO.N,Net-(J24-Pad1)*%
X181186800Y-92877800D03*
D28*
%TO.P,J24,2,Pin_2*%
%TO.N,Net-(IC14-Pad1)*%
X181186800Y-95417800D03*
%TD*%
D26*
%TO.P,L2,1,1*%
%TO.N,Net-(D7-Pad1)*%
X96052200Y-86102400D03*
D29*
%TO.P,L2,2,2*%
%TO.N,+10V*%
X111292200Y-86102400D03*
%TD*%
D21*
%TO.P,R21,1*%
%TO.N,Net-(Q6-Pad1)*%
X79687400Y-66002600D03*
D22*
%TO.P,R21,2*%
%TO.N,GND*%
X79687400Y-63462600D03*
%TD*%
D21*
%TO.P,R61,1*%
%TO.N,Net-(Q21-Pad1)*%
X79730500Y-69077500D03*
D22*
%TO.P,R61,2*%
%TO.N,Net-(Q5-Pad3)*%
X82270500Y-69077500D03*
%TD*%
D27*
%TO.P,T3,1,Pin_1*%
%TO.N,+5V*%
X185205600Y-133341400D03*
D28*
%TO.P,T3,2,Pin_2*%
%TO.N,GND*%
X185205600Y-135881400D03*
%TO.P,T3,3,Pin_3*%
%TO.N,unconnected-(T3-Pad3)*%
X185205600Y-138421400D03*
%TO.P,T3,4,Pin_4*%
%TO.N,RTDSCLK*%
X185205600Y-140961400D03*
%TO.P,T3,5,Pin_5*%
%TO.N,RTDMISO*%
X185205600Y-143501400D03*
%TO.P,T3,6,Pin_6*%
%TO.N,RTDMOSI*%
X185205600Y-146041400D03*
%TO.P,T3,7,Pin_7*%
%TO.N,RsideCS*%
X185205600Y-148581400D03*
%TO.P,T3,8,Pin_8*%
%TO.N,unconnected-(T3-Pad8)*%
X185205600Y-151121400D03*
%TD*%
D15*
%TO.P,D8,1*%
%TO.N,Net-(D8-Pad1)*%
X114476300Y-50716300D03*
D16*
%TO.P,D8,2*%
%TO.N,GND*%
X114476300Y-64816300D03*
%TD*%
D21*
%TO.P,R58,1*%
%TO.N,+VDC*%
X145684100Y-54609900D03*
D22*
%TO.P,R58,2*%
%TO.N,Net-(Q20-Pad1)*%
X148224100Y-54609900D03*
%TD*%
D19*
%TO.P,Q23,1,S*%
%TO.N,GND*%
X70303900Y-89526600D03*
D20*
%TO.P,Q23,2,G*%
%TO.N,Net-(D1-Pad1)*%
X71573900Y-89526600D03*
%TO.P,Q23,3,D*%
%TO.N,Net-(Q22-Pad1)*%
X72843900Y-89526600D03*
%TD*%
D30*
%TO.P,Q2,1,S*%
%TO.N,GND*%
X80900100Y-143056000D03*
D31*
%TO.P,Q2,2,G*%
%TO.N,Sense2-10*%
X80900100Y-141786000D03*
%TO.P,Q2,3,D*%
%TO.N,Net-(D3-Pad1)*%
X80900100Y-140516000D03*
%TD*%
D32*
%TO.P,D6,1*%
%TO.N,Net-(C15-Pad2)*%
X120888400Y-83319600D03*
D33*
%TO.P,D6,2*%
%TO.N,GND*%
X120888400Y-54719600D03*
%TD*%
D30*
%TO.P,U2,1,REF*%
%TO.N,Net-(IC12-Pad5)*%
X126761900Y-107716700D03*
D31*
%TO.P,U2,2,A*%
%TO.N,GND*%
X126761900Y-106446700D03*
%TO.P,U2,3,K*%
%TO.N,Net-(IC12-Pad5)*%
X126761900Y-105176700D03*
%TD*%
D19*
%TO.P,Q24,1,D*%
%TO.N,/A1*%
X156465700Y-115613100D03*
D20*
%TO.P,Q24,2,G*%
%TO.N,Net-(IC19-Pad2)*%
X157735700Y-115613100D03*
%TO.P,Q24,3,S*%
%TO.N,Net-(D10-Pad1)*%
X159005700Y-115613100D03*
%TD*%
D21*
%TO.P,L4,1,1*%
%TO.N,Net-(D9-Pad1)*%
X199771300Y-98617200D03*
D22*
%TO.P,L4,2,2*%
%TO.N,GND*%
X189611300Y-98617200D03*
%TD*%
D19*
%TO.P,Q15,1,S*%
%TO.N,GND*%
X140001700Y-90159900D03*
D20*
%TO.P,Q15,2,G*%
%TO.N,OUTPUT4*%
X141271700Y-90159900D03*
%TO.P,Q15,3,D*%
%TO.N,Net-(Q15-Pad3)*%
X142541700Y-90159900D03*
%TD*%
D21*
%TO.P,R31,1*%
%TO.N,+5V*%
X125172400Y-110772600D03*
D22*
%TO.P,R31,2*%
%TO.N,Net-(IC12-Pad5)*%
X127712400Y-110772600D03*
%TD*%
D21*
%TO.P,R67,1*%
%TO.N,GND*%
X137262100Y-122136700D03*
D22*
%TO.P,R67,2*%
%TO.N,ThrottlePositionADC*%
X139802100Y-122136700D03*
%TD*%
D21*
%TO.P,R24,1*%
%TO.N,GND*%
X103527600Y-91520800D03*
D22*
%TO.P,R24,2*%
%TO.N,Net-(C19-Pad1)*%
X106067600Y-91520800D03*
%TD*%
D34*
%TO.P,J21,1,Pin_1*%
%TO.N,Net-(J21-Pad1)*%
X91265200Y-55743100D03*
D35*
%TO.P,J21,2,Pin_2*%
%TO.N,GND*%
X86185200Y-55743100D03*
%TO.P,J21,3,Pin_3*%
%TO.N,PowerOn*%
X81105200Y-55743100D03*
%TD*%
D27*
%TO.P,T4,1,Pin_1*%
%TO.N,+5V*%
X204282700Y-133341400D03*
D28*
%TO.P,T4,2,Pin_2*%
%TO.N,GND*%
X204282700Y-135881400D03*
%TO.P,T4,3,Pin_3*%
%TO.N,unconnected-(T4-Pad3)*%
X204282700Y-138421400D03*
%TO.P,T4,4,Pin_4*%
%TO.N,RTDSCLK*%
X204282700Y-140961400D03*
%TO.P,T4,5,Pin_5*%
%TO.N,RTDMISO*%
X204282700Y-143501400D03*
%TO.P,T4,6,Pin_6*%
%TO.N,RTDMOSI*%
X204282700Y-146041400D03*
%TO.P,T4,7,Pin_7*%
%TO.N,FrontCS*%
X204282700Y-148581400D03*
%TO.P,T4,8,Pin_8*%
%TO.N,unconnected-(T4-Pad8)*%
X204282700Y-151121400D03*
%TD*%
D21*
%TO.P,C19,1*%
%TO.N,Net-(C19-Pad1)*%
X103764500Y-95181000D03*
%TO.P,C19,2*%
%TO.N,+10V*%
X111264500Y-95181000D03*
%TD*%
D36*
%TO.P,K1,1,COM_1*%
%TO.N,Net-(K1-Pad1)*%
X205074100Y-84663800D03*
%TO.P,K1,2,COIL_1*%
%TO.N,+5V*%
X202534100Y-84663800D03*
%TO.P,K1,6,COIL_2*%
%TO.N,Net-(K1-Pad6)*%
X192374100Y-84663800D03*
%TO.P,K1,7,NO_1*%
%TO.N,Sense2-2*%
X189834100Y-84663800D03*
%TO.P,K1,8,NO_2*%
X189834100Y-92283800D03*
%TO.P,K1,9,NTC_1*%
%TO.N,unconnected-(K1-Pad9)*%
X192374100Y-92283800D03*
%TO.P,K1,13,NTC_2*%
%TO.N,unconnected-(K1-Pad13)*%
X202534100Y-92283800D03*
%TO.P,K1,14,COM_2*%
%TO.N,Net-(K1-Pad1)*%
X205074100Y-92283800D03*
%TD*%
D37*
%TO.P,C14,1*%
%TO.N,+VSW*%
X113074300Y-80554800D03*
D21*
%TO.P,C14,2*%
%TO.N,GND*%
X113074300Y-78054800D03*
%TD*%
%TO.P,R46,1*%
%TO.N,OUTPUTLED2*%
X154933700Y-95182900D03*
D22*
%TO.P,R46,2*%
%TO.N,GND*%
X152393700Y-95182900D03*
%TD*%
D21*
%TO.P,R9,1*%
%TO.N,Sense2-7*%
X118390500Y-142064600D03*
D22*
%TO.P,R9,2*%
%TO.N,GND*%
X118390500Y-144604600D03*
%TD*%
D19*
%TO.P,Q19,1,S*%
%TO.N,GND*%
X138302400Y-54077800D03*
D20*
%TO.P,Q19,2,G*%
%TO.N,OUTPUT1*%
X139572400Y-54077800D03*
%TO.P,Q19,3,D*%
%TO.N,Net-(Q19-Pad3)*%
X140842400Y-54077800D03*
%TD*%
D27*
%TO.P,J6,1,Pin_1*%
%TO.N,unconnected-(J6-Pad1)*%
X93896800Y-105925600D03*
D28*
%TO.P,J6,2,Pin_2*%
%TO.N,unconnected-(J6-Pad2)*%
X91356800Y-105925600D03*
%TO.P,J6,3,Pin_3*%
%TO.N,GPSBat*%
X88816800Y-105925600D03*
%TO.P,J6,4,Pin_4*%
%TO.N,unconnected-(J6-Pad4)*%
X86276800Y-105925600D03*
%TO.P,J6,5,Pin_5*%
%TO.N,GPSTX*%
X83736800Y-105925600D03*
%TO.P,J6,6,Pin_6*%
%TO.N,GPSRX*%
X81196800Y-105925600D03*
%TO.P,J6,7,Pin_7*%
%TO.N,GND*%
X78656800Y-105925600D03*
%TO.P,J6,8,Pin_8*%
%TO.N,+5V*%
X76116800Y-105925600D03*
%TO.P,J6,9,Pin_9*%
%TO.N,unconnected-(J6-Pad9)*%
X73576800Y-105925600D03*
%TD*%
D21*
%TO.P,R37,1*%
%TO.N,+5V*%
X153369000Y-108072800D03*
D22*
%TO.P,R37,2*%
%TO.N,SCL*%
X153369000Y-110612800D03*
%TD*%
D21*
%TO.P,C2,1*%
%TO.N,Sense2-7*%
X119512100Y-132503500D03*
%TO.P,C2,2*%
%TO.N,GND*%
X119512100Y-137503500D03*
%TD*%
D23*
%TO.P,Q20,1*%
%TO.N,Net-(Q20-Pad1)*%
X152969100Y-50748700D03*
D24*
%TO.P,Q20,2*%
%TO.N,Sense2-3*%
X152969100Y-53288700D03*
%TO.P,Q20,3*%
%TO.N,+VDC*%
X152969100Y-55828700D03*
%TD*%
D21*
%TO.P,R33,1*%
%TO.N,Net-(IC14-Pad1)*%
X224611300Y-86399600D03*
D22*
%TO.P,R33,2*%
%TO.N,GND*%
X222071300Y-86399600D03*
%TD*%
D27*
%TO.P,J22,1,Pin_1*%
%TO.N,GND*%
X94384900Y-97908600D03*
D28*
%TO.P,J22,2,Pin_2*%
%TO.N,+2V5*%
X91844900Y-97908600D03*
%TO.P,J22,3,Pin_3*%
%TO.N,+VDC*%
X89304900Y-97908600D03*
%TO.P,J22,4,Pin_4*%
%TO.N,+5V*%
X86764900Y-97908600D03*
%TO.P,J22,5,Pin_5*%
%TO.N,+3.3VA*%
X84224900Y-97908600D03*
%TO.P,J22,6,Pin_6*%
%TO.N,+10V*%
X81684900Y-97908600D03*
%TO.P,J22,7,Pin_7*%
%TO.N,+VSW*%
X79144900Y-97908600D03*
%TD*%
D38*
%TO.P,Z5,1*%
%TO.N,+VDC*%
X139400400Y-84637100D03*
D39*
%TO.P,Z5,2*%
%TO.N,Net-(Q17-Pad1)*%
X150100400Y-84637100D03*
%TD*%
D21*
%TO.P,C36,1*%
%TO.N,+5V*%
X158411400Y-104207200D03*
%TO.P,C36,2*%
%TO.N,GND*%
X158411400Y-111707200D03*
%TD*%
%TO.P,R49,1*%
%TO.N,+VDC*%
X165995500Y-91505500D03*
D22*
%TO.P,R49,2*%
%TO.N,Net-(Q14-Pad1)*%
X163455500Y-91505500D03*
%TD*%
D15*
%TO.P,D9,1*%
%TO.N,Net-(D9-Pad1)*%
X189287900Y-115880600D03*
D16*
%TO.P,D9,2*%
%TO.N,Net-(C30-Pad1)*%
X189287900Y-101780600D03*
%TD*%
D21*
%TO.P,R1,1*%
%TO.N,+5V*%
X218111900Y-89695600D03*
D22*
%TO.P,R1,2*%
%TO.N,SDDetect*%
X218111900Y-87155600D03*
%TD*%
D19*
%TO.P,Q12,1,S*%
%TO.N,GND*%
X158237900Y-92748100D03*
D20*
%TO.P,Q12,2,G*%
%TO.N,OUTPUTLED2*%
X159507900Y-92748100D03*
%TO.P,Q12,3,D*%
%TO.N,Net-(Q12-Pad3)*%
X160777900Y-92748100D03*
%TD*%
D37*
%TO.P,C39,1*%
%TO.N,GND*%
X105777600Y-104378800D03*
D21*
%TO.P,C39,2*%
%TO.N,Net-(C39-Pad2)*%
X105777600Y-106878800D03*
%TD*%
D37*
%TO.P,C40,1*%
%TO.N,Net-(C40-Pad1)*%
X101718200Y-117243200D03*
D21*
%TO.P,C40,2*%
%TO.N,+5V*%
X101718200Y-119743200D03*
%TD*%
%TO.P,R11,1*%
%TO.N,+5V*%
X74694700Y-124310600D03*
D22*
%TO.P,R11,2*%
%TO.N,Net-(IC7-Pad7)*%
X77234700Y-124310600D03*
%TD*%
D21*
%TO.P,R8,1*%
%TO.N,Sense2-10*%
X80495900Y-146081600D03*
D22*
%TO.P,R8,2*%
%TO.N,GND*%
X80495900Y-148621600D03*
%TD*%
D21*
%TO.P,C16,1*%
%TO.N,+VSW*%
X115811000Y-75003600D03*
%TO.P,C16,2*%
%TO.N,GND*%
X115811000Y-67503600D03*
%TD*%
%TO.P,R10,1*%
%TO.N,Sense2-4*%
X108188900Y-144400100D03*
D22*
%TO.P,R10,2*%
%TO.N,GND*%
X108188900Y-146940100D03*
%TD*%
D21*
%TO.P,R47,1*%
%TO.N,+VDC*%
X147470900Y-69262600D03*
D22*
%TO.P,R47,2*%
%TO.N,Net-(Q13-Pad1)*%
X150010900Y-69262600D03*
%TD*%
D40*
%TO.P,RV2,1,1*%
%TO.N,Net-(IC14-Pad4)*%
X234269300Y-71412700D03*
%TO.P,RV2,2,2*%
%TO.N,Net-(J31-Pad1)*%
X234269300Y-73952700D03*
%TO.P,RV2,3,3*%
%TO.N,GND*%
X234269300Y-76492700D03*
%TD*%
D21*
%TO.P,R12,1*%
%TO.N,Net-(D1-Pad1)*%
X79646200Y-76718500D03*
D22*
%TO.P,R12,2*%
%TO.N,GND*%
X82186200Y-76718500D03*
%TD*%
D21*
%TO.P,R32,1*%
%TO.N,Net-(K1-Pad1)*%
X222515100Y-83302700D03*
D22*
%TO.P,R32,2*%
%TO.N,Net-(IC14-Pad1)*%
X225055100Y-83302700D03*
%TD*%
D19*
%TO.P,Q3,1,S*%
%TO.N,GND*%
X115308000Y-142905600D03*
D20*
%TO.P,Q3,2,G*%
%TO.N,Sense2-7*%
X114038000Y-142905600D03*
%TO.P,Q3,3,D*%
%TO.N,Net-(D2-Pad1)*%
X112768000Y-142905600D03*
%TD*%
D41*
%TO.P,IC13,1,OUT*%
%TO.N,Net-(C30-Pad1)*%
X192128300Y-102051900D03*
D42*
%TO.P,IC13,2,FB*%
%TO.N,Net-(C27-Pad1)*%
X192128300Y-104591900D03*
%TO.P,IC13,3,SHDN*%
%TO.N,GND*%
X192128300Y-107131900D03*
%TO.P,IC13,4,REF*%
%TO.N,Net-(C27-Pad1)*%
X192128300Y-109671900D03*
%TO.P,IC13,5,GND*%
%TO.N,GND*%
X199748300Y-109671900D03*
%TO.P,IC13,6,V+_1*%
%TO.N,Net-(C28-Pad1)*%
X199748300Y-107131900D03*
%TO.P,IC13,7,V+_2*%
X199748300Y-104591900D03*
%TO.P,IC13,8,LX*%
%TO.N,Net-(D9-Pad1)*%
X199748300Y-102051900D03*
%TD*%
D27*
%TO.P,J8,1,Pin_1*%
%TO.N,SWMOSI*%
X229872200Y-121547800D03*
D28*
%TO.P,J8,2,Pin_2*%
%TO.N,RTDMOSI*%
X229872200Y-124087800D03*
%TO.P,J8,3,Pin_3*%
%TO.N,MOSI*%
X229872200Y-126627800D03*
%TD*%
D21*
%TO.P,R42,1*%
%TO.N,Net-(Q9-Pad1)*%
X147908100Y-63328600D03*
D22*
%TO.P,R42,2*%
%TO.N,Net-(Q7-Pad3)*%
X145368100Y-63328600D03*
%TD*%
D21*
%TO.P,C15,1*%
%TO.N,Net-(C15-Pad1)*%
X125959500Y-92097700D03*
%TO.P,C15,2*%
%TO.N,Net-(C15-Pad2)*%
X125959500Y-84597700D03*
%TD*%
%TO.P,R34,1*%
%TO.N,Net-(C32-Pad1)*%
X222538900Y-89478600D03*
D22*
%TO.P,R34,2*%
%TO.N,GND*%
X225078900Y-89478600D03*
%TD*%
D37*
%TO.P,C18,1*%
%TO.N,+5V*%
X134997900Y-87964700D03*
D21*
%TO.P,C18,2*%
%TO.N,GND*%
X129997900Y-87964700D03*
%TD*%
D23*
%TO.P,Q17,1*%
%TO.N,Net-(Q17-Pad1)*%
X152969100Y-85396500D03*
D24*
%TO.P,Q17,2*%
%TO.N,Sense2-12*%
X152969100Y-87936500D03*
%TO.P,Q17,3*%
%TO.N,+VDC*%
X152969100Y-90476500D03*
%TD*%
D26*
%TO.P,C27,1*%
%TO.N,Net-(C27-Pad1)*%
X211031400Y-119290600D03*
%TO.P,C27,2*%
%TO.N,GND*%
X211031400Y-129290600D03*
%TD*%
%TO.P,C29,1*%
%TO.N,Net-(C28-Pad1)*%
X218110400Y-119260900D03*
%TO.P,C29,2*%
%TO.N,GND*%
X218110400Y-129260900D03*
%TD*%
D37*
%TO.P,C13,1*%
%TO.N,+VSW*%
X110508700Y-70406100D03*
D21*
%TO.P,C13,2*%
%TO.N,GND*%
X110508700Y-67906100D03*
%TD*%
%TO.P,R69,1*%
%TO.N,GND*%
X137248100Y-128241300D03*
D22*
%TO.P,R69,2*%
%TO.N,AFR2*%
X139788100Y-128241300D03*
%TD*%
D19*
%TO.P,Q11,1,S*%
%TO.N,GND*%
X140261800Y-64541200D03*
D20*
%TO.P,Q11,2,G*%
%TO.N,OUTPUT3*%
X141531800Y-64541200D03*
%TO.P,Q11,3,D*%
%TO.N,Net-(Q11-Pad3)*%
X142801800Y-64541200D03*
%TD*%
D21*
%TO.P,R66,1*%
%TO.N,GND*%
X137262100Y-119061900D03*
D22*
%TO.P,R66,2*%
%TO.N,SpareBufferedADC*%
X139802100Y-119061900D03*
%TD*%
D21*
%TO.P,R45,1*%
%TO.N,OUTPUT3*%
X142435400Y-69333500D03*
D22*
%TO.P,R45,2*%
%TO.N,GND*%
X139895400Y-69333500D03*
%TD*%
D43*
%TO.P,Q22,1*%
%TO.N,Net-(Q22-Pad1)*%
X70584100Y-95867200D03*
D44*
%TO.P,Q22,2*%
%TO.N,+3.3VA*%
X70584100Y-98407200D03*
%TO.P,Q22,3*%
%TO.N,+3.3VP*%
X70584100Y-100947200D03*
%TD*%
D21*
%TO.P,C1,1*%
%TO.N,Sense2-10*%
X98393200Y-139624000D03*
%TO.P,C1,2*%
%TO.N,GND*%
X98393200Y-144624000D03*
%TD*%
D17*
%TO.P,D2,1,K*%
%TO.N,Net-(D2-Pad1)*%
X106014900Y-128035400D03*
D18*
%TO.P,D2,2,A*%
%TO.N,Net-(D2-Pad2)*%
X95854900Y-128035400D03*
%TD*%
D21*
%TO.P,R16,1*%
%TO.N,+5V*%
X74643200Y-128969800D03*
D22*
%TO.P,R16,2*%
%TO.N,IN1TTL*%
X77183200Y-128969800D03*
%TD*%
D21*
%TO.P,C21,1*%
%TO.N,Net-(C21-Pad1)*%
X124890200Y-50980700D03*
%TO.P,C21,2*%
%TO.N,GND*%
X117390200Y-50980700D03*
%TD*%
D27*
%TO.P,J3,1,Pin_1*%
%TO.N,+5V*%
X226581200Y-111690700D03*
D28*
%TO.P,J3,2,Pin_2*%
%TO.N,unconnected-(J3-Pad2)*%
X226581200Y-109150700D03*
%TO.P,J3,3,Pin_3*%
%TO.N,GND*%
X226581200Y-106610700D03*
%TO.P,J3,4,Pin_4*%
%TO.N,SCLK*%
X226581200Y-104070700D03*
%TO.P,J3,5,Pin_5*%
%TO.N,MISO*%
X226581200Y-101530700D03*
%TO.P,J3,6,Pin_6*%
%TO.N,MOSI*%
X226581200Y-98990700D03*
%TO.P,J3,7,Pin_7*%
%TO.N,SDCS*%
X226581200Y-96450700D03*
%TO.P,J3,8,Pin_8*%
%TO.N,SDDetect*%
X226581200Y-93910700D03*
%TD*%
D21*
%TO.P,R26,1*%
%TO.N,+3.3VP*%
X96498000Y-54101900D03*
D22*
%TO.P,R26,2*%
%TO.N,Net-(IC11-Pad1)*%
X99038000Y-54101900D03*
%TD*%
D21*
%TO.P,R18,1*%
%TO.N,+5V*%
X85160400Y-128969800D03*
D22*
%TO.P,R18,2*%
%TO.N,IN3TTL*%
X87700400Y-128969800D03*
%TD*%
D27*
%TO.P,T2,1,Pin_1*%
%TO.N,+5V*%
X185138800Y-97249500D03*
D28*
%TO.P,T2,2,Pin_2*%
%TO.N,GND*%
X185138800Y-99789500D03*
%TO.P,T2,3,Pin_3*%
%TO.N,unconnected-(T2-Pad3)*%
X185138800Y-102329500D03*
%TO.P,T2,4,Pin_4*%
%TO.N,RTDSCLK*%
X185138800Y-104869500D03*
%TO.P,T2,5,Pin_5*%
%TO.N,RTDMISO*%
X185138800Y-107409500D03*
%TO.P,T2,6,Pin_6*%
%TO.N,RTDMOSI*%
X185138800Y-109949500D03*
%TO.P,T2,7,Pin_7*%
%TO.N,LsideCS*%
X185138800Y-112489500D03*
%TO.P,T2,8,Pin_8*%
%TO.N,unconnected-(T2-Pad8)*%
X185138800Y-115029500D03*
%TD*%
D21*
%TO.P,R27,1*%
%TO.N,+VSW*%
X124580100Y-137553400D03*
D22*
%TO.P,R27,2*%
%TO.N,Net-(IC12-Pad3)*%
X124580100Y-140093400D03*
%TD*%
D41*
%TO.P,IC17,1,C1+*%
%TO.N,Net-(C37-Pad1)*%
X117227000Y-121483700D03*
D42*
%TO.P,IC17,2,V+*%
%TO.N,Net-(C40-Pad1)*%
X117227000Y-118943700D03*
%TO.P,IC17,3,C1-*%
%TO.N,Net-(C37-Pad2)*%
X117227000Y-116403700D03*
%TO.P,IC17,4,C2+*%
%TO.N,Net-(C38-Pad1)*%
X117227000Y-113863700D03*
%TO.P,IC17,5,C2-*%
%TO.N,Net-(C38-Pad2)*%
X117227000Y-111323700D03*
%TO.P,IC17,6,V-*%
%TO.N,Net-(C39-Pad2)*%
X117227000Y-108783700D03*
%TO.P,IC17,7,T2OUT*%
%TO.N,unconnected-(IC17-Pad7)*%
X117227000Y-106243700D03*
%TO.P,IC17,8,R2IN*%
%TO.N,unconnected-(IC17-Pad8)*%
X117227000Y-103703700D03*
%TO.P,IC17,9,R2OUT*%
%TO.N,unconnected-(IC17-Pad9)*%
X109607000Y-103703700D03*
%TO.P,IC17,10,T2IN*%
%TO.N,unconnected-(IC17-Pad10)*%
X109607000Y-106243700D03*
%TO.P,IC17,11,T1IN*%
%TO.N,ComTX*%
X109607000Y-108783700D03*
%TO.P,IC17,12,R1OUT*%
%TO.N,ComRX*%
X109607000Y-111323700D03*
%TO.P,IC17,13,R1IN*%
%TO.N,Sense1-8*%
X109607000Y-113863700D03*
%TO.P,IC17,14,T1OUT*%
%TO.N,Sense1-11*%
X109607000Y-116403700D03*
%TO.P,IC17,15,GND*%
%TO.N,GND*%
X109607000Y-118943700D03*
%TO.P,IC17,16,VCC*%
%TO.N,+5V*%
X109607000Y-121483700D03*
%TD*%
D21*
%TO.P,R30,1*%
%TO.N,GND*%
X140349900Y-139564900D03*
D22*
%TO.P,R30,2*%
%TO.N,+2V5*%
X137809900Y-139564900D03*
%TD*%
D38*
%TO.P,Z1,1*%
%TO.N,+VDC*%
X139490600Y-60519100D03*
D39*
%TO.P,Z1,2*%
%TO.N,Net-(Q9-Pad1)*%
X150190600Y-60519100D03*
%TD*%
D21*
%TO.P,R50,1*%
%TO.N,Net-(Q14-Pad1)*%
X163902400Y-94613000D03*
D22*
%TO.P,R50,2*%
%TO.N,Net-(Q12-Pad3)*%
X166442400Y-94613000D03*
%TD*%
D25*
%TO.P,C28,1*%
%TO.N,Net-(C28-Pad1)*%
X185902000Y-123934200D03*
D26*
%TO.P,C28,2*%
%TO.N,GND*%
X190902000Y-123934200D03*
%TD*%
D37*
%TO.P,C38,1*%
%TO.N,Net-(C38-Pad1)*%
X101718200Y-111166200D03*
D21*
%TO.P,C38,2*%
%TO.N,Net-(C38-Pad2)*%
X101718200Y-108666200D03*
%TD*%
D38*
%TO.P,Z8,1*%
%TO.N,+VDC*%
X83647500Y-89837000D03*
D39*
%TO.P,Z8,2*%
%TO.N,Net-(Q21-Pad1)*%
X83647500Y-79137000D03*
%TD*%
D38*
%TO.P,Z7,1*%
%TO.N,+VDC*%
X139423800Y-48453400D03*
D39*
%TO.P,Z7,2*%
%TO.N,Net-(Q20-Pad1)*%
X150123800Y-48453400D03*
%TD*%
D38*
%TO.P,Z3,1*%
%TO.N,+VDC*%
X139451700Y-72110600D03*
D39*
%TO.P,Z3,2*%
%TO.N,Net-(Q13-Pad1)*%
X150151700Y-72110600D03*
%TD*%
D45*
%TO.P,U1,1,1*%
%TO.N,Net-(Q6-Pad3)*%
X73402700Y-61747000D03*
%TO.P,U1,2,2*%
%TO.N,+VDC*%
X73402700Y-84347000D03*
%TD*%
D40*
%TO.P,RV1,1,1*%
%TO.N,Net-(C30-Pad1)*%
X234282700Y-61210200D03*
%TO.P,RV1,2,2*%
%TO.N,Net-(J24-Pad1)*%
X234282700Y-63750200D03*
%TO.P,RV1,3,3*%
%TO.N,GND*%
X234282700Y-66290200D03*
%TD*%
D19*
%TO.P,Q7,1,S*%
%TO.N,GND*%
X129439400Y-51033300D03*
D20*
%TO.P,Q7,2,G*%
%TO.N,OUTPUT2*%
X130709400Y-51033300D03*
%TO.P,Q7,3,D*%
%TO.N,Net-(Q7-Pad3)*%
X131979400Y-51033300D03*
%TD*%
D37*
%TO.P,C26,1*%
%TO.N,+3.3VP*%
X101104300Y-64850900D03*
D21*
%TO.P,C26,2*%
%TO.N,GND*%
X106104300Y-64850900D03*
%TD*%
%TO.P,R25,1*%
%TO.N,Net-(C19-Pad1)*%
X108692700Y-91511200D03*
D22*
%TO.P,R25,2*%
%TO.N,+10V*%
X111232700Y-91511200D03*
%TD*%
D21*
%TO.P,C20,1*%
%TO.N,Net-(C20-Pad1)*%
X97028100Y-78937300D03*
%TO.P,C20,2*%
%TO.N,GND*%
X97028100Y-71437300D03*
%TD*%
D27*
%TO.P,T1,1,Pin_1*%
%TO.N,+5V*%
X206318600Y-78031400D03*
D28*
%TO.P,T1,2,Pin_2*%
%TO.N,GND*%
X208858600Y-78031400D03*
%TO.P,T1,3,Pin_3*%
%TO.N,unconnected-(T1-Pad3)*%
X211398600Y-78031400D03*
%TO.P,T1,4,Pin_4*%
%TO.N,RTDSCLK*%
X213938600Y-78031400D03*
%TO.P,T1,5,Pin_5*%
%TO.N,RTDMISO*%
X216478600Y-78031400D03*
%TO.P,T1,6,Pin_6*%
%TO.N,RTDMOSI*%
X219018600Y-78031400D03*
%TO.P,T1,7,Pin_7*%
%TO.N,WaterCS*%
X221558600Y-78031400D03*
%TO.P,T1,8,Pin_8*%
%TO.N,unconnected-(T1-Pad8)*%
X224098600Y-78031400D03*
%TD*%
D27*
%TO.P,J1,1,Pin_1*%
%TO.N,SWSCLK*%
X234522200Y-121547800D03*
D28*
%TO.P,J1,2,Pin_2*%
%TO.N,RTDSCLK*%
X234522200Y-124087800D03*
%TO.P,J1,3,Pin_3*%
%TO.N,SCLK*%
X234522200Y-126627800D03*
%TD*%
D21*
%TO.P,R29,1*%
%TO.N,VoltageSensor*%
X140349900Y-144204100D03*
D22*
%TO.P,R29,2*%
%TO.N,GND*%
X137809900Y-144204100D03*
%TD*%
D30*
%TO.P,Q5,1,S*%
%TO.N,GND*%
X87981600Y-89848500D03*
D31*
%TO.P,Q5,2,G*%
%TO.N,Net-(D1-Pad1)*%
X87981600Y-88578500D03*
%TO.P,Q5,3,D*%
%TO.N,Net-(Q5-Pad3)*%
X87981600Y-87308500D03*
%TD*%
D21*
%TO.P,R15,1*%
%TO.N,+5V*%
X90206200Y-124300000D03*
D22*
%TO.P,R15,2*%
%TO.N,Net-(IC7-Pad1)*%
X92746200Y-124300000D03*
%TD*%
D37*
%TO.P,C22,1*%
%TO.N,+VSW*%
X95632700Y-66514500D03*
D21*
%TO.P,C22,2*%
%TO.N,GND*%
X95632700Y-64014500D03*
%TD*%
D46*
%TO.P,IC12,1,OUTA*%
%TO.N,VoltageSensor*%
X127218200Y-137301300D03*
D47*
%TO.P,IC12,2,-INA*%
X127218200Y-139841300D03*
%TO.P,IC12,3,+INA*%
%TO.N,Net-(IC12-Pad3)*%
X127218200Y-142381300D03*
%TO.P,IC12,4,V-*%
%TO.N,GND*%
X127218200Y-144921300D03*
%TO.P,IC12,5,+INB*%
%TO.N,Net-(IC12-Pad5)*%
X135158200Y-144921300D03*
%TO.P,IC12,6,-INB*%
%TO.N,GND*%
X135158200Y-142381300D03*
%TO.P,IC12,7,OUTB*%
%TO.N,+2V5*%
X135158200Y-139841300D03*
%TO.P,IC12,8,V+*%
%TO.N,+5V*%
X135158200Y-137301300D03*
%TD*%
D23*
%TO.P,Q14,1*%
%TO.N,Net-(Q14-Pad1)*%
X162856400Y-67378000D03*
D24*
%TO.P,Q14,2*%
%TO.N,Sense2-8*%
X162856400Y-64838000D03*
%TO.P,Q14,3*%
%TO.N,+VDC*%
X162856400Y-62298000D03*
%TD*%
D37*
%TO.P,C23,1*%
%TO.N,+10V*%
X101039200Y-73440900D03*
D21*
%TO.P,C23,2*%
%TO.N,GND*%
X106039200Y-73440900D03*
%TD*%
%TO.P,C4,1*%
%TO.N,Sense2-1*%
X109658300Y-133418000D03*
%TO.P,C4,2*%
%TO.N,GND*%
X104658300Y-133418000D03*
%TD*%
%TO.P,R62,1*%
%TO.N,+VDC*%
X81820500Y-72188200D03*
D22*
%TO.P,R62,2*%
%TO.N,Net-(Q21-Pad1)*%
X79280500Y-72188200D03*
%TD*%
D27*
%TO.P,T5,1,Pin_1*%
%TO.N,+5V*%
X204215900Y-97249500D03*
D28*
%TO.P,T5,2,Pin_2*%
%TO.N,GND*%
X204215900Y-99789500D03*
%TO.P,T5,3,Pin_3*%
%TO.N,unconnected-(T5-Pad3)*%
X204215900Y-102329500D03*
%TO.P,T5,4,Pin_4*%
%TO.N,RTDSCLK*%
X204215900Y-104869500D03*
%TO.P,T5,5,Pin_5*%
%TO.N,RTDMISO*%
X204215900Y-107409500D03*
%TO.P,T5,6,Pin_6*%
%TO.N,RTDMOSI*%
X204215900Y-109949500D03*
%TO.P,T5,7,Pin_7*%
%TO.N,AmbientCS*%
X204215900Y-112489500D03*
%TO.P,T5,8,Pin_8*%
%TO.N,unconnected-(T5-Pad8)*%
X204215900Y-115029500D03*
%TD*%
D21*
%TO.P,R35,1*%
%TO.N,Net-(IC14-Pad6)*%
X215533800Y-84508000D03*
D22*
%TO.P,R35,2*%
%TO.N,+VSW*%
X218073800Y-84508000D03*
%TD*%
D21*
%TO.P,R53,1*%
%TO.N,+VDC*%
X147321700Y-81789700D03*
D22*
%TO.P,R53,2*%
%TO.N,Net-(Q17-Pad1)*%
X149861700Y-81789700D03*
%TD*%
D21*
%TO.P,R38,1*%
%TO.N,+5V*%
X150284600Y-108072800D03*
D22*
%TO.P,R38,2*%
%TO.N,SDA*%
X150284600Y-110612800D03*
%TD*%
D21*
%TO.P,R55,1*%
%TO.N,+VDC*%
X182285400Y-83181700D03*
D22*
%TO.P,R55,2*%
%TO.N,Net-(Q18-Pad1)*%
X179745400Y-83181700D03*
%TD*%
D27*
%TO.P,J23,1,Pin_1*%
%TO.N,+10V*%
X177429000Y-93759200D03*
D28*
%TO.P,J23,2,Pin_2*%
%TO.N,Net-(C28-Pad1)*%
X177429000Y-96299200D03*
%TD*%
D21*
%TO.P,R52,1*%
%TO.N,OUTPUTSiren*%
X176759400Y-87990300D03*
D22*
%TO.P,R52,2*%
%TO.N,GND*%
X174219400Y-87990300D03*
%TD*%
D21*
%TO.P,C17,1*%
%TO.N,Net-(C17-Pad1)*%
X117048200Y-86173200D03*
%TO.P,C17,2*%
%TO.N,GND*%
X117048200Y-93673200D03*
%TD*%
%TO.P,R44,1*%
%TO.N,Net-(Q10-Pad1)*%
X166497800Y-83480000D03*
D22*
%TO.P,R44,2*%
%TO.N,Net-(Q8-Pad3)*%
X169037800Y-83480000D03*
%TD*%
D17*
%TO.P,D5,1,K*%
%TO.N,Net-(D5-Pad1)*%
X89215600Y-132497900D03*
D18*
%TO.P,D5,2,A*%
%TO.N,Net-(D5-Pad2)*%
X79055600Y-132497900D03*
%TD*%
D37*
%TO.P,C32,1*%
%TO.N,Net-(C32-Pad1)*%
X213364300Y-96645700D03*
D21*
%TO.P,C32,2*%
%TO.N,GND*%
X215864300Y-96645700D03*
%TD*%
D19*
%TO.P,Q25,1,S*%
%TO.N,GND*%
X212398800Y-83214400D03*
D20*
%TO.P,Q25,2,G*%
%TO.N,RPMEN*%
X211128800Y-83214400D03*
%TO.P,Q25,3,D*%
%TO.N,Net-(K1-Pad6)*%
X209858800Y-83214400D03*
%TD*%
D23*
%TO.P,Q21,1*%
%TO.N,Net-(Q21-Pad1)*%
X88471600Y-82669100D03*
D24*
%TO.P,Q21,2*%
%TO.N,+VSW*%
X88471600Y-80129100D03*
%TO.P,Q21,3*%
%TO.N,+VDC*%
X88471600Y-77589100D03*
%TD*%
D37*
%TO.P,C25,1*%
%TO.N,+VDC*%
X98051600Y-58524400D03*
D21*
%TO.P,C25,2*%
%TO.N,GND*%
X98051600Y-61024400D03*
%TD*%
%TO.P,R19,1*%
%TO.N,+5V*%
X90456400Y-128969800D03*
D22*
%TO.P,R19,2*%
%TO.N,Logging*%
X92996400Y-128969800D03*
%TD*%
D21*
%TO.P,R68,1*%
%TO.N,GND*%
X137247800Y-125193500D03*
D22*
%TO.P,R68,2*%
%TO.N,AltCurrent*%
X139787800Y-125193500D03*
%TD*%
D21*
%TO.P,R70,1*%
%TO.N,RPMEN*%
X215032600Y-89695600D03*
D22*
%TO.P,R70,2*%
%TO.N,GND*%
X215032600Y-87155600D03*
%TD*%
D21*
%TO.P,R6,1*%
%TO.N,GND*%
X140895900Y-136279400D03*
D22*
%TO.P,R6,2*%
%TO.N,OilPressure*%
X140895900Y-133739400D03*
%TD*%
D21*
%TO.P,R54,1*%
%TO.N,Net-(Q17-Pad1)*%
X147711900Y-87463200D03*
D22*
%TO.P,R54,2*%
%TO.N,Net-(Q15-Pad3)*%
X145171900Y-87463200D03*
%TD*%
D21*
%TO.P,R28,1*%
%TO.N,Net-(IC12-Pad3)*%
X124586900Y-142739400D03*
D22*
%TO.P,R28,2*%
%TO.N,GND*%
X124586900Y-145279400D03*
%TD*%
D27*
%TO.P,J7,1,Pin_1*%
%TO.N,+5V*%
X131045500Y-106400900D03*
D28*
%TO.P,J7,2,Pin_2*%
%TO.N,+10V*%
X133585500Y-106400900D03*
%TO.P,J7,3,Pin_3*%
%TO.N,Vacuum1*%
X131045500Y-108940900D03*
%TO.P,J7,4,Pin_4*%
%TO.N,+2V5*%
X133585500Y-108940900D03*
%TO.P,J7,5,Pin_5*%
%TO.N,Vacuum2*%
X131045500Y-111480900D03*
%TO.P,J7,6,Pin_6*%
%TO.N,GND*%
X133585500Y-111480900D03*
%TD*%
D21*
%TO.P,R40,1*%
%TO.N,OUTPUTLED1*%
X163398800Y-88349200D03*
D22*
%TO.P,R40,2*%
%TO.N,GND*%
X160858800Y-88349200D03*
%TD*%
D21*
%TO.P,C24,1*%
%TO.N,Net-(C24-Pad1)*%
X110383600Y-57414700D03*
%TO.P,C24,2*%
%TO.N,GND*%
X110383600Y-64914700D03*
%TD*%
%TO.P,R39,1*%
%TO.N,OUTPUT2*%
X131603800Y-54678100D03*
D22*
%TO.P,R39,2*%
%TO.N,GND*%
X129063800Y-54678100D03*
%TD*%
D21*
%TO.P,R51,1*%
%TO.N,OUTPUT4*%
X142096800Y-93759800D03*
D22*
%TO.P,R51,2*%
%TO.N,GND*%
X139556800Y-93759800D03*
%TD*%
D27*
%TO.P,J2,1,Pin_1*%
%TO.N,SWMISO*%
X225222200Y-121547800D03*
D28*
%TO.P,J2,2,Pin_2*%
%TO.N,RTDMISO*%
X225222200Y-124087800D03*
%TO.P,J2,3,Pin_3*%
%TO.N,MISO*%
X225222200Y-126627800D03*
%TD*%
D23*
%TO.P,Q9,1*%
%TO.N,Net-(Q9-Pad1)*%
X152969100Y-62298000D03*
D24*
%TO.P,Q9,2*%
%TO.N,Sense2-6*%
X152969100Y-64838000D03*
%TO.P,Q9,3*%
%TO.N,+VDC*%
X152969100Y-67378000D03*
%TD*%
D27*
%TO.P,J31,1,Pin_1*%
%TO.N,Net-(J31-Pad1)*%
X150145600Y-137205600D03*
D28*
%TO.P,J31,2,Pin_2*%
%TO.N,/A10*%
X150145600Y-139745600D03*
%TD*%
D21*
%TO.P,C3,1*%
%TO.N,Sense2-4*%
X114841200Y-132433600D03*
%TO.P,C3,2*%
%TO.N,GND*%
X114841200Y-137433600D03*
%TD*%
%TO.P,R13,1*%
%TO.N,+5V*%
X79847600Y-124300000D03*
D22*
%TO.P,R13,2*%
%TO.N,Net-(IC7-Pad5)*%
X82387600Y-124300000D03*
%TD*%
D17*
%TO.P,D4,1,K*%
%TO.N,Net-(D4-Pad1)*%
X89215600Y-137290500D03*
D18*
%TO.P,D4,2,A*%
%TO.N,Net-(D4-Pad2)*%
X79055600Y-137290500D03*
%TD*%
D27*
%TO.P,T6,1,Pin_1*%
%TO.N,+5V*%
X155695300Y-141069100D03*
D28*
%TO.P,T6,2,Pin_2*%
%TO.N,GND*%
X158235300Y-141069100D03*
%TO.P,T6,3,Pin_3*%
%TO.N,unconnected-(T6-Pad3)*%
X160775300Y-141069100D03*
%TO.P,T6,4,Pin_4*%
%TO.N,RTDSCLK*%
X163315300Y-141069100D03*
%TO.P,T6,5,Pin_5*%
%TO.N,RTDMISO*%
X165855300Y-141069100D03*
%TO.P,T6,6,Pin_6*%
%TO.N,RTDMOSI*%
X168395300Y-141069100D03*
%TO.P,T6,7,Pin_7*%
%TO.N,CarbCS*%
X170935300Y-141069100D03*
%TO.P,T6,8,Pin_8*%
%TO.N,unconnected-(T6-Pad8)*%
X173475300Y-141069100D03*
%TD*%
D21*
%TO.P,R17,1*%
%TO.N,+5V*%
X79880700Y-128961300D03*
D22*
%TO.P,R17,2*%
%TO.N,IN2TTL*%
X82420700Y-128961300D03*
%TD*%
D21*
%TO.P,R63,1*%
%TO.N,Net-(Q22-Pad1)*%
X76015800Y-88348200D03*
D22*
%TO.P,R63,2*%
%TO.N,+3.3VP*%
X76015800Y-90888200D03*
%TD*%
D19*
%TO.P,Q1,1,S*%
%TO.N,GND*%
X105116400Y-139102200D03*
D20*
%TO.P,Q1,2,G*%
%TO.N,Sense2-1*%
X103846400Y-139102200D03*
%TO.P,Q1,3,D*%
%TO.N,Net-(D5-Pad1)*%
X102576400Y-139102200D03*
%TD*%
D21*
%TO.P,R23,1*%
%TO.N,+10V*%
X98369900Y-91532800D03*
D22*
%TO.P,R23,2*%
%TO.N,Net-(IC10-Pad1)*%
X100909900Y-91532800D03*
%TD*%
D37*
%TO.P,C37,1*%
%TO.N,Net-(C37-Pad1)*%
X105777600Y-115358800D03*
D21*
%TO.P,C37,2*%
%TO.N,Net-(C37-Pad2)*%
X105777600Y-112858800D03*
%TD*%
D26*
%TO.P,L1,1,1*%
%TO.N,Net-(C15-Pad2)*%
X125176300Y-81011700D03*
D29*
%TO.P,L1,2,2*%
%TO.N,+5V*%
X140416300Y-81011700D03*
%TD*%
D19*
%TO.P,Q4,1,S*%
%TO.N,GND*%
X104959000Y-145284700D03*
D20*
%TO.P,Q4,2,G*%
%TO.N,Sense2-4*%
X103689000Y-145284700D03*
%TO.P,Q4,3,D*%
%TO.N,Net-(D4-Pad1)*%
X102419000Y-145284700D03*
%TD*%
D46*
%TO.P,IC14,1,TACH+*%
%TO.N,Net-(IC14-Pad1)*%
X227755400Y-90720400D03*
D47*
%TO.P,IC14,2,CP1*%
%TO.N,Net-(C31-Pad1)*%
X230295400Y-90720400D03*
%TO.P,IC14,3,CP2/IN+*%
%TO.N,Net-(C32-Pad1)*%
X232835400Y-90720400D03*
%TO.P,IC14,4,EMIT*%
%TO.N,Net-(IC14-Pad4)*%
X235375400Y-90720400D03*
%TO.P,IC14,5,COL*%
%TO.N,+VSW*%
X235375400Y-82780400D03*
%TO.P,IC14,6,V+*%
%TO.N,Net-(IC14-Pad6)*%
X232835400Y-82780400D03*
%TO.P,IC14,7,IN-*%
%TO.N,Net-(IC14-Pad4)*%
X230295400Y-82780400D03*
%TO.P,IC14,8,TACH-/GND*%
%TO.N,GND*%
X227755400Y-82780400D03*
%TD*%
D21*
%TO.P,R7,1*%
%TO.N,GND*%
X137809900Y-136273900D03*
D22*
%TO.P,R7,2*%
%TO.N,AFR1*%
X137809900Y-133733900D03*
%TD*%
D23*
%TO.P,Q10,1*%
%TO.N,Net-(Q10-Pad1)*%
X162809300Y-55828700D03*
D24*
%TO.P,Q10,2*%
%TO.N,Sense2-11*%
X162809300Y-53288700D03*
%TO.P,Q10,3*%
%TO.N,+VDC*%
X162809300Y-50748700D03*
%TD*%
D26*
%TO.P,L3,1,1*%
%TO.N,Net-(D8-Pad1)*%
X111539800Y-50273700D03*
D29*
%TO.P,L3,2,2*%
%TO.N,+3.3VP*%
X96299800Y-50273700D03*
%TD*%
D40*
%TO.P,RV4,1,1*%
%TO.N,Sense1-3*%
X115792700Y-126844700D03*
%TO.P,RV4,2,2*%
%TO.N,/BufferedADC/ADCIN4*%
X113252700Y-126844700D03*
%TO.P,RV4,3,3*%
%TO.N,GND*%
X110712700Y-126844700D03*
%TD*%
D23*
%TO.P,Q18,1*%
%TO.N,Net-(Q18-Pad1)*%
X162856400Y-78927300D03*
D24*
%TO.P,Q18,2*%
%TO.N,Sense2-5*%
X162856400Y-76387300D03*
%TO.P,Q18,3*%
%TO.N,+VDC*%
X162856400Y-73847300D03*
%TD*%
D17*
%TO.P,D3,1,K*%
%TO.N,Net-(D3-Pad1)*%
X93649500Y-150182100D03*
D18*
%TO.P,D3,2,A*%
%TO.N,Net-(D3-Pad2)*%
X83489500Y-150182100D03*
%TD*%
D21*
%TO.P,R14,1*%
%TO.N,+5V*%
X85053400Y-124300000D03*
D22*
%TO.P,R14,2*%
%TO.N,Net-(IC7-Pad3)*%
X87593400Y-124300000D03*
%TD*%
D21*
%TO.P,R57,1*%
%TO.N,OUTPUT1*%
X141143800Y-57709500D03*
D22*
%TO.P,R57,2*%
%TO.N,GND*%
X138603800Y-57709500D03*
%TD*%
D48*
%TO.P,IC19,1,GND*%
%TO.N,GND*%
X165471400Y-105049500D03*
%TO.P,IC19,2,~{RESET}*%
%TO.N,Net-(IC19-Pad2)*%
X165471400Y-106949500D03*
%TO.P,IC19,3,VCC*%
%TO.N,+3.3VP*%
X163371400Y-105999500D03*
%TD*%
D49*
%TO.P,IC16,1,32KHZ*%
%TO.N,unconnected-(IC16-Pad1)*%
X173122300Y-109425800D03*
%TO.P,IC16,2,VCC*%
%TO.N,+5V*%
X173122300Y-110695800D03*
%TO.P,IC16,3,~{INT}/SQW*%
%TO.N,unconnected-(IC16-Pad3)*%
X173122300Y-111965800D03*
%TO.P,IC16,4,~{RST}*%
%TO.N,unconnected-(IC16-Pad4)*%
X173122300Y-113235800D03*
%TO.P,IC16,5,N.C._1*%
%TO.N,GND*%
X173122300Y-114505800D03*
%TO.P,IC16,6,N.C._2*%
X173122300Y-115775800D03*
%TO.P,IC16,7,N.C._3*%
X173122300Y-117045800D03*
%TO.P,IC16,8,N.C._4*%
X173122300Y-118315800D03*
%TO.P,IC16,9,N.C._5*%
X163698300Y-118315800D03*
%TO.P,IC16,10,N.C._6*%
X163698300Y-117045800D03*
%TO.P,IC16,11,N.C._7*%
X163698300Y-115775800D03*
%TO.P,IC16,12,N.C._8*%
X163698300Y-114505800D03*
%TO.P,IC16,13,GND*%
X163698300Y-113235800D03*
%TO.P,IC16,14,VBAT*%
%TO.N,Net-(D10-Pad1)*%
X163698300Y-111965800D03*
%TO.P,IC16,15,SDA*%
%TO.N,SDA*%
X163698300Y-110695800D03*
%TO.P,IC16,16,SCL*%
%TO.N,SCL*%
X163698300Y-109425800D03*
%TD*%
D38*
%TO.P,Z2,1*%
%TO.N,+VDC*%
X177929300Y-48427000D03*
D39*
%TO.P,Z2,2*%
%TO.N,Net-(Q10-Pad1)*%
X167229300Y-48427000D03*
%TD*%
D38*
%TO.P,Z6,1*%
%TO.N,+VDC*%
X177929300Y-53623000D03*
D39*
%TO.P,Z6,2*%
%TO.N,Net-(Q18-Pad1)*%
X167229300Y-53623000D03*
%TD*%
D38*
%TO.P,Z4,1*%
%TO.N,+VDC*%
X177929300Y-51059400D03*
D39*
%TO.P,Z4,2*%
%TO.N,Net-(Q14-Pad1)*%
X167229300Y-51059400D03*
%TD*%
D50*
%TO.P,C31,1*%
%TO.N,Net-(C31-Pad1)*%
X233602600Y-88509900D03*
%TO.P,C31,2*%
%TO.N,GND*%
X233602600Y-85259900D03*
%TD*%
D51*
%TO.N,GND*%
X110487300Y-99127300D03*
X108094100Y-104973700D03*
X78854300Y-92284100D03*
X82353100Y-74800000D03*
X110712700Y-123312200D03*
X90603300Y-74800000D03*
X114140700Y-99127300D03*
X104412100Y-137377800D03*
X85904500Y-117495100D03*
X71921100Y-92284100D03*
X159762900Y-103778800D03*
X206647900Y-128534300D03*
X194382000Y-108700800D03*
X170680700Y-113689800D03*
X78151200Y-104032800D03*
X90698000Y-89834700D03*
X76208500Y-119627600D03*
X203269200Y-130939200D03*
X160186600Y-89519400D03*
X103314000Y-143214500D03*
X79160951Y-121395509D03*
X111572500Y-131806900D03*
X160814200Y-112598200D03*
X83832800Y-119566800D03*
X88658800Y-117495100D03*
X165539000Y-104206600D03*
X158971100Y-98645700D03*
X233851300Y-83896500D03*
%TO.N,+5V*%
X174596200Y-110429200D03*
X130111700Y-122548300D03*
X130523800Y-131075700D03*
%TO.N,+VDC*%
X102686400Y-58609600D03*
%TO.N,Net-(D10-Pad1)*%
X159566300Y-112394000D03*
%TO.N,Net-(J31-Pad1)*%
X223087000Y-147260200D03*
%TO.N,ThrottlePositionADC*%
X134113100Y-125425100D03*
%TO.N,Net-(D2-Pad2)*%
X94490900Y-114315200D03*
X85398600Y-114315200D03*
%TO.N,Net-(D3-Pad2)*%
X90698000Y-113689800D03*
%TO.N,Net-(D4-Pad2)*%
X81288500Y-110720900D03*
%TO.N,AltCurrent*%
X132545700Y-126799000D03*
%TO.N,AFR2*%
X135592400Y-133060000D03*
%TO.N,FuelPressure1*%
X126820300Y-116173300D03*
%TO.N,AFR1*%
X132115900Y-132402500D03*
%TO.N,OilPressure*%
X126638600Y-131876200D03*
%TO.N,SCL*%
X164758000Y-108175100D03*
%TO.N,SDA*%
X161501300Y-110389700D03*
X119801300Y-113075400D03*
%TO.N,WaterCS*%
X208562000Y-79403400D03*
%TO.N,FrontCS*%
X185622100Y-129920800D03*
%TO.N,Logging*%
X94460600Y-131038500D03*
X78791000Y-118932900D03*
X94471300Y-119494500D03*
%TO.N,Net-(IC7-Pad1)*%
X94292600Y-110720900D03*
%TO.N,+3.3VP*%
X155502500Y-119259300D03*
X159795500Y-108717600D03*
%TO.N,+2V5*%
X129515600Y-113868200D03*
X116145100Y-114147600D03*
%TO.N,Net-(C19-Pad1)*%
X105545700Y-78954500D03*
%TO.N,Net-(IC7-Pad3)*%
X87735600Y-116658700D03*
%TO.N,Net-(IC7-Pad7)*%
X78760900Y-110624500D03*
%TO.N,GPSBat*%
X113634800Y-150403100D03*
%TO.N,Net-(C27-Pad1)*%
X203288900Y-120306400D03*
%TO.N,Net-(C30-Pad1)*%
X198482100Y-109031100D03*
%TO.N,Net-(C31-Pad1)*%
X233763300Y-89774700D03*
%TO.N,Net-(D5-Pad2)*%
X73638400Y-109764700D03*
X75886000Y-131503200D03*
%TO.N,Net-(IC7-Pad5)*%
X83832800Y-110720900D03*
%TO.N,IN3TTL*%
X82813900Y-121266700D03*
%TO.N,IN2TTL*%
X87757400Y-121397200D03*
X130196600Y-121747900D03*
%TO.N,IN1TTL*%
X92424300Y-122982200D03*
X130358500Y-127521300D03*
%TO.N,/A1*%
X164329700Y-119493700D03*
X168519800Y-147072600D03*
X166109800Y-131258400D03*
%TO.N,RPMEN*%
X204995600Y-124828700D03*
X211008300Y-86240900D03*
%TO.N,Sense2-1*%
X118138400Y-124367400D03*
X112584500Y-131884500D03*
X131918000Y-121500400D03*
X163322600Y-70530800D03*
%TO.N,Sense2-4*%
X170595100Y-80739400D03*
X117297600Y-124679500D03*
X146123200Y-123359700D03*
%TO.N,Sense2-7*%
X153956200Y-130240500D03*
%TO.N,Sense2-10*%
X133863700Y-135550900D03*
D52*
%TO.N,Sense2-12*%
X167982000Y-71925800D03*
D51*
%TO.N,Sense1-1*%
X135936300Y-128611300D03*
X153341700Y-127242800D03*
X170927100Y-104822400D03*
X178587000Y-99305900D03*
%TO.N,Sense1-3*%
X113968000Y-130628100D03*
X152618900Y-130270500D03*
%TO.N,Sense1-4*%
X136323400Y-131385300D03*
X154394500Y-130950300D03*
%TO.N,Sense1-7*%
X132563900Y-110121500D03*
X140238600Y-107854200D03*
X142133700Y-97841700D03*
X186911000Y-88578500D03*
X129698700Y-131250900D03*
%TO.N,Sense1-10*%
X170074000Y-98017800D03*
X131917700Y-125007000D03*
X126773500Y-128271600D03*
X146135200Y-99672500D03*
%TO.N,Sense1-11*%
X155987700Y-113651200D03*
%TO.N,OUTPUTLED2*%
X183307500Y-93517400D03*
%TO.N,OUTPUTLED1*%
X183850100Y-128131900D03*
X187490200Y-93381100D03*
%TO.N,SpareBufferedADC*%
X136035800Y-117361600D03*
%TO.N,Sense1-6*%
X132526600Y-122040100D03*
X164367000Y-63109900D03*
%TO.N,+VSW*%
X120912200Y-132073900D03*
X104724800Y-81515900D03*
%TO.N,Net-(IC19-Pad2)*%
X165647700Y-114537800D03*
%TO.N,Sense1-12*%
X171268700Y-68922600D03*
X132286000Y-119128100D03*
X160739500Y-68922600D03*
%TO.N,Sense1-8*%
X143556000Y-117810600D03*
X113803100Y-117038700D03*
X170012200Y-81750300D03*
%TO.N,/BufferedADC/ADCIN4*%
X131216000Y-126593100D03*
X135106300Y-119500100D03*
%TO.N,RTDSCLK*%
X179151600Y-137426900D03*
%TO.N,RTDMOSI*%
X210180500Y-108740500D03*
%TD*%
D53*
%TO.N,GND*%
X126860000Y-145279000D02*
X127218000Y-144921000D01*
X135572500Y-142381000D02*
X135987000Y-142381000D01*
X127218000Y-144921000D02*
X127218500Y-144921000D01*
D54*
X233602600Y-85259900D02*
X233851300Y-85011200D01*
X162410500Y-113235800D02*
X161451800Y-113235800D01*
X190902000Y-134835000D02*
X190902000Y-123934200D01*
X129439400Y-53974700D02*
X129439400Y-51033300D01*
D55*
X157358300Y-98645700D02*
X152007300Y-98645700D01*
D54*
X165471400Y-104424200D02*
X165539000Y-104356600D01*
X173122300Y-115775800D02*
X171834500Y-115775800D01*
D53*
X135987000Y-142381000D02*
X137809900Y-144203900D01*
D54*
X140623300Y-136552000D02*
X140895900Y-136279400D01*
X162410500Y-114505800D02*
X162410500Y-113235800D01*
X162523100Y-113235800D02*
X162410500Y-113235800D01*
X173122300Y-118315800D02*
X171834500Y-118315800D01*
D53*
X124681200Y-149052000D02*
X127221000Y-149052000D01*
X140350000Y-136825000D02*
X140623000Y-136552000D01*
D54*
X198327400Y-135881000D02*
X203269200Y-130939200D01*
X129997900Y-86177500D02*
X129997900Y-87964700D01*
X190685000Y-99690600D02*
X190736600Y-99639000D01*
X137809900Y-136273900D02*
X137810000Y-136274000D01*
X152007300Y-98645700D02*
X152393700Y-98259300D01*
D53*
X110384000Y-64914700D02*
X110509000Y-65039800D01*
D54*
X171834500Y-114505800D02*
X171496700Y-114505800D01*
D53*
X110509000Y-67906100D02*
X113598000Y-64816300D01*
D54*
X90820900Y-87952800D02*
X90698000Y-88075700D01*
D53*
X86185200Y-55743100D02*
X86185200Y-56964700D01*
D54*
X233851300Y-85011200D02*
X233851300Y-83896500D01*
D53*
X140350000Y-138195000D02*
X140350000Y-136825000D01*
D55*
X220673000Y-106611000D02*
X213852000Y-99789500D01*
X129998000Y-86177400D02*
X129998000Y-84390200D01*
X188439000Y-99789500D02*
X189611000Y-98617200D01*
X137303000Y-77085100D02*
X137303000Y-71925800D01*
D53*
X86185200Y-56964700D02*
X79687400Y-63462600D01*
D54*
X90603300Y-74623300D02*
X90603300Y-74800000D01*
D53*
X98051600Y-61024400D02*
X106493000Y-61024400D01*
D54*
X171947100Y-114505800D02*
X171834500Y-114505800D01*
D55*
X182298000Y-90172700D02*
X176402000Y-90172700D01*
X204216000Y-99789500D02*
X213852000Y-99789500D01*
D53*
X132618000Y-144921000D02*
X135158000Y-142381000D01*
X110384000Y-64914700D02*
X110383600Y-64914700D01*
X113598000Y-64816300D02*
X114476000Y-64816300D01*
D54*
X165471400Y-105049500D02*
X165471400Y-104424200D01*
X127221000Y-149052000D02*
X127221100Y-149051900D01*
D53*
X140350000Y-139565000D02*
X140350000Y-138195000D01*
D55*
X137303000Y-71925800D02*
X139895000Y-69333500D01*
D53*
X137534000Y-142381000D02*
X140350000Y-139565000D01*
D54*
X117048200Y-88425200D02*
X117048200Y-93673200D01*
D55*
X215864000Y-97211300D02*
X215864000Y-96645700D01*
X174219000Y-84818300D02*
X174624700Y-84413400D01*
D53*
X124587000Y-145279000D02*
X119065000Y-145279000D01*
D54*
X162410500Y-115775800D02*
X162410500Y-114505800D01*
D53*
X124587000Y-145279000D02*
X124587200Y-145279200D01*
D54*
X158237900Y-97766100D02*
X158237900Y-92748100D01*
X194382000Y-102320300D02*
X194382000Y-108700800D01*
D53*
X118727500Y-144942000D02*
X118390000Y-144605000D01*
D54*
X185139000Y-99789500D02*
X185138800Y-99789500D01*
D53*
X139406000Y-111481000D02*
X149981000Y-100906000D01*
D54*
X161451800Y-113235800D02*
X160814200Y-112598200D01*
X139556800Y-93759800D02*
X139557000Y-93759800D01*
X90698000Y-88075700D02*
X90698000Y-89834700D01*
X103527600Y-86700000D02*
X103527600Y-91520800D01*
X191948000Y-135881000D02*
X190902000Y-134835000D01*
D53*
X114476000Y-64816300D02*
X114476000Y-66168800D01*
D55*
X189611000Y-97485800D02*
X182298000Y-90172700D01*
D53*
X95632700Y-63443200D02*
X98051600Y-61024400D01*
D54*
X137809900Y-144203900D02*
X137809900Y-144204100D01*
X215864300Y-97211000D02*
X215864300Y-96645700D01*
X135158500Y-142381000D02*
X135158200Y-142381300D01*
D55*
X129998000Y-84390200D02*
X137303000Y-77085100D01*
X158971100Y-98645700D02*
X157358300Y-98645700D01*
D53*
X137809900Y-144203900D02*
X137810000Y-144204000D01*
D54*
X163698300Y-114505800D02*
X162410500Y-114505800D01*
D53*
X149981000Y-100906000D02*
X149981000Y-98645700D01*
X106493000Y-61024400D02*
X110384000Y-64914700D01*
D54*
X163698300Y-118315800D02*
X162410500Y-118315800D01*
X171834500Y-115775800D02*
X171834500Y-117045800D01*
X124587000Y-145279400D02*
X124587200Y-145279200D01*
D53*
X95632700Y-64014500D02*
X95632700Y-63443200D01*
X86185200Y-55743100D02*
X94456600Y-64014500D01*
D54*
X163698300Y-115775800D02*
X162410500Y-115775800D01*
D55*
X191759000Y-100764000D02*
X195938300Y-100764000D01*
D53*
X124587200Y-145279200D02*
X124681000Y-145374000D01*
X135158000Y-142381000D02*
X135158500Y-142381000D01*
D55*
X174219000Y-87990300D02*
X174219000Y-84818300D01*
D54*
X129998000Y-86177400D02*
X129997900Y-86177500D01*
D55*
X189611000Y-98617200D02*
X190685000Y-99690600D01*
D54*
X195938300Y-100764000D02*
X194382000Y-102320300D01*
X165539000Y-104356600D02*
X165539000Y-104206600D01*
D53*
X94456600Y-64014500D02*
X95632700Y-64014500D01*
D54*
X215864000Y-97211300D02*
X215864300Y-97211000D01*
X173122300Y-114505800D02*
X171947100Y-114505800D01*
D53*
X119065000Y-145279000D02*
X118727500Y-144942000D01*
D54*
X140350000Y-138195000D02*
X140349900Y-138195100D01*
D53*
X137815000Y-136279000D02*
X137810000Y-136274000D01*
D54*
X204282300Y-135881000D02*
X204282700Y-135881400D01*
D55*
X189611000Y-98617200D02*
X189611000Y-97485800D01*
D54*
X162410500Y-117045800D02*
X162410500Y-115775800D01*
D55*
X185139000Y-99789500D02*
X188439000Y-99789500D01*
D53*
X124681000Y-145374000D02*
X124681000Y-149052000D01*
X124587000Y-145279000D02*
X126860000Y-145279000D01*
X114476000Y-66168800D02*
X115811000Y-67503600D01*
X124681000Y-149052000D02*
X124681200Y-149052000D01*
X135987000Y-142381000D02*
X137534000Y-142381000D01*
D54*
X118390500Y-144605000D02*
X118390500Y-144604600D01*
D55*
X129998000Y-87964700D02*
X129998000Y-86177400D01*
X167099000Y-98645700D02*
X158971100Y-98645700D01*
D54*
X124681200Y-149052000D02*
X124681100Y-149051900D01*
D55*
X213852000Y-99789500D02*
X215864000Y-97777000D01*
X198327400Y-135881000D02*
X191948000Y-135881000D01*
D53*
X135158500Y-142381000D02*
X135572500Y-142381000D01*
D55*
X226580900Y-106611000D02*
X220673000Y-106611000D01*
D53*
X110509000Y-65039800D02*
X110509000Y-67906100D01*
D54*
X124586900Y-145279400D02*
X124587000Y-145279400D01*
D53*
X135158000Y-142381000D02*
X135158500Y-142381000D01*
D54*
X189611300Y-98617200D02*
X190736600Y-98617200D01*
D55*
X203241000Y-100764000D02*
X204216000Y-99789500D01*
X144443000Y-98645700D02*
X139557000Y-93759800D01*
X195938300Y-100764000D02*
X203241000Y-100764000D01*
X175572000Y-90172700D02*
X167099000Y-98645700D01*
X204283000Y-135881000D02*
X204282300Y-135881000D01*
D54*
X171834500Y-117045800D02*
X171834500Y-118315800D01*
D53*
X106168000Y-64914700D02*
X106104000Y-64850900D01*
D54*
X90860900Y-74365700D02*
X90603300Y-74623300D01*
D55*
X152007300Y-98645700D02*
X149981000Y-98645700D01*
D54*
X127218500Y-144921000D02*
X127218200Y-144921300D01*
X163698300Y-117045800D02*
X162410500Y-117045800D01*
X171834500Y-114505800D02*
X171834500Y-115775800D01*
X118727500Y-144942000D02*
X118390500Y-144605000D01*
D55*
X190685000Y-99690600D02*
X191759000Y-100764000D01*
X226581000Y-106611000D02*
X226580900Y-106611000D01*
D53*
X140896000Y-136279000D02*
X137815000Y-136279000D01*
D55*
X176402000Y-90172700D02*
X175572000Y-90172700D01*
X149981000Y-98645700D02*
X144443000Y-98645700D01*
D54*
X163698300Y-113235800D02*
X162523100Y-113235800D01*
X190736600Y-99639000D02*
X190736600Y-98617200D01*
D55*
X204282300Y-135881000D02*
X198327400Y-135881000D01*
D54*
X171496700Y-114505800D02*
X170680700Y-113689800D01*
X226580900Y-106611000D02*
X226581200Y-106610700D01*
D55*
X176402000Y-90172700D02*
X174219000Y-87990300D01*
D53*
X135572500Y-142381000D02*
X135987000Y-142381000D01*
X110383600Y-64914700D02*
X106168000Y-64914700D01*
D54*
X140349900Y-138195100D02*
X140349900Y-139564900D01*
X173122300Y-117045800D02*
X171834500Y-117045800D01*
D53*
X140623000Y-136552000D02*
X140896000Y-136279000D01*
X135158500Y-142381000D02*
X135572500Y-142381000D01*
D55*
X191948000Y-135881000D02*
X185206000Y-135881000D01*
D54*
X157358300Y-98645700D02*
X158237900Y-97766100D01*
X152393700Y-98259300D02*
X152393700Y-95182900D01*
X162410500Y-118315800D02*
X162410500Y-117045800D01*
X140623000Y-136552000D02*
X140623300Y-136552000D01*
D55*
X215864000Y-97777000D02*
X215864000Y-97211300D01*
D53*
X133585600Y-111481000D02*
X139406000Y-111481000D01*
X127218500Y-144921000D02*
X132618000Y-144921000D01*
D56*
%TO.N,+5V*%
X101034000Y-98161300D02*
X124801000Y-98161300D01*
X89012600Y-95660800D02*
X98533500Y-95660800D01*
X124801000Y-98161300D02*
X134997900Y-87964700D01*
X86764900Y-97908600D02*
X89012600Y-95660800D01*
X98533500Y-95660800D02*
X101034000Y-98161300D01*
D54*
X174410100Y-110695800D02*
X174410100Y-110615300D01*
X173122300Y-110695800D02*
X174410100Y-110695800D01*
X174410100Y-110615300D02*
X174596200Y-110429200D01*
D56*
%TO.N,+10V*%
X88060600Y-91532800D02*
X98369900Y-91532800D01*
X81684900Y-97908600D02*
X88060600Y-91532800D01*
D54*
%TO.N,Net-(D10-Pad1)*%
X159994500Y-111965800D02*
X159566300Y-112394000D01*
X163698300Y-111965800D02*
X159994500Y-111965800D01*
%TO.N,SCL*%
X163698300Y-109425800D02*
X164986100Y-109425800D01*
X164986100Y-109425800D02*
X164986100Y-108403200D01*
X164986100Y-108403200D02*
X164758000Y-108175100D01*
%TO.N,SDA*%
X163698300Y-110695800D02*
X161807400Y-110695800D01*
X161807400Y-110695800D02*
X161501300Y-110389700D01*
D55*
%TO.N,+3.3VP*%
X70584100Y-100947000D02*
X77523300Y-94008000D01*
X93135200Y-69046900D02*
X96908400Y-69046900D01*
D54*
X162421100Y-106092000D02*
X159795500Y-108717600D01*
D55*
X77523300Y-76709400D02*
X80512800Y-73720000D01*
X89523300Y-73720000D02*
X90139100Y-73104200D01*
X80512800Y-73720000D02*
X89523300Y-73720000D01*
X90139100Y-72042900D02*
X93135200Y-69046900D01*
X77523300Y-94008000D02*
X77523300Y-76709400D01*
D54*
X162421100Y-105999500D02*
X162421100Y-106092000D01*
X70584100Y-100947000D02*
X70584100Y-100947200D01*
X163371400Y-105999500D02*
X162421100Y-105999500D01*
D55*
X90139100Y-73104200D02*
X90139100Y-72042900D01*
X96908400Y-69046900D02*
X101104000Y-64850900D01*
D54*
%TO.N,Net-(C31-Pad1)*%
X233763300Y-88670600D02*
X233763300Y-89774700D01*
X233602600Y-88509900D02*
X233763300Y-88670600D01*
D57*
%TO.N,Sense2-3*%
X180857000Y-59252400D02*
X180857000Y-58423700D01*
X180857000Y-57595100D02*
X179859000Y-56596300D01*
X153561000Y-53288700D02*
X152969100Y-53288700D01*
X180857000Y-58423700D02*
X180857000Y-57595100D01*
X179859000Y-56596300D02*
X167307000Y-56596300D01*
X164325000Y-59578800D02*
X159851000Y-59578800D01*
D54*
X180857000Y-58423700D02*
X180857300Y-58424000D01*
D57*
X167307000Y-56596300D02*
X164325000Y-59578800D01*
X159851000Y-59578800D02*
X153561000Y-53288700D01*
D54*
X180857300Y-58424000D02*
X180857300Y-59252400D01*
%TO.N,Sense2-6*%
X177047000Y-60696900D02*
X177047300Y-60696600D01*
D57*
X167618000Y-67221500D02*
X165381000Y-69458400D01*
X165381000Y-71819600D02*
X161308000Y-71819600D01*
X154327000Y-64838000D02*
X152969100Y-64838000D01*
X177047000Y-59252400D02*
X177047000Y-60696900D01*
X177047000Y-60696900D02*
X177047000Y-62141500D01*
X177047000Y-62141500D02*
X171967000Y-67221500D01*
X171967000Y-67221500D02*
X167618000Y-67221500D01*
X165381000Y-69458400D02*
X165381000Y-71819600D01*
D54*
X177047300Y-60696600D02*
X177047300Y-59252400D01*
D57*
X161308000Y-71819600D02*
X154327000Y-64838000D01*
D58*
%TO.N,Net-(Q10-Pad1)*%
X165554228Y-50102072D02*
X165554228Y-53083772D01*
X167229300Y-48427000D02*
X165554228Y-50102072D01*
X165554228Y-53083772D02*
X162809300Y-55828700D01*
D59*
%TO.N,+VSW*%
X85865600Y-91704700D02*
X85865600Y-81377500D01*
X79661800Y-97908600D02*
X85865600Y-91704700D01*
X79144900Y-97908600D02*
X79661800Y-97908600D01*
D54*
X124580100Y-137553400D02*
X120912200Y-133885500D01*
D59*
X85865600Y-81377500D02*
X87114000Y-80129100D01*
D54*
X120912200Y-133885500D02*
X120912200Y-132073900D01*
D59*
X87114000Y-80129100D02*
X88471600Y-80129100D01*
D54*
%TO.N,Net-(IC19-Pad2)*%
X165647700Y-107751100D02*
X165647700Y-114537800D01*
X165471400Y-106949500D02*
X165471400Y-107574800D01*
X165471400Y-107574800D02*
X165647700Y-107751100D01*
%TO.N,Sense2-5*%
X178947300Y-70682400D02*
X178947000Y-70682400D01*
D57*
X167213000Y-76387300D02*
X168860000Y-74739900D01*
X162856400Y-76387300D02*
X167213000Y-76387300D01*
X168860000Y-74739900D02*
X174890000Y-74739900D01*
X174890000Y-74739900D02*
X178947000Y-70682400D01*
%TD*%
%TA.AperFunction,Conductor*%
%TO.N,GND*%
G36*
X123013986Y-47518002D02*
G01*
X123060479Y-47571658D01*
X123071865Y-47624018D01*
X123071208Y-52127905D01*
X124231330Y-52130145D01*
X124284330Y-52141948D01*
X124440957Y-52214984D01*
X124446265Y-52216406D01*
X124446267Y-52216407D01*
X124656798Y-52272819D01*
X124656800Y-52272819D01*
X124662113Y-52274243D01*
X124890200Y-52294198D01*
X125118287Y-52274243D01*
X125123600Y-52272819D01*
X125123602Y-52272819D01*
X125334133Y-52216407D01*
X125334135Y-52216406D01*
X125339443Y-52214984D01*
X125344420Y-52212663D01*
X125344426Y-52212661D01*
X125490632Y-52144484D01*
X125544124Y-52132679D01*
X127339625Y-52136146D01*
X130138268Y-52141549D01*
X130197952Y-52156712D01*
X130306965Y-52215656D01*
X130346364Y-52227852D01*
X130494693Y-52273768D01*
X130494696Y-52273769D01*
X130500580Y-52275590D01*
X130506705Y-52276234D01*
X130506706Y-52276234D01*
X130696022Y-52296132D01*
X130696023Y-52296132D01*
X130702150Y-52296776D01*
X130785414Y-52289198D01*
X130897857Y-52278965D01*
X130897860Y-52278964D01*
X130903996Y-52278406D01*
X130909902Y-52276668D01*
X130909906Y-52276667D01*
X131092520Y-52222920D01*
X131092519Y-52222920D01*
X131098429Y-52221181D01*
X131103889Y-52218327D01*
X131103893Y-52218325D01*
X131219120Y-52158087D01*
X131277737Y-52143749D01*
X131412817Y-52144010D01*
X131472502Y-52159174D01*
X131571542Y-52212724D01*
X131576965Y-52215656D01*
X131616364Y-52227852D01*
X131764693Y-52273768D01*
X131764696Y-52273769D01*
X131770580Y-52275590D01*
X131776705Y-52276234D01*
X131776706Y-52276234D01*
X131966022Y-52296132D01*
X131966023Y-52296132D01*
X131972150Y-52296776D01*
X132055414Y-52289198D01*
X132167857Y-52278965D01*
X132167860Y-52278964D01*
X132173996Y-52278406D01*
X132179902Y-52276668D01*
X132179906Y-52276667D01*
X132362520Y-52222920D01*
X132362519Y-52222920D01*
X132368429Y-52221181D01*
X132484447Y-52160529D01*
X132543063Y-52146191D01*
X135224941Y-52151369D01*
X136573650Y-52153973D01*
X136641732Y-52174107D01*
X136688121Y-52227852D01*
X136699407Y-52279659D01*
X136743056Y-69802912D01*
X136757419Y-75569245D01*
X138320806Y-75597774D01*
X138388549Y-75619016D01*
X138434056Y-75673511D01*
X138444489Y-75725823D01*
X138346674Y-81678051D01*
X138339120Y-82137734D01*
X138324770Y-83010927D01*
X138303651Y-83078710D01*
X138249239Y-83124315D01*
X138200137Y-83134850D01*
X125233062Y-83273751D01*
X123966805Y-83287315D01*
X123976396Y-87595780D01*
X123978431Y-88510074D01*
X123958580Y-88578239D01*
X123905028Y-88624851D01*
X123852417Y-88636354D01*
X106554988Y-88634284D01*
X90923197Y-88632414D01*
X90855079Y-88612404D01*
X90808592Y-88558743D01*
X90797212Y-88506192D01*
X90798782Y-87615177D01*
X90800951Y-86384034D01*
X91596200Y-86384034D01*
X91602955Y-86446216D01*
X91654085Y-86582605D01*
X91741439Y-86699161D01*
X91857995Y-86786515D01*
X91994384Y-86837645D01*
X92056566Y-86844400D01*
X93727834Y-86844400D01*
X93790016Y-86837645D01*
X93926405Y-86786515D01*
X94042961Y-86699161D01*
X94130315Y-86582605D01*
X94181445Y-86446216D01*
X94188200Y-86384034D01*
X94188200Y-86102400D01*
X94539035Y-86102400D01*
X94557665Y-86339111D01*
X94558819Y-86343918D01*
X94558820Y-86343924D01*
X94584676Y-86451619D01*
X94613095Y-86569994D01*
X94614988Y-86574565D01*
X94614989Y-86574567D01*
X94678451Y-86727778D01*
X94703960Y-86789363D01*
X94706546Y-86793583D01*
X94825441Y-86987602D01*
X94825445Y-86987608D01*
X94828024Y-86991816D01*
X94982231Y-87172369D01*
X95162784Y-87326576D01*
X95166992Y-87329155D01*
X95166998Y-87329159D01*
X95291022Y-87405161D01*
X95365237Y-87450640D01*
X95369807Y-87452533D01*
X95369811Y-87452535D01*
X95580033Y-87539611D01*
X95584606Y-87541505D01*
X95664809Y-87560760D01*
X95810676Y-87595780D01*
X95810682Y-87595781D01*
X95815489Y-87596935D01*
X96052200Y-87615565D01*
X96288911Y-87596935D01*
X96293718Y-87595781D01*
X96293724Y-87595780D01*
X96439591Y-87560760D01*
X96519794Y-87541505D01*
X96524367Y-87539611D01*
X96734589Y-87452535D01*
X96734593Y-87452533D01*
X96739163Y-87450640D01*
X96813378Y-87405161D01*
X96937402Y-87329159D01*
X96937408Y-87329155D01*
X96941616Y-87326576D01*
X97122169Y-87172369D01*
X97276376Y-86991816D01*
X97278955Y-86987608D01*
X97278959Y-86987602D01*
X97397854Y-86793583D01*
X97400440Y-86789363D01*
X97425950Y-86727778D01*
X97489411Y-86574567D01*
X97489412Y-86574565D01*
X97491305Y-86569994D01*
X97519724Y-86451619D01*
X97545580Y-86343924D01*
X97545581Y-86343918D01*
X97546735Y-86339111D01*
X97565365Y-86102400D01*
X109779035Y-86102400D01*
X109797665Y-86339111D01*
X109798819Y-86343918D01*
X109798820Y-86343924D01*
X109824676Y-86451619D01*
X109853095Y-86569994D01*
X109854988Y-86574565D01*
X109854989Y-86574567D01*
X109918451Y-86727778D01*
X109943960Y-86789363D01*
X109946546Y-86793583D01*
X110065441Y-86987602D01*
X110065445Y-86987608D01*
X110068024Y-86991816D01*
X110222231Y-87172369D01*
X110402784Y-87326576D01*
X110406992Y-87329155D01*
X110406998Y-87329159D01*
X110531022Y-87405161D01*
X110605237Y-87450640D01*
X110609807Y-87452533D01*
X110609811Y-87452535D01*
X110820033Y-87539611D01*
X110824606Y-87541505D01*
X110904809Y-87560760D01*
X111050676Y-87595780D01*
X111050682Y-87595781D01*
X111055489Y-87596935D01*
X111292200Y-87615565D01*
X111528911Y-87596935D01*
X111533718Y-87595781D01*
X111533724Y-87595780D01*
X111679591Y-87560760D01*
X111759794Y-87541505D01*
X111764367Y-87539611D01*
X111974589Y-87452535D01*
X111974593Y-87452533D01*
X111979163Y-87450640D01*
X112053378Y-87405161D01*
X112177402Y-87329159D01*
X112177408Y-87329155D01*
X112181616Y-87326576D01*
X112362169Y-87172369D01*
X112516376Y-86991816D01*
X112518955Y-86987608D01*
X112518959Y-86987602D01*
X112637854Y-86793583D01*
X112640440Y-86789363D01*
X112665950Y-86727778D01*
X112729411Y-86574567D01*
X112729412Y-86574565D01*
X112731305Y-86569994D01*
X112759724Y-86451619D01*
X112785580Y-86343924D01*
X112785581Y-86343918D01*
X112786735Y-86339111D01*
X112799793Y-86173200D01*
X115734702Y-86173200D01*
X115754657Y-86401287D01*
X115756081Y-86406600D01*
X115756081Y-86406602D01*
X115801088Y-86574567D01*
X115813916Y-86622443D01*
X115816239Y-86627424D01*
X115816239Y-86627425D01*
X115908351Y-86824962D01*
X115908354Y-86824967D01*
X115910677Y-86829949D01*
X116042002Y-87017500D01*
X116203900Y-87179398D01*
X116208408Y-87182555D01*
X116208411Y-87182557D01*
X116286589Y-87237298D01*
X116391451Y-87310723D01*
X116396433Y-87313046D01*
X116396438Y-87313049D01*
X116593975Y-87405161D01*
X116598957Y-87407484D01*
X116604265Y-87408906D01*
X116604267Y-87408907D01*
X116814798Y-87465319D01*
X116814800Y-87465319D01*
X116820113Y-87466743D01*
X117048200Y-87486698D01*
X117276287Y-87466743D01*
X117281600Y-87465319D01*
X117281602Y-87465319D01*
X117492133Y-87408907D01*
X117492135Y-87408906D01*
X117497443Y-87407484D01*
X117502425Y-87405161D01*
X117699962Y-87313049D01*
X117699967Y-87313046D01*
X117704949Y-87310723D01*
X117809811Y-87237298D01*
X117887989Y-87182557D01*
X117887992Y-87182555D01*
X117892500Y-87179398D01*
X118054398Y-87017500D01*
X118185723Y-86829949D01*
X118188046Y-86824967D01*
X118188049Y-86824962D01*
X118280161Y-86627425D01*
X118280161Y-86627424D01*
X118282484Y-86622443D01*
X118295313Y-86574567D01*
X118340319Y-86406602D01*
X118340319Y-86406600D01*
X118341743Y-86401287D01*
X118361698Y-86173200D01*
X118341743Y-85945113D01*
X118340319Y-85939798D01*
X118283907Y-85729267D01*
X118283906Y-85729265D01*
X118282484Y-85723957D01*
X118253927Y-85662715D01*
X118188049Y-85521438D01*
X118188046Y-85521433D01*
X118185723Y-85516451D01*
X118054398Y-85328900D01*
X117892500Y-85167002D01*
X117887992Y-85163845D01*
X117887989Y-85163843D01*
X117721038Y-85046943D01*
X117704949Y-85035677D01*
X117699967Y-85033354D01*
X117699962Y-85033351D01*
X117502425Y-84941239D01*
X117502424Y-84941239D01*
X117497443Y-84938916D01*
X117492135Y-84937494D01*
X117492133Y-84937493D01*
X117281602Y-84881081D01*
X117281600Y-84881081D01*
X117276287Y-84879657D01*
X117048200Y-84859702D01*
X116820113Y-84879657D01*
X116814800Y-84881081D01*
X116814798Y-84881081D01*
X116604267Y-84937493D01*
X116604265Y-84937494D01*
X116598957Y-84938916D01*
X116593976Y-84941239D01*
X116593975Y-84941239D01*
X116396438Y-85033351D01*
X116396433Y-85033354D01*
X116391451Y-85035677D01*
X116375362Y-85046943D01*
X116208411Y-85163843D01*
X116208408Y-85163845D01*
X116203900Y-85167002D01*
X116042002Y-85328900D01*
X115910677Y-85516451D01*
X115908354Y-85521433D01*
X115908351Y-85521438D01*
X115842473Y-85662715D01*
X115813916Y-85723957D01*
X115812494Y-85729265D01*
X115812493Y-85729267D01*
X115756081Y-85939798D01*
X115754657Y-85945113D01*
X115734702Y-86173200D01*
X112799793Y-86173200D01*
X112805365Y-86102400D01*
X112786735Y-85865689D01*
X112778644Y-85831984D01*
X112732460Y-85639618D01*
X112731305Y-85634806D01*
X112680414Y-85511943D01*
X112642335Y-85420011D01*
X112642333Y-85420007D01*
X112640440Y-85415437D01*
X112585022Y-85325003D01*
X112518959Y-85217198D01*
X112518955Y-85217192D01*
X112516376Y-85212984D01*
X112362169Y-85032431D01*
X112181616Y-84878224D01*
X112177408Y-84875645D01*
X112177402Y-84875641D01*
X111983383Y-84756746D01*
X111979163Y-84754160D01*
X111974593Y-84752267D01*
X111974589Y-84752265D01*
X111764367Y-84665189D01*
X111764365Y-84665188D01*
X111759794Y-84663295D01*
X111676030Y-84643185D01*
X111533724Y-84609020D01*
X111533718Y-84609019D01*
X111528911Y-84607865D01*
X111292200Y-84589235D01*
X111055489Y-84607865D01*
X111050682Y-84609019D01*
X111050676Y-84609020D01*
X110908370Y-84643185D01*
X110824606Y-84663295D01*
X110820035Y-84665188D01*
X110820033Y-84665189D01*
X110609811Y-84752265D01*
X110609807Y-84752267D01*
X110605237Y-84754160D01*
X110601017Y-84756746D01*
X110406998Y-84875641D01*
X110406992Y-84875645D01*
X110402784Y-84878224D01*
X110222231Y-85032431D01*
X110068024Y-85212984D01*
X110065445Y-85217192D01*
X110065441Y-85217198D01*
X109999378Y-85325003D01*
X109943960Y-85415437D01*
X109942067Y-85420007D01*
X109942065Y-85420011D01*
X109903986Y-85511943D01*
X109853095Y-85634806D01*
X109851940Y-85639618D01*
X109805757Y-85831984D01*
X109797665Y-85865689D01*
X109779035Y-86102400D01*
X97565365Y-86102400D01*
X97546735Y-85865689D01*
X97538644Y-85831984D01*
X97492460Y-85639618D01*
X97491305Y-85634806D01*
X97440414Y-85511943D01*
X97402335Y-85420011D01*
X97402333Y-85420007D01*
X97400440Y-85415437D01*
X97345022Y-85325003D01*
X97278959Y-85217198D01*
X97278955Y-85217192D01*
X97276376Y-85212984D01*
X97122169Y-85032431D01*
X96941616Y-84878224D01*
X96937408Y-84875645D01*
X96937402Y-84875641D01*
X96743383Y-84756746D01*
X96739163Y-84754160D01*
X96734593Y-84752267D01*
X96734589Y-84752265D01*
X96524367Y-84665189D01*
X96524365Y-84665188D01*
X96519794Y-84663295D01*
X96436030Y-84643185D01*
X96293724Y-84609020D01*
X96293718Y-84609019D01*
X96288911Y-84607865D01*
X96052200Y-84589235D01*
X95815489Y-84607865D01*
X95810682Y-84609019D01*
X95810676Y-84609020D01*
X95668370Y-84643185D01*
X95584606Y-84663295D01*
X95580035Y-84665188D01*
X95580033Y-84665189D01*
X95369811Y-84752265D01*
X95369807Y-84752267D01*
X95365237Y-84754160D01*
X95361017Y-84756746D01*
X95166998Y-84875641D01*
X95166992Y-84875645D01*
X95162784Y-84878224D01*
X94982231Y-85032431D01*
X94828024Y-85212984D01*
X94825445Y-85217192D01*
X94825441Y-85217198D01*
X94759378Y-85325003D01*
X94703960Y-85415437D01*
X94702067Y-85420007D01*
X94702065Y-85420011D01*
X94663986Y-85511943D01*
X94613095Y-85634806D01*
X94611940Y-85639618D01*
X94565757Y-85831984D01*
X94557665Y-85865689D01*
X94539035Y-86102400D01*
X94188200Y-86102400D01*
X94188200Y-84712766D01*
X94181445Y-84650584D01*
X94130315Y-84514195D01*
X94114231Y-84492734D01*
X119254900Y-84492734D01*
X119261655Y-84554916D01*
X119312785Y-84691305D01*
X119400139Y-84807861D01*
X119516695Y-84895215D01*
X119653084Y-84946345D01*
X119715266Y-84953100D01*
X122061534Y-84953100D01*
X122123716Y-84946345D01*
X122260105Y-84895215D01*
X122376661Y-84807861D01*
X122464015Y-84691305D01*
X122515145Y-84554916D01*
X122521900Y-84492734D01*
X122521900Y-82146466D01*
X122515145Y-82084284D01*
X122464015Y-81947895D01*
X122376661Y-81831339D01*
X122260105Y-81743985D01*
X122123716Y-81692855D01*
X122061534Y-81686100D01*
X119715266Y-81686100D01*
X119653084Y-81692855D01*
X119516695Y-81743985D01*
X119400139Y-81831339D01*
X119312785Y-81947895D01*
X119261655Y-82084284D01*
X119254900Y-82146466D01*
X119254900Y-84492734D01*
X94114231Y-84492734D01*
X94042961Y-84397639D01*
X93926405Y-84310285D01*
X93790016Y-84259155D01*
X93727834Y-84252400D01*
X92056566Y-84252400D01*
X91994384Y-84259155D01*
X91857995Y-84310285D01*
X91741439Y-84397639D01*
X91654085Y-84514195D01*
X91602955Y-84650584D01*
X91596200Y-84712766D01*
X91596200Y-86384034D01*
X90800951Y-86384034D01*
X90809545Y-81504540D01*
X103911263Y-81504540D01*
X103928963Y-81685060D01*
X103986218Y-81857173D01*
X103989865Y-81863195D01*
X103989866Y-81863197D01*
X104046253Y-81956303D01*
X104080180Y-82012324D01*
X104206182Y-82142802D01*
X104357959Y-82242122D01*
X104364563Y-82244578D01*
X104364565Y-82244579D01*
X104521358Y-82302890D01*
X104521360Y-82302890D01*
X104527968Y-82305348D01*
X104611795Y-82316533D01*
X104700780Y-82328407D01*
X104700784Y-82328407D01*
X104707761Y-82329338D01*
X104714772Y-82328700D01*
X104714776Y-82328700D01*
X104857259Y-82315732D01*
X104888400Y-82312898D01*
X104895102Y-82310720D01*
X104895104Y-82310720D01*
X105054209Y-82259024D01*
X105054212Y-82259023D01*
X105060908Y-82256847D01*
X105216712Y-82163969D01*
X105348066Y-82038882D01*
X105448443Y-81887802D01*
X105512855Y-81718238D01*
X105515606Y-81698663D01*
X105537548Y-81542539D01*
X105537548Y-81542536D01*
X105538099Y-81538617D01*
X105538416Y-81515900D01*
X105525745Y-81402934D01*
X111765800Y-81402934D01*
X111772555Y-81465116D01*
X111823685Y-81601505D01*
X111911039Y-81718061D01*
X112027595Y-81805415D01*
X112163984Y-81856545D01*
X112226166Y-81863300D01*
X113922434Y-81863300D01*
X113984616Y-81856545D01*
X114121005Y-81805415D01*
X114237561Y-81718061D01*
X114324915Y-81601505D01*
X114376045Y-81465116D01*
X114382800Y-81402934D01*
X114382800Y-81011700D01*
X123663135Y-81011700D01*
X123681765Y-81248411D01*
X123682919Y-81253218D01*
X123682920Y-81253224D01*
X123711734Y-81373240D01*
X123737195Y-81479294D01*
X123739088Y-81483865D01*
X123739089Y-81483867D01*
X123790793Y-81608691D01*
X123828060Y-81698663D01*
X123830646Y-81702883D01*
X123949541Y-81896902D01*
X123949545Y-81896908D01*
X123952124Y-81901116D01*
X124106331Y-82081669D01*
X124286884Y-82235876D01*
X124291092Y-82238455D01*
X124291098Y-82238459D01*
X124437880Y-82328407D01*
X124489337Y-82359940D01*
X124493907Y-82361833D01*
X124493911Y-82361835D01*
X124704133Y-82448911D01*
X124708706Y-82450805D01*
X124788909Y-82470060D01*
X124934776Y-82505080D01*
X124934782Y-82505081D01*
X124939589Y-82506235D01*
X125176300Y-82524865D01*
X125413011Y-82506235D01*
X125417818Y-82505081D01*
X125417824Y-82505080D01*
X125563691Y-82470060D01*
X125643894Y-82450805D01*
X125648467Y-82448911D01*
X125858689Y-82361835D01*
X125858693Y-82361833D01*
X125863263Y-82359940D01*
X125914720Y-82328407D01*
X126061502Y-82238459D01*
X126061508Y-82238455D01*
X126065716Y-82235876D01*
X126246269Y-82081669D01*
X126400476Y-81901116D01*
X126403055Y-81896908D01*
X126403059Y-81896902D01*
X126521954Y-81702883D01*
X126524540Y-81698663D01*
X126561808Y-81608691D01*
X126613511Y-81483867D01*
X126613512Y-81483865D01*
X126615405Y-81479294D01*
X126640866Y-81373240D01*
X126669680Y-81253224D01*
X126669681Y-81253218D01*
X126670835Y-81248411D01*
X126689465Y-81011700D01*
X126670835Y-80774989D01*
X126655913Y-80712831D01*
X126616560Y-80548918D01*
X126615405Y-80544106D01*
X126524540Y-80324737D01*
X126479230Y-80250798D01*
X126403059Y-80126498D01*
X126403055Y-80126492D01*
X126400476Y-80122284D01*
X126246269Y-79941731D01*
X126065716Y-79787524D01*
X126061508Y-79784945D01*
X126061502Y-79784941D01*
X125867483Y-79666046D01*
X125863263Y-79663460D01*
X125858693Y-79661567D01*
X125858689Y-79661565D01*
X125648467Y-79574489D01*
X125648465Y-79574488D01*
X125643894Y-79572595D01*
X125548242Y-79549631D01*
X125417824Y-79518320D01*
X125417818Y-79518319D01*
X125413011Y-79517165D01*
X125176300Y-79498535D01*
X124939589Y-79517165D01*
X124934782Y-79518319D01*
X124934776Y-79518320D01*
X124804358Y-79549631D01*
X124708706Y-79572595D01*
X124704135Y-79574488D01*
X124704133Y-79574489D01*
X124493911Y-79661565D01*
X124493907Y-79661567D01*
X124489337Y-79663460D01*
X124485117Y-79666046D01*
X124291098Y-79784941D01*
X124291092Y-79784945D01*
X124286884Y-79787524D01*
X124106331Y-79941731D01*
X123952124Y-80122284D01*
X123949545Y-80126492D01*
X123949541Y-80126498D01*
X123873370Y-80250798D01*
X123828060Y-80324737D01*
X123737195Y-80544106D01*
X123736040Y-80548918D01*
X123696688Y-80712831D01*
X123681765Y-80774989D01*
X123663135Y-81011700D01*
X114382800Y-81011700D01*
X114382800Y-79706666D01*
X114376045Y-79644484D01*
X114324915Y-79508095D01*
X114237561Y-79391539D01*
X114121005Y-79304185D01*
X113984616Y-79253055D01*
X113922434Y-79246300D01*
X112226166Y-79246300D01*
X112163984Y-79253055D01*
X112027595Y-79304185D01*
X111911039Y-79391539D01*
X111823685Y-79508095D01*
X111772555Y-79644484D01*
X111765800Y-79706666D01*
X111765800Y-81402934D01*
X105525745Y-81402934D01*
X105518197Y-81335645D01*
X105514596Y-81325303D01*
X105460864Y-81171006D01*
X105460862Y-81171003D01*
X105458545Y-81164348D01*
X105362426Y-81010524D01*
X105305223Y-80952920D01*
X105239578Y-80886815D01*
X105239574Y-80886812D01*
X105234615Y-80881818D01*
X105223497Y-80874762D01*
X105175338Y-80844200D01*
X105081466Y-80784627D01*
X105040883Y-80770176D01*
X104917225Y-80726143D01*
X104917220Y-80726142D01*
X104910590Y-80723781D01*
X104903602Y-80722948D01*
X104903599Y-80722947D01*
X104780498Y-80708268D01*
X104730480Y-80702304D01*
X104723477Y-80703040D01*
X104723476Y-80703040D01*
X104557088Y-80720528D01*
X104557086Y-80720529D01*
X104550088Y-80721264D01*
X104378379Y-80779718D01*
X104372375Y-80783412D01*
X104229895Y-80871066D01*
X104229892Y-80871068D01*
X104223888Y-80874762D01*
X104218853Y-80879693D01*
X104218850Y-80879695D01*
X104099325Y-80996743D01*
X104094293Y-81001671D01*
X103996035Y-81154138D01*
X103993626Y-81160758D01*
X103993624Y-81160761D01*
X103936406Y-81317966D01*
X103933997Y-81324585D01*
X103911263Y-81504540D01*
X90809545Y-81504540D01*
X90810405Y-81016498D01*
X90814067Y-78937300D01*
X95714602Y-78937300D01*
X95734557Y-79165387D01*
X95735981Y-79170700D01*
X95735981Y-79170702D01*
X95758367Y-79254245D01*
X95793816Y-79386543D01*
X95796139Y-79391524D01*
X95796139Y-79391525D01*
X95888251Y-79589062D01*
X95888254Y-79589067D01*
X95890577Y-79594049D01*
X95939179Y-79663460D01*
X96012336Y-79767938D01*
X96021902Y-79781600D01*
X96183800Y-79943498D01*
X96188308Y-79946655D01*
X96188311Y-79946657D01*
X96266489Y-80001398D01*
X96371351Y-80074823D01*
X96376333Y-80077146D01*
X96376338Y-80077149D01*
X96487749Y-80129100D01*
X96578857Y-80171584D01*
X96584165Y-80173006D01*
X96584167Y-80173007D01*
X96794698Y-80229419D01*
X96794700Y-80229419D01*
X96800013Y-80230843D01*
X97028100Y-80250798D01*
X97256187Y-80230843D01*
X97261500Y-80229419D01*
X97261502Y-80229419D01*
X97472033Y-80173007D01*
X97472035Y-80173006D01*
X97477343Y-80171584D01*
X97568451Y-80129100D01*
X97679862Y-80077149D01*
X97679867Y-80077146D01*
X97684849Y-80074823D01*
X97789711Y-80001398D01*
X97867889Y-79946657D01*
X97867892Y-79946655D01*
X97872400Y-79943498D01*
X98034298Y-79781600D01*
X98043865Y-79767938D01*
X98117021Y-79663460D01*
X98165623Y-79594049D01*
X98167946Y-79589067D01*
X98167949Y-79589062D01*
X98260061Y-79391525D01*
X98260061Y-79391524D01*
X98262384Y-79386543D01*
X98297834Y-79254245D01*
X98320219Y-79170702D01*
X98320219Y-79170700D01*
X98321643Y-79165387D01*
X98341087Y-78943140D01*
X104732163Y-78943140D01*
X104749863Y-79123660D01*
X104807118Y-79295773D01*
X104810765Y-79301795D01*
X104810766Y-79301797D01*
X104873580Y-79405515D01*
X104901080Y-79450924D01*
X104905969Y-79455987D01*
X104905970Y-79455988D01*
X104949350Y-79500909D01*
X105027082Y-79581402D01*
X105032978Y-79585260D01*
X105156432Y-79666046D01*
X105178859Y-79680722D01*
X105185463Y-79683178D01*
X105185465Y-79683179D01*
X105342258Y-79741490D01*
X105342260Y-79741490D01*
X105348868Y-79743948D01*
X105432695Y-79755133D01*
X105521680Y-79767007D01*
X105521684Y-79767007D01*
X105528661Y-79767938D01*
X105535672Y-79767300D01*
X105535676Y-79767300D01*
X105689170Y-79753330D01*
X105709300Y-79751498D01*
X105716002Y-79749320D01*
X105716004Y-79749320D01*
X105875109Y-79697624D01*
X105875112Y-79697623D01*
X105881808Y-79695447D01*
X106037612Y-79602569D01*
X106168966Y-79477482D01*
X106269343Y-79326402D01*
X106311123Y-79216417D01*
X106331255Y-79163420D01*
X106331256Y-79163418D01*
X106333755Y-79156838D01*
X106336543Y-79137000D01*
X106358448Y-78981139D01*
X106358448Y-78981136D01*
X106358999Y-78977217D01*
X106359316Y-78954500D01*
X106339097Y-78774245D01*
X106336780Y-78767591D01*
X106281764Y-78609606D01*
X106281762Y-78609603D01*
X106279445Y-78602948D01*
X106183326Y-78449124D01*
X106143373Y-78408891D01*
X106060478Y-78325415D01*
X106060474Y-78325412D01*
X106055515Y-78320418D01*
X106044397Y-78313362D01*
X105981929Y-78273719D01*
X105902366Y-78223227D01*
X105873163Y-78212828D01*
X105738125Y-78164743D01*
X105738120Y-78164742D01*
X105731490Y-78162381D01*
X105724502Y-78161548D01*
X105724499Y-78161547D01*
X105601398Y-78146868D01*
X105551380Y-78140904D01*
X105544377Y-78141640D01*
X105544376Y-78141640D01*
X105377988Y-78159128D01*
X105377986Y-78159129D01*
X105370988Y-78159864D01*
X105199279Y-78218318D01*
X105193275Y-78222012D01*
X105050795Y-78309666D01*
X105050792Y-78309668D01*
X105044788Y-78313362D01*
X105039753Y-78318293D01*
X105039750Y-78318295D01*
X104947237Y-78408891D01*
X104915193Y-78440271D01*
X104816935Y-78592738D01*
X104814526Y-78599358D01*
X104814524Y-78599361D01*
X104757306Y-78756566D01*
X104754897Y-78763185D01*
X104732163Y-78943140D01*
X98341087Y-78943140D01*
X98341598Y-78937300D01*
X98321643Y-78709213D01*
X98291567Y-78596969D01*
X98263807Y-78493367D01*
X98263806Y-78493365D01*
X98262384Y-78488057D01*
X98260061Y-78483075D01*
X98167949Y-78285538D01*
X98167946Y-78285533D01*
X98165623Y-78280551D01*
X98081117Y-78159864D01*
X98037457Y-78097511D01*
X98037455Y-78097508D01*
X98034298Y-78093000D01*
X97872400Y-77931102D01*
X97867892Y-77927945D01*
X97867889Y-77927943D01*
X97745916Y-77842537D01*
X97684849Y-77799777D01*
X97679867Y-77797454D01*
X97679862Y-77797451D01*
X97482325Y-77705339D01*
X97482324Y-77705339D01*
X97477343Y-77703016D01*
X97472035Y-77701594D01*
X97472033Y-77701593D01*
X97261502Y-77645181D01*
X97261500Y-77645181D01*
X97256187Y-77643757D01*
X97028100Y-77623802D01*
X96800013Y-77643757D01*
X96794700Y-77645181D01*
X96794698Y-77645181D01*
X96584167Y-77701593D01*
X96584165Y-77701594D01*
X96578857Y-77703016D01*
X96573876Y-77705339D01*
X96573875Y-77705339D01*
X96376338Y-77797451D01*
X96376333Y-77797454D01*
X96371351Y-77799777D01*
X96310284Y-77842537D01*
X96188311Y-77927943D01*
X96188308Y-77927945D01*
X96183800Y-77931102D01*
X96021902Y-78093000D01*
X96018745Y-78097508D01*
X96018743Y-78097511D01*
X95975083Y-78159864D01*
X95890577Y-78280551D01*
X95888254Y-78285533D01*
X95888251Y-78285538D01*
X95796139Y-78483075D01*
X95793816Y-78488057D01*
X95792394Y-78493365D01*
X95792393Y-78493367D01*
X95764633Y-78596969D01*
X95734557Y-78709213D01*
X95714602Y-78937300D01*
X90814067Y-78937300D01*
X90820996Y-75003600D01*
X114497502Y-75003600D01*
X114517457Y-75231687D01*
X114576716Y-75452843D01*
X114579039Y-75457824D01*
X114579039Y-75457825D01*
X114671151Y-75655362D01*
X114671154Y-75655367D01*
X114673477Y-75660349D01*
X114719323Y-75725823D01*
X114765284Y-75791462D01*
X114804802Y-75847900D01*
X114966700Y-76009798D01*
X114971208Y-76012955D01*
X114971211Y-76012957D01*
X115028263Y-76052905D01*
X115154251Y-76141123D01*
X115159233Y-76143446D01*
X115159238Y-76143449D01*
X115346359Y-76230704D01*
X115361757Y-76237884D01*
X115367065Y-76239306D01*
X115367067Y-76239307D01*
X115577598Y-76295719D01*
X115577600Y-76295719D01*
X115582913Y-76297143D01*
X115811000Y-76317098D01*
X116039087Y-76297143D01*
X116044400Y-76295719D01*
X116044402Y-76295719D01*
X116254933Y-76239307D01*
X116254935Y-76239306D01*
X116260243Y-76237884D01*
X116275641Y-76230704D01*
X116462762Y-76143449D01*
X116462767Y-76143446D01*
X116467749Y-76141123D01*
X116593737Y-76052905D01*
X116650789Y-76012957D01*
X116650792Y-76012955D01*
X116655300Y-76009798D01*
X116817198Y-75847900D01*
X116856717Y-75791462D01*
X116870381Y-75771947D01*
X130850215Y-75771947D01*
X130866662Y-76057192D01*
X130867487Y-76061397D01*
X130867488Y-76061405D01*
X130883585Y-76143449D01*
X130921669Y-76337565D01*
X130923056Y-76341616D01*
X130923057Y-76341620D01*
X131012829Y-76603824D01*
X131012833Y-76603833D01*
X131014218Y-76607879D01*
X131042584Y-76664279D01*
X131081989Y-76742625D01*
X131142597Y-76863131D01*
X131145023Y-76866660D01*
X131145026Y-76866666D01*
X131183638Y-76922846D01*
X131304430Y-77098599D01*
X131496722Y-77309925D01*
X131500011Y-77312675D01*
X131712623Y-77490447D01*
X131712628Y-77490451D01*
X131715915Y-77493199D01*
X131772190Y-77528500D01*
X131954313Y-77642746D01*
X131954317Y-77642748D01*
X131957953Y-77645029D01*
X131961863Y-77646794D01*
X131961864Y-77646795D01*
X132214445Y-77760840D01*
X132214449Y-77760842D01*
X132218357Y-77762606D01*
X132222476Y-77763826D01*
X132488197Y-77842537D01*
X132488202Y-77842538D01*
X132492310Y-77843755D01*
X132496544Y-77844403D01*
X132496549Y-77844404D01*
X132745747Y-77882536D01*
X132774740Y-77886973D01*
X132920280Y-77889259D01*
X133056132Y-77891393D01*
X133056138Y-77891393D01*
X133060423Y-77891460D01*
X133344072Y-77857135D01*
X133620438Y-77784632D01*
X133884407Y-77675292D01*
X133936197Y-77645029D01*
X134127397Y-77533301D01*
X134127398Y-77533300D01*
X134131095Y-77531140D01*
X134355937Y-77354841D01*
X134402539Y-77306752D01*
X134551789Y-77152737D01*
X134554772Y-77149659D01*
X134557305Y-77146211D01*
X134557309Y-77146206D01*
X134721383Y-76922846D01*
X134723921Y-76919391D01*
X134749672Y-76871963D01*
X134858204Y-76672073D01*
X134858205Y-76672071D01*
X134860254Y-76668297D01*
X134961248Y-76401024D01*
X135017439Y-76155683D01*
X135024078Y-76126695D01*
X135024078Y-76126693D01*
X135025035Y-76122516D01*
X135039617Y-75959120D01*
X135050213Y-75840397D01*
X135050213Y-75840390D01*
X135050433Y-75837929D01*
X135050894Y-75793942D01*
X135037483Y-75597219D01*
X135031753Y-75513162D01*
X135031752Y-75513156D01*
X135031461Y-75508885D01*
X134973521Y-75229104D01*
X134878146Y-74959774D01*
X134747102Y-74705880D01*
X134739248Y-74694704D01*
X134585279Y-74475629D01*
X134585278Y-74475628D01*
X134582812Y-74472119D01*
X134388318Y-74262818D01*
X134373821Y-74250952D01*
X134170535Y-74084566D01*
X134167217Y-74081850D01*
X133923603Y-73932563D01*
X133779336Y-73869234D01*
X133665913Y-73819445D01*
X133661981Y-73817719D01*
X133642119Y-73812061D01*
X133569029Y-73791241D01*
X133387194Y-73739444D01*
X133382952Y-73738840D01*
X133382946Y-73738839D01*
X133108577Y-73699791D01*
X133104326Y-73699186D01*
X132953708Y-73698397D01*
X132822898Y-73697712D01*
X132822892Y-73697712D01*
X132818612Y-73697690D01*
X132814368Y-73698249D01*
X132814364Y-73698249D01*
X132724673Y-73710057D01*
X132535338Y-73734983D01*
X132259746Y-73810377D01*
X132255798Y-73812061D01*
X132000889Y-73920789D01*
X132000885Y-73920791D01*
X131996937Y-73922475D01*
X131976337Y-73934804D01*
X131755454Y-74066999D01*
X131755450Y-74067002D01*
X131751772Y-74069203D01*
X131528789Y-74247846D01*
X131525845Y-74250948D01*
X131525841Y-74250952D01*
X131335063Y-74451990D01*
X131332113Y-74455099D01*
X131165385Y-74687126D01*
X131031689Y-74939634D01*
X130933499Y-75207950D01*
X130872632Y-75487110D01*
X130872296Y-75491380D01*
X130850708Y-75765684D01*
X130850707Y-75765684D01*
X130850708Y-75765688D01*
X130850215Y-75771947D01*
X116870381Y-75771947D01*
X116902677Y-75725823D01*
X116948523Y-75660349D01*
X116950846Y-75655367D01*
X116950849Y-75655362D01*
X117042961Y-75457825D01*
X117042961Y-75457824D01*
X117045284Y-75452843D01*
X117104543Y-75231687D01*
X117124498Y-75003600D01*
X117104543Y-74775513D01*
X117103119Y-74770198D01*
X117046707Y-74559667D01*
X117046706Y-74559665D01*
X117045284Y-74554357D01*
X117006936Y-74472119D01*
X116950849Y-74351838D01*
X116950846Y-74351833D01*
X116948523Y-74346851D01*
X116817198Y-74159300D01*
X116655300Y-73997402D01*
X116650792Y-73994245D01*
X116650789Y-73994243D01*
X116548293Y-73922475D01*
X116467749Y-73866077D01*
X116462767Y-73863754D01*
X116462762Y-73863751D01*
X116265225Y-73771639D01*
X116265224Y-73771639D01*
X116260243Y-73769316D01*
X116254935Y-73767894D01*
X116254933Y-73767893D01*
X116044402Y-73711481D01*
X116044400Y-73711481D01*
X116039087Y-73710057D01*
X115811000Y-73690102D01*
X115582913Y-73710057D01*
X115577600Y-73711481D01*
X115577598Y-73711481D01*
X115367067Y-73767893D01*
X115367065Y-73767894D01*
X115361757Y-73769316D01*
X115356776Y-73771639D01*
X115356775Y-73771639D01*
X115159238Y-73863751D01*
X115159233Y-73863754D01*
X115154251Y-73866077D01*
X115073707Y-73922475D01*
X114971211Y-73994243D01*
X114971208Y-73994245D01*
X114966700Y-73997402D01*
X114804802Y-74159300D01*
X114673477Y-74346851D01*
X114671154Y-74351833D01*
X114671151Y-74351838D01*
X114615064Y-74472119D01*
X114576716Y-74554357D01*
X114575294Y-74559665D01*
X114575293Y-74559667D01*
X114518881Y-74770198D01*
X114517457Y-74775513D01*
X114497502Y-75003600D01*
X90820996Y-75003600D01*
X90822255Y-74289034D01*
X99730700Y-74289034D01*
X99737455Y-74351216D01*
X99788585Y-74487605D01*
X99875939Y-74604161D01*
X99992495Y-74691515D01*
X100128884Y-74742645D01*
X100191066Y-74749400D01*
X101887334Y-74749400D01*
X101949516Y-74742645D01*
X102085905Y-74691515D01*
X102202461Y-74604161D01*
X102289815Y-74487605D01*
X102340945Y-74351216D01*
X102347700Y-74289034D01*
X102347700Y-72592766D01*
X102340945Y-72530584D01*
X102289815Y-72394195D01*
X102202461Y-72277639D01*
X102085905Y-72190285D01*
X101949516Y-72139155D01*
X101887334Y-72132400D01*
X100191066Y-72132400D01*
X100128884Y-72139155D01*
X99992495Y-72190285D01*
X99875939Y-72277639D01*
X99788585Y-72394195D01*
X99737455Y-72530584D01*
X99730700Y-72592766D01*
X99730700Y-74289034D01*
X90822255Y-74289034D01*
X90822912Y-73916075D01*
X90843034Y-73847990D01*
X90854177Y-73834334D01*
X90853749Y-73833975D01*
X90886264Y-73795225D01*
X90889447Y-73791576D01*
X90891150Y-73789698D01*
X90893341Y-73787507D01*
X90920841Y-73754028D01*
X90921677Y-73753021D01*
X90977926Y-73685987D01*
X90977928Y-73685983D01*
X90981886Y-73681267D01*
X90984475Y-73676558D01*
X90987882Y-73672410D01*
X90990790Y-73666986D01*
X90990793Y-73666982D01*
X91032150Y-73589851D01*
X91032779Y-73588692D01*
X91074954Y-73511976D01*
X91077921Y-73506579D01*
X91079544Y-73501463D01*
X91082084Y-73496726D01*
X91109484Y-73407104D01*
X91109867Y-73405874D01*
X91136336Y-73322434D01*
X91138198Y-73316565D01*
X91138797Y-73311227D01*
X91140367Y-73306091D01*
X91149846Y-73212769D01*
X91149966Y-73211649D01*
X91155600Y-73161416D01*
X91155600Y-73157911D01*
X91155662Y-73156803D01*
X91156110Y-73151108D01*
X91159890Y-73113895D01*
X91159890Y-73113888D01*
X91160512Y-73107765D01*
X91156159Y-73061714D01*
X91155600Y-73049857D01*
X91155600Y-72516150D01*
X91175602Y-72448029D01*
X91192506Y-72427053D01*
X91232552Y-72387009D01*
X92365365Y-71254234D01*
X109200200Y-71254234D01*
X109206955Y-71316416D01*
X109258085Y-71452805D01*
X109345439Y-71569361D01*
X109461995Y-71656715D01*
X109598384Y-71707845D01*
X109660566Y-71714600D01*
X111356834Y-71714600D01*
X111419016Y-71707845D01*
X111555405Y-71656715D01*
X111671961Y-71569361D01*
X111759315Y-71452805D01*
X111810445Y-71316416D01*
X111817200Y-71254234D01*
X111817200Y-69557966D01*
X111810445Y-69495784D01*
X111759315Y-69359395D01*
X111671961Y-69242839D01*
X111555405Y-69155485D01*
X111419016Y-69104355D01*
X111356834Y-69097600D01*
X109660566Y-69097600D01*
X109598384Y-69104355D01*
X109461995Y-69155485D01*
X109345439Y-69242839D01*
X109258085Y-69359395D01*
X109206955Y-69495784D01*
X109200200Y-69557966D01*
X109200200Y-71254234D01*
X92365365Y-71254234D01*
X93253244Y-70366384D01*
X93519334Y-70100303D01*
X93581647Y-70066279D01*
X93608428Y-70063400D01*
X96846145Y-70063400D01*
X96859747Y-70064136D01*
X96897753Y-70068263D01*
X96903888Y-70067726D01*
X96903889Y-70067726D01*
X96948143Y-70063852D01*
X96952979Y-70063522D01*
X96955473Y-70063400D01*
X96958557Y-70063400D01*
X96966359Y-70062635D01*
X97001663Y-70059174D01*
X97002969Y-70059053D01*
X97090197Y-70051417D01*
X97090199Y-70051417D01*
X97096340Y-70050879D01*
X97101477Y-70049386D01*
X97106794Y-70048865D01*
X97112700Y-70047082D01*
X97196478Y-70021788D01*
X97197737Y-70021415D01*
X97281844Y-69996975D01*
X97281843Y-69996975D01*
X97287767Y-69995254D01*
X97292514Y-69992793D01*
X97297632Y-69991248D01*
X97380464Y-69947205D01*
X97381465Y-69946680D01*
X97464745Y-69903507D01*
X97468924Y-69900171D01*
X97473644Y-69897661D01*
X97546398Y-69838323D01*
X97547167Y-69837703D01*
X97586752Y-69806100D01*
X97589239Y-69803613D01*
X97590023Y-69802912D01*
X97594369Y-69799200D01*
X97623355Y-69775559D01*
X97628126Y-69771668D01*
X97657623Y-69736012D01*
X97665608Y-69727236D01*
X101196200Y-66196309D01*
X101258511Y-66162281D01*
X101285300Y-66159400D01*
X101952434Y-66159400D01*
X102014616Y-66152645D01*
X102151005Y-66101515D01*
X102267561Y-66014161D01*
X102354915Y-65897605D01*
X102406045Y-65761216D01*
X102412800Y-65699034D01*
X102412800Y-64002766D01*
X102406045Y-63940584D01*
X102354915Y-63804195D01*
X102267561Y-63687639D01*
X102151005Y-63600285D01*
X102014616Y-63549155D01*
X101952434Y-63542400D01*
X100256166Y-63542400D01*
X100193984Y-63549155D01*
X100057595Y-63600285D01*
X99941039Y-63687639D01*
X99853685Y-63804195D01*
X99802555Y-63940584D01*
X99795800Y-64002766D01*
X99795800Y-64669421D01*
X99775798Y-64737542D01*
X99758902Y-64758509D01*
X98628322Y-65889197D01*
X97156300Y-67361359D01*
X97093989Y-67395387D01*
X97023173Y-67390326D01*
X96966335Y-67347782D01*
X96941521Y-67281263D01*
X96941200Y-67272268D01*
X96941200Y-65666366D01*
X96934445Y-65604184D01*
X96883315Y-65467795D01*
X96795961Y-65351239D01*
X96679405Y-65263885D01*
X96543016Y-65212755D01*
X96480834Y-65206000D01*
X94784566Y-65206000D01*
X94722384Y-65212755D01*
X94585995Y-65263885D01*
X94469439Y-65351239D01*
X94382085Y-65467795D01*
X94330955Y-65604184D01*
X94324200Y-65666366D01*
X94324200Y-67362634D01*
X94330955Y-67424816D01*
X94382085Y-67561205D01*
X94469439Y-67677761D01*
X94585995Y-67765115D01*
X94594404Y-67768267D01*
X94594405Y-67768268D01*
X94642820Y-67786418D01*
X94699585Y-67829059D01*
X94724285Y-67895621D01*
X94709078Y-67964970D01*
X94658792Y-68015088D01*
X94598591Y-68030400D01*
X93197490Y-68030400D01*
X93183881Y-68029663D01*
X93152038Y-68026203D01*
X93152033Y-68026203D01*
X93145913Y-68025538D01*
X93102978Y-68029294D01*
X93095531Y-68029945D01*
X93090703Y-68030274D01*
X93088128Y-68030400D01*
X93085043Y-68030400D01*
X93058713Y-68032982D01*
X93041982Y-68034622D01*
X93040667Y-68034744D01*
X93013799Y-68037094D01*
X92947325Y-68042909D01*
X92942157Y-68044410D01*
X92936806Y-68044935D01*
X92930903Y-68046717D01*
X92930904Y-68046717D01*
X92847189Y-68071992D01*
X92845922Y-68072368D01*
X92818546Y-68080321D01*
X92755894Y-68098522D01*
X92751120Y-68100997D01*
X92745968Y-68102552D01*
X92740518Y-68105450D01*
X92663232Y-68146543D01*
X92662109Y-68147133D01*
X92578910Y-68190257D01*
X92574704Y-68193614D01*
X92569956Y-68196139D01*
X92565186Y-68200029D01*
X92565185Y-68200030D01*
X92497361Y-68255347D01*
X92496414Y-68256111D01*
X92456897Y-68287656D01*
X92454397Y-68290156D01*
X92453585Y-68290882D01*
X92449236Y-68294595D01*
X92420255Y-68318231D01*
X92420245Y-68318241D01*
X92415474Y-68322132D01*
X92411547Y-68326879D01*
X92411545Y-68326881D01*
X92386002Y-68357758D01*
X92378011Y-68366540D01*
X91045591Y-69698915D01*
X90983278Y-69732939D01*
X90912463Y-69727873D01*
X90855628Y-69685325D01*
X90830818Y-69618805D01*
X90830497Y-69609596D01*
X90830951Y-69352209D01*
X90844807Y-61485554D01*
X84027657Y-61560557D01*
X83959321Y-61541306D01*
X83912240Y-61488165D01*
X83900272Y-61435053D01*
X83892277Y-59372534D01*
X96743100Y-59372534D01*
X96749855Y-59434716D01*
X96800985Y-59571105D01*
X96888339Y-59687661D01*
X97004895Y-59775015D01*
X97141284Y-59826145D01*
X97203466Y-59832900D01*
X98899734Y-59832900D01*
X98961916Y-59826145D01*
X99098305Y-59775015D01*
X99214861Y-59687661D01*
X99302215Y-59571105D01*
X99353345Y-59434716D01*
X99360100Y-59372534D01*
X99360100Y-58598240D01*
X101872863Y-58598240D01*
X101890563Y-58778760D01*
X101947818Y-58950873D01*
X101951465Y-58956895D01*
X101951466Y-58956897D01*
X101962378Y-58974914D01*
X102041780Y-59106024D01*
X102167782Y-59236502D01*
X102319559Y-59335822D01*
X102326163Y-59338278D01*
X102326165Y-59338279D01*
X102482958Y-59396590D01*
X102482960Y-59396590D01*
X102489568Y-59399048D01*
X102573395Y-59410233D01*
X102662380Y-59422107D01*
X102662384Y-59422107D01*
X102669361Y-59423038D01*
X102676372Y-59422400D01*
X102676376Y-59422400D01*
X102818859Y-59409432D01*
X102850000Y-59406598D01*
X102856702Y-59404420D01*
X102856704Y-59404420D01*
X103015809Y-59352724D01*
X103015812Y-59352723D01*
X103022508Y-59350547D01*
X103178312Y-59257669D01*
X103309666Y-59132582D01*
X103410043Y-58981502D01*
X103474455Y-58811938D01*
X103475435Y-58804966D01*
X103499148Y-58636239D01*
X103499148Y-58636236D01*
X103499699Y-58632317D01*
X103500016Y-58609600D01*
X103479797Y-58429345D01*
X103477480Y-58422691D01*
X103422464Y-58264706D01*
X103422462Y-58264703D01*
X103420145Y-58258048D01*
X103324026Y-58104224D01*
X103286527Y-58066462D01*
X103201178Y-57980515D01*
X103201174Y-57980512D01*
X103196215Y-57975518D01*
X103185097Y-57968462D01*
X103136938Y-57937900D01*
X103043066Y-57878327D01*
X102987759Y-57858633D01*
X102878825Y-57819843D01*
X102878820Y-57819842D01*
X102872190Y-57817481D01*
X102865202Y-57816648D01*
X102865199Y-57816647D01*
X102742098Y-57801968D01*
X102692080Y-57796004D01*
X102685077Y-57796740D01*
X102685076Y-57796740D01*
X102518688Y-57814228D01*
X102518686Y-57814229D01*
X102511688Y-57814964D01*
X102339979Y-57873418D01*
X102333975Y-57877112D01*
X102191495Y-57964766D01*
X102191492Y-57964768D01*
X102185488Y-57968462D01*
X102180453Y-57973393D01*
X102180450Y-57973395D01*
X102080321Y-58071449D01*
X102055893Y-58095371D01*
X101957635Y-58247838D01*
X101955226Y-58254458D01*
X101955224Y-58254461D01*
X101898006Y-58411666D01*
X101895597Y-58418285D01*
X101872863Y-58598240D01*
X99360100Y-58598240D01*
X99360100Y-57676266D01*
X99353345Y-57614084D01*
X99302215Y-57477695D01*
X99255003Y-57414700D01*
X109070102Y-57414700D01*
X109090057Y-57642787D01*
X109091481Y-57648100D01*
X109091481Y-57648102D01*
X109131112Y-57796004D01*
X109149316Y-57863943D01*
X109151639Y-57868924D01*
X109151639Y-57868925D01*
X109243751Y-58066462D01*
X109243754Y-58066467D01*
X109246077Y-58071449D01*
X109319502Y-58176311D01*
X109374224Y-58254461D01*
X109377402Y-58259000D01*
X109539300Y-58420898D01*
X109543808Y-58424055D01*
X109543811Y-58424057D01*
X109561359Y-58436344D01*
X109726851Y-58552223D01*
X109731833Y-58554546D01*
X109731838Y-58554549D01*
X109890122Y-58628357D01*
X109934357Y-58648984D01*
X109939665Y-58650406D01*
X109939667Y-58650407D01*
X110150198Y-58706819D01*
X110150200Y-58706819D01*
X110155513Y-58708243D01*
X110383600Y-58728198D01*
X110611687Y-58708243D01*
X110617000Y-58706819D01*
X110617002Y-58706819D01*
X110827533Y-58650407D01*
X110827535Y-58650406D01*
X110832843Y-58648984D01*
X110877078Y-58628357D01*
X111035362Y-58554549D01*
X111035367Y-58554546D01*
X111040349Y-58552223D01*
X111205841Y-58436344D01*
X111223389Y-58424057D01*
X111223392Y-58424055D01*
X111227900Y-58420898D01*
X111389798Y-58259000D01*
X111392977Y-58254461D01*
X111447698Y-58176311D01*
X111521123Y-58071449D01*
X111523446Y-58066467D01*
X111523449Y-58066462D01*
X111615561Y-57868925D01*
X111615561Y-57868924D01*
X111617884Y-57863943D01*
X111636089Y-57796004D01*
X111675719Y-57648102D01*
X111675719Y-57648100D01*
X111677143Y-57642787D01*
X111697098Y-57414700D01*
X111677143Y-57186613D01*
X111617884Y-56965457D01*
X111615561Y-56960475D01*
X111523449Y-56762938D01*
X111523446Y-56762933D01*
X111521123Y-56757951D01*
X111389798Y-56570400D01*
X111227900Y-56408502D01*
X111223392Y-56405345D01*
X111223389Y-56405343D01*
X111145211Y-56350602D01*
X111040349Y-56277177D01*
X111035367Y-56274854D01*
X111035362Y-56274851D01*
X110837825Y-56182739D01*
X110837824Y-56182739D01*
X110832843Y-56180416D01*
X110827535Y-56178994D01*
X110827533Y-56178993D01*
X110617002Y-56122581D01*
X110617000Y-56122581D01*
X110611687Y-56121157D01*
X110383600Y-56101202D01*
X110155513Y-56121157D01*
X110150200Y-56122581D01*
X110150198Y-56122581D01*
X109939667Y-56178993D01*
X109939665Y-56178994D01*
X109934357Y-56180416D01*
X109929376Y-56182739D01*
X109929375Y-56182739D01*
X109731838Y-56274851D01*
X109731833Y-56274854D01*
X109726851Y-56277177D01*
X109621989Y-56350602D01*
X109543811Y-56405343D01*
X109543808Y-56405345D01*
X109539300Y-56408502D01*
X109377402Y-56570400D01*
X109246077Y-56757951D01*
X109243754Y-56762933D01*
X109243751Y-56762938D01*
X109151639Y-56960475D01*
X109149316Y-56965457D01*
X109090057Y-57186613D01*
X109070102Y-57414700D01*
X99255003Y-57414700D01*
X99214861Y-57361139D01*
X99098305Y-57273785D01*
X98961916Y-57222655D01*
X98899734Y-57215900D01*
X97203466Y-57215900D01*
X97141284Y-57222655D01*
X97004895Y-57273785D01*
X96888339Y-57361139D01*
X96800985Y-57477695D01*
X96749855Y-57614084D01*
X96743100Y-57676266D01*
X96743100Y-59372534D01*
X83892277Y-59372534D01*
X83869612Y-53525750D01*
X83889350Y-53457553D01*
X83942825Y-53410852D01*
X83996470Y-53399265D01*
X88360748Y-53429004D01*
X88428730Y-53449470D01*
X88474857Y-53503441D01*
X88485887Y-53554358D01*
X88511193Y-58527118D01*
X91133088Y-58520934D01*
X93822525Y-58514590D01*
X93822526Y-58514590D01*
X93840641Y-58514547D01*
X93840026Y-58254461D01*
X93830209Y-54101900D01*
X95184502Y-54101900D01*
X95204457Y-54329987D01*
X95263716Y-54551143D01*
X95266039Y-54556124D01*
X95266039Y-54556125D01*
X95358151Y-54753662D01*
X95358154Y-54753667D01*
X95360477Y-54758649D01*
X95363634Y-54763157D01*
X95463785Y-54906187D01*
X95491802Y-54946200D01*
X95653700Y-55108098D01*
X95658208Y-55111255D01*
X95658211Y-55111257D01*
X95736389Y-55165998D01*
X95841251Y-55239423D01*
X95846233Y-55241746D01*
X95846238Y-55241749D01*
X96035199Y-55329862D01*
X96048757Y-55336184D01*
X96054065Y-55337606D01*
X96054067Y-55337607D01*
X96264598Y-55394019D01*
X96264600Y-55394019D01*
X96269913Y-55395443D01*
X96498000Y-55415398D01*
X96726087Y-55395443D01*
X96731400Y-55394019D01*
X96731402Y-55394019D01*
X96941933Y-55337607D01*
X96941935Y-55337606D01*
X96947243Y-55336184D01*
X96960801Y-55329862D01*
X97149762Y-55241749D01*
X97149767Y-55241746D01*
X97154749Y-55239423D01*
X97259611Y-55165998D01*
X97337789Y-55111257D01*
X97337792Y-55111255D01*
X97342300Y-55108098D01*
X97504198Y-54946200D01*
X97532216Y-54906187D01*
X97632366Y-54763157D01*
X97635523Y-54758649D01*
X97637846Y-54753667D01*
X97637849Y-54753662D01*
X97653805Y-54719443D01*
X97700722Y-54666158D01*
X97768999Y-54646697D01*
X97836959Y-54667239D01*
X97882195Y-54719443D01*
X97898151Y-54753662D01*
X97898154Y-54753667D01*
X97900477Y-54758649D01*
X97903634Y-54763157D01*
X98003785Y-54906187D01*
X98031802Y-54946200D01*
X98193700Y-55108098D01*
X98198208Y-55111255D01*
X98198211Y-55111257D01*
X98276389Y-55165998D01*
X98381251Y-55239423D01*
X98386233Y-55241746D01*
X98386238Y-55241749D01*
X98575199Y-55329862D01*
X98588757Y-55336184D01*
X98594065Y-55337606D01*
X98594067Y-55337607D01*
X98804598Y-55394019D01*
X98804600Y-55394019D01*
X98809913Y-55395443D01*
X99038000Y-55415398D01*
X99266087Y-55395443D01*
X99271400Y-55394019D01*
X99271402Y-55394019D01*
X99481933Y-55337607D01*
X99481935Y-55337606D01*
X99487243Y-55336184D01*
X99500801Y-55329862D01*
X99689762Y-55241749D01*
X99689767Y-55241746D01*
X99694749Y-55239423D01*
X99799611Y-55165998D01*
X99877789Y-55111257D01*
X99877792Y-55111255D01*
X99882300Y-55108098D01*
X100044198Y-54946200D01*
X100072216Y-54906187D01*
X100172366Y-54763157D01*
X100175523Y-54758649D01*
X100177846Y-54753667D01*
X100177849Y-54753662D01*
X100213084Y-54678100D01*
X130290302Y-54678100D01*
X130310257Y-54906187D01*
X130311681Y-54911500D01*
X130311681Y-54911502D01*
X130320979Y-54946200D01*
X130369516Y-55127343D01*
X130371839Y-55132324D01*
X130371839Y-55132325D01*
X130463951Y-55329862D01*
X130463954Y-55329867D01*
X130466277Y-55334849D01*
X130597602Y-55522400D01*
X130759500Y-55684298D01*
X130764008Y-55687455D01*
X130764011Y-55687457D01*
X130842189Y-55742198D01*
X130947051Y-55815623D01*
X130952033Y-55817946D01*
X130952038Y-55817949D01*
X131149575Y-55910061D01*
X131154557Y-55912384D01*
X131159865Y-55913806D01*
X131159867Y-55913807D01*
X131370398Y-55970219D01*
X131370400Y-55970219D01*
X131375713Y-55971643D01*
X131603800Y-55991598D01*
X131831887Y-55971643D01*
X131837200Y-55970219D01*
X131837202Y-55970219D01*
X132047733Y-55913807D01*
X132047735Y-55913806D01*
X132053043Y-55912384D01*
X132058025Y-55910061D01*
X132255562Y-55817949D01*
X132255567Y-55817946D01*
X132260549Y-55815623D01*
X132365411Y-55742198D01*
X132443589Y-55687457D01*
X132443592Y-55687455D01*
X132448100Y-55684298D01*
X132609998Y-55522400D01*
X132741323Y-55334849D01*
X132743646Y-55329867D01*
X132743649Y-55329862D01*
X132835761Y-55132325D01*
X132835761Y-55132324D01*
X132838084Y-55127343D01*
X132886622Y-54946200D01*
X132895919Y-54911502D01*
X132895919Y-54911500D01*
X132897343Y-54906187D01*
X132917298Y-54678100D01*
X132897343Y-54450013D01*
X132866606Y-54335302D01*
X132839507Y-54234167D01*
X132839506Y-54234165D01*
X132838084Y-54228857D01*
X132822947Y-54196395D01*
X132743649Y-54026338D01*
X132743646Y-54026333D01*
X132741323Y-54021351D01*
X132641853Y-53879293D01*
X132613157Y-53838311D01*
X132613155Y-53838308D01*
X132609998Y-53833800D01*
X132448100Y-53671902D01*
X132443592Y-53668745D01*
X132443589Y-53668743D01*
X132365411Y-53614002D01*
X132260549Y-53540577D01*
X132255567Y-53538254D01*
X132255562Y-53538251D01*
X132058025Y-53446139D01*
X132058024Y-53446139D01*
X132053043Y-53443816D01*
X132047735Y-53442394D01*
X132047733Y-53442393D01*
X131837202Y-53385981D01*
X131837200Y-53385981D01*
X131831887Y-53384557D01*
X131603800Y-53364602D01*
X131375713Y-53384557D01*
X131370400Y-53385981D01*
X131370398Y-53385981D01*
X131159867Y-53442393D01*
X131159865Y-53442394D01*
X131154557Y-53443816D01*
X131149576Y-53446139D01*
X131149575Y-53446139D01*
X130952038Y-53538251D01*
X130952033Y-53538254D01*
X130947051Y-53540577D01*
X130842189Y-53614002D01*
X130764011Y-53668743D01*
X130764008Y-53668745D01*
X130759500Y-53671902D01*
X130597602Y-53833800D01*
X130594445Y-53838308D01*
X130594443Y-53838311D01*
X130565747Y-53879293D01*
X130466277Y-54021351D01*
X130463954Y-54026333D01*
X130463951Y-54026338D01*
X130384653Y-54196395D01*
X130369516Y-54228857D01*
X130368094Y-54234165D01*
X130368093Y-54234167D01*
X130340994Y-54335302D01*
X130310257Y-54450013D01*
X130290302Y-54678100D01*
X100213084Y-54678100D01*
X100269961Y-54556125D01*
X100269961Y-54556124D01*
X100272284Y-54551143D01*
X100331543Y-54329987D01*
X100351498Y-54101900D01*
X100331543Y-53873813D01*
X100322030Y-53838311D01*
X100273707Y-53657967D01*
X100273706Y-53657965D01*
X100272284Y-53652657D01*
X100193805Y-53484357D01*
X100177849Y-53450138D01*
X100177846Y-53450133D01*
X100175523Y-53445151D01*
X100044198Y-53257600D01*
X99882300Y-53095702D01*
X99877792Y-53092545D01*
X99877789Y-53092543D01*
X99799611Y-53037802D01*
X99694749Y-52964377D01*
X99689767Y-52962054D01*
X99689762Y-52962051D01*
X99492225Y-52869939D01*
X99492224Y-52869939D01*
X99487243Y-52867616D01*
X99481935Y-52866194D01*
X99481933Y-52866193D01*
X99271402Y-52809781D01*
X99271400Y-52809781D01*
X99266087Y-52808357D01*
X99038000Y-52788402D01*
X98809913Y-52808357D01*
X98804600Y-52809781D01*
X98804598Y-52809781D01*
X98594067Y-52866193D01*
X98594065Y-52866194D01*
X98588757Y-52867616D01*
X98583776Y-52869939D01*
X98583775Y-52869939D01*
X98386238Y-52962051D01*
X98386233Y-52962054D01*
X98381251Y-52964377D01*
X98276389Y-53037802D01*
X98198211Y-53092543D01*
X98198208Y-53092545D01*
X98193700Y-53095702D01*
X98031802Y-53257600D01*
X97900477Y-53445151D01*
X97898154Y-53450133D01*
X97898151Y-53450138D01*
X97882195Y-53484357D01*
X97835278Y-53537642D01*
X97767001Y-53557103D01*
X97699041Y-53536561D01*
X97653805Y-53484357D01*
X97637849Y-53450138D01*
X97637846Y-53450133D01*
X97635523Y-53445151D01*
X97504198Y-53257600D01*
X97342300Y-53095702D01*
X97337792Y-53092545D01*
X97337789Y-53092543D01*
X97259611Y-53037802D01*
X97154749Y-52964377D01*
X97149767Y-52962054D01*
X97149762Y-52962051D01*
X96952225Y-52869939D01*
X96952224Y-52869939D01*
X96947243Y-52867616D01*
X96941935Y-52866194D01*
X96941933Y-52866193D01*
X96731402Y-52809781D01*
X96731400Y-52809781D01*
X96726087Y-52808357D01*
X96498000Y-52788402D01*
X96269913Y-52808357D01*
X96264600Y-52809781D01*
X96264598Y-52809781D01*
X96054067Y-52866193D01*
X96054065Y-52866194D01*
X96048757Y-52867616D01*
X96043776Y-52869939D01*
X96043775Y-52869939D01*
X95846238Y-52962051D01*
X95846233Y-52962054D01*
X95841251Y-52964377D01*
X95736389Y-53037802D01*
X95658211Y-53092543D01*
X95658208Y-53092545D01*
X95653700Y-53095702D01*
X95491802Y-53257600D01*
X95360477Y-53445151D01*
X95358154Y-53450133D01*
X95358151Y-53450138D01*
X95342195Y-53484357D01*
X95263716Y-53652657D01*
X95262294Y-53657965D01*
X95262293Y-53657967D01*
X95213970Y-53838311D01*
X95204457Y-53873813D01*
X95184502Y-54101900D01*
X93830209Y-54101900D01*
X93821159Y-50273700D01*
X94786635Y-50273700D01*
X94805265Y-50510411D01*
X94806419Y-50515218D01*
X94806420Y-50515224D01*
X94824945Y-50592384D01*
X94860695Y-50741294D01*
X94862588Y-50745865D01*
X94862589Y-50745867D01*
X94876797Y-50780167D01*
X94951560Y-50960663D01*
X94954146Y-50964883D01*
X95073041Y-51158902D01*
X95073045Y-51158908D01*
X95075624Y-51163116D01*
X95229831Y-51343669D01*
X95410384Y-51497876D01*
X95414592Y-51500455D01*
X95414598Y-51500459D01*
X95587250Y-51606260D01*
X95612837Y-51621940D01*
X95617407Y-51623833D01*
X95617411Y-51623835D01*
X95827633Y-51710911D01*
X95832206Y-51712805D01*
X95912409Y-51732060D01*
X96058276Y-51767080D01*
X96058282Y-51767081D01*
X96063089Y-51768235D01*
X96299800Y-51786865D01*
X96536511Y-51768235D01*
X96541318Y-51767081D01*
X96541324Y-51767080D01*
X96687191Y-51732060D01*
X96767394Y-51712805D01*
X96771967Y-51710911D01*
X96982189Y-51623835D01*
X96982193Y-51623833D01*
X96986763Y-51621940D01*
X97012350Y-51606260D01*
X97185002Y-51500459D01*
X97185008Y-51500455D01*
X97189216Y-51497876D01*
X97369769Y-51343669D01*
X97523976Y-51163116D01*
X97526555Y-51158908D01*
X97526559Y-51158902D01*
X97645454Y-50964883D01*
X97648040Y-50960663D01*
X97722804Y-50780167D01*
X97737011Y-50745867D01*
X97737012Y-50745865D01*
X97738905Y-50741294D01*
X97774655Y-50592384D01*
X97793180Y-50515224D01*
X97793181Y-50515218D01*
X97794335Y-50510411D01*
X97812965Y-50273700D01*
X110026635Y-50273700D01*
X110045265Y-50510411D01*
X110046419Y-50515218D01*
X110046420Y-50515224D01*
X110064945Y-50592384D01*
X110100695Y-50741294D01*
X110102588Y-50745865D01*
X110102589Y-50745867D01*
X110116797Y-50780167D01*
X110191560Y-50960663D01*
X110194146Y-50964883D01*
X110313041Y-51158902D01*
X110313045Y-51158908D01*
X110315624Y-51163116D01*
X110469831Y-51343669D01*
X110650384Y-51497876D01*
X110654592Y-51500455D01*
X110654598Y-51500459D01*
X110827250Y-51606260D01*
X110852837Y-51621940D01*
X110857407Y-51623833D01*
X110857411Y-51623835D01*
X111067633Y-51710911D01*
X111072206Y-51712805D01*
X111152409Y-51732060D01*
X111298276Y-51767080D01*
X111298282Y-51767081D01*
X111303089Y-51768235D01*
X111539800Y-51786865D01*
X111776511Y-51768235D01*
X111781318Y-51767081D01*
X111781324Y-51767080D01*
X111927191Y-51732060D01*
X112007394Y-51712805D01*
X112011967Y-51710911D01*
X112222189Y-51623835D01*
X112222193Y-51623833D01*
X112226763Y-51621940D01*
X112252350Y-51606260D01*
X112425002Y-51500459D01*
X112425008Y-51500455D01*
X112429216Y-51497876D01*
X112609769Y-51343669D01*
X112763976Y-51163116D01*
X112766555Y-51158908D01*
X112766559Y-51158902D01*
X112885454Y-50964883D01*
X112888040Y-50960663D01*
X112937891Y-50840311D01*
X112982439Y-50785030D01*
X113049802Y-50762609D01*
X113118594Y-50780167D01*
X113166972Y-50832129D01*
X113180300Y-50888529D01*
X113180300Y-51551934D01*
X113187055Y-51614116D01*
X113238185Y-51750505D01*
X113325539Y-51867061D01*
X113442095Y-51954415D01*
X113578484Y-52005545D01*
X113640666Y-52012300D01*
X115311934Y-52012300D01*
X115374116Y-52005545D01*
X115510505Y-51954415D01*
X115627061Y-51867061D01*
X115714415Y-51750505D01*
X115765545Y-51614116D01*
X115772300Y-51551934D01*
X115772300Y-49880666D01*
X115765545Y-49818484D01*
X115714415Y-49682095D01*
X115627061Y-49565539D01*
X115510505Y-49478185D01*
X115374116Y-49427055D01*
X115311934Y-49420300D01*
X113640666Y-49420300D01*
X113578484Y-49427055D01*
X113442095Y-49478185D01*
X113325539Y-49565539D01*
X113238185Y-49682095D01*
X113235033Y-49690503D01*
X113202742Y-49776639D01*
X113160100Y-49833403D01*
X113093539Y-49858103D01*
X113024190Y-49842896D01*
X112974072Y-49792610D01*
X112968351Y-49780627D01*
X112963877Y-49769824D01*
X112924562Y-49674909D01*
X112889935Y-49591311D01*
X112889933Y-49591307D01*
X112888040Y-49586737D01*
X112853360Y-49530145D01*
X112766559Y-49388498D01*
X112766555Y-49388492D01*
X112763976Y-49384284D01*
X112609769Y-49203731D01*
X112429216Y-49049524D01*
X112425008Y-49046945D01*
X112425002Y-49046941D01*
X112230983Y-48928046D01*
X112226763Y-48925460D01*
X112222193Y-48923567D01*
X112222189Y-48923565D01*
X112011967Y-48836489D01*
X112011965Y-48836488D01*
X112007394Y-48834595D01*
X111927191Y-48815340D01*
X111781324Y-48780320D01*
X111781318Y-48780319D01*
X111776511Y-48779165D01*
X111539800Y-48760535D01*
X111303089Y-48779165D01*
X111298282Y-48780319D01*
X111298276Y-48780320D01*
X111152409Y-48815340D01*
X111072206Y-48834595D01*
X111067635Y-48836488D01*
X111067633Y-48836489D01*
X110857411Y-48923565D01*
X110857407Y-48923567D01*
X110852837Y-48925460D01*
X110848617Y-48928046D01*
X110654598Y-49046941D01*
X110654592Y-49046945D01*
X110650384Y-49049524D01*
X110469831Y-49203731D01*
X110315624Y-49384284D01*
X110313045Y-49388492D01*
X110313041Y-49388498D01*
X110226240Y-49530145D01*
X110191560Y-49586737D01*
X110189667Y-49591307D01*
X110189665Y-49591311D01*
X110108114Y-49788194D01*
X110100695Y-49806106D01*
X110095837Y-49826340D01*
X110060267Y-49974502D01*
X110045265Y-50036989D01*
X110026635Y-50273700D01*
X97812965Y-50273700D01*
X97794335Y-50036989D01*
X97779334Y-49974502D01*
X97743763Y-49826340D01*
X97738905Y-49806106D01*
X97731486Y-49788194D01*
X97649935Y-49591311D01*
X97649933Y-49591307D01*
X97648040Y-49586737D01*
X97613360Y-49530145D01*
X97526559Y-49388498D01*
X97526555Y-49388492D01*
X97523976Y-49384284D01*
X97369769Y-49203731D01*
X97189216Y-49049524D01*
X97185008Y-49046945D01*
X97185002Y-49046941D01*
X96990983Y-48928046D01*
X96986763Y-48925460D01*
X96982193Y-48923567D01*
X96982189Y-48923565D01*
X96771967Y-48836489D01*
X96771965Y-48836488D01*
X96767394Y-48834595D01*
X96687191Y-48815340D01*
X96541324Y-48780320D01*
X96541318Y-48780319D01*
X96536511Y-48779165D01*
X96299800Y-48760535D01*
X96063089Y-48779165D01*
X96058282Y-48780319D01*
X96058276Y-48780320D01*
X95912409Y-48815340D01*
X95832206Y-48834595D01*
X95827635Y-48836488D01*
X95827633Y-48836489D01*
X95617411Y-48923565D01*
X95617407Y-48923567D01*
X95612837Y-48925460D01*
X95608617Y-48928046D01*
X95414598Y-49046941D01*
X95414592Y-49046945D01*
X95410384Y-49049524D01*
X95229831Y-49203731D01*
X95075624Y-49384284D01*
X95073045Y-49388492D01*
X95073041Y-49388498D01*
X94986240Y-49530145D01*
X94951560Y-49586737D01*
X94949667Y-49591307D01*
X94949665Y-49591311D01*
X94868114Y-49788194D01*
X94860695Y-49806106D01*
X94855837Y-49826340D01*
X94820267Y-49974502D01*
X94805265Y-50036989D01*
X94786635Y-50273700D01*
X93821159Y-50273700D01*
X93814896Y-47624298D01*
X93834737Y-47556130D01*
X93888283Y-47509510D01*
X93940896Y-47498000D01*
X122945865Y-47498000D01*
X123013986Y-47518002D01*
G37*
%TD.AperFunction*%
%TD*%
M02*
