%TF.GenerationSoftware,KiCad,Pcbnew,7.0.1*%
%TF.CreationDate,2023-07-31T19:52:26-07:00*%
%TF.ProjectId,AMS-Mega2560-Base,414d532d-4d65-4676-9132-3536302d4261,rev?*%
%TF.SameCoordinates,Original*%
%TF.FileFunction,Copper,L1,Top*%
%TF.FilePolarity,Positive*%
%FSLAX46Y46*%
G04 Gerber Fmt 4.6, Leading zero omitted, Abs format (unit mm)*
G04 Created by KiCad (PCBNEW 7.0.1) date 2023-07-31 19:52:26*
%MOMM*%
%LPD*%
G01*
G04 APERTURE LIST*
%TA.AperFunction,ComponentPad*%
%ADD10C,1.727200*%
%TD*%
%TA.AperFunction,ComponentPad*%
%ADD11O,1.727200X1.727200*%
%TD*%
%TA.AperFunction,ComponentPad*%
%ADD12O,1.727200X2.032000*%
%TD*%
%TA.AperFunction,ComponentPad*%
%ADD13C,4.064000*%
%TD*%
%TA.AperFunction,ComponentPad*%
%ADD14C,1.650000*%
%TD*%
%TA.AperFunction,ComponentPad*%
%ADD15C,1.600000*%
%TD*%
%TA.AperFunction,ComponentPad*%
%ADD16O,1.600000X1.600000*%
%TD*%
%TA.AperFunction,ComponentPad*%
%ADD17R,1.050000X1.500000*%
%TD*%
%TA.AperFunction,ComponentPad*%
%ADD18O,1.050000X1.500000*%
%TD*%
%TA.AperFunction,ComponentPad*%
%ADD19R,1.920000X1.920000*%
%TD*%
%TA.AperFunction,ComponentPad*%
%ADD20C,1.920000*%
%TD*%
%TA.AperFunction,ComponentPad*%
%ADD21R,1.700000X1.700000*%
%TD*%
%TA.AperFunction,ComponentPad*%
%ADD22O,1.700000X1.700000*%
%TD*%
%TA.AperFunction,SMDPad,CuDef*%
%ADD23R,0.640000X0.420000*%
%TD*%
%TA.AperFunction,ComponentPad*%
%ADD24R,1.150000X1.150000*%
%TD*%
%TA.AperFunction,ComponentPad*%
%ADD25C,1.150000*%
%TD*%
%TA.AperFunction,ComponentPad*%
%ADD26R,2.600000X2.600000*%
%TD*%
%TA.AperFunction,ComponentPad*%
%ADD27C,2.600000*%
%TD*%
%TA.AperFunction,SMDPad,CuDef*%
%ADD28R,0.800000X0.450000*%
%TD*%
%TA.AperFunction,SMDPad,CuDef*%
%ADD29R,1.500000X0.650000*%
%TD*%
%TA.AperFunction,ComponentPad*%
%ADD30R,1.600000X1.600000*%
%TD*%
%TA.AperFunction,ComponentPad*%
%ADD31R,1.160000X1.160000*%
%TD*%
%TA.AperFunction,ComponentPad*%
%ADD32C,1.160000*%
%TD*%
%TA.AperFunction,ComponentPad*%
%ADD33C,2.360000*%
%TD*%
%TA.AperFunction,ComponentPad*%
%ADD34R,1.200000X1.200000*%
%TD*%
%TA.AperFunction,ComponentPad*%
%ADD35C,1.200000*%
%TD*%
%TA.AperFunction,ComponentPad*%
%ADD36C,1.500000*%
%TD*%
%TA.AperFunction,ViaPad*%
%ADD37C,0.600000*%
%TD*%
%TA.AperFunction,ViaPad*%
%ADD38C,0.762000*%
%TD*%
%TA.AperFunction,Conductor*%
%ADD39C,0.250000*%
%TD*%
%TA.AperFunction,Conductor*%
%ADD40C,1.270000*%
%TD*%
%TA.AperFunction,Conductor*%
%ADD41C,0.635000*%
%TD*%
%TA.AperFunction,Conductor*%
%ADD42C,0.762000*%
%TD*%
G04 APERTURE END LIST*
D10*
%TO.P,P4,1,Pin_1*%
%TO.N,GND*%
X178021100Y-143971900D03*
D11*
%TO.P,P4,2,Pin_2*%
X180561100Y-143971900D03*
%TO.P,P4,3,Pin_3*%
%TO.N,SCLK*%
X178021100Y-141431900D03*
%TO.P,P4,4,Pin_4*%
%TO.N,unconnected-(P4-Pin_4-Pad4)*%
X180561100Y-141431900D03*
%TO.P,P4,5,Pin_5*%
%TO.N,MISO*%
X178021100Y-138891900D03*
%TO.P,P4,6,Pin_6*%
%TO.N,MOSI*%
X180561100Y-138891900D03*
%TO.P,P4,7,Pin_7*%
%TO.N,WaterCS*%
X178021100Y-136351900D03*
%TO.P,P4,8,Pin_8*%
%TO.N,Logging*%
X180561100Y-136351900D03*
%TO.P,P4,9,Pin_9*%
%TO.N,LsideCS*%
X178021100Y-133811900D03*
%TO.P,P4,10,Pin_10*%
%TO.N,IN3TTL*%
X180561100Y-133811900D03*
%TO.P,P4,11,Pin_11*%
%TO.N,RsideCS*%
X178021100Y-131271900D03*
%TO.P,P4,12,Pin_12*%
%TO.N,OUTPUTLED2*%
X180561100Y-131271900D03*
%TO.P,P4,13,Pin_13*%
%TO.N,FrontCS*%
X178021100Y-128731900D03*
%TO.P,P4,14,Pin_14*%
%TO.N,OUTPUTLED1*%
X180561100Y-128731900D03*
%TO.P,P4,15,Pin_15*%
%TO.N,AmbientCS*%
X178021100Y-126191900D03*
%TO.P,P4,16,Pin_16*%
%TO.N,unconnected-(P4-Pin_16-Pad16)*%
X180561100Y-126191900D03*
%TO.P,P4,17,Pin_17*%
%TO.N,CarbCS*%
X178021100Y-123651900D03*
%TO.P,P4,18,Pin_18*%
%TO.N,unconnected-(P4-Pin_18-Pad18)*%
X180561100Y-123651900D03*
%TO.P,P4,19,Pin_19*%
%TO.N,SDCS*%
X178021100Y-121111900D03*
%TO.P,P4,20,Pin_20*%
%TO.N,unconnected-(P4-Pin_20-Pad20)*%
X180561100Y-121111900D03*
%TO.P,P4,21,Pin_21*%
%TO.N,SDDetect*%
X178021100Y-118571900D03*
%TO.P,P4,22,Pin_22*%
%TO.N,unconnected-(P4-Pin_22-Pad22)*%
X180561100Y-118571900D03*
%TO.P,P4,23,Pin_23*%
%TO.N,CANCS*%
X178021100Y-116031900D03*
%TO.P,P4,24,Pin_24*%
%TO.N,unconnected-(P4-Pin_24-Pad24)*%
X180561100Y-116031900D03*
%TO.P,P4,25,Pin_25*%
%TO.N,CAN_TX_STBY*%
X178021100Y-113491900D03*
%TO.P,P4,26,Pin_26*%
%TO.N,unconnected-(P4-Pin_26-Pad26)*%
X180561100Y-113491900D03*
%TO.P,P4,27,Pin_27*%
%TO.N,CAN_INT*%
X178021100Y-110951900D03*
%TO.P,P4,28,Pin_28*%
%TO.N,unconnected-(P4-Pin_28-Pad28)*%
X180561100Y-110951900D03*
%TO.P,P4,29,Pin_29*%
%TO.N,unconnected-(P4-Pin_29-Pad29)*%
X178021100Y-108411900D03*
%TO.P,P4,30,Pin_30*%
%TO.N,SWSCLK*%
X180561100Y-108411900D03*
%TO.P,P4,31,Pin_31*%
%TO.N,unconnected-(P4-Pin_31-Pad31)*%
X178021100Y-105871900D03*
%TO.P,P4,32,Pin_32*%
%TO.N,SWMISO*%
X180561100Y-105871900D03*
%TO.P,P4,33,Pin_33*%
%TO.N,unconnected-(P4-Pin_33-Pad33)*%
X178021100Y-103331900D03*
%TO.P,P4,34,Pin_34*%
%TO.N,SWMOSI*%
X180561100Y-103331900D03*
%TO.P,P4,35,Pin_35*%
%TO.N,unconnected-(P4-Pin_35-Pad35)*%
X178021100Y-100791900D03*
%TO.P,P4,36,Pin_36*%
%TO.N,unconnected-(P4-Pin_36-Pad36)*%
X180561100Y-100791900D03*
%TD*%
D12*
%TO.P,P1,1,Pin_1*%
%TO.N,unconnected-(P1-Pin_1-Pad1)*%
X111981100Y-149051900D03*
%TO.P,P1,2,Pin_2*%
%TO.N,unconnected-(P1-Pin_2-Pad2)*%
X114521100Y-149051900D03*
%TO.P,P1,3,Pin_3*%
%TO.N,unconnected-(P1-Pin_3-Pad3)*%
X117061100Y-149051900D03*
%TO.P,P1,4,Pin_4*%
%TO.N,unconnected-(P1-Pin_4-Pad4)*%
X119601100Y-149051900D03*
%TO.P,P1,5,Pin_5*%
%TO.N,+5V*%
X122141100Y-149051900D03*
%TO.P,P1,6,Pin_6*%
%TO.N,GND*%
X124681100Y-149051900D03*
%TO.P,P1,7,Pin_7*%
X127221100Y-149051900D03*
%TO.P,P1,8,Pin_8*%
%TO.N,unconnected-(P1-Pin_8-Pad8)*%
X129761100Y-149051900D03*
%TD*%
%TO.P,P2,1,Pin_1*%
%TO.N,VoltageSensor*%
X134841100Y-149051900D03*
%TO.P,P2,2,Pin_2*%
%TO.N,GPSBat*%
X137381100Y-149051900D03*
%TO.P,P2,3,Pin_3*%
%TO.N,FuelPressure1*%
X139921100Y-149051900D03*
%TO.P,P2,4,Pin_4*%
%TO.N,FuelPressure2*%
X142461100Y-149051900D03*
%TO.P,P2,5,Pin_5*%
%TO.N,FuelPressure3*%
X145001100Y-149051900D03*
%TO.P,P2,6,Pin_6*%
%TO.N,OilPressure*%
X147541100Y-149051900D03*
%TO.P,P2,7,Pin_7*%
%TO.N,SpareADC1*%
X150081100Y-149051900D03*
%TO.P,P2,8,Pin_8*%
%TO.N,SpareADC2*%
X152621100Y-149051900D03*
%TD*%
%TO.P,P3,1,Pin_1*%
%TO.N,SpareADC3*%
X157701100Y-149051900D03*
%TO.P,P3,2,Pin_2*%
%TO.N,Sense1-1*%
X160241100Y-149051900D03*
%TO.P,P3,3,Pin_3*%
%TO.N,unconnected-(P3-Pin_3-Pad3)*%
X162781100Y-149051900D03*
%TO.P,P3,4,Pin_4*%
%TO.N,unconnected-(P3-Pin_4-Pad4)*%
X165321100Y-149051900D03*
%TO.P,P3,5,Pin_5*%
%TO.N,unconnected-(P3-Pin_5-Pad5)*%
X167861100Y-149051900D03*
%TO.P,P3,6,Pin_6*%
%TO.N,unconnected-(P3-Pin_6-Pad6)*%
X170401100Y-149051900D03*
%TO.P,P3,7,Pin_7*%
%TO.N,unconnected-(P3-Pin_7-Pad7)*%
X172941100Y-149051900D03*
%TO.P,P3,8,Pin_8*%
%TO.N,unconnected-(P3-Pin_8-Pad8)*%
X175481100Y-149051900D03*
%TD*%
%TO.P,P5,1,Pin_1*%
%TO.N,SCL*%
X102837100Y-100791900D03*
%TO.P,P5,2,Pin_2*%
%TO.N,SDA*%
X105377100Y-100791900D03*
%TO.P,P5,3,Pin_3*%
%TO.N,unconnected-(P5-Pin_3-Pad3)*%
X107917100Y-100791900D03*
%TO.P,P5,4,Pin_4*%
%TO.N,GND*%
X110457100Y-100791900D03*
%TO.P,P5,5,Pin_5*%
%TO.N,unconnected-(P5-Pin_5-Pad5)*%
X112997100Y-100791900D03*
%TO.P,P5,6,Pin_6*%
%TO.N,unconnected-(P5-Pin_6-Pad6)*%
X115537100Y-100791900D03*
%TO.P,P5,7,Pin_7*%
%TO.N,unconnected-(P5-Pin_7-Pad7)*%
X118077100Y-100791900D03*
%TO.P,P5,8,Pin_8*%
%TO.N,unconnected-(P5-Pin_8-Pad8)*%
X120617100Y-100791900D03*
%TO.P,P5,9,Pin_9*%
%TO.N,unconnected-(P5-Pin_9-Pad9)*%
X123157100Y-100791900D03*
%TO.P,P5,10,Pin_10*%
%TO.N,OUTPUTSiren*%
X125697100Y-100791900D03*
%TD*%
%TO.P,P6,1,Pin_1*%
%TO.N,OUTPUT4*%
X129761100Y-100791900D03*
%TO.P,P6,2,Pin_2*%
%TO.N,OUTPUT3*%
X132301100Y-100791900D03*
%TO.P,P6,3,Pin_3*%
%TO.N,OUTPUT2*%
X134841100Y-100791900D03*
%TO.P,P6,4,Pin_4*%
%TO.N,OUTPUT1*%
X137381100Y-100791900D03*
%TO.P,P6,5,Pin_5*%
%TO.N,IN2TTL*%
X139921100Y-100791900D03*
%TO.P,P6,6,Pin_6*%
%TO.N,IN1TTL*%
X142461100Y-100791900D03*
%TO.P,P6,7,Pin_7*%
%TO.N,unconnected-(P6-Pin_7-Pad7)*%
X145001100Y-100791900D03*
%TO.P,P6,8,Pin_8*%
%TO.N,unconnected-(P6-Pin_8-Pad8)*%
X147541100Y-100791900D03*
%TD*%
%TO.P,P7,1,Pin_1*%
%TO.N,GPSRX*%
X152621100Y-100791900D03*
%TO.P,P7,2,Pin_2*%
%TO.N,GPSTX*%
X155161100Y-100791900D03*
%TO.P,P7,3,Pin_3*%
%TO.N,Com1TX*%
X157701100Y-100791900D03*
%TO.P,P7,4,Pin_4*%
%TO.N,Com1RX*%
X160241100Y-100791900D03*
%TO.P,P7,5,Pin_5*%
%TO.N,Com2TX*%
X162781100Y-100791900D03*
%TO.P,P7,6,Pin_6*%
%TO.N,Com2RX*%
X165321100Y-100791900D03*
%TO.P,P7,7,Pin_7*%
%TO.N,SDA*%
X167861100Y-100791900D03*
%TO.P,P7,8,Pin_8*%
%TO.N,SCL*%
X170401100Y-100791900D03*
%TD*%
D13*
%TO.P,P8,1,Pin_1*%
%TO.N,unconnected-(P8-Pin_1-Pad1)*%
X98011100Y-149051900D03*
%TD*%
%TO.P,P9,1,Pin_1*%
%TO.N,unconnected-(P9-Pin_1-Pad1)*%
X150081100Y-143971900D03*
%TD*%
%TO.P,P10,1,Pin_1*%
%TO.N,unconnected-(P10-Pin_1-Pad1)*%
X180561100Y-149051900D03*
%TD*%
%TO.P,P11,1,Pin_1*%
%TO.N,unconnected-(P11-Pin_1-Pad1)*%
X99281100Y-100791900D03*
%TD*%
%TO.P,P12,1,Pin_1*%
%TO.N,unconnected-(P12-Pin_1-Pad1)*%
X150081100Y-116031900D03*
%TD*%
%TO.P,P13,1,Pin_1*%
%TO.N,unconnected-(P13-Pin_1-Pad1)*%
X174211100Y-100791900D03*
%TD*%
D14*
%TO.P,J4,1,1*%
%TO.N,Sense1-1*%
X181080800Y-79145100D03*
%TO.P,J4,2,2*%
%TO.N,Sense1-2*%
X177270800Y-79145100D03*
%TO.P,J4,3,3*%
%TO.N,Sense1-3*%
X173460800Y-79145100D03*
%TO.P,J4,4,4*%
%TO.N,Sense1-4*%
X169650800Y-79145100D03*
%TO.P,J4,5,5*%
%TO.N,Sense1-5*%
X182980800Y-71525100D03*
%TO.P,J4,6,6*%
%TO.N,Sense1-6*%
X179170800Y-71525100D03*
%TO.P,J4,7,7*%
%TO.N,Sense1-7*%
X175360800Y-71525100D03*
%TO.P,J4,8,8*%
%TO.N,Sense1-8*%
X171550800Y-71525100D03*
%TO.P,J4,9,9*%
%TO.N,Sense1-9*%
X181080800Y-60095100D03*
%TO.P,J4,10,10*%
%TO.N,Sense1-10*%
X177270800Y-60095100D03*
%TO.P,J4,11,11*%
%TO.N,Sense1-11*%
X173460800Y-60095100D03*
%TO.P,J4,12,12*%
%TO.N,Sense1-12*%
X169650800Y-60095100D03*
%TD*%
%TO.P,J5,1,1*%
%TO.N,Sense2-1*%
X165836500Y-79145100D03*
%TO.P,J5,2,2*%
%TO.N,Sense2-2*%
X162026500Y-79145100D03*
%TO.P,J5,3,3*%
%TO.N,Sense2-3*%
X158216500Y-79145100D03*
%TO.P,J5,4,4*%
%TO.N,Sense2-4*%
X154406500Y-79145100D03*
%TO.P,J5,5,5*%
%TO.N,Sense2-5*%
X167736500Y-71525100D03*
%TO.P,J5,6,6*%
%TO.N,Sense2-6*%
X163926500Y-71525100D03*
%TO.P,J5,7,7*%
%TO.N,Sense2-7*%
X160116500Y-71525100D03*
%TO.P,J5,8,8*%
%TO.N,Sense2-8*%
X156306500Y-71525100D03*
%TO.P,J5,9,9*%
%TO.N,Sense2-9*%
X165836500Y-60095100D03*
%TO.P,J5,10,10*%
%TO.N,Sense2-10*%
X162026500Y-60095100D03*
%TO.P,J5,11,11*%
%TO.N,Sense2-11*%
X158216500Y-60095100D03*
%TO.P,J5,12,12*%
%TO.N,Sense2-12*%
X154406500Y-60095100D03*
%TD*%
D15*
%TO.P,R31,1*%
%TO.N,Net-(Q2-D)*%
X197062500Y-61155500D03*
D16*
%TO.P,R31,2*%
%TO.N,Net-(Q21-CATHODE_2)*%
X199602500Y-61155500D03*
%TD*%
D17*
%TO.P,Q8,1,S*%
%TO.N,GND*%
X145869300Y-85561400D03*
D18*
%TO.P,Q8,2,G*%
%TO.N,OUTPUTLED1*%
X147139300Y-85561400D03*
%TO.P,Q8,3,D*%
%TO.N,Net-(Q8-D)*%
X148409300Y-85561400D03*
%TD*%
D15*
%TO.P,R43,1*%
%TO.N,+VDC*%
X153587000Y-87436700D03*
D16*
%TO.P,R43,2*%
%TO.N,Net-(Q10-Pad1)*%
X151047000Y-87436700D03*
%TD*%
D17*
%TO.P,Q16,1,S*%
%TO.N,GND*%
X159603700Y-85255900D03*
D18*
%TO.P,Q16,2,G*%
%TO.N,OUTPUTSiren*%
X160873700Y-85255900D03*
%TO.P,Q16,3,D*%
%TO.N,Net-(Q16-D)*%
X162143700Y-85255900D03*
%TD*%
D19*
%TO.P,Q13,1*%
%TO.N,Net-(Q13-Pad1)*%
X137948300Y-74690000D03*
D20*
%TO.P,Q13,2*%
%TO.N,Sense2-9*%
X137948300Y-77230000D03*
%TO.P,Q13,3*%
%TO.N,+VDC*%
X137948300Y-79770000D03*
%TD*%
D15*
%TO.P,R63,1*%
%TO.N,Net-(J10-Pin_2)*%
X174000700Y-94237500D03*
D16*
%TO.P,R63,2*%
%TO.N,Sense1-5*%
X176540700Y-94237500D03*
%TD*%
D15*
%TO.P,R24,1*%
%TO.N,GND*%
X141650500Y-121671700D03*
D16*
%TO.P,R24,2*%
%TO.N,SpareADC2*%
X139110500Y-121671700D03*
%TD*%
D15*
%TO.P,R56,1*%
%TO.N,Net-(Q18-Pad1)*%
X165174600Y-87090400D03*
D16*
%TO.P,R56,2*%
%TO.N,Net-(Q16-D)*%
X167714600Y-87090400D03*
%TD*%
D19*
%TO.P,Q6,1*%
%TO.N,Net-(Q6-Pad1)*%
X93319000Y-73790400D03*
D20*
%TO.P,Q6,2*%
%TO.N,Net-(#FLG03-pwr)*%
X93319000Y-71250400D03*
%TO.P,Q6,3*%
%TO.N,Net-(#FLG0103-pwr)*%
X93319000Y-68710400D03*
%TD*%
D15*
%TO.P,R59,1*%
%TO.N,Net-(Q20-Pad1)*%
X132753300Y-52337500D03*
D16*
%TO.P,R59,2*%
%TO.N,Net-(Q19-D)*%
X130213300Y-52337500D03*
%TD*%
D15*
%TO.P,R12,1*%
%TO.N,GND*%
X122751400Y-121680200D03*
D16*
%TO.P,R12,2*%
%TO.N,Sense1-3*%
X125291400Y-121680200D03*
%TD*%
D15*
%TO.P,R48,1*%
%TO.N,Net-(Q13-Pad1)*%
X132330700Y-77430500D03*
D16*
%TO.P,R48,2*%
%TO.N,Net-(Q11-D)*%
X132330700Y-79970500D03*
%TD*%
D15*
%TO.P,R26,1*%
%TO.N,GND*%
X141650500Y-130872700D03*
D16*
%TO.P,R26,2*%
%TO.N,Sense2-7*%
X139110500Y-130872700D03*
%TD*%
D15*
%TO.P,R41,1*%
%TO.N,+VDC*%
X132040600Y-58566000D03*
D16*
%TO.P,R41,2*%
%TO.N,Net-(Q9-Pad1)*%
X134580600Y-58566000D03*
%TD*%
D15*
%TO.P,R65,1*%
%TO.N,+5V*%
X207963000Y-121755900D03*
D16*
%TO.P,R65,2*%
%TO.N,/CAN Bus/CAN_INT*%
X210503000Y-121755900D03*
%TD*%
D15*
%TO.P,R21,1*%
%TO.N,Net-(Q6-Pad1)*%
X84534800Y-68356300D03*
D16*
%TO.P,R21,2*%
%TO.N,GND*%
X84534800Y-65816300D03*
%TD*%
D15*
%TO.P,R22,1*%
%TO.N,GND*%
X122751400Y-131190900D03*
D16*
%TO.P,R22,2*%
%TO.N,SpareADC1*%
X125291400Y-131190900D03*
%TD*%
D21*
%TO.P,T3,1,Pin_1*%
%TO.N,+5V*%
X185205600Y-133341400D03*
D22*
%TO.P,T3,2,Pin_2*%
%TO.N,GND*%
X185205600Y-135881400D03*
%TO.P,T3,3,Pin_3*%
%TO.N,unconnected-(T3-Pin_3-Pad3)*%
X185205600Y-138421400D03*
%TO.P,T3,4,Pin_4*%
%TO.N,RTDSCLK*%
X185205600Y-140961400D03*
%TO.P,T3,5,Pin_5*%
%TO.N,RTDMISO*%
X185205600Y-143501400D03*
%TO.P,T3,6,Pin_6*%
%TO.N,RTDMOSI*%
X185205600Y-146041400D03*
%TO.P,T3,7,Pin_7*%
%TO.N,RsideCS*%
X185205600Y-148581400D03*
%TO.P,T3,8,Pin_8*%
%TO.N,unconnected-(T3-Pin_8-Pad8)*%
X185205600Y-151121400D03*
%TD*%
D15*
%TO.P,R58,1*%
%TO.N,+VDC*%
X130663300Y-55452600D03*
D16*
%TO.P,R58,2*%
%TO.N,Net-(Q20-Pad1)*%
X133203300Y-55452600D03*
%TD*%
D23*
%TO.P,D10,1*%
%TO.N,Sense1-2*%
X181016000Y-91600800D03*
%TO.P,D10,2*%
%TO.N,GND*%
X182516000Y-91600800D03*
%TD*%
D21*
%TO.P,J9,1,Pin_1*%
%TO.N,/Sheet6152913C/RSCOM2TX*%
X123089500Y-111075800D03*
D22*
%TO.P,J9,2,Pin_2*%
%TO.N,/Sheet6152913C/RSCOM2RX*%
X123089500Y-108535800D03*
%TO.P,J9,3,Pin_3*%
%TO.N,GND*%
X123089500Y-105995800D03*
%TD*%
D15*
%TO.P,R11,1*%
%TO.N,Net-(Q24-D)*%
X207680200Y-67007700D03*
D16*
%TO.P,R11,2*%
%TO.N,Net-(Q3-G)*%
X210220200Y-67007700D03*
%TD*%
D15*
%TO.P,R19,1*%
%TO.N,GND*%
X122751400Y-116744400D03*
D16*
%TO.P,R19,2*%
%TO.N,OilPressure*%
X125291400Y-116744400D03*
%TD*%
D17*
%TO.P,Q15,1,S*%
%TO.N,GND*%
X124980900Y-91002600D03*
D18*
%TO.P,Q15,2,G*%
%TO.N,OUTPUT4*%
X126250900Y-91002600D03*
%TO.P,Q15,3,D*%
%TO.N,Net-(Q15-D)*%
X127520900Y-91002600D03*
%TD*%
D24*
%TO.P,Z9,1*%
%TO.N,+VDC*%
X84521500Y-77164000D03*
D25*
%TO.P,Z9,2*%
%TO.N,Net-(Q22-Pad1)*%
X84521500Y-87864000D03*
%TD*%
D26*
%TO.P,J21,1,Pin_1*%
%TO.N,Net-(#FLG03-pwr)*%
X96112600Y-58096800D03*
D27*
%TO.P,J21,2,Pin_2*%
%TO.N,GND*%
X91032600Y-58096800D03*
%TO.P,J21,3,Pin_3*%
%TO.N,PowerOn*%
X85952600Y-58096800D03*
%TD*%
D15*
%TO.P,R64,1*%
%TO.N,GND*%
X199595500Y-102214500D03*
D16*
%TO.P,R64,2*%
%TO.N,CAN_TX_STBY*%
X202135500Y-102214500D03*
%TD*%
D21*
%TO.P,T4,1,Pin_1*%
%TO.N,+5V*%
X204282700Y-133341400D03*
D22*
%TO.P,T4,2,Pin_2*%
%TO.N,GND*%
X204282700Y-135881400D03*
%TO.P,T4,3,Pin_3*%
%TO.N,unconnected-(T4-Pin_3-Pad3)*%
X204282700Y-138421400D03*
%TO.P,T4,4,Pin_4*%
%TO.N,RTDSCLK*%
X204282700Y-140961400D03*
%TO.P,T4,5,Pin_5*%
%TO.N,RTDMISO*%
X204282700Y-143501400D03*
%TO.P,T4,6,Pin_6*%
%TO.N,RTDMOSI*%
X204282700Y-146041400D03*
%TO.P,T4,7,Pin_7*%
%TO.N,FrontCS*%
X204282700Y-148581400D03*
%TO.P,T4,8,Pin_8*%
%TO.N,unconnected-(T4-Pin_8-Pad8)*%
X204282700Y-151121400D03*
%TD*%
D15*
%TO.P,R46,1*%
%TO.N,OUTPUTLED2*%
X139912900Y-96025600D03*
D16*
%TO.P,R46,2*%
%TO.N,GND*%
X137372900Y-96025600D03*
%TD*%
D28*
%TO.P,RN3,1,1*%
%TO.N,GND*%
X231807500Y-67722400D03*
%TO.P,RN3,2,2*%
X231807500Y-68522400D03*
%TO.P,RN3,3,3*%
X231807500Y-69322400D03*
%TO.P,RN3,4,4*%
X231807500Y-70122400D03*
%TO.P,RN3,5,5*%
%TO.N,Logging*%
X233407500Y-70122400D03*
%TO.P,RN3,6,6*%
%TO.N,IN3TTL*%
X233407500Y-69322400D03*
%TO.P,RN3,7,7*%
%TO.N,IN2TTL*%
X233407500Y-68522400D03*
%TO.P,RN3,8,8*%
%TO.N,IN1TTL*%
X233407500Y-67722400D03*
%TD*%
D15*
%TO.P,R34,1*%
%TO.N,Net-(Q25-G)*%
X196570900Y-76078200D03*
D16*
%TO.P,R34,2*%
%TO.N,GND*%
X199110900Y-76078200D03*
%TD*%
D15*
%TO.P,C5,1*%
%TO.N,Sense1-7*%
X190771500Y-62155500D03*
%TO.P,C5,2*%
%TO.N,GND*%
X190771500Y-57155500D03*
%TD*%
%TO.P,R36,1*%
%TO.N,+5V*%
X163218700Y-113941500D03*
D16*
%TO.P,R36,2*%
%TO.N,SCL*%
X165758700Y-113941500D03*
%TD*%
D17*
%TO.P,Q19,1,S*%
%TO.N,GND*%
X123281600Y-54920500D03*
D18*
%TO.P,Q19,2,G*%
%TO.N,OUTPUT1*%
X124551600Y-54920500D03*
%TO.P,Q19,3,D*%
%TO.N,Net-(Q19-D)*%
X125821600Y-54920500D03*
%TD*%
D29*
%TO.P,IC2,1,TXD*%
%TO.N,Net-(IC2-TXD)*%
X198068100Y-105956300D03*
%TO.P,IC2,2,VSS*%
%TO.N,GND*%
X198068100Y-107226300D03*
%TO.P,IC2,3,VDD*%
%TO.N,+5V*%
X198068100Y-108496300D03*
%TO.P,IC2,4,RXD*%
%TO.N,Net-(IC2-RXD)*%
X198068100Y-109766300D03*
%TO.P,IC2,5,VIO*%
%TO.N,+5V*%
X203468100Y-109766300D03*
%TO.P,IC2,6,CANL*%
%TO.N,Sense1-2*%
X203468100Y-108496300D03*
%TO.P,IC2,7,CANH*%
%TO.N,Sense1-5*%
X203468100Y-107226300D03*
%TO.P,IC2,8,STBY*%
%TO.N,CAN_TX_STBY*%
X203468100Y-105956300D03*
%TD*%
D21*
%TO.P,J6,1,Pin_1*%
%TO.N,unconnected-(J6-Pin_1-Pad1)*%
X93896800Y-105925600D03*
D22*
%TO.P,J6,2,Pin_2*%
%TO.N,unconnected-(J6-Pin_2-Pad2)*%
X91356800Y-105925600D03*
%TO.P,J6,3,Pin_3*%
%TO.N,GPSBat*%
X88816800Y-105925600D03*
%TO.P,J6,4,Pin_4*%
%TO.N,unconnected-(J6-Pin_4-Pad4)*%
X86276800Y-105925600D03*
%TO.P,J6,5,Pin_5*%
%TO.N,GPSTX*%
X83736800Y-105925600D03*
%TO.P,J6,6,Pin_6*%
%TO.N,GPSRX*%
X81196800Y-105925600D03*
%TO.P,J6,7,Pin_7*%
%TO.N,GND*%
X78656800Y-105925600D03*
%TO.P,J6,8,Pin_8*%
%TO.N,+5V*%
X76116800Y-105925600D03*
%TO.P,J6,9,Pin_9*%
%TO.N,unconnected-(J6-Pin_9-Pad9)*%
X73576800Y-105925600D03*
%TD*%
D15*
%TO.P,R5,1*%
%TO.N,Net-(Q28-D)*%
X204438900Y-49635500D03*
D16*
%TO.P,R5,2*%
%TO.N,Net-(Q1-G)*%
X206978900Y-49635500D03*
%TD*%
D19*
%TO.P,Q20,1*%
%TO.N,Net-(Q20-Pad1)*%
X137948300Y-51591400D03*
D20*
%TO.P,Q20,2*%
%TO.N,Sense2-3*%
X137948300Y-54131400D03*
%TO.P,Q20,3*%
%TO.N,+VDC*%
X137948300Y-56671400D03*
%TD*%
D15*
%TO.P,R2,1*%
%TO.N,GND*%
X99906600Y-135387200D03*
D16*
%TO.P,R2,2*%
%TO.N,Sense1-12*%
X102446600Y-135387200D03*
%TD*%
D24*
%TO.P,Z5,1*%
%TO.N,+VDC*%
X124379600Y-85479800D03*
D25*
%TO.P,Z5,2*%
%TO.N,Net-(Q17-Pad1)*%
X135079600Y-85479800D03*
%TD*%
D15*
%TO.P,R49,1*%
%TO.N,+VDC*%
X150974700Y-92348200D03*
D16*
%TO.P,R49,2*%
%TO.N,Net-(Q14-Pad1)*%
X148434700Y-92348200D03*
%TD*%
D15*
%TO.P,R1,1*%
%TO.N,+5V*%
X215437900Y-94386400D03*
D16*
%TO.P,R1,2*%
%TO.N,SDDetect*%
X215437900Y-91846400D03*
%TD*%
D17*
%TO.P,Q12,1,S*%
%TO.N,GND*%
X143217100Y-93590800D03*
D18*
%TO.P,Q12,2,G*%
%TO.N,OUTPUTLED2*%
X144487100Y-93590800D03*
%TO.P,Q12,3,D*%
%TO.N,Net-(Q12-D)*%
X145757100Y-93590800D03*
%TD*%
D30*
%TO.P,C39,1*%
%TO.N,GND*%
X105777600Y-104378800D03*
D15*
%TO.P,C39,2*%
%TO.N,Net-(#FLG0105-pwr)*%
X105777600Y-106878800D03*
%TD*%
D17*
%TO.P,Q2,1,S*%
%TO.N,GND*%
X213092300Y-59757100D03*
D18*
%TO.P,Q2,2,G*%
%TO.N,Net-(Q2-G)*%
X214362300Y-59757100D03*
%TO.P,Q2,3,D*%
%TO.N,Net-(Q2-D)*%
X215632300Y-59757100D03*
%TD*%
D17*
%TO.P,Q25,1,D*%
%TO.N,Net-(Q25-D)*%
X201732600Y-77886500D03*
D18*
%TO.P,Q25,2,G*%
%TO.N,Net-(Q25-G)*%
X203002600Y-77886500D03*
%TO.P,Q25,3,S*%
%TO.N,Sense2-1*%
X204272600Y-77886500D03*
%TD*%
D30*
%TO.P,C40,1*%
%TO.N,Net-(#FLG0106-pwr)*%
X101718200Y-117243200D03*
D15*
%TO.P,C40,2*%
%TO.N,+5V*%
X101718200Y-119743200D03*
%TD*%
%TO.P,R47,1*%
%TO.N,+VDC*%
X132450100Y-70105300D03*
D16*
%TO.P,R47,2*%
%TO.N,Net-(Q13-Pad1)*%
X134990100Y-70105300D03*
%TD*%
D21*
%TO.P,J8,1,Pin_1*%
%TO.N,SWMOSI*%
X229872200Y-121547800D03*
D22*
%TO.P,J8,2,Pin_2*%
%TO.N,RTDMOSI*%
X229872200Y-124087800D03*
%TO.P,J8,3,Pin_3*%
%TO.N,MOSI*%
X229872200Y-126627800D03*
%TD*%
D15*
%TO.P,C11,1*%
%TO.N,Net-(IC3-OSC2)*%
X189232600Y-122947700D03*
%TO.P,C11,2*%
%TO.N,GND*%
X189232600Y-117947700D03*
%TD*%
%TO.P,R42,1*%
%TO.N,Net-(Q9-Pad1)*%
X132887300Y-64171300D03*
D16*
%TO.P,R42,2*%
%TO.N,Net-(Q7-D)*%
X130347300Y-64171300D03*
%TD*%
D15*
%TO.P,R18,1*%
%TO.N,GND*%
X122751400Y-126260600D03*
D16*
%TO.P,R18,2*%
%TO.N,Sense2-10*%
X125291400Y-126260600D03*
%TD*%
D19*
%TO.P,Q17,1*%
%TO.N,Net-(Q17-Pad1)*%
X137948300Y-86239200D03*
D20*
%TO.P,Q17,2*%
%TO.N,Sense2-12*%
X137948300Y-88779200D03*
%TO.P,Q17,3*%
%TO.N,+VDC*%
X137948300Y-91319200D03*
%TD*%
D15*
%TO.P,R69,1*%
%TO.N,GND*%
X116816400Y-145349000D03*
D16*
%TO.P,R69,2*%
%TO.N,FuelPressure3*%
X114276400Y-145349000D03*
%TD*%
D17*
%TO.P,Q28,1,D*%
%TO.N,Net-(Q28-D)*%
X198434900Y-53868800D03*
D18*
%TO.P,Q28,2,G*%
%TO.N,Net-(Q28-G)*%
X199704900Y-53868800D03*
%TO.P,Q28,3,S*%
%TO.N,Sense1-10*%
X200974900Y-53868800D03*
%TD*%
D17*
%TO.P,Q11,1,S*%
%TO.N,GND*%
X124175200Y-77430200D03*
D18*
%TO.P,Q11,2,G*%
%TO.N,OUTPUT3*%
X125445200Y-77430200D03*
%TO.P,Q11,3,D*%
%TO.N,Net-(Q11-D)*%
X126715200Y-77430200D03*
%TD*%
D15*
%TO.P,R20,1*%
%TO.N,GND*%
X116672700Y-140684700D03*
D16*
%TO.P,R20,2*%
%TO.N,Sense1-6*%
X114132700Y-140684700D03*
%TD*%
D15*
%TO.P,R45,1*%
%TO.N,OUTPUT3*%
X126348800Y-82222500D03*
D16*
%TO.P,R45,2*%
%TO.N,GND*%
X123808800Y-82222500D03*
%TD*%
D15*
%TO.P,R28,1*%
%TO.N,+VDC*%
X96867100Y-83431200D03*
D16*
%TO.P,R28,2*%
%TO.N,Net-(Q22-Pad1)*%
X99407100Y-83431200D03*
%TD*%
D15*
%TO.P,R67,1*%
%TO.N,Net-(Q28-G)*%
X193167700Y-49742800D03*
D16*
%TO.P,R67,2*%
%TO.N,GND*%
X195707700Y-49742800D03*
%TD*%
D19*
%TO.P,Q22,1*%
%TO.N,Net-(Q22-Pad1)*%
X93303400Y-85000200D03*
D20*
%TO.P,Q22,2*%
%TO.N,VPP*%
X93303400Y-82460200D03*
%TO.P,Q22,3*%
%TO.N,+VDC*%
X93303400Y-79920200D03*
%TD*%
D21*
%TO.P,J10,1,Pin_1*%
%TO.N,Sense1-2*%
X174115600Y-87855000D03*
D22*
%TO.P,J10,2,Pin_2*%
%TO.N,Net-(J10-Pin_2)*%
X174115600Y-90395000D03*
%TD*%
D15*
%TO.P,R16,1*%
%TO.N,VPP*%
X114737400Y-133063100D03*
D16*
%TO.P,R16,2*%
%TO.N,/BufferedADC1/ADCIN4*%
X117277400Y-133063100D03*
%TD*%
D21*
%TO.P,J3,1,Pin_1*%
%TO.N,+5V*%
X226581200Y-111690700D03*
D22*
%TO.P,J3,2,Pin_2*%
%TO.N,unconnected-(J3-Pin_2-Pad2)*%
X226581200Y-109150700D03*
%TO.P,J3,3,Pin_3*%
%TO.N,GND*%
X226581200Y-106610700D03*
%TO.P,J3,4,Pin_4*%
%TO.N,SCLK*%
X226581200Y-104070700D03*
%TO.P,J3,5,Pin_5*%
%TO.N,MISO*%
X226581200Y-101530700D03*
%TO.P,J3,6,Pin_6*%
%TO.N,MOSI*%
X226581200Y-98990700D03*
%TO.P,J3,7,Pin_7*%
%TO.N,SDCS*%
X226581200Y-96450700D03*
%TO.P,J3,8,Pin_8*%
%TO.N,SDDetect*%
X226581200Y-93910700D03*
%TD*%
D15*
%TO.P,R23,1*%
%TO.N,GND*%
X141650500Y-117151100D03*
D16*
%TO.P,R23,2*%
%TO.N,SpareADC3*%
X139110500Y-117151100D03*
%TD*%
D21*
%TO.P,T2,1,Pin_1*%
%TO.N,+5V*%
X185138800Y-97249500D03*
D22*
%TO.P,T2,2,Pin_2*%
%TO.N,GND*%
X185138800Y-99789500D03*
%TO.P,T2,3,Pin_3*%
%TO.N,unconnected-(T2-Pin_3-Pad3)*%
X185138800Y-102329500D03*
%TO.P,T2,4,Pin_4*%
%TO.N,RTDSCLK*%
X185138800Y-104869500D03*
%TO.P,T2,5,Pin_5*%
%TO.N,RTDMISO*%
X185138800Y-107409500D03*
%TO.P,T2,6,Pin_6*%
%TO.N,RTDMOSI*%
X185138800Y-109949500D03*
%TO.P,T2,7,Pin_7*%
%TO.N,LsideCS*%
X185138800Y-112489500D03*
%TO.P,T2,8,Pin_8*%
%TO.N,unconnected-(T2-Pin_8-Pad8)*%
X185138800Y-115029500D03*
%TD*%
D15*
%TO.P,R29,1*%
%TO.N,Net-(Q22-Pad1)*%
X96850700Y-86549200D03*
D16*
%TO.P,R29,2*%
%TO.N,Net-(Q5-D)*%
X99390700Y-86549200D03*
%TD*%
D31*
%TO.P,IC17,1,C1+*%
%TO.N,Net-(IC17-C1+)*%
X117227000Y-121483700D03*
D32*
%TO.P,IC17,2,V+*%
%TO.N,Net-(#FLG0106-pwr)*%
X117227000Y-118943700D03*
%TO.P,IC17,3,C1-*%
%TO.N,Net-(IC17-C1-)*%
X117227000Y-116403700D03*
%TO.P,IC17,4,C2+*%
%TO.N,Net-(IC17-C2+)*%
X117227000Y-113863700D03*
%TO.P,IC17,5,C2-*%
%TO.N,Net-(IC17-C2-)*%
X117227000Y-111323700D03*
%TO.P,IC17,6,V-*%
%TO.N,Net-(#FLG0105-pwr)*%
X117227000Y-108783700D03*
%TO.P,IC17,7,T2OUT*%
%TO.N,/Sheet6152913C/RSCOM2TX*%
X117227000Y-106243700D03*
%TO.P,IC17,8,R2IN*%
%TO.N,/Sheet6152913C/RSCOM2RX*%
X117227000Y-103703700D03*
%TO.P,IC17,9,R2OUT*%
%TO.N,Com2RX*%
X109607000Y-103703700D03*
%TO.P,IC17,10,T2IN*%
%TO.N,Com2TX*%
X109607000Y-106243700D03*
%TO.P,IC17,11,T1IN*%
%TO.N,Com1TX*%
X109607000Y-108783700D03*
%TO.P,IC17,12,R1OUT*%
%TO.N,Com1RX*%
X109607000Y-111323700D03*
%TO.P,IC17,13,R1IN*%
%TO.N,Sense1-8*%
X109607000Y-113863700D03*
%TO.P,IC17,14,T1OUT*%
%TO.N,Sense1-11*%
X109607000Y-116403700D03*
%TO.P,IC17,15,GND*%
%TO.N,GND*%
X109607000Y-118943700D03*
%TO.P,IC17,16,VCC*%
%TO.N,+5V*%
X109607000Y-121483700D03*
%TD*%
D15*
%TO.P,R4,1*%
%TO.N,GND*%
X116863700Y-136197100D03*
D16*
%TO.P,R4,2*%
%TO.N,/BufferedADC1/ADCIN4*%
X114323700Y-136197100D03*
%TD*%
D15*
%TO.P,R8,1*%
%TO.N,Net-(Q1-G)*%
X204190800Y-54281900D03*
D16*
%TO.P,R8,2*%
%TO.N,GND*%
X206730800Y-54281900D03*
%TD*%
D17*
%TO.P,Q3,1,S*%
%TO.N,GND*%
X212897400Y-68857200D03*
D18*
%TO.P,Q3,2,G*%
%TO.N,Net-(Q3-G)*%
X214167400Y-68857200D03*
%TO.P,Q3,3,D*%
%TO.N,Net-(Q3-D)*%
X215437400Y-68857200D03*
%TD*%
D24*
%TO.P,Z1,1*%
%TO.N,+VDC*%
X124469800Y-61361800D03*
D25*
%TO.P,Z1,2*%
%TO.N,Net-(Q9-Pad1)*%
X135169800Y-61361800D03*
%TD*%
D15*
%TO.P,R50,1*%
%TO.N,Net-(Q14-Pad1)*%
X148881600Y-95455700D03*
D16*
%TO.P,R50,2*%
%TO.N,Net-(Q12-D)*%
X151421600Y-95455700D03*
%TD*%
D30*
%TO.P,C38,1*%
%TO.N,Net-(IC17-C2+)*%
X101718200Y-111166200D03*
D15*
%TO.P,C38,2*%
%TO.N,Net-(IC17-C2-)*%
X101718200Y-108666200D03*
%TD*%
D24*
%TO.P,Z7,1*%
%TO.N,+VDC*%
X124403000Y-49296100D03*
D25*
%TO.P,Z7,2*%
%TO.N,Net-(Q20-Pad1)*%
X135103000Y-49296100D03*
%TD*%
D24*
%TO.P,Z3,1*%
%TO.N,+VDC*%
X124430900Y-72953300D03*
D25*
%TO.P,Z3,2*%
%TO.N,Net-(Q13-Pad1)*%
X135130900Y-72953300D03*
%TD*%
D33*
%TO.P,U1,1,1*%
%TO.N,Net-(#FLG0103-pwr)*%
X78250100Y-64100700D03*
%TO.P,U1,2,2*%
%TO.N,+VDC*%
X78250100Y-86700700D03*
%TD*%
D21*
%TO.P,J11,1,Pin_1*%
%TO.N,/CAN Bus/CAN_INT*%
X213845000Y-122132000D03*
D22*
%TO.P,J11,2,Pin_2*%
%TO.N,CAN_INT*%
X213845000Y-124672000D03*
%TD*%
D23*
%TO.P,D9,1*%
%TO.N,Sense1-5*%
X180682800Y-88283100D03*
%TO.P,D9,2*%
%TO.N,GND*%
X182182800Y-88283100D03*
%TD*%
D17*
%TO.P,Q7,1,S*%
%TO.N,GND*%
X124895600Y-65590600D03*
D18*
%TO.P,Q7,2,G*%
%TO.N,OUTPUT2*%
X126165600Y-65590600D03*
%TO.P,Q7,3,D*%
%TO.N,Net-(Q7-D)*%
X127435600Y-65590600D03*
%TD*%
D15*
%TO.P,R66,1*%
%TO.N,/CAN Bus/CAN_INT*%
X207963000Y-125805900D03*
D16*
%TO.P,R66,2*%
%TO.N,GND*%
X210503000Y-125805900D03*
%TD*%
D15*
%TO.P,R14,1*%
%TO.N,Net-(Q25-D)*%
X207461300Y-76295800D03*
D16*
%TO.P,R14,2*%
%TO.N,Net-(Q4-G)*%
X210001300Y-76295800D03*
%TD*%
D15*
%TO.P,R15,1*%
%TO.N,Net-(Q4-G)*%
X207438700Y-79453500D03*
D16*
%TO.P,R15,2*%
%TO.N,GND*%
X209978700Y-79453500D03*
%TD*%
D15*
%TO.P,R30,1*%
%TO.N,Net-(Q23-G)*%
X197077800Y-58031600D03*
D16*
%TO.P,R30,2*%
%TO.N,GND*%
X199617800Y-58031600D03*
%TD*%
D21*
%TO.P,T1,1,Pin_1*%
%TO.N,+5V*%
X190610600Y-85780400D03*
D22*
%TO.P,T1,2,Pin_2*%
%TO.N,GND*%
X193150600Y-85780400D03*
%TO.P,T1,3,Pin_3*%
%TO.N,unconnected-(T1-Pin_3-Pad3)*%
X195690600Y-85780400D03*
%TO.P,T1,4,Pin_4*%
%TO.N,RTDSCLK*%
X198230600Y-85780400D03*
%TO.P,T1,5,Pin_5*%
%TO.N,RTDMISO*%
X200770600Y-85780400D03*
%TO.P,T1,6,Pin_6*%
%TO.N,RTDMOSI*%
X203310600Y-85780400D03*
%TO.P,T1,7,Pin_7*%
%TO.N,WaterCS*%
X205850600Y-85780400D03*
%TO.P,T1,8,Pin_8*%
%TO.N,unconnected-(T1-Pin_8-Pad8)*%
X208390600Y-85780400D03*
%TD*%
D21*
%TO.P,J1,1,Pin_1*%
%TO.N,SWSCLK*%
X234522200Y-121547800D03*
D22*
%TO.P,J1,2,Pin_2*%
%TO.N,RTDSCLK*%
X234522200Y-124087800D03*
%TO.P,J1,3,Pin_3*%
%TO.N,SCLK*%
X234522200Y-126627800D03*
%TD*%
D21*
%TO.P,J12,1,Pin_1*%
%TO.N,unconnected-(J12-Pin_1-Pad1)*%
X142301000Y-106524600D03*
D22*
%TO.P,J12,2,Pin_2*%
%TO.N,unconnected-(J12-Pin_2-Pad2)*%
X139761000Y-106524600D03*
%TO.P,J12,3,Pin_3*%
%TO.N,SCL*%
X137221000Y-106524600D03*
%TO.P,J12,4,Pin_4*%
%TO.N,SDA*%
X134681000Y-106524600D03*
%TO.P,J12,5,Pin_5*%
%TO.N,+5V*%
X132141000Y-106524600D03*
%TO.P,J12,6,Pin_6*%
%TO.N,GND*%
X129601000Y-106524600D03*
%TD*%
D15*
%TO.P,R32,1*%
%TO.N,Net-(Q24-G)*%
X196780800Y-67008000D03*
D16*
%TO.P,R32,2*%
%TO.N,GND*%
X199320800Y-67008000D03*
%TD*%
D29*
%TO.P,IC1,1,OUT_A*%
%TO.N,OilPressure*%
X129672500Y-119193800D03*
%TO.P,IC1,2,-IN_A*%
X129672500Y-120463800D03*
%TO.P,IC1,3,+IN_A*%
%TO.N,Sense1-3*%
X129672500Y-121733800D03*
%TO.P,IC1,4,V+*%
%TO.N,+5V*%
X129672500Y-123003800D03*
%TO.P,IC1,5,+IN_B*%
%TO.N,Sense2-10*%
X129672500Y-124273800D03*
%TO.P,IC1,6,-IN_B*%
%TO.N,SpareADC1*%
X129672500Y-125543800D03*
%TO.P,IC1,7,OUT_B*%
X129672500Y-126813800D03*
%TO.P,IC1,8,OUT_C*%
%TO.N,SpareADC2*%
X135072500Y-126813800D03*
%TO.P,IC1,9,-IN_C*%
X135072500Y-125543800D03*
%TO.P,IC1,10,+IN_C*%
%TO.N,Sense2-7*%
X135072500Y-124273800D03*
%TO.P,IC1,11,V-*%
%TO.N,GND*%
X135072500Y-123003800D03*
%TO.P,IC1,12,+IN_D*%
%TO.N,Sense2-4*%
X135072500Y-121733800D03*
%TO.P,IC1,13,-IN_D*%
%TO.N,SpareADC3*%
X135072500Y-120463800D03*
%TO.P,IC1,14,OUT_D*%
X135072500Y-119193800D03*
%TD*%
D19*
%TO.P,Q14,1*%
%TO.N,Net-(Q14-Pad1)*%
X147835600Y-68220700D03*
D20*
%TO.P,Q14,2*%
%TO.N,Sense2-8*%
X147835600Y-65680700D03*
%TO.P,Q14,3*%
%TO.N,+VDC*%
X147835600Y-63140700D03*
%TD*%
D15*
%TO.P,C10,1*%
%TO.N,+5V*%
X195024500Y-108550300D03*
%TO.P,C10,2*%
%TO.N,GND*%
X190024500Y-108550300D03*
%TD*%
%TO.P,C6,1*%
%TO.N,Sense1-4*%
X190529600Y-71112700D03*
%TO.P,C6,2*%
%TO.N,GND*%
X190529600Y-66112700D03*
%TD*%
D21*
%TO.P,T5,1,Pin_1*%
%TO.N,+5V*%
X216780000Y-85843500D03*
D22*
%TO.P,T5,2,Pin_2*%
%TO.N,GND*%
X219320000Y-85843500D03*
%TO.P,T5,3,Pin_3*%
%TO.N,unconnected-(T5-Pin_3-Pad3)*%
X221860000Y-85843500D03*
%TO.P,T5,4,Pin_4*%
%TO.N,RTDSCLK*%
X224400000Y-85843500D03*
%TO.P,T5,5,Pin_5*%
%TO.N,RTDMISO*%
X226940000Y-85843500D03*
%TO.P,T5,6,Pin_6*%
%TO.N,RTDMOSI*%
X229480000Y-85843500D03*
%TO.P,T5,7,Pin_7*%
%TO.N,AmbientCS*%
X232020000Y-85843500D03*
%TO.P,T5,8,Pin_8*%
%TO.N,unconnected-(T5-Pin_8-Pad8)*%
X234560000Y-85843500D03*
%TD*%
D15*
%TO.P,R53,1*%
%TO.N,+VDC*%
X132300900Y-82632400D03*
D16*
%TO.P,R53,2*%
%TO.N,Net-(Q17-Pad1)*%
X134840900Y-82632400D03*
%TD*%
D15*
%TO.P,R55,1*%
%TO.N,+VDC*%
X167264600Y-84024400D03*
D16*
%TO.P,R55,2*%
%TO.N,Net-(Q18-Pad1)*%
X164724600Y-84024400D03*
%TD*%
D15*
%TO.P,R52,1*%
%TO.N,OUTPUTSiren*%
X161738600Y-88833000D03*
D16*
%TO.P,R52,2*%
%TO.N,GND*%
X159198600Y-88833000D03*
%TD*%
D17*
%TO.P,Q1,1,S*%
%TO.N,GND*%
X211460500Y-51958700D03*
D18*
%TO.P,Q1,2,G*%
%TO.N,Net-(Q1-G)*%
X212730500Y-51958700D03*
%TO.P,Q1,3,D*%
%TO.N,Net-(Q1-D)*%
X214000500Y-51958700D03*
%TD*%
D15*
%TO.P,R44,1*%
%TO.N,Net-(Q10-Pad1)*%
X151477000Y-84322700D03*
D16*
%TO.P,R44,2*%
%TO.N,Net-(Q8-D)*%
X154017000Y-84322700D03*
%TD*%
D17*
%TO.P,Q5,1,S*%
%TO.N,GND*%
X96844900Y-76648100D03*
D18*
%TO.P,Q5,2,G*%
%TO.N,PowerOn*%
X98114900Y-76648100D03*
%TO.P,Q5,3,D*%
%TO.N,Net-(Q5-D)*%
X99384900Y-76648100D03*
%TD*%
D15*
%TO.P,R27,1*%
%TO.N,PowerOn*%
X96880200Y-80272600D03*
D16*
%TO.P,R27,2*%
%TO.N,GND*%
X99420200Y-80272600D03*
%TD*%
D15*
%TO.P,R9,1*%
%TO.N,Net-(Q23-D)*%
X207927200Y-57854600D03*
D16*
%TO.P,R9,2*%
%TO.N,Net-(Q2-G)*%
X210467200Y-57854600D03*
%TD*%
D29*
%TO.P,IC6,1,OUT_A*%
%TO.N,FuelPressure1*%
X106197700Y-131768100D03*
%TO.P,IC6,2,-IN_A*%
X106197700Y-133038100D03*
%TO.P,IC6,3,+IN_A*%
%TO.N,Sense1-12*%
X106197700Y-134308100D03*
%TO.P,IC6,4,V+*%
%TO.N,+5V*%
X106197700Y-135578100D03*
%TO.P,IC6,5,+IN_B*%
%TO.N,Sense1-9*%
X106197700Y-136848100D03*
%TO.P,IC6,6,-IN_B*%
%TO.N,FuelPressure2*%
X106197700Y-138118100D03*
%TO.P,IC6,7,OUT_B*%
X106197700Y-139388100D03*
%TO.P,IC6,8,OUT_C*%
%TO.N,FuelPressure3*%
X111597700Y-139388100D03*
%TO.P,IC6,9,-IN_C*%
X111597700Y-138118100D03*
%TO.P,IC6,10,+IN_C*%
%TO.N,Sense1-6*%
X111597700Y-136848100D03*
%TO.P,IC6,11,V-*%
%TO.N,GND*%
X111597700Y-135578100D03*
%TO.P,IC6,12,+IN_D*%
%TO.N,/BufferedADC1/ADCIN4*%
X111597700Y-134308100D03*
%TO.P,IC6,13,-IN_D*%
%TO.N,VoltageSensor*%
X111597700Y-133038100D03*
%TO.P,IC6,14,OUT_D*%
X111597700Y-131768100D03*
%TD*%
D15*
%TO.P,R70,1*%
%TO.N,Net-(Q1-D)*%
X193071500Y-54440300D03*
D16*
%TO.P,R70,2*%
%TO.N,Net-(Q21-CATHODE_1)*%
X195611500Y-54440300D03*
%TD*%
D34*
%TO.P,Q21,1,ANODE_1*%
%TO.N,+5V*%
X219482800Y-58749800D03*
D35*
%TO.P,Q21,2,CATHODE_1*%
%TO.N,Net-(Q21-CATHODE_1)*%
X219482800Y-61289800D03*
%TO.P,Q21,3,ANODE_2*%
%TO.N,+5V*%
X219482800Y-63829800D03*
%TO.P,Q21,4,CATHODE_2*%
%TO.N,Net-(Q21-CATHODE_2)*%
X219482800Y-66369800D03*
%TO.P,Q21,5,ANODE_3*%
%TO.N,+5V*%
X219482800Y-68909800D03*
%TO.P,Q21,6,CATHODE_3*%
%TO.N,Net-(Q21-CATHODE_3)*%
X219482800Y-71449800D03*
%TO.P,Q21,7,ANODE_4*%
%TO.N,+5V*%
X219482800Y-73989800D03*
%TO.P,Q21,8,CATHODE_4*%
%TO.N,Net-(Q21-CATHODE_4)*%
X219482800Y-76529800D03*
%TO.P,Q21,9,EMITTER_1*%
%TO.N,Logging*%
X227102800Y-76529800D03*
%TO.P,Q21,10,COLLECTOR_1*%
%TO.N,+5V*%
X227102800Y-73989800D03*
%TO.P,Q21,11,EMITTER_2*%
%TO.N,IN3TTL*%
X227102800Y-71449800D03*
%TO.P,Q21,12,COLLECTOR_2*%
%TO.N,+5V*%
X227102800Y-68909800D03*
%TO.P,Q21,13,EMITTER_3*%
%TO.N,IN2TTL*%
X227102800Y-66369800D03*
%TO.P,Q21,14,COLLECTOR_3*%
%TO.N,+5V*%
X227102800Y-63829800D03*
%TO.P,Q21,15,EMITTER_4*%
%TO.N,IN1TTL*%
X227102800Y-61289800D03*
%TO.P,Q21,16,COLLECTOR_4*%
%TO.N,+5V*%
X227102800Y-58749800D03*
%TD*%
D17*
%TO.P,Q24,1,D*%
%TO.N,Net-(Q24-D)*%
X202048400Y-68857200D03*
D18*
%TO.P,Q24,2,G*%
%TO.N,Net-(Q24-G)*%
X203318400Y-68857200D03*
%TO.P,Q24,3,S*%
%TO.N,Sense1-4*%
X204588400Y-68857200D03*
%TD*%
D17*
%TO.P,Q23,1,D*%
%TO.N,Net-(Q23-D)*%
X202317900Y-60478900D03*
D18*
%TO.P,Q23,2,G*%
%TO.N,Net-(Q23-G)*%
X203587900Y-60478900D03*
%TO.P,Q23,3,S*%
%TO.N,Sense1-7*%
X204857900Y-60478900D03*
%TD*%
D15*
%TO.P,R17,1*%
%TO.N,+5V*%
X163250700Y-109293700D03*
D16*
%TO.P,R17,2*%
%TO.N,SDA*%
X165790700Y-109293700D03*
%TD*%
D15*
%TO.P,R13,1*%
%TO.N,Net-(Q3-G)*%
X207657700Y-70165400D03*
D16*
%TO.P,R13,2*%
%TO.N,GND*%
X210197700Y-70165400D03*
%TD*%
D15*
%TO.P,R68,1*%
%TO.N,GND*%
X99866800Y-129284400D03*
D16*
%TO.P,R68,2*%
%TO.N,VoltageSensor*%
X102406800Y-129284400D03*
%TD*%
D15*
%TO.P,R6,1*%
%TO.N,GND*%
X104601100Y-145985500D03*
D16*
%TO.P,R6,2*%
%TO.N,FuelPressure1*%
X104601100Y-143445500D03*
%TD*%
D21*
%TO.P,J7,1,Pin_1*%
%TO.N,VPP*%
X119697600Y-66084300D03*
D22*
%TO.P,J7,2,Pin_2*%
%TO.N,+5V*%
X119697600Y-63544300D03*
%TO.P,J7,3,Pin_3*%
%TO.N,GND*%
X119697600Y-61004300D03*
%TD*%
D15*
%TO.P,C9,1*%
%TO.N,GND*%
X199353800Y-118424200D03*
%TO.P,C9,2*%
%TO.N,+5V*%
X204353800Y-118424200D03*
%TD*%
%TO.P,R54,1*%
%TO.N,Net-(Q17-Pad1)*%
X132691100Y-88305900D03*
D16*
%TO.P,R54,2*%
%TO.N,Net-(Q15-D)*%
X130151100Y-88305900D03*
%TD*%
D17*
%TO.P,Q4,1,S*%
%TO.N,GND*%
X212646200Y-77984300D03*
D18*
%TO.P,Q4,2,G*%
%TO.N,Net-(Q4-G)*%
X213916200Y-77984300D03*
%TO.P,Q4,3,D*%
%TO.N,Net-(Q4-D)*%
X215186200Y-77984300D03*
%TD*%
D15*
%TO.P,R3,1*%
%TO.N,GND*%
X99763400Y-140065700D03*
D16*
%TO.P,R3,2*%
%TO.N,Sense1-9*%
X102303400Y-140065700D03*
%TD*%
D15*
%TO.P,R25,1*%
%TO.N,GND*%
X141650500Y-126279000D03*
D16*
%TO.P,R25,2*%
%TO.N,Sense2-4*%
X139110500Y-126279000D03*
%TD*%
D15*
%TO.P,R40,1*%
%TO.N,OUTPUTLED1*%
X148378000Y-89191900D03*
D16*
%TO.P,R40,2*%
%TO.N,GND*%
X145838000Y-89191900D03*
%TD*%
D15*
%TO.P,R39,1*%
%TO.N,OUTPUT2*%
X127060000Y-69235400D03*
D16*
%TO.P,R39,2*%
%TO.N,GND*%
X124520000Y-69235400D03*
%TD*%
D15*
%TO.P,R33,1*%
%TO.N,Net-(Q3-D)*%
X196793900Y-70163400D03*
D16*
%TO.P,R33,2*%
%TO.N,Net-(Q21-CATHODE_3)*%
X199333900Y-70163400D03*
%TD*%
D15*
%TO.P,R51,1*%
%TO.N,OUTPUT4*%
X127076000Y-94602500D03*
D16*
%TO.P,R51,2*%
%TO.N,GND*%
X124536000Y-94602500D03*
%TD*%
D21*
%TO.P,J2,1,Pin_1*%
%TO.N,SWMISO*%
X225222200Y-121547800D03*
D22*
%TO.P,J2,2,Pin_2*%
%TO.N,RTDMISO*%
X225222200Y-124087800D03*
%TO.P,J2,3,Pin_3*%
%TO.N,MISO*%
X225222200Y-126627800D03*
%TD*%
D19*
%TO.P,Q9,1*%
%TO.N,Net-(Q9-Pad1)*%
X137948300Y-63140700D03*
D20*
%TO.P,Q9,2*%
%TO.N,Sense2-6*%
X137948300Y-65680700D03*
%TO.P,Q9,3*%
%TO.N,+VDC*%
X137948300Y-68220700D03*
%TD*%
D15*
%TO.P,C12,1*%
%TO.N,Net-(IC3-OSC1)*%
X189137100Y-125299700D03*
%TO.P,C12,2*%
%TO.N,GND*%
X189137100Y-130299700D03*
%TD*%
%TO.P,R35,1*%
%TO.N,Net-(Q4-D)*%
X196591000Y-79208600D03*
D16*
%TO.P,R35,2*%
%TO.N,Net-(Q21-CATHODE_4)*%
X199131000Y-79208600D03*
%TD*%
D15*
%TO.P,R10,1*%
%TO.N,Net-(Q2-G)*%
X207911500Y-60975100D03*
D16*
%TO.P,R10,2*%
%TO.N,GND*%
X210451500Y-60975100D03*
%TD*%
D36*
%TO.P,Y1,1,1*%
%TO.N,Net-(IC3-OSC2)*%
X194174500Y-121903800D03*
%TO.P,Y1,2,2*%
%TO.N,Net-(IC3-OSC1)*%
X194174500Y-126783800D03*
%TD*%
D21*
%TO.P,T6,1,Pin_1*%
%TO.N,+5V*%
X155695300Y-141069100D03*
D22*
%TO.P,T6,2,Pin_2*%
%TO.N,GND*%
X158235300Y-141069100D03*
%TO.P,T6,3,Pin_3*%
%TO.N,unconnected-(T6-Pin_3-Pad3)*%
X160775300Y-141069100D03*
%TO.P,T6,4,Pin_4*%
%TO.N,RTDSCLK*%
X163315300Y-141069100D03*
%TO.P,T6,5,Pin_5*%
%TO.N,RTDMISO*%
X165855300Y-141069100D03*
%TO.P,T6,6,Pin_6*%
%TO.N,RTDMOSI*%
X168395300Y-141069100D03*
%TO.P,T6,7,Pin_7*%
%TO.N,CarbCS*%
X170935300Y-141069100D03*
%TO.P,T6,8,Pin_8*%
%TO.N,unconnected-(T6-Pin_8-Pad8)*%
X173475300Y-141069100D03*
%TD*%
D15*
%TO.P,C13,1*%
%TO.N,Sense1-10*%
X189408500Y-54575100D03*
%TO.P,C13,2*%
%TO.N,GND*%
X189408500Y-49575100D03*
%TD*%
D29*
%TO.P,IC3,1,TXCAN*%
%TO.N,Net-(IC2-TXD)*%
X199102200Y-121409100D03*
%TO.P,IC3,2,RXCAN*%
%TO.N,Net-(IC2-RXD)*%
X199102200Y-122679100D03*
%TO.P,IC3,3,CLKO/SOF*%
%TO.N,unconnected-(IC3-CLKO{slash}SOF-Pad3)*%
X199102200Y-123949100D03*
%TO.P,IC3,4,~{INT}*%
%TO.N,/CAN Bus/CAN_INT*%
X199102200Y-125219100D03*
%TO.P,IC3,5,OSC2*%
%TO.N,Net-(IC3-OSC2)*%
X199102200Y-126489100D03*
%TO.P,IC3,6,OSC1*%
%TO.N,Net-(IC3-OSC1)*%
X199102200Y-127759100D03*
%TO.P,IC3,7,VSS*%
%TO.N,GND*%
X199102200Y-129029100D03*
%TO.P,IC3,8,~{INT1}/GPIO1*%
%TO.N,unconnected-(IC3-~{INT1}{slash}GPIO1-Pad8)*%
X204502200Y-129029100D03*
%TO.P,IC3,9,~{INT0}/GPIO0/XSTBY*%
%TO.N,unconnected-(IC3-~{INT0}{slash}GPIO0{slash}XSTBY-Pad9)*%
X204502200Y-127759100D03*
%TO.P,IC3,10,SCK*%
%TO.N,SCLK*%
X204502200Y-126489100D03*
%TO.P,IC3,11,SDI*%
%TO.N,MISO*%
X204502200Y-125219100D03*
%TO.P,IC3,12,SDO*%
%TO.N,MOSI*%
X204502200Y-123949100D03*
%TO.P,IC3,13,NCS*%
%TO.N,CANCS*%
X204502200Y-122679100D03*
%TO.P,IC3,14,VDD*%
%TO.N,+5V*%
X204502200Y-121409100D03*
%TD*%
D30*
%TO.P,C37,1*%
%TO.N,Net-(IC17-C1+)*%
X105777600Y-115358800D03*
D15*
%TO.P,C37,2*%
%TO.N,Net-(IC17-C1-)*%
X105777600Y-112858800D03*
%TD*%
%TO.P,C7,1*%
%TO.N,Sense2-1*%
X190228600Y-80541100D03*
%TO.P,C7,2*%
%TO.N,GND*%
X190228600Y-75541100D03*
%TD*%
%TO.P,R7,1*%
%TO.N,GND*%
X107730800Y-145972500D03*
D16*
%TO.P,R7,2*%
%TO.N,FuelPressure2*%
X107730800Y-143432500D03*
%TD*%
D19*
%TO.P,Q10,1*%
%TO.N,Net-(Q10-Pad1)*%
X147788500Y-56671400D03*
D20*
%TO.P,Q10,2*%
%TO.N,Sense2-11*%
X147788500Y-54131400D03*
%TO.P,Q10,3*%
%TO.N,+VDC*%
X147788500Y-51591400D03*
%TD*%
D19*
%TO.P,Q18,1*%
%TO.N,Net-(Q18-Pad1)*%
X147835600Y-79770000D03*
D20*
%TO.P,Q18,2*%
%TO.N,Sense2-5*%
X147835600Y-77230000D03*
%TO.P,Q18,3*%
%TO.N,+VDC*%
X147835600Y-74690000D03*
%TD*%
D15*
%TO.P,R57,1*%
%TO.N,OUTPUT1*%
X127106300Y-58571900D03*
D16*
%TO.P,R57,2*%
%TO.N,GND*%
X124566300Y-58571900D03*
%TD*%
D24*
%TO.P,Z2,1*%
%TO.N,+VDC*%
X162908500Y-49269700D03*
D25*
%TO.P,Z2,2*%
%TO.N,Net-(Q10-Pad1)*%
X152208500Y-49269700D03*
%TD*%
D24*
%TO.P,Z6,1*%
%TO.N,+VDC*%
X162908500Y-54465700D03*
D25*
%TO.P,Z6,2*%
%TO.N,Net-(Q18-Pad1)*%
X152208500Y-54465700D03*
%TD*%
D24*
%TO.P,Z4,1*%
%TO.N,+VDC*%
X162908500Y-51902100D03*
D25*
%TO.P,Z4,2*%
%TO.N,Net-(Q14-Pad1)*%
X152208500Y-51902100D03*
%TD*%
D37*
%TO.N,+5V*%
X104935700Y-135578100D03*
X202200900Y-109766300D03*
%TO.N,GPSTX*%
X122828200Y-104032900D03*
D38*
%TO.N,SDA*%
X159332362Y-107700799D03*
D37*
%TO.N,AmbientCS*%
X220013700Y-91572200D03*
%TO.N,CANCS*%
X203187900Y-122779100D03*
%TO.N,Sense2-10*%
X161385400Y-66733900D03*
%TO.N,Sense1-3*%
X151006500Y-111951400D03*
%TO.N,Sense1-11*%
X147192400Y-110379600D03*
%TO.N,SDCS*%
X197158200Y-105037600D03*
%TO.N,OUTPUTLED2*%
X143685700Y-108765000D03*
%TO.N,Sense1-6*%
X142495600Y-128575800D03*
%TO.N,Sense1-9*%
X146826200Y-113708400D03*
%TO.N,Sense1-12*%
X146406800Y-112656500D03*
%TO.N,Sense1-8*%
X148468000Y-109754500D03*
%TD*%
D39*
%TO.N,GND*%
X231807500Y-69322400D02*
X231807500Y-68522400D01*
X120309600Y-145349000D02*
X116816400Y-145349000D01*
D40*
X91032600Y-58096800D02*
X91032600Y-59318500D01*
D39*
X196756500Y-130299700D02*
X198027100Y-129029100D01*
X111597700Y-135578100D02*
X112672800Y-135578100D01*
X161946000Y-143971900D02*
X178021100Y-143971900D01*
X115719600Y-137341200D02*
X116863700Y-136197100D01*
D40*
X91032600Y-59318500D02*
X84534800Y-65816300D01*
D39*
X123492400Y-149051900D02*
X123492400Y-148531800D01*
X141650500Y-126279000D02*
X140514400Y-127415100D01*
X230892300Y-69932300D02*
X231082400Y-70122400D01*
X191975500Y-86611400D02*
X191975500Y-85780400D01*
X124681100Y-149051900D02*
X123492400Y-149051900D01*
X212897400Y-68857200D02*
X212897400Y-69932300D01*
X231807500Y-68522400D02*
X231807500Y-67722400D01*
X112672800Y-135578100D02*
X112672800Y-136146900D01*
X193150600Y-85780400D02*
X191975500Y-85780400D01*
X136147600Y-124931600D02*
X136147600Y-123003800D01*
X212897400Y-69932300D02*
X230892300Y-69932300D01*
X191348500Y-107226300D02*
X198068100Y-107226300D01*
X113867100Y-137341200D02*
X115719600Y-137341200D01*
X159410400Y-141436300D02*
X161946000Y-143971900D01*
X138631100Y-127415100D02*
X136147600Y-124931600D01*
X182516000Y-88550600D02*
X190036300Y-88550600D01*
X135072500Y-123003800D02*
X136147600Y-123003800D01*
D40*
X93940100Y-61004300D02*
X119697600Y-61004300D01*
D39*
X159410400Y-141069100D02*
X159410400Y-141436300D01*
X140514400Y-127415100D02*
X138631100Y-127415100D01*
X112672800Y-136146900D02*
X113867100Y-137341200D01*
X199102200Y-129029100D02*
X198027100Y-129029100D01*
X231807500Y-70122400D02*
X231082400Y-70122400D01*
X158235300Y-141069100D02*
X159410400Y-141069100D01*
X182516000Y-91600800D02*
X182516000Y-88550600D01*
X182182800Y-88283100D02*
X182182800Y-88550600D01*
D40*
X91032600Y-58096800D02*
X93940100Y-61004300D01*
D39*
X189137100Y-130299700D02*
X196756500Y-130299700D01*
X231807500Y-70122400D02*
X231807500Y-69322400D01*
X190036300Y-88550600D02*
X191975500Y-86611400D01*
X190024500Y-108550300D02*
X191348500Y-107226300D01*
X123492400Y-148531800D02*
X120309600Y-145349000D01*
X182182800Y-88550600D02*
X182516000Y-88550600D01*
%TO.N,+5V*%
X202393000Y-109766300D02*
X202200900Y-109766300D01*
X106197700Y-135578100D02*
X105122600Y-135578100D01*
X130747600Y-123003800D02*
X130747600Y-109093100D01*
X204543200Y-111690700D02*
X204543200Y-109766300D01*
X132141000Y-106524600D02*
X132141000Y-107699700D01*
X203468100Y-109766300D02*
X204543200Y-109766300D01*
X198068100Y-108496300D02*
X196993000Y-108496300D01*
X203468100Y-109766300D02*
X202393000Y-109766300D01*
X205924100Y-121755900D02*
X205577300Y-121409100D01*
X129672500Y-123003800D02*
X130747600Y-123003800D01*
X130747600Y-109093100D02*
X132141000Y-107699700D01*
X105122600Y-135578100D02*
X104935700Y-135578100D01*
X196939000Y-108550300D02*
X196993000Y-108496300D01*
X204502200Y-121409100D02*
X205577300Y-121409100D01*
X204543200Y-111690700D02*
X226581200Y-111690700D01*
X207963000Y-121755900D02*
X205924100Y-121755900D01*
X195024500Y-108550300D02*
X196939000Y-108550300D01*
X204543200Y-118234800D02*
X204543200Y-111690700D01*
X111127100Y-123003800D02*
X129672500Y-123003800D01*
X109607000Y-121483700D02*
X111127100Y-123003800D01*
%TO.N,Net-(IC3-OSC2)*%
X198027100Y-126489100D02*
X198027100Y-125756400D01*
X198027100Y-125756400D02*
X194174500Y-121903800D01*
X199102200Y-126489100D02*
X198027100Y-126489100D01*
%TO.N,+VDC*%
X133270100Y-69285400D02*
X133270000Y-69285400D01*
D41*
X135163000Y-79770000D02*
X133016500Y-81916800D01*
D40*
X137948300Y-68220700D02*
X141366000Y-68220700D01*
D41*
X137948000Y-79770000D02*
X135163000Y-79770000D01*
X132041000Y-56829900D02*
X130663000Y-55452600D01*
X129245000Y-61361800D02*
X132041000Y-58566000D01*
D40*
X143028000Y-51591400D02*
X137948000Y-56671400D01*
D41*
X132301000Y-82632400D02*
X129453000Y-85479800D01*
X124431000Y-72953300D02*
X129602000Y-72953300D01*
X132041000Y-58566000D02*
X133935000Y-56671400D01*
D40*
X78250100Y-86700700D02*
X87786800Y-96237500D01*
X143028000Y-61567800D02*
X143028000Y-69882700D01*
D41*
X129602000Y-72953300D02*
X132450000Y-70105300D01*
D40*
X143028000Y-86239200D02*
X143028000Y-74690000D01*
X141366000Y-68220700D02*
X143028000Y-69882700D01*
X85030500Y-79920200D02*
X93303400Y-79920200D01*
X133030000Y-96237500D02*
X137948000Y-91319200D01*
D41*
X134335000Y-68220700D02*
X137948000Y-68220700D01*
D40*
X162908000Y-50568700D02*
X162908000Y-49269700D01*
X144601000Y-63140700D02*
X143028000Y-61567800D01*
D41*
X124470000Y-61361800D02*
X129245000Y-61361800D01*
X133016500Y-81916800D02*
X132301000Y-82632400D01*
D40*
X143028000Y-51591400D02*
X143028000Y-61567800D01*
X162908000Y-54465700D02*
X162908000Y-53166700D01*
X147788000Y-51591400D02*
X143028000Y-51591400D01*
D39*
X133270000Y-69285400D02*
X132450100Y-70105300D01*
D40*
X87786800Y-96237500D02*
X133030000Y-96237500D01*
X143028000Y-69882700D02*
X143028000Y-74690000D01*
X84521500Y-77164000D02*
X84521500Y-80429200D01*
D39*
X162908500Y-53167200D02*
X162908500Y-54465700D01*
D40*
X84521500Y-80429200D02*
X85030500Y-79920200D01*
D39*
X133016500Y-81916800D02*
X132300900Y-82632400D01*
D41*
X130663000Y-55452600D02*
X124507000Y-49296100D01*
D40*
X162908000Y-53166700D02*
X162908000Y-51902100D01*
X147835600Y-63140700D02*
X144601000Y-63140700D01*
D41*
X132450000Y-70105300D02*
X133270100Y-69285400D01*
D40*
X143028000Y-69882700D02*
X147835800Y-74689800D01*
X84521500Y-80429200D02*
X78250100Y-86700700D01*
D39*
X162908500Y-50568200D02*
X162908500Y-49269700D01*
D41*
X133935000Y-56671400D02*
X137948000Y-56671400D01*
D40*
X137948200Y-91319000D02*
X143028000Y-86239200D01*
D41*
X132041000Y-58566000D02*
X132041000Y-56829900D01*
X133270100Y-69285400D02*
X134335000Y-68220700D01*
D39*
X162908000Y-53166700D02*
X162908500Y-53167200D01*
X162908000Y-50568700D02*
X162908500Y-50568200D01*
D40*
X162908000Y-51902100D02*
X162908000Y-50568700D01*
X143028000Y-74690000D02*
X137948200Y-79769800D01*
D41*
X129453000Y-85479800D02*
X124380000Y-85479800D01*
D39*
%TO.N,Net-(IC3-OSC1)*%
X199102200Y-127759100D02*
X195149800Y-127759100D01*
X195149800Y-127759100D02*
X194174500Y-126783800D01*
%TO.N,CAN_TX_STBY*%
X202135500Y-102214500D02*
X202135500Y-103339600D01*
X202393000Y-105956300D02*
X202393000Y-103597100D01*
X202393000Y-103597100D02*
X202135500Y-103339600D01*
X203468100Y-105956300D02*
X202393000Y-105956300D01*
D40*
%TO.N,Net-(#FLG0103-pwr)*%
X91965600Y-70063700D02*
X93319000Y-68710400D01*
X82544300Y-70063700D02*
X91965600Y-70063700D01*
X78250100Y-65769400D02*
X82544300Y-70063700D01*
X78250100Y-64100700D02*
X78250100Y-65769400D01*
D39*
%TO.N,FuelPressure3*%
X111060200Y-141007700D02*
X114276400Y-144223900D01*
X111060200Y-139388100D02*
X110522600Y-139388100D01*
X111060200Y-139388100D02*
X111060200Y-141007700D01*
X114276400Y-145349000D02*
X114276400Y-144223900D01*
X111597700Y-138118100D02*
X110522600Y-138118100D01*
X110522600Y-138118100D02*
X110522600Y-139388100D01*
%TO.N,SpareADC1*%
X128597400Y-126813800D02*
X128597400Y-125543800D01*
X125883000Y-130065800D02*
X125291400Y-130065800D01*
X125291400Y-131190900D02*
X125291400Y-130065800D01*
X129672500Y-125543800D02*
X128597400Y-125543800D01*
X129135000Y-126813800D02*
X125883000Y-130065800D01*
X129135000Y-126813800D02*
X128597400Y-126813800D01*
%TO.N,SCLK*%
X203427100Y-126489100D02*
X192764800Y-137151400D01*
X179209800Y-141062400D02*
X179209800Y-141431900D01*
X206957100Y-127868900D02*
X232106000Y-127868900D01*
X234522200Y-126627800D02*
X233347100Y-126627800D01*
X205577300Y-126489100D02*
X206957100Y-127868900D01*
X204927200Y-126489100D02*
X205577300Y-126489100D01*
X180110300Y-140161900D02*
X179209800Y-141062400D01*
X181761300Y-140161900D02*
X180110300Y-140161900D01*
X184771800Y-137151400D02*
X181761300Y-140161900D01*
X192764800Y-137151400D02*
X184771800Y-137151400D01*
X178021100Y-141431900D02*
X179209800Y-141431900D01*
X232106000Y-127868900D02*
X233347100Y-126627800D01*
X204502200Y-126489100D02*
X203427100Y-126489100D01*
%TO.N,MOSI*%
X222781600Y-125357800D02*
X227427100Y-125357800D01*
X229872200Y-126627800D02*
X228697100Y-126627800D01*
X227427100Y-125357800D02*
X228697100Y-126627800D01*
X204502200Y-123949100D02*
X205577300Y-123949100D01*
X205577300Y-123949100D02*
X206056000Y-123470400D01*
X206056000Y-123470400D02*
X220894200Y-123470400D01*
X220894200Y-123470400D02*
X222781600Y-125357800D01*
%TO.N,MISO*%
X223678200Y-126996700D02*
X224047100Y-126627800D01*
X205577300Y-125219100D02*
X207354900Y-126996700D01*
X207354900Y-126996700D02*
X223678200Y-126996700D01*
X204502200Y-125219100D02*
X205577300Y-125219100D01*
X225222200Y-126627800D02*
X224047100Y-126627800D01*
%TO.N,GPSTX*%
X100820200Y-105504000D02*
X107800300Y-105504000D01*
X84911900Y-105558400D02*
X85719900Y-104750400D01*
X108483700Y-104820600D02*
X122040500Y-104820600D01*
X107800300Y-105504000D02*
X108483700Y-104820600D01*
X84911900Y-105925600D02*
X84911900Y-105558400D01*
X85719900Y-104750400D02*
X100066600Y-104750400D01*
X122040500Y-104820600D02*
X122828200Y-104032900D01*
X100066600Y-104750400D02*
X100820200Y-105504000D01*
X83736800Y-105925600D02*
X84911900Y-105925600D01*
%TO.N,FuelPressure2*%
X106197700Y-138118100D02*
X107272800Y-138118100D01*
X106846600Y-139388100D02*
X106846600Y-141423200D01*
X106846600Y-141423200D02*
X107730800Y-142307400D01*
X107730800Y-143432500D02*
X107730800Y-142307400D01*
X106735300Y-139388100D02*
X106846600Y-139388100D01*
X107272800Y-138118100D02*
X107272800Y-138961900D01*
X107272800Y-138961900D02*
X106846600Y-139388100D01*
%TO.N,SpareADC2*%
X135072500Y-125543800D02*
X135072500Y-126813800D01*
X141663300Y-127887700D02*
X142784500Y-126766500D01*
X139823800Y-122796800D02*
X139110500Y-122796800D01*
X139110500Y-121671700D02*
X139110500Y-122796800D01*
X142784500Y-125757500D02*
X139823800Y-122796800D01*
X135610100Y-126813800D02*
X136684000Y-127887700D01*
X142784500Y-126766500D02*
X142784500Y-125757500D01*
X136684000Y-127887700D02*
X141663300Y-127887700D01*
%TO.N,FuelPressure1*%
X105122600Y-133038100D02*
X103198800Y-133038100D01*
X103198800Y-133038100D02*
X101125700Y-135111200D01*
X104601100Y-143445500D02*
X103476000Y-143445500D01*
X106197700Y-131768100D02*
X105122600Y-131768100D01*
X105235200Y-133038100D02*
X105122600Y-133038100D01*
X105122600Y-133038100D02*
X105122600Y-131768100D01*
X101125700Y-135111200D02*
X101125700Y-141095200D01*
X106197700Y-133038100D02*
X105235200Y-133038100D01*
X101125700Y-141095200D02*
X103476000Y-143445500D01*
%TO.N,/BufferedADC1/ADCIN4*%
X111597700Y-134308100D02*
X112672800Y-134308100D01*
X114323700Y-136197100D02*
X114323700Y-135072000D01*
X112672800Y-134308100D02*
X113436700Y-135072000D01*
X113436700Y-135072000D02*
X114323700Y-135072000D01*
%TO.N,OilPressure*%
X125291400Y-116744400D02*
X126416500Y-116744400D01*
X129135000Y-119193800D02*
X128597400Y-119193800D01*
X128597400Y-119193800D02*
X126416500Y-117012900D01*
X128597400Y-120463800D02*
X128597400Y-119193800D01*
X126416500Y-117012900D02*
X126416500Y-116744400D01*
X129672500Y-120463800D02*
X128597400Y-120463800D01*
D42*
%TO.N,SCL*%
X148139219Y-118644900D02*
X137221000Y-107726681D01*
X137221000Y-107726681D02*
X137221000Y-106524600D01*
X137221000Y-106524600D02*
X133239100Y-102542700D01*
X104587900Y-102542700D02*
X102837100Y-100791900D01*
X133239100Y-102542700D02*
X104587900Y-102542700D01*
X165758700Y-113941500D02*
X161055300Y-118644900D01*
X161055300Y-118644900D02*
X148139219Y-118644900D01*
D39*
%TO.N,Logging*%
X233407500Y-70319800D02*
X233407500Y-70122400D01*
X227197500Y-76529800D02*
X233407500Y-70319800D01*
%TO.N,SpareADC3*%
X135610100Y-119193800D02*
X136147600Y-119193800D01*
X136147600Y-119193800D02*
X136147600Y-118988900D01*
X139110500Y-117151100D02*
X137985400Y-117151100D01*
X136147600Y-119731300D02*
X136147600Y-120463800D01*
X135072500Y-120463800D02*
X136147600Y-120463800D01*
X135610100Y-119193800D02*
X136147600Y-119731300D01*
X136147600Y-118988900D02*
X137985400Y-117151100D01*
%TO.N,Net-(IC2-TXD)*%
X198027100Y-121409100D02*
X198027100Y-113056000D01*
X198027100Y-113056000D02*
X199143200Y-111939900D01*
X198068100Y-105956300D02*
X199143200Y-105956300D01*
X199102200Y-121409100D02*
X198027100Y-121409100D01*
X199143200Y-111939900D02*
X199143200Y-105956300D01*
%TO.N,Net-(IC2-RXD)*%
X196993000Y-121645000D02*
X196993000Y-109766300D01*
X198068100Y-109766300D02*
X196993000Y-109766300D01*
X199102200Y-122679100D02*
X198027100Y-122679100D01*
X198027100Y-122679100D02*
X196993000Y-121645000D01*
%TO.N,IN3TTL*%
X232682400Y-70370700D02*
X232682400Y-69322400D01*
X233407500Y-69322400D02*
X232682400Y-69322400D01*
X227102800Y-71449800D02*
X231603300Y-71449800D01*
X231603300Y-71449800D02*
X232682400Y-70370700D01*
%TO.N,IN2TTL*%
X227102800Y-66369800D02*
X231546100Y-66369800D01*
X233407500Y-68522400D02*
X232682400Y-68522400D01*
X232682400Y-67506100D02*
X232682400Y-68522400D01*
X231546100Y-66369800D02*
X232682400Y-67506100D01*
%TO.N,IN1TTL*%
X233407500Y-67594500D02*
X227102800Y-61289800D01*
X233407500Y-67722400D02*
X233407500Y-67594500D01*
%TO.N,Sense1-2*%
X175433800Y-91065700D02*
X181016000Y-91065700D01*
X175433800Y-89981100D02*
X175433800Y-91065700D01*
X174115600Y-87855000D02*
X174115600Y-89030100D01*
X179070500Y-98430400D02*
X175433800Y-94793700D01*
X202393000Y-108496300D02*
X192327100Y-98430400D01*
X174482800Y-89030100D02*
X175433800Y-89981100D01*
X203468100Y-108496300D02*
X202393000Y-108496300D01*
X192327100Y-98430400D02*
X179070500Y-98430400D01*
X174115600Y-89030100D02*
X174482800Y-89030100D01*
X175433800Y-94793700D02*
X175433800Y-91065700D01*
X181016000Y-91600800D02*
X181016000Y-91065700D01*
%TO.N,/CAN Bus/CAN_INT*%
X203783000Y-120578000D02*
X208433100Y-120578000D01*
X199102200Y-125219100D02*
X200177300Y-125219100D01*
X200177300Y-125219100D02*
X200177300Y-124183700D01*
X210503000Y-121755900D02*
X209377900Y-121755900D01*
X208433100Y-120578000D02*
X209377900Y-121522800D01*
X200177300Y-124183700D02*
X203783000Y-120578000D01*
X209377900Y-121522800D02*
X209377900Y-121755900D01*
%TO.N,CANCS*%
X203327100Y-122779100D02*
X203427100Y-122679100D01*
X203187900Y-122779100D02*
X203327100Y-122779100D01*
X204502200Y-122679100D02*
X203427100Y-122679100D01*
%TO.N,VoltageSensor*%
X108038900Y-129284400D02*
X102406800Y-129284400D01*
X110522600Y-131768100D02*
X110522600Y-133038100D01*
X110635200Y-131768100D02*
X110522600Y-131768100D01*
X110522600Y-131768100D02*
X108038900Y-129284400D01*
X111597700Y-133038100D02*
X110522600Y-133038100D01*
X111597700Y-131768100D02*
X110635200Y-131768100D01*
%TO.N,Sense2-4*%
X139110500Y-126279000D02*
X139110500Y-125153900D01*
X136147600Y-122191000D02*
X139110500Y-125153900D01*
X135072500Y-121733800D02*
X136147600Y-121733800D01*
X136147600Y-121733800D02*
X136147600Y-122191000D01*
%TO.N,Sense2-7*%
X135072500Y-124273800D02*
X133997400Y-124273800D01*
X133997400Y-124273800D02*
X133997400Y-127276600D01*
X133997400Y-127276600D02*
X137593500Y-130872700D01*
X137593500Y-130872700D02*
X139110500Y-130872700D01*
%TO.N,Sense2-10*%
X125291400Y-126260600D02*
X126416500Y-126260600D01*
X129672500Y-124273800D02*
X128403300Y-124273800D01*
X128403300Y-124273800D02*
X126416500Y-126260600D01*
%TO.N,Sense1-3*%
X129672500Y-121733800D02*
X126470100Y-121733800D01*
X125291400Y-121680200D02*
X126416500Y-121680200D01*
X126470100Y-121733800D02*
X126416500Y-121680200D01*
%TO.N,Net-(Q9-Pad1)*%
X136059200Y-62251200D02*
X135169800Y-61361800D01*
D41*
X132887000Y-63644300D02*
X135170000Y-61361800D01*
D39*
X136059400Y-62251200D02*
X136059200Y-62251200D01*
D41*
X136949000Y-63140700D02*
X136059400Y-62251200D01*
X132887000Y-63907800D02*
X132887000Y-63644300D01*
X134581000Y-59669300D02*
X134581000Y-60772600D01*
D39*
X134580600Y-59668900D02*
X134580600Y-58566000D01*
D41*
X134581000Y-60772600D02*
X135170000Y-61361800D01*
X137948000Y-63140700D02*
X136949000Y-63140700D01*
X134581000Y-58566000D02*
X134581000Y-59669300D01*
X136059400Y-62251200D02*
X135170000Y-61361800D01*
D39*
X134581000Y-59669300D02*
X134580600Y-59668900D01*
D41*
%TO.N,Net-(Q10-Pad1)*%
X149266000Y-55193900D02*
X147788300Y-56671200D01*
X152208000Y-49269700D02*
X149266000Y-52212200D01*
X149266000Y-52212200D02*
X149266000Y-55193900D01*
D39*
%TO.N,Net-(Q13-Pad1)*%
X132330700Y-76592300D02*
X132330700Y-77430500D01*
D41*
X132331000Y-77430500D02*
X132331000Y-76592000D01*
X132331000Y-75753500D02*
X135131000Y-72953300D01*
D39*
X132331000Y-76592000D02*
X132330700Y-76592300D01*
D41*
X136212000Y-72953300D02*
X137948000Y-74690000D01*
X135131000Y-72953300D02*
X135131000Y-70246100D01*
X135131000Y-72953300D02*
X136212000Y-72953300D01*
X132331000Y-76592000D02*
X132331000Y-75753500D01*
%TO.N,Net-(Q14-Pad1)*%
X151116000Y-64940300D02*
X147836000Y-68220700D01*
X151116000Y-52994600D02*
X151116000Y-64940300D01*
X152208000Y-51902100D02*
X151116000Y-52994600D01*
%TO.N,Net-(Q17-Pad1)*%
X135080000Y-85479800D02*
X135080000Y-85917400D01*
X135080000Y-85917400D02*
X132691100Y-88305900D01*
X137189000Y-85479800D02*
X137948000Y-86239200D01*
X135080000Y-85479800D02*
X135080000Y-82871100D01*
X135080000Y-85479800D02*
X137189000Y-85479800D01*
%TO.N,Net-(Q18-Pad1)*%
X152061000Y-54613500D02*
X152061000Y-75544900D01*
X152061000Y-75544900D02*
X147836000Y-79770000D01*
%TO.N,Net-(Q20-Pad1)*%
X137398000Y-51591400D02*
X135103000Y-49296100D01*
D39*
X133203000Y-54120000D02*
X133203300Y-54120300D01*
X133203300Y-54120300D02*
X133203300Y-55452600D01*
D41*
X133203000Y-52787500D02*
X132753300Y-52337800D01*
X133203000Y-54120000D02*
X133203000Y-52787500D01*
X133203000Y-55452600D02*
X133203000Y-54120000D01*
X132753000Y-52337500D02*
X132753000Y-51645800D01*
X132753000Y-51645800D02*
X135103000Y-49296100D01*
D39*
%TO.N,Net-(Q16-D)*%
X164988100Y-85255900D02*
X166589500Y-86857300D01*
X162143700Y-85255900D02*
X164988100Y-85255900D01*
X166589500Y-86857300D02*
X166589500Y-87090400D01*
X167714600Y-87090400D02*
X166589500Y-87090400D01*
%TO.N,Sense1-6*%
X112672800Y-138099700D02*
X114132700Y-139559600D01*
X114132700Y-140684700D02*
X114132700Y-139559600D01*
X111597700Y-136848100D02*
X112672800Y-136848100D01*
X112672800Y-136848100D02*
X112672800Y-138099700D01*
%TO.N,Sense1-9*%
X103030100Y-138940600D02*
X102303400Y-138940600D01*
X105122600Y-136848100D02*
X103030100Y-138940600D01*
X102303400Y-140065700D02*
X102303400Y-138940600D01*
X106197700Y-136848100D02*
X105122600Y-136848100D01*
%TO.N,Sense1-12*%
X102446600Y-135387200D02*
X103571700Y-135387200D01*
X104650800Y-134308100D02*
X103571700Y-135387200D01*
X106197700Y-134308100D02*
X104650800Y-134308100D01*
%TO.N,Sense1-5*%
X180682800Y-88818200D02*
X181845100Y-89980500D01*
X181845100Y-92023400D02*
X179631000Y-94237500D01*
X187302600Y-92135900D02*
X181957600Y-92135900D01*
X181845100Y-89980500D02*
X181845100Y-92023400D01*
X203468100Y-107226300D02*
X202393000Y-107226300D01*
X202393000Y-107226300D02*
X187302600Y-92135900D01*
X179631000Y-94237500D02*
X176540700Y-94237500D01*
X181957600Y-92135900D02*
X181845100Y-92023400D01*
X180682800Y-88283100D02*
X180682800Y-88818200D01*
D40*
%TO.N,Net-(Q22-Pad1)*%
X90439600Y-87864000D02*
X93303400Y-85000200D01*
X96850700Y-86549200D02*
X96850700Y-85987600D01*
X96850700Y-85987600D02*
X99407100Y-83431200D01*
X93303400Y-85000200D02*
X95301700Y-85000200D01*
X84521500Y-87864000D02*
X90439600Y-87864000D01*
X95301700Y-85000200D02*
X96850700Y-86549200D01*
%TD*%
%TA.AperFunction,Conductor*%
%TO.N,Net-(Q9-Pad1)*%
G36*
X134817636Y-59149245D02*
G01*
X134824241Y-59154108D01*
X134826029Y-59162113D01*
X134822123Y-59169325D01*
X134814441Y-59172200D01*
X134267235Y-59172200D01*
X134260455Y-59170035D01*
X134259456Y-59169325D01*
X134214118Y-59137088D01*
X133896796Y-58911466D01*
X133892248Y-58904856D01*
X133893027Y-58896870D01*
X133898769Y-58891264D01*
X133906769Y-58890676D01*
X134817636Y-59149245D01*
G37*
%TD.AperFunction*%
%TD*%
%TA.AperFunction,Conductor*%
%TO.N,+VDC*%
G36*
X146935126Y-72888964D02*
G01*
X148191383Y-73781632D01*
X148503148Y-74003165D01*
X148507263Y-74008429D01*
X148507825Y-74015086D01*
X148504653Y-74020967D01*
X147836324Y-74690690D01*
X147836307Y-74690707D01*
X147166568Y-75359051D01*
X147160687Y-75362224D01*
X147154029Y-75361660D01*
X147148766Y-75357546D01*
X146034829Y-73789386D01*
X146032709Y-73781632D01*
X146036093Y-73774340D01*
X146920077Y-72890228D01*
X146927370Y-72886843D01*
X146935126Y-72888964D01*
G37*
%TD.AperFunction*%
%TD*%
%TA.AperFunction,Conductor*%
%TO.N,SpareADC1*%
G36*
X129663937Y-126812877D02*
G01*
X129671143Y-126815576D01*
X129675114Y-126822168D01*
X129739258Y-127127393D01*
X129737618Y-127136175D01*
X129730258Y-127141240D01*
X128787301Y-127343165D01*
X128781537Y-127342945D01*
X128776578Y-127339997D01*
X128611954Y-127175373D01*
X128608536Y-127167556D01*
X128611334Y-127159497D01*
X128918890Y-126799865D01*
X128923010Y-126796787D01*
X128928052Y-126795773D01*
X129663937Y-126812877D01*
G37*
%TD.AperFunction*%
%TD*%
%TA.AperFunction,Conductor*%
%TO.N,GND*%
G36*
X231412613Y-69900269D02*
G01*
X231727364Y-70076874D01*
X231790314Y-70112196D01*
X231795567Y-70118353D01*
X231795567Y-70126447D01*
X231790314Y-70132604D01*
X231412616Y-70344529D01*
X231407435Y-70346012D01*
X231402139Y-70345017D01*
X231189448Y-70250488D01*
X231184390Y-70246171D01*
X231182500Y-70239796D01*
X231182500Y-70005004D01*
X231184390Y-69998629D01*
X231189448Y-69994312D01*
X231189447Y-69994312D01*
X231402141Y-69899781D01*
X231407435Y-69898787D01*
X231412613Y-69900269D01*
G37*
%TD.AperFunction*%
%TD*%
%TA.AperFunction,Conductor*%
%TO.N,MISO*%
G36*
X205257388Y-124897293D02*
G01*
X205571632Y-125090674D01*
X205575714Y-125094931D01*
X205577200Y-125100638D01*
X205577200Y-125337562D01*
X205575714Y-125343269D01*
X205571632Y-125347526D01*
X205257388Y-125540906D01*
X205252093Y-125542612D01*
X205246609Y-125541680D01*
X204526013Y-125229838D01*
X204519827Y-125223521D01*
X204519827Y-125214679D01*
X204526013Y-125208362D01*
X204774938Y-125100638D01*
X205246611Y-124896518D01*
X205252093Y-124895587D01*
X205257388Y-124897293D01*
G37*
%TD.AperFunction*%
%TD*%
%TA.AperFunction,Conductor*%
%TO.N,Net-(Q14-Pad1)*%
G36*
X151686399Y-51685821D02*
G01*
X151725205Y-51701822D01*
X152204704Y-51899537D01*
X152208517Y-51902081D01*
X152211061Y-51905894D01*
X152424776Y-52424196D01*
X152425101Y-52432227D01*
X152420168Y-52438573D01*
X151627746Y-52934690D01*
X151620219Y-52936399D01*
X151613266Y-52933048D01*
X151177328Y-52497310D01*
X151173974Y-52490355D01*
X151175684Y-52482824D01*
X151203402Y-52438573D01*
X151672026Y-51690427D01*
X151678370Y-51685497D01*
X151686399Y-51685821D01*
G37*
%TD.AperFunction*%
%TD*%
%TA.AperFunction,Conductor*%
%TO.N,+VDC*%
G36*
X138863742Y-54871612D02*
G01*
X139747788Y-55755658D01*
X139751174Y-55762951D01*
X139749054Y-55770706D01*
X138635134Y-57338943D01*
X138629870Y-57343059D01*
X138623211Y-57343623D01*
X138617330Y-57340450D01*
X137947593Y-56672107D01*
X137947576Y-56672090D01*
X137279246Y-56002366D01*
X137276074Y-55996486D01*
X137276636Y-55989828D01*
X137280748Y-55984567D01*
X138362462Y-55215875D01*
X138364991Y-55214514D01*
X138467796Y-55174688D01*
X138650654Y-55061467D01*
X138809594Y-54916573D01*
X138838562Y-54878212D01*
X138841110Y-54875736D01*
X138848696Y-54870346D01*
X138856448Y-54868226D01*
X138863742Y-54871612D01*
G37*
%TD.AperFunction*%
%TD*%
%TA.AperFunction,Conductor*%
%TO.N,SpareADC3*%
G36*
X138552340Y-116592922D02*
G01*
X138819335Y-116859250D01*
X139105662Y-117144862D01*
X139108873Y-117150857D01*
X139108206Y-117157627D01*
X138808383Y-117880486D01*
X138802615Y-117886562D01*
X138794262Y-117887224D01*
X137740837Y-117576135D01*
X137735878Y-117573187D01*
X137570302Y-117407611D01*
X137567184Y-117402008D01*
X137567487Y-117395603D01*
X137571117Y-117390323D01*
X138536623Y-116592186D01*
X138544623Y-116589518D01*
X138552340Y-116592922D01*
G37*
%TD.AperFunction*%
%TD*%
%TA.AperFunction,Conductor*%
%TO.N,SCLK*%
G36*
X233928810Y-126034392D02*
G01*
X234517362Y-126621561D01*
X234520573Y-126627557D01*
X234519906Y-126634326D01*
X234200920Y-127403448D01*
X234195189Y-127409507D01*
X234186879Y-127410210D01*
X233067230Y-127088182D01*
X233062191Y-127085211D01*
X232896496Y-126919516D01*
X232893393Y-126913976D01*
X232893640Y-126907632D01*
X232897163Y-126902353D01*
X233912945Y-126033782D01*
X233920996Y-126030984D01*
X233928810Y-126034392D01*
G37*
%TD.AperFunction*%
%TD*%
%TA.AperFunction,Conductor*%
%TO.N,+VDC*%
G36*
X79378919Y-86418928D02*
G01*
X79384467Y-86423591D01*
X79556519Y-86699993D01*
X80226152Y-87775765D01*
X80227843Y-87783283D01*
X80224492Y-87790221D01*
X79339593Y-88675109D01*
X79332660Y-88678459D01*
X79325147Y-88676775D01*
X77978132Y-87840217D01*
X77973472Y-87834697D01*
X77972942Y-87827495D01*
X78247714Y-86706837D01*
X78250782Y-86701374D01*
X78256227Y-86698278D01*
X79371689Y-86418427D01*
X79378919Y-86418928D01*
G37*
%TD.AperFunction*%
%TD*%
%TA.AperFunction,Conductor*%
%TO.N,Net-(Q17-Pad1)*%
G36*
X135627243Y-82632382D02*
G01*
X135633600Y-82634272D01*
X135637911Y-82639317D01*
X135638784Y-82645894D01*
X135399050Y-84174952D01*
X135395096Y-84182031D01*
X135387491Y-84184840D01*
X134769540Y-84184840D01*
X134763508Y-84183165D01*
X134759203Y-84178620D01*
X134489835Y-83670510D01*
X134107813Y-82949898D01*
X134106478Y-82943633D01*
X134108643Y-82937602D01*
X134113660Y-82933616D01*
X134838741Y-82632296D01*
X134843236Y-82631402D01*
X135627243Y-82632382D01*
G37*
%TD.AperFunction*%
%TD*%
%TA.AperFunction,Conductor*%
%TO.N,Sense1-12*%
G36*
X103816262Y-134962164D02*
G01*
X103821221Y-134965112D01*
X103986797Y-135130688D01*
X103989915Y-135136291D01*
X103989612Y-135142696D01*
X103985979Y-135147979D01*
X103020477Y-135946112D01*
X103012476Y-135948781D01*
X103004759Y-135945377D01*
X102736915Y-135678203D01*
X102451436Y-135393436D01*
X102448226Y-135387442D01*
X102448892Y-135380674D01*
X102748717Y-134657811D01*
X102754484Y-134651737D01*
X102762835Y-134651075D01*
X103816262Y-134962164D01*
G37*
%TD.AperFunction*%
%TD*%
%TA.AperFunction,Conductor*%
%TO.N,IN2TTL*%
G36*
X233012613Y-68300269D02*
G01*
X233390315Y-68512196D01*
X233395567Y-68518352D01*
X233395567Y-68526446D01*
X233390314Y-68532603D01*
X233012616Y-68744529D01*
X233007435Y-68746012D01*
X233002139Y-68745017D01*
X232789448Y-68650488D01*
X232784390Y-68646171D01*
X232782500Y-68639796D01*
X232782500Y-68405004D01*
X232784390Y-68398629D01*
X232789448Y-68394312D01*
X232789447Y-68394312D01*
X233002141Y-68299781D01*
X233007435Y-68298787D01*
X233012613Y-68300269D01*
G37*
%TD.AperFunction*%
%TD*%
%TA.AperFunction,Conductor*%
%TO.N,Net-(Q9-Pad1)*%
G36*
X134647699Y-61145521D02*
G01*
X134942841Y-61267218D01*
X135166005Y-61359237D01*
X135169818Y-61361781D01*
X135172362Y-61365594D01*
X135386077Y-61883898D01*
X135386402Y-61891928D01*
X135381470Y-61898274D01*
X134589028Y-62394556D01*
X134581499Y-62396265D01*
X134574544Y-62392912D01*
X134356770Y-62175092D01*
X134138752Y-61957026D01*
X134135402Y-61950074D01*
X134137110Y-61942548D01*
X134633327Y-61150126D01*
X134639670Y-61145197D01*
X134647699Y-61145521D01*
G37*
%TD.AperFunction*%
%TD*%
%TA.AperFunction,Conductor*%
%TO.N,Net-(Q17-Pad1)*%
G36*
X134561203Y-85265048D02*
G01*
X135078139Y-85478199D01*
X135081961Y-85480753D01*
X135478342Y-85878515D01*
X135481751Y-85886492D01*
X135478729Y-85894624D01*
X134791434Y-86654025D01*
X134786160Y-86657369D01*
X134779918Y-86657524D01*
X134774485Y-86654446D01*
X134774064Y-86654025D01*
X134338756Y-86218645D01*
X134335794Y-86213633D01*
X134335615Y-86207814D01*
X134545329Y-85273301D01*
X134548602Y-85267464D01*
X134554543Y-85264375D01*
X134561203Y-85265048D01*
G37*
%TD.AperFunction*%
%TD*%
%TA.AperFunction,Conductor*%
%TO.N,+VDC*%
G36*
X133363065Y-68755491D02*
G01*
X133800026Y-69192534D01*
X133803307Y-69198972D01*
X133802181Y-69206110D01*
X133194104Y-70401810D01*
X133187735Y-70407479D01*
X133179210Y-70407321D01*
X132453887Y-70107862D01*
X132450079Y-70105320D01*
X132447537Y-70101512D01*
X132148079Y-69376190D01*
X132147921Y-69367664D01*
X132153590Y-69361296D01*
X133349491Y-68753332D01*
X133356627Y-68752208D01*
X133363065Y-68755491D01*
G37*
%TD.AperFunction*%
%TD*%
%TA.AperFunction,Conductor*%
%TO.N,GND*%
G36*
X231931271Y-69674290D02*
G01*
X231935588Y-69679348D01*
X232029244Y-69890074D01*
X232030058Y-69896949D01*
X232026843Y-69903081D01*
X231815791Y-70115072D01*
X231810537Y-70118116D01*
X231804463Y-70118116D01*
X231799209Y-70115072D01*
X231588156Y-69903081D01*
X231584941Y-69896949D01*
X231585754Y-69890077D01*
X231679411Y-69679348D01*
X231683729Y-69674290D01*
X231690104Y-69672400D01*
X231924896Y-69672400D01*
X231931271Y-69674290D01*
G37*
%TD.AperFunction*%
%TD*%
%TA.AperFunction,Conductor*%
%TO.N,Net-(Q13-Pad1)*%
G36*
X136541789Y-72830338D02*
G01*
X138336252Y-73725136D01*
X138341987Y-73731503D01*
X138341843Y-73740073D01*
X137950861Y-74686215D01*
X137948321Y-74690021D01*
X137944515Y-74692561D01*
X136998375Y-75083421D01*
X136989805Y-75083564D01*
X136983437Y-75077826D01*
X136088907Y-73283040D01*
X136087830Y-73275938D01*
X136091105Y-73269548D01*
X136528298Y-72832532D01*
X136534689Y-72829260D01*
X136541789Y-72830338D01*
G37*
%TD.AperFunction*%
%TD*%
%TA.AperFunction,Conductor*%
%TO.N,GND*%
G36*
X91032056Y-58099326D02*
G01*
X91038033Y-58104508D01*
X91665159Y-59221085D01*
X91666637Y-59227508D01*
X91664408Y-59233712D01*
X90724014Y-60522128D01*
X90718741Y-60526159D01*
X90712123Y-60526673D01*
X90706291Y-60523503D01*
X89821299Y-59638511D01*
X89817873Y-59630380D01*
X89804483Y-58512440D01*
X89806654Y-58505511D01*
X89812494Y-58501198D01*
X91024148Y-58099132D01*
X91032056Y-58099326D01*
G37*
%TD.AperFunction*%
%TD*%
%TA.AperFunction,Conductor*%
%TO.N,FuelPressure1*%
G36*
X105453289Y-132715518D02*
G01*
X106173886Y-133027362D01*
X106180072Y-133033678D01*
X106180072Y-133042520D01*
X106173886Y-133048837D01*
X105453290Y-133360680D01*
X105447806Y-133361612D01*
X105442511Y-133359906D01*
X105128268Y-133166526D01*
X105124186Y-133162269D01*
X105122700Y-133156562D01*
X105122700Y-132919638D01*
X105124186Y-132913931D01*
X105128268Y-132909674D01*
X105442511Y-132716293D01*
X105447806Y-132714587D01*
X105453289Y-132715518D01*
G37*
%TD.AperFunction*%
%TD*%
%TA.AperFunction,Conductor*%
%TO.N,Net-(Q10-Pad1)*%
G36*
X151686398Y-49053421D02*
G01*
X152204705Y-49267137D01*
X152208518Y-49269681D01*
X152211062Y-49273494D01*
X152424776Y-49791795D01*
X152425100Y-49799827D01*
X152420166Y-49806173D01*
X151627608Y-50302195D01*
X151620081Y-50303902D01*
X151613129Y-50300551D01*
X151177254Y-49864750D01*
X151173900Y-49857794D01*
X151175612Y-49850264D01*
X151207216Y-49799827D01*
X151672025Y-49058024D01*
X151678369Y-49053096D01*
X151686398Y-49053421D01*
G37*
%TD.AperFunction*%
%TD*%
%TA.AperFunction,Conductor*%
%TO.N,+VDC*%
G36*
X79339587Y-84726287D02*
G01*
X80224488Y-85611173D01*
X80227839Y-85618111D01*
X80226148Y-85625629D01*
X79384468Y-86977803D01*
X79378919Y-86982467D01*
X79371688Y-86982968D01*
X78256230Y-86703122D01*
X78250782Y-86700025D01*
X78247714Y-86694560D01*
X77972938Y-85573904D01*
X77973468Y-85566702D01*
X77978126Y-85561183D01*
X79325141Y-84724620D01*
X79332654Y-84722937D01*
X79339587Y-84726287D01*
G37*
%TD.AperFunction*%
%TD*%
%TA.AperFunction,Conductor*%
%TO.N,+VDC*%
G36*
X131311489Y-58263978D02*
G01*
X132036812Y-58563437D01*
X132040620Y-58565979D01*
X132043162Y-58569787D01*
X132342621Y-59295112D01*
X132342779Y-59303637D01*
X132337110Y-59310005D01*
X131141495Y-59918156D01*
X131134357Y-59919283D01*
X131127918Y-59916001D01*
X130690931Y-59478983D01*
X130687649Y-59472546D01*
X130688774Y-59465409D01*
X130770249Y-59305104D01*
X131296596Y-58269492D01*
X131302965Y-58263822D01*
X131311489Y-58263978D01*
G37*
%TD.AperFunction*%
%TD*%
%TA.AperFunction,Conductor*%
%TO.N,Net-(Q22-Pad1)*%
G36*
X97175892Y-84783728D02*
G01*
X98058784Y-85666620D01*
X98061973Y-85672545D01*
X98061371Y-85679247D01*
X97594203Y-86844375D01*
X97590539Y-86849246D01*
X97584923Y-86851614D01*
X97578878Y-86850836D01*
X96852156Y-86550800D01*
X96848338Y-86548248D01*
X96292073Y-85990590D01*
X96288691Y-85983230D01*
X96290899Y-85975438D01*
X97158164Y-84785109D01*
X97163436Y-84781074D01*
X97170057Y-84780558D01*
X97175892Y-84783728D01*
G37*
%TD.AperFunction*%
%TD*%
%TA.AperFunction,Conductor*%
%TO.N,SCLK*%
G36*
X178363167Y-140640804D02*
G01*
X178744309Y-140863476D01*
X179084799Y-141062400D01*
X179084800Y-141062400D01*
X179312010Y-141062400D01*
X179319821Y-141065389D01*
X179323641Y-141072830D01*
X179321517Y-141080919D01*
X178639784Y-142031365D01*
X178634517Y-142035451D01*
X178627874Y-142035997D01*
X178622011Y-142032826D01*
X178026634Y-141438425D01*
X178023426Y-141432435D01*
X178024088Y-141425675D01*
X178346457Y-140646431D01*
X178350570Y-140641313D01*
X178356795Y-140639217D01*
X178363167Y-140640804D01*
G37*
%TD.AperFunction*%
%TD*%
%TA.AperFunction,Conductor*%
%TO.N,+5V*%
G36*
X105249566Y-135363364D02*
G01*
X105527501Y-135450529D01*
X105533430Y-135454767D01*
X105535700Y-135461693D01*
X105535700Y-135694507D01*
X105533430Y-135701433D01*
X105527501Y-135705671D01*
X105060687Y-135852070D01*
X105052250Y-135851514D01*
X105046391Y-135845418D01*
X104936583Y-135582607D01*
X104935680Y-135578100D01*
X104936583Y-135573592D01*
X105046392Y-135310779D01*
X105052250Y-135304685D01*
X105060686Y-135304129D01*
X105249566Y-135363364D01*
G37*
%TD.AperFunction*%
%TD*%
%TA.AperFunction,Conductor*%
%TO.N,Net-(Q9-Pad1)*%
G36*
X133463749Y-62634086D02*
G01*
X133900606Y-63071038D01*
X133903528Y-63075913D01*
X133903808Y-63081590D01*
X133689169Y-64161888D01*
X133685120Y-64168648D01*
X133677703Y-64171308D01*
X132891453Y-64172002D01*
X132886964Y-64171111D01*
X132883160Y-64168565D01*
X132330496Y-63614518D01*
X132327405Y-63608997D01*
X132327641Y-63602674D01*
X132331133Y-63597399D01*
X133447833Y-62633501D01*
X133455906Y-62630667D01*
X133463749Y-62634086D01*
G37*
%TD.AperFunction*%
%TD*%
%TA.AperFunction,Conductor*%
%TO.N,GND*%
G36*
X112352888Y-135256293D02*
G01*
X112667132Y-135449674D01*
X112671214Y-135453931D01*
X112672700Y-135459638D01*
X112672700Y-135696562D01*
X112671214Y-135702269D01*
X112667132Y-135706526D01*
X112352888Y-135899906D01*
X112347593Y-135901612D01*
X112342109Y-135900680D01*
X111621513Y-135588838D01*
X111615327Y-135582521D01*
X111615327Y-135573679D01*
X111621513Y-135567362D01*
X111870438Y-135459638D01*
X112342111Y-135255518D01*
X112347593Y-135254587D01*
X112352888Y-135256293D01*
G37*
%TD.AperFunction*%
%TD*%
%TA.AperFunction,Conductor*%
%TO.N,SpareADC3*%
G36*
X135827688Y-118871993D02*
G01*
X136141932Y-119065374D01*
X136146014Y-119069631D01*
X136147500Y-119075338D01*
X136147500Y-119312262D01*
X136146014Y-119317969D01*
X136141932Y-119322226D01*
X135827688Y-119515606D01*
X135822393Y-119517312D01*
X135816909Y-119516380D01*
X135096313Y-119204538D01*
X135090127Y-119198221D01*
X135090127Y-119189379D01*
X135096313Y-119183062D01*
X135345238Y-119075338D01*
X135816911Y-118871218D01*
X135822393Y-118870287D01*
X135827688Y-118871993D01*
G37*
%TD.AperFunction*%
%TD*%
%TA.AperFunction,Conductor*%
%TO.N,+VDC*%
G36*
X131571787Y-82330377D02*
G01*
X132297112Y-82629837D01*
X132300920Y-82632379D01*
X132303462Y-82636187D01*
X132602920Y-83361509D01*
X132603078Y-83370035D01*
X132597407Y-83376404D01*
X131401515Y-83984379D01*
X131394377Y-83985504D01*
X131387939Y-83982221D01*
X130950984Y-83545173D01*
X130947703Y-83538735D01*
X130948828Y-83531600D01*
X131556896Y-82335887D01*
X131563264Y-82330220D01*
X131571787Y-82330377D01*
G37*
%TD.AperFunction*%
%TD*%
%TA.AperFunction,Conductor*%
%TO.N,Sense2-10*%
G36*
X128928089Y-123951218D02*
G01*
X129076609Y-124015491D01*
X129648686Y-124263062D01*
X129654872Y-124269379D01*
X129654872Y-124278221D01*
X129648686Y-124284538D01*
X128928090Y-124596380D01*
X128922606Y-124597312D01*
X128917311Y-124595606D01*
X128603068Y-124402226D01*
X128598986Y-124397969D01*
X128597500Y-124392262D01*
X128597500Y-124155338D01*
X128598986Y-124149631D01*
X128603068Y-124145374D01*
X128917311Y-123951993D01*
X128922606Y-123950287D01*
X128928089Y-123951218D01*
G37*
%TD.AperFunction*%
%TD*%
%TA.AperFunction,Conductor*%
%TO.N,MISO*%
G36*
X224628809Y-126034391D02*
G01*
X225217362Y-126621561D01*
X225220573Y-126627557D01*
X225219906Y-126634326D01*
X224900930Y-127403425D01*
X224895187Y-127409490D01*
X224886862Y-127410179D01*
X223769475Y-127085925D01*
X223764463Y-127082962D01*
X223598758Y-126917257D01*
X223595655Y-126911717D01*
X223595903Y-126905371D01*
X223599427Y-126900091D01*
X224612945Y-126033779D01*
X224620996Y-126030983D01*
X224628809Y-126034391D01*
G37*
%TD.AperFunction*%
%TD*%
%TA.AperFunction,Conductor*%
%TO.N,Net-(Q22-Pad1)*%
G36*
X94270279Y-84042528D02*
G01*
X95215452Y-84362509D01*
X95221208Y-84366772D01*
X95223400Y-84373591D01*
X95223400Y-85626809D01*
X95221208Y-85633628D01*
X95215452Y-85637890D01*
X94881105Y-85751080D01*
X94270281Y-85957870D01*
X94263871Y-85958182D01*
X94258260Y-85955065D01*
X93917661Y-85614821D01*
X93310684Y-85008475D01*
X93307653Y-85003230D01*
X93307653Y-84997170D01*
X93310684Y-84991924D01*
X94258261Y-84045333D01*
X94263871Y-84042217D01*
X94270279Y-84042528D01*
G37*
%TD.AperFunction*%
%TD*%
%TA.AperFunction,Conductor*%
%TO.N,+5V*%
G36*
X110143542Y-121267922D02*
G01*
X110147188Y-121272845D01*
X110512847Y-122208431D01*
X110513402Y-122215088D01*
X110510223Y-122220963D01*
X110344263Y-122386923D01*
X110338388Y-122390102D01*
X110331731Y-122389547D01*
X109396145Y-122023888D01*
X109391222Y-122020242D01*
X109388816Y-122014608D01*
X109389586Y-122008533D01*
X109604437Y-121487493D01*
X109606981Y-121483681D01*
X109610794Y-121481137D01*
X110131833Y-121266286D01*
X110137908Y-121265516D01*
X110143542Y-121267922D01*
G37*
%TD.AperFunction*%
%TD*%
%TA.AperFunction,Conductor*%
%TO.N,Sense2-10*%
G36*
X126661062Y-125835564D02*
G01*
X126666021Y-125838512D01*
X126831597Y-126004088D01*
X126834715Y-126009691D01*
X126834412Y-126016096D01*
X126830779Y-126021379D01*
X125865277Y-126819512D01*
X125857276Y-126822181D01*
X125849559Y-126818777D01*
X125581715Y-126551603D01*
X125296236Y-126266836D01*
X125293026Y-126260842D01*
X125293692Y-126254074D01*
X125593517Y-125531211D01*
X125599284Y-125525137D01*
X125607635Y-125524475D01*
X126661062Y-125835564D01*
G37*
%TD.AperFunction*%
%TD*%
%TA.AperFunction,Conductor*%
%TO.N,+VDC*%
G36*
X133213723Y-81282513D02*
G01*
X133650758Y-81719486D01*
X133654040Y-81725923D01*
X133652914Y-81733062D01*
X133044904Y-82928908D01*
X133038536Y-82934578D01*
X133030010Y-82934420D01*
X132304687Y-82634962D01*
X132300879Y-82632420D01*
X132298337Y-82628612D01*
X131998877Y-81903287D01*
X131998720Y-81894764D01*
X132004388Y-81888396D01*
X133200150Y-81280358D01*
X133207286Y-81279233D01*
X133213723Y-81282513D01*
G37*
%TD.AperFunction*%
%TD*%
%TA.AperFunction,Conductor*%
%TO.N,GND*%
G36*
X231815789Y-68529725D02*
G01*
X231996557Y-68711297D01*
X232026843Y-68741718D01*
X232030058Y-68747850D01*
X232029244Y-68754725D01*
X231935588Y-68965452D01*
X231931271Y-68970510D01*
X231924896Y-68972400D01*
X231690104Y-68972400D01*
X231683729Y-68970510D01*
X231679412Y-68965452D01*
X231585754Y-68754723D01*
X231584941Y-68747850D01*
X231588155Y-68741719D01*
X231799210Y-68529725D01*
X231804463Y-68526683D01*
X231810537Y-68526683D01*
X231815789Y-68529725D01*
G37*
%TD.AperFunction*%
%TD*%
%TA.AperFunction,Conductor*%
%TO.N,GND*%
G36*
X198357789Y-128706518D02*
G01*
X199078386Y-129018362D01*
X199084572Y-129024678D01*
X199084572Y-129033520D01*
X199078386Y-129039837D01*
X198357790Y-129351680D01*
X198352306Y-129352612D01*
X198347011Y-129350906D01*
X198032768Y-129157526D01*
X198028686Y-129153269D01*
X198027200Y-129147562D01*
X198027200Y-128910638D01*
X198028686Y-128904931D01*
X198032768Y-128900674D01*
X198347011Y-128707293D01*
X198352306Y-128705587D01*
X198357789Y-128706518D01*
G37*
%TD.AperFunction*%
%TD*%
%TA.AperFunction,Conductor*%
%TO.N,+VDC*%
G36*
X137579115Y-67337906D02*
G01*
X137585226Y-67344135D01*
X137947435Y-68216212D01*
X137948330Y-68220700D01*
X137947435Y-68225188D01*
X137585226Y-69097264D01*
X137579115Y-69103493D01*
X137570392Y-69103761D01*
X136035971Y-68541013D01*
X136030408Y-68536727D01*
X136028300Y-68530028D01*
X136028300Y-67911372D01*
X136030408Y-67904673D01*
X136035971Y-67900387D01*
X136582726Y-67699864D01*
X137570393Y-67337638D01*
X137579115Y-67337906D01*
G37*
%TD.AperFunction*%
%TD*%
%TA.AperFunction,Conductor*%
%TO.N,Net-(Q20-Pad1)*%
G36*
X138225289Y-50628807D02*
G01*
X138230950Y-50631761D01*
X138234218Y-50637247D01*
X138234119Y-50643632D01*
X137950405Y-51587453D01*
X137948256Y-51591493D01*
X137944722Y-51594400D01*
X136997741Y-52101315D01*
X136989328Y-52102337D01*
X136982432Y-52097411D01*
X136090214Y-50735229D01*
X136088363Y-50727617D01*
X136091727Y-50720545D01*
X136529579Y-50282751D01*
X136534500Y-50279816D01*
X136540223Y-50279569D01*
X138225289Y-50628807D01*
G37*
%TD.AperFunction*%
%TD*%
%TA.AperFunction,Conductor*%
%TO.N,IN3TTL*%
G36*
X227343350Y-70900312D02*
G01*
X228295834Y-71321718D01*
X228300905Y-71326034D01*
X228302800Y-71332418D01*
X228302800Y-71567182D01*
X228300905Y-71573566D01*
X228295834Y-71577882D01*
X227343350Y-71999287D01*
X227337279Y-72000210D01*
X227331577Y-71997933D01*
X227327814Y-71993081D01*
X227153802Y-71574800D01*
X227103668Y-71454291D01*
X227102771Y-71449800D01*
X227103668Y-71445308D01*
X227327815Y-70906516D01*
X227331577Y-70901666D01*
X227337279Y-70899389D01*
X227343350Y-70900312D01*
G37*
%TD.AperFunction*%
%TD*%
%TA.AperFunction,Conductor*%
%TO.N,+VDC*%
G36*
X163032924Y-53316882D02*
G01*
X163037013Y-53320189D01*
X163477120Y-53882548D01*
X163479585Y-53890463D01*
X163476186Y-53898025D01*
X162916780Y-54458405D01*
X162911531Y-54461439D01*
X162905469Y-54461439D01*
X162900220Y-54458405D01*
X162340813Y-53898025D01*
X162337414Y-53890463D01*
X162339878Y-53882549D01*
X162779986Y-53320189D01*
X162784076Y-53316882D01*
X162789201Y-53315700D01*
X163027799Y-53315700D01*
X163032924Y-53316882D01*
G37*
%TD.AperFunction*%
%TD*%
%TA.AperFunction,Conductor*%
%TO.N,Net-(IC2-TXD)*%
G36*
X198823288Y-105634493D02*
G01*
X199137532Y-105827874D01*
X199141614Y-105832131D01*
X199143100Y-105837838D01*
X199143100Y-106074762D01*
X199141614Y-106080469D01*
X199137532Y-106084726D01*
X198823288Y-106278106D01*
X198817993Y-106279812D01*
X198812509Y-106278880D01*
X198091913Y-105967038D01*
X198085727Y-105960721D01*
X198085727Y-105951879D01*
X198091913Y-105945562D01*
X198340838Y-105837838D01*
X198812511Y-105633718D01*
X198817993Y-105632787D01*
X198823288Y-105634493D01*
G37*
%TD.AperFunction*%
%TD*%
%TA.AperFunction,Conductor*%
%TO.N,+5V*%
G36*
X197323689Y-108173718D02*
G01*
X197472209Y-108237991D01*
X198044286Y-108485562D01*
X198050472Y-108491879D01*
X198050472Y-108500721D01*
X198044286Y-108507038D01*
X197323690Y-108818880D01*
X197318206Y-108819812D01*
X197312911Y-108818106D01*
X196998668Y-108624726D01*
X196994586Y-108620469D01*
X196993100Y-108614762D01*
X196993100Y-108377838D01*
X196994586Y-108372131D01*
X196998668Y-108367874D01*
X197312911Y-108174493D01*
X197318206Y-108172787D01*
X197323689Y-108173718D01*
G37*
%TD.AperFunction*%
%TD*%
%TA.AperFunction,Conductor*%
%TO.N,Sense2-7*%
G36*
X138805255Y-130140234D02*
G01*
X138809167Y-130145204D01*
X139109345Y-130868919D01*
X139110238Y-130873406D01*
X139109342Y-130877892D01*
X138809254Y-131600009D01*
X138805288Y-131605013D01*
X138799284Y-131607189D01*
X138793032Y-131605889D01*
X137990203Y-131186478D01*
X137460541Y-130909774D01*
X137455499Y-130904646D01*
X137454410Y-130897536D01*
X137457685Y-130891134D01*
X137621861Y-130726958D01*
X137624883Y-130724777D01*
X138793119Y-130139226D01*
X138799328Y-130138027D01*
X138805255Y-130140234D01*
G37*
%TD.AperFunction*%
%TD*%
%TA.AperFunction,Conductor*%
%TO.N,FuelPressure1*%
G36*
X105453289Y-131445518D02*
G01*
X105601809Y-131509791D01*
X106173886Y-131757362D01*
X106180072Y-131763679D01*
X106180072Y-131772521D01*
X106173886Y-131778838D01*
X105453290Y-132090680D01*
X105447806Y-132091612D01*
X105442511Y-132089906D01*
X105128268Y-131896526D01*
X105124186Y-131892269D01*
X105122700Y-131886562D01*
X105122700Y-131649638D01*
X105124186Y-131643931D01*
X105128268Y-131639674D01*
X105442511Y-131446293D01*
X105447806Y-131444587D01*
X105453289Y-131445518D01*
G37*
%TD.AperFunction*%
%TD*%
%TA.AperFunction,Conductor*%
%TO.N,GND*%
G36*
X192374576Y-85458948D02*
G01*
X193139780Y-85774932D01*
X193144589Y-85778614D01*
X193146912Y-85784210D01*
X193146124Y-85790218D01*
X192829584Y-86555387D01*
X192823510Y-86561612D01*
X192814817Y-86561925D01*
X192100500Y-86305300D01*
X191871262Y-86305300D01*
X191863679Y-86302510D01*
X191859713Y-86295471D01*
X191861254Y-86287540D01*
X192360105Y-85463701D01*
X192366460Y-85458647D01*
X192374576Y-85458948D01*
G37*
%TD.AperFunction*%
%TD*%
%TA.AperFunction,Conductor*%
%TO.N,Net-(IC2-RXD)*%
G36*
X198357789Y-122356518D02*
G01*
X198506309Y-122420791D01*
X199078386Y-122668362D01*
X199084572Y-122674679D01*
X199084572Y-122683521D01*
X199078386Y-122689838D01*
X198357790Y-123001680D01*
X198352306Y-123002612D01*
X198347011Y-123000906D01*
X198032768Y-122807526D01*
X198028686Y-122803269D01*
X198027200Y-122797562D01*
X198027200Y-122560638D01*
X198028686Y-122554931D01*
X198032768Y-122550674D01*
X198347011Y-122357293D01*
X198352306Y-122355587D01*
X198357789Y-122356518D01*
G37*
%TD.AperFunction*%
%TD*%
%TA.AperFunction,Conductor*%
%TO.N,GND*%
G36*
X197323689Y-106903718D02*
G01*
X197472209Y-106967991D01*
X198044286Y-107215562D01*
X198050472Y-107221879D01*
X198050472Y-107230721D01*
X198044286Y-107237038D01*
X197323690Y-107548880D01*
X197318206Y-107549812D01*
X197312911Y-107548106D01*
X196998668Y-107354726D01*
X196994586Y-107350469D01*
X196993100Y-107344762D01*
X196993100Y-107107838D01*
X196994586Y-107102131D01*
X196998668Y-107097874D01*
X197312911Y-106904493D01*
X197318206Y-106902787D01*
X197323689Y-106903718D01*
G37*
%TD.AperFunction*%
%TD*%
%TA.AperFunction,Conductor*%
%TO.N,FuelPressure3*%
G36*
X114031896Y-143805987D02*
G01*
X114037178Y-143809619D01*
X114534383Y-144411088D01*
X114835312Y-144775122D01*
X114837981Y-144783123D01*
X114834577Y-144790840D01*
X114282638Y-145344162D01*
X114276642Y-145347373D01*
X114269872Y-145346706D01*
X113547013Y-145046883D01*
X113540937Y-145041115D01*
X113540275Y-145032764D01*
X113851364Y-143979335D01*
X113854310Y-143974380D01*
X114019890Y-143808800D01*
X114025491Y-143805684D01*
X114031896Y-143805987D01*
G37*
%TD.AperFunction*%
%TD*%
%TA.AperFunction,Conductor*%
%TO.N,GND*%
G36*
X177691494Y-143180526D02*
G01*
X177695358Y-143185456D01*
X178020234Y-143967411D01*
X178021129Y-143971900D01*
X178020234Y-143976389D01*
X177695358Y-144758343D01*
X177691494Y-144763273D01*
X177685640Y-144765503D01*
X177679475Y-144764395D01*
X176300522Y-144100090D01*
X176295693Y-144095773D01*
X176293900Y-144089549D01*
X176293900Y-143854251D01*
X176295693Y-143848027D01*
X176300522Y-143843710D01*
X176518993Y-143738462D01*
X177679477Y-143179403D01*
X177685640Y-143178296D01*
X177691494Y-143180526D01*
G37*
%TD.AperFunction*%
%TD*%
%TA.AperFunction,Conductor*%
%TO.N,FuelPressure2*%
G36*
X107486296Y-141889487D02*
G01*
X107491578Y-141893119D01*
X107988783Y-142494588D01*
X108289712Y-142858622D01*
X108292381Y-142866623D01*
X108288977Y-142874340D01*
X107737038Y-143427662D01*
X107731042Y-143430873D01*
X107724272Y-143430206D01*
X107001413Y-143130383D01*
X106995337Y-143124615D01*
X106994675Y-143116264D01*
X107305764Y-142062835D01*
X107308710Y-142057880D01*
X107474290Y-141892300D01*
X107479891Y-141889184D01*
X107486296Y-141889487D01*
G37*
%TD.AperFunction*%
%TD*%
%TA.AperFunction,Conductor*%
%TO.N,+5V*%
G36*
X202723689Y-109443718D02*
G01*
X202872209Y-109507991D01*
X203444286Y-109755562D01*
X203450472Y-109761879D01*
X203450472Y-109770721D01*
X203444286Y-109777038D01*
X202723690Y-110088880D01*
X202718206Y-110089812D01*
X202712911Y-110088106D01*
X202398668Y-109894726D01*
X202394586Y-109890469D01*
X202393100Y-109884762D01*
X202393100Y-109647838D01*
X202394586Y-109642131D01*
X202398668Y-109637874D01*
X202712911Y-109444493D01*
X202718206Y-109442787D01*
X202723689Y-109443718D01*
G37*
%TD.AperFunction*%
%TD*%
%TA.AperFunction,Conductor*%
%TO.N,Net-(Q16-D)*%
G36*
X167409697Y-86359699D02*
G01*
X167414139Y-86365041D01*
X167711610Y-87084173D01*
X167712272Y-87090935D01*
X167709064Y-87096925D01*
X167157851Y-87647164D01*
X167152316Y-87650261D01*
X167145978Y-87650014D01*
X167140700Y-87646497D01*
X166481048Y-86876613D01*
X166478248Y-86868400D01*
X166481875Y-86860517D01*
X166489933Y-86857300D01*
X166714500Y-86857300D01*
X167396436Y-86360058D01*
X167403009Y-86357817D01*
X167409697Y-86359699D01*
G37*
%TD.AperFunction*%
%TD*%
%TA.AperFunction,Conductor*%
%TO.N,Net-(Q13-Pad1)*%
G36*
X132646879Y-75832792D02*
G01*
X132651130Y-75838637D01*
X133066456Y-77114074D01*
X133065961Y-77122586D01*
X133059821Y-77128501D01*
X132335190Y-77429634D01*
X132330700Y-77430530D01*
X132326210Y-77429634D01*
X131601582Y-77128503D01*
X131595441Y-77122586D01*
X131594948Y-77114073D01*
X132010867Y-75838631D01*
X132015119Y-75832791D01*
X132021991Y-75830560D01*
X132640005Y-75830560D01*
X132646879Y-75832792D01*
G37*
%TD.AperFunction*%
%TD*%
%TA.AperFunction,Conductor*%
%TO.N,Net-(Q10-Pad1)*%
G36*
X149573244Y-54968252D02*
G01*
X149577431Y-54974463D01*
X149576993Y-54981941D01*
X148752767Y-57019684D01*
X148746636Y-57026005D01*
X148737835Y-57026260D01*
X147793048Y-56674095D01*
X147789158Y-56671692D01*
X147786487Y-56667982D01*
X147355515Y-55721950D01*
X147355185Y-55713051D01*
X147361213Y-55706498D01*
X148946149Y-54966950D01*
X148951096Y-54965854D01*
X149566147Y-54965854D01*
X149573244Y-54968252D01*
G37*
%TD.AperFunction*%
%TD*%
%TA.AperFunction,Conductor*%
%TO.N,GND*%
G36*
X92307185Y-57960083D02*
G01*
X92312006Y-57964516D01*
X93092708Y-59255780D01*
X93094311Y-59263243D01*
X93090969Y-59270106D01*
X92205900Y-60155175D01*
X92199043Y-60158516D01*
X92191584Y-60156921D01*
X90904999Y-59380887D01*
X90900570Y-59376085D01*
X90899405Y-59369660D01*
X91030914Y-58105495D01*
X91034261Y-58098451D01*
X91041291Y-58095077D01*
X92300737Y-57958937D01*
X92307185Y-57960083D01*
G37*
%TD.AperFunction*%
%TD*%
%TA.AperFunction,Conductor*%
%TO.N,IN2TTL*%
G36*
X227343350Y-65820312D02*
G01*
X228295834Y-66241718D01*
X228300905Y-66246034D01*
X228302800Y-66252418D01*
X228302800Y-66487182D01*
X228300905Y-66493566D01*
X228295834Y-66497882D01*
X227343350Y-66919287D01*
X227337279Y-66920210D01*
X227331577Y-66917933D01*
X227327814Y-66913081D01*
X227153802Y-66494800D01*
X227103668Y-66374291D01*
X227102771Y-66369800D01*
X227103668Y-66365308D01*
X227327815Y-65826516D01*
X227331577Y-65821666D01*
X227337279Y-65819389D01*
X227343350Y-65820312D01*
G37*
%TD.AperFunction*%
%TD*%
%TA.AperFunction,Conductor*%
%TO.N,+VDC*%
G36*
X138863742Y-77970212D02*
G01*
X139747788Y-78854258D01*
X139751174Y-78861551D01*
X139749054Y-78869306D01*
X138635134Y-80437543D01*
X138629870Y-80441659D01*
X138623211Y-80442223D01*
X138617330Y-80439050D01*
X137947593Y-79770707D01*
X137947576Y-79770690D01*
X137279246Y-79100966D01*
X137276074Y-79095086D01*
X137276636Y-79088428D01*
X137280748Y-79083167D01*
X138362462Y-78314475D01*
X138364991Y-78313114D01*
X138467796Y-78273288D01*
X138650654Y-78160067D01*
X138809594Y-78015173D01*
X138838562Y-77976812D01*
X138841110Y-77974336D01*
X138848696Y-77968946D01*
X138856448Y-77966826D01*
X138863742Y-77970212D01*
G37*
%TD.AperFunction*%
%TD*%
%TA.AperFunction,Conductor*%
%TO.N,Net-(#FLG0103-pwr)*%
G36*
X78256091Y-64102677D02*
G01*
X79330445Y-64533274D01*
X79336531Y-64538850D01*
X79337421Y-64547056D01*
X79048778Y-65666171D01*
X79045722Y-65671522D01*
X78161803Y-66555422D01*
X78155213Y-66558727D01*
X78147954Y-66557435D01*
X78142910Y-66552058D01*
X78136920Y-66539100D01*
X77373021Y-64886557D01*
X77372191Y-64879250D01*
X77375887Y-64872890D01*
X78243987Y-64104775D01*
X78249742Y-64102010D01*
X78256091Y-64102677D01*
G37*
%TD.AperFunction*%
%TD*%
%TA.AperFunction,Conductor*%
%TO.N,SpareADC3*%
G36*
X135821989Y-119176724D02*
G01*
X135826110Y-119179802D01*
X136133663Y-119539396D01*
X136136463Y-119547455D01*
X136133045Y-119555273D01*
X135968420Y-119719898D01*
X135963462Y-119722846D01*
X135957698Y-119723066D01*
X135014756Y-119521239D01*
X135007395Y-119516175D01*
X135005755Y-119507394D01*
X135069886Y-119202165D01*
X135073857Y-119195576D01*
X135081060Y-119192876D01*
X135816948Y-119175710D01*
X135821989Y-119176724D01*
G37*
%TD.AperFunction*%
%TD*%
%TA.AperFunction,Conductor*%
%TO.N,GND*%
G36*
X182639654Y-91182798D02*
G01*
X182643959Y-91188110D01*
X182723099Y-91383635D01*
X182723723Y-91390340D01*
X182720547Y-91396278D01*
X182524293Y-91593467D01*
X182519037Y-91596513D01*
X182512963Y-91596513D01*
X182507707Y-91593467D01*
X182311452Y-91396278D01*
X182308276Y-91390340D01*
X182308900Y-91383635D01*
X182388041Y-91188110D01*
X182392347Y-91182798D01*
X182398886Y-91180800D01*
X182633114Y-91180800D01*
X182639654Y-91182798D01*
G37*
%TD.AperFunction*%
%TD*%
%TA.AperFunction,Conductor*%
%TO.N,GND*%
G36*
X135827688Y-122681993D02*
G01*
X136141932Y-122875374D01*
X136146014Y-122879631D01*
X136147500Y-122885338D01*
X136147500Y-123122262D01*
X136146014Y-123127969D01*
X136141932Y-123132226D01*
X135827688Y-123325606D01*
X135822393Y-123327312D01*
X135816909Y-123326380D01*
X135096313Y-123014537D01*
X135090127Y-123008220D01*
X135090127Y-122999378D01*
X135096311Y-122993062D01*
X135816911Y-122681218D01*
X135822393Y-122680287D01*
X135827688Y-122681993D01*
G37*
%TD.AperFunction*%
%TD*%
%TA.AperFunction,Conductor*%
%TO.N,MOSI*%
G36*
X229545189Y-125846092D02*
G01*
X229550920Y-125852151D01*
X229869906Y-126621273D01*
X229870573Y-126628042D01*
X229867362Y-126634038D01*
X229278810Y-127221207D01*
X229270996Y-127224615D01*
X229262943Y-127221816D01*
X228560616Y-126621273D01*
X228247164Y-126353247D01*
X228243640Y-126347967D01*
X228243393Y-126341623D01*
X228246494Y-126336085D01*
X228412193Y-126170386D01*
X228417228Y-126167417D01*
X229536880Y-125845389D01*
X229545189Y-125846092D01*
G37*
%TD.AperFunction*%
%TD*%
%TA.AperFunction,Conductor*%
%TO.N,Sense1-9*%
G36*
X102775421Y-138829551D02*
G01*
X102778300Y-138837237D01*
X102778300Y-139065601D01*
X103038457Y-139748924D01*
X103038265Y-139757723D01*
X103031995Y-139763899D01*
X102313218Y-140061224D01*
X102307211Y-140062011D01*
X102301615Y-140059688D01*
X102297932Y-140054878D01*
X102000948Y-139335548D01*
X102000586Y-139327627D01*
X102005357Y-139321293D01*
X102448969Y-139031062D01*
X102760194Y-138827446D01*
X102768202Y-138825647D01*
X102775421Y-138829551D01*
G37*
%TD.AperFunction*%
%TD*%
%TA.AperFunction,Conductor*%
%TO.N,SpareADC2*%
G36*
X135196669Y-126165286D02*
G01*
X135200926Y-126169368D01*
X135392664Y-126480941D01*
X135394321Y-126488428D01*
X135390986Y-126495333D01*
X135080786Y-126806488D01*
X135075534Y-126809528D01*
X135069466Y-126809528D01*
X135064214Y-126806488D01*
X134754013Y-126495333D01*
X134750678Y-126488428D01*
X134752334Y-126480944D01*
X134944074Y-126169368D01*
X134948331Y-126165286D01*
X134954038Y-126163800D01*
X135190962Y-126163800D01*
X135196669Y-126165286D01*
G37*
%TD.AperFunction*%
%TD*%
%TA.AperFunction,Conductor*%
%TO.N,Net-(IC2-TXD)*%
G36*
X198357789Y-121086518D02*
G01*
X198506309Y-121150791D01*
X199078386Y-121398362D01*
X199084572Y-121404679D01*
X199084572Y-121413521D01*
X199078386Y-121419838D01*
X198357790Y-121731680D01*
X198352306Y-121732612D01*
X198347011Y-121730906D01*
X198032768Y-121537526D01*
X198028686Y-121533269D01*
X198027200Y-121527562D01*
X198027200Y-121290638D01*
X198028686Y-121284931D01*
X198032768Y-121280674D01*
X198347011Y-121087293D01*
X198352306Y-121085587D01*
X198357789Y-121086518D01*
G37*
%TD.AperFunction*%
%TD*%
%TA.AperFunction,Conductor*%
%TO.N,/BufferedADC1/ADCIN4*%
G36*
X112352888Y-133986293D02*
G01*
X112667132Y-134179674D01*
X112671214Y-134183931D01*
X112672700Y-134189638D01*
X112672700Y-134426562D01*
X112671214Y-134432269D01*
X112667132Y-134436526D01*
X112352888Y-134629906D01*
X112347593Y-134631612D01*
X112342109Y-134630680D01*
X111621513Y-134318838D01*
X111615327Y-134312521D01*
X111615327Y-134303679D01*
X111621513Y-134297362D01*
X111870438Y-134189638D01*
X112342111Y-133985518D01*
X112347593Y-133984587D01*
X112352888Y-133986293D01*
G37*
%TD.AperFunction*%
%TD*%
%TA.AperFunction,Conductor*%
%TO.N,Sense1-12*%
G36*
X105453289Y-133985518D02*
G01*
X105601809Y-134049791D01*
X106173886Y-134297362D01*
X106180072Y-134303679D01*
X106180072Y-134312521D01*
X106173886Y-134318838D01*
X105453290Y-134630680D01*
X105447806Y-134631612D01*
X105442511Y-134629906D01*
X105128268Y-134436526D01*
X105124186Y-134432269D01*
X105122700Y-134426562D01*
X105122700Y-134189638D01*
X105124186Y-134183931D01*
X105128268Y-134179674D01*
X105442511Y-133986293D01*
X105447806Y-133984587D01*
X105453289Y-133985518D01*
G37*
%TD.AperFunction*%
%TD*%
%TA.AperFunction,Conductor*%
%TO.N,Sense2-4*%
G36*
X135827688Y-121411993D02*
G01*
X136141932Y-121605374D01*
X136146014Y-121609631D01*
X136147500Y-121615338D01*
X136147500Y-121852262D01*
X136146014Y-121857969D01*
X136141932Y-121862226D01*
X135827688Y-122055606D01*
X135822393Y-122057312D01*
X135816909Y-122056380D01*
X135096313Y-121744538D01*
X135090127Y-121738221D01*
X135090127Y-121729379D01*
X135096313Y-121723062D01*
X135345238Y-121615338D01*
X135816911Y-121411218D01*
X135822393Y-121410287D01*
X135827688Y-121411993D01*
G37*
%TD.AperFunction*%
%TD*%
%TA.AperFunction,Conductor*%
%TO.N,Net-(Q9-Pad1)*%
G36*
X135706274Y-61150128D02*
G01*
X136202611Y-61942449D01*
X136204322Y-61949978D01*
X136200969Y-61956933D01*
X135765131Y-62392771D01*
X135758178Y-62396123D01*
X135750650Y-62394415D01*
X134958132Y-61898274D01*
X134953198Y-61891928D01*
X134953523Y-61883897D01*
X135167237Y-61365594D01*
X135169781Y-61361781D01*
X135173594Y-61359237D01*
X135691900Y-61145521D01*
X135699929Y-61145197D01*
X135706274Y-61150128D01*
G37*
%TD.AperFunction*%
%TD*%
%TA.AperFunction,Conductor*%
%TO.N,SCL*%
G36*
X103655038Y-100393435D02*
G01*
X104384909Y-101797242D01*
X104386091Y-101804422D01*
X104382801Y-101810912D01*
X103855821Y-102337892D01*
X103849599Y-102341138D01*
X103842639Y-102340239D01*
X102589718Y-101761039D01*
X102584039Y-101755397D01*
X102583316Y-101747426D01*
X102835043Y-100796292D01*
X102837273Y-100791907D01*
X102841105Y-100788829D01*
X103639412Y-100388373D01*
X103648262Y-100387701D01*
X103655038Y-100393435D01*
G37*
%TD.AperFunction*%
%TD*%
%TA.AperFunction,Conductor*%
%TO.N,OilPressure*%
G36*
X125859986Y-116185030D02*
G01*
X125865266Y-116188687D01*
X126525812Y-116993779D01*
X126528442Y-117001966D01*
X126524765Y-117009740D01*
X126516767Y-117012900D01*
X126291500Y-117012900D01*
X125609435Y-117475441D01*
X125602920Y-117477458D01*
X125596387Y-117475499D01*
X125592056Y-117470230D01*
X125294389Y-116750626D01*
X125293727Y-116743864D01*
X125296934Y-116737875D01*
X125847956Y-116187826D01*
X125853571Y-116184712D01*
X125859986Y-116185030D01*
G37*
%TD.AperFunction*%
%TD*%
%TA.AperFunction,Conductor*%
%TO.N,FuelPressure1*%
G36*
X104293215Y-142710037D02*
G01*
X104298983Y-142716113D01*
X104598806Y-143438972D01*
X104599473Y-143445742D01*
X104596262Y-143451738D01*
X104042940Y-144003677D01*
X104035223Y-144007081D01*
X104027222Y-144004412D01*
X103061720Y-143206279D01*
X103058087Y-143200996D01*
X103057784Y-143194591D01*
X103060900Y-143188990D01*
X103226480Y-143023410D01*
X103231435Y-143020464D01*
X104284864Y-142709375D01*
X104293215Y-142710037D01*
G37*
%TD.AperFunction*%
%TD*%
%TA.AperFunction,Conductor*%
%TO.N,SpareADC1*%
G36*
X128928089Y-126491218D02*
G01*
X129076609Y-126555491D01*
X129648686Y-126803062D01*
X129654872Y-126809379D01*
X129654872Y-126818221D01*
X129648686Y-126824538D01*
X128928090Y-127136380D01*
X128922606Y-127137312D01*
X128917311Y-127135606D01*
X128603068Y-126942226D01*
X128598986Y-126937969D01*
X128597500Y-126932262D01*
X128597500Y-126695338D01*
X128598986Y-126689631D01*
X128603068Y-126685374D01*
X128917311Y-126491993D01*
X128922606Y-126490287D01*
X128928089Y-126491218D01*
G37*
%TD.AperFunction*%
%TD*%
%TA.AperFunction,Conductor*%
%TO.N,Net-(#FLG0103-pwr)*%
G36*
X92442691Y-68347416D02*
G01*
X93315512Y-68708543D01*
X93319314Y-68711083D01*
X93321853Y-68714887D01*
X93682633Y-69588264D01*
X93682977Y-69596252D01*
X93678111Y-69602595D01*
X92630068Y-70271033D01*
X91992990Y-70677361D01*
X91977524Y-70687225D01*
X91969540Y-70688938D01*
X91962381Y-70685013D01*
X91959532Y-70677361D01*
X91959532Y-69431136D01*
X91960504Y-69426467D01*
X92270221Y-68714887D01*
X92427491Y-68353556D01*
X92433835Y-68347379D01*
X92442691Y-68347416D01*
G37*
%TD.AperFunction*%
%TD*%
%TA.AperFunction,Conductor*%
%TO.N,+5V*%
G36*
X205257388Y-121087293D02*
G01*
X205571632Y-121280674D01*
X205575714Y-121284931D01*
X205577200Y-121290638D01*
X205577200Y-121527562D01*
X205575714Y-121533269D01*
X205571632Y-121537526D01*
X205257388Y-121730906D01*
X205252093Y-121732612D01*
X205246609Y-121731680D01*
X204526013Y-121419838D01*
X204519827Y-121413521D01*
X204519827Y-121404679D01*
X204526013Y-121398362D01*
X204774938Y-121290638D01*
X205246611Y-121086518D01*
X205252093Y-121085587D01*
X205257388Y-121087293D01*
G37*
%TD.AperFunction*%
%TD*%
%TA.AperFunction,Conductor*%
%TO.N,Net-(Q22-Pad1)*%
G36*
X92352008Y-84606111D02*
G01*
X93299620Y-84997639D01*
X93303422Y-85000177D01*
X93305962Y-85003982D01*
X93697487Y-85951589D01*
X93697916Y-85959297D01*
X93693450Y-85965595D01*
X92121649Y-87082309D01*
X92113893Y-87084430D01*
X92106600Y-87081044D01*
X91222555Y-86196999D01*
X91219169Y-86189706D01*
X91221289Y-86181951D01*
X92338005Y-84610147D01*
X92344302Y-84605683D01*
X92352008Y-84606111D01*
G37*
%TD.AperFunction*%
%TD*%
%TA.AperFunction,Conductor*%
%TO.N,Net-(Q16-D)*%
G36*
X162571379Y-84736510D02*
G01*
X163188263Y-85127454D01*
X163192251Y-85131697D01*
X163193700Y-85137337D01*
X163193700Y-85374463D01*
X163192251Y-85380103D01*
X163188263Y-85384345D01*
X163008476Y-85498283D01*
X162571380Y-85775288D01*
X162563187Y-85776945D01*
X162555979Y-85772712D01*
X162148543Y-85263207D01*
X162145981Y-85255900D01*
X162148543Y-85248593D01*
X162242659Y-85130900D01*
X162555979Y-84739086D01*
X162563187Y-84734854D01*
X162571379Y-84736510D01*
G37*
%TD.AperFunction*%
%TD*%
%TA.AperFunction,Conductor*%
%TO.N,GND*%
G36*
X212907415Y-68872906D02*
G01*
X212908311Y-68874184D01*
X213415267Y-69597029D01*
X213417361Y-69602951D01*
X213416090Y-69609103D01*
X213411821Y-69613711D01*
X213097300Y-69807300D01*
X213097300Y-70033775D01*
X213094244Y-70041660D01*
X213086672Y-70045426D01*
X213078540Y-70043105D01*
X213076630Y-70041660D01*
X212510373Y-69613186D01*
X212506014Y-69606406D01*
X212507074Y-69598418D01*
X212887479Y-68874183D01*
X212893227Y-68868872D01*
X212901037Y-68868371D01*
X212907415Y-68872906D01*
G37*
%TD.AperFunction*%
%TD*%
%TA.AperFunction,Conductor*%
%TO.N,GND*%
G36*
X231931271Y-68074290D02*
G01*
X231935588Y-68079348D01*
X232029244Y-68290074D01*
X232030058Y-68296949D01*
X232026843Y-68303081D01*
X231815791Y-68515072D01*
X231810537Y-68518116D01*
X231804463Y-68518116D01*
X231799209Y-68515072D01*
X231588156Y-68303081D01*
X231584941Y-68296949D01*
X231585754Y-68290077D01*
X231679412Y-68079347D01*
X231683729Y-68074290D01*
X231690104Y-68072400D01*
X231924896Y-68072400D01*
X231931271Y-68074290D01*
G37*
%TD.AperFunction*%
%TD*%
%TA.AperFunction,Conductor*%
%TO.N,GND*%
G36*
X140922755Y-125977542D02*
G01*
X140939439Y-125984431D01*
X141646712Y-126276437D01*
X141650520Y-126278979D01*
X141653062Y-126282787D01*
X141951956Y-127006743D01*
X141952712Y-127012939D01*
X141950176Y-127018642D01*
X141945068Y-127022229D01*
X140614487Y-127496275D01*
X140607989Y-127496668D01*
X140602287Y-127493527D01*
X140435972Y-127327212D01*
X140432831Y-127321510D01*
X140433223Y-127315016D01*
X140907272Y-125984427D01*
X140910857Y-125979323D01*
X140916560Y-125976787D01*
X140922755Y-125977542D01*
G37*
%TD.AperFunction*%
%TD*%
%TA.AperFunction,Conductor*%
%TO.N,Net-(IC2-RXD)*%
G36*
X197323689Y-109443718D02*
G01*
X197472209Y-109507991D01*
X198044286Y-109755562D01*
X198050472Y-109761879D01*
X198050472Y-109770721D01*
X198044286Y-109777038D01*
X197323690Y-110088880D01*
X197318206Y-110089812D01*
X197312911Y-110088106D01*
X196998668Y-109894726D01*
X196994586Y-109890469D01*
X196993100Y-109884762D01*
X196993100Y-109647838D01*
X196994586Y-109642131D01*
X196998668Y-109637874D01*
X197312911Y-109444493D01*
X197318206Y-109442787D01*
X197323689Y-109443718D01*
G37*
%TD.AperFunction*%
%TD*%
%TA.AperFunction,Conductor*%
%TO.N,Net-(Q13-Pad1)*%
G36*
X136466822Y-72771790D02*
G01*
X136473091Y-72776515D01*
X136474963Y-72784139D01*
X136471594Y-72791230D01*
X136037943Y-73224705D01*
X136033795Y-73227379D01*
X135361534Y-73480542D01*
X135352762Y-73480330D01*
X135346605Y-73474078D01*
X135244227Y-73227379D01*
X135132056Y-72957080D01*
X135131163Y-72952593D01*
X135132060Y-72948107D01*
X135346838Y-72431933D01*
X135352695Y-72425825D01*
X135361137Y-72425264D01*
X136466822Y-72771790D01*
G37*
%TD.AperFunction*%
%TD*%
%TA.AperFunction,Conductor*%
%TO.N,Net-(Q9-Pad1)*%
G36*
X134901596Y-60457902D02*
G01*
X135565447Y-60947152D01*
X135569446Y-60952422D01*
X135569947Y-60959019D01*
X135566789Y-60964833D01*
X135171456Y-61361139D01*
X135167633Y-61363693D01*
X134650166Y-61577061D01*
X134643892Y-61577802D01*
X134638146Y-61575174D01*
X134634605Y-61569941D01*
X134565620Y-61362800D01*
X134268628Y-60471017D01*
X134268584Y-60463759D01*
X134272829Y-60457871D01*
X134279729Y-60455620D01*
X134894655Y-60455620D01*
X134901596Y-60457902D01*
G37*
%TD.AperFunction*%
%TD*%
%TA.AperFunction,Conductor*%
%TO.N,Net-(Q20-Pad1)*%
G36*
X134580899Y-49079821D02*
G01*
X134876041Y-49201518D01*
X135099205Y-49293537D01*
X135103018Y-49296081D01*
X135105562Y-49299894D01*
X135319277Y-49818198D01*
X135319602Y-49826229D01*
X135314669Y-49832574D01*
X134522169Y-50328791D01*
X134514640Y-50330500D01*
X134507686Y-50327148D01*
X134071876Y-49891282D01*
X134068524Y-49884327D01*
X134070233Y-49876799D01*
X134566526Y-49084426D01*
X134572871Y-49079497D01*
X134580899Y-49079821D01*
G37*
%TD.AperFunction*%
%TD*%
%TA.AperFunction,Conductor*%
%TO.N,+VDC*%
G36*
X125013249Y-72381591D02*
G01*
X125573982Y-72632702D01*
X125579019Y-72637018D01*
X125580900Y-72643380D01*
X125580900Y-73263220D01*
X125579019Y-73269582D01*
X125573982Y-73273898D01*
X125013249Y-73525008D01*
X125006352Y-73525837D01*
X125000201Y-73522610D01*
X124438194Y-72961580D01*
X124435160Y-72956331D01*
X124435160Y-72950269D01*
X124438194Y-72945020D01*
X124751056Y-72632702D01*
X125000201Y-72383988D01*
X125006352Y-72380762D01*
X125013249Y-72381591D01*
G37*
%TD.AperFunction*%
%TD*%
%TA.AperFunction,Conductor*%
%TO.N,+5V*%
G36*
X128928089Y-122681218D02*
G01*
X129648686Y-122993062D01*
X129654872Y-122999378D01*
X129654872Y-123008220D01*
X129648686Y-123014537D01*
X128928090Y-123326380D01*
X128922606Y-123327312D01*
X128917311Y-123325606D01*
X128603068Y-123132226D01*
X128598986Y-123127969D01*
X128597500Y-123122262D01*
X128597500Y-122885338D01*
X128598986Y-122879631D01*
X128603068Y-122875374D01*
X128917311Y-122681993D01*
X128922606Y-122680287D01*
X128928089Y-122681218D01*
G37*
%TD.AperFunction*%
%TD*%
%TA.AperFunction,Conductor*%
%TO.N,SpareADC1*%
G36*
X125763421Y-129954751D02*
G01*
X125766300Y-129962437D01*
X125766300Y-130190801D01*
X126026457Y-130874124D01*
X126026265Y-130882923D01*
X126019995Y-130889099D01*
X125301218Y-131186424D01*
X125295211Y-131187211D01*
X125289615Y-131184888D01*
X125285932Y-131180078D01*
X124988948Y-130460748D01*
X124988586Y-130452827D01*
X124993357Y-130446493D01*
X125436969Y-130156262D01*
X125748194Y-129952646D01*
X125756202Y-129950847D01*
X125763421Y-129954751D01*
G37*
%TD.AperFunction*%
%TD*%
%TA.AperFunction,Conductor*%
%TO.N,CAN_TX_STBY*%
G36*
X202142025Y-102216792D02*
G01*
X202863951Y-102516228D01*
X202870247Y-102522485D01*
X202870339Y-102531361D01*
X202482278Y-103506469D01*
X202479680Y-103510416D01*
X202313787Y-103676309D01*
X202308150Y-103679435D01*
X202301713Y-103679101D01*
X202296430Y-103675409D01*
X201576453Y-102788363D01*
X201573852Y-102780392D01*
X201577254Y-102772727D01*
X202129264Y-102219334D01*
X202135257Y-102216126D01*
X202142025Y-102216792D01*
G37*
%TD.AperFunction*%
%TD*%
%TA.AperFunction,Conductor*%
%TO.N,Net-(IC3-OSC2)*%
G36*
X198357789Y-126166518D02*
G01*
X199078386Y-126478362D01*
X199084572Y-126484678D01*
X199084572Y-126493520D01*
X199078386Y-126499837D01*
X198357790Y-126811680D01*
X198352306Y-126812612D01*
X198347011Y-126810906D01*
X198032768Y-126617526D01*
X198028686Y-126613269D01*
X198027200Y-126607562D01*
X198027200Y-126370638D01*
X198028686Y-126364931D01*
X198032768Y-126360674D01*
X198347011Y-126167293D01*
X198352306Y-126165587D01*
X198357789Y-126166518D01*
G37*
%TD.AperFunction*%
%TD*%
%TA.AperFunction,Conductor*%
%TO.N,SpareADC1*%
G36*
X128928089Y-125221218D02*
G01*
X129648686Y-125533062D01*
X129654872Y-125539378D01*
X129654872Y-125548220D01*
X129648686Y-125554537D01*
X128928090Y-125866380D01*
X128922606Y-125867312D01*
X128917311Y-125865606D01*
X128603068Y-125672226D01*
X128598986Y-125667969D01*
X128597500Y-125662262D01*
X128597500Y-125425338D01*
X128598986Y-125419631D01*
X128603068Y-125415374D01*
X128917311Y-125221993D01*
X128922606Y-125220287D01*
X128928089Y-125221218D01*
G37*
%TD.AperFunction*%
%TD*%
%TA.AperFunction,Conductor*%
%TO.N,Net-(IC3-OSC1)*%
G36*
X198357789Y-127436518D02*
G01*
X198506309Y-127500791D01*
X199078386Y-127748362D01*
X199084572Y-127754679D01*
X199084572Y-127763521D01*
X199078386Y-127769838D01*
X198357790Y-128081680D01*
X198352306Y-128082612D01*
X198347011Y-128080906D01*
X198032768Y-127887526D01*
X198028686Y-127883269D01*
X198027200Y-127877562D01*
X198027200Y-127640638D01*
X198028686Y-127634931D01*
X198032768Y-127630674D01*
X198347011Y-127437293D01*
X198352306Y-127435587D01*
X198357789Y-127436518D01*
G37*
%TD.AperFunction*%
%TD*%
%TA.AperFunction,Conductor*%
%TO.N,GPSTX*%
G36*
X122560907Y-103922148D02*
G01*
X122824384Y-104030336D01*
X122828213Y-104032886D01*
X122830763Y-104036715D01*
X122938951Y-104300192D01*
X122939119Y-104308646D01*
X122933546Y-104315006D01*
X122499940Y-104541573D01*
X122492751Y-104542768D01*
X122486249Y-104539476D01*
X122321623Y-104374850D01*
X122318331Y-104368348D01*
X122319525Y-104361163D01*
X122546094Y-103927551D01*
X122552453Y-103921980D01*
X122560907Y-103922148D01*
G37*
%TD.AperFunction*%
%TD*%
%TA.AperFunction,Conductor*%
%TO.N,Net-(Q13-Pad1)*%
G36*
X134608802Y-72737022D02*
G01*
X134619978Y-72741631D01*
X135127105Y-72950737D01*
X135130918Y-72953281D01*
X135133462Y-72957094D01*
X135347177Y-73475399D01*
X135347502Y-73483429D01*
X135342571Y-73489774D01*
X134550229Y-73986091D01*
X134542700Y-73987802D01*
X134535746Y-73984449D01*
X134317847Y-73766566D01*
X134099892Y-73548626D01*
X134096540Y-73541673D01*
X134098247Y-73534145D01*
X134594426Y-72741630D01*
X134600772Y-72736698D01*
X134608802Y-72737022D01*
G37*
%TD.AperFunction*%
%TD*%
%TA.AperFunction,Conductor*%
%TO.N,GND*%
G36*
X231931271Y-68874290D02*
G01*
X231935588Y-68879348D01*
X232029244Y-69090074D01*
X232030058Y-69096949D01*
X232026843Y-69103081D01*
X231815791Y-69315072D01*
X231810537Y-69318116D01*
X231804463Y-69318116D01*
X231799209Y-69315072D01*
X231588156Y-69103081D01*
X231584941Y-69096949D01*
X231585754Y-69090077D01*
X231679412Y-68879348D01*
X231683729Y-68874290D01*
X231690104Y-68872400D01*
X231924896Y-68872400D01*
X231931271Y-68874290D01*
G37*
%TD.AperFunction*%
%TD*%
%TA.AperFunction,Conductor*%
%TO.N,+5V*%
G36*
X105453289Y-135255518D02*
G01*
X105601809Y-135319791D01*
X106173886Y-135567362D01*
X106180072Y-135573679D01*
X106180072Y-135582521D01*
X106173886Y-135588838D01*
X105453290Y-135900680D01*
X105447806Y-135901612D01*
X105442511Y-135899906D01*
X105128268Y-135706526D01*
X105124186Y-135702269D01*
X105122700Y-135696562D01*
X105122700Y-135459638D01*
X105124186Y-135453931D01*
X105128268Y-135449674D01*
X105442511Y-135256293D01*
X105447806Y-135254587D01*
X105453289Y-135255518D01*
G37*
%TD.AperFunction*%
%TD*%
%TA.AperFunction,Conductor*%
%TO.N,Sense1-6*%
G36*
X112352888Y-136526293D02*
G01*
X112667132Y-136719674D01*
X112671214Y-136723931D01*
X112672700Y-136729638D01*
X112672700Y-136966562D01*
X112671214Y-136972269D01*
X112667132Y-136976526D01*
X112352888Y-137169906D01*
X112347593Y-137171612D01*
X112342109Y-137170680D01*
X111621513Y-136858838D01*
X111615327Y-136852521D01*
X111615327Y-136843679D01*
X111621513Y-136837362D01*
X111870438Y-136729638D01*
X112342111Y-136525518D01*
X112347593Y-136524587D01*
X112352888Y-136526293D01*
G37*
%TD.AperFunction*%
%TD*%
%TA.AperFunction,Conductor*%
%TO.N,+VDC*%
G36*
X137279265Y-90650145D02*
G01*
X137949007Y-91318493D01*
X138617351Y-91988231D01*
X138620524Y-91994111D01*
X138619960Y-92000769D01*
X138615845Y-92006033D01*
X137047656Y-93119985D01*
X137039900Y-93122106D01*
X137032608Y-93118720D01*
X136148534Y-92234701D01*
X136145149Y-92227409D01*
X136147270Y-92219654D01*
X137261467Y-90651649D01*
X137266729Y-90647536D01*
X137273386Y-90646974D01*
X137279265Y-90650145D01*
G37*
%TD.AperFunction*%
%TD*%
%TA.AperFunction,Conductor*%
%TO.N,+VDC*%
G36*
X132356879Y-56968313D02*
G01*
X132361130Y-56974158D01*
X132776357Y-58249574D01*
X132775862Y-58258085D01*
X132769722Y-58264000D01*
X132045090Y-58565134D01*
X132040600Y-58566030D01*
X132036110Y-58565134D01*
X131311482Y-58264003D01*
X131305341Y-58258085D01*
X131304849Y-58249573D01*
X131720867Y-56974151D01*
X131725118Y-56968311D01*
X131731990Y-56966080D01*
X132350005Y-56966080D01*
X132356879Y-56968313D01*
G37*
%TD.AperFunction*%
%TD*%
%TA.AperFunction,Conductor*%
%TO.N,+VDC*%
G36*
X133363118Y-68755437D02*
G01*
X133800080Y-69192481D01*
X133803361Y-69198918D01*
X133802235Y-69206056D01*
X133194104Y-70401810D01*
X133187735Y-70407479D01*
X133179210Y-70407321D01*
X132453887Y-70107862D01*
X132450079Y-70105320D01*
X132447537Y-70101512D01*
X132148079Y-69376190D01*
X132147921Y-69367664D01*
X132153591Y-69361296D01*
X133349546Y-68753279D01*
X133356681Y-68752155D01*
X133363118Y-68755437D01*
G37*
%TD.AperFunction*%
%TD*%
%TA.AperFunction,Conductor*%
%TO.N,+5V*%
G36*
X225738842Y-110848333D02*
G01*
X226573912Y-111682422D01*
X226576945Y-111687670D01*
X226576945Y-111693730D01*
X226573912Y-111698978D01*
X225738842Y-112533066D01*
X225731034Y-112536479D01*
X225722981Y-112533690D01*
X225722249Y-112533066D01*
X224885307Y-111819203D01*
X224882276Y-111815203D01*
X224881200Y-111810301D01*
X224881200Y-111571099D01*
X224882276Y-111566197D01*
X224885307Y-111562197D01*
X224903517Y-111546664D01*
X225722983Y-110847708D01*
X225731034Y-110844920D01*
X225738842Y-110848333D01*
G37*
%TD.AperFunction*%
%TD*%
%TA.AperFunction,Conductor*%
%TO.N,GND*%
G36*
X158839109Y-140475125D02*
G01*
X158844377Y-140479189D01*
X159522008Y-141417751D01*
X159524155Y-141425846D01*
X159520342Y-141433303D01*
X159512522Y-141436300D01*
X159285400Y-141436300D01*
X158572137Y-141847731D01*
X158565776Y-141849285D01*
X158559576Y-141847177D01*
X158555481Y-141842070D01*
X158238288Y-141075324D01*
X158237626Y-141068564D01*
X158240832Y-141062576D01*
X158826626Y-140477757D01*
X158832476Y-140474590D01*
X158839109Y-140475125D01*
G37*
%TD.AperFunction*%
%TD*%
%TA.AperFunction,Conductor*%
%TO.N,SpareADC2*%
G36*
X139120318Y-121676175D02*
G01*
X139839095Y-121973500D01*
X139845365Y-121979676D01*
X139845557Y-121988475D01*
X139585400Y-122671799D01*
X139585400Y-122900163D01*
X139582521Y-122907849D01*
X139575302Y-122911753D01*
X139567294Y-122909954D01*
X138812458Y-122416106D01*
X138807686Y-122409772D01*
X138808048Y-122401852D01*
X139105033Y-121682519D01*
X139108715Y-121677711D01*
X139114311Y-121675388D01*
X139120318Y-121676175D01*
G37*
%TD.AperFunction*%
%TD*%
%TA.AperFunction,Conductor*%
%TO.N,GND*%
G36*
X119690891Y-60156982D02*
G01*
X119695788Y-60161294D01*
X119697615Y-60167557D01*
X119698600Y-61004300D01*
X119698600Y-61004328D01*
X119697615Y-61841042D01*
X119695788Y-61847305D01*
X119690891Y-61851617D01*
X119684447Y-61852636D01*
X118007832Y-61640594D01*
X118000523Y-61636723D01*
X117997600Y-61628986D01*
X117997600Y-60379614D01*
X118000523Y-60371877D01*
X118007832Y-60368006D01*
X118161122Y-60348619D01*
X119684448Y-60155963D01*
X119690891Y-60156982D01*
G37*
%TD.AperFunction*%
%TD*%
%TA.AperFunction,Conductor*%
%TO.N,GND*%
G36*
X117133649Y-144615165D02*
G01*
X118409717Y-145220828D01*
X118414589Y-145225145D01*
X118416400Y-145231398D01*
X118416400Y-145466602D01*
X118414589Y-145472855D01*
X118409717Y-145477172D01*
X117133651Y-146082833D01*
X117127502Y-146083908D01*
X117121676Y-146081669D01*
X117117830Y-146076753D01*
X117088298Y-146005690D01*
X116817264Y-145353485D01*
X116816369Y-145349000D01*
X116817264Y-145344514D01*
X117117830Y-144621245D01*
X117121676Y-144616330D01*
X117127502Y-144614091D01*
X117133649Y-144615165D01*
G37*
%TD.AperFunction*%
%TD*%
%TA.AperFunction,Conductor*%
%TO.N,Sense1-6*%
G36*
X113888196Y-139141687D02*
G01*
X113893478Y-139145319D01*
X114390683Y-139746788D01*
X114691612Y-140110822D01*
X114694281Y-140118823D01*
X114690877Y-140126540D01*
X114138938Y-140679862D01*
X114132942Y-140683073D01*
X114126172Y-140682406D01*
X113403313Y-140382583D01*
X113397237Y-140376815D01*
X113396575Y-140368464D01*
X113707664Y-139315035D01*
X113710610Y-139310080D01*
X113876190Y-139144500D01*
X113881791Y-139141384D01*
X113888196Y-139141687D01*
G37*
%TD.AperFunction*%
%TD*%
%TA.AperFunction,Conductor*%
%TO.N,+VDC*%
G36*
X129763934Y-54100708D02*
G01*
X130591639Y-54521448D01*
X130959807Y-54708596D01*
X130965478Y-54714965D01*
X130965320Y-54723491D01*
X130665862Y-55448812D01*
X130663320Y-55452620D01*
X130659512Y-55455162D01*
X129934188Y-55754621D01*
X129925663Y-55754779D01*
X129919295Y-55749111D01*
X129311186Y-54553426D01*
X129310060Y-54546287D01*
X129313340Y-54539852D01*
X129750364Y-54102864D01*
X129756798Y-54099584D01*
X129763934Y-54100708D01*
G37*
%TD.AperFunction*%
%TD*%
%TA.AperFunction,Conductor*%
%TO.N,+VDC*%
G36*
X124961949Y-84908091D02*
G01*
X125522682Y-85159202D01*
X125527719Y-85163518D01*
X125529600Y-85169880D01*
X125529600Y-85789720D01*
X125527719Y-85796082D01*
X125522682Y-85800398D01*
X124961949Y-86051508D01*
X124955052Y-86052337D01*
X124948901Y-86049110D01*
X124386894Y-85488079D01*
X124383860Y-85482830D01*
X124383860Y-85476768D01*
X124386892Y-85471522D01*
X124948901Y-84910488D01*
X124955052Y-84907262D01*
X124961949Y-84908091D01*
G37*
%TD.AperFunction*%
%TD*%
%TA.AperFunction,Conductor*%
%TO.N,Net-(Q18-Pad1)*%
G36*
X152210667Y-54465602D02*
G01*
X152365223Y-54529911D01*
X152729068Y-54681306D01*
X152735360Y-54687578D01*
X152735431Y-54696462D01*
X152381446Y-55579016D01*
X152377142Y-55584352D01*
X152370587Y-55586361D01*
X151754108Y-55586361D01*
X151746249Y-55583329D01*
X151742464Y-55575804D01*
X151656151Y-54696462D01*
X151634758Y-54478518D01*
X151635907Y-54472206D01*
X151640213Y-54467448D01*
X151646379Y-54465677D01*
X152206152Y-54464704D01*
X152210667Y-54465602D01*
G37*
%TD.AperFunction*%
%TD*%
%TA.AperFunction,Conductor*%
%TO.N,+VDC*%
G36*
X132953432Y-57216205D02*
G01*
X133390502Y-57653138D01*
X133393785Y-57659576D01*
X133392659Y-57666715D01*
X132784604Y-58862509D01*
X132778235Y-58868179D01*
X132769710Y-58868021D01*
X132756359Y-58862509D01*
X132573343Y-58786948D01*
X132044388Y-58568562D01*
X132040580Y-58566020D01*
X132038038Y-58562212D01*
X131738577Y-57836887D01*
X131738420Y-57828363D01*
X131744089Y-57821996D01*
X132939858Y-57214049D01*
X132946994Y-57212924D01*
X132953432Y-57216205D01*
G37*
%TD.AperFunction*%
%TD*%
%TA.AperFunction,Conductor*%
%TO.N,Sense2-4*%
G36*
X138865996Y-124735987D02*
G01*
X138871278Y-124739619D01*
X139368483Y-125341088D01*
X139669412Y-125705122D01*
X139672081Y-125713123D01*
X139668677Y-125720840D01*
X139116738Y-126274162D01*
X139110742Y-126277373D01*
X139103972Y-126276706D01*
X138381113Y-125976883D01*
X138375037Y-125971115D01*
X138374375Y-125962764D01*
X138685464Y-124909335D01*
X138688410Y-124904380D01*
X138853990Y-124738800D01*
X138859591Y-124735684D01*
X138865996Y-124735987D01*
G37*
%TD.AperFunction*%
%TD*%
%TA.AperFunction,Conductor*%
%TO.N,+5V*%
G36*
X130427688Y-122681993D02*
G01*
X130741932Y-122875374D01*
X130746014Y-122879631D01*
X130747500Y-122885338D01*
X130747500Y-123122262D01*
X130746014Y-123127969D01*
X130741932Y-123132226D01*
X130427688Y-123325606D01*
X130422393Y-123327312D01*
X130416909Y-123326380D01*
X129696313Y-123014537D01*
X129690127Y-123008220D01*
X129690127Y-122999378D01*
X129696311Y-122993062D01*
X130416911Y-122681218D01*
X130422393Y-122680287D01*
X130427688Y-122681993D01*
G37*
%TD.AperFunction*%
%TD*%
%TA.AperFunction,Conductor*%
%TO.N,CANCS*%
G36*
X203757789Y-122356518D02*
G01*
X203906309Y-122420791D01*
X204478386Y-122668362D01*
X204484572Y-122674679D01*
X204484572Y-122683521D01*
X204478386Y-122689838D01*
X203757790Y-123001680D01*
X203752306Y-123002612D01*
X203747011Y-123000906D01*
X203432768Y-122807526D01*
X203428686Y-122803269D01*
X203427200Y-122797562D01*
X203427200Y-122560638D01*
X203428686Y-122554931D01*
X203432768Y-122550674D01*
X203747011Y-122357293D01*
X203752306Y-122355587D01*
X203757789Y-122356518D01*
G37*
%TD.AperFunction*%
%TD*%
%TA.AperFunction,Conductor*%
%TO.N,+5V*%
G36*
X195341749Y-107816465D02*
G01*
X196617817Y-108422128D01*
X196622689Y-108426445D01*
X196624500Y-108432698D01*
X196624500Y-108667902D01*
X196622689Y-108674155D01*
X196617817Y-108678472D01*
X195341751Y-109284133D01*
X195335602Y-109285208D01*
X195329776Y-109282969D01*
X195325930Y-109278053D01*
X195296398Y-109206990D01*
X195025364Y-108554785D01*
X195024469Y-108550300D01*
X195025364Y-108545814D01*
X195325930Y-107822545D01*
X195329776Y-107817630D01*
X195335602Y-107815391D01*
X195341749Y-107816465D01*
G37*
%TD.AperFunction*%
%TD*%
%TA.AperFunction,Conductor*%
%TO.N,+5V*%
G36*
X132147238Y-106529437D02*
G01*
X132734407Y-107117989D01*
X132737815Y-107125803D01*
X132735016Y-107133856D01*
X131866448Y-108149634D01*
X131861167Y-108153159D01*
X131854823Y-108153406D01*
X131849283Y-108150303D01*
X131683588Y-107984608D01*
X131680617Y-107979569D01*
X131435061Y-107125803D01*
X131358589Y-106859919D01*
X131359292Y-106851610D01*
X131365351Y-106845879D01*
X132134473Y-106526892D01*
X132141242Y-106526226D01*
X132147238Y-106529437D01*
G37*
%TD.AperFunction*%
%TD*%
%TA.AperFunction,Conductor*%
%TO.N,Net-(Q20-Pad1)*%
G36*
X135639473Y-49084431D02*
G01*
X136135689Y-49876932D01*
X136137398Y-49884461D01*
X136134046Y-49891415D01*
X135698180Y-50327223D01*
X135691225Y-50330575D01*
X135683696Y-50328865D01*
X134891328Y-49832574D01*
X134886397Y-49826228D01*
X134886721Y-49818200D01*
X135100437Y-49299893D01*
X135102981Y-49296081D01*
X135106794Y-49293537D01*
X135613922Y-49084431D01*
X135625097Y-49079822D01*
X135633128Y-49079498D01*
X135639473Y-49084431D01*
G37*
%TD.AperFunction*%
%TD*%
%TA.AperFunction,Conductor*%
%TO.N,VoltageSensor*%
G36*
X110853289Y-132715518D02*
G01*
X111573886Y-133027362D01*
X111580072Y-133033678D01*
X111580072Y-133042520D01*
X111573886Y-133048837D01*
X110853290Y-133360680D01*
X110847806Y-133361612D01*
X110842511Y-133359906D01*
X110528268Y-133166526D01*
X110524186Y-133162269D01*
X110522700Y-133156562D01*
X110522700Y-132919638D01*
X110524186Y-132913931D01*
X110528268Y-132909674D01*
X110842511Y-132716293D01*
X110847806Y-132714587D01*
X110853289Y-132715518D01*
G37*
%TD.AperFunction*%
%TD*%
%TA.AperFunction,Conductor*%
%TO.N,+5V*%
G36*
X204666626Y-116864068D02*
G01*
X204670889Y-116869827D01*
X205089402Y-118107697D01*
X205088975Y-118116273D01*
X205082808Y-118122248D01*
X204358290Y-118423334D01*
X204353800Y-118424230D01*
X204349310Y-118423334D01*
X203627580Y-118123407D01*
X203622380Y-118119160D01*
X203620371Y-118112754D01*
X203622214Y-118106299D01*
X204414749Y-116867268D01*
X204418986Y-116863311D01*
X204424604Y-116861874D01*
X204659805Y-116861874D01*
X204666626Y-116864068D01*
G37*
%TD.AperFunction*%
%TD*%
%TA.AperFunction,Conductor*%
%TO.N,MOSI*%
G36*
X205257388Y-123627293D02*
G01*
X205571632Y-123820674D01*
X205575714Y-123824931D01*
X205577200Y-123830638D01*
X205577200Y-124067562D01*
X205575714Y-124073269D01*
X205571632Y-124077526D01*
X205257388Y-124270906D01*
X205252093Y-124272612D01*
X205246609Y-124271680D01*
X204526013Y-123959837D01*
X204519827Y-123953520D01*
X204519827Y-123944678D01*
X204526011Y-123938362D01*
X205246611Y-123626518D01*
X205252093Y-123625587D01*
X205257388Y-123627293D01*
G37*
%TD.AperFunction*%
%TD*%
%TA.AperFunction,Conductor*%
%TO.N,Logging*%
G36*
X227905900Y-75654681D02*
G01*
X228071933Y-75820714D01*
X228075169Y-75826881D01*
X228074327Y-75833795D01*
X227661782Y-76749082D01*
X227655434Y-76755148D01*
X227646654Y-76755090D01*
X227106592Y-76532362D01*
X227102780Y-76529819D01*
X227100237Y-76526007D01*
X226878041Y-75987236D01*
X226877308Y-75980908D01*
X226880001Y-75975133D01*
X226885320Y-75971626D01*
X227894092Y-75651800D01*
X227900399Y-75651587D01*
X227905900Y-75654681D01*
G37*
%TD.AperFunction*%
%TD*%
%TA.AperFunction,Conductor*%
%TO.N,Net-(IC3-OSC2)*%
G36*
X194867975Y-121623206D02*
G01*
X194871573Y-121628281D01*
X195321013Y-122869075D01*
X195321433Y-122875601D01*
X195318285Y-122881333D01*
X195152033Y-123047585D01*
X195146301Y-123050733D01*
X195139775Y-123050313D01*
X193898981Y-122600873D01*
X193893906Y-122597275D01*
X193891392Y-122591583D01*
X193892150Y-122585411D01*
X194171938Y-121907585D01*
X194174479Y-121903779D01*
X194178285Y-121901238D01*
X194856111Y-121621450D01*
X194862283Y-121620692D01*
X194867975Y-121623206D01*
G37*
%TD.AperFunction*%
%TD*%
%TA.AperFunction,Conductor*%
%TO.N,SpareADC2*%
G36*
X135821989Y-126796724D02*
G01*
X135826110Y-126799802D01*
X136133663Y-127159396D01*
X136136463Y-127167455D01*
X136133045Y-127175273D01*
X135968420Y-127339898D01*
X135963462Y-127342846D01*
X135957698Y-127343066D01*
X135014756Y-127141239D01*
X135007395Y-127136175D01*
X135005755Y-127127394D01*
X135069886Y-126822165D01*
X135073857Y-126815576D01*
X135081060Y-126812876D01*
X135816948Y-126795710D01*
X135821989Y-126796724D01*
G37*
%TD.AperFunction*%
%TD*%
%TA.AperFunction,Conductor*%
%TO.N,+VDC*%
G36*
X133213721Y-81282516D02*
G01*
X133650755Y-81719489D01*
X133654037Y-81725926D01*
X133652911Y-81733065D01*
X133044904Y-82928908D01*
X133038536Y-82934578D01*
X133030010Y-82934420D01*
X132304687Y-82634962D01*
X132300879Y-82632420D01*
X132298337Y-82628612D01*
X131998877Y-81903287D01*
X131998720Y-81894764D01*
X132004388Y-81888396D01*
X133200148Y-81280361D01*
X133207284Y-81279236D01*
X133213721Y-81282516D01*
G37*
%TD.AperFunction*%
%TD*%
%TA.AperFunction,Conductor*%
%TO.N,FuelPressure3*%
G36*
X111598762Y-139393096D02*
G01*
X111602671Y-139397742D01*
X111745450Y-139703365D01*
X111746007Y-139711839D01*
X111740685Y-139718458D01*
X111187909Y-140036541D01*
X111182074Y-140038100D01*
X110945931Y-140038100D01*
X110938023Y-140035022D01*
X110934275Y-140027409D01*
X110907777Y-139721212D01*
X110909290Y-139714372D01*
X110914436Y-139709624D01*
X111587078Y-139392113D01*
X111593051Y-139391035D01*
X111598762Y-139393096D01*
G37*
%TD.AperFunction*%
%TD*%
%TA.AperFunction,Conductor*%
%TO.N,IN3TTL*%
G36*
X233012613Y-69100269D02*
G01*
X233327364Y-69276875D01*
X233390314Y-69312196D01*
X233395567Y-69318353D01*
X233395567Y-69326447D01*
X233390314Y-69332604D01*
X233012616Y-69544529D01*
X233007435Y-69546012D01*
X233002139Y-69545017D01*
X232789448Y-69450488D01*
X232784390Y-69446171D01*
X232782500Y-69439796D01*
X232782500Y-69205004D01*
X232784390Y-69198629D01*
X232789448Y-69194312D01*
X232789447Y-69194312D01*
X233002141Y-69099781D01*
X233007435Y-69098787D01*
X233012613Y-69100269D01*
G37*
%TD.AperFunction*%
%TD*%
%TA.AperFunction,Conductor*%
%TO.N,Sense1-3*%
G36*
X125865201Y-121120658D02*
G01*
X126547778Y-121637306D01*
X126551694Y-121642585D01*
X126552145Y-121649142D01*
X126548990Y-121654908D01*
X126382150Y-121821748D01*
X126381228Y-121822577D01*
X125865269Y-122239274D01*
X125857298Y-122241856D01*
X125849645Y-122238445D01*
X125298976Y-121687776D01*
X125295946Y-121682526D01*
X125295950Y-121676465D01*
X125298985Y-121671221D01*
X125849878Y-121121703D01*
X125857344Y-121118314D01*
X125865201Y-121120658D01*
G37*
%TD.AperFunction*%
%TD*%
%TA.AperFunction,Conductor*%
%TO.N,GND*%
G36*
X231815789Y-69329725D02*
G01*
X231996557Y-69511297D01*
X232026843Y-69541718D01*
X232030058Y-69547850D01*
X232029244Y-69554725D01*
X231935588Y-69765452D01*
X231931271Y-69770510D01*
X231924896Y-69772400D01*
X231690104Y-69772400D01*
X231683729Y-69770510D01*
X231679412Y-69765452D01*
X231585754Y-69554723D01*
X231584941Y-69547850D01*
X231588155Y-69541719D01*
X231799210Y-69329725D01*
X231804463Y-69326683D01*
X231810537Y-69326683D01*
X231815789Y-69329725D01*
G37*
%TD.AperFunction*%
%TD*%
%TA.AperFunction,Conductor*%
%TO.N,Net-(IC3-OSC1)*%
G36*
X194867939Y-126503279D02*
G01*
X194871525Y-126508398D01*
X195269846Y-127632204D01*
X195270518Y-127636113D01*
X195270518Y-127868457D01*
X195268347Y-127875246D01*
X195262638Y-127879516D01*
X195255512Y-127879679D01*
X194903826Y-127776086D01*
X193899955Y-127480382D01*
X193894509Y-127476924D01*
X193891724Y-127471105D01*
X193892446Y-127464695D01*
X194171646Y-126788291D01*
X194174185Y-126784485D01*
X194177987Y-126781943D01*
X194856028Y-126501494D01*
X194862229Y-126500736D01*
X194867939Y-126503279D01*
G37*
%TD.AperFunction*%
%TD*%
%TA.AperFunction,Conductor*%
%TO.N,Sense1-2*%
G36*
X202723689Y-108173718D02*
G01*
X202872209Y-108237991D01*
X203444286Y-108485562D01*
X203450472Y-108491879D01*
X203450472Y-108500721D01*
X203444286Y-108507038D01*
X202723690Y-108818880D01*
X202718206Y-108819812D01*
X202712911Y-108818106D01*
X202398668Y-108624726D01*
X202394586Y-108620469D01*
X202393100Y-108614762D01*
X202393100Y-108377838D01*
X202394586Y-108372131D01*
X202398668Y-108367874D01*
X202712911Y-108174493D01*
X202718206Y-108172787D01*
X202723689Y-108173718D01*
G37*
%TD.AperFunction*%
%TD*%
%TA.AperFunction,Conductor*%
%TO.N,+VDC*%
G36*
X137579115Y-78887206D02*
G01*
X137585226Y-78893435D01*
X137947435Y-79765511D01*
X137948330Y-79769999D01*
X137947435Y-79774487D01*
X137585226Y-80646564D01*
X137579115Y-80652793D01*
X137570392Y-80653061D01*
X136035971Y-80090313D01*
X136030408Y-80086027D01*
X136028300Y-80079328D01*
X136028300Y-79460672D01*
X136030408Y-79453973D01*
X136035971Y-79449687D01*
X136582726Y-79249164D01*
X137570393Y-78886938D01*
X137579115Y-78887206D01*
G37*
%TD.AperFunction*%
%TD*%
%TA.AperFunction,Conductor*%
%TO.N,FuelPressure3*%
G36*
X110853289Y-139065518D02*
G01*
X111001809Y-139129791D01*
X111573886Y-139377362D01*
X111580072Y-139383679D01*
X111580072Y-139392521D01*
X111573886Y-139398838D01*
X110853290Y-139710680D01*
X110847806Y-139711612D01*
X110842511Y-139709906D01*
X110528268Y-139516526D01*
X110524186Y-139512269D01*
X110522700Y-139506562D01*
X110522700Y-139269638D01*
X110524186Y-139263931D01*
X110528268Y-139259674D01*
X110842511Y-139066293D01*
X110847806Y-139064587D01*
X110853289Y-139065518D01*
G37*
%TD.AperFunction*%
%TD*%
%TA.AperFunction,Conductor*%
%TO.N,Net-(Q9-Pad1)*%
G36*
X135701728Y-61147925D02*
G01*
X135705376Y-61152842D01*
X136068565Y-62079455D01*
X136069125Y-62086117D01*
X136065945Y-62091998D01*
X135899998Y-62257945D01*
X135894117Y-62261125D01*
X135887455Y-62260565D01*
X134960842Y-61897376D01*
X134955925Y-61893728D01*
X134953524Y-61888097D01*
X134954294Y-61882026D01*
X135167237Y-61365593D01*
X135169781Y-61361781D01*
X135173594Y-61359237D01*
X135690026Y-61146294D01*
X135696097Y-61145524D01*
X135701728Y-61147925D01*
G37*
%TD.AperFunction*%
%TD*%
%TA.AperFunction,Conductor*%
%TO.N,Net-(Q14-Pad1)*%
G36*
X149255815Y-66363580D02*
G01*
X149692944Y-66800656D01*
X149696219Y-66807049D01*
X149695142Y-66814150D01*
X148800464Y-68608623D01*
X148794095Y-68614360D01*
X148785525Y-68614216D01*
X147839383Y-68223262D01*
X147835578Y-68220722D01*
X147833038Y-68216918D01*
X147442152Y-67270774D01*
X147442009Y-67262204D01*
X147447745Y-67255837D01*
X149242326Y-66361382D01*
X149249423Y-66360306D01*
X149255815Y-66363580D01*
G37*
%TD.AperFunction*%
%TD*%
%TA.AperFunction,Conductor*%
%TO.N,SCL*%
G36*
X136296010Y-105057302D02*
G01*
X137537062Y-105734273D01*
X137542489Y-105740642D01*
X137542272Y-105749009D01*
X137223562Y-106520814D01*
X137221021Y-106524621D01*
X137217214Y-106527162D01*
X136445409Y-106845872D01*
X136437042Y-106846089D01*
X136430673Y-106840662D01*
X135753702Y-105599610D01*
X135752393Y-105592340D01*
X135755699Y-105585737D01*
X136282137Y-105059299D01*
X136288740Y-105055993D01*
X136296010Y-105057302D01*
G37*
%TD.AperFunction*%
%TD*%
%TA.AperFunction,Conductor*%
%TO.N,SCL*%
G36*
X165029146Y-113639295D02*
G01*
X165754912Y-113938937D01*
X165758720Y-113941479D01*
X165761262Y-113945287D01*
X166060903Y-114671052D01*
X166061149Y-114679330D01*
X166055855Y-114685697D01*
X164904483Y-115337890D01*
X164897141Y-115339304D01*
X164890443Y-115335983D01*
X164364216Y-114809756D01*
X164360895Y-114803058D01*
X164362308Y-114795717D01*
X165014504Y-113644342D01*
X165020869Y-113639050D01*
X165029146Y-113639295D01*
G37*
%TD.AperFunction*%
%TD*%
%TA.AperFunction,Conductor*%
%TO.N,Net-(Q13-Pad1)*%
G36*
X132589370Y-77356540D02*
G01*
X132593370Y-77363477D01*
X132591972Y-77371362D01*
X132585831Y-77376501D01*
X131647384Y-77716438D01*
X131639491Y-77716465D01*
X131633377Y-77711475D01*
X131631823Y-77703737D01*
X131635536Y-77696774D01*
X132010154Y-77356835D01*
X132018016Y-77353800D01*
X132581846Y-77353800D01*
X132589370Y-77356540D01*
G37*
%TD.AperFunction*%
%TD*%
%TA.AperFunction,Conductor*%
%TO.N,Sense1-5*%
G36*
X180691093Y-88290432D02*
G01*
X180887347Y-88487621D01*
X180890523Y-88493559D01*
X180889899Y-88500264D01*
X180810759Y-88695790D01*
X180806454Y-88701102D01*
X180799914Y-88703100D01*
X180565686Y-88703100D01*
X180559146Y-88701102D01*
X180554841Y-88695790D01*
X180475700Y-88500264D01*
X180475076Y-88493559D01*
X180478250Y-88487623D01*
X180674508Y-88290431D01*
X180679763Y-88287386D01*
X180685837Y-88287386D01*
X180691093Y-88290432D01*
G37*
%TD.AperFunction*%
%TD*%
%TA.AperFunction,Conductor*%
%TO.N,Net-(Q17-Pad1)*%
G36*
X135395470Y-84332429D02*
G01*
X135399584Y-84338964D01*
X135608622Y-85250132D01*
X135607620Y-85258104D01*
X135601713Y-85263550D01*
X135084094Y-85478929D01*
X135079599Y-85479827D01*
X135075104Y-85478929D01*
X134557493Y-85263553D01*
X134551584Y-85258103D01*
X134550586Y-85250127D01*
X134760410Y-84338952D01*
X134764526Y-84332426D01*
X134771812Y-84329880D01*
X135388180Y-84329880D01*
X135395470Y-84332429D01*
G37*
%TD.AperFunction*%
%TD*%
%TA.AperFunction,Conductor*%
%TO.N,CANCS*%
G36*
X203757809Y-122552781D02*
G01*
X203765097Y-122556659D01*
X203768009Y-122564384D01*
X203768009Y-122797132D01*
X203766362Y-122803118D01*
X203761884Y-122807419D01*
X203314085Y-123050096D01*
X203307802Y-123051488D01*
X203301733Y-123049346D01*
X203297715Y-123044321D01*
X203187810Y-122781278D01*
X203186907Y-122776736D01*
X203187855Y-122492361D01*
X203189696Y-122486102D01*
X203194606Y-122481801D01*
X203201052Y-122480800D01*
X203757809Y-122552781D01*
G37*
%TD.AperFunction*%
%TD*%
%TA.AperFunction,Conductor*%
%TO.N,/BufferedADC1/ADCIN4*%
G36*
X113866906Y-134958846D02*
G01*
X114621741Y-135452693D01*
X114626513Y-135459027D01*
X114626150Y-135466949D01*
X114329168Y-136186277D01*
X114325484Y-136191088D01*
X114319888Y-136193411D01*
X114313881Y-136192624D01*
X113595104Y-135895299D01*
X113588834Y-135889123D01*
X113588642Y-135880325D01*
X113848800Y-135197000D01*
X113848800Y-134968637D01*
X113851679Y-134960951D01*
X113858898Y-134957047D01*
X113866906Y-134958846D01*
G37*
%TD.AperFunction*%
%TD*%
%TA.AperFunction,Conductor*%
%TO.N,+5V*%
G36*
X204223288Y-109444493D02*
G01*
X204537532Y-109637874D01*
X204541614Y-109642131D01*
X204543100Y-109647838D01*
X204543100Y-109884762D01*
X204541614Y-109890469D01*
X204537532Y-109894726D01*
X204223288Y-110088106D01*
X204217993Y-110089812D01*
X204212509Y-110088880D01*
X203491913Y-109777038D01*
X203485727Y-109770721D01*
X203485727Y-109761879D01*
X203491913Y-109755562D01*
X203740838Y-109647838D01*
X204212511Y-109443718D01*
X204217993Y-109442787D01*
X204223288Y-109444493D01*
G37*
%TD.AperFunction*%
%TD*%
%TA.AperFunction,Conductor*%
%TO.N,GND*%
G36*
X231815789Y-67729725D02*
G01*
X231996557Y-67911297D01*
X232026843Y-67941718D01*
X232030058Y-67947850D01*
X232029244Y-67954725D01*
X231935588Y-68165452D01*
X231931271Y-68170510D01*
X231924896Y-68172400D01*
X231690104Y-68172400D01*
X231683729Y-68170510D01*
X231679412Y-68165452D01*
X231679411Y-68165451D01*
X231585754Y-67954723D01*
X231584941Y-67947850D01*
X231588155Y-67941719D01*
X231799210Y-67729725D01*
X231804463Y-67726683D01*
X231810537Y-67726683D01*
X231815789Y-67729725D01*
G37*
%TD.AperFunction*%
%TD*%
%TA.AperFunction,Conductor*%
%TO.N,+VDC*%
G36*
X131720987Y-69803277D02*
G01*
X132446312Y-70102737D01*
X132450120Y-70105279D01*
X132452662Y-70109087D01*
X132752120Y-70834409D01*
X132752278Y-70842935D01*
X132746607Y-70849304D01*
X131550765Y-71457267D01*
X131543628Y-71458392D01*
X131537190Y-71455110D01*
X131100189Y-71018109D01*
X131096907Y-71011671D01*
X131098032Y-71004535D01*
X131706095Y-69808789D01*
X131712464Y-69803120D01*
X131720987Y-69803277D01*
G37*
%TD.AperFunction*%
%TD*%
%TA.AperFunction,Conductor*%
%TO.N,+5V*%
G36*
X202514766Y-109551564D02*
G01*
X202792701Y-109638729D01*
X202798630Y-109642967D01*
X202800900Y-109649893D01*
X202800900Y-109882707D01*
X202798630Y-109889633D01*
X202792701Y-109893871D01*
X202325887Y-110040270D01*
X202317450Y-110039714D01*
X202311591Y-110033618D01*
X202201783Y-109770807D01*
X202200880Y-109766300D01*
X202201783Y-109761792D01*
X202311592Y-109498979D01*
X202317450Y-109492885D01*
X202325886Y-109492329D01*
X202514766Y-109551564D01*
G37*
%TD.AperFunction*%
%TD*%
%TA.AperFunction,Conductor*%
%TO.N,/CAN Bus/CAN_INT*%
G36*
X199857388Y-124897293D02*
G01*
X200171632Y-125090674D01*
X200175714Y-125094931D01*
X200177200Y-125100638D01*
X200177200Y-125337562D01*
X200175714Y-125343269D01*
X200171632Y-125347526D01*
X199857388Y-125540906D01*
X199852093Y-125542612D01*
X199846609Y-125541680D01*
X199126013Y-125229838D01*
X199119827Y-125223521D01*
X199119827Y-125214679D01*
X199126013Y-125208362D01*
X199374938Y-125100638D01*
X199846611Y-124896518D01*
X199852093Y-124895587D01*
X199857388Y-124897293D01*
G37*
%TD.AperFunction*%
%TD*%
%TA.AperFunction,Conductor*%
%TO.N,Sense2-7*%
G36*
X134328089Y-123951218D02*
G01*
X134476609Y-124015491D01*
X135048686Y-124263062D01*
X135054872Y-124269379D01*
X135054872Y-124278221D01*
X135048686Y-124284538D01*
X134328090Y-124596380D01*
X134322606Y-124597312D01*
X134317311Y-124595606D01*
X134003068Y-124402226D01*
X133998986Y-124397969D01*
X133997500Y-124392262D01*
X133997500Y-124155338D01*
X133998986Y-124149631D01*
X134003068Y-124145374D01*
X134317311Y-123951993D01*
X134322606Y-123950287D01*
X134328089Y-123951218D01*
G37*
%TD.AperFunction*%
%TD*%
%TA.AperFunction,Conductor*%
%TO.N,GND*%
G36*
X85224620Y-64243380D02*
G01*
X86107719Y-65126479D01*
X86111131Y-65134151D01*
X86108524Y-65142133D01*
X85108655Y-66371935D01*
X85103376Y-66375620D01*
X85096947Y-66375955D01*
X85091314Y-66372837D01*
X84534093Y-65817007D01*
X84534073Y-65816987D01*
X83978262Y-65259785D01*
X83975144Y-65254152D01*
X83975479Y-65247723D01*
X83979162Y-65242445D01*
X85208969Y-64242573D01*
X85216948Y-64239968D01*
X85224620Y-64243380D01*
G37*
%TD.AperFunction*%
%TD*%
%TA.AperFunction,Conductor*%
%TO.N,Net-(Q17-Pad1)*%
G36*
X136220521Y-85160213D02*
G01*
X136227053Y-85164328D01*
X136229600Y-85171616D01*
X136229600Y-85787984D01*
X136227053Y-85795272D01*
X136220521Y-85799386D01*
X135794748Y-85897241D01*
X135309270Y-86008818D01*
X135301295Y-86007818D01*
X135295848Y-86001911D01*
X135080469Y-85484293D01*
X135079572Y-85479800D01*
X135080470Y-85475305D01*
X135295849Y-84957686D01*
X135301295Y-84951781D01*
X135309268Y-84950781D01*
X136220521Y-85160213D01*
G37*
%TD.AperFunction*%
%TD*%
%TA.AperFunction,Conductor*%
%TO.N,Sense1-2*%
G36*
X181139654Y-91182798D02*
G01*
X181143959Y-91188110D01*
X181223099Y-91383635D01*
X181223723Y-91390340D01*
X181220547Y-91396278D01*
X181024293Y-91593467D01*
X181019037Y-91596513D01*
X181012963Y-91596513D01*
X181007707Y-91593467D01*
X180811452Y-91396278D01*
X180808276Y-91390340D01*
X180808900Y-91383635D01*
X180888041Y-91188110D01*
X180892347Y-91182798D01*
X180898886Y-91180800D01*
X181133114Y-91180800D01*
X181139654Y-91182798D01*
G37*
%TD.AperFunction*%
%TD*%
%TA.AperFunction,Conductor*%
%TO.N,OilPressure*%
G36*
X128928089Y-120141218D02*
G01*
X129648686Y-120453062D01*
X129654872Y-120459378D01*
X129654872Y-120468220D01*
X129648686Y-120474537D01*
X128928090Y-120786380D01*
X128922606Y-120787312D01*
X128917311Y-120785606D01*
X128603068Y-120592226D01*
X128598986Y-120587969D01*
X128597500Y-120582262D01*
X128597500Y-120345338D01*
X128598986Y-120339631D01*
X128603068Y-120335374D01*
X128917311Y-120141993D01*
X128922606Y-120140287D01*
X128928089Y-120141218D01*
G37*
%TD.AperFunction*%
%TD*%
%TA.AperFunction,Conductor*%
%TO.N,FuelPressure2*%
G36*
X106952888Y-137796293D02*
G01*
X107267132Y-137989674D01*
X107271214Y-137993931D01*
X107272700Y-137999638D01*
X107272700Y-138236562D01*
X107271214Y-138242269D01*
X107267132Y-138246526D01*
X106952888Y-138439906D01*
X106947593Y-138441612D01*
X106942109Y-138440680D01*
X106221513Y-138128838D01*
X106215327Y-138122521D01*
X106215327Y-138113679D01*
X106221513Y-138107362D01*
X106470438Y-137999638D01*
X106942111Y-137795518D01*
X106947593Y-137794587D01*
X106952888Y-137796293D01*
G37*
%TD.AperFunction*%
%TD*%
%TA.AperFunction,Conductor*%
%TO.N,+VDC*%
G36*
X131407305Y-55156089D02*
G01*
X132015406Y-56351699D01*
X132016533Y-56358836D01*
X132013252Y-56365274D01*
X131576361Y-56802387D01*
X131569923Y-56805671D01*
X131562785Y-56804546D01*
X131060077Y-56549011D01*
X130366792Y-56196603D01*
X130361121Y-56190234D01*
X130361278Y-56181710D01*
X130660738Y-55456385D01*
X130663279Y-55452580D01*
X130667084Y-55450039D01*
X131392412Y-55150577D01*
X131400936Y-55150420D01*
X131407305Y-55156089D01*
G37*
%TD.AperFunction*%
%TD*%
%TA.AperFunction,Conductor*%
%TO.N,Logging*%
G36*
X233409974Y-70127516D02*
G01*
X233414406Y-70131663D01*
X233543730Y-70339648D01*
X233545428Y-70347066D01*
X233542204Y-70353960D01*
X233317460Y-70586335D01*
X233312204Y-70589468D01*
X233306085Y-70589519D01*
X233300777Y-70586474D01*
X233132413Y-70418110D01*
X233060357Y-70357736D01*
X233056521Y-70351609D01*
X233057018Y-70344397D01*
X233061657Y-70338855D01*
X233398260Y-70127925D01*
X233404060Y-70126148D01*
X233409974Y-70127516D01*
G37*
%TD.AperFunction*%
%TD*%
%TA.AperFunction,Conductor*%
%TO.N,SCLK*%
G36*
X205257388Y-126167293D02*
G01*
X205571632Y-126360674D01*
X205575714Y-126364931D01*
X205577200Y-126370638D01*
X205577200Y-126607562D01*
X205575714Y-126613269D01*
X205571632Y-126617526D01*
X205257388Y-126810906D01*
X205252093Y-126812612D01*
X205246609Y-126811680D01*
X204526013Y-126499837D01*
X204519827Y-126493520D01*
X204519827Y-126484678D01*
X204526011Y-126478362D01*
X205246611Y-126166518D01*
X205252093Y-126165587D01*
X205257388Y-126167293D01*
G37*
%TD.AperFunction*%
%TD*%
%TA.AperFunction,Conductor*%
%TO.N,CAN_TX_STBY*%
G36*
X202723689Y-105633718D02*
G01*
X202872209Y-105697991D01*
X203444286Y-105945562D01*
X203450472Y-105951879D01*
X203450472Y-105960721D01*
X203444286Y-105967038D01*
X202723690Y-106278880D01*
X202718206Y-106279812D01*
X202712911Y-106278106D01*
X202398668Y-106084726D01*
X202394586Y-106080469D01*
X202393100Y-106074762D01*
X202393100Y-105837838D01*
X202394586Y-105832131D01*
X202398668Y-105827874D01*
X202712911Y-105634493D01*
X202718206Y-105632787D01*
X202723689Y-105633718D01*
G37*
%TD.AperFunction*%
%TD*%
%TA.AperFunction,Conductor*%
%TO.N,Sense1-3*%
G36*
X128928089Y-121411218D02*
G01*
X129076609Y-121475491D01*
X129648686Y-121723062D01*
X129654872Y-121729379D01*
X129654872Y-121738221D01*
X129648686Y-121744538D01*
X128928090Y-122056380D01*
X128922606Y-122057312D01*
X128917311Y-122055606D01*
X128603068Y-121862226D01*
X128598986Y-121857969D01*
X128597500Y-121852262D01*
X128597500Y-121615338D01*
X128598986Y-121609631D01*
X128603068Y-121605374D01*
X128917311Y-121411993D01*
X128922606Y-121410287D01*
X128928089Y-121411218D01*
G37*
%TD.AperFunction*%
%TD*%
%TA.AperFunction,Conductor*%
%TO.N,Sense1-9*%
G36*
X105453289Y-136525518D02*
G01*
X105601809Y-136589791D01*
X106173886Y-136837362D01*
X106180072Y-136843679D01*
X106180072Y-136852521D01*
X106173886Y-136858838D01*
X105453290Y-137170680D01*
X105447806Y-137171612D01*
X105442511Y-137169906D01*
X105128268Y-136976526D01*
X105124186Y-136972269D01*
X105122700Y-136966562D01*
X105122700Y-136729638D01*
X105124186Y-136723931D01*
X105128268Y-136719674D01*
X105442511Y-136526293D01*
X105447806Y-136524587D01*
X105453289Y-136525518D01*
G37*
%TD.AperFunction*%
%TD*%
%TA.AperFunction,Conductor*%
%TO.N,Net-(Q22-Pad1)*%
G36*
X96176531Y-84975474D02*
G01*
X97282956Y-85875033D01*
X97406335Y-85975344D01*
X97410020Y-85980623D01*
X97410355Y-85987052D01*
X97407237Y-85992685D01*
X96851427Y-86549887D01*
X96851407Y-86549907D01*
X96294185Y-87105737D01*
X96288552Y-87108855D01*
X96282123Y-87108520D01*
X96276844Y-87104835D01*
X95276974Y-85875031D01*
X95274368Y-85867051D01*
X95277779Y-85859380D01*
X96160880Y-84976279D01*
X96168551Y-84972868D01*
X96176531Y-84975474D01*
G37*
%TD.AperFunction*%
%TD*%
%TA.AperFunction,Conductor*%
%TO.N,SpareADC2*%
G36*
X135080786Y-125551111D02*
G01*
X135390986Y-125862266D01*
X135394321Y-125869171D01*
X135392664Y-125876658D01*
X135200926Y-126188232D01*
X135196669Y-126192314D01*
X135190962Y-126193800D01*
X134954038Y-126193800D01*
X134948331Y-126192314D01*
X134944074Y-126188232D01*
X134867378Y-126063602D01*
X134752334Y-125876656D01*
X134750678Y-125869171D01*
X134754012Y-125862267D01*
X135064215Y-125551110D01*
X135069466Y-125548071D01*
X135075534Y-125548071D01*
X135080786Y-125551111D01*
G37*
%TD.AperFunction*%
%TD*%
%TA.AperFunction,Conductor*%
%TO.N,Sense1-2*%
G36*
X174124234Y-87864623D02*
G01*
X174953206Y-88692621D01*
X174956537Y-88699365D01*
X174955072Y-88706745D01*
X174949418Y-88711706D01*
X174482800Y-88905099D01*
X174482800Y-89136948D01*
X174480303Y-89144172D01*
X174473879Y-89148313D01*
X174466269Y-89147604D01*
X173503321Y-88710956D01*
X173498193Y-88706438D01*
X173496464Y-88699825D01*
X173498724Y-88693375D01*
X174106540Y-87865971D01*
X174111809Y-87861964D01*
X174118414Y-87861460D01*
X174124234Y-87864623D01*
G37*
%TD.AperFunction*%
%TD*%
%TA.AperFunction,Conductor*%
%TO.N,Net-(Q13-Pad1)*%
G36*
X134994585Y-70106164D02*
G01*
X135720147Y-70407683D01*
X135726038Y-70413091D01*
X135727080Y-70421020D01*
X135450533Y-71668106D01*
X135446433Y-71674698D01*
X135439110Y-71677273D01*
X134821104Y-71677273D01*
X134814728Y-71675383D01*
X134810412Y-71670324D01*
X134255864Y-70422401D01*
X134254931Y-70416324D01*
X134257208Y-70410614D01*
X134262064Y-70406847D01*
X134985614Y-70106164D01*
X134990100Y-70105269D01*
X134994585Y-70106164D01*
G37*
%TD.AperFunction*%
%TD*%
%TA.AperFunction,Conductor*%
%TO.N,FuelPressure2*%
G36*
X106940768Y-139676463D02*
G01*
X106945953Y-139680444D01*
X106948194Y-139686588D01*
X106970769Y-140025623D01*
X106969477Y-140031795D01*
X106965168Y-140036400D01*
X106959095Y-140038100D01*
X106724333Y-140038100D01*
X106719151Y-140036890D01*
X106073559Y-139717936D01*
X106067795Y-139711579D01*
X106067919Y-139703000D01*
X106193336Y-139397721D01*
X106199548Y-139391416D01*
X106208400Y-139391267D01*
X106940768Y-139676463D01*
G37*
%TD.AperFunction*%
%TD*%
%TA.AperFunction,Conductor*%
%TO.N,Net-(Q9-Pad1)*%
G36*
X136987850Y-62182138D02*
G01*
X136992632Y-62185032D01*
X137939006Y-63131406D01*
X137942202Y-63137366D01*
X137941566Y-63144100D01*
X137937309Y-63149356D01*
X136997002Y-63788365D01*
X136988845Y-63790281D01*
X136981498Y-63786250D01*
X136437564Y-63144100D01*
X136080397Y-62722440D01*
X136077636Y-62714396D01*
X136081051Y-62706608D01*
X136519838Y-62267770D01*
X136526023Y-62264532D01*
X136982272Y-62181793D01*
X136987850Y-62182138D01*
G37*
%TD.AperFunction*%
%TD*%
%TA.AperFunction,Conductor*%
%TO.N,Net-(Q22-Pad1)*%
G36*
X98850585Y-82874662D02*
G01*
X99407807Y-83430493D01*
X99407827Y-83430513D01*
X99963637Y-83987714D01*
X99966755Y-83993347D01*
X99966420Y-83999776D01*
X99962735Y-84005055D01*
X98732933Y-85004924D01*
X98724951Y-85007531D01*
X98717279Y-85004119D01*
X97834180Y-84121020D01*
X97830768Y-84113348D01*
X97833373Y-84105369D01*
X98833245Y-82875562D01*
X98838523Y-82871879D01*
X98844952Y-82871544D01*
X98850585Y-82874662D01*
G37*
%TD.AperFunction*%
%TD*%
%TA.AperFunction,Conductor*%
%TO.N,GND*%
G36*
X191072712Y-107335772D02*
G01*
X191239027Y-107502087D01*
X191242168Y-107507789D01*
X191241775Y-107514287D01*
X190767729Y-108844868D01*
X190764142Y-108849976D01*
X190758439Y-108852512D01*
X190752243Y-108851756D01*
X190028287Y-108552862D01*
X190024479Y-108550320D01*
X190021937Y-108546512D01*
X189723043Y-107822556D01*
X189722287Y-107816360D01*
X189724823Y-107810657D01*
X189729927Y-107807072D01*
X191060516Y-107333023D01*
X191067010Y-107332631D01*
X191072712Y-107335772D01*
G37*
%TD.AperFunction*%
%TD*%
%TA.AperFunction,Conductor*%
%TO.N,+VDC*%
G36*
X137579115Y-55788606D02*
G01*
X137585226Y-55794835D01*
X137947435Y-56666912D01*
X137948330Y-56671400D01*
X137947435Y-56675888D01*
X137585226Y-57547964D01*
X137579115Y-57554193D01*
X137570392Y-57554461D01*
X136035971Y-56991713D01*
X136030408Y-56987427D01*
X136028300Y-56980728D01*
X136028300Y-56362072D01*
X136030408Y-56355373D01*
X136035971Y-56351087D01*
X136582726Y-56150564D01*
X137570393Y-55788338D01*
X137579115Y-55788606D01*
G37*
%TD.AperFunction*%
%TD*%
%TA.AperFunction,Conductor*%
%TO.N,GND*%
G36*
X116135955Y-135895642D02*
G01*
X116152639Y-135902531D01*
X116859912Y-136194537D01*
X116863720Y-136197079D01*
X116866262Y-136200887D01*
X117165156Y-136924843D01*
X117165912Y-136931039D01*
X117163376Y-136936742D01*
X117158268Y-136940329D01*
X115827687Y-137414375D01*
X115821189Y-137414768D01*
X115815487Y-137411627D01*
X115649172Y-137245312D01*
X115646031Y-137239610D01*
X115646423Y-137233116D01*
X116120472Y-135902527D01*
X116124057Y-135897423D01*
X116129760Y-135894887D01*
X116135955Y-135895642D01*
G37*
%TD.AperFunction*%
%TD*%
%TA.AperFunction,Conductor*%
%TO.N,Sense1-5*%
G36*
X202723689Y-106903718D02*
G01*
X202872209Y-106967991D01*
X203444286Y-107215562D01*
X203450472Y-107221879D01*
X203450472Y-107230721D01*
X203444286Y-107237038D01*
X202723690Y-107548880D01*
X202718206Y-107549812D01*
X202712911Y-107548106D01*
X202398668Y-107354726D01*
X202394586Y-107350469D01*
X202393100Y-107344762D01*
X202393100Y-107107838D01*
X202394586Y-107102131D01*
X202398668Y-107097874D01*
X202712911Y-106904493D01*
X202718206Y-106902787D01*
X202723689Y-106903718D01*
G37*
%TD.AperFunction*%
%TD*%
%TA.AperFunction,Conductor*%
%TO.N,+VDC*%
G36*
X93296393Y-78963321D02*
G01*
X93301499Y-78967630D01*
X93303414Y-78974032D01*
X93304400Y-79920200D01*
X93304400Y-79920224D01*
X93303414Y-80866367D01*
X93301499Y-80872769D01*
X93296393Y-80877078D01*
X93289761Y-80877891D01*
X91907289Y-80643879D01*
X91393146Y-80556849D01*
X91386163Y-80552865D01*
X91383400Y-80545314D01*
X91383400Y-79295086D01*
X91386163Y-79287535D01*
X91393146Y-79283550D01*
X93289763Y-78962508D01*
X93296393Y-78963321D01*
G37*
%TD.AperFunction*%
%TD*%
%TA.AperFunction,Conductor*%
%TO.N,SCLK*%
G36*
X203757789Y-126166518D02*
G01*
X204478386Y-126478362D01*
X204484572Y-126484678D01*
X204484572Y-126493520D01*
X204478386Y-126499837D01*
X203757790Y-126811680D01*
X203752306Y-126812612D01*
X203747011Y-126810906D01*
X203432768Y-126617526D01*
X203428686Y-126613269D01*
X203427200Y-126607562D01*
X203427200Y-126370638D01*
X203428686Y-126364931D01*
X203432768Y-126360674D01*
X203747011Y-126167293D01*
X203752306Y-126165587D01*
X203757789Y-126166518D01*
G37*
%TD.AperFunction*%
%TD*%
%TA.AperFunction,Conductor*%
%TO.N,Sense1-5*%
G36*
X176857949Y-93503665D02*
G01*
X178134017Y-94109328D01*
X178138889Y-94113645D01*
X178140700Y-94119898D01*
X178140700Y-94355102D01*
X178138889Y-94361355D01*
X178134017Y-94365672D01*
X176857951Y-94971333D01*
X176851802Y-94972408D01*
X176845976Y-94970169D01*
X176842130Y-94965253D01*
X176592964Y-94365672D01*
X176541564Y-94241986D01*
X176540669Y-94237499D01*
X176541563Y-94233015D01*
X176842130Y-93509745D01*
X176845976Y-93504830D01*
X176851802Y-93502591D01*
X176857949Y-93503665D01*
G37*
%TD.AperFunction*%
%TD*%
%TA.AperFunction,Conductor*%
%TO.N,+VDC*%
G36*
X125052149Y-60790091D02*
G01*
X125612882Y-61041202D01*
X125617919Y-61045518D01*
X125619800Y-61051880D01*
X125619800Y-61671720D01*
X125617919Y-61678082D01*
X125612882Y-61682398D01*
X125052149Y-61933508D01*
X125045252Y-61934337D01*
X125039101Y-61931110D01*
X124477094Y-61370080D01*
X124474060Y-61364831D01*
X124474060Y-61358769D01*
X124477094Y-61353520D01*
X124789956Y-61041202D01*
X125039101Y-60792488D01*
X125045252Y-60789262D01*
X125052149Y-60790091D01*
G37*
%TD.AperFunction*%
%TD*%
%TA.AperFunction,Conductor*%
%TO.N,GPSTX*%
G36*
X84073637Y-105146968D02*
G01*
X84083453Y-105152630D01*
X84786900Y-105558400D01*
X85014022Y-105558400D01*
X85021842Y-105561397D01*
X85025655Y-105568854D01*
X85023508Y-105576949D01*
X84345877Y-106515510D01*
X84340609Y-106519574D01*
X84333976Y-106520109D01*
X84328125Y-106516941D01*
X83742334Y-105932125D01*
X83739126Y-105926135D01*
X83739788Y-105919375D01*
X84056982Y-105152627D01*
X84061076Y-105147522D01*
X84067276Y-105145414D01*
X84073637Y-105146968D01*
G37*
%TD.AperFunction*%
%TD*%
%TA.AperFunction,Conductor*%
%TO.N,SCL*%
G36*
X138057048Y-106524588D02*
G01*
X138063477Y-106526520D01*
X138067786Y-106531668D01*
X138068556Y-106538337D01*
X137843133Y-107805732D01*
X137839887Y-107811956D01*
X137314439Y-108337404D01*
X137308203Y-108340652D01*
X137301232Y-108339740D01*
X137296042Y-108334996D01*
X136993040Y-107811956D01*
X136442392Y-106861429D01*
X136440826Y-106855069D01*
X136442924Y-106848865D01*
X136448024Y-106844761D01*
X137218138Y-106524788D01*
X137222628Y-106523894D01*
X138057048Y-106524588D01*
G37*
%TD.AperFunction*%
%TD*%
%TA.AperFunction,Conductor*%
%TO.N,GND*%
G36*
X124351297Y-148109609D02*
G01*
X124355292Y-148115101D01*
X124677989Y-149043945D01*
X124677941Y-149051759D01*
X124672986Y-149057800D01*
X123893962Y-149528307D01*
X123887877Y-149529992D01*
X123881804Y-149528270D01*
X123877508Y-149523643D01*
X123376169Y-148548851D01*
X123375124Y-148541096D01*
X123379199Y-148534417D01*
X123386574Y-148531800D01*
X123617400Y-148531800D01*
X124338323Y-148108849D01*
X124344923Y-148107261D01*
X124351297Y-148109609D01*
G37*
%TD.AperFunction*%
%TD*%
%TA.AperFunction,Conductor*%
%TO.N,Net-(Q9-Pad1)*%
G36*
X134585085Y-58566864D02*
G01*
X135184606Y-58816004D01*
X135309722Y-58867999D01*
X135315862Y-58873914D01*
X135316357Y-58882425D01*
X134901130Y-60157842D01*
X134896879Y-60163687D01*
X134890005Y-60165920D01*
X134271990Y-60165920D01*
X134265118Y-60163689D01*
X134260867Y-60157848D01*
X133844849Y-58882428D01*
X133845341Y-58873914D01*
X133851479Y-58867998D01*
X134576114Y-58566864D01*
X134580600Y-58565969D01*
X134585085Y-58566864D01*
G37*
%TD.AperFunction*%
%TD*%
%TA.AperFunction,Conductor*%
%TO.N,Net-(Q20-Pad1)*%
G36*
X133541346Y-52337485D02*
G01*
X133547266Y-52339102D01*
X133551553Y-52343493D01*
X133553028Y-52349451D01*
X133520760Y-53769250D01*
X133517242Y-53777351D01*
X133509063Y-53780684D01*
X132891144Y-53780684D01*
X132886061Y-53779522D01*
X132881987Y-53776267D01*
X132876406Y-53769250D01*
X132194107Y-52911348D01*
X132191584Y-52903408D01*
X132194984Y-52895802D01*
X132749868Y-52339937D01*
X132753670Y-52337396D01*
X132758159Y-52336506D01*
X133541346Y-52337485D01*
G37*
%TD.AperFunction*%
%TD*%
%TA.AperFunction,Conductor*%
%TO.N,+5V*%
G36*
X207657723Y-121023230D02*
G01*
X207661569Y-121028146D01*
X207962134Y-121751410D01*
X207963030Y-121755900D01*
X207962134Y-121760390D01*
X207661569Y-122483653D01*
X207657723Y-122488569D01*
X207651897Y-122490808D01*
X207645748Y-122489733D01*
X206369683Y-121884072D01*
X206364811Y-121879755D01*
X206363000Y-121873502D01*
X206363000Y-121638298D01*
X206364811Y-121632045D01*
X206369683Y-121627728D01*
X207645750Y-121022065D01*
X207651897Y-121020991D01*
X207657723Y-121023230D01*
G37*
%TD.AperFunction*%
%TD*%
%TA.AperFunction,Conductor*%
%TO.N,SpareADC3*%
G36*
X135827688Y-120141993D02*
G01*
X136141932Y-120335374D01*
X136146014Y-120339631D01*
X136147500Y-120345338D01*
X136147500Y-120582262D01*
X136146014Y-120587969D01*
X136141932Y-120592226D01*
X135827688Y-120785606D01*
X135822393Y-120787312D01*
X135816909Y-120786380D01*
X135096313Y-120474537D01*
X135090127Y-120468220D01*
X135090127Y-120459378D01*
X135096311Y-120453062D01*
X135816911Y-120141218D01*
X135822393Y-120140287D01*
X135827688Y-120141993D01*
G37*
%TD.AperFunction*%
%TD*%
%TA.AperFunction,Conductor*%
%TO.N,+VDC*%
G36*
X162916780Y-49276994D02*
G01*
X163476186Y-49837374D01*
X163479585Y-49844936D01*
X163477120Y-49852851D01*
X163037013Y-50415211D01*
X163032924Y-50418518D01*
X163027799Y-50419700D01*
X162789201Y-50419700D01*
X162784076Y-50418518D01*
X162779987Y-50415211D01*
X162339879Y-49852851D01*
X162337414Y-49844936D01*
X162340813Y-49837374D01*
X162900220Y-49276994D01*
X162905469Y-49273960D01*
X162911531Y-49273960D01*
X162916780Y-49276994D01*
G37*
%TD.AperFunction*%
%TD*%
%TA.AperFunction,Conductor*%
%TO.N,OilPressure*%
G36*
X128928089Y-118871218D02*
G01*
X129076609Y-118935491D01*
X129648686Y-119183062D01*
X129654872Y-119189379D01*
X129654872Y-119198221D01*
X129648686Y-119204538D01*
X128928090Y-119516380D01*
X128922606Y-119517312D01*
X128917311Y-119515606D01*
X128603068Y-119322226D01*
X128598986Y-119317969D01*
X128597500Y-119312262D01*
X128597500Y-119075338D01*
X128598986Y-119069631D01*
X128603068Y-119065374D01*
X128917311Y-118871993D01*
X128922606Y-118870287D01*
X128928089Y-118871218D01*
G37*
%TD.AperFunction*%
%TD*%
%TA.AperFunction,Conductor*%
%TO.N,Net-(Q17-Pad1)*%
G36*
X133604073Y-86956115D02*
G01*
X134041038Y-87393154D01*
X134044319Y-87399592D01*
X134043193Y-87406730D01*
X133435104Y-88602410D01*
X133428735Y-88608079D01*
X133420210Y-88607921D01*
X132694887Y-88308462D01*
X132691079Y-88305920D01*
X132688537Y-88302112D01*
X132389079Y-87576790D01*
X132388921Y-87568264D01*
X132394590Y-87561896D01*
X133590499Y-86953956D01*
X133597635Y-86952832D01*
X133604073Y-86956115D01*
G37*
%TD.AperFunction*%
%TD*%
%TA.AperFunction,Conductor*%
%TO.N,Net-(Q13-Pad1)*%
G36*
X135446471Y-71805867D02*
G01*
X135450586Y-71812400D01*
X135659919Y-72723629D01*
X135658919Y-72731603D01*
X135653011Y-72737051D01*
X135135395Y-72952429D01*
X135130900Y-72953327D01*
X135126405Y-72952429D01*
X134608790Y-72737052D01*
X134602882Y-72731603D01*
X134601883Y-72723628D01*
X134811413Y-71812398D01*
X134815528Y-71805867D01*
X134822815Y-71803320D01*
X135439183Y-71803320D01*
X135446471Y-71805867D01*
G37*
%TD.AperFunction*%
%TD*%
%TA.AperFunction,Conductor*%
%TO.N,Net-(Q20-Pad1)*%
G36*
X133192933Y-50773564D02*
G01*
X133629826Y-51210514D01*
X133632514Y-51214698D01*
X133633222Y-51219621D01*
X133554076Y-52326643D01*
X133550382Y-52334369D01*
X133542416Y-52337509D01*
X132757453Y-52338202D01*
X132752964Y-52337311D01*
X132749160Y-52334765D01*
X132195828Y-51780049D01*
X132192411Y-51771807D01*
X132195796Y-51763554D01*
X133176346Y-50773602D01*
X133181595Y-50770545D01*
X133187670Y-50770531D01*
X133192933Y-50773564D01*
G37*
%TD.AperFunction*%
%TD*%
%TA.AperFunction,Conductor*%
%TO.N,IN1TTL*%
G36*
X227657802Y-61066403D02*
G01*
X227661441Y-61071349D01*
X228036969Y-62042834D01*
X228037503Y-62049471D01*
X228034329Y-62055325D01*
X227868325Y-62221329D01*
X227862471Y-62224503D01*
X227855834Y-62223969D01*
X226884349Y-61848441D01*
X226879403Y-61844802D01*
X226876981Y-61839159D01*
X226877750Y-61833069D01*
X227100238Y-61293589D01*
X227102780Y-61289780D01*
X227106589Y-61287238D01*
X227646069Y-61064750D01*
X227652159Y-61063981D01*
X227657802Y-61066403D01*
G37*
%TD.AperFunction*%
%TD*%
%TA.AperFunction,Conductor*%
%TO.N,+VDC*%
G36*
X147828593Y-62183821D02*
G01*
X147833699Y-62188130D01*
X147835614Y-62194532D01*
X147836600Y-63140700D01*
X147836600Y-63140724D01*
X147835614Y-64086867D01*
X147833699Y-64093269D01*
X147828593Y-64097578D01*
X147821961Y-64098391D01*
X146439489Y-63864379D01*
X145925346Y-63777349D01*
X145918363Y-63773365D01*
X145915600Y-63765814D01*
X145915600Y-62515586D01*
X145918363Y-62508035D01*
X145925346Y-62504050D01*
X147821963Y-62183008D01*
X147828593Y-62183821D01*
G37*
%TD.AperFunction*%
%TD*%
%TA.AperFunction,Conductor*%
%TO.N,+VDC*%
G36*
X138863742Y-89519412D02*
G01*
X139747788Y-90403458D01*
X139751174Y-90410751D01*
X139749054Y-90418506D01*
X138635134Y-91986743D01*
X138629870Y-91990859D01*
X138623211Y-91991423D01*
X138617330Y-91988250D01*
X137947593Y-91319907D01*
X137947576Y-91319890D01*
X137279246Y-90650166D01*
X137276074Y-90644286D01*
X137276636Y-90637628D01*
X137280748Y-90632367D01*
X138362462Y-89863675D01*
X138364991Y-89862314D01*
X138467796Y-89822488D01*
X138650654Y-89709267D01*
X138809594Y-89564373D01*
X138838562Y-89526012D01*
X138841110Y-89523536D01*
X138848696Y-89518146D01*
X138856448Y-89516026D01*
X138863742Y-89519412D01*
G37*
%TD.AperFunction*%
%TD*%
%TA.AperFunction,Conductor*%
%TO.N,VoltageSensor*%
G36*
X102724049Y-128550565D02*
G01*
X104000117Y-129156228D01*
X104004989Y-129160545D01*
X104006800Y-129166798D01*
X104006800Y-129402002D01*
X104004989Y-129408255D01*
X104000117Y-129412572D01*
X102724051Y-130018233D01*
X102717902Y-130019308D01*
X102712076Y-130017069D01*
X102708230Y-130012153D01*
X102678698Y-129941090D01*
X102407664Y-129288885D01*
X102406769Y-129284400D01*
X102407664Y-129279914D01*
X102708230Y-128556645D01*
X102712076Y-128551730D01*
X102717902Y-128549491D01*
X102724049Y-128550565D01*
G37*
%TD.AperFunction*%
%TD*%
%TA.AperFunction,Conductor*%
%TO.N,IN1TTL*%
G36*
X233247915Y-67256972D02*
G01*
X233515559Y-67486675D01*
X233520950Y-67491302D01*
X233524827Y-67498008D01*
X233523664Y-67505667D01*
X233413832Y-67712513D01*
X233409621Y-67716996D01*
X233403719Y-67718724D01*
X233397756Y-67717220D01*
X233019371Y-67504086D01*
X233014755Y-67499333D01*
X233013461Y-67492834D01*
X233015903Y-67486677D01*
X233062485Y-67427235D01*
X233063406Y-67426196D01*
X233232025Y-67257577D01*
X233239852Y-67254159D01*
X233247915Y-67256972D01*
G37*
%TD.AperFunction*%
%TD*%
%TA.AperFunction,Conductor*%
%TO.N,Net-(Q20-Pad1)*%
G36*
X133519550Y-54389315D02*
G01*
X133523844Y-54393714D01*
X133936017Y-55134966D01*
X133937474Y-55141292D01*
X133935335Y-55147422D01*
X133930257Y-55151467D01*
X133207765Y-55449756D01*
X133198835Y-55449756D01*
X132714597Y-55249834D01*
X132476334Y-55151464D01*
X132471259Y-55147422D01*
X132469118Y-55141295D01*
X132470570Y-55134973D01*
X132882157Y-54393719D01*
X132886451Y-54389317D01*
X132892386Y-54387700D01*
X133513619Y-54387700D01*
X133519550Y-54389315D01*
G37*
%TD.AperFunction*%
%TD*%
%TA.AperFunction,Conductor*%
%TO.N,/CAN Bus/CAN_INT*%
G36*
X210198097Y-121025199D02*
G01*
X210202539Y-121030541D01*
X210500010Y-121749673D01*
X210500672Y-121756435D01*
X210497464Y-121762425D01*
X209946251Y-122312664D01*
X209940716Y-122315761D01*
X209934378Y-122315514D01*
X209929100Y-122311997D01*
X209269448Y-121542113D01*
X209266648Y-121533900D01*
X209270275Y-121526017D01*
X209278333Y-121522800D01*
X209502900Y-121522800D01*
X210184836Y-121025558D01*
X210191409Y-121023317D01*
X210198097Y-121025199D01*
G37*
%TD.AperFunction*%
%TD*%
%TA.AperFunction,Conductor*%
%TO.N,+VDC*%
G36*
X147781493Y-50634521D02*
G01*
X147786599Y-50638830D01*
X147788514Y-50645232D01*
X147789500Y-51591400D01*
X147789500Y-51591424D01*
X147788514Y-52537567D01*
X147786599Y-52543969D01*
X147781493Y-52548278D01*
X147774861Y-52549091D01*
X146392389Y-52315079D01*
X145878246Y-52228049D01*
X145871263Y-52224065D01*
X145868500Y-52216514D01*
X145868500Y-50966286D01*
X145871263Y-50958735D01*
X145878246Y-50954750D01*
X147774863Y-50633708D01*
X147781493Y-50634521D01*
G37*
%TD.AperFunction*%
%TD*%
%TA.AperFunction,Conductor*%
%TO.N,+VDC*%
G36*
X139858553Y-67584050D02*
G01*
X139865537Y-67588035D01*
X139868300Y-67595586D01*
X139868300Y-68845814D01*
X139865537Y-68853365D01*
X139858553Y-68857349D01*
X139489082Y-68919890D01*
X137961938Y-69178391D01*
X137955306Y-69177578D01*
X137950200Y-69173269D01*
X137948285Y-69166868D01*
X137947300Y-68220700D01*
X137948285Y-67274530D01*
X137950200Y-67268130D01*
X137955306Y-67263821D01*
X137961936Y-67263008D01*
X139858553Y-67584050D01*
G37*
%TD.AperFunction*%
%TD*%
%TA.AperFunction,Conductor*%
%TO.N,Net-(Q18-Pad1)*%
G36*
X149255860Y-77912998D02*
G01*
X149692966Y-78350094D01*
X149696241Y-78356486D01*
X149695164Y-78363588D01*
X148800464Y-80157951D01*
X148794095Y-80163687D01*
X148785525Y-80163543D01*
X147839384Y-79772562D01*
X147835578Y-79770022D01*
X147833038Y-79766216D01*
X147442179Y-78820076D01*
X147442036Y-78811505D01*
X147447773Y-78805138D01*
X149242368Y-77910798D01*
X149249469Y-77909723D01*
X149255860Y-77912998D01*
G37*
%TD.AperFunction*%
%TD*%
%TA.AperFunction,Conductor*%
%TO.N,GND*%
G36*
X189454349Y-129565865D02*
G01*
X190730417Y-130171528D01*
X190735289Y-130175845D01*
X190737100Y-130182098D01*
X190737100Y-130417302D01*
X190735289Y-130423555D01*
X190730417Y-130427872D01*
X189454351Y-131033533D01*
X189448202Y-131034608D01*
X189442376Y-131032369D01*
X189438530Y-131027453D01*
X189408998Y-130956390D01*
X189137964Y-130304185D01*
X189137069Y-130299700D01*
X189137964Y-130295214D01*
X189438530Y-129571945D01*
X189442376Y-129567030D01*
X189448202Y-129564791D01*
X189454349Y-129565865D01*
G37*
%TD.AperFunction*%
%TD*%
%TA.AperFunction,Conductor*%
%TO.N,VoltageSensor*%
G36*
X110853289Y-131445518D02*
G01*
X111001809Y-131509791D01*
X111573886Y-131757362D01*
X111580072Y-131763679D01*
X111580072Y-131772521D01*
X111573886Y-131778838D01*
X110853290Y-132090680D01*
X110847806Y-132091612D01*
X110842511Y-132089906D01*
X110528268Y-131896526D01*
X110524186Y-131892269D01*
X110522700Y-131886562D01*
X110522700Y-131649638D01*
X110524186Y-131643931D01*
X110528268Y-131639674D01*
X110842511Y-131446293D01*
X110847806Y-131444587D01*
X110853289Y-131445518D01*
G37*
%TD.AperFunction*%
%TD*%
%TA.AperFunction,Conductor*%
%TO.N,FuelPressure3*%
G36*
X110853289Y-137795518D02*
G01*
X111001809Y-137859791D01*
X111573886Y-138107362D01*
X111580072Y-138113679D01*
X111580072Y-138122521D01*
X111573886Y-138128838D01*
X110853290Y-138440680D01*
X110847806Y-138441612D01*
X110842511Y-138439906D01*
X110528268Y-138246526D01*
X110524186Y-138242269D01*
X110522700Y-138236562D01*
X110522700Y-137999638D01*
X110524186Y-137993931D01*
X110528268Y-137989674D01*
X110842511Y-137796293D01*
X110847806Y-137794587D01*
X110853289Y-137795518D01*
G37*
%TD.AperFunction*%
%TD*%
%TA.AperFunction,Conductor*%
%TO.N,Net-(Q20-Pad1)*%
G36*
X133518881Y-53854891D02*
G01*
X133523133Y-53860733D01*
X133939051Y-55136172D01*
X133938558Y-55144686D01*
X133932417Y-55150603D01*
X133207789Y-55451734D01*
X133203299Y-55452630D01*
X133198810Y-55451734D01*
X132746524Y-55263779D01*
X132474178Y-55150601D01*
X132468038Y-55144686D01*
X132467543Y-55136174D01*
X132882870Y-53860737D01*
X132887121Y-53854892D01*
X132893995Y-53852660D01*
X133512009Y-53852660D01*
X133518881Y-53854891D01*
G37*
%TD.AperFunction*%
%TD*%
%TA.AperFunction,Conductor*%
%TO.N,+VDC*%
G36*
X124983523Y-49046800D02*
G01*
X125155845Y-49295393D01*
X125558292Y-49875969D01*
X125603519Y-49941213D01*
X125605556Y-49948926D01*
X125602176Y-49956151D01*
X125166216Y-50392075D01*
X125159636Y-50395379D01*
X125152385Y-50394098D01*
X124192517Y-49875969D01*
X124187110Y-49869754D01*
X124187138Y-49861516D01*
X124400564Y-49299942D01*
X124402999Y-49296061D01*
X124406738Y-49293412D01*
X124969145Y-49042777D01*
X124977058Y-49042197D01*
X124983523Y-49046800D01*
G37*
%TD.AperFunction*%
%TD*%
M02*
