%TF.GenerationSoftware,KiCad,Pcbnew,7.0.1*%
%TF.CreationDate,2023-07-31T19:52:26-07:00*%
%TF.ProjectId,AMS-Mega2560-Base,414d532d-4d65-4676-9132-3536302d4261,rev?*%
%TF.SameCoordinates,Original*%
%TF.FileFunction,Legend,Bot*%
%TF.FilePolarity,Positive*%
%FSLAX46Y46*%
G04 Gerber Fmt 4.6, Leading zero omitted, Abs format (unit mm)*
G04 Created by KiCad (PCBNEW 7.0.1) date 2023-07-31 19:52:26*
%MOMM*%
%LPD*%
G01*
G04 APERTURE LIST*
%ADD10C,0.254000*%
%ADD11C,0.200000*%
G04 APERTURE END LIST*
D10*
%TO.C,Z2*%
X166199424Y-48597232D02*
X165352757Y-48597232D01*
X165352757Y-48597232D02*
X166199424Y-49867232D01*
X166199424Y-49867232D02*
X165352757Y-49867232D01*
X164929424Y-48718184D02*
X164868948Y-48657708D01*
X164868948Y-48657708D02*
X164747995Y-48597232D01*
X164747995Y-48597232D02*
X164445614Y-48597232D01*
X164445614Y-48597232D02*
X164324662Y-48657708D01*
X164324662Y-48657708D02*
X164264186Y-48718184D01*
X164264186Y-48718184D02*
X164203709Y-48839136D01*
X164203709Y-48839136D02*
X164203709Y-48960089D01*
X164203709Y-48960089D02*
X164264186Y-49141517D01*
X164264186Y-49141517D02*
X164989900Y-49867232D01*
X164989900Y-49867232D02*
X164203709Y-49867232D01*
%TO.C,Z6*%
X165934016Y-53837114D02*
X165087349Y-53837114D01*
X165087349Y-53837114D02*
X165934016Y-55107114D01*
X165934016Y-55107114D02*
X165087349Y-55107114D01*
X164059254Y-53837114D02*
X164301159Y-53837114D01*
X164301159Y-53837114D02*
X164422111Y-53897590D01*
X164422111Y-53897590D02*
X164482587Y-53958066D01*
X164482587Y-53958066D02*
X164603540Y-54139495D01*
X164603540Y-54139495D02*
X164664016Y-54381399D01*
X164664016Y-54381399D02*
X164664016Y-54865209D01*
X164664016Y-54865209D02*
X164603540Y-54986161D01*
X164603540Y-54986161D02*
X164543063Y-55046638D01*
X164543063Y-55046638D02*
X164422111Y-55107114D01*
X164422111Y-55107114D02*
X164180206Y-55107114D01*
X164180206Y-55107114D02*
X164059254Y-55046638D01*
X164059254Y-55046638D02*
X163998778Y-54986161D01*
X163998778Y-54986161D02*
X163938301Y-54865209D01*
X163938301Y-54865209D02*
X163938301Y-54562828D01*
X163938301Y-54562828D02*
X163998778Y-54441876D01*
X163998778Y-54441876D02*
X164059254Y-54381399D01*
X164059254Y-54381399D02*
X164180206Y-54320923D01*
X164180206Y-54320923D02*
X164422111Y-54320923D01*
X164422111Y-54320923D02*
X164543063Y-54381399D01*
X164543063Y-54381399D02*
X164603540Y-54441876D01*
X164603540Y-54441876D02*
X164664016Y-54562828D01*
%TO.C,Z4*%
X165920001Y-51293344D02*
X165073334Y-51293344D01*
X165073334Y-51293344D02*
X165920001Y-52563344D01*
X165920001Y-52563344D02*
X165073334Y-52563344D01*
X164045239Y-51716677D02*
X164045239Y-52563344D01*
X164347620Y-51232868D02*
X164650001Y-52140010D01*
X164650001Y-52140010D02*
X163863810Y-52140010D01*
D11*
%TO.C,Z2*%
X161983500Y-49269700D02*
X159460500Y-49269700D01*
X159460500Y-50129700D02*
X159460500Y-48409700D01*
X159460500Y-49269700D02*
X158600500Y-48409700D01*
X159460500Y-48409700D02*
X155656500Y-48409700D01*
X155656500Y-50129700D02*
X159460500Y-50129700D01*
X155656500Y-49269700D02*
X153133500Y-49269700D01*
X155656500Y-48409700D02*
X155656500Y-50129700D01*
%TO.C,Z6*%
X161983500Y-54465700D02*
X159460500Y-54465700D01*
X159460500Y-55325700D02*
X159460500Y-53605700D01*
X159460500Y-54465700D02*
X158600500Y-53605700D01*
X159460500Y-53605700D02*
X155656500Y-53605700D01*
X155656500Y-55325700D02*
X159460500Y-55325700D01*
X155656500Y-54465700D02*
X153133500Y-54465700D01*
X155656500Y-53605700D02*
X155656500Y-55325700D01*
%TO.C,Z4*%
X161983500Y-51902100D02*
X159460500Y-51902100D01*
X159460500Y-52762100D02*
X159460500Y-51042100D01*
X159460500Y-51902100D02*
X158600500Y-51042100D01*
X159460500Y-51042100D02*
X155656500Y-51042100D01*
X155656500Y-52762100D02*
X159460500Y-52762100D01*
X155656500Y-51902100D02*
X153133500Y-51902100D01*
X155656500Y-51042100D02*
X155656500Y-52762100D01*
%TD*%
M02*
