M48
; DRILL file {KiCad 7.0.1} date Mon Jul 31 19:52:20 2023
; FORMAT={-:-/ absolute / inch / decimal}
; #@! TF.CreationDate,2023-07-31T19:52:20-07:00
; #@! TF.GenerationSoftware,Kicad,Pcbnew,7.0.1
; #@! TF.FileFunction,Plated,1,4,PTH
FMAT,2
INCH
; #@! TA.AperFunction,Plated,PTH,ViaDrill
T1C0.0157
; #@! TA.AperFunction,Plated,PTH,ComponentDrill
T2C0.0295
; #@! TA.AperFunction,Plated,PTH,ComponentDrill
T3C0.0299
; #@! TA.AperFunction,Plated,PTH,ComponentDrill
T4C0.0315
; #@! TA.AperFunction,Plated,PTH,ComponentDrill
T5C0.0394
; #@! TA.AperFunction,Plated,PTH,ComponentDrill
T6C0.0400
; #@! TA.AperFunction,Plated,PTH,ComponentDrill
T7C0.0433
; #@! TA.AperFunction,Plated,PTH,ComponentDrill
T8C0.0504
; #@! TA.AperFunction,Plated,PTH,ComponentDrill
T9C0.0512
; #@! TA.AperFunction,Plated,PTH,ComponentDrill
T10C0.0610
; #@! TA.AperFunction,Plated,PTH,ComponentDrill
T11C0.1200
%
G90
G05
T1
X4.1313Y-5.3377
X4.8358Y-4.0958
X5.6101Y-5.062
X5.6569Y-4.2821
X5.764Y-4.4353
X5.7806Y-4.4767
X5.795Y-4.3457
X5.8452Y-4.321
X5.9451Y-4.4075
X6.2729Y-4.2402
X6.3538Y-2.6273
X7.7621Y-4.1353
X7.9607Y-4.3215
X7.9995Y-4.8338
X8.662Y-3.6052
T2
X3.3276Y-3.038
X3.3276Y-3.4592
X3.8128Y-3.0176
X3.8628Y-3.0176
X3.9128Y-3.0176
X4.8536Y-2.1622
X4.8888Y-3.0484
X4.8968Y-3.3653
X4.8978Y-1.9408
X4.8989Y-2.8722
X4.9004Y-2.4158
X4.9036Y-2.1622
X4.9171Y-2.5823
X4.9205Y-3.5828
X4.9388Y-3.0484
X4.9536Y-2.1622
X4.9671Y-2.5823
X4.9705Y-3.5828
X4.9888Y-3.0484
X5.0171Y-2.5823
X5.0205Y-3.5828
X5.3181Y-3.3653
X5.319Y-1.9408
X5.3201Y-2.8722
X5.3216Y-2.4158
X5.6385Y-3.6847
X5.6885Y-3.6847
X5.7385Y-3.6847
X5.7429Y-3.3686
X5.7929Y-3.3686
X5.8429Y-3.3686
X5.9925Y-1.9398
X5.9925Y-2.0434
X5.9925Y-2.1443
X6.2836Y-3.3565
X6.3336Y-3.3565
X6.3836Y-3.3565
X6.4137Y-1.9398
X6.4137Y-2.0434
X6.4137Y-2.1443
X7.8124Y-2.1208
X7.8624Y-2.1208
X7.9124Y-2.1208
X7.9422Y-3.0664
X7.9547Y-2.7109
X7.9653Y-2.3811
X7.9922Y-3.0664
X8.0047Y-2.7109
X8.0153Y-2.3811
X8.0422Y-3.0664
X8.0547Y-2.7109
X8.0653Y-2.3811
X8.3252Y-2.0456
X8.3719Y-3.0702
X8.3752Y-2.0456
X8.3818Y-2.7109
X8.3895Y-2.3526
X8.4219Y-3.0702
X8.4252Y-2.0456
X8.4318Y-2.7109
X8.4395Y-2.3526
X8.4719Y-3.0702
X8.4818Y-2.7109
X8.4895Y-2.3526
T3
X4.3152Y-4.0828
X4.3152Y-4.1828
X4.3152Y-4.2828
X4.3152Y-4.3828
X4.3152Y-4.4828
X4.3152Y-4.5828
X4.3152Y-4.6828
X4.3152Y-4.7828
X4.6152Y-4.0828
X4.6152Y-4.1828
X4.6152Y-4.2828
X4.6152Y-4.3828
X4.6152Y-4.4828
X4.6152Y-4.5828
X4.6152Y-4.6828
X4.6152Y-4.7828
T4
X3.3281Y-2.5912
X3.3281Y-2.6912
X3.813Y-3.4074
X3.8137Y-3.2847
X3.8142Y-3.1603
X3.913Y-3.4074
X3.9137Y-3.2847
X3.9142Y-3.1603
X3.9277Y-5.5144
X3.9318Y-5.0899
X3.9333Y-5.3302
X4.0047Y-4.2782
X4.0047Y-4.3766
X4.0047Y-4.6159
X4.0047Y-4.7143
X4.0277Y-5.5144
X4.0318Y-5.0899
X4.0333Y-5.3302
X4.1182Y-5.6475
X4.1182Y-5.7475
X4.1645Y-4.1094
X4.1645Y-4.2078
X4.1645Y-4.4433
X4.1645Y-4.5417
X4.2414Y-5.6469
X4.2414Y-5.7469
X4.4934Y-5.5388
X4.4991Y-5.7224
X4.5009Y-5.3621
X4.5172Y-5.2387
X4.5934Y-5.5388
X4.5991Y-5.7224
X4.6009Y-5.3621
X4.6172Y-5.2387
X4.8327Y-4.5962
X4.8327Y-4.7906
X4.8327Y-4.9709
X4.8327Y-5.165
X4.8744Y-3.2371
X4.9024Y-2.7258
X4.903Y-3.7245
X4.9042Y-2.306
X4.9327Y-4.5962
X4.9327Y-4.7906
X4.9327Y-4.9709
X4.9327Y-5.165
X4.9744Y-3.2371
X5.0024Y-2.7258
X5.003Y-3.7245
X5.0042Y-2.306
X5.1241Y-3.4766
X5.1265Y-2.0605
X5.1318Y-2.5264
X5.1442Y-2.1832
X5.1984Y-2.3057
X5.2087Y-3.2532
X5.2099Y-3.0484
X5.2099Y-3.1484
X5.2146Y-2.7601
X5.2241Y-3.4766
X5.2265Y-2.0605
X5.2318Y-2.5264
X5.2442Y-2.1832
X5.2984Y-2.3057
X5.3087Y-3.2532
X5.3146Y-2.7601
X5.4084Y-3.7805
X5.4768Y-4.6122
X5.4768Y-4.7902
X5.4768Y-4.9716
X5.4768Y-5.1525
X5.5084Y-3.7805
X5.5768Y-4.6122
X5.5768Y-4.7902
X5.5768Y-4.9716
X5.5768Y-5.1525
X5.7417Y-3.5115
X5.8417Y-3.5115
X5.8439Y-3.6358
X5.8615Y-3.7581
X5.9439Y-3.6358
X5.9467Y-3.4424
X5.9615Y-3.7581
X5.9637Y-3.3198
X6.0467Y-3.4424
X6.0637Y-3.3198
X6.2677Y-3.4974
X6.3677Y-3.4974
X6.4259Y-4.4859
X6.4272Y-4.3029
X6.4852Y-3.308
X6.5029Y-3.4288
X6.5259Y-4.4859
X6.5272Y-4.3029
X6.5852Y-3.308
X6.6029Y-3.4288
X6.8504Y-3.7101
X6.9504Y-3.7101
X7.4463Y-4.9331
X7.4463Y-5.1299
X7.4501Y-4.6436
X7.4501Y-4.8405
X7.457Y-1.9518
X7.457Y-2.1486
X7.4813Y-4.2736
X7.4893Y-2.9741
X7.4893Y-3.1709
X7.5012Y-2.6029
X7.5012Y-2.7997
X7.5107Y-2.2502
X7.5107Y-2.4471
X7.6012Y-2.1433
X7.605Y-1.9584
X7.6447Y-4.7994
X7.6447Y-4.9915
X7.6781Y-4.2736
X7.7012Y-2.1433
X7.705Y-1.9584
X7.739Y-2.9952
X7.7398Y-3.1184
X7.7473Y-2.6381
X7.7478Y-2.7623
X7.7584Y-2.4077
X7.759Y-2.2847
X7.839Y-2.9952
X7.8398Y-3.1184
X7.8473Y-2.6381
X7.8478Y-2.7623
X7.8486Y-4.6624
X7.8581Y-4.0242
X7.8584Y-2.4077
X7.859Y-2.2847
X7.9581Y-4.0242
X8.039Y-2.1371
X8.0454Y-4.6624
X8.0488Y-1.9542
X8.139Y-2.1371
X8.1488Y-1.9542
X8.1669Y-3.1281
X8.1678Y-3.0038
X8.1755Y-2.7624
X8.1764Y-2.6381
X8.1855Y-2.4006
X8.1861Y-2.2777
X8.1875Y-4.7935
X8.1875Y-4.953
X8.2669Y-3.1281
X8.2678Y-3.0038
X8.2755Y-2.7624
X8.2764Y-2.6381
X8.2855Y-2.4006
X8.2861Y-2.2777
X8.2875Y-4.7935
X8.2875Y-4.953
X8.4818Y-3.616
X8.4818Y-3.716
X8.6411Y-2.313
X8.6411Y-2.413
X8.6411Y-2.513
X8.6411Y-2.613
X8.6411Y-2.713
X8.6411Y-2.813
X8.6411Y-2.913
X8.6411Y-3.013
X8.9411Y-2.313
X8.9411Y-2.413
X8.9411Y-2.513
X8.9411Y-2.613
X8.9411Y-2.713
X8.9411Y-2.813
X8.9411Y-2.913
X8.9411Y-3.013
T5
X2.8967Y-4.1703
X2.9967Y-4.1703
X3.0967Y-4.1703
X3.1967Y-4.1703
X3.2967Y-4.1703
X3.3967Y-4.1703
X3.4967Y-4.1703
X3.5967Y-4.1703
X3.6967Y-4.1703
X4.7125Y-2.4017
X4.7125Y-2.5017
X4.7125Y-2.6017
X4.846Y-4.1731
X4.846Y-4.2731
X4.846Y-4.3731
X5.1024Y-4.1939
X5.2024Y-4.1939
X5.3024Y-4.1939
X5.4024Y-4.1939
X5.5024Y-4.1939
X5.6024Y-4.1939
X6.1297Y-5.5539
X6.2297Y-5.5539
X6.3297Y-5.5539
X6.4297Y-5.5539
X6.5297Y-5.5539
X6.6297Y-5.5539
X6.7297Y-5.5539
X6.8297Y-5.5539
X6.8549Y-3.4589
X6.8549Y-3.5589
X7.2889Y-3.8287
X7.2889Y-3.9287
X7.2889Y-4.0287
X7.2889Y-4.1287
X7.2889Y-4.2287
X7.2889Y-4.3287
X7.2889Y-4.4287
X7.2889Y-4.5287
X7.2916Y-5.2497
X7.2916Y-5.3497
X7.2916Y-5.4497
X7.2916Y-5.5497
X7.2916Y-5.6497
X7.2916Y-5.7497
X7.2916Y-5.8497
X7.2916Y-5.9497
X7.5044Y-3.3772
X7.6044Y-3.3772
X7.7044Y-3.3772
X7.8044Y-3.3772
X7.9044Y-3.3772
X8.0044Y-3.3772
X8.0426Y-5.2497
X8.0426Y-5.3497
X8.0426Y-5.4497
X8.0426Y-5.5497
X8.0426Y-5.6497
X8.0426Y-5.7497
X8.0426Y-5.8497
X8.0426Y-5.9497
X8.1044Y-3.3772
X8.2044Y-3.3772
X8.4191Y-4.8083
X8.4191Y-4.9083
X8.5346Y-3.3797
X8.6346Y-3.3797
X8.7346Y-3.3797
X8.8346Y-3.3797
X8.867Y-4.7853
X8.867Y-4.8853
X8.867Y-4.9853
X8.9205Y-3.6973
X8.9205Y-3.7973
X8.9205Y-3.8973
X8.9205Y-3.9973
X8.9205Y-4.0973
X8.9205Y-4.1973
X8.9205Y-4.2973
X8.9205Y-4.3973
X8.9346Y-3.3797
X9.0346Y-3.3797
X9.0501Y-4.7853
X9.0501Y-4.8853
X9.0501Y-4.9853
X9.1346Y-3.3797
X9.2332Y-4.7853
X9.2332Y-4.8853
X9.2332Y-4.9853
X9.2346Y-3.3797
T6
X4.0487Y-3.9682
X4.1487Y-3.9682
X4.2487Y-3.9682
X4.3487Y-3.9682
X4.4087Y-5.8682
X4.4487Y-3.9682
X4.5087Y-5.8682
X4.5487Y-3.9682
X4.6087Y-5.8682
X4.6487Y-3.9682
X4.7087Y-5.8682
X4.7487Y-3.9682
X4.8087Y-5.8682
X4.8487Y-3.9682
X4.9087Y-5.8682
X4.9487Y-3.9682
X5.0087Y-5.8682
X5.1087Y-3.9682
X5.1087Y-5.8682
X5.2087Y-3.9682
X5.3087Y-3.9682
X5.3087Y-5.8682
X5.4087Y-3.9682
X5.4087Y-5.8682
X5.5087Y-3.9682
X5.5087Y-5.8682
X5.6087Y-3.9682
X5.6087Y-5.8682
X5.7087Y-3.9682
X5.7087Y-5.8682
X5.8087Y-3.9682
X5.8087Y-5.8682
X5.9087Y-5.8682
X6.0087Y-3.9682
X6.0087Y-5.8682
X6.1087Y-3.9682
X6.2087Y-3.9682
X6.2087Y-5.8682
X6.3087Y-3.9682
X6.3087Y-5.8682
X6.4087Y-3.9682
X6.4087Y-5.8682
X6.5087Y-3.9682
X6.5087Y-5.8682
X6.6087Y-3.9682
X6.6087Y-5.8682
X6.7087Y-3.9682
X6.7087Y-5.8682
X6.8087Y-5.8682
X6.9087Y-5.8682
X7.0087Y-3.9682
X7.0087Y-4.0682
X7.0087Y-4.1682
X7.0087Y-4.2682
X7.0087Y-4.3682
X7.0087Y-4.4682
X7.0087Y-4.5682
X7.0087Y-4.6682
X7.0087Y-4.7682
X7.0087Y-4.8682
X7.0087Y-4.9682
X7.0087Y-5.0682
X7.0087Y-5.1682
X7.0087Y-5.2682
X7.0087Y-5.3682
X7.0087Y-5.4682
X7.0087Y-5.5682
X7.0087Y-5.6682
X7.1087Y-3.9682
X7.1087Y-4.0682
X7.1087Y-4.1682
X7.1087Y-4.2682
X7.1087Y-4.3682
X7.1087Y-4.4682
X7.1087Y-4.5682
X7.1087Y-4.6682
X7.1087Y-4.7682
X7.1087Y-4.8682
X7.1087Y-4.9682
X7.1087Y-5.0682
X7.1087Y-5.1682
X7.1087Y-5.2682
X7.1087Y-5.3682
X7.1087Y-5.4682
X7.1087Y-5.5682
X7.1087Y-5.6682
T7
X6.079Y-2.3659
X6.079Y-3.1159
X6.1538Y-2.8159
X6.229Y-2.3659
X6.229Y-3.1159
X6.3038Y-2.8159
X6.379Y-2.3659
X6.379Y-3.1159
X6.4538Y-2.8159
X6.529Y-2.3659
X6.529Y-3.1159
X6.6038Y-2.8159
X6.6792Y-2.3659
X6.6792Y-3.1159
X6.754Y-2.8159
X6.8292Y-2.3659
X6.8292Y-3.1159
X6.904Y-2.8159
X6.9792Y-2.3659
X6.9792Y-3.1159
X7.054Y-2.8159
X7.1292Y-2.3659
X7.1292Y-3.1159
X7.204Y-2.8159
T8
X3.6734Y-3.1465
X3.6734Y-3.2465
X3.6734Y-3.3465
X3.674Y-2.7051
X3.674Y-2.8051
X3.674Y-2.9051
X5.431Y-2.0312
X5.431Y-2.1312
X5.431Y-2.2312
X5.431Y-2.4859
X5.431Y-2.5859
X5.431Y-2.6859
X5.431Y-2.9406
X5.431Y-3.0406
X5.431Y-3.1406
X5.431Y-3.3952
X5.431Y-3.4952
X5.431Y-3.5952
X5.8184Y-2.0312
X5.8184Y-2.1312
X5.8184Y-2.2312
X5.8203Y-2.4859
X5.8203Y-2.5859
X5.8203Y-2.6859
X5.8203Y-2.9406
X5.8203Y-3.0406
X5.8203Y-3.1406
T9
X3.384Y-2.2873
X3.584Y-2.2873
X3.784Y-2.2873
T10
X3.0807Y-2.5236
X3.0807Y-3.4134
T11
X3.8587Y-5.8682
X3.9087Y-3.9682
X5.9087Y-4.5682
X5.9087Y-5.6682
X6.8587Y-3.9682
X7.1087Y-5.8682
T0
M30
