%TF.GenerationSoftware,KiCad,Pcbnew,(6.0.0)*%
%TF.CreationDate,2022-04-28T11:50:28-07:00*%
%TF.ProjectId,AMS-Mega2560-Base,414d532d-4d65-4676-9132-3536302d4261,rev?*%
%TF.SameCoordinates,Original*%
%TF.FileFunction,Paste,Top*%
%TF.FilePolarity,Positive*%
%FSLAX46Y46*%
G04 Gerber Fmt 4.6, Leading zero omitted, Abs format (unit mm)*
G04 Created by KiCad (PCBNEW (6.0.0)) date 2022-04-28 11:50:28*
%MOMM*%
%LPD*%
G01*
G04 APERTURE LIST*
%ADD10R,0.910000X2.160000*%
%ADD11R,10.800000X10.410000*%
%ADD12R,1.450000X2.100000*%
%ADD13R,1.528000X0.650000*%
%ADD14R,2.300000X4.500000*%
%ADD15R,1.525000X0.650000*%
G04 APERTURE END LIST*
D10*
%TO.C,IC9*%
X126848400Y-70987100D03*
X128118400Y-70987100D03*
X129388400Y-70987100D03*
X130658400Y-70987100D03*
X131928400Y-70987100D03*
X133198400Y-70987100D03*
X134468400Y-70987100D03*
D11*
X130658400Y-62667100D03*
%TD*%
D12*
%TO.C,IC7*%
X92718500Y-110579700D03*
X90178500Y-110579700D03*
X87638500Y-110579700D03*
X85098500Y-110579700D03*
X82558500Y-110579700D03*
X80018500Y-110579700D03*
X77478500Y-110579700D03*
X74938500Y-110579700D03*
X74938500Y-119679700D03*
X77478500Y-119679700D03*
X80018500Y-119679700D03*
X82558500Y-119679700D03*
X85098500Y-119679700D03*
X87638500Y-119679700D03*
X90178500Y-119679700D03*
X92718500Y-119679700D03*
%TD*%
D13*
%TO.C,IC11*%
X101418300Y-53593900D03*
X101418300Y-54863900D03*
X101418300Y-56133900D03*
X101418300Y-57403900D03*
X106840300Y-57403900D03*
X106840300Y-56133900D03*
X106840300Y-54863900D03*
X106840300Y-53593900D03*
%TD*%
%TO.C,IC10*%
X106840300Y-82737900D03*
X106840300Y-81467900D03*
X106840300Y-80197900D03*
X106840300Y-78927900D03*
X101418300Y-78927900D03*
X101418300Y-80197900D03*
X101418300Y-81467900D03*
X101418300Y-82737900D03*
%TD*%
D14*
%TO.C,U3*%
X168461800Y-122032500D03*
X168461800Y-105632500D03*
%TD*%
D15*
%TO.C,IC6*%
X128386900Y-126341400D03*
X128386900Y-127611400D03*
X128386900Y-128881400D03*
X128386900Y-130151400D03*
X128386900Y-131421400D03*
X128386900Y-132691400D03*
X128386900Y-133961400D03*
X133810900Y-133961400D03*
X133810900Y-132691400D03*
X133810900Y-131421400D03*
X133810900Y-130151400D03*
X133810900Y-128881400D03*
X133810900Y-127611400D03*
X133810900Y-126341400D03*
%TD*%
%TO.C,IC20*%
X128388000Y-116960100D03*
X128388000Y-118230100D03*
X128388000Y-119500100D03*
X128388000Y-120770100D03*
X128388000Y-122040100D03*
X128388000Y-123310100D03*
X128388000Y-124580100D03*
X133812000Y-124580100D03*
X133812000Y-123310100D03*
X133812000Y-122040100D03*
X133812000Y-120770100D03*
X133812000Y-119500100D03*
X133812000Y-118230100D03*
X133812000Y-116960100D03*
%TD*%
M02*
