%TF.GenerationSoftware,KiCad,Pcbnew,(6.0.0)*%
%TF.CreationDate,2022-07-17T07:01:51-07:00*%
%TF.ProjectId,AMS-Mega2560-Base,414d532d-4d65-4676-9132-3536302d4261,rev?*%
%TF.SameCoordinates,Original*%
%TF.FileFunction,Copper,L3,Inr*%
%TF.FilePolarity,Positive*%
%FSLAX46Y46*%
G04 Gerber Fmt 4.6, Leading zero omitted, Abs format (unit mm)*
G04 Created by KiCad (PCBNEW (6.0.0)) date 2022-07-17 07:01:51*
%MOMM*%
%LPD*%
G01*
G04 APERTURE LIST*
%TA.AperFunction,ComponentPad*%
%ADD10R,2.085000X2.085000*%
%TD*%
%TA.AperFunction,ComponentPad*%
%ADD11C,2.085000*%
%TD*%
%TA.AperFunction,ComponentPad*%
%ADD12C,1.200000*%
%TD*%
%TA.AperFunction,ComponentPad*%
%ADD13C,1.727200*%
%TD*%
%TA.AperFunction,ComponentPad*%
%ADD14O,1.727200X1.727200*%
%TD*%
%TA.AperFunction,ComponentPad*%
%ADD15O,1.727200X2.032000*%
%TD*%
%TA.AperFunction,ComponentPad*%
%ADD16C,4.064000*%
%TD*%
%TA.AperFunction,ComponentPad*%
%ADD17C,1.650000*%
%TD*%
%TA.AperFunction,ComponentPad*%
%ADD18R,1.575000X1.575000*%
%TD*%
%TA.AperFunction,ComponentPad*%
%ADD19C,1.575000*%
%TD*%
%TA.AperFunction,ComponentPad*%
%ADD20R,2.200000X2.200000*%
%TD*%
%TA.AperFunction,ComponentPad*%
%ADD21O,2.200000X2.200000*%
%TD*%
%TA.AperFunction,ComponentPad*%
%ADD22R,1.050000X1.500000*%
%TD*%
%TA.AperFunction,ComponentPad*%
%ADD23O,1.050000X1.500000*%
%TD*%
%TA.AperFunction,ComponentPad*%
%ADD24C,1.600000*%
%TD*%
%TA.AperFunction,ComponentPad*%
%ADD25O,1.600000X1.600000*%
%TD*%
%TA.AperFunction,ComponentPad*%
%ADD26R,1.920000X1.920000*%
%TD*%
%TA.AperFunction,ComponentPad*%
%ADD27C,1.920000*%
%TD*%
%TA.AperFunction,ComponentPad*%
%ADD28R,1.600000X1.600000*%
%TD*%
%TA.AperFunction,ComponentPad*%
%ADD29R,1.700000X1.700000*%
%TD*%
%TA.AperFunction,ComponentPad*%
%ADD30O,1.700000X1.700000*%
%TD*%
%TA.AperFunction,ComponentPad*%
%ADD31C,2.000000*%
%TD*%
%TA.AperFunction,ComponentPad*%
%ADD32O,2.000000X2.000000*%
%TD*%
%TA.AperFunction,ComponentPad*%
%ADD33R,1.500000X1.050000*%
%TD*%
%TA.AperFunction,ComponentPad*%
%ADD34O,1.500000X1.050000*%
%TD*%
%TA.AperFunction,ComponentPad*%
%ADD35R,2.250000X2.250000*%
%TD*%
%TA.AperFunction,ComponentPad*%
%ADD36C,2.250000*%
%TD*%
%TA.AperFunction,ComponentPad*%
%ADD37R,2.600000X2.600000*%
%TD*%
%TA.AperFunction,ComponentPad*%
%ADD38C,2.600000*%
%TD*%
%TA.AperFunction,ComponentPad*%
%ADD39R,1.150000X1.150000*%
%TD*%
%TA.AperFunction,ComponentPad*%
%ADD40C,1.150000*%
%TD*%
%TA.AperFunction,ComponentPad*%
%ADD41C,1.440000*%
%TD*%
%TA.AperFunction,ComponentPad*%
%ADD42R,1.160000X1.160000*%
%TD*%
%TA.AperFunction,ComponentPad*%
%ADD43C,1.160000*%
%TD*%
%TA.AperFunction,ComponentPad*%
%ADD44C,2.360000*%
%TD*%
%TA.AperFunction,ComponentPad*%
%ADD45R,1.130000X1.130000*%
%TD*%
%TA.AperFunction,ComponentPad*%
%ADD46C,1.130000*%
%TD*%
%TA.AperFunction,ViaPad*%
%ADD47C,0.600000*%
%TD*%
%TA.AperFunction,Conductor*%
%ADD48C,0.250000*%
%TD*%
%TA.AperFunction,Conductor*%
%ADD49C,0.635000*%
%TD*%
%TA.AperFunction,Conductor*%
%ADD50C,0.762000*%
%TD*%
%TA.AperFunction,Conductor*%
%ADD51C,0.889000*%
%TD*%
G04 APERTURE END LIST*
D10*
%TO.N,Net-(Q22-Pad1)*%
%TO.C,Q22*%
X70584100Y-95867200D03*
D11*
%TO.N,+3.3VA*%
X70584100Y-98407200D03*
%TO.N,+3.3VP*%
X70584100Y-100947200D03*
%TD*%
D12*
%TO.N,Net-(K1-Pad1)*%
%TO.C,K1*%
X205074100Y-84663800D03*
%TO.N,+5V*%
X202534100Y-84663800D03*
%TO.N,Net-(K1-Pad6)*%
X192374100Y-84663800D03*
%TO.N,Sense2-2*%
X189834100Y-84663800D03*
X189834100Y-92283800D03*
%TO.N,unconnected-(K1-Pad9)*%
X192374100Y-92283800D03*
%TO.N,unconnected-(K1-Pad13)*%
X202534100Y-92283800D03*
%TO.N,Net-(K1-Pad1)*%
X205074100Y-92283800D03*
%TD*%
D13*
%TO.N,GND*%
%TO.C,P4*%
X178021100Y-143971900D03*
D14*
X180561100Y-143971900D03*
%TO.N,SCLK*%
X178021100Y-141431900D03*
%TO.N,unconnected-(P4-Pad4)*%
X180561100Y-141431900D03*
%TO.N,MISO*%
X178021100Y-138891900D03*
%TO.N,MOSI*%
X180561100Y-138891900D03*
%TO.N,WaterCS*%
X178021100Y-136351900D03*
%TO.N,Logging*%
X180561100Y-136351900D03*
%TO.N,LsideCS*%
X178021100Y-133811900D03*
%TO.N,IN3TTL*%
X180561100Y-133811900D03*
%TO.N,RsideCS*%
X178021100Y-131271900D03*
%TO.N,OUTPUTLED2*%
X180561100Y-131271900D03*
%TO.N,FrontCS*%
X178021100Y-128731900D03*
%TO.N,OUTPUTLED1*%
X180561100Y-128731900D03*
%TO.N,AmbientCS*%
X178021100Y-126191900D03*
%TO.N,RPMEN*%
X180561100Y-126191900D03*
%TO.N,CarbCS*%
X178021100Y-123651900D03*
%TO.N,unconnected-(P4-Pad18)*%
X180561100Y-123651900D03*
%TO.N,SDCS*%
X178021100Y-121111900D03*
%TO.N,unconnected-(P4-Pad20)*%
X180561100Y-121111900D03*
%TO.N,SDDetect*%
X178021100Y-118571900D03*
%TO.N,unconnected-(P4-Pad22)*%
X180561100Y-118571900D03*
%TO.N,unconnected-(P4-Pad23)*%
X178021100Y-116031900D03*
%TO.N,unconnected-(P4-Pad24)*%
X180561100Y-116031900D03*
%TO.N,unconnected-(P4-Pad25)*%
X178021100Y-113491900D03*
%TO.N,unconnected-(P4-Pad26)*%
X180561100Y-113491900D03*
%TO.N,unconnected-(P4-Pad27)*%
X178021100Y-110951900D03*
%TO.N,unconnected-(P4-Pad28)*%
X180561100Y-110951900D03*
%TO.N,unconnected-(P4-Pad29)*%
X178021100Y-108411900D03*
%TO.N,SWSCLK*%
X180561100Y-108411900D03*
%TO.N,unconnected-(P4-Pad31)*%
X178021100Y-105871900D03*
%TO.N,SWMISO*%
X180561100Y-105871900D03*
%TO.N,unconnected-(P4-Pad33)*%
X178021100Y-103331900D03*
%TO.N,SWMOSI*%
X180561100Y-103331900D03*
%TO.N,unconnected-(P4-Pad35)*%
X178021100Y-100791900D03*
%TO.N,unconnected-(P4-Pad36)*%
X180561100Y-100791900D03*
%TD*%
D15*
%TO.N,unconnected-(P1-Pad1)*%
%TO.C,P1*%
X111981100Y-149051900D03*
%TO.N,unconnected-(P1-Pad2)*%
X114521100Y-149051900D03*
%TO.N,unconnected-(P1-Pad3)*%
X117061100Y-149051900D03*
%TO.N,unconnected-(P1-Pad4)*%
X119601100Y-149051900D03*
%TO.N,unconnected-(P1-Pad5)*%
X122141100Y-149051900D03*
%TO.N,GND*%
X124681100Y-149051900D03*
X127221100Y-149051900D03*
%TO.N,+10V*%
X129761100Y-149051900D03*
%TD*%
%TO.N,VoltageSensor*%
%TO.C,P2*%
X134841100Y-149051900D03*
%TO.N,/A1*%
X137381100Y-149051900D03*
%TO.N,Vacuum1*%
X139921100Y-149051900D03*
%TO.N,Vacuum2*%
X142461100Y-149051900D03*
%TO.N,AltCurrent*%
X145001100Y-149051900D03*
%TO.N,FuelPressure1*%
X147541100Y-149051900D03*
%TO.N,FuelPressure2*%
X150081100Y-149051900D03*
%TO.N,OilPressure*%
X152621100Y-149051900D03*
%TD*%
%TO.N,AFR1*%
%TO.C,P3*%
X157701100Y-149051900D03*
%TO.N,AFR2*%
X160241100Y-149051900D03*
%TO.N,/A10*%
X162781100Y-149051900D03*
%TO.N,GPSBat*%
X165321100Y-149051900D03*
%TO.N,ThrottlePositionADC*%
X167861100Y-149051900D03*
%TO.N,SpareBufferedADC*%
X170401100Y-149051900D03*
%TO.N,unconnected-(P3-Pad7)*%
X172941100Y-149051900D03*
%TO.N,unconnected-(P3-Pad8)*%
X175481100Y-149051900D03*
%TD*%
%TO.N,SCL*%
%TO.C,P5*%
X102837100Y-100791900D03*
%TO.N,SDA*%
X105377100Y-100791900D03*
%TO.N,unconnected-(P5-Pad3)*%
X107917100Y-100791900D03*
%TO.N,GND*%
X110457100Y-100791900D03*
%TO.N,unconnected-(P5-Pad5)*%
X112997100Y-100791900D03*
%TO.N,unconnected-(P5-Pad6)*%
X115537100Y-100791900D03*
%TO.N,unconnected-(P5-Pad7)*%
X118077100Y-100791900D03*
%TO.N,unconnected-(P5-Pad8)*%
X120617100Y-100791900D03*
%TO.N,unconnected-(P5-Pad9)*%
X123157100Y-100791900D03*
%TO.N,OUTPUTSiren*%
X125697100Y-100791900D03*
%TD*%
%TO.N,OUTPUT4*%
%TO.C,P6*%
X129761100Y-100791900D03*
%TO.N,OUTPUT3*%
X132301100Y-100791900D03*
%TO.N,OUTPUT2*%
X134841100Y-100791900D03*
%TO.N,OUTPUT1*%
X137381100Y-100791900D03*
%TO.N,IN2TTL*%
X139921100Y-100791900D03*
%TO.N,IN1TTL*%
X142461100Y-100791900D03*
%TO.N,unconnected-(P6-Pad7)*%
X145001100Y-100791900D03*
%TO.N,unconnected-(P6-Pad8)*%
X147541100Y-100791900D03*
%TD*%
%TO.N,GPSRX*%
%TO.C,P7*%
X152621100Y-100791900D03*
%TO.N,GPSTX*%
X155161100Y-100791900D03*
%TO.N,Com1TX*%
X157701100Y-100791900D03*
%TO.N,Com1RX*%
X160241100Y-100791900D03*
%TO.N,Com2TX*%
X162781100Y-100791900D03*
%TO.N,Com2RX*%
X165321100Y-100791900D03*
%TO.N,SDA*%
X167861100Y-100791900D03*
%TO.N,SCL*%
X170401100Y-100791900D03*
%TD*%
D16*
%TO.N,unconnected-(P8-Pad1)*%
%TO.C,P8*%
X98011100Y-149051900D03*
%TD*%
%TO.N,unconnected-(P9-Pad1)*%
%TO.C,P9*%
X150081100Y-143971900D03*
%TD*%
%TO.N,unconnected-(P10-Pad1)*%
%TO.C,P10*%
X180561100Y-149051900D03*
%TD*%
%TO.N,unconnected-(P11-Pad1)*%
%TO.C,P11*%
X99281100Y-100791900D03*
%TD*%
%TO.N,unconnected-(P12-Pad1)*%
%TO.C,P12*%
X150081100Y-116031900D03*
%TD*%
%TO.N,unconnected-(P13-Pad1)*%
%TO.C,P13*%
X174211100Y-100791900D03*
%TD*%
D17*
%TO.N,Sense1-1*%
%TO.C,J4*%
X196101600Y-78302400D03*
%TO.N,SCL*%
X198001600Y-70682400D03*
%TO.N,Sense1-3*%
X196101600Y-59252400D03*
%TO.N,Sense1-4*%
X192291600Y-78302400D03*
%TO.N,SDA*%
X194191600Y-70682400D03*
%TO.N,Sense1-6*%
X192291600Y-59252400D03*
%TO.N,Sense1-7*%
X188481600Y-78302400D03*
%TO.N,Sense1-8*%
X190381600Y-70682400D03*
%TO.N,Sense1-9*%
X188481600Y-59252400D03*
%TO.N,Sense1-10*%
X184671600Y-78302400D03*
%TO.N,Sense1-11*%
X186571600Y-70682400D03*
%TO.N,Sense1-12*%
X184671600Y-59252400D03*
%TD*%
%TO.N,Sense2-1*%
%TO.C,J5*%
X180857300Y-78302400D03*
%TO.N,Sense2-2*%
X182757300Y-70682400D03*
%TO.N,Sense2-3*%
X180857300Y-59252400D03*
%TO.N,Sense2-4*%
X177047300Y-78302400D03*
%TO.N,Sense2-5*%
X178947300Y-70682400D03*
%TO.N,Sense2-6*%
X177047300Y-59252400D03*
%TO.N,Sense2-7*%
X173237300Y-78302400D03*
%TO.N,Sense2-8*%
X175137300Y-70682400D03*
%TO.N,Sense2-9*%
X173237300Y-59252400D03*
%TO.N,Sense2-10*%
X169427300Y-78302400D03*
%TO.N,Sense2-11*%
X171327300Y-70682400D03*
%TO.N,Sense2-12*%
X169427300Y-59252400D03*
%TD*%
D18*
%TO.N,Net-(D7-Pad1)*%
%TO.C,D7*%
X92892200Y-85548400D03*
D19*
%TO.N,GND*%
X92892200Y-71448400D03*
%TD*%
D20*
%TO.N,Net-(D10-Pad1)*%
%TO.C,D10*%
X149922800Y-121993000D03*
D21*
%TO.N,+3.3VP*%
X160082800Y-121993000D03*
%TD*%
D22*
%TO.N,GND*%
%TO.C,Q8*%
X160890100Y-84718700D03*
D23*
%TO.N,OUTPUTLED1*%
X162160100Y-84718700D03*
%TO.N,Net-(Q8-Pad3)*%
X163430100Y-84718700D03*
%TD*%
D24*
%TO.N,+VDC*%
%TO.C,R43*%
X168607800Y-86594000D03*
D25*
%TO.N,Net-(Q10-Pad1)*%
X166067800Y-86594000D03*
%TD*%
D20*
%TO.N,Net-(D1-Pad1)*%
%TO.C,D1*%
X80706300Y-89808700D03*
D21*
%TO.N,PowerOn*%
X80706300Y-79648700D03*
%TD*%
D22*
%TO.N,GND*%
%TO.C,Q16*%
X174624500Y-84413200D03*
D23*
%TO.N,OUTPUTSiren*%
X175894500Y-84413200D03*
%TO.N,Net-(Q16-Pad3)*%
X177164500Y-84413200D03*
%TD*%
D26*
%TO.N,Net-(Q13-Pad1)*%
%TO.C,Q13*%
X152969100Y-73847300D03*
D27*
%TO.N,Sense2-9*%
X152969100Y-76387300D03*
%TO.N,+VDC*%
X152969100Y-78927300D03*
%TD*%
D24*
%TO.N,Sense2-1*%
%TO.C,R5*%
X108144700Y-138243300D03*
D25*
%TO.N,GND*%
X108144700Y-140783300D03*
%TD*%
D24*
%TO.N,GND*%
%TO.C,R65*%
X120056900Y-124116900D03*
D25*
%TO.N,FuelPressure2*%
X122596900Y-124116900D03*
%TD*%
D24*
%TO.N,GND*%
%TO.C,R71*%
X172102200Y-135512100D03*
D25*
%TO.N,Sense1-3*%
X174642200Y-135512100D03*
%TD*%
D24*
%TO.N,Net-(Q18-Pad1)*%
%TO.C,R56*%
X180195400Y-86247700D03*
D25*
%TO.N,Net-(Q16-Pad3)*%
X182735400Y-86247700D03*
%TD*%
D26*
%TO.N,Net-(Q6-Pad1)*%
%TO.C,Q6*%
X88471600Y-71436700D03*
D27*
%TO.N,Net-(J21-Pad1)*%
X88471600Y-68896700D03*
%TO.N,Net-(Q6-Pad3)*%
X88471600Y-66356700D03*
%TD*%
D28*
%TO.N,Net-(C30-Pad1)*%
%TO.C,C30*%
X197993900Y-123904500D03*
D24*
%TO.N,GND*%
X202993900Y-123904500D03*
%TD*%
%TO.N,Net-(Q20-Pad1)*%
%TO.C,R59*%
X147774100Y-51494800D03*
D25*
%TO.N,Net-(Q19-Pad3)*%
X145234100Y-51494800D03*
%TD*%
D24*
%TO.N,Net-(Q13-Pad1)*%
%TO.C,R48*%
X147351500Y-76587800D03*
D25*
%TO.N,Net-(Q11-Pad3)*%
X147351500Y-79127800D03*
%TD*%
D24*
%TO.N,GND*%
%TO.C,R64*%
X120006400Y-119516000D03*
D25*
%TO.N,FuelPressure1*%
X122546400Y-119516000D03*
%TD*%
D24*
%TO.N,Net-(IC9-Pad5)*%
%TO.C,R22*%
X139843100Y-77085100D03*
D25*
%TO.N,GND*%
X137303100Y-77085100D03*
%TD*%
D24*
%TO.N,+VDC*%
%TO.C,R41*%
X147061400Y-57723300D03*
D25*
%TO.N,Net-(Q9-Pad1)*%
X149601400Y-57723300D03*
%TD*%
D29*
%TO.N,Net-(J24-Pad1)*%
%TO.C,J24*%
X181186800Y-92877800D03*
D30*
%TO.N,Net-(IC14-Pad1)*%
X181186800Y-95417800D03*
%TD*%
D31*
%TO.N,Net-(D7-Pad1)*%
%TO.C,L2*%
X96052200Y-86102400D03*
D32*
%TO.N,+10V*%
X111292200Y-86102400D03*
%TD*%
D24*
%TO.N,Net-(Q6-Pad1)*%
%TO.C,R21*%
X79687400Y-66002600D03*
D25*
%TO.N,GND*%
X79687400Y-63462600D03*
%TD*%
D24*
%TO.N,Net-(Q21-Pad1)*%
%TO.C,R61*%
X79730500Y-69077500D03*
D25*
%TO.N,Net-(Q5-Pad3)*%
X82270500Y-69077500D03*
%TD*%
D29*
%TO.N,+5V*%
%TO.C,T3*%
X185205600Y-133341400D03*
D30*
%TO.N,GND*%
X185205600Y-135881400D03*
%TO.N,unconnected-(T3-Pad3)*%
X185205600Y-138421400D03*
%TO.N,RTDSCLK*%
X185205600Y-140961400D03*
%TO.N,RTDMISO*%
X185205600Y-143501400D03*
%TO.N,RTDMOSI*%
X185205600Y-146041400D03*
%TO.N,RsideCS*%
X185205600Y-148581400D03*
%TO.N,unconnected-(T3-Pad8)*%
X185205600Y-151121400D03*
%TD*%
D18*
%TO.N,Net-(D8-Pad1)*%
%TO.C,D8*%
X114476300Y-50716300D03*
D19*
%TO.N,GND*%
X114476300Y-64816300D03*
%TD*%
D24*
%TO.N,+VDC*%
%TO.C,R58*%
X145684100Y-54609900D03*
D25*
%TO.N,Net-(Q20-Pad1)*%
X148224100Y-54609900D03*
%TD*%
D22*
%TO.N,GND*%
%TO.C,Q23*%
X70303900Y-89526600D03*
D23*
%TO.N,Net-(D1-Pad1)*%
X71573900Y-89526600D03*
%TO.N,Net-(Q22-Pad1)*%
X72843900Y-89526600D03*
%TD*%
D33*
%TO.N,GND*%
%TO.C,Q2*%
X80900100Y-143056000D03*
D34*
%TO.N,Sense2-10*%
X80900100Y-141786000D03*
%TO.N,Net-(D3-Pad1)*%
X80900100Y-140516000D03*
%TD*%
D35*
%TO.N,Net-(C15-Pad2)*%
%TO.C,D6*%
X120888400Y-83319600D03*
D36*
%TO.N,GND*%
X120888400Y-54719600D03*
%TD*%
D29*
%TO.N,/Sheet6152913C/RSCOM2TX*%
%TO.C,J9*%
X110783000Y-129287000D03*
D30*
%TO.N,/Sheet6152913C/RSCOM2RX*%
X113323000Y-129287000D03*
%TO.N,GND*%
X115863000Y-129287000D03*
%TD*%
D33*
%TO.N,Net-(IC12-Pad5)*%
%TO.C,U2*%
X126761900Y-107716700D03*
D34*
%TO.N,GND*%
X126761900Y-106446700D03*
%TO.N,Net-(IC12-Pad5)*%
X126761900Y-105176700D03*
%TD*%
D22*
%TO.N,/A1*%
%TO.C,Q24*%
X156465700Y-115613100D03*
D23*
%TO.N,Net-(IC19-Pad2)*%
X157735700Y-115613100D03*
%TO.N,Net-(D10-Pad1)*%
X159005700Y-115613100D03*
%TD*%
D24*
%TO.N,Net-(D9-Pad1)*%
%TO.C,L4*%
X199771300Y-98617200D03*
D25*
%TO.N,GND*%
X189611300Y-98617200D03*
%TD*%
D22*
%TO.N,GND*%
%TO.C,Q15*%
X140001700Y-90159900D03*
D23*
%TO.N,OUTPUT4*%
X141271700Y-90159900D03*
%TO.N,Net-(Q15-Pad3)*%
X142541700Y-90159900D03*
%TD*%
D24*
%TO.N,+5V*%
%TO.C,R31*%
X125172400Y-110772600D03*
D25*
%TO.N,Net-(IC12-Pad5)*%
X127712400Y-110772600D03*
%TD*%
D24*
%TO.N,GND*%
%TO.C,R67*%
X137262100Y-122136700D03*
D25*
%TO.N,ThrottlePositionADC*%
X139802100Y-122136700D03*
%TD*%
D24*
%TO.N,GND*%
%TO.C,R24*%
X103527600Y-91520800D03*
D25*
%TO.N,Net-(C19-Pad1)*%
X106067600Y-91520800D03*
%TD*%
D37*
%TO.N,Net-(J21-Pad1)*%
%TO.C,J21*%
X91265200Y-55743100D03*
D38*
%TO.N,GND*%
X86185200Y-55743100D03*
%TO.N,PowerOn*%
X81105200Y-55743100D03*
%TD*%
D29*
%TO.N,+5V*%
%TO.C,T4*%
X204282700Y-133341400D03*
D30*
%TO.N,GND*%
X204282700Y-135881400D03*
%TO.N,unconnected-(T4-Pad3)*%
X204282700Y-138421400D03*
%TO.N,RTDSCLK*%
X204282700Y-140961400D03*
%TO.N,RTDMISO*%
X204282700Y-143501400D03*
%TO.N,RTDMOSI*%
X204282700Y-146041400D03*
%TO.N,FrontCS*%
X204282700Y-148581400D03*
%TO.N,unconnected-(T4-Pad8)*%
X204282700Y-151121400D03*
%TD*%
D24*
%TO.N,Net-(C19-Pad1)*%
%TO.C,C19*%
X103764500Y-95181000D03*
%TO.N,+10V*%
X111264500Y-95181000D03*
%TD*%
D28*
%TO.N,+VSW*%
%TO.C,C14*%
X113074300Y-80554800D03*
D24*
%TO.N,GND*%
X113074300Y-78054800D03*
%TD*%
%TO.N,OUTPUTLED2*%
%TO.C,R46*%
X154933700Y-95182900D03*
D25*
%TO.N,GND*%
X152393700Y-95182900D03*
%TD*%
D24*
%TO.N,Sense2-7*%
%TO.C,R9*%
X118390500Y-142064600D03*
D25*
%TO.N,GND*%
X118390500Y-144604600D03*
%TD*%
D24*
%TO.N,GND*%
%TO.C,R72*%
X166193800Y-130785400D03*
D25*
%TO.N,Sense1-6*%
X168733800Y-130785400D03*
%TD*%
D22*
%TO.N,GND*%
%TO.C,Q19*%
X138302400Y-54077800D03*
D23*
%TO.N,OUTPUT1*%
X139572400Y-54077800D03*
%TO.N,Net-(Q19-Pad3)*%
X140842400Y-54077800D03*
%TD*%
D29*
%TO.N,unconnected-(J6-Pad1)*%
%TO.C,J6*%
X93896800Y-105925600D03*
D30*
%TO.N,unconnected-(J6-Pad2)*%
X91356800Y-105925600D03*
%TO.N,GPSBat*%
X88816800Y-105925600D03*
%TO.N,unconnected-(J6-Pad4)*%
X86276800Y-105925600D03*
%TO.N,GPSTX*%
X83736800Y-105925600D03*
%TO.N,GPSRX*%
X81196800Y-105925600D03*
%TO.N,GND*%
X78656800Y-105925600D03*
%TO.N,+5V*%
X76116800Y-105925600D03*
%TO.N,unconnected-(J6-Pad9)*%
X73576800Y-105925600D03*
%TD*%
D24*
%TO.N,+5V*%
%TO.C,R37*%
X153369000Y-108072800D03*
D25*
%TO.N,SCL*%
X153369000Y-110612800D03*
%TD*%
D24*
%TO.N,Sense2-7*%
%TO.C,C2*%
X119512100Y-132503500D03*
%TO.N,GND*%
X119512100Y-137503500D03*
%TD*%
D26*
%TO.N,Net-(Q20-Pad1)*%
%TO.C,Q20*%
X152969100Y-50748700D03*
D27*
%TO.N,Sense2-3*%
X152969100Y-53288700D03*
%TO.N,+VDC*%
X152969100Y-55828700D03*
%TD*%
D24*
%TO.N,Net-(IC14-Pad1)*%
%TO.C,R33*%
X224611300Y-86399600D03*
D25*
%TO.N,GND*%
X222071300Y-86399600D03*
%TD*%
D29*
%TO.N,GND*%
%TO.C,J22*%
X94384900Y-97908600D03*
D30*
%TO.N,+2V5*%
X91844900Y-97908600D03*
%TO.N,+VDC*%
X89304900Y-97908600D03*
%TO.N,+5V*%
X86764900Y-97908600D03*
%TO.N,+3.3VA*%
X84224900Y-97908600D03*
%TO.N,+10V*%
X81684900Y-97908600D03*
%TO.N,+VSW*%
X79144900Y-97908600D03*
%TD*%
D24*
%TO.N,GND*%
%TO.C,R2*%
X154518800Y-135417500D03*
D25*
%TO.N,Sense1-10*%
X157058800Y-135417500D03*
%TD*%
D39*
%TO.N,+VDC*%
%TO.C,Z5*%
X139400400Y-84637100D03*
D40*
%TO.N,Net-(Q17-Pad1)*%
X150100400Y-84637100D03*
%TD*%
D24*
%TO.N,+5V*%
%TO.C,C36*%
X158411400Y-104207200D03*
%TO.N,GND*%
X158411400Y-111707200D03*
%TD*%
%TO.N,+VDC*%
%TO.C,R49*%
X165995500Y-91505500D03*
D25*
%TO.N,Net-(Q14-Pad1)*%
X163455500Y-91505500D03*
%TD*%
D18*
%TO.N,Net-(D9-Pad1)*%
%TO.C,D9*%
X189287900Y-115880600D03*
D19*
%TO.N,Net-(C30-Pad1)*%
X189287900Y-101780600D03*
%TD*%
D24*
%TO.N,+5V*%
%TO.C,R1*%
X218111900Y-89695600D03*
D25*
%TO.N,SDDetect*%
X218111900Y-87155600D03*
%TD*%
D22*
%TO.N,GND*%
%TO.C,Q12*%
X158237900Y-92748100D03*
D23*
%TO.N,OUTPUTLED2*%
X159507900Y-92748100D03*
%TO.N,Net-(Q12-Pad3)*%
X160777900Y-92748100D03*
%TD*%
D28*
%TO.N,GND*%
%TO.C,C39*%
X105777600Y-104378800D03*
D24*
%TO.N,Net-(C39-Pad2)*%
X105777600Y-106878800D03*
%TD*%
D28*
%TO.N,Net-(C40-Pad1)*%
%TO.C,C40*%
X101718200Y-117243200D03*
D24*
%TO.N,+5V*%
X101718200Y-119743200D03*
%TD*%
%TO.N,+5V*%
%TO.C,R11*%
X74694700Y-124310600D03*
D25*
%TO.N,Net-(IC7-Pad7)*%
X77234700Y-124310600D03*
%TD*%
D24*
%TO.N,Sense2-10*%
%TO.C,R8*%
X80495900Y-146081600D03*
D25*
%TO.N,GND*%
X80495900Y-148621600D03*
%TD*%
D24*
%TO.N,+VSW*%
%TO.C,C16*%
X115811000Y-75003600D03*
%TO.N,GND*%
X115811000Y-67503600D03*
%TD*%
%TO.N,Sense2-4*%
%TO.C,R10*%
X108188900Y-144400100D03*
D25*
%TO.N,GND*%
X108188900Y-146940100D03*
%TD*%
D24*
%TO.N,+VDC*%
%TO.C,R47*%
X147470900Y-69262600D03*
D25*
%TO.N,Net-(Q13-Pad1)*%
X150010900Y-69262600D03*
%TD*%
D41*
%TO.N,Net-(IC14-Pad4)*%
%TO.C,RV2*%
X234269300Y-71412700D03*
%TO.N,Net-(J31-Pad1)*%
X234269300Y-73952700D03*
%TO.N,GND*%
X234269300Y-76492700D03*
%TD*%
D24*
%TO.N,Net-(D1-Pad1)*%
%TO.C,R12*%
X79646200Y-76718500D03*
D25*
%TO.N,GND*%
X82186200Y-76718500D03*
%TD*%
D24*
%TO.N,Net-(K1-Pad1)*%
%TO.C,R32*%
X222515100Y-83302700D03*
D25*
%TO.N,Net-(IC14-Pad1)*%
X225055100Y-83302700D03*
%TD*%
D22*
%TO.N,GND*%
%TO.C,Q3*%
X115308000Y-142905600D03*
D23*
%TO.N,Sense2-7*%
X114038000Y-142905600D03*
%TO.N,Net-(D2-Pad1)*%
X112768000Y-142905600D03*
%TD*%
D42*
%TO.N,Net-(C30-Pad1)*%
%TO.C,IC13*%
X192128300Y-102051900D03*
D43*
%TO.N,Net-(C27-Pad1)*%
X192128300Y-104591900D03*
%TO.N,GND*%
X192128300Y-107131900D03*
%TO.N,Net-(C27-Pad1)*%
X192128300Y-109671900D03*
%TO.N,GND*%
X199748300Y-109671900D03*
%TO.N,Net-(C28-Pad1)*%
X199748300Y-107131900D03*
X199748300Y-104591900D03*
%TO.N,Net-(D9-Pad1)*%
X199748300Y-102051900D03*
%TD*%
D29*
%TO.N,SWMOSI*%
%TO.C,J8*%
X229872200Y-121547800D03*
D30*
%TO.N,RTDMOSI*%
X229872200Y-124087800D03*
%TO.N,MOSI*%
X229872200Y-126627800D03*
%TD*%
D24*
%TO.N,Net-(Q9-Pad1)*%
%TO.C,R42*%
X147908100Y-63328600D03*
D25*
%TO.N,Net-(Q7-Pad3)*%
X145368100Y-63328600D03*
%TD*%
D24*
%TO.N,Net-(C15-Pad1)*%
%TO.C,C15*%
X125959500Y-92097700D03*
%TO.N,Net-(C15-Pad2)*%
X125959500Y-84597700D03*
%TD*%
%TO.N,Net-(C32-Pad1)*%
%TO.C,R34*%
X222538900Y-89478600D03*
D25*
%TO.N,GND*%
X225078900Y-89478600D03*
%TD*%
D28*
%TO.N,+5V*%
%TO.C,C18*%
X134997900Y-87964700D03*
D24*
%TO.N,GND*%
X129997900Y-87964700D03*
%TD*%
D26*
%TO.N,Net-(Q17-Pad1)*%
%TO.C,Q17*%
X152969100Y-85396500D03*
D27*
%TO.N,Sense2-12*%
X152969100Y-87936500D03*
%TO.N,+VDC*%
X152969100Y-90476500D03*
%TD*%
D31*
%TO.N,Net-(C27-Pad1)*%
%TO.C,C27*%
X211031400Y-119290600D03*
%TO.N,GND*%
X211031400Y-129290600D03*
%TD*%
%TO.N,Net-(C28-Pad1)*%
%TO.C,C29*%
X218110400Y-119260900D03*
%TO.N,GND*%
X218110400Y-129260900D03*
%TD*%
D28*
%TO.N,+VSW*%
%TO.C,C13*%
X110508700Y-70406100D03*
D24*
%TO.N,GND*%
X110508700Y-67906100D03*
%TD*%
%TO.N,GND*%
%TO.C,R69*%
X137248100Y-128241300D03*
D25*
%TO.N,AFR2*%
X139788100Y-128241300D03*
%TD*%
D22*
%TO.N,GND*%
%TO.C,Q11*%
X140261800Y-64541200D03*
D23*
%TO.N,OUTPUT3*%
X141531800Y-64541200D03*
%TO.N,Net-(Q11-Pad3)*%
X142801800Y-64541200D03*
%TD*%
D24*
%TO.N,GND*%
%TO.C,R20*%
X154613400Y-130738100D03*
D25*
%TO.N,Sense1-4*%
X157153400Y-130738100D03*
%TD*%
D24*
%TO.N,GND*%
%TO.C,R66*%
X137262100Y-119061900D03*
D25*
%TO.N,SpareBufferedADC*%
X139802100Y-119061900D03*
%TD*%
D24*
%TO.N,OUTPUT3*%
%TO.C,R45*%
X142435400Y-69333500D03*
D25*
%TO.N,GND*%
X139895400Y-69333500D03*
%TD*%
D24*
%TO.N,Sense2-10*%
%TO.C,C1*%
X98393200Y-139624000D03*
%TO.N,GND*%
X98393200Y-144624000D03*
%TD*%
D20*
%TO.N,Net-(D2-Pad1)*%
%TO.C,D2*%
X106014900Y-128035400D03*
D21*
%TO.N,Net-(D2-Pad2)*%
X95854900Y-128035400D03*
%TD*%
D24*
%TO.N,+5V*%
%TO.C,R16*%
X74643200Y-128969800D03*
D25*
%TO.N,IN1TTL*%
X77183200Y-128969800D03*
%TD*%
D24*
%TO.N,Net-(C21-Pad1)*%
%TO.C,C21*%
X124890200Y-50980700D03*
%TO.N,GND*%
X117390200Y-50980700D03*
%TD*%
D29*
%TO.N,+5V*%
%TO.C,J3*%
X226581200Y-111690700D03*
D30*
%TO.N,unconnected-(J3-Pad2)*%
X226581200Y-109150700D03*
%TO.N,GND*%
X226581200Y-106610700D03*
%TO.N,SCLK*%
X226581200Y-104070700D03*
%TO.N,MISO*%
X226581200Y-101530700D03*
%TO.N,MOSI*%
X226581200Y-98990700D03*
%TO.N,SDCS*%
X226581200Y-96450700D03*
%TO.N,SDDetect*%
X226581200Y-93910700D03*
%TD*%
D24*
%TO.N,+3.3VP*%
%TO.C,R26*%
X96498000Y-54101900D03*
D25*
%TO.N,Net-(IC11-Pad1)*%
X99038000Y-54101900D03*
%TD*%
D24*
%TO.N,+5V*%
%TO.C,R18*%
X85160400Y-128969800D03*
D25*
%TO.N,IN3TTL*%
X87700400Y-128969800D03*
%TD*%
D29*
%TO.N,+5V*%
%TO.C,T2*%
X185138800Y-97249500D03*
D30*
%TO.N,GND*%
X185138800Y-99789500D03*
%TO.N,unconnected-(T2-Pad3)*%
X185138800Y-102329500D03*
%TO.N,RTDSCLK*%
X185138800Y-104869500D03*
%TO.N,RTDMISO*%
X185138800Y-107409500D03*
%TO.N,RTDMOSI*%
X185138800Y-109949500D03*
%TO.N,LsideCS*%
X185138800Y-112489500D03*
%TO.N,unconnected-(T2-Pad8)*%
X185138800Y-115029500D03*
%TD*%
D24*
%TO.N,+VSW*%
%TO.C,R27*%
X124580100Y-137553400D03*
D25*
%TO.N,Net-(IC12-Pad3)*%
X124580100Y-140093400D03*
%TD*%
D42*
%TO.N,Net-(C37-Pad1)*%
%TO.C,IC17*%
X117227000Y-121483700D03*
D43*
%TO.N,Net-(C40-Pad1)*%
X117227000Y-118943700D03*
%TO.N,Net-(C37-Pad2)*%
X117227000Y-116403700D03*
%TO.N,Net-(C38-Pad1)*%
X117227000Y-113863700D03*
%TO.N,Net-(C38-Pad2)*%
X117227000Y-111323700D03*
%TO.N,Net-(C39-Pad2)*%
X117227000Y-108783700D03*
%TO.N,/Sheet6152913C/RSCOM2TX*%
X117227000Y-106243700D03*
%TO.N,/Sheet6152913C/RSCOM2RX*%
X117227000Y-103703700D03*
%TO.N,Com2RX*%
X109607000Y-103703700D03*
%TO.N,Com2TX*%
X109607000Y-106243700D03*
%TO.N,Com1TX*%
X109607000Y-108783700D03*
%TO.N,Com1RX*%
X109607000Y-111323700D03*
%TO.N,Sense1-8*%
X109607000Y-113863700D03*
%TO.N,Sense1-11*%
X109607000Y-116403700D03*
%TO.N,GND*%
X109607000Y-118943700D03*
%TO.N,+5V*%
X109607000Y-121483700D03*
%TD*%
D24*
%TO.N,GND*%
%TO.C,R4*%
X160658800Y-135417500D03*
D25*
%TO.N,Sense1-1*%
X163198800Y-135417500D03*
%TD*%
D24*
%TO.N,GND*%
%TO.C,R30*%
X140349900Y-139564900D03*
D25*
%TO.N,+2V5*%
X137809900Y-139564900D03*
%TD*%
D39*
%TO.N,+VDC*%
%TO.C,Z1*%
X139490600Y-60519100D03*
D40*
%TO.N,Net-(Q9-Pad1)*%
X150190600Y-60519100D03*
%TD*%
D24*
%TO.N,GND*%
%TO.C,R60*%
X171913200Y-130738100D03*
D25*
%TO.N,Sense1-9*%
X174453200Y-130738100D03*
%TD*%
D24*
%TO.N,Net-(Q14-Pad1)*%
%TO.C,R50*%
X163902400Y-94613000D03*
D25*
%TO.N,Net-(Q12-Pad3)*%
X166442400Y-94613000D03*
%TD*%
D28*
%TO.N,Net-(C28-Pad1)*%
%TO.C,C28*%
X185902000Y-123934200D03*
D24*
%TO.N,GND*%
X190902000Y-123934200D03*
%TD*%
D28*
%TO.N,Net-(C38-Pad1)*%
%TO.C,C38*%
X101718200Y-111166200D03*
D24*
%TO.N,Net-(C38-Pad2)*%
X101718200Y-108666200D03*
%TD*%
D39*
%TO.N,+VDC*%
%TO.C,Z8*%
X83647500Y-89837000D03*
D40*
%TO.N,Net-(Q21-Pad1)*%
X83647500Y-79137000D03*
%TD*%
D39*
%TO.N,+VDC*%
%TO.C,Z7*%
X139423800Y-48453400D03*
D40*
%TO.N,Net-(Q20-Pad1)*%
X150123800Y-48453400D03*
%TD*%
D39*
%TO.N,+VDC*%
%TO.C,Z3*%
X139451700Y-72110600D03*
D40*
%TO.N,Net-(Q13-Pad1)*%
X150151700Y-72110600D03*
%TD*%
D44*
%TO.N,Net-(Q6-Pad3)*%
%TO.C,U1*%
X73402700Y-61747000D03*
%TO.N,+VDC*%
X73402700Y-84347000D03*
%TD*%
D41*
%TO.N,Net-(C30-Pad1)*%
%TO.C,RV1*%
X234282700Y-61210200D03*
%TO.N,Net-(J24-Pad1)*%
X234282700Y-63750200D03*
%TO.N,GND*%
X234282700Y-66290200D03*
%TD*%
D22*
%TO.N,GND*%
%TO.C,Q7*%
X129439400Y-51033300D03*
D23*
%TO.N,OUTPUT2*%
X130709400Y-51033300D03*
%TO.N,Net-(Q7-Pad3)*%
X131979400Y-51033300D03*
%TD*%
D28*
%TO.N,+3.3VP*%
%TO.C,C26*%
X101104300Y-64850900D03*
D24*
%TO.N,GND*%
X106104300Y-64850900D03*
%TD*%
%TO.N,Net-(C19-Pad1)*%
%TO.C,R25*%
X108692700Y-91511200D03*
D25*
%TO.N,+10V*%
X111232700Y-91511200D03*
%TD*%
D24*
%TO.N,Net-(C20-Pad1)*%
%TO.C,C20*%
X97028100Y-78937300D03*
%TO.N,GND*%
X97028100Y-71437300D03*
%TD*%
D29*
%TO.N,+5V*%
%TO.C,T1*%
X206318600Y-78031400D03*
D30*
%TO.N,GND*%
X208858600Y-78031400D03*
%TO.N,unconnected-(T1-Pad3)*%
X211398600Y-78031400D03*
%TO.N,RTDSCLK*%
X213938600Y-78031400D03*
%TO.N,RTDMISO*%
X216478600Y-78031400D03*
%TO.N,RTDMOSI*%
X219018600Y-78031400D03*
%TO.N,WaterCS*%
X221558600Y-78031400D03*
%TO.N,unconnected-(T1-Pad8)*%
X224098600Y-78031400D03*
%TD*%
D29*
%TO.N,SWSCLK*%
%TO.C,J1*%
X234522200Y-121547800D03*
D30*
%TO.N,RTDSCLK*%
X234522200Y-124087800D03*
%TO.N,SCLK*%
X234522200Y-126627800D03*
%TD*%
D24*
%TO.N,VoltageSensor*%
%TO.C,R29*%
X140349900Y-144204100D03*
D25*
%TO.N,GND*%
X137809900Y-144204100D03*
%TD*%
D33*
%TO.N,GND*%
%TO.C,Q5*%
X87981600Y-89848500D03*
D34*
%TO.N,Net-(D1-Pad1)*%
X87981600Y-88578500D03*
%TO.N,Net-(Q5-Pad3)*%
X87981600Y-87308500D03*
%TD*%
D24*
%TO.N,+5V*%
%TO.C,R15*%
X90206200Y-124300000D03*
D25*
%TO.N,Net-(IC7-Pad1)*%
X92746200Y-124300000D03*
%TD*%
D28*
%TO.N,+VSW*%
%TO.C,C22*%
X95632700Y-66514500D03*
D24*
%TO.N,GND*%
X95632700Y-64014500D03*
%TD*%
D45*
%TO.N,VoltageSensor*%
%TO.C,IC12*%
X127218200Y-137301300D03*
D46*
X127218200Y-139841300D03*
%TO.N,Net-(IC12-Pad3)*%
X127218200Y-142381300D03*
%TO.N,GND*%
X127218200Y-144921300D03*
%TO.N,Net-(IC12-Pad5)*%
X135158200Y-144921300D03*
X135158200Y-142381300D03*
%TO.N,+2V5*%
X135158200Y-139841300D03*
%TO.N,+5V*%
X135158200Y-137301300D03*
%TD*%
D26*
%TO.N,Net-(Q14-Pad1)*%
%TO.C,Q14*%
X162856400Y-67378000D03*
D27*
%TO.N,Sense2-8*%
X162856400Y-64838000D03*
%TO.N,+VDC*%
X162856400Y-62298000D03*
%TD*%
D28*
%TO.N,+10V*%
%TO.C,C23*%
X101039200Y-73440900D03*
D24*
%TO.N,GND*%
X106039200Y-73440900D03*
%TD*%
%TO.N,Sense2-1*%
%TO.C,C4*%
X109658300Y-133418000D03*
%TO.N,GND*%
X104658300Y-133418000D03*
%TD*%
%TO.N,+VDC*%
%TO.C,R62*%
X81820500Y-72188200D03*
D25*
%TO.N,Net-(Q21-Pad1)*%
X79280500Y-72188200D03*
%TD*%
D29*
%TO.N,+5V*%
%TO.C,T5*%
X204215900Y-97249500D03*
D30*
%TO.N,GND*%
X204215900Y-99789500D03*
%TO.N,unconnected-(T5-Pad3)*%
X204215900Y-102329500D03*
%TO.N,RTDSCLK*%
X204215900Y-104869500D03*
%TO.N,RTDMISO*%
X204215900Y-107409500D03*
%TO.N,RTDMOSI*%
X204215900Y-109949500D03*
%TO.N,AmbientCS*%
X204215900Y-112489500D03*
%TO.N,unconnected-(T5-Pad8)*%
X204215900Y-115029500D03*
%TD*%
D24*
%TO.N,Net-(IC14-Pad6)*%
%TO.C,R35*%
X215533800Y-84508000D03*
D25*
%TO.N,+VSW*%
X218073800Y-84508000D03*
%TD*%
D24*
%TO.N,+VDC*%
%TO.C,R53*%
X147321700Y-81789700D03*
D25*
%TO.N,Net-(Q17-Pad1)*%
X149861700Y-81789700D03*
%TD*%
D24*
%TO.N,+5V*%
%TO.C,R38*%
X150284600Y-108072800D03*
D25*
%TO.N,SDA*%
X150284600Y-110612800D03*
%TD*%
D24*
%TO.N,+VDC*%
%TO.C,R55*%
X182285400Y-83181700D03*
D25*
%TO.N,Net-(Q18-Pad1)*%
X179745400Y-83181700D03*
%TD*%
D29*
%TO.N,+10V*%
%TO.C,J23*%
X177429000Y-93759200D03*
D30*
%TO.N,Net-(C28-Pad1)*%
X177429000Y-96299200D03*
%TD*%
D24*
%TO.N,OUTPUTSiren*%
%TO.C,R52*%
X176759400Y-87990300D03*
D25*
%TO.N,GND*%
X174219400Y-87990300D03*
%TD*%
D24*
%TO.N,Net-(C17-Pad1)*%
%TO.C,C17*%
X117048200Y-86173200D03*
%TO.N,GND*%
X117048200Y-93673200D03*
%TD*%
%TO.N,Net-(Q10-Pad1)*%
%TO.C,R44*%
X166497800Y-83480000D03*
D25*
%TO.N,Net-(Q8-Pad3)*%
X169037800Y-83480000D03*
%TD*%
D20*
%TO.N,Net-(D5-Pad1)*%
%TO.C,D5*%
X89215600Y-132497900D03*
D21*
%TO.N,Net-(D5-Pad2)*%
X79055600Y-132497900D03*
%TD*%
D12*
%TO.N,Net-(C32-Pad1)*%
%TO.C,C32*%
X213364300Y-96645700D03*
%TO.N,GND*%
X214864300Y-96645700D03*
%TD*%
D22*
%TO.N,GND*%
%TO.C,Q25*%
X212398800Y-83214400D03*
D23*
%TO.N,RPMEN*%
X211128800Y-83214400D03*
%TO.N,Net-(K1-Pad6)*%
X209858800Y-83214400D03*
%TD*%
D26*
%TO.N,Net-(Q21-Pad1)*%
%TO.C,Q21*%
X88471600Y-82669100D03*
D27*
%TO.N,+VSW*%
X88471600Y-80129100D03*
%TO.N,+VDC*%
X88471600Y-77589100D03*
%TD*%
D28*
%TO.N,+VDC*%
%TO.C,C25*%
X98051600Y-58524400D03*
D24*
%TO.N,GND*%
X98051600Y-61024400D03*
%TD*%
%TO.N,+5V*%
%TO.C,R19*%
X90456400Y-128969800D03*
D25*
%TO.N,Logging*%
X92996400Y-128969800D03*
%TD*%
D24*
%TO.N,GND*%
%TO.C,R68*%
X137247800Y-125193500D03*
D25*
%TO.N,AltCurrent*%
X139787800Y-125193500D03*
%TD*%
D24*
%TO.N,RPMEN*%
%TO.C,R70*%
X215032600Y-89695600D03*
D25*
%TO.N,GND*%
X215032600Y-87155600D03*
%TD*%
D24*
%TO.N,GND*%
%TO.C,R6*%
X140895900Y-136279400D03*
D25*
%TO.N,OilPressure*%
X140895900Y-133739400D03*
%TD*%
D24*
%TO.N,Net-(Q17-Pad1)*%
%TO.C,R54*%
X147711900Y-87463200D03*
D25*
%TO.N,Net-(Q15-Pad3)*%
X145171900Y-87463200D03*
%TD*%
D24*
%TO.N,GND*%
%TO.C,R3*%
X160616300Y-130785400D03*
D25*
%TO.N,Sense1-7*%
X163156300Y-130785400D03*
%TD*%
D24*
%TO.N,Net-(IC12-Pad3)*%
%TO.C,R28*%
X124586900Y-142739400D03*
D25*
%TO.N,GND*%
X124586900Y-145279400D03*
%TD*%
D29*
%TO.N,+5V*%
%TO.C,J7*%
X131045500Y-106400900D03*
D30*
%TO.N,+10V*%
X133585500Y-106400900D03*
%TO.N,Vacuum1*%
X131045500Y-108940900D03*
%TO.N,+2V5*%
X133585500Y-108940900D03*
%TO.N,Vacuum2*%
X131045500Y-111480900D03*
%TO.N,GND*%
X133585500Y-111480900D03*
%TD*%
D24*
%TO.N,OUTPUTLED1*%
%TO.C,R40*%
X163398800Y-88349200D03*
D25*
%TO.N,GND*%
X160858800Y-88349200D03*
%TD*%
D24*
%TO.N,Net-(C24-Pad1)*%
%TO.C,C24*%
X110383600Y-57414700D03*
%TO.N,GND*%
X110383600Y-64914700D03*
%TD*%
%TO.N,OUTPUT2*%
%TO.C,R39*%
X131603800Y-54678100D03*
D25*
%TO.N,GND*%
X129063800Y-54678100D03*
%TD*%
D24*
%TO.N,OUTPUT4*%
%TO.C,R51*%
X142096800Y-93759800D03*
D25*
%TO.N,GND*%
X139556800Y-93759800D03*
%TD*%
D29*
%TO.N,SWMISO*%
%TO.C,J2*%
X225222200Y-121547800D03*
D30*
%TO.N,RTDMISO*%
X225222200Y-124087800D03*
%TO.N,MISO*%
X225222200Y-126627800D03*
%TD*%
D26*
%TO.N,Net-(Q9-Pad1)*%
%TO.C,Q9*%
X152969100Y-62298000D03*
D27*
%TO.N,Sense2-6*%
X152969100Y-64838000D03*
%TO.N,+VDC*%
X152969100Y-67378000D03*
%TD*%
D29*
%TO.N,Net-(J31-Pad1)*%
%TO.C,J31*%
X150145600Y-137205600D03*
D30*
%TO.N,/A10*%
X150145600Y-139745600D03*
%TD*%
D24*
%TO.N,Sense2-4*%
%TO.C,C3*%
X114841200Y-132433600D03*
%TO.N,GND*%
X114841200Y-137433600D03*
%TD*%
%TO.N,+5V*%
%TO.C,R13*%
X79847600Y-124300000D03*
D25*
%TO.N,Net-(IC7-Pad5)*%
X82387600Y-124300000D03*
%TD*%
D20*
%TO.N,Net-(D4-Pad1)*%
%TO.C,D4*%
X89215600Y-137290500D03*
D21*
%TO.N,Net-(D4-Pad2)*%
X79055600Y-137290500D03*
%TD*%
D24*
%TO.N,GND*%
%TO.C,R36*%
X166288400Y-135464800D03*
D25*
%TO.N,Sense1-12*%
X168828400Y-135464800D03*
%TD*%
D29*
%TO.N,+5V*%
%TO.C,T6*%
X155695300Y-141069100D03*
D30*
%TO.N,GND*%
X158235300Y-141069100D03*
%TO.N,unconnected-(T6-Pad3)*%
X160775300Y-141069100D03*
%TO.N,RTDSCLK*%
X163315300Y-141069100D03*
%TO.N,RTDMISO*%
X165855300Y-141069100D03*
%TO.N,RTDMOSI*%
X168395300Y-141069100D03*
%TO.N,CarbCS*%
X170935300Y-141069100D03*
%TO.N,unconnected-(T6-Pad8)*%
X173475300Y-141069100D03*
%TD*%
D24*
%TO.N,+5V*%
%TO.C,R17*%
X79880700Y-128961300D03*
D25*
%TO.N,IN2TTL*%
X82420700Y-128961300D03*
%TD*%
D24*
%TO.N,Net-(Q22-Pad1)*%
%TO.C,R63*%
X76015800Y-88348200D03*
D25*
%TO.N,+3.3VP*%
X76015800Y-90888200D03*
%TD*%
D22*
%TO.N,GND*%
%TO.C,Q1*%
X105116400Y-139102200D03*
D23*
%TO.N,Sense2-1*%
X103846400Y-139102200D03*
%TO.N,Net-(D5-Pad1)*%
X102576400Y-139102200D03*
%TD*%
D24*
%TO.N,+10V*%
%TO.C,R23*%
X98369900Y-91532800D03*
D25*
%TO.N,Net-(IC10-Pad1)*%
X100909900Y-91532800D03*
%TD*%
D28*
%TO.N,Net-(C37-Pad1)*%
%TO.C,C37*%
X105777600Y-115358800D03*
D24*
%TO.N,Net-(C37-Pad2)*%
X105777600Y-112858800D03*
%TD*%
D31*
%TO.N,Net-(C15-Pad2)*%
%TO.C,L1*%
X125176300Y-81011700D03*
D32*
%TO.N,+5V*%
X140416300Y-81011700D03*
%TD*%
D22*
%TO.N,GND*%
%TO.C,Q4*%
X104959000Y-145284700D03*
D23*
%TO.N,Sense2-4*%
X103689000Y-145284700D03*
%TO.N,Net-(D4-Pad1)*%
X102419000Y-145284700D03*
%TD*%
D45*
%TO.N,Net-(IC14-Pad1)*%
%TO.C,IC14*%
X227755400Y-90720400D03*
D46*
%TO.N,Net-(C31-Pad1)*%
X230295400Y-90720400D03*
%TO.N,Net-(C32-Pad1)*%
X232835400Y-90720400D03*
%TO.N,Net-(IC14-Pad4)*%
X235375400Y-90720400D03*
%TO.N,+VSW*%
X235375400Y-82780400D03*
%TO.N,Net-(IC14-Pad6)*%
X232835400Y-82780400D03*
%TO.N,Net-(IC14-Pad4)*%
X230295400Y-82780400D03*
%TO.N,GND*%
X227755400Y-82780400D03*
%TD*%
D24*
%TO.N,GND*%
%TO.C,R7*%
X137809900Y-136273900D03*
D25*
%TO.N,AFR1*%
X137809900Y-133733900D03*
%TD*%
D26*
%TO.N,Net-(Q10-Pad1)*%
%TO.C,Q10*%
X162809300Y-55828700D03*
D27*
%TO.N,Sense2-11*%
X162809300Y-53288700D03*
%TO.N,+VDC*%
X162809300Y-50748700D03*
%TD*%
D31*
%TO.N,Net-(D8-Pad1)*%
%TO.C,L3*%
X111539800Y-50273700D03*
D32*
%TO.N,+3.3VP*%
X96299800Y-50273700D03*
%TD*%
D26*
%TO.N,Net-(Q18-Pad1)*%
%TO.C,Q18*%
X162856400Y-78927300D03*
D27*
%TO.N,Sense2-5*%
X162856400Y-76387300D03*
%TO.N,+VDC*%
X162856400Y-73847300D03*
%TD*%
D20*
%TO.N,Net-(D3-Pad1)*%
%TO.C,D3*%
X93649500Y-150182100D03*
D21*
%TO.N,Net-(D3-Pad2)*%
X83489500Y-150182100D03*
%TD*%
D24*
%TO.N,+5V*%
%TO.C,R14*%
X85053400Y-124300000D03*
D25*
%TO.N,Net-(IC7-Pad3)*%
X87593400Y-124300000D03*
%TD*%
D24*
%TO.N,OUTPUT1*%
%TO.C,R57*%
X141143800Y-57709500D03*
D25*
%TO.N,GND*%
X138603800Y-57709500D03*
%TD*%
D39*
%TO.N,+VDC*%
%TO.C,Z2*%
X177929300Y-48427000D03*
D40*
%TO.N,Net-(Q10-Pad1)*%
X167229300Y-48427000D03*
%TD*%
D39*
%TO.N,+VDC*%
%TO.C,Z6*%
X177929300Y-53623000D03*
D40*
%TO.N,Net-(Q18-Pad1)*%
X167229300Y-53623000D03*
%TD*%
D39*
%TO.N,+VDC*%
%TO.C,Z4*%
X177929300Y-51059400D03*
D40*
%TO.N,Net-(Q14-Pad1)*%
X167229300Y-51059400D03*
%TD*%
D47*
%TO.N,GND*%
X78790500Y-119627600D03*
X73710300Y-119627600D03*
X90003300Y-121230000D03*
X86535800Y-122398100D03*
X71921100Y-92287100D03*
X88227800Y-122082700D03*
X99885200Y-122596500D03*
X166780300Y-105632500D03*
X153749900Y-93826600D03*
X85089700Y-121256300D03*
%TO.N,Net-(J31-Pad1)*%
X170132600Y-106666900D03*
%TO.N,Net-(C15-Pad2)*%
X125393000Y-75213100D03*
%TO.N,Net-(D2-Pad2)*%
X86756000Y-112141900D03*
%TO.N,Net-(D3-Pad2)*%
X88790200Y-111911000D03*
X82764500Y-141249200D03*
%TO.N,Net-(D4-Pad2)*%
X78787900Y-110720900D03*
%TO.N,GPSRX*%
X128764500Y-102168500D03*
%TO.N,FuelPressure2*%
X127090500Y-124155000D03*
%TO.N,FuelPressure1*%
X127178200Y-118854900D03*
%TO.N,OilPressure*%
X152188200Y-137925000D03*
X130950500Y-132325700D03*
%TO.N,SCL*%
X175231900Y-94662900D03*
%TO.N,SDA*%
X187538800Y-76015700D03*
X189799300Y-95515000D03*
%TO.N,WaterCS*%
X183626600Y-139449900D03*
X217743900Y-139630300D03*
%TO.N,Net-(IC7-Pad1)*%
X92718500Y-112130000D03*
%TO.N,+2V5*%
X129639900Y-106347400D03*
%TO.N,Net-(C19-Pad1)*%
X107083000Y-77289400D03*
%TO.N,Net-(IC7-Pad3)*%
X87638500Y-112166100D03*
%TO.N,Net-(IC7-Pad7)*%
X77478500Y-112148500D03*
%TO.N,GPSBat*%
X98856000Y-137745100D03*
%TO.N,Net-(C28-Pad1)*%
X201464300Y-115722100D03*
%TO.N,Net-(C30-Pad1)*%
X190133400Y-106772700D03*
X202507700Y-99673100D03*
%TO.N,Net-(D5-Pad2)*%
X76169200Y-110720900D03*
%TO.N,Net-(IC7-Pad5)*%
X82558500Y-112147200D03*
%TO.N,IN3TTL*%
X83800400Y-119679700D03*
%TO.N,IN2TTL*%
X129799200Y-118880400D03*
X138953300Y-103193300D03*
X86942100Y-121511400D03*
%TO.N,IN1TTL*%
X91486900Y-119536500D03*
X102537900Y-118613200D03*
%TO.N,/A1*%
X138939800Y-138856100D03*
%TO.N,/Sheet6152913C/RSCOM2RX*%
X123432300Y-109569400D03*
%TO.N,RPMEN*%
X200839200Y-116393500D03*
%TO.N,Com2RX*%
X137911900Y-103328100D03*
%TO.N,Sense2-1*%
X182330400Y-88296500D03*
X178289300Y-91327000D03*
X148854600Y-127239200D03*
%TO.N,Sense2-4*%
X172486409Y-105553819D03*
X167391500Y-111041600D03*
X182545100Y-91926200D03*
X158209000Y-129818700D03*
%TO.N,Com2TX*%
X128507100Y-98813300D03*
%TO.N,Com1RX*%
X138872900Y-113656700D03*
%TO.N,Sense2-7*%
X147624900Y-99119200D03*
X150943700Y-95450300D03*
%TO.N,Sense2-10*%
X162733400Y-83451500D03*
X103684300Y-84769800D03*
%TO.N,Sense1-1*%
X183802800Y-111193900D03*
X194752900Y-82759400D03*
%TO.N,Sense1-3*%
X195846400Y-82691000D03*
%TO.N,Sense1-4*%
X135168800Y-131134200D03*
X180288900Y-91355900D03*
%TO.N,Sense1-7*%
X183610900Y-93657600D03*
X159386800Y-129339300D03*
X187857200Y-92611100D03*
X126766500Y-131885700D03*
%TO.N,Sense1-10*%
X129667900Y-131686900D03*
X185133700Y-90868500D03*
X176627700Y-108109500D03*
%TO.N,Sense1-11*%
X183308200Y-99474000D03*
X116427100Y-114644600D03*
X186140800Y-91843700D03*
%TO.N,SDCS*%
X208297200Y-104422100D03*
%TO.N,SDDetect*%
X202099100Y-111481100D03*
%TO.N,Vacuum1*%
X135459500Y-140977300D03*
%TO.N,OUTPUTLED2*%
X174196800Y-96546400D03*
%TO.N,OUTPUTLED1*%
X176041300Y-96693700D03*
%TO.N,OUTPUTSiren*%
X166022200Y-99186700D03*
%TO.N,OUTPUT4*%
X149848600Y-99111000D03*
X152156500Y-96749100D03*
%TO.N,OUTPUT3*%
X149632400Y-95253500D03*
%TO.N,OUTPUT2*%
X124129000Y-99472400D03*
X102213100Y-96849600D03*
%TO.N,OUTPUT1*%
X149060100Y-96797200D03*
%TO.N,Sense1-6*%
X185811400Y-94841900D03*
X132177800Y-127964100D03*
X191445100Y-86545900D03*
%TO.N,+VSW*%
X134180800Y-104050400D03*
X102686600Y-81371200D03*
%TO.N,Net-(IC19-Pad2)*%
X162410600Y-106675000D03*
%TO.N,Sense1-9*%
X129650900Y-122205000D03*
X191771100Y-98899200D03*
%TO.N,Sense1-12*%
X178841500Y-109731400D03*
X167245900Y-125276700D03*
X185855200Y-90458000D03*
X130030200Y-123407500D03*
%TO.N,Sense1-8*%
X168207300Y-113662300D03*
X183066400Y-100866400D03*
X193058600Y-81702600D03*
X118323900Y-115909100D03*
%TO.N,SWSCLK*%
X206434100Y-113714800D03*
%TO.N,RTDSCLK*%
X186331100Y-113223600D03*
X209194000Y-98811500D03*
%TO.N,RTDMOSI*%
X218207700Y-122723000D03*
%TD*%
D48*
%TO.N,GND*%
X87981600Y-90698600D02*
X87131500Y-90698600D01*
X99885200Y-122596500D02*
X90003300Y-122596500D01*
X78790500Y-119627600D02*
X73710300Y-119627600D01*
X90003300Y-122596500D02*
X88741600Y-122596500D01*
X85089700Y-121256300D02*
X80419200Y-121256300D01*
X87131500Y-90698600D02*
X85543000Y-92287100D01*
X80419200Y-121256300D02*
X78790500Y-119627600D01*
X87981600Y-89848500D02*
X87981600Y-90698600D01*
X85543000Y-92287100D02*
X71921100Y-92287100D01*
X88741600Y-122596500D02*
X88227800Y-122082700D01*
X90003300Y-122596500D02*
X90003300Y-121230000D01*
D49*
%TO.N,+5V*%
X204216000Y-97249500D02*
X206410000Y-95055600D01*
D48*
X134997900Y-87964700D02*
X133872800Y-87964700D01*
D49*
X204899500Y-97933000D02*
X204216000Y-97249500D01*
D50*
X125701000Y-97261100D02*
X133448500Y-89514100D01*
X133448500Y-89514100D02*
X134998000Y-87964700D01*
D48*
X202534000Y-83239800D02*
X202534100Y-83239900D01*
D49*
X207242000Y-91012600D02*
X206410000Y-91845000D01*
X205583000Y-98616500D02*
X204899500Y-97933000D01*
X218111900Y-89695700D02*
X216795000Y-91012600D01*
D50*
X102384000Y-95752800D02*
X103892000Y-97261100D01*
D48*
X126297000Y-109648000D02*
X127798000Y-109648000D01*
D49*
X136641000Y-103226000D02*
X141488000Y-108073000D01*
D48*
X133872800Y-89089800D02*
X133872800Y-87964700D01*
D49*
X153369000Y-108073000D02*
X154546000Y-108073000D01*
X206410000Y-95055600D02*
X206410000Y-91845000D01*
X206410000Y-88539500D02*
X202534000Y-84663800D01*
X154546000Y-108073000D02*
X158411000Y-104207000D01*
X126107000Y-97666200D02*
X125701000Y-97261100D01*
X150284600Y-108073000D02*
X153369000Y-108073000D01*
D50*
X125701000Y-97261100D02*
X127871000Y-99430400D01*
D49*
X205583000Y-111116000D02*
X205583000Y-98616500D01*
D48*
X202534100Y-83239900D02*
X202534100Y-84663800D01*
D49*
X141488000Y-108073000D02*
X150284600Y-108073000D01*
X202534000Y-83239800D02*
X202534000Y-81815900D01*
D50*
X86764900Y-97908600D02*
X88920700Y-95752800D01*
D49*
X216795000Y-91012600D02*
X207242000Y-91012600D01*
X206158000Y-111691000D02*
X205583000Y-111116000D01*
X226581000Y-111691000D02*
X206158000Y-111691000D01*
D50*
X127871000Y-99430400D02*
X127871000Y-103226000D01*
D49*
X206410000Y-91845000D02*
X206410000Y-88539500D01*
D50*
X127871000Y-103226000D02*
X131045700Y-106400700D01*
D48*
X127798000Y-109648000D02*
X131046000Y-106401000D01*
D49*
X205583000Y-111116000D02*
X205583000Y-132041000D01*
D50*
X103892000Y-97261100D02*
X125701000Y-97261100D01*
D49*
X184722000Y-97666200D02*
X126107000Y-97666200D01*
D48*
X125172400Y-110772600D02*
X126297000Y-109648000D01*
D49*
X202534000Y-81815900D02*
X206318800Y-78031600D01*
D50*
X88920700Y-95752800D02*
X102384000Y-95752800D01*
D49*
X205583000Y-132041000D02*
X204283000Y-133341000D01*
D48*
X133448500Y-89514100D02*
X133872800Y-89089800D01*
D49*
X202534000Y-84663800D02*
X202534000Y-83239800D01*
X127871000Y-103226000D02*
X136641000Y-103226000D01*
D50*
%TO.N,+10V*%
X101039000Y-81152200D02*
X101039000Y-88863500D01*
D48*
X101039200Y-81152000D02*
X101039200Y-73440900D01*
D50*
X98369900Y-91532800D02*
X88060700Y-91532800D01*
X100346000Y-93509000D02*
X98369900Y-91532800D01*
X109592000Y-93509000D02*
X100346000Y-93509000D01*
D48*
X101039000Y-81152200D02*
X101039200Y-81152000D01*
D50*
X101039000Y-88863500D02*
X98369900Y-91532800D01*
X111264000Y-91543000D02*
X111264000Y-95181000D01*
X111233000Y-86161900D02*
X111233000Y-91511200D01*
X88060700Y-91532800D02*
X81684900Y-97908600D01*
X111264000Y-95181000D02*
X109592000Y-93509000D01*
X101039000Y-73440900D02*
X101039000Y-81152200D01*
D48*
%TO.N,+VDC*%
X181376900Y-83181700D02*
X177964600Y-86594000D01*
X165995500Y-91505500D02*
X164824100Y-90334100D01*
X177964600Y-86594000D02*
X168607800Y-86594000D01*
X164824100Y-90334100D02*
X153111500Y-90334100D01*
X182285400Y-83181700D02*
X181376900Y-83181700D01*
%TO.N,Net-(D10-Pad1)*%
X159005700Y-115613100D02*
X159005700Y-116688200D01*
X159005700Y-116688200D02*
X156652700Y-116688200D01*
X149922800Y-121993000D02*
X151347900Y-121993000D01*
X156652700Y-116688200D02*
X151347900Y-121993000D01*
%TO.N,Net-(J31-Pad1)*%
X177245400Y-101980700D02*
X182836100Y-101980700D01*
X208193200Y-73952700D02*
X234269300Y-73952700D01*
X190096400Y-99784000D02*
X191130400Y-98750000D01*
X172559200Y-106666900D02*
X177245400Y-101980700D01*
X170132600Y-106666900D02*
X172559200Y-106666900D01*
X188026700Y-99784000D02*
X190096400Y-99784000D01*
X191130400Y-91015500D02*
X208193200Y-73952700D01*
X186846000Y-100964700D02*
X188026700Y-99784000D01*
X191130400Y-98750000D02*
X191130400Y-91015500D01*
X182836100Y-101980700D02*
X183852100Y-100964700D01*
X183852100Y-100964700D02*
X186846000Y-100964700D01*
%TO.N,Net-(K1-Pad1)*%
X222515100Y-83302700D02*
X220141300Y-85676500D01*
X220141300Y-85676500D02*
X206086800Y-85676500D01*
X206086800Y-85676500D02*
X205074100Y-84663800D01*
%TO.N,SCLK*%
X183586800Y-142231400D02*
X217743500Y-142231400D01*
X183195900Y-142622300D02*
X183586800Y-142231400D01*
X234522200Y-126627800D02*
X233347100Y-126627800D01*
X217743500Y-142231400D02*
X233347100Y-126627800D01*
X179209800Y-141803400D02*
X180028700Y-142622300D01*
X180028700Y-142622300D02*
X183195900Y-142622300D01*
X178021100Y-141431900D02*
X179209800Y-141431900D01*
X179209800Y-141431900D02*
X179209800Y-141803400D01*
%TO.N,MOSI*%
X183490300Y-137151400D02*
X181749800Y-138891900D01*
X229872200Y-126627800D02*
X228697100Y-126627800D01*
X180561100Y-138891900D02*
X181749800Y-138891900D01*
X218173500Y-137151400D02*
X183490300Y-137151400D01*
X228697100Y-126627800D02*
X218173500Y-137151400D01*
%TO.N,MISO*%
X183951900Y-134644000D02*
X216030900Y-134644000D01*
X180026900Y-137703200D02*
X180892700Y-137703200D01*
X179209800Y-138891900D02*
X179209800Y-138520300D01*
X180892700Y-137703200D02*
X183951900Y-134644000D01*
X178021100Y-138891900D02*
X179209800Y-138891900D01*
X225222200Y-126627800D02*
X224047100Y-126627800D01*
X179209800Y-138520300D02*
X180026900Y-137703200D01*
X216030900Y-134644000D02*
X224047100Y-126627800D01*
%TO.N,Net-(D3-Pad1)*%
X82915400Y-140516000D02*
X80900100Y-140516000D01*
X92224400Y-150182100D02*
X92224400Y-149825000D01*
X93649500Y-150182100D02*
X92224400Y-150182100D01*
X92224400Y-149825000D02*
X82915400Y-140516000D01*
%TO.N,Net-(D8-Pad1)*%
X114476300Y-50716300D02*
X113363700Y-50716300D01*
X112921100Y-50273700D02*
X113363700Y-50716300D01*
X111539800Y-50273700D02*
X112921100Y-50273700D01*
%TO.N,GPSRX*%
X138457500Y-102168500D02*
X138507900Y-102118100D01*
X128764500Y-102168500D02*
X138457500Y-102168500D01*
X149605700Y-102618600D02*
X151432400Y-100791900D01*
X138507900Y-102118100D02*
X139398800Y-102118100D01*
X152621100Y-100791900D02*
X151432400Y-100791900D01*
X139899300Y-102618600D02*
X149605700Y-102618600D01*
X139398800Y-102118100D02*
X139899300Y-102618600D01*
%TO.N,FuelPressure2*%
X123722000Y-124116900D02*
X123760100Y-124155000D01*
X122596900Y-124116900D02*
X123722000Y-124116900D01*
X123760100Y-124155000D02*
X127090500Y-124155000D01*
%TO.N,FuelPressure1*%
X123671500Y-119516000D02*
X124332600Y-118854900D01*
X122546400Y-119516000D02*
X123671500Y-119516000D01*
X124332600Y-118854900D02*
X127178200Y-118854900D01*
%TO.N,OilPressure*%
X139685600Y-133739400D02*
X140895900Y-133739400D01*
X148891800Y-133739400D02*
X152188200Y-137035800D01*
X152188200Y-137035800D02*
X152188200Y-137925000D01*
X138271900Y-132325700D02*
X139685600Y-133739400D01*
X140895900Y-133739400D02*
X148891800Y-133739400D01*
X130950500Y-132325700D02*
X138271900Y-132325700D01*
%TO.N,SCL*%
X104025800Y-100791900D02*
X104025800Y-101275700D01*
X153369000Y-110612800D02*
X156285500Y-110612800D01*
X147106500Y-112665800D02*
X148034300Y-111738000D01*
X175231900Y-92805400D02*
X175231900Y-94662900D01*
X181465400Y-86571900D02*
X175231900Y-92805400D01*
X169212400Y-101275600D02*
X165665100Y-104822900D01*
X109287000Y-105338500D02*
X117603100Y-105338500D01*
X119943200Y-113115900D02*
X135205500Y-113115900D01*
X181465400Y-85856400D02*
X181465400Y-86571900D01*
X118337900Y-106073300D02*
X118337900Y-111510600D01*
X135655600Y-112665800D02*
X147106500Y-112665800D01*
X165665100Y-104822900D02*
X162075400Y-104822900D01*
X162075400Y-104822900D02*
X156285500Y-110612800D01*
X198001600Y-70682400D02*
X187200600Y-81483400D01*
X118337900Y-111510600D02*
X119943200Y-113115900D01*
X185838400Y-81483400D02*
X181465400Y-85856400D01*
X135205500Y-113115900D02*
X135655600Y-112665800D01*
X152098700Y-111063000D02*
X153203300Y-111063000D01*
X105602700Y-102852600D02*
X106801100Y-102852600D01*
X151423700Y-111738000D02*
X152098700Y-111063000D01*
X187200600Y-81483400D02*
X185838400Y-81483400D01*
X104025800Y-101275700D02*
X105602700Y-102852600D01*
X170401100Y-100791900D02*
X169212400Y-100791900D01*
X117603100Y-105338500D02*
X118337900Y-106073300D01*
X169212400Y-100791900D02*
X169212400Y-101275600D01*
X102837100Y-100791900D02*
X104025800Y-100791900D01*
X148034300Y-111738000D02*
X151423700Y-111738000D01*
X106801100Y-102852600D02*
X109287000Y-105338500D01*
%TO.N,SDA*%
X194191600Y-70682400D02*
X188858300Y-76015700D01*
X170228400Y-98424600D02*
X167861100Y-100791900D01*
X189799300Y-95515000D02*
X186889700Y-98424600D01*
X186889700Y-98424600D02*
X170228400Y-98424600D01*
X162048100Y-104213600D02*
X156774000Y-109487700D01*
X105377100Y-100791900D02*
X106565800Y-100791900D01*
X109473500Y-104888300D02*
X106565800Y-101980600D01*
X163733000Y-104213600D02*
X162048100Y-104213600D01*
X149159500Y-110612800D02*
X147331100Y-108784400D01*
X134437600Y-112665800D02*
X125421600Y-112665800D01*
X166672400Y-100791900D02*
X166672400Y-101274200D01*
X138319000Y-108784400D02*
X134437600Y-112665800D01*
X166672400Y-101274200D02*
X163733000Y-104213600D01*
X152534800Y-109487700D02*
X151409700Y-110612800D01*
X125421600Y-112665800D02*
X122365700Y-109609900D01*
X150284600Y-110612800D02*
X149159500Y-110612800D01*
X122365700Y-109609900D02*
X122365700Y-109433500D01*
X117820500Y-104888300D02*
X109473500Y-104888300D01*
X156774000Y-109487700D02*
X152534800Y-109487700D01*
X122365700Y-109433500D02*
X117820500Y-104888300D01*
X188858300Y-76015700D02*
X187538800Y-76015700D01*
X167861100Y-100791900D02*
X166672400Y-100791900D01*
X106565800Y-101980600D02*
X106565800Y-100791900D01*
X147331100Y-108784400D02*
X138319000Y-108784400D01*
X150847200Y-110612800D02*
X151409700Y-110612800D01*
%TO.N,WaterCS*%
X217743900Y-139630300D02*
X183807000Y-139630300D01*
X183807000Y-139630300D02*
X183626600Y-139449900D01*
%TO.N,Net-(C38-Pad1)*%
X106902800Y-112228900D02*
X115592200Y-112228900D01*
X105840100Y-111166200D02*
X106902800Y-112228900D01*
X101718200Y-111166200D02*
X105840100Y-111166200D01*
X115592200Y-112228900D02*
X117227000Y-113863700D01*
%TO.N,AmbientCS*%
X204215900Y-112489500D02*
X203040800Y-112489500D01*
X196574300Y-118956000D02*
X186945800Y-118956000D01*
X180026900Y-125003200D02*
X179209800Y-125820300D01*
X186945800Y-118956000D02*
X180898600Y-125003200D01*
X180898600Y-125003200D02*
X180026900Y-125003200D01*
X178021100Y-126191900D02*
X179209800Y-126191900D01*
X203040800Y-112489500D02*
X196574300Y-118956000D01*
X179209800Y-125820300D02*
X179209800Y-126191900D01*
%TO.N,Logging*%
X179372400Y-136351900D02*
X179372400Y-136721300D01*
X147880800Y-138562100D02*
X147409300Y-138090600D01*
X180561100Y-136351900D02*
X179372400Y-136351900D01*
X178471800Y-137621900D02*
X177363900Y-137621900D01*
X176423700Y-138562100D02*
X147880800Y-138562100D01*
X177363900Y-137621900D02*
X176423700Y-138562100D01*
X179372400Y-136721300D02*
X178471800Y-137621900D01*
X137316200Y-138090600D02*
X135329200Y-136103600D01*
X135329200Y-136103600D02*
X101255300Y-136103600D01*
X101255300Y-136103600D02*
X94121500Y-128969800D01*
X147409300Y-138090600D02*
X137316200Y-138090600D01*
X92996400Y-128969800D02*
X94121500Y-128969800D01*
%TO.N,Net-(C40-Pad1)*%
X101718200Y-117243200D02*
X102843300Y-117243200D01*
X103273800Y-117673700D02*
X102843300Y-117243200D01*
X117227000Y-118943700D02*
X115957000Y-117673700D01*
X115957000Y-117673700D02*
X103273800Y-117673700D01*
D50*
%TO.N,+3.3VP*%
X99542300Y-64850900D02*
X96498000Y-61806600D01*
D48*
X102407800Y-113984000D02*
X108367300Y-113984000D01*
X114014000Y-114768900D02*
X117237500Y-117992400D01*
X132603000Y-117992400D02*
X135209900Y-120599300D01*
X147054900Y-123868200D02*
X156782500Y-123868200D01*
X117237500Y-117992400D02*
X132603000Y-117992400D01*
X91078100Y-100947200D02*
X98780700Y-108649800D01*
X143786000Y-120599300D02*
X147054900Y-123868200D01*
X109152200Y-114768900D02*
X114014000Y-114768900D01*
X160082800Y-121993000D02*
X158657700Y-121993000D01*
X108367300Y-113984000D02*
X109152200Y-114768900D01*
D50*
X101104000Y-64850900D02*
X99542300Y-64850900D01*
X96498000Y-61806600D02*
X96498000Y-54101900D01*
D48*
X98780700Y-110356900D02*
X102407800Y-113984000D01*
X135209900Y-120599300D02*
X143786000Y-120599300D01*
X156782500Y-123868200D02*
X158657700Y-121993000D01*
X98780700Y-108649800D02*
X98780700Y-110356900D01*
X70584100Y-100947200D02*
X91078100Y-100947200D01*
%TO.N,Net-(D4-Pad1)*%
X92065800Y-138715600D02*
X90640700Y-137290500D01*
X89215600Y-137290500D02*
X90640700Y-137290500D01*
X94999800Y-138715600D02*
X92065800Y-138715600D01*
X101568900Y-145284700D02*
X94999800Y-138715600D01*
X102419000Y-145284700D02*
X101568900Y-145284700D01*
%TO.N,+2V5*%
X119347100Y-101369600D02*
X121304200Y-103326700D01*
X93020000Y-97077500D02*
X93364100Y-96733400D01*
X98699400Y-98434700D02*
X117611600Y-98434700D01*
X117611600Y-98434700D02*
X119347100Y-100170200D01*
X96998100Y-96733400D02*
X98699400Y-98434700D01*
X91844900Y-97908600D02*
X93020000Y-97908600D01*
X135158200Y-139841300D02*
X136408400Y-139841300D01*
X126619200Y-103326700D02*
X129639900Y-106347400D01*
X93364100Y-96733400D02*
X96998100Y-96733400D01*
X93020000Y-97908600D02*
X93020000Y-97077500D01*
X119347100Y-100170200D02*
X119347100Y-101369600D01*
X137809900Y-139564900D02*
X136684800Y-139564900D01*
X121304200Y-103326700D02*
X126619200Y-103326700D01*
X136408400Y-139841300D02*
X136684800Y-139564900D01*
D50*
%TO.N,Net-(C19-Pad1)*%
X106068000Y-91520800D02*
X108683000Y-91520800D01*
D48*
%TO.N,GPSBat*%
X163291400Y-150413000D02*
X134322700Y-150413000D01*
X112649600Y-146879500D02*
X106689400Y-140919300D01*
X164132400Y-149051900D02*
X164132400Y-149572000D01*
X164132400Y-149572000D02*
X163291400Y-150413000D01*
X165321100Y-149051900D02*
X164132400Y-149051900D01*
X130789200Y-146879500D02*
X112649600Y-146879500D01*
X134322700Y-150413000D02*
X130789200Y-146879500D01*
X102030200Y-140919300D02*
X98856000Y-137745100D01*
X106689400Y-140919300D02*
X102030200Y-140919300D01*
%TO.N,Net-(C28-Pad1)*%
X193357900Y-122809100D02*
X200444900Y-115722100D01*
X187027100Y-123934200D02*
X188152200Y-122809100D01*
X200444900Y-115722100D02*
X201464300Y-115722100D01*
X185902000Y-123934200D02*
X187027100Y-123934200D01*
X188152200Y-122809100D02*
X193357900Y-122809100D01*
%TO.N,Net-(C30-Pad1)*%
X201034000Y-101146800D02*
X193938500Y-101146800D01*
X193938500Y-101146800D02*
X193033400Y-102051900D01*
X192580900Y-102051900D02*
X193033400Y-102051900D01*
X202507700Y-99673100D02*
X201034000Y-101146800D01*
X192128300Y-102051900D02*
X189559200Y-102051900D01*
%TO.N,Net-(C32-Pad1)*%
X230451100Y-88336100D02*
X223681400Y-88336100D01*
X223681400Y-88336100D02*
X222538900Y-89478600D01*
X232835400Y-90720400D02*
X230451100Y-88336100D01*
%TO.N,Net-(C37-Pad2)*%
X113682100Y-112858800D02*
X117227000Y-116403700D01*
X105777600Y-112858800D02*
X113682100Y-112858800D01*
%TO.N,Net-(C38-Pad2)*%
X102740900Y-109688900D02*
X115592200Y-109688900D01*
X101718200Y-108666200D02*
X102740900Y-109688900D01*
X115592200Y-109688900D02*
X117227000Y-111323700D01*
%TO.N,Net-(C39-Pad2)*%
X117227000Y-108783700D02*
X115957000Y-107513700D01*
X106412500Y-107513700D02*
X105777600Y-106878800D01*
X115957000Y-107513700D02*
X106412500Y-107513700D01*
%TO.N,Net-(D5-Pad1)*%
X95122000Y-132497900D02*
X89215600Y-132497900D01*
X102576400Y-139102200D02*
X101726300Y-139102200D01*
X101726300Y-139102200D02*
X95122000Y-132497900D01*
%TO.N,IN3TTL*%
X180561100Y-133811900D02*
X179372400Y-133811900D01*
X172149300Y-132623200D02*
X169868000Y-130341900D01*
X87700400Y-128969800D02*
X88825500Y-128969800D01*
X169868000Y-130265000D02*
X166196400Y-126593400D01*
X179372400Y-133811900D02*
X179372400Y-133440300D01*
X178555300Y-132623200D02*
X172149300Y-132623200D01*
X169868000Y-130341900D02*
X169868000Y-130265000D01*
X179372400Y-133440300D02*
X178555300Y-132623200D01*
X166196400Y-126593400D02*
X91201900Y-126593400D01*
X91201900Y-126593400D02*
X88825500Y-128969800D01*
%TO.N,IN2TTL*%
X87160900Y-121730200D02*
X86942100Y-121511400D01*
X83123900Y-127836200D02*
X86178500Y-124781600D01*
X117878400Y-123245500D02*
X119544100Y-121579800D01*
X86942100Y-123110700D02*
X87160900Y-122891900D01*
X119544100Y-121579800D02*
X127099800Y-121579800D01*
X127099800Y-121579800D02*
X129799200Y-118880400D01*
X86942100Y-123110700D02*
X99172300Y-123110700D01*
X99172300Y-123110700D02*
X99307100Y-123245500D01*
X86178500Y-123874300D02*
X86942100Y-123110700D01*
X82420700Y-127836200D02*
X83123900Y-127836200D01*
X86178500Y-124781600D02*
X86178500Y-123874300D01*
X99307100Y-123245500D02*
X117878400Y-123245500D01*
X87160900Y-122891900D02*
X87160900Y-121730200D01*
X82420700Y-128961300D02*
X82420700Y-127836200D01*
%TO.N,IN1TTL*%
X87218400Y-120351100D02*
X87086600Y-120219300D01*
X88033000Y-119536500D02*
X87218400Y-120351100D01*
X80731100Y-126406400D02*
X78308300Y-128829200D01*
X85714900Y-121854600D02*
X83720500Y-123849000D01*
X85714900Y-121218000D02*
X85714900Y-121854600D01*
X77183200Y-128969800D02*
X78308300Y-128969800D01*
X86713600Y-120219300D02*
X85714900Y-121218000D01*
X81942400Y-126406400D02*
X80731100Y-126406400D01*
X92410200Y-118613200D02*
X91486900Y-119536500D01*
X87086600Y-120219300D02*
X86713600Y-120219300D01*
X78308300Y-128829200D02*
X78308300Y-128969800D01*
X91486900Y-119536500D02*
X88033000Y-119536500D01*
X83720500Y-124628300D02*
X81942400Y-126406400D01*
X102537900Y-118613200D02*
X92410200Y-118613200D01*
X83720500Y-123849000D02*
X83720500Y-124628300D01*
%TO.N,/A1*%
X138939800Y-140287300D02*
X141516600Y-142864100D01*
X137381100Y-149051900D02*
X138569800Y-149051900D01*
X141516600Y-144916400D02*
X138569800Y-147863200D01*
X138939800Y-138856100D02*
X138939800Y-140287300D01*
X141516600Y-142864100D02*
X141516600Y-144916400D01*
X138569800Y-147863200D02*
X138569800Y-149051900D01*
%TO.N,/Sheet6152913C/RSCOM2RX*%
X117566600Y-103703700D02*
X123432300Y-109569400D01*
%TO.N,RPMEN*%
X180561100Y-126191900D02*
X191040800Y-126191900D01*
X191040800Y-126191900D02*
X200839200Y-116393500D01*
%TO.N,Com2RX*%
X165321100Y-100791900D02*
X164132400Y-100791900D01*
X139712800Y-103068700D02*
X162375700Y-103068700D01*
X162375700Y-103068700D02*
X164132400Y-101312000D01*
X137934600Y-103328100D02*
X138694500Y-102568200D01*
X138694500Y-102568200D02*
X139212300Y-102568200D01*
X139212300Y-102568200D02*
X139712800Y-103068700D01*
X164132400Y-101312000D02*
X164132400Y-100791900D01*
X137911900Y-103328100D02*
X137934600Y-103328100D01*
%TO.N,Sense2-1*%
X125531700Y-127094900D02*
X121848400Y-130778200D01*
X179299900Y-91327000D02*
X178289300Y-91327000D01*
X112298100Y-130778200D02*
X109658300Y-133418000D01*
X148854600Y-127239200D02*
X148710300Y-127094900D01*
X182330400Y-88296500D02*
X179299900Y-91327000D01*
X121848400Y-130778200D02*
X112298100Y-130778200D01*
X148710300Y-127094900D02*
X125531700Y-127094900D01*
%TO.N,Net-(Q8-Pad3)*%
X169037800Y-83480000D02*
X167912700Y-83480000D01*
X167912700Y-83480000D02*
X167912700Y-83761300D01*
X166955300Y-84718700D02*
X163430100Y-84718700D01*
X167912700Y-83761300D02*
X166955300Y-84718700D01*
%TO.N,VoltageSensor*%
X140349900Y-144204100D02*
X136029800Y-148524200D01*
X136029800Y-148524200D02*
X136029800Y-149051900D01*
X134841100Y-149051900D02*
X136029800Y-149051900D01*
%TO.N,Net-(IC12-Pad3)*%
X127218200Y-142381300D02*
X124945000Y-142381300D01*
%TO.N,Net-(IC14-Pad6)*%
X218206300Y-81835500D02*
X215533800Y-84508000D01*
X232835400Y-82780400D02*
X231890500Y-81835500D01*
X231890500Y-81835500D02*
X218206300Y-81835500D01*
%TO.N,Sense2-4*%
X115934000Y-131340800D02*
X121022300Y-131340800D01*
X129595900Y-130509100D02*
X153038100Y-130509100D01*
X121022300Y-131340800D02*
X122218400Y-132536900D01*
X157999100Y-129608800D02*
X158209000Y-129818700D01*
X103689000Y-144209600D02*
X107998400Y-144209600D01*
X153938400Y-129608800D02*
X157999100Y-129608800D01*
X122218400Y-132536900D02*
X127568100Y-132536900D01*
X103689000Y-145284700D02*
X103689000Y-144209600D01*
X153038100Y-130509100D02*
X153938400Y-129608800D01*
X127568100Y-132536900D02*
X129595900Y-130509100D01*
X114841200Y-132433600D02*
X115934000Y-131340800D01*
%TO.N,Com2TX*%
X161592400Y-100271800D02*
X159796300Y-98475700D01*
X161592400Y-100791900D02*
X161592400Y-100271800D01*
X128844700Y-98475700D02*
X128507100Y-98813300D01*
X159796300Y-98475700D02*
X128844700Y-98475700D01*
X162781100Y-100791900D02*
X161592400Y-100791900D01*
%TO.N,Com1RX*%
X109607000Y-111323700D02*
X115946900Y-111323700D01*
X115946900Y-111323700D02*
X117376200Y-112753000D01*
X118444300Y-113656700D02*
X138872900Y-113656700D01*
X117376200Y-112753000D02*
X117540600Y-112753000D01*
X117540600Y-112753000D02*
X118444300Y-113656700D01*
%TO.N,Sense2-6*%
X175795400Y-58000500D02*
X177047300Y-59252400D01*
D51*
X155072000Y-64838000D02*
X152969100Y-64838000D01*
X175795000Y-58000500D02*
X174543000Y-56748600D01*
X174543000Y-56748600D02*
X167628000Y-56748600D01*
X167628000Y-56748600D02*
X165359000Y-59017400D01*
X177047000Y-59252400D02*
X175795000Y-58000500D01*
D48*
X175795000Y-58000500D02*
X175795400Y-58000500D01*
D51*
X160893000Y-59017400D02*
X155072000Y-64838000D01*
X165359000Y-59017400D02*
X160893000Y-59017400D01*
D48*
%TO.N,Sense2-7*%
X114038000Y-142905600D02*
X114038000Y-141830500D01*
X114038000Y-141830500D02*
X118156400Y-141830500D01*
D51*
%TO.N,Sense2-9*%
X161034000Y-71070500D02*
X155718000Y-76387300D01*
X173237000Y-62412700D02*
X164579000Y-71070500D01*
D48*
X173237300Y-60832200D02*
X173237300Y-59252400D01*
D51*
X164579000Y-71070500D02*
X161034000Y-71070500D01*
D48*
X173237000Y-60832500D02*
X173237300Y-60832200D01*
D51*
X173237000Y-60832500D02*
X173237000Y-62412700D01*
X155718000Y-76387300D02*
X152969100Y-76387300D01*
X173237000Y-59252400D02*
X173237000Y-60832500D01*
D48*
%TO.N,Sense2-10*%
X125331400Y-83451500D02*
X162733400Y-83451500D01*
X103684300Y-84769800D02*
X124013100Y-84769800D01*
X124013100Y-84769800D02*
X125331400Y-83451500D01*
%TO.N,Net-(J24-Pad1)*%
X186543600Y-92877800D02*
X215671200Y-63750200D01*
X215671200Y-63750200D02*
X234282700Y-63750200D01*
X181186800Y-92877800D02*
X186543600Y-92877800D01*
%TO.N,Sense1-4*%
X192291600Y-79353200D02*
X180288900Y-91355900D01*
X156028300Y-130738100D02*
X156028300Y-131019400D01*
X156028300Y-131019400D02*
X155184200Y-131863500D01*
X155184200Y-131863500D02*
X139308100Y-131863500D01*
X192291600Y-78302400D02*
X192291600Y-79353200D01*
X139308100Y-131863500D02*
X138578800Y-131134200D01*
X138578800Y-131134200D02*
X135168800Y-131134200D01*
X157153400Y-130738100D02*
X156028300Y-130738100D01*
%TO.N,Sense1-7*%
X186810700Y-93657600D02*
X183610900Y-93657600D01*
X162031200Y-130504100D02*
X160866400Y-129339300D01*
X159206200Y-129158700D02*
X153526700Y-129158700D01*
X163156300Y-130785400D02*
X162031200Y-130785400D01*
X153526700Y-129158700D02*
X152626500Y-130058900D01*
X152626500Y-130058900D02*
X128593300Y-130058900D01*
X187857200Y-92611100D02*
X186810700Y-93657600D01*
X160866400Y-129339300D02*
X159386800Y-129339300D01*
X162031200Y-130785400D02*
X162031200Y-130504100D01*
X159386800Y-129339300D02*
X159206200Y-129158700D01*
X128593300Y-130058900D02*
X126766500Y-131885700D01*
%TO.N,Sense1-10*%
X155933700Y-135184400D02*
X155933700Y-135417500D01*
X134837500Y-131686900D02*
X134909900Y-131759300D01*
X134909900Y-131759300D02*
X138567300Y-131759300D01*
X138567300Y-131759300D02*
X139346700Y-132538700D01*
X157058800Y-135417500D02*
X155933700Y-135417500D01*
X153288000Y-132538700D02*
X155933700Y-135184400D01*
X129667900Y-131686900D02*
X134837500Y-131686900D01*
X139346700Y-132538700D02*
X153288000Y-132538700D01*
%TO.N,Sense1-11*%
X145637400Y-114771600D02*
X147445900Y-112963100D01*
X161152300Y-112963100D02*
X169806600Y-104308800D01*
X177640900Y-99474000D02*
X183308200Y-99474000D01*
X147445900Y-112963100D02*
X161152300Y-112963100D01*
X174066900Y-104308800D02*
X176816400Y-101559300D01*
X176816400Y-100298500D02*
X177640900Y-99474000D01*
X116554100Y-114771600D02*
X145637400Y-114771600D01*
X169806600Y-104308800D02*
X174066900Y-104308800D01*
X116427100Y-114644600D02*
X116554100Y-114771600D01*
X176816400Y-101559300D02*
X176816400Y-100298500D01*
%TO.N,SDCS*%
X225406100Y-96450700D02*
X217434700Y-104422100D01*
X226581200Y-96450700D02*
X225406100Y-96450700D01*
X217434700Y-104422100D02*
X208297200Y-104422100D01*
%TO.N,SDDetect*%
X196278300Y-117301900D02*
X180110300Y-117301900D01*
X218111900Y-87155600D02*
X219237000Y-87155600D01*
X219237000Y-87786600D02*
X219237000Y-87155600D01*
X179209800Y-118202400D02*
X179209800Y-118571900D01*
X225361100Y-93910700D02*
X219237000Y-87786600D01*
X178021100Y-118571900D02*
X179209800Y-118571900D01*
X226581200Y-93910700D02*
X225361100Y-93910700D01*
X180110300Y-117301900D02*
X179209800Y-118202400D01*
X202099100Y-111481100D02*
X196278300Y-117301900D01*
%TO.N,/A10*%
X150145600Y-139745600D02*
X151320700Y-139745600D01*
X162781100Y-149051900D02*
X161592400Y-149051900D01*
X161592400Y-148568200D02*
X161592400Y-149051900D01*
X159617200Y-146593000D02*
X161592400Y-148568200D01*
X158168100Y-146593000D02*
X159617200Y-146593000D01*
X151320700Y-139745600D02*
X158168100Y-146593000D01*
%TO.N,OUTPUTLED2*%
X159507900Y-93710600D02*
X158035600Y-95182900D01*
X159507900Y-92748100D02*
X159507900Y-93710600D01*
X158035600Y-95182900D02*
X154933700Y-95182900D01*
X174196800Y-96546400D02*
X162343700Y-96546400D01*
X162343700Y-96546400D02*
X159507900Y-93710600D01*
%TO.N,Net-(Q6-Pad1)*%
X81752400Y-66002600D02*
X79687400Y-66002600D01*
X87186500Y-71436700D02*
X81752400Y-66002600D01*
X88471600Y-71436700D02*
X87186500Y-71436700D01*
%TO.N,OUTPUTLED1*%
X163398800Y-88349200D02*
X167696800Y-88349200D01*
X167696800Y-88349200D02*
X176041300Y-96693700D01*
%TO.N,Net-(Q7-Pad3)*%
X139729000Y-58585500D02*
X139729000Y-57208500D01*
X145368100Y-63328600D02*
X144243000Y-63328600D01*
X131979400Y-51033300D02*
X132829500Y-51033300D01*
X144243000Y-63328600D02*
X144243000Y-63099500D01*
X138797500Y-56277000D02*
X138073200Y-56277000D01*
X139729000Y-57208500D02*
X138797500Y-56277000D01*
X138073200Y-56277000D02*
X132829500Y-51033300D01*
X144243000Y-63099500D02*
X139729000Y-58585500D01*
D49*
%TO.N,Net-(Q10-Pad1)*%
X165495000Y-53143300D02*
X165495000Y-50161600D01*
D48*
X166362000Y-49294300D02*
X167229300Y-48427000D01*
D49*
X166362000Y-49294300D02*
X167229000Y-48427000D01*
X165495000Y-50161600D02*
X166362000Y-49294300D01*
X162809200Y-55828600D02*
X165495000Y-53143300D01*
D48*
%TO.N,OUTPUT4*%
X142096800Y-93759800D02*
X147137000Y-93759800D01*
X130949800Y-100271800D02*
X131783100Y-99438500D01*
X147073300Y-102168400D02*
X148000300Y-102168400D01*
X147137000Y-93759800D02*
X150126300Y-96749100D01*
X146271100Y-100169000D02*
X146271100Y-101366200D01*
X131783100Y-99438500D02*
X145540600Y-99438500D01*
X129761100Y-100791900D02*
X130949800Y-100791900D01*
X150126300Y-96749100D02*
X152156500Y-96749100D01*
X146271100Y-101366200D02*
X147073300Y-102168400D01*
X130949800Y-100791900D02*
X130949800Y-100271800D01*
X149848600Y-100320100D02*
X149848600Y-99111000D01*
X145540600Y-99438500D02*
X146271100Y-100169000D01*
X148000300Y-102168400D02*
X149848600Y-100320100D01*
%TO.N,OUTPUT2*%
X103348000Y-97984500D02*
X102213100Y-96849600D01*
X124129000Y-99472400D02*
X122641100Y-97984500D01*
X122641100Y-97984500D02*
X103348000Y-97984500D01*
%TO.N,Net-(Q12-Pad3)*%
X165317300Y-94379900D02*
X165317300Y-94613000D01*
X160777900Y-92748100D02*
X163685500Y-92748100D01*
X166442400Y-94613000D02*
X165317300Y-94613000D01*
X163685500Y-92748100D02*
X165317300Y-94379900D01*
D49*
%TO.N,Net-(Q14-Pad1)*%
X160331000Y-69903600D02*
X152518000Y-69903600D01*
D48*
X161593500Y-68640800D02*
X161593600Y-68640800D01*
D49*
X169982522Y-52592078D02*
X168321000Y-54253600D01*
X164519000Y-58055900D02*
X168321000Y-54253600D01*
X161593500Y-68640800D02*
X160331000Y-69903600D01*
X169053110Y-51059400D02*
X167229300Y-51059400D01*
X154034000Y-58055900D02*
X164519000Y-58055900D01*
X151492000Y-60598200D02*
X154034000Y-58055900D01*
X161593500Y-68640800D02*
X162856000Y-67378000D01*
X152518000Y-69903600D02*
X151492000Y-68877500D01*
D48*
X161593600Y-68640800D02*
X162856400Y-67378000D01*
D49*
X169982522Y-51988812D02*
X169053110Y-51059400D01*
X169982522Y-52592078D02*
X169982522Y-51988812D01*
X151492000Y-68877500D02*
X151492000Y-60598200D01*
D48*
%TO.N,Net-(Q17-Pad1)*%
X147711900Y-87463200D02*
X150319200Y-84855900D01*
X150859800Y-85396500D02*
X150319200Y-84855900D01*
X152326600Y-85396500D02*
X150859800Y-85396500D01*
%TO.N,Net-(Q18-Pad1)*%
X178620300Y-83181700D02*
X175651000Y-80212400D01*
X165426600Y-80212400D02*
X164141500Y-78927300D01*
X175651000Y-80212400D02*
X165426600Y-80212400D01*
X162856400Y-78927300D02*
X164141500Y-78927300D01*
X179745400Y-83181700D02*
X178620300Y-83181700D01*
%TO.N,Net-(Q19-Pad3)*%
X140842400Y-54077800D02*
X141692500Y-54077800D01*
X145234100Y-51494800D02*
X144109000Y-51494800D01*
X144109000Y-51661300D02*
X144109000Y-51494800D01*
X141692500Y-54077800D02*
X144109000Y-51661300D01*
%TO.N,Sense1-6*%
X168733800Y-130785400D02*
X167608700Y-130785400D01*
X133597300Y-129383600D02*
X132177800Y-127964100D01*
X167608700Y-130504100D02*
X165813200Y-128708600D01*
X140688300Y-129383600D02*
X133597300Y-129383600D01*
X141363300Y-128708600D02*
X140688300Y-129383600D01*
X165813200Y-128708600D02*
X141363300Y-128708600D01*
X167608700Y-130785400D02*
X167608700Y-130504100D01*
%TO.N,+VSW*%
X111949200Y-80554800D02*
X111132800Y-81371200D01*
X111132800Y-81371200D02*
X102686600Y-81371200D01*
X113074300Y-80554800D02*
X111949200Y-80554800D01*
%TO.N,Net-(D1-Pad1)*%
X83284600Y-88578500D02*
X82131400Y-89731700D01*
X87981600Y-88578500D02*
X83284600Y-88578500D01*
X80706300Y-89808700D02*
X82131400Y-89808700D01*
X82131400Y-89731700D02*
X82131400Y-89808700D01*
%TO.N,Net-(Q22-Pad1)*%
X76015800Y-88348200D02*
X74872400Y-88348200D01*
X72843900Y-89526600D02*
X73694000Y-89526600D01*
X74872400Y-88348200D02*
X73694000Y-89526600D01*
%TO.N,Sense1-9*%
X170058000Y-120550100D02*
X170058000Y-112142700D01*
X173328100Y-130456800D02*
X166739700Y-123868400D01*
X146550400Y-124318400D02*
X166289700Y-124318400D01*
X190181200Y-100489100D02*
X191771100Y-98899200D01*
X177517600Y-104683100D02*
X182122600Y-104683100D01*
X173328100Y-130738100D02*
X173328100Y-130456800D01*
X188743900Y-100489100D02*
X190181200Y-100489100D01*
X170058000Y-112142700D02*
X177517600Y-104683100D01*
X166289700Y-124318400D02*
X166739700Y-123868400D01*
X130996000Y-123489300D02*
X145721300Y-123489300D01*
X129650900Y-122205000D02*
X129711700Y-122205000D01*
X185633500Y-103599500D02*
X188743900Y-100489100D01*
X166739700Y-123868400D02*
X170058000Y-120550100D01*
X129711700Y-122205000D02*
X130996000Y-123489300D01*
X183206200Y-103599500D02*
X185633500Y-103599500D01*
X145721300Y-123489300D02*
X146550400Y-124318400D01*
X174453200Y-130738100D02*
X173328100Y-130738100D01*
X182122600Y-104683100D02*
X183206200Y-103599500D01*
%TO.N,Sense1-12*%
X140621800Y-124027400D02*
X141871100Y-125276700D01*
X141871100Y-125276700D02*
X167245900Y-125276700D01*
X130650100Y-124027400D02*
X140621800Y-124027400D01*
X130030200Y-123407500D02*
X130650100Y-124027400D01*
%TO.N,Sense1-8*%
X118323900Y-115909100D02*
X145778300Y-115909100D01*
X145778300Y-115909100D02*
X148025100Y-113662300D01*
X148025100Y-113662300D02*
X168207300Y-113662300D01*
%TO.N,SWSCLK*%
X225514100Y-113714800D02*
X206434100Y-113714800D01*
X233347100Y-121547800D02*
X225514100Y-113714800D01*
X234522200Y-121547800D02*
X233347100Y-121547800D01*
%TO.N,RTDSCLK*%
X186996200Y-105551800D02*
X186313900Y-104869500D01*
X234522200Y-124087800D02*
X233347100Y-124087800D01*
X233347100Y-124911200D02*
X233347100Y-124087800D01*
X202358500Y-105551800D02*
X186996200Y-105551800D01*
X204282700Y-140961400D02*
X185205600Y-140961400D01*
X175160800Y-140161900D02*
X174417400Y-139418500D01*
X185138800Y-104869500D02*
X186313900Y-104869500D01*
X183231000Y-140161900D02*
X175160800Y-140161900D01*
X165775700Y-139418500D02*
X164490400Y-140703800D01*
X203040800Y-104869500D02*
X202358500Y-105551800D01*
X163315300Y-141069100D02*
X164490400Y-141069100D01*
X174417400Y-139418500D02*
X165775700Y-139418500D01*
X217296900Y-140961400D02*
X233347100Y-124911200D01*
X184030500Y-140961400D02*
X183231000Y-140161900D01*
X185205600Y-140961400D02*
X184030500Y-140961400D01*
X164490400Y-140703800D02*
X164490400Y-141069100D01*
X204215900Y-104869500D02*
X203040800Y-104869500D01*
X204282700Y-140961400D02*
X217296900Y-140961400D01*
%TO.N,RTDMISO*%
X167030400Y-141069100D02*
X167030400Y-140701900D01*
X167030400Y-140701900D02*
X167863700Y-139868600D01*
X175921400Y-145200600D02*
X182331300Y-145200600D01*
X172205300Y-140655900D02*
X172205300Y-141484500D01*
X165855300Y-141069100D02*
X167030400Y-141069100D01*
X182331300Y-145200600D02*
X184030500Y-143501400D01*
X185138800Y-107409500D02*
X186313900Y-107409500D01*
X202358500Y-108091800D02*
X186996200Y-108091800D01*
X172205300Y-141484500D02*
X175921400Y-145200600D01*
X186996200Y-108091800D02*
X186313900Y-107409500D01*
X171418000Y-139868600D02*
X172205300Y-140655900D01*
X204215900Y-107409500D02*
X203040800Y-107409500D01*
X203040800Y-107409500D02*
X202358500Y-108091800D01*
X167863700Y-139868600D02*
X171418000Y-139868600D01*
X185205600Y-143501400D02*
X184030500Y-143501400D01*
X204282700Y-143501400D02*
X185205600Y-143501400D01*
%TO.N,RTDMOSI*%
X174175500Y-146041400D02*
X185205600Y-146041400D01*
X227332300Y-122723000D02*
X218207700Y-122723000D01*
X229872200Y-124087800D02*
X228697100Y-124087800D01*
X204215900Y-109949500D02*
X203040800Y-109949500D01*
X202358400Y-110631900D02*
X186996300Y-110631900D01*
X169570400Y-141436300D02*
X174175500Y-146041400D01*
X203040800Y-109949500D02*
X202358400Y-110631900D01*
X168395300Y-141069100D02*
X169570400Y-141069100D01*
X186996300Y-110631900D02*
X186313900Y-109949500D01*
X185138800Y-109949500D02*
X186313900Y-109949500D01*
X204282700Y-146041400D02*
X185205600Y-146041400D01*
X228697100Y-124087800D02*
X227332300Y-122723000D01*
X169570400Y-141069100D02*
X169570400Y-141436300D01*
%TD*%
M02*
