%TF.GenerationSoftware,KiCad,Pcbnew,7.0.1*%
%TF.CreationDate,2023-07-31T19:52:26-07:00*%
%TF.ProjectId,AMS-Mega2560-Base,414d532d-4d65-4676-9132-3536302d4261,rev?*%
%TF.SameCoordinates,Original*%
%TF.FileFunction,Copper,L4,Bot*%
%TF.FilePolarity,Positive*%
%FSLAX46Y46*%
G04 Gerber Fmt 4.6, Leading zero omitted, Abs format (unit mm)*
G04 Created by KiCad (PCBNEW 7.0.1) date 2023-07-31 19:52:26*
%MOMM*%
%LPD*%
G01*
G04 APERTURE LIST*
%TA.AperFunction,ComponentPad*%
%ADD10C,1.727200*%
%TD*%
%TA.AperFunction,ComponentPad*%
%ADD11O,1.727200X1.727200*%
%TD*%
%TA.AperFunction,ComponentPad*%
%ADD12O,1.727200X2.032000*%
%TD*%
%TA.AperFunction,ComponentPad*%
%ADD13C,4.064000*%
%TD*%
%TA.AperFunction,ComponentPad*%
%ADD14C,1.650000*%
%TD*%
%TA.AperFunction,ComponentPad*%
%ADD15C,1.600000*%
%TD*%
%TA.AperFunction,ComponentPad*%
%ADD16O,1.600000X1.600000*%
%TD*%
%TA.AperFunction,ComponentPad*%
%ADD17R,1.050000X1.500000*%
%TD*%
%TA.AperFunction,ComponentPad*%
%ADD18O,1.050000X1.500000*%
%TD*%
%TA.AperFunction,ComponentPad*%
%ADD19R,1.920000X1.920000*%
%TD*%
%TA.AperFunction,ComponentPad*%
%ADD20C,1.920000*%
%TD*%
%TA.AperFunction,ComponentPad*%
%ADD21R,1.700000X1.700000*%
%TD*%
%TA.AperFunction,ComponentPad*%
%ADD22O,1.700000X1.700000*%
%TD*%
%TA.AperFunction,ComponentPad*%
%ADD23R,1.150000X1.150000*%
%TD*%
%TA.AperFunction,ComponentPad*%
%ADD24C,1.150000*%
%TD*%
%TA.AperFunction,ComponentPad*%
%ADD25R,2.600000X2.600000*%
%TD*%
%TA.AperFunction,ComponentPad*%
%ADD26C,2.600000*%
%TD*%
%TA.AperFunction,ComponentPad*%
%ADD27R,1.600000X1.600000*%
%TD*%
%TA.AperFunction,ComponentPad*%
%ADD28R,1.160000X1.160000*%
%TD*%
%TA.AperFunction,ComponentPad*%
%ADD29C,1.160000*%
%TD*%
%TA.AperFunction,ComponentPad*%
%ADD30C,2.360000*%
%TD*%
%TA.AperFunction,ComponentPad*%
%ADD31R,1.200000X1.200000*%
%TD*%
%TA.AperFunction,ComponentPad*%
%ADD32C,1.200000*%
%TD*%
%TA.AperFunction,ComponentPad*%
%ADD33C,1.500000*%
%TD*%
%TA.AperFunction,ViaPad*%
%ADD34C,0.600000*%
%TD*%
%TA.AperFunction,ViaPad*%
%ADD35C,0.762000*%
%TD*%
%TA.AperFunction,Conductor*%
%ADD36C,0.250000*%
%TD*%
%TA.AperFunction,Conductor*%
%ADD37C,1.270000*%
%TD*%
%TA.AperFunction,Conductor*%
%ADD38C,0.762000*%
%TD*%
G04 APERTURE END LIST*
D10*
%TO.P,P4,1,Pin_1*%
%TO.N,GND*%
X178021100Y-143971900D03*
D11*
%TO.P,P4,2,Pin_2*%
X180561100Y-143971900D03*
%TO.P,P4,3,Pin_3*%
%TO.N,SCLK*%
X178021100Y-141431900D03*
%TO.P,P4,4,Pin_4*%
%TO.N,unconnected-(P4-Pin_4-Pad4)*%
X180561100Y-141431900D03*
%TO.P,P4,5,Pin_5*%
%TO.N,MISO*%
X178021100Y-138891900D03*
%TO.P,P4,6,Pin_6*%
%TO.N,MOSI*%
X180561100Y-138891900D03*
%TO.P,P4,7,Pin_7*%
%TO.N,WaterCS*%
X178021100Y-136351900D03*
%TO.P,P4,8,Pin_8*%
%TO.N,Logging*%
X180561100Y-136351900D03*
%TO.P,P4,9,Pin_9*%
%TO.N,LsideCS*%
X178021100Y-133811900D03*
%TO.P,P4,10,Pin_10*%
%TO.N,IN3TTL*%
X180561100Y-133811900D03*
%TO.P,P4,11,Pin_11*%
%TO.N,RsideCS*%
X178021100Y-131271900D03*
%TO.P,P4,12,Pin_12*%
%TO.N,OUTPUTLED2*%
X180561100Y-131271900D03*
%TO.P,P4,13,Pin_13*%
%TO.N,FrontCS*%
X178021100Y-128731900D03*
%TO.P,P4,14,Pin_14*%
%TO.N,OUTPUTLED1*%
X180561100Y-128731900D03*
%TO.P,P4,15,Pin_15*%
%TO.N,AmbientCS*%
X178021100Y-126191900D03*
%TO.P,P4,16,Pin_16*%
%TO.N,unconnected-(P4-Pin_16-Pad16)*%
X180561100Y-126191900D03*
%TO.P,P4,17,Pin_17*%
%TO.N,CarbCS*%
X178021100Y-123651900D03*
%TO.P,P4,18,Pin_18*%
%TO.N,unconnected-(P4-Pin_18-Pad18)*%
X180561100Y-123651900D03*
%TO.P,P4,19,Pin_19*%
%TO.N,SDCS*%
X178021100Y-121111900D03*
%TO.P,P4,20,Pin_20*%
%TO.N,unconnected-(P4-Pin_20-Pad20)*%
X180561100Y-121111900D03*
%TO.P,P4,21,Pin_21*%
%TO.N,SDDetect*%
X178021100Y-118571900D03*
%TO.P,P4,22,Pin_22*%
%TO.N,unconnected-(P4-Pin_22-Pad22)*%
X180561100Y-118571900D03*
%TO.P,P4,23,Pin_23*%
%TO.N,CANCS*%
X178021100Y-116031900D03*
%TO.P,P4,24,Pin_24*%
%TO.N,unconnected-(P4-Pin_24-Pad24)*%
X180561100Y-116031900D03*
%TO.P,P4,25,Pin_25*%
%TO.N,CAN_TX_STBY*%
X178021100Y-113491900D03*
%TO.P,P4,26,Pin_26*%
%TO.N,unconnected-(P4-Pin_26-Pad26)*%
X180561100Y-113491900D03*
%TO.P,P4,27,Pin_27*%
%TO.N,CAN_INT*%
X178021100Y-110951900D03*
%TO.P,P4,28,Pin_28*%
%TO.N,unconnected-(P4-Pin_28-Pad28)*%
X180561100Y-110951900D03*
%TO.P,P4,29,Pin_29*%
%TO.N,unconnected-(P4-Pin_29-Pad29)*%
X178021100Y-108411900D03*
%TO.P,P4,30,Pin_30*%
%TO.N,SWSCLK*%
X180561100Y-108411900D03*
%TO.P,P4,31,Pin_31*%
%TO.N,unconnected-(P4-Pin_31-Pad31)*%
X178021100Y-105871900D03*
%TO.P,P4,32,Pin_32*%
%TO.N,SWMISO*%
X180561100Y-105871900D03*
%TO.P,P4,33,Pin_33*%
%TO.N,unconnected-(P4-Pin_33-Pad33)*%
X178021100Y-103331900D03*
%TO.P,P4,34,Pin_34*%
%TO.N,SWMOSI*%
X180561100Y-103331900D03*
%TO.P,P4,35,Pin_35*%
%TO.N,unconnected-(P4-Pin_35-Pad35)*%
X178021100Y-100791900D03*
%TO.P,P4,36,Pin_36*%
%TO.N,unconnected-(P4-Pin_36-Pad36)*%
X180561100Y-100791900D03*
%TD*%
D12*
%TO.P,P1,1,Pin_1*%
%TO.N,unconnected-(P1-Pin_1-Pad1)*%
X111981100Y-149051900D03*
%TO.P,P1,2,Pin_2*%
%TO.N,unconnected-(P1-Pin_2-Pad2)*%
X114521100Y-149051900D03*
%TO.P,P1,3,Pin_3*%
%TO.N,unconnected-(P1-Pin_3-Pad3)*%
X117061100Y-149051900D03*
%TO.P,P1,4,Pin_4*%
%TO.N,unconnected-(P1-Pin_4-Pad4)*%
X119601100Y-149051900D03*
%TO.P,P1,5,Pin_5*%
%TO.N,+5V*%
X122141100Y-149051900D03*
%TO.P,P1,6,Pin_6*%
%TO.N,GND*%
X124681100Y-149051900D03*
%TO.P,P1,7,Pin_7*%
X127221100Y-149051900D03*
%TO.P,P1,8,Pin_8*%
%TO.N,unconnected-(P1-Pin_8-Pad8)*%
X129761100Y-149051900D03*
%TD*%
%TO.P,P2,1,Pin_1*%
%TO.N,VoltageSensor*%
X134841100Y-149051900D03*
%TO.P,P2,2,Pin_2*%
%TO.N,GPSBat*%
X137381100Y-149051900D03*
%TO.P,P2,3,Pin_3*%
%TO.N,FuelPressure1*%
X139921100Y-149051900D03*
%TO.P,P2,4,Pin_4*%
%TO.N,FuelPressure2*%
X142461100Y-149051900D03*
%TO.P,P2,5,Pin_5*%
%TO.N,FuelPressure3*%
X145001100Y-149051900D03*
%TO.P,P2,6,Pin_6*%
%TO.N,OilPressure*%
X147541100Y-149051900D03*
%TO.P,P2,7,Pin_7*%
%TO.N,SpareADC1*%
X150081100Y-149051900D03*
%TO.P,P2,8,Pin_8*%
%TO.N,SpareADC2*%
X152621100Y-149051900D03*
%TD*%
%TO.P,P3,1,Pin_1*%
%TO.N,SpareADC3*%
X157701100Y-149051900D03*
%TO.P,P3,2,Pin_2*%
%TO.N,Sense1-1*%
X160241100Y-149051900D03*
%TO.P,P3,3,Pin_3*%
%TO.N,unconnected-(P3-Pin_3-Pad3)*%
X162781100Y-149051900D03*
%TO.P,P3,4,Pin_4*%
%TO.N,unconnected-(P3-Pin_4-Pad4)*%
X165321100Y-149051900D03*
%TO.P,P3,5,Pin_5*%
%TO.N,unconnected-(P3-Pin_5-Pad5)*%
X167861100Y-149051900D03*
%TO.P,P3,6,Pin_6*%
%TO.N,unconnected-(P3-Pin_6-Pad6)*%
X170401100Y-149051900D03*
%TO.P,P3,7,Pin_7*%
%TO.N,unconnected-(P3-Pin_7-Pad7)*%
X172941100Y-149051900D03*
%TO.P,P3,8,Pin_8*%
%TO.N,unconnected-(P3-Pin_8-Pad8)*%
X175481100Y-149051900D03*
%TD*%
%TO.P,P5,1,Pin_1*%
%TO.N,SCL*%
X102837100Y-100791900D03*
%TO.P,P5,2,Pin_2*%
%TO.N,SDA*%
X105377100Y-100791900D03*
%TO.P,P5,3,Pin_3*%
%TO.N,unconnected-(P5-Pin_3-Pad3)*%
X107917100Y-100791900D03*
%TO.P,P5,4,Pin_4*%
%TO.N,GND*%
X110457100Y-100791900D03*
%TO.P,P5,5,Pin_5*%
%TO.N,unconnected-(P5-Pin_5-Pad5)*%
X112997100Y-100791900D03*
%TO.P,P5,6,Pin_6*%
%TO.N,unconnected-(P5-Pin_6-Pad6)*%
X115537100Y-100791900D03*
%TO.P,P5,7,Pin_7*%
%TO.N,unconnected-(P5-Pin_7-Pad7)*%
X118077100Y-100791900D03*
%TO.P,P5,8,Pin_8*%
%TO.N,unconnected-(P5-Pin_8-Pad8)*%
X120617100Y-100791900D03*
%TO.P,P5,9,Pin_9*%
%TO.N,unconnected-(P5-Pin_9-Pad9)*%
X123157100Y-100791900D03*
%TO.P,P5,10,Pin_10*%
%TO.N,OUTPUTSiren*%
X125697100Y-100791900D03*
%TD*%
%TO.P,P6,1,Pin_1*%
%TO.N,OUTPUT4*%
X129761100Y-100791900D03*
%TO.P,P6,2,Pin_2*%
%TO.N,OUTPUT3*%
X132301100Y-100791900D03*
%TO.P,P6,3,Pin_3*%
%TO.N,OUTPUT2*%
X134841100Y-100791900D03*
%TO.P,P6,4,Pin_4*%
%TO.N,OUTPUT1*%
X137381100Y-100791900D03*
%TO.P,P6,5,Pin_5*%
%TO.N,IN2TTL*%
X139921100Y-100791900D03*
%TO.P,P6,6,Pin_6*%
%TO.N,IN1TTL*%
X142461100Y-100791900D03*
%TO.P,P6,7,Pin_7*%
%TO.N,unconnected-(P6-Pin_7-Pad7)*%
X145001100Y-100791900D03*
%TO.P,P6,8,Pin_8*%
%TO.N,unconnected-(P6-Pin_8-Pad8)*%
X147541100Y-100791900D03*
%TD*%
%TO.P,P7,1,Pin_1*%
%TO.N,GPSRX*%
X152621100Y-100791900D03*
%TO.P,P7,2,Pin_2*%
%TO.N,GPSTX*%
X155161100Y-100791900D03*
%TO.P,P7,3,Pin_3*%
%TO.N,Com1TX*%
X157701100Y-100791900D03*
%TO.P,P7,4,Pin_4*%
%TO.N,Com1RX*%
X160241100Y-100791900D03*
%TO.P,P7,5,Pin_5*%
%TO.N,Com2TX*%
X162781100Y-100791900D03*
%TO.P,P7,6,Pin_6*%
%TO.N,Com2RX*%
X165321100Y-100791900D03*
%TO.P,P7,7,Pin_7*%
%TO.N,SDA*%
X167861100Y-100791900D03*
%TO.P,P7,8,Pin_8*%
%TO.N,SCL*%
X170401100Y-100791900D03*
%TD*%
D13*
%TO.P,P8,1,Pin_1*%
%TO.N,unconnected-(P8-Pin_1-Pad1)*%
X98011100Y-149051900D03*
%TD*%
%TO.P,P9,1,Pin_1*%
%TO.N,unconnected-(P9-Pin_1-Pad1)*%
X150081100Y-143971900D03*
%TD*%
%TO.P,P10,1,Pin_1*%
%TO.N,unconnected-(P10-Pin_1-Pad1)*%
X180561100Y-149051900D03*
%TD*%
%TO.P,P11,1,Pin_1*%
%TO.N,unconnected-(P11-Pin_1-Pad1)*%
X99281100Y-100791900D03*
%TD*%
%TO.P,P12,1,Pin_1*%
%TO.N,unconnected-(P12-Pin_1-Pad1)*%
X150081100Y-116031900D03*
%TD*%
%TO.P,P13,1,Pin_1*%
%TO.N,unconnected-(P13-Pin_1-Pad1)*%
X174211100Y-100791900D03*
%TD*%
D14*
%TO.P,J4,1,1*%
%TO.N,Sense1-1*%
X181080800Y-79145100D03*
%TO.P,J4,2,2*%
%TO.N,Sense1-2*%
X177270800Y-79145100D03*
%TO.P,J4,3,3*%
%TO.N,Sense1-3*%
X173460800Y-79145100D03*
%TO.P,J4,4,4*%
%TO.N,Sense1-4*%
X169650800Y-79145100D03*
%TO.P,J4,5,5*%
%TO.N,Sense1-5*%
X182980800Y-71525100D03*
%TO.P,J4,6,6*%
%TO.N,Sense1-6*%
X179170800Y-71525100D03*
%TO.P,J4,7,7*%
%TO.N,Sense1-7*%
X175360800Y-71525100D03*
%TO.P,J4,8,8*%
%TO.N,Sense1-8*%
X171550800Y-71525100D03*
%TO.P,J4,9,9*%
%TO.N,Sense1-9*%
X181080800Y-60095100D03*
%TO.P,J4,10,10*%
%TO.N,Sense1-10*%
X177270800Y-60095100D03*
%TO.P,J4,11,11*%
%TO.N,Sense1-11*%
X173460800Y-60095100D03*
%TO.P,J4,12,12*%
%TO.N,Sense1-12*%
X169650800Y-60095100D03*
%TD*%
%TO.P,J5,1,1*%
%TO.N,Sense2-1*%
X165836500Y-79145100D03*
%TO.P,J5,2,2*%
%TO.N,Sense2-2*%
X162026500Y-79145100D03*
%TO.P,J5,3,3*%
%TO.N,Sense2-3*%
X158216500Y-79145100D03*
%TO.P,J5,4,4*%
%TO.N,Sense2-4*%
X154406500Y-79145100D03*
%TO.P,J5,5,5*%
%TO.N,Sense2-5*%
X167736500Y-71525100D03*
%TO.P,J5,6,6*%
%TO.N,Sense2-6*%
X163926500Y-71525100D03*
%TO.P,J5,7,7*%
%TO.N,Sense2-7*%
X160116500Y-71525100D03*
%TO.P,J5,8,8*%
%TO.N,Sense2-8*%
X156306500Y-71525100D03*
%TO.P,J5,9,9*%
%TO.N,Sense2-9*%
X165836500Y-60095100D03*
%TO.P,J5,10,10*%
%TO.N,Sense2-10*%
X162026500Y-60095100D03*
%TO.P,J5,11,11*%
%TO.N,Sense2-11*%
X158216500Y-60095100D03*
%TO.P,J5,12,12*%
%TO.N,Sense2-12*%
X154406500Y-60095100D03*
%TD*%
D15*
%TO.P,R31,1*%
%TO.N,Net-(Q2-D)*%
X197062500Y-61155500D03*
D16*
%TO.P,R31,2*%
%TO.N,Net-(Q21-CATHODE_2)*%
X199602500Y-61155500D03*
%TD*%
D17*
%TO.P,Q8,1,S*%
%TO.N,GND*%
X145869300Y-85561400D03*
D18*
%TO.P,Q8,2,G*%
%TO.N,OUTPUTLED1*%
X147139300Y-85561400D03*
%TO.P,Q8,3,D*%
%TO.N,Net-(Q8-D)*%
X148409300Y-85561400D03*
%TD*%
D15*
%TO.P,R43,1*%
%TO.N,+VDC*%
X153587000Y-87436700D03*
D16*
%TO.P,R43,2*%
%TO.N,Net-(Q10-Pad1)*%
X151047000Y-87436700D03*
%TD*%
D17*
%TO.P,Q16,1,S*%
%TO.N,GND*%
X159603700Y-85255900D03*
D18*
%TO.P,Q16,2,G*%
%TO.N,OUTPUTSiren*%
X160873700Y-85255900D03*
%TO.P,Q16,3,D*%
%TO.N,Net-(Q16-D)*%
X162143700Y-85255900D03*
%TD*%
D19*
%TO.P,Q13,1*%
%TO.N,Net-(Q13-Pad1)*%
X137948300Y-74690000D03*
D20*
%TO.P,Q13,2*%
%TO.N,Sense2-9*%
X137948300Y-77230000D03*
%TO.P,Q13,3*%
%TO.N,+VDC*%
X137948300Y-79770000D03*
%TD*%
D15*
%TO.P,R63,1*%
%TO.N,Net-(J10-Pin_2)*%
X174000700Y-94237500D03*
D16*
%TO.P,R63,2*%
%TO.N,Sense1-5*%
X176540700Y-94237500D03*
%TD*%
D15*
%TO.P,R24,1*%
%TO.N,GND*%
X141650500Y-121671700D03*
D16*
%TO.P,R24,2*%
%TO.N,SpareADC2*%
X139110500Y-121671700D03*
%TD*%
D15*
%TO.P,R56,1*%
%TO.N,Net-(Q18-Pad1)*%
X165174600Y-87090400D03*
D16*
%TO.P,R56,2*%
%TO.N,Net-(Q16-D)*%
X167714600Y-87090400D03*
%TD*%
D19*
%TO.P,Q6,1*%
%TO.N,Net-(Q6-Pad1)*%
X93319000Y-73790400D03*
D20*
%TO.P,Q6,2*%
%TO.N,Net-(#FLG03-pwr)*%
X93319000Y-71250400D03*
%TO.P,Q6,3*%
%TO.N,Net-(#FLG0103-pwr)*%
X93319000Y-68710400D03*
%TD*%
D15*
%TO.P,R59,1*%
%TO.N,Net-(Q20-Pad1)*%
X132753300Y-52337500D03*
D16*
%TO.P,R59,2*%
%TO.N,Net-(Q19-D)*%
X130213300Y-52337500D03*
%TD*%
D15*
%TO.P,R12,1*%
%TO.N,GND*%
X122751400Y-121680200D03*
D16*
%TO.P,R12,2*%
%TO.N,Sense1-3*%
X125291400Y-121680200D03*
%TD*%
D15*
%TO.P,R48,1*%
%TO.N,Net-(Q13-Pad1)*%
X132330700Y-77430500D03*
D16*
%TO.P,R48,2*%
%TO.N,Net-(Q11-D)*%
X132330700Y-79970500D03*
%TD*%
D15*
%TO.P,R26,1*%
%TO.N,GND*%
X141650500Y-130872700D03*
D16*
%TO.P,R26,2*%
%TO.N,Sense2-7*%
X139110500Y-130872700D03*
%TD*%
D15*
%TO.P,R41,1*%
%TO.N,+VDC*%
X132040600Y-58566000D03*
D16*
%TO.P,R41,2*%
%TO.N,Net-(Q9-Pad1)*%
X134580600Y-58566000D03*
%TD*%
D15*
%TO.P,R65,1*%
%TO.N,+5V*%
X207963000Y-121755900D03*
D16*
%TO.P,R65,2*%
%TO.N,/CAN Bus/CAN_INT*%
X210503000Y-121755900D03*
%TD*%
D15*
%TO.P,R21,1*%
%TO.N,Net-(Q6-Pad1)*%
X84534800Y-68356300D03*
D16*
%TO.P,R21,2*%
%TO.N,GND*%
X84534800Y-65816300D03*
%TD*%
D15*
%TO.P,R22,1*%
%TO.N,GND*%
X122751400Y-131190900D03*
D16*
%TO.P,R22,2*%
%TO.N,SpareADC1*%
X125291400Y-131190900D03*
%TD*%
D21*
%TO.P,T3,1,Pin_1*%
%TO.N,+5V*%
X185205600Y-133341400D03*
D22*
%TO.P,T3,2,Pin_2*%
%TO.N,GND*%
X185205600Y-135881400D03*
%TO.P,T3,3,Pin_3*%
%TO.N,unconnected-(T3-Pin_3-Pad3)*%
X185205600Y-138421400D03*
%TO.P,T3,4,Pin_4*%
%TO.N,RTDSCLK*%
X185205600Y-140961400D03*
%TO.P,T3,5,Pin_5*%
%TO.N,RTDMISO*%
X185205600Y-143501400D03*
%TO.P,T3,6,Pin_6*%
%TO.N,RTDMOSI*%
X185205600Y-146041400D03*
%TO.P,T3,7,Pin_7*%
%TO.N,RsideCS*%
X185205600Y-148581400D03*
%TO.P,T3,8,Pin_8*%
%TO.N,unconnected-(T3-Pin_8-Pad8)*%
X185205600Y-151121400D03*
%TD*%
D15*
%TO.P,R58,1*%
%TO.N,+VDC*%
X130663300Y-55452600D03*
D16*
%TO.P,R58,2*%
%TO.N,Net-(Q20-Pad1)*%
X133203300Y-55452600D03*
%TD*%
D21*
%TO.P,J9,1,Pin_1*%
%TO.N,/Sheet6152913C/RSCOM2TX*%
X123089500Y-111075800D03*
D22*
%TO.P,J9,2,Pin_2*%
%TO.N,/Sheet6152913C/RSCOM2RX*%
X123089500Y-108535800D03*
%TO.P,J9,3,Pin_3*%
%TO.N,GND*%
X123089500Y-105995800D03*
%TD*%
D15*
%TO.P,R11,1*%
%TO.N,Net-(Q24-D)*%
X207680200Y-67007700D03*
D16*
%TO.P,R11,2*%
%TO.N,Net-(Q3-G)*%
X210220200Y-67007700D03*
%TD*%
D15*
%TO.P,R19,1*%
%TO.N,GND*%
X122751400Y-116744400D03*
D16*
%TO.P,R19,2*%
%TO.N,OilPressure*%
X125291400Y-116744400D03*
%TD*%
D17*
%TO.P,Q15,1,S*%
%TO.N,GND*%
X124980900Y-91002600D03*
D18*
%TO.P,Q15,2,G*%
%TO.N,OUTPUT4*%
X126250900Y-91002600D03*
%TO.P,Q15,3,D*%
%TO.N,Net-(Q15-D)*%
X127520900Y-91002600D03*
%TD*%
D23*
%TO.P,Z9,1*%
%TO.N,+VDC*%
X84521500Y-77164000D03*
D24*
%TO.P,Z9,2*%
%TO.N,Net-(Q22-Pad1)*%
X84521500Y-87864000D03*
%TD*%
D25*
%TO.P,J21,1,Pin_1*%
%TO.N,Net-(#FLG03-pwr)*%
X96112600Y-58096800D03*
D26*
%TO.P,J21,2,Pin_2*%
%TO.N,GND*%
X91032600Y-58096800D03*
%TO.P,J21,3,Pin_3*%
%TO.N,PowerOn*%
X85952600Y-58096800D03*
%TD*%
D15*
%TO.P,R64,1*%
%TO.N,GND*%
X199595500Y-102214500D03*
D16*
%TO.P,R64,2*%
%TO.N,CAN_TX_STBY*%
X202135500Y-102214500D03*
%TD*%
D21*
%TO.P,T4,1,Pin_1*%
%TO.N,+5V*%
X204282700Y-133341400D03*
D22*
%TO.P,T4,2,Pin_2*%
%TO.N,GND*%
X204282700Y-135881400D03*
%TO.P,T4,3,Pin_3*%
%TO.N,unconnected-(T4-Pin_3-Pad3)*%
X204282700Y-138421400D03*
%TO.P,T4,4,Pin_4*%
%TO.N,RTDSCLK*%
X204282700Y-140961400D03*
%TO.P,T4,5,Pin_5*%
%TO.N,RTDMISO*%
X204282700Y-143501400D03*
%TO.P,T4,6,Pin_6*%
%TO.N,RTDMOSI*%
X204282700Y-146041400D03*
%TO.P,T4,7,Pin_7*%
%TO.N,FrontCS*%
X204282700Y-148581400D03*
%TO.P,T4,8,Pin_8*%
%TO.N,unconnected-(T4-Pin_8-Pad8)*%
X204282700Y-151121400D03*
%TD*%
D15*
%TO.P,R46,1*%
%TO.N,OUTPUTLED2*%
X139912900Y-96025600D03*
D16*
%TO.P,R46,2*%
%TO.N,GND*%
X137372900Y-96025600D03*
%TD*%
D15*
%TO.P,R34,1*%
%TO.N,Net-(Q25-G)*%
X196570900Y-76078200D03*
D16*
%TO.P,R34,2*%
%TO.N,GND*%
X199110900Y-76078200D03*
%TD*%
D15*
%TO.P,C5,1*%
%TO.N,Sense1-7*%
X190771500Y-62155500D03*
%TO.P,C5,2*%
%TO.N,GND*%
X190771500Y-57155500D03*
%TD*%
%TO.P,R36,1*%
%TO.N,+5V*%
X163218700Y-113941500D03*
D16*
%TO.P,R36,2*%
%TO.N,SCL*%
X165758700Y-113941500D03*
%TD*%
D17*
%TO.P,Q19,1,S*%
%TO.N,GND*%
X123281600Y-54920500D03*
D18*
%TO.P,Q19,2,G*%
%TO.N,OUTPUT1*%
X124551600Y-54920500D03*
%TO.P,Q19,3,D*%
%TO.N,Net-(Q19-D)*%
X125821600Y-54920500D03*
%TD*%
D21*
%TO.P,J6,1,Pin_1*%
%TO.N,unconnected-(J6-Pin_1-Pad1)*%
X93896800Y-105925600D03*
D22*
%TO.P,J6,2,Pin_2*%
%TO.N,unconnected-(J6-Pin_2-Pad2)*%
X91356800Y-105925600D03*
%TO.P,J6,3,Pin_3*%
%TO.N,GPSBat*%
X88816800Y-105925600D03*
%TO.P,J6,4,Pin_4*%
%TO.N,unconnected-(J6-Pin_4-Pad4)*%
X86276800Y-105925600D03*
%TO.P,J6,5,Pin_5*%
%TO.N,GPSTX*%
X83736800Y-105925600D03*
%TO.P,J6,6,Pin_6*%
%TO.N,GPSRX*%
X81196800Y-105925600D03*
%TO.P,J6,7,Pin_7*%
%TO.N,GND*%
X78656800Y-105925600D03*
%TO.P,J6,8,Pin_8*%
%TO.N,+5V*%
X76116800Y-105925600D03*
%TO.P,J6,9,Pin_9*%
%TO.N,unconnected-(J6-Pin_9-Pad9)*%
X73576800Y-105925600D03*
%TD*%
D15*
%TO.P,R5,1*%
%TO.N,Net-(Q28-D)*%
X204438900Y-49635500D03*
D16*
%TO.P,R5,2*%
%TO.N,Net-(Q1-G)*%
X206978900Y-49635500D03*
%TD*%
D19*
%TO.P,Q20,1*%
%TO.N,Net-(Q20-Pad1)*%
X137948300Y-51591400D03*
D20*
%TO.P,Q20,2*%
%TO.N,Sense2-3*%
X137948300Y-54131400D03*
%TO.P,Q20,3*%
%TO.N,+VDC*%
X137948300Y-56671400D03*
%TD*%
D15*
%TO.P,R2,1*%
%TO.N,GND*%
X99906600Y-135387200D03*
D16*
%TO.P,R2,2*%
%TO.N,Sense1-12*%
X102446600Y-135387200D03*
%TD*%
D23*
%TO.P,Z5,1*%
%TO.N,+VDC*%
X124379600Y-85479800D03*
D24*
%TO.P,Z5,2*%
%TO.N,Net-(Q17-Pad1)*%
X135079600Y-85479800D03*
%TD*%
D15*
%TO.P,R49,1*%
%TO.N,+VDC*%
X150974700Y-92348200D03*
D16*
%TO.P,R49,2*%
%TO.N,Net-(Q14-Pad1)*%
X148434700Y-92348200D03*
%TD*%
D15*
%TO.P,R1,1*%
%TO.N,+5V*%
X215437900Y-94386400D03*
D16*
%TO.P,R1,2*%
%TO.N,SDDetect*%
X215437900Y-91846400D03*
%TD*%
D17*
%TO.P,Q12,1,S*%
%TO.N,GND*%
X143217100Y-93590800D03*
D18*
%TO.P,Q12,2,G*%
%TO.N,OUTPUTLED2*%
X144487100Y-93590800D03*
%TO.P,Q12,3,D*%
%TO.N,Net-(Q12-D)*%
X145757100Y-93590800D03*
%TD*%
D27*
%TO.P,C39,1*%
%TO.N,GND*%
X105777600Y-104378800D03*
D15*
%TO.P,C39,2*%
%TO.N,Net-(#FLG0105-pwr)*%
X105777600Y-106878800D03*
%TD*%
D17*
%TO.P,Q2,1,S*%
%TO.N,GND*%
X213092300Y-59757100D03*
D18*
%TO.P,Q2,2,G*%
%TO.N,Net-(Q2-G)*%
X214362300Y-59757100D03*
%TO.P,Q2,3,D*%
%TO.N,Net-(Q2-D)*%
X215632300Y-59757100D03*
%TD*%
D17*
%TO.P,Q25,1,D*%
%TO.N,Net-(Q25-D)*%
X201732600Y-77886500D03*
D18*
%TO.P,Q25,2,G*%
%TO.N,Net-(Q25-G)*%
X203002600Y-77886500D03*
%TO.P,Q25,3,S*%
%TO.N,Sense2-1*%
X204272600Y-77886500D03*
%TD*%
D27*
%TO.P,C40,1*%
%TO.N,Net-(#FLG0106-pwr)*%
X101718200Y-117243200D03*
D15*
%TO.P,C40,2*%
%TO.N,+5V*%
X101718200Y-119743200D03*
%TD*%
%TO.P,R47,1*%
%TO.N,+VDC*%
X132450100Y-70105300D03*
D16*
%TO.P,R47,2*%
%TO.N,Net-(Q13-Pad1)*%
X134990100Y-70105300D03*
%TD*%
D21*
%TO.P,J8,1,Pin_1*%
%TO.N,SWMOSI*%
X229872200Y-121547800D03*
D22*
%TO.P,J8,2,Pin_2*%
%TO.N,RTDMOSI*%
X229872200Y-124087800D03*
%TO.P,J8,3,Pin_3*%
%TO.N,MOSI*%
X229872200Y-126627800D03*
%TD*%
D15*
%TO.P,C11,1*%
%TO.N,Net-(IC3-OSC2)*%
X189232600Y-122947700D03*
%TO.P,C11,2*%
%TO.N,GND*%
X189232600Y-117947700D03*
%TD*%
%TO.P,R42,1*%
%TO.N,Net-(Q9-Pad1)*%
X132887300Y-64171300D03*
D16*
%TO.P,R42,2*%
%TO.N,Net-(Q7-D)*%
X130347300Y-64171300D03*
%TD*%
D15*
%TO.P,R18,1*%
%TO.N,GND*%
X122751400Y-126260600D03*
D16*
%TO.P,R18,2*%
%TO.N,Sense2-10*%
X125291400Y-126260600D03*
%TD*%
D19*
%TO.P,Q17,1*%
%TO.N,Net-(Q17-Pad1)*%
X137948300Y-86239200D03*
D20*
%TO.P,Q17,2*%
%TO.N,Sense2-12*%
X137948300Y-88779200D03*
%TO.P,Q17,3*%
%TO.N,+VDC*%
X137948300Y-91319200D03*
%TD*%
D15*
%TO.P,R69,1*%
%TO.N,GND*%
X116816400Y-145349000D03*
D16*
%TO.P,R69,2*%
%TO.N,FuelPressure3*%
X114276400Y-145349000D03*
%TD*%
D17*
%TO.P,Q28,1,D*%
%TO.N,Net-(Q28-D)*%
X198434900Y-53868800D03*
D18*
%TO.P,Q28,2,G*%
%TO.N,Net-(Q28-G)*%
X199704900Y-53868800D03*
%TO.P,Q28,3,S*%
%TO.N,Sense1-10*%
X200974900Y-53868800D03*
%TD*%
D17*
%TO.P,Q11,1,S*%
%TO.N,GND*%
X124175200Y-77430200D03*
D18*
%TO.P,Q11,2,G*%
%TO.N,OUTPUT3*%
X125445200Y-77430200D03*
%TO.P,Q11,3,D*%
%TO.N,Net-(Q11-D)*%
X126715200Y-77430200D03*
%TD*%
D15*
%TO.P,R20,1*%
%TO.N,GND*%
X116672700Y-140684700D03*
D16*
%TO.P,R20,2*%
%TO.N,Sense1-6*%
X114132700Y-140684700D03*
%TD*%
D15*
%TO.P,R45,1*%
%TO.N,OUTPUT3*%
X126348800Y-82222500D03*
D16*
%TO.P,R45,2*%
%TO.N,GND*%
X123808800Y-82222500D03*
%TD*%
D15*
%TO.P,R28,1*%
%TO.N,+VDC*%
X96867100Y-83431200D03*
D16*
%TO.P,R28,2*%
%TO.N,Net-(Q22-Pad1)*%
X99407100Y-83431200D03*
%TD*%
D15*
%TO.P,R67,1*%
%TO.N,Net-(Q28-G)*%
X193167700Y-49742800D03*
D16*
%TO.P,R67,2*%
%TO.N,GND*%
X195707700Y-49742800D03*
%TD*%
D19*
%TO.P,Q22,1*%
%TO.N,Net-(Q22-Pad1)*%
X93303400Y-85000200D03*
D20*
%TO.P,Q22,2*%
%TO.N,VPP*%
X93303400Y-82460200D03*
%TO.P,Q22,3*%
%TO.N,+VDC*%
X93303400Y-79920200D03*
%TD*%
D21*
%TO.P,J10,1,Pin_1*%
%TO.N,Sense1-2*%
X174115600Y-87855000D03*
D22*
%TO.P,J10,2,Pin_2*%
%TO.N,Net-(J10-Pin_2)*%
X174115600Y-90395000D03*
%TD*%
D15*
%TO.P,R16,1*%
%TO.N,VPP*%
X114737400Y-133063100D03*
D16*
%TO.P,R16,2*%
%TO.N,/BufferedADC1/ADCIN4*%
X117277400Y-133063100D03*
%TD*%
D21*
%TO.P,J3,1,Pin_1*%
%TO.N,+5V*%
X226581200Y-111690700D03*
D22*
%TO.P,J3,2,Pin_2*%
%TO.N,unconnected-(J3-Pin_2-Pad2)*%
X226581200Y-109150700D03*
%TO.P,J3,3,Pin_3*%
%TO.N,GND*%
X226581200Y-106610700D03*
%TO.P,J3,4,Pin_4*%
%TO.N,SCLK*%
X226581200Y-104070700D03*
%TO.P,J3,5,Pin_5*%
%TO.N,MISO*%
X226581200Y-101530700D03*
%TO.P,J3,6,Pin_6*%
%TO.N,MOSI*%
X226581200Y-98990700D03*
%TO.P,J3,7,Pin_7*%
%TO.N,SDCS*%
X226581200Y-96450700D03*
%TO.P,J3,8,Pin_8*%
%TO.N,SDDetect*%
X226581200Y-93910700D03*
%TD*%
D15*
%TO.P,R23,1*%
%TO.N,GND*%
X141650500Y-117151100D03*
D16*
%TO.P,R23,2*%
%TO.N,SpareADC3*%
X139110500Y-117151100D03*
%TD*%
D21*
%TO.P,T2,1,Pin_1*%
%TO.N,+5V*%
X185138800Y-97249500D03*
D22*
%TO.P,T2,2,Pin_2*%
%TO.N,GND*%
X185138800Y-99789500D03*
%TO.P,T2,3,Pin_3*%
%TO.N,unconnected-(T2-Pin_3-Pad3)*%
X185138800Y-102329500D03*
%TO.P,T2,4,Pin_4*%
%TO.N,RTDSCLK*%
X185138800Y-104869500D03*
%TO.P,T2,5,Pin_5*%
%TO.N,RTDMISO*%
X185138800Y-107409500D03*
%TO.P,T2,6,Pin_6*%
%TO.N,RTDMOSI*%
X185138800Y-109949500D03*
%TO.P,T2,7,Pin_7*%
%TO.N,LsideCS*%
X185138800Y-112489500D03*
%TO.P,T2,8,Pin_8*%
%TO.N,unconnected-(T2-Pin_8-Pad8)*%
X185138800Y-115029500D03*
%TD*%
D15*
%TO.P,R29,1*%
%TO.N,Net-(Q22-Pad1)*%
X96850700Y-86549200D03*
D16*
%TO.P,R29,2*%
%TO.N,Net-(Q5-D)*%
X99390700Y-86549200D03*
%TD*%
D28*
%TO.P,IC17,1,C1+*%
%TO.N,Net-(IC17-C1+)*%
X117227000Y-121483700D03*
D29*
%TO.P,IC17,2,V+*%
%TO.N,Net-(#FLG0106-pwr)*%
X117227000Y-118943700D03*
%TO.P,IC17,3,C1-*%
%TO.N,Net-(IC17-C1-)*%
X117227000Y-116403700D03*
%TO.P,IC17,4,C2+*%
%TO.N,Net-(IC17-C2+)*%
X117227000Y-113863700D03*
%TO.P,IC17,5,C2-*%
%TO.N,Net-(IC17-C2-)*%
X117227000Y-111323700D03*
%TO.P,IC17,6,V-*%
%TO.N,Net-(#FLG0105-pwr)*%
X117227000Y-108783700D03*
%TO.P,IC17,7,T2OUT*%
%TO.N,/Sheet6152913C/RSCOM2TX*%
X117227000Y-106243700D03*
%TO.P,IC17,8,R2IN*%
%TO.N,/Sheet6152913C/RSCOM2RX*%
X117227000Y-103703700D03*
%TO.P,IC17,9,R2OUT*%
%TO.N,Com2RX*%
X109607000Y-103703700D03*
%TO.P,IC17,10,T2IN*%
%TO.N,Com2TX*%
X109607000Y-106243700D03*
%TO.P,IC17,11,T1IN*%
%TO.N,Com1TX*%
X109607000Y-108783700D03*
%TO.P,IC17,12,R1OUT*%
%TO.N,Com1RX*%
X109607000Y-111323700D03*
%TO.P,IC17,13,R1IN*%
%TO.N,Sense1-8*%
X109607000Y-113863700D03*
%TO.P,IC17,14,T1OUT*%
%TO.N,Sense1-11*%
X109607000Y-116403700D03*
%TO.P,IC17,15,GND*%
%TO.N,GND*%
X109607000Y-118943700D03*
%TO.P,IC17,16,VCC*%
%TO.N,+5V*%
X109607000Y-121483700D03*
%TD*%
D15*
%TO.P,R4,1*%
%TO.N,GND*%
X116863700Y-136197100D03*
D16*
%TO.P,R4,2*%
%TO.N,/BufferedADC1/ADCIN4*%
X114323700Y-136197100D03*
%TD*%
D15*
%TO.P,R8,1*%
%TO.N,Net-(Q1-G)*%
X204190800Y-54281900D03*
D16*
%TO.P,R8,2*%
%TO.N,GND*%
X206730800Y-54281900D03*
%TD*%
D17*
%TO.P,Q3,1,S*%
%TO.N,GND*%
X212897400Y-68857200D03*
D18*
%TO.P,Q3,2,G*%
%TO.N,Net-(Q3-G)*%
X214167400Y-68857200D03*
%TO.P,Q3,3,D*%
%TO.N,Net-(Q3-D)*%
X215437400Y-68857200D03*
%TD*%
D23*
%TO.P,Z1,1*%
%TO.N,+VDC*%
X124469800Y-61361800D03*
D24*
%TO.P,Z1,2*%
%TO.N,Net-(Q9-Pad1)*%
X135169800Y-61361800D03*
%TD*%
D15*
%TO.P,R50,1*%
%TO.N,Net-(Q14-Pad1)*%
X148881600Y-95455700D03*
D16*
%TO.P,R50,2*%
%TO.N,Net-(Q12-D)*%
X151421600Y-95455700D03*
%TD*%
D27*
%TO.P,C38,1*%
%TO.N,Net-(IC17-C2+)*%
X101718200Y-111166200D03*
D15*
%TO.P,C38,2*%
%TO.N,Net-(IC17-C2-)*%
X101718200Y-108666200D03*
%TD*%
D23*
%TO.P,Z7,1*%
%TO.N,+VDC*%
X124403000Y-49296100D03*
D24*
%TO.P,Z7,2*%
%TO.N,Net-(Q20-Pad1)*%
X135103000Y-49296100D03*
%TD*%
D23*
%TO.P,Z3,1*%
%TO.N,+VDC*%
X124430900Y-72953300D03*
D24*
%TO.P,Z3,2*%
%TO.N,Net-(Q13-Pad1)*%
X135130900Y-72953300D03*
%TD*%
D30*
%TO.P,U1,1,1*%
%TO.N,Net-(#FLG0103-pwr)*%
X78250100Y-64100700D03*
%TO.P,U1,2,2*%
%TO.N,+VDC*%
X78250100Y-86700700D03*
%TD*%
D21*
%TO.P,J11,1,Pin_1*%
%TO.N,/CAN Bus/CAN_INT*%
X213845000Y-122132000D03*
D22*
%TO.P,J11,2,Pin_2*%
%TO.N,CAN_INT*%
X213845000Y-124672000D03*
%TD*%
D17*
%TO.P,Q7,1,S*%
%TO.N,GND*%
X124895600Y-65590600D03*
D18*
%TO.P,Q7,2,G*%
%TO.N,OUTPUT2*%
X126165600Y-65590600D03*
%TO.P,Q7,3,D*%
%TO.N,Net-(Q7-D)*%
X127435600Y-65590600D03*
%TD*%
D15*
%TO.P,R66,1*%
%TO.N,/CAN Bus/CAN_INT*%
X207963000Y-125805900D03*
D16*
%TO.P,R66,2*%
%TO.N,GND*%
X210503000Y-125805900D03*
%TD*%
D15*
%TO.P,R14,1*%
%TO.N,Net-(Q25-D)*%
X207461300Y-76295800D03*
D16*
%TO.P,R14,2*%
%TO.N,Net-(Q4-G)*%
X210001300Y-76295800D03*
%TD*%
D15*
%TO.P,R15,1*%
%TO.N,Net-(Q4-G)*%
X207438700Y-79453500D03*
D16*
%TO.P,R15,2*%
%TO.N,GND*%
X209978700Y-79453500D03*
%TD*%
D15*
%TO.P,R30,1*%
%TO.N,Net-(Q23-G)*%
X197077800Y-58031600D03*
D16*
%TO.P,R30,2*%
%TO.N,GND*%
X199617800Y-58031600D03*
%TD*%
D21*
%TO.P,T1,1,Pin_1*%
%TO.N,+5V*%
X190610600Y-85780400D03*
D22*
%TO.P,T1,2,Pin_2*%
%TO.N,GND*%
X193150600Y-85780400D03*
%TO.P,T1,3,Pin_3*%
%TO.N,unconnected-(T1-Pin_3-Pad3)*%
X195690600Y-85780400D03*
%TO.P,T1,4,Pin_4*%
%TO.N,RTDSCLK*%
X198230600Y-85780400D03*
%TO.P,T1,5,Pin_5*%
%TO.N,RTDMISO*%
X200770600Y-85780400D03*
%TO.P,T1,6,Pin_6*%
%TO.N,RTDMOSI*%
X203310600Y-85780400D03*
%TO.P,T1,7,Pin_7*%
%TO.N,WaterCS*%
X205850600Y-85780400D03*
%TO.P,T1,8,Pin_8*%
%TO.N,unconnected-(T1-Pin_8-Pad8)*%
X208390600Y-85780400D03*
%TD*%
D21*
%TO.P,J1,1,Pin_1*%
%TO.N,SWSCLK*%
X234522200Y-121547800D03*
D22*
%TO.P,J1,2,Pin_2*%
%TO.N,RTDSCLK*%
X234522200Y-124087800D03*
%TO.P,J1,3,Pin_3*%
%TO.N,SCLK*%
X234522200Y-126627800D03*
%TD*%
D21*
%TO.P,J12,1,Pin_1*%
%TO.N,unconnected-(J12-Pin_1-Pad1)*%
X142301000Y-106524600D03*
D22*
%TO.P,J12,2,Pin_2*%
%TO.N,unconnected-(J12-Pin_2-Pad2)*%
X139761000Y-106524600D03*
%TO.P,J12,3,Pin_3*%
%TO.N,SCL*%
X137221000Y-106524600D03*
%TO.P,J12,4,Pin_4*%
%TO.N,SDA*%
X134681000Y-106524600D03*
%TO.P,J12,5,Pin_5*%
%TO.N,+5V*%
X132141000Y-106524600D03*
%TO.P,J12,6,Pin_6*%
%TO.N,GND*%
X129601000Y-106524600D03*
%TD*%
D15*
%TO.P,R32,1*%
%TO.N,Net-(Q24-G)*%
X196780800Y-67008000D03*
D16*
%TO.P,R32,2*%
%TO.N,GND*%
X199320800Y-67008000D03*
%TD*%
D19*
%TO.P,Q14,1*%
%TO.N,Net-(Q14-Pad1)*%
X147835600Y-68220700D03*
D20*
%TO.P,Q14,2*%
%TO.N,Sense2-8*%
X147835600Y-65680700D03*
%TO.P,Q14,3*%
%TO.N,+VDC*%
X147835600Y-63140700D03*
%TD*%
D15*
%TO.P,C10,1*%
%TO.N,+5V*%
X195024500Y-108550300D03*
%TO.P,C10,2*%
%TO.N,GND*%
X190024500Y-108550300D03*
%TD*%
%TO.P,C6,1*%
%TO.N,Sense1-4*%
X190529600Y-71112700D03*
%TO.P,C6,2*%
%TO.N,GND*%
X190529600Y-66112700D03*
%TD*%
D21*
%TO.P,T5,1,Pin_1*%
%TO.N,+5V*%
X216780000Y-85843500D03*
D22*
%TO.P,T5,2,Pin_2*%
%TO.N,GND*%
X219320000Y-85843500D03*
%TO.P,T5,3,Pin_3*%
%TO.N,unconnected-(T5-Pin_3-Pad3)*%
X221860000Y-85843500D03*
%TO.P,T5,4,Pin_4*%
%TO.N,RTDSCLK*%
X224400000Y-85843500D03*
%TO.P,T5,5,Pin_5*%
%TO.N,RTDMISO*%
X226940000Y-85843500D03*
%TO.P,T5,6,Pin_6*%
%TO.N,RTDMOSI*%
X229480000Y-85843500D03*
%TO.P,T5,7,Pin_7*%
%TO.N,AmbientCS*%
X232020000Y-85843500D03*
%TO.P,T5,8,Pin_8*%
%TO.N,unconnected-(T5-Pin_8-Pad8)*%
X234560000Y-85843500D03*
%TD*%
D15*
%TO.P,R53,1*%
%TO.N,+VDC*%
X132300900Y-82632400D03*
D16*
%TO.P,R53,2*%
%TO.N,Net-(Q17-Pad1)*%
X134840900Y-82632400D03*
%TD*%
D15*
%TO.P,R55,1*%
%TO.N,+VDC*%
X167264600Y-84024400D03*
D16*
%TO.P,R55,2*%
%TO.N,Net-(Q18-Pad1)*%
X164724600Y-84024400D03*
%TD*%
D15*
%TO.P,R52,1*%
%TO.N,OUTPUTSiren*%
X161738600Y-88833000D03*
D16*
%TO.P,R52,2*%
%TO.N,GND*%
X159198600Y-88833000D03*
%TD*%
D17*
%TO.P,Q1,1,S*%
%TO.N,GND*%
X211460500Y-51958700D03*
D18*
%TO.P,Q1,2,G*%
%TO.N,Net-(Q1-G)*%
X212730500Y-51958700D03*
%TO.P,Q1,3,D*%
%TO.N,Net-(Q1-D)*%
X214000500Y-51958700D03*
%TD*%
D15*
%TO.P,R44,1*%
%TO.N,Net-(Q10-Pad1)*%
X151477000Y-84322700D03*
D16*
%TO.P,R44,2*%
%TO.N,Net-(Q8-D)*%
X154017000Y-84322700D03*
%TD*%
D17*
%TO.P,Q5,1,S*%
%TO.N,GND*%
X96844900Y-76648100D03*
D18*
%TO.P,Q5,2,G*%
%TO.N,PowerOn*%
X98114900Y-76648100D03*
%TO.P,Q5,3,D*%
%TO.N,Net-(Q5-D)*%
X99384900Y-76648100D03*
%TD*%
D15*
%TO.P,R27,1*%
%TO.N,PowerOn*%
X96880200Y-80272600D03*
D16*
%TO.P,R27,2*%
%TO.N,GND*%
X99420200Y-80272600D03*
%TD*%
D15*
%TO.P,R9,1*%
%TO.N,Net-(Q23-D)*%
X207927200Y-57854600D03*
D16*
%TO.P,R9,2*%
%TO.N,Net-(Q2-G)*%
X210467200Y-57854600D03*
%TD*%
D15*
%TO.P,R70,1*%
%TO.N,Net-(Q1-D)*%
X193071500Y-54440300D03*
D16*
%TO.P,R70,2*%
%TO.N,Net-(Q21-CATHODE_1)*%
X195611500Y-54440300D03*
%TD*%
D31*
%TO.P,Q21,1,ANODE_1*%
%TO.N,+5V*%
X219482800Y-58749800D03*
D32*
%TO.P,Q21,2,CATHODE_1*%
%TO.N,Net-(Q21-CATHODE_1)*%
X219482800Y-61289800D03*
%TO.P,Q21,3,ANODE_2*%
%TO.N,+5V*%
X219482800Y-63829800D03*
%TO.P,Q21,4,CATHODE_2*%
%TO.N,Net-(Q21-CATHODE_2)*%
X219482800Y-66369800D03*
%TO.P,Q21,5,ANODE_3*%
%TO.N,+5V*%
X219482800Y-68909800D03*
%TO.P,Q21,6,CATHODE_3*%
%TO.N,Net-(Q21-CATHODE_3)*%
X219482800Y-71449800D03*
%TO.P,Q21,7,ANODE_4*%
%TO.N,+5V*%
X219482800Y-73989800D03*
%TO.P,Q21,8,CATHODE_4*%
%TO.N,Net-(Q21-CATHODE_4)*%
X219482800Y-76529800D03*
%TO.P,Q21,9,EMITTER_1*%
%TO.N,Logging*%
X227102800Y-76529800D03*
%TO.P,Q21,10,COLLECTOR_1*%
%TO.N,+5V*%
X227102800Y-73989800D03*
%TO.P,Q21,11,EMITTER_2*%
%TO.N,IN3TTL*%
X227102800Y-71449800D03*
%TO.P,Q21,12,COLLECTOR_2*%
%TO.N,+5V*%
X227102800Y-68909800D03*
%TO.P,Q21,13,EMITTER_3*%
%TO.N,IN2TTL*%
X227102800Y-66369800D03*
%TO.P,Q21,14,COLLECTOR_3*%
%TO.N,+5V*%
X227102800Y-63829800D03*
%TO.P,Q21,15,EMITTER_4*%
%TO.N,IN1TTL*%
X227102800Y-61289800D03*
%TO.P,Q21,16,COLLECTOR_4*%
%TO.N,+5V*%
X227102800Y-58749800D03*
%TD*%
D17*
%TO.P,Q24,1,D*%
%TO.N,Net-(Q24-D)*%
X202048400Y-68857200D03*
D18*
%TO.P,Q24,2,G*%
%TO.N,Net-(Q24-G)*%
X203318400Y-68857200D03*
%TO.P,Q24,3,S*%
%TO.N,Sense1-4*%
X204588400Y-68857200D03*
%TD*%
D17*
%TO.P,Q23,1,D*%
%TO.N,Net-(Q23-D)*%
X202317900Y-60478900D03*
D18*
%TO.P,Q23,2,G*%
%TO.N,Net-(Q23-G)*%
X203587900Y-60478900D03*
%TO.P,Q23,3,S*%
%TO.N,Sense1-7*%
X204857900Y-60478900D03*
%TD*%
D15*
%TO.P,R17,1*%
%TO.N,+5V*%
X163250700Y-109293700D03*
D16*
%TO.P,R17,2*%
%TO.N,SDA*%
X165790700Y-109293700D03*
%TD*%
D15*
%TO.P,R13,1*%
%TO.N,Net-(Q3-G)*%
X207657700Y-70165400D03*
D16*
%TO.P,R13,2*%
%TO.N,GND*%
X210197700Y-70165400D03*
%TD*%
D15*
%TO.P,R68,1*%
%TO.N,GND*%
X99866800Y-129284400D03*
D16*
%TO.P,R68,2*%
%TO.N,VoltageSensor*%
X102406800Y-129284400D03*
%TD*%
D15*
%TO.P,R6,1*%
%TO.N,GND*%
X104601100Y-145985500D03*
D16*
%TO.P,R6,2*%
%TO.N,FuelPressure1*%
X104601100Y-143445500D03*
%TD*%
D21*
%TO.P,J7,1,Pin_1*%
%TO.N,VPP*%
X119697600Y-66084300D03*
D22*
%TO.P,J7,2,Pin_2*%
%TO.N,+5V*%
X119697600Y-63544300D03*
%TO.P,J7,3,Pin_3*%
%TO.N,GND*%
X119697600Y-61004300D03*
%TD*%
D15*
%TO.P,C9,1*%
%TO.N,GND*%
X199353800Y-118424200D03*
%TO.P,C9,2*%
%TO.N,+5V*%
X204353800Y-118424200D03*
%TD*%
%TO.P,R54,1*%
%TO.N,Net-(Q17-Pad1)*%
X132691100Y-88305900D03*
D16*
%TO.P,R54,2*%
%TO.N,Net-(Q15-D)*%
X130151100Y-88305900D03*
%TD*%
D17*
%TO.P,Q4,1,S*%
%TO.N,GND*%
X212646200Y-77984300D03*
D18*
%TO.P,Q4,2,G*%
%TO.N,Net-(Q4-G)*%
X213916200Y-77984300D03*
%TO.P,Q4,3,D*%
%TO.N,Net-(Q4-D)*%
X215186200Y-77984300D03*
%TD*%
D15*
%TO.P,R3,1*%
%TO.N,GND*%
X99763400Y-140065700D03*
D16*
%TO.P,R3,2*%
%TO.N,Sense1-9*%
X102303400Y-140065700D03*
%TD*%
D15*
%TO.P,R25,1*%
%TO.N,GND*%
X141650500Y-126279000D03*
D16*
%TO.P,R25,2*%
%TO.N,Sense2-4*%
X139110500Y-126279000D03*
%TD*%
D15*
%TO.P,R40,1*%
%TO.N,OUTPUTLED1*%
X148378000Y-89191900D03*
D16*
%TO.P,R40,2*%
%TO.N,GND*%
X145838000Y-89191900D03*
%TD*%
D15*
%TO.P,R39,1*%
%TO.N,OUTPUT2*%
X127060000Y-69235400D03*
D16*
%TO.P,R39,2*%
%TO.N,GND*%
X124520000Y-69235400D03*
%TD*%
D15*
%TO.P,R33,1*%
%TO.N,Net-(Q3-D)*%
X196793900Y-70163400D03*
D16*
%TO.P,R33,2*%
%TO.N,Net-(Q21-CATHODE_3)*%
X199333900Y-70163400D03*
%TD*%
D15*
%TO.P,R51,1*%
%TO.N,OUTPUT4*%
X127076000Y-94602500D03*
D16*
%TO.P,R51,2*%
%TO.N,GND*%
X124536000Y-94602500D03*
%TD*%
D21*
%TO.P,J2,1,Pin_1*%
%TO.N,SWMISO*%
X225222200Y-121547800D03*
D22*
%TO.P,J2,2,Pin_2*%
%TO.N,RTDMISO*%
X225222200Y-124087800D03*
%TO.P,J2,3,Pin_3*%
%TO.N,MISO*%
X225222200Y-126627800D03*
%TD*%
D19*
%TO.P,Q9,1*%
%TO.N,Net-(Q9-Pad1)*%
X137948300Y-63140700D03*
D20*
%TO.P,Q9,2*%
%TO.N,Sense2-6*%
X137948300Y-65680700D03*
%TO.P,Q9,3*%
%TO.N,+VDC*%
X137948300Y-68220700D03*
%TD*%
D15*
%TO.P,C12,1*%
%TO.N,Net-(IC3-OSC1)*%
X189137100Y-125299700D03*
%TO.P,C12,2*%
%TO.N,GND*%
X189137100Y-130299700D03*
%TD*%
%TO.P,R35,1*%
%TO.N,Net-(Q4-D)*%
X196591000Y-79208600D03*
D16*
%TO.P,R35,2*%
%TO.N,Net-(Q21-CATHODE_4)*%
X199131000Y-79208600D03*
%TD*%
D15*
%TO.P,R10,1*%
%TO.N,Net-(Q2-G)*%
X207911500Y-60975100D03*
D16*
%TO.P,R10,2*%
%TO.N,GND*%
X210451500Y-60975100D03*
%TD*%
D33*
%TO.P,Y1,1,1*%
%TO.N,Net-(IC3-OSC2)*%
X194174500Y-121903800D03*
%TO.P,Y1,2,2*%
%TO.N,Net-(IC3-OSC1)*%
X194174500Y-126783800D03*
%TD*%
D21*
%TO.P,T6,1,Pin_1*%
%TO.N,+5V*%
X155695300Y-141069100D03*
D22*
%TO.P,T6,2,Pin_2*%
%TO.N,GND*%
X158235300Y-141069100D03*
%TO.P,T6,3,Pin_3*%
%TO.N,unconnected-(T6-Pin_3-Pad3)*%
X160775300Y-141069100D03*
%TO.P,T6,4,Pin_4*%
%TO.N,RTDSCLK*%
X163315300Y-141069100D03*
%TO.P,T6,5,Pin_5*%
%TO.N,RTDMISO*%
X165855300Y-141069100D03*
%TO.P,T6,6,Pin_6*%
%TO.N,RTDMOSI*%
X168395300Y-141069100D03*
%TO.P,T6,7,Pin_7*%
%TO.N,CarbCS*%
X170935300Y-141069100D03*
%TO.P,T6,8,Pin_8*%
%TO.N,unconnected-(T6-Pin_8-Pad8)*%
X173475300Y-141069100D03*
%TD*%
D15*
%TO.P,C13,1*%
%TO.N,Sense1-10*%
X189408500Y-54575100D03*
%TO.P,C13,2*%
%TO.N,GND*%
X189408500Y-49575100D03*
%TD*%
D27*
%TO.P,C37,1*%
%TO.N,Net-(IC17-C1+)*%
X105777600Y-115358800D03*
D15*
%TO.P,C37,2*%
%TO.N,Net-(IC17-C1-)*%
X105777600Y-112858800D03*
%TD*%
%TO.P,C7,1*%
%TO.N,Sense2-1*%
X190228600Y-80541100D03*
%TO.P,C7,2*%
%TO.N,GND*%
X190228600Y-75541100D03*
%TD*%
%TO.P,R7,1*%
%TO.N,GND*%
X107730800Y-145972500D03*
D16*
%TO.P,R7,2*%
%TO.N,FuelPressure2*%
X107730800Y-143432500D03*
%TD*%
D19*
%TO.P,Q10,1*%
%TO.N,Net-(Q10-Pad1)*%
X147788500Y-56671400D03*
D20*
%TO.P,Q10,2*%
%TO.N,Sense2-11*%
X147788500Y-54131400D03*
%TO.P,Q10,3*%
%TO.N,+VDC*%
X147788500Y-51591400D03*
%TD*%
D19*
%TO.P,Q18,1*%
%TO.N,Net-(Q18-Pad1)*%
X147835600Y-79770000D03*
D20*
%TO.P,Q18,2*%
%TO.N,Sense2-5*%
X147835600Y-77230000D03*
%TO.P,Q18,3*%
%TO.N,+VDC*%
X147835600Y-74690000D03*
%TD*%
D15*
%TO.P,R57,1*%
%TO.N,OUTPUT1*%
X127106300Y-58571900D03*
D16*
%TO.P,R57,2*%
%TO.N,GND*%
X124566300Y-58571900D03*
%TD*%
D23*
%TO.P,Z2,1*%
%TO.N,+VDC*%
X162908500Y-49269700D03*
D24*
%TO.P,Z2,2*%
%TO.N,Net-(Q10-Pad1)*%
X152208500Y-49269700D03*
%TD*%
D23*
%TO.P,Z6,1*%
%TO.N,+VDC*%
X162908500Y-54465700D03*
D24*
%TO.P,Z6,2*%
%TO.N,Net-(Q18-Pad1)*%
X152208500Y-54465700D03*
%TD*%
D23*
%TO.P,Z4,1*%
%TO.N,+VDC*%
X162908500Y-51902100D03*
D24*
%TO.P,Z4,2*%
%TO.N,Net-(Q14-Pad1)*%
X152208500Y-51902100D03*
%TD*%
D34*
%TO.N,+5V*%
X104935700Y-135578100D03*
X202200900Y-109766300D03*
%TO.N,GPSTX*%
X122828200Y-104032900D03*
D35*
%TO.N,SDA*%
X159332362Y-107700799D03*
D34*
%TO.N,AmbientCS*%
X220013700Y-91572200D03*
%TO.N,CANCS*%
X203187900Y-122779100D03*
%TO.N,Sense2-10*%
X161385400Y-66733900D03*
%TO.N,Sense1-3*%
X151006500Y-111951400D03*
%TO.N,Sense1-11*%
X147192400Y-110379600D03*
%TO.N,SDCS*%
X197158200Y-105037600D03*
%TO.N,OUTPUTLED2*%
X143685700Y-108765000D03*
%TO.N,Sense1-6*%
X142495600Y-128575800D03*
%TO.N,Sense1-9*%
X146826200Y-113708400D03*
%TO.N,Sense1-12*%
X146406800Y-112656500D03*
%TO.N,Sense1-8*%
X148468000Y-109754500D03*
%TD*%
D36*
%TO.N,GND*%
X213711000Y-79059400D02*
X219320000Y-84668400D01*
X180932700Y-142783200D02*
X181749800Y-141966100D01*
X180561100Y-143971900D02*
X180561100Y-142783200D01*
X141650500Y-126279000D02*
X141650500Y-130872700D01*
X212897400Y-64546100D02*
X210451500Y-62100200D01*
X123456700Y-107170900D02*
X124264700Y-107978900D01*
X212897400Y-68857200D02*
X212897400Y-64546100D01*
X185504000Y-100964600D02*
X185138800Y-100964600D01*
X185205600Y-135881400D02*
X185205600Y-137056500D01*
X219320000Y-85843500D02*
X219320000Y-84668400D01*
X185138800Y-99789500D02*
X185138800Y-100964600D01*
X181749800Y-140147000D02*
X184840300Y-137056500D01*
X116816400Y-140828400D02*
X116816400Y-145349000D01*
X141650500Y-121671700D02*
X141650500Y-126279000D01*
X181749800Y-141966100D02*
X181749800Y-140147000D01*
X210451500Y-60975100D02*
X210451500Y-62100200D01*
X124264700Y-107978900D02*
X124264700Y-115231100D01*
X123089500Y-107170900D02*
X123456700Y-107170900D01*
X123089500Y-105995800D02*
X123089500Y-107170900D01*
X180561100Y-142783200D02*
X180932700Y-142783200D01*
X212646200Y-79059400D02*
X213711000Y-79059400D01*
X212646200Y-77984300D02*
X212646200Y-79059400D01*
X184840300Y-137056500D02*
X185205600Y-137056500D01*
X189232600Y-109342200D02*
X190024500Y-108550300D01*
X189232600Y-117947700D02*
X189232600Y-109342200D01*
X190024500Y-108550300D02*
X190024500Y-105485100D01*
X124264700Y-115231100D02*
X122751400Y-116744400D01*
X190024500Y-105485100D02*
X185504000Y-100964600D01*
%TO.N,+5V*%
X185138800Y-98424600D02*
X185460400Y-98424600D01*
X185460400Y-98424600D02*
X193235700Y-106199900D01*
X193235700Y-106761500D02*
X195024500Y-108550300D01*
X185138800Y-97249500D02*
X185138800Y-98424600D01*
X193235700Y-106199900D02*
X193235700Y-106761500D01*
D37*
%TO.N,Net-(#FLG03-pwr)*%
X96112600Y-68456800D02*
X96112600Y-58096800D01*
X93319000Y-71250400D02*
X96112600Y-68456800D01*
D36*
%TO.N,Net-(Q23-D)*%
X202317900Y-59403800D02*
X206378000Y-59403800D01*
X202317900Y-60478900D02*
X202317900Y-59403800D01*
X206378000Y-59403800D02*
X207927200Y-57854600D01*
D38*
%TO.N,SDA*%
X148540105Y-107697397D02*
X159256178Y-107697397D01*
X137802400Y-109646000D02*
X146591502Y-109646000D01*
X159262982Y-107697397D02*
X159259580Y-107697397D01*
X159332362Y-107700799D02*
X159262982Y-107697397D01*
X106974100Y-102388900D02*
X105377100Y-100791900D01*
X134681000Y-106524600D02*
X137802400Y-109646000D01*
X134681000Y-106524600D02*
X130545300Y-102388900D01*
X159256178Y-107697397D02*
X159332362Y-107700799D01*
X130545300Y-102388900D02*
X106974100Y-102388900D01*
X146591502Y-109646000D02*
X148540105Y-107697397D01*
D36*
%TO.N,WaterCS*%
X179209800Y-136074800D02*
X179209800Y-136351900D01*
X185930400Y-122904300D02*
X185930400Y-130211300D01*
X205850600Y-85780400D02*
X205850600Y-102984100D01*
X185930400Y-130211300D02*
X181141000Y-135000700D01*
X180283900Y-135000700D02*
X179209800Y-136074800D01*
X178021100Y-136351900D02*
X179209800Y-136351900D01*
X205850600Y-102984100D02*
X185930400Y-122904300D01*
X181141000Y-135000700D02*
X180283900Y-135000700D01*
%TO.N,/Sheet6152913C/RSCOM2TX*%
X118780200Y-108218500D02*
X119057100Y-108218500D01*
X119057100Y-108218500D02*
X121914400Y-111075800D01*
X123089500Y-111075800D02*
X121914400Y-111075800D01*
X117227000Y-106665300D02*
X118780200Y-108218500D01*
%TO.N,LsideCS*%
X185138800Y-113664600D02*
X184771500Y-113664600D01*
X179209800Y-133442400D02*
X179209800Y-133811900D01*
X185138800Y-112489500D02*
X185138800Y-113664600D01*
X183513600Y-114922500D02*
X183513600Y-130059600D01*
X184771500Y-113664600D02*
X183513600Y-114922500D01*
X181112500Y-132460700D02*
X180191500Y-132460700D01*
X178021100Y-133811900D02*
X179209800Y-133811900D01*
X183513600Y-130059600D02*
X181112500Y-132460700D01*
X180191500Y-132460700D02*
X179209800Y-133442400D01*
%TO.N,RsideCS*%
X176788200Y-133324000D02*
X177651600Y-132460600D01*
X185205600Y-148581400D02*
X183480500Y-148581400D01*
X178624800Y-142783100D02*
X177616500Y-142783100D01*
X177651600Y-132460600D02*
X178021100Y-132460600D01*
X183480500Y-148581400D02*
X179372300Y-144473200D01*
X177616500Y-142783100D02*
X176788200Y-141954800D01*
X179372300Y-143530600D02*
X178624800Y-142783100D01*
X178021100Y-131271900D02*
X178021100Y-132460600D01*
X176788200Y-141954800D02*
X176788200Y-133324000D01*
X179372300Y-144473200D02*
X179372300Y-143530600D01*
%TO.N,/Sheet6152913C/RSCOM2RX*%
X121914400Y-108391100D02*
X121914400Y-108535800D01*
X117227000Y-103703700D02*
X121914400Y-108391100D01*
X123089500Y-108535800D02*
X121914400Y-108535800D01*
D37*
%TO.N,Net-(Q6-Pad1)*%
X93319000Y-73790400D02*
X89968900Y-73790400D01*
X89968900Y-73790400D02*
X84534800Y-68356300D01*
D36*
%TO.N,OUTPUTLED1*%
X179372400Y-128362500D02*
X179372400Y-128731900D01*
X164520700Y-114440800D02*
X177460600Y-127380700D01*
X148378000Y-89191900D02*
X149414300Y-89191900D01*
X177460600Y-127380700D02*
X178390600Y-127380700D01*
X180561100Y-128731900D02*
X179372400Y-128731900D01*
X149414300Y-89191900D02*
X158971100Y-98748700D01*
X178390600Y-127380700D02*
X179372400Y-128362500D01*
X158971100Y-102246100D02*
X164520700Y-107795700D01*
X158971100Y-98748700D02*
X158971100Y-102246100D01*
X164520700Y-107795700D02*
X164520700Y-114440800D01*
%TO.N,Net-(Q10-Pad1)*%
X151477000Y-84322700D02*
X151477000Y-61645000D01*
X151477000Y-61645000D02*
X147788500Y-57956500D01*
X147788500Y-56671400D02*
X147788500Y-57956500D01*
%TO.N,Net-(Q14-Pad1)*%
X149271100Y-86639800D02*
X149271100Y-70941300D01*
X147202500Y-88708400D02*
X149271100Y-86639800D01*
X147202500Y-89990900D02*
X147202500Y-88708400D01*
X148434700Y-92348200D02*
X148434700Y-91223100D01*
X148434700Y-91223100D02*
X147202500Y-89990900D01*
X149271100Y-70941300D02*
X147835600Y-69505800D01*
X147835600Y-68220700D02*
X147835600Y-69505800D01*
D37*
%TO.N,VPP*%
X95245200Y-80518400D02*
X95245200Y-79595400D01*
X107411000Y-78371100D02*
X119697800Y-66084500D01*
X96469400Y-78371100D02*
X107411000Y-78371100D01*
X95245200Y-79595400D02*
X96469400Y-78371100D01*
X93303400Y-82460200D02*
X95245200Y-80518400D01*
D36*
%TO.N,Net-(Q2-G)*%
X210467200Y-57854600D02*
X210467200Y-58979700D01*
X207911500Y-60975100D02*
X209906900Y-58979700D01*
X209906900Y-58979700D02*
X210467200Y-58979700D01*
%TO.N,Net-(Q4-G)*%
X209471300Y-77420900D02*
X210001300Y-77420900D01*
X210001300Y-76295800D02*
X210001300Y-77420900D01*
X207438700Y-79453500D02*
X209471300Y-77420900D01*
%TD*%
%TA.AperFunction,Conductor*%
%TO.N,GND*%
G36*
X212656215Y-78000006D02*
G01*
X212657111Y-78001284D01*
X213164067Y-78724129D01*
X213166161Y-78730051D01*
X213164890Y-78736203D01*
X213160621Y-78740811D01*
X212846100Y-78934400D01*
X212846100Y-79160875D01*
X212843044Y-79168760D01*
X212835472Y-79172526D01*
X212827340Y-79170205D01*
X212825430Y-79168760D01*
X212259173Y-78740286D01*
X212254814Y-78733506D01*
X212255874Y-78725518D01*
X212636279Y-78001283D01*
X212642027Y-77995972D01*
X212649837Y-77995471D01*
X212656215Y-78000006D01*
G37*
%TD.AperFunction*%
%TD*%
%TA.AperFunction,Conductor*%
%TO.N,GND*%
G36*
X180929713Y-142673154D02*
G01*
X180932700Y-142680962D01*
X180932700Y-142908201D01*
X181352233Y-143629841D01*
X181353808Y-143636210D01*
X181351707Y-143642425D01*
X181346591Y-143646532D01*
X180567327Y-143968910D01*
X180560564Y-143969573D01*
X180554574Y-143966365D01*
X180231164Y-143642425D01*
X179960182Y-143370998D01*
X179957012Y-143365132D01*
X179957561Y-143358485D01*
X179961652Y-143353220D01*
X180914190Y-142671447D01*
X180922278Y-142669332D01*
X180929713Y-142673154D01*
G37*
%TD.AperFunction*%
%TD*%
%TA.AperFunction,Conductor*%
%TO.N,Net-(Q4-G)*%
G36*
X210003084Y-76301811D02*
G01*
X210006768Y-76306622D01*
X210303750Y-77025950D01*
X210304113Y-77033872D01*
X210299341Y-77040206D01*
X209544506Y-77534054D01*
X209536498Y-77535853D01*
X209529279Y-77531949D01*
X209526400Y-77524263D01*
X209526400Y-77295899D01*
X209266242Y-76612575D01*
X209266434Y-76603776D01*
X209272703Y-76597600D01*
X209991482Y-76300274D01*
X209997488Y-76299488D01*
X210003084Y-76301811D01*
G37*
%TD.AperFunction*%
%TD*%
%TA.AperFunction,Conductor*%
%TO.N,/Sheet6152913C/RSCOM2RX*%
G36*
X122765737Y-107760122D02*
G01*
X122770488Y-107765657D01*
X123086510Y-108529572D01*
X123087173Y-108536335D01*
X123083965Y-108542325D01*
X122497003Y-109128310D01*
X122491637Y-109131365D01*
X122485463Y-109131263D01*
X122480201Y-109128032D01*
X121807869Y-108410802D01*
X121804708Y-108402548D01*
X121808221Y-108394438D01*
X121816405Y-108391100D01*
X122039399Y-108391100D01*
X122039400Y-108391100D01*
X122751931Y-107761362D01*
X122758629Y-107758477D01*
X122765737Y-107760122D01*
G37*
%TD.AperFunction*%
%TD*%
%TA.AperFunction,Conductor*%
%TO.N,OUTPUTLED1*%
G36*
X180231630Y-127941315D02*
G01*
X180235743Y-127946435D01*
X180407867Y-128362500D01*
X180558110Y-128725672D01*
X180558773Y-128732435D01*
X180555565Y-128738425D01*
X179960188Y-129332827D01*
X179954325Y-129335998D01*
X179947682Y-129335452D01*
X179942416Y-129331368D01*
X179260684Y-128381019D01*
X179258561Y-128372930D01*
X179262381Y-128365489D01*
X179270192Y-128362500D01*
X179497399Y-128362500D01*
X179497400Y-128362500D01*
X180219032Y-127940806D01*
X180225404Y-127939218D01*
X180231630Y-127941315D01*
G37*
%TD.AperFunction*%
%TD*%
%TA.AperFunction,Conductor*%
%TO.N,VPP*%
G36*
X94219022Y-80660532D02*
G01*
X95103067Y-81544577D01*
X95106453Y-81551870D01*
X95104332Y-81559626D01*
X93990234Y-83127746D01*
X93984970Y-83131862D01*
X93978312Y-83132425D01*
X93972432Y-83129252D01*
X93302693Y-82460907D01*
X92634346Y-81791166D01*
X92631174Y-81785287D01*
X92631737Y-81778629D01*
X92635851Y-81773366D01*
X93718093Y-81004469D01*
X93720620Y-81003109D01*
X93822896Y-80963488D01*
X94005754Y-80850267D01*
X94164694Y-80705373D01*
X94193261Y-80667543D01*
X94195815Y-80665063D01*
X94203974Y-80659266D01*
X94211729Y-80657146D01*
X94219022Y-80660532D01*
G37*
%TD.AperFunction*%
%TD*%
%TA.AperFunction,Conductor*%
%TO.N,GND*%
G36*
X141774355Y-124680811D02*
G01*
X141778672Y-124685683D01*
X142384333Y-125961748D01*
X142385408Y-125967897D01*
X142383169Y-125973723D01*
X142378253Y-125977569D01*
X141654990Y-126278134D01*
X141650500Y-126279030D01*
X141646010Y-126278134D01*
X140922746Y-125977569D01*
X140917830Y-125973723D01*
X140915591Y-125967897D01*
X140916665Y-125961750D01*
X141522328Y-124685682D01*
X141526645Y-124680811D01*
X141532898Y-124679000D01*
X141768102Y-124679000D01*
X141774355Y-124680811D01*
G37*
%TD.AperFunction*%
%TD*%
%TA.AperFunction,Conductor*%
%TO.N,GND*%
G36*
X116677185Y-140685564D02*
G01*
X117303242Y-140945732D01*
X117401401Y-140986524D01*
X117407639Y-140992659D01*
X117407878Y-141001405D01*
X116944234Y-142248493D01*
X116939945Y-142254023D01*
X116933267Y-142256116D01*
X116698030Y-142256116D01*
X116692261Y-142254595D01*
X116687993Y-142250428D01*
X115940554Y-141002465D01*
X115938897Y-140996072D01*
X115940966Y-140989801D01*
X115946097Y-140985651D01*
X116668214Y-140685564D01*
X116672700Y-140684669D01*
X116677185Y-140685564D01*
G37*
%TD.AperFunction*%
%TD*%
%TA.AperFunction,Conductor*%
%TO.N,Net-(Q10-Pad1)*%
G36*
X147797192Y-56680092D02*
G01*
X148741959Y-57624859D01*
X148745307Y-57631772D01*
X148743646Y-57639272D01*
X148326546Y-58315890D01*
X148324859Y-58318023D01*
X148156372Y-58486510D01*
X148148814Y-58489915D01*
X148140896Y-58487457D01*
X147054258Y-57638566D01*
X147049852Y-57630802D01*
X147052205Y-57622190D01*
X147779663Y-56681209D01*
X147784944Y-56677361D01*
X147791465Y-56676945D01*
X147797192Y-56680092D01*
G37*
%TD.AperFunction*%
%TD*%
%TA.AperFunction,Conductor*%
%TO.N,GND*%
G36*
X141774355Y-129274511D02*
G01*
X141778672Y-129279383D01*
X142384333Y-130555448D01*
X142385408Y-130561597D01*
X142383169Y-130567423D01*
X142378253Y-130571269D01*
X141654990Y-130871834D01*
X141650500Y-130872730D01*
X141646010Y-130871834D01*
X140922746Y-130571269D01*
X140917830Y-130567423D01*
X140915591Y-130561597D01*
X140916665Y-130555450D01*
X141522328Y-129279382D01*
X141526645Y-129274511D01*
X141532898Y-129272700D01*
X141768102Y-129272700D01*
X141774355Y-129274511D01*
G37*
%TD.AperFunction*%
%TD*%
%TA.AperFunction,Conductor*%
%TO.N,SDA*%
G36*
X133756010Y-105057302D02*
G01*
X134997062Y-105734273D01*
X135002489Y-105740642D01*
X135002272Y-105749009D01*
X134683562Y-106520814D01*
X134681021Y-106524621D01*
X134677214Y-106527162D01*
X133905409Y-106845872D01*
X133897042Y-106846089D01*
X133890673Y-106840662D01*
X133213702Y-105599610D01*
X133212393Y-105592340D01*
X133215699Y-105585737D01*
X133742137Y-105059299D01*
X133748740Y-105055993D01*
X133756010Y-105057302D01*
G37*
%TD.AperFunction*%
%TD*%
%TA.AperFunction,Conductor*%
%TO.N,WaterCS*%
G36*
X178363556Y-135562540D02*
G01*
X179084800Y-136074800D01*
X179310610Y-136074800D01*
X179318558Y-136077914D01*
X179322275Y-136085599D01*
X179319782Y-136093764D01*
X178639905Y-136952267D01*
X178634625Y-136956037D01*
X178628149Y-136956414D01*
X178622468Y-136953283D01*
X178026633Y-136358424D01*
X178023426Y-136352435D01*
X178024088Y-136345675D01*
X178345972Y-135567605D01*
X178350372Y-135562292D01*
X178357003Y-135560382D01*
X178363556Y-135562540D01*
G37*
%TD.AperFunction*%
%TD*%
%TA.AperFunction,Conductor*%
%TO.N,GND*%
G36*
X141654985Y-121672564D02*
G01*
X142307190Y-121943598D01*
X142378253Y-121973130D01*
X142383169Y-121976976D01*
X142385408Y-121982802D01*
X142384333Y-121988951D01*
X141778672Y-123265017D01*
X141774355Y-123269889D01*
X141768102Y-123271700D01*
X141532898Y-123271700D01*
X141526645Y-123269889D01*
X141522328Y-123265017D01*
X140916666Y-121988951D01*
X140915591Y-121982802D01*
X140917830Y-121976976D01*
X140922745Y-121973130D01*
X141646014Y-121672564D01*
X141650500Y-121671669D01*
X141654985Y-121672564D01*
G37*
%TD.AperFunction*%
%TD*%
%TA.AperFunction,Conductor*%
%TO.N,GND*%
G36*
X185212125Y-135886934D02*
G01*
X185796950Y-136472734D01*
X185800117Y-136478582D01*
X185799586Y-136485211D01*
X185795528Y-136490480D01*
X184858858Y-137168075D01*
X184850761Y-137170229D01*
X184843300Y-137166418D01*
X184840300Y-137158595D01*
X184840300Y-136931500D01*
X184840299Y-136931499D01*
X184427004Y-136218247D01*
X184425438Y-136211881D01*
X184427541Y-136205672D01*
X184432651Y-136201572D01*
X185199375Y-135884388D01*
X185206135Y-135883726D01*
X185212125Y-135886934D01*
G37*
%TD.AperFunction*%
%TD*%
%TA.AperFunction,Conductor*%
%TO.N,Net-(Q10-Pad1)*%
G36*
X151600855Y-82724511D02*
G01*
X151605172Y-82729383D01*
X152210833Y-84005448D01*
X152211908Y-84011597D01*
X152209669Y-84017423D01*
X152204753Y-84021269D01*
X151481489Y-84321834D01*
X151476999Y-84322730D01*
X151472510Y-84321834D01*
X151246470Y-84227899D01*
X150749246Y-84021269D01*
X150744330Y-84017423D01*
X150742091Y-84011597D01*
X150743165Y-84005450D01*
X151348828Y-82729382D01*
X151353145Y-82724511D01*
X151359398Y-82722700D01*
X151594602Y-82722700D01*
X151600855Y-82724511D01*
G37*
%TD.AperFunction*%
%TD*%
%TA.AperFunction,Conductor*%
%TO.N,Net-(#FLG03-pwr)*%
G36*
X96121876Y-58107868D02*
G01*
X97108679Y-59391699D01*
X97110967Y-59397050D01*
X97110394Y-59402841D01*
X96750406Y-60389112D01*
X96746121Y-60394687D01*
X96739415Y-60396800D01*
X95485785Y-60396800D01*
X95479079Y-60394687D01*
X95474794Y-60389112D01*
X95114805Y-59402841D01*
X95114232Y-59397050D01*
X95116518Y-59391701D01*
X96103324Y-58107867D01*
X96109085Y-58103839D01*
X96116115Y-58103839D01*
X96121876Y-58107868D01*
G37*
%TD.AperFunction*%
%TD*%
%TA.AperFunction,Conductor*%
%TO.N,RsideCS*%
G36*
X184881196Y-147802580D02*
G01*
X184885057Y-147807507D01*
X185204734Y-148576911D01*
X185205629Y-148581400D01*
X185204734Y-148585889D01*
X184885057Y-149355292D01*
X184881196Y-149360219D01*
X184875348Y-149362452D01*
X184869186Y-149361350D01*
X183512234Y-148709586D01*
X183507397Y-148705269D01*
X183505600Y-148699039D01*
X183505600Y-148463761D01*
X183507397Y-148457531D01*
X183512234Y-148453214D01*
X184247650Y-148099982D01*
X184869187Y-147801448D01*
X184875348Y-147800347D01*
X184881196Y-147802580D01*
G37*
%TD.AperFunction*%
%TD*%
%TA.AperFunction,Conductor*%
%TO.N,GND*%
G36*
X210458025Y-60977392D02*
G01*
X211180886Y-61277216D01*
X211186962Y-61282984D01*
X211187624Y-61291337D01*
X210876535Y-62344762D01*
X210873587Y-62349721D01*
X210708011Y-62515297D01*
X210702408Y-62518415D01*
X210696003Y-62518112D01*
X210690721Y-62514479D01*
X209892587Y-61548977D01*
X209889918Y-61540976D01*
X209893322Y-61533259D01*
X210445264Y-60979934D01*
X210451257Y-60976726D01*
X210458025Y-60977392D01*
G37*
%TD.AperFunction*%
%TD*%
%TA.AperFunction,Conductor*%
%TO.N,/Sheet6152913C/RSCOM2TX*%
G36*
X117795971Y-106243686D02*
G01*
X117803992Y-106246882D01*
X117807636Y-106254710D01*
X117857327Y-107113913D01*
X117856581Y-107118752D01*
X117853920Y-107122862D01*
X117687996Y-107288786D01*
X117680578Y-107292182D01*
X117672745Y-107289904D01*
X116827734Y-106661890D01*
X116823763Y-106656619D01*
X116823275Y-106650038D01*
X116826424Y-106644242D01*
X117222862Y-106246435D01*
X117226664Y-106243890D01*
X117231153Y-106242998D01*
X117795971Y-106243686D01*
G37*
%TD.AperFunction*%
%TD*%
%TA.AperFunction,Conductor*%
%TO.N,Net-(Q4-G)*%
G36*
X208486912Y-78238972D02*
G01*
X208653227Y-78405287D01*
X208656368Y-78410989D01*
X208655975Y-78417487D01*
X208181929Y-79748068D01*
X208178342Y-79753176D01*
X208172639Y-79755712D01*
X208166443Y-79754956D01*
X207442487Y-79456062D01*
X207438679Y-79453520D01*
X207436137Y-79449712D01*
X207137243Y-78725756D01*
X207136487Y-78719560D01*
X207139023Y-78713857D01*
X207144127Y-78710272D01*
X208474716Y-78236223D01*
X208481210Y-78235831D01*
X208486912Y-78238972D01*
G37*
%TD.AperFunction*%
%TD*%
%TA.AperFunction,Conductor*%
%TO.N,WaterCS*%
G36*
X205855088Y-85781265D02*
G01*
X206624492Y-86100942D01*
X206629419Y-86104803D01*
X206631652Y-86110651D01*
X206630550Y-86116813D01*
X205978786Y-87473766D01*
X205974469Y-87478603D01*
X205968239Y-87480400D01*
X205732961Y-87480400D01*
X205726731Y-87478603D01*
X205722414Y-87473766D01*
X205070649Y-86116813D01*
X205069547Y-86110651D01*
X205071780Y-86104803D01*
X205076705Y-86100942D01*
X205846112Y-85781264D01*
X205850599Y-85780370D01*
X205855088Y-85781265D01*
G37*
%TD.AperFunction*%
%TD*%
%TA.AperFunction,Conductor*%
%TO.N,GND*%
G36*
X213021798Y-67583415D02*
G01*
X213025912Y-67586809D01*
X213417223Y-68100406D01*
X213419614Y-68107257D01*
X213417505Y-68114201D01*
X212906989Y-68844483D01*
X212901083Y-68848884D01*
X212893717Y-68848884D01*
X212887811Y-68844483D01*
X212377294Y-68114201D01*
X212375185Y-68107257D01*
X212377576Y-68100406D01*
X212768888Y-67586809D01*
X212773002Y-67583415D01*
X212778195Y-67582200D01*
X213016605Y-67582200D01*
X213021798Y-67583415D01*
G37*
%TD.AperFunction*%
%TD*%
%TA.AperFunction,Conductor*%
%TO.N,RsideCS*%
G36*
X178027625Y-131277434D02*
G01*
X178622026Y-131872811D01*
X178625197Y-131878674D01*
X178624651Y-131885317D01*
X178620565Y-131890584D01*
X177670119Y-132572317D01*
X177662030Y-132574441D01*
X177654589Y-132570621D01*
X177651600Y-132562810D01*
X177651600Y-132335599D01*
X177381227Y-131872811D01*
X177230004Y-131613967D01*
X177228417Y-131607595D01*
X177230513Y-131601370D01*
X177235631Y-131597257D01*
X178014875Y-131274888D01*
X178021635Y-131274226D01*
X178027625Y-131277434D01*
G37*
%TD.AperFunction*%
%TD*%
%TA.AperFunction,Conductor*%
%TO.N,LsideCS*%
G36*
X185145325Y-112495034D02*
G01*
X185730141Y-113080825D01*
X185733309Y-113086676D01*
X185732774Y-113093309D01*
X185728709Y-113098577D01*
X184790048Y-113776210D01*
X184781953Y-113778357D01*
X184774497Y-113774544D01*
X184771500Y-113766724D01*
X184771500Y-113539601D01*
X184771499Y-113539598D01*
X184360166Y-112826337D01*
X184358612Y-112819976D01*
X184360720Y-112813777D01*
X184365825Y-112809682D01*
X185132575Y-112492488D01*
X185139335Y-112491826D01*
X185145325Y-112495034D01*
G37*
%TD.AperFunction*%
%TD*%
%TA.AperFunction,Conductor*%
%TO.N,Net-(Q14-Pad1)*%
G36*
X148190196Y-90805187D02*
G01*
X148195478Y-90808819D01*
X148692683Y-91410288D01*
X148993612Y-91774322D01*
X148996281Y-91782323D01*
X148992877Y-91790040D01*
X148440938Y-92343362D01*
X148434942Y-92346573D01*
X148428172Y-92345906D01*
X147705313Y-92046083D01*
X147699237Y-92040315D01*
X147698575Y-92031964D01*
X148009664Y-90978535D01*
X148012610Y-90973580D01*
X148178190Y-90808000D01*
X148183791Y-90804884D01*
X148190196Y-90805187D01*
G37*
%TD.AperFunction*%
%TD*%
%TA.AperFunction,Conductor*%
%TO.N,OUTPUTLED1*%
G36*
X148951931Y-88633758D02*
G01*
X149892257Y-89493851D01*
X149895566Y-89499122D01*
X149895705Y-89505344D01*
X149892633Y-89510757D01*
X149726831Y-89676559D01*
X149721314Y-89679657D01*
X148693875Y-89928646D01*
X148685821Y-89927707D01*
X148680312Y-89921758D01*
X148578610Y-89676559D01*
X148380292Y-89198425D01*
X148379626Y-89191657D01*
X148382834Y-89185664D01*
X148935773Y-88634107D01*
X148943781Y-88630694D01*
X148951931Y-88633758D01*
G37*
%TD.AperFunction*%
%TD*%
%TA.AperFunction,Conductor*%
%TO.N,Net-(Q2-G)*%
G36*
X208959712Y-59760572D02*
G01*
X209126027Y-59926887D01*
X209129168Y-59932589D01*
X209128775Y-59939087D01*
X208654729Y-61269668D01*
X208651142Y-61274776D01*
X208645439Y-61277312D01*
X208639243Y-61276556D01*
X207915287Y-60977662D01*
X207911479Y-60975120D01*
X207908937Y-60971312D01*
X207610043Y-60247356D01*
X207609287Y-60241160D01*
X207611823Y-60235457D01*
X207616927Y-60231872D01*
X208947516Y-59757823D01*
X208954010Y-59757431D01*
X208959712Y-59760572D01*
G37*
%TD.AperFunction*%
%TD*%
%TA.AperFunction,Conductor*%
%TO.N,/Sheet6152913C/RSCOM2RX*%
G36*
X117763542Y-103487922D02*
G01*
X117767188Y-103492845D01*
X118132847Y-104428431D01*
X118133402Y-104435088D01*
X118130223Y-104440963D01*
X117964263Y-104606923D01*
X117958388Y-104610102D01*
X117951731Y-104609547D01*
X117016145Y-104243888D01*
X117011222Y-104240242D01*
X117008816Y-104234608D01*
X117009586Y-104228533D01*
X117224437Y-103707493D01*
X117226981Y-103703681D01*
X117230794Y-103701137D01*
X117751833Y-103486286D01*
X117757908Y-103485516D01*
X117763542Y-103487922D01*
G37*
%TD.AperFunction*%
%TD*%
%TA.AperFunction,Conductor*%
%TO.N,+5V*%
G36*
X193988484Y-107333023D02*
G01*
X195319070Y-107807071D01*
X195324176Y-107810657D01*
X195326712Y-107816360D01*
X195325956Y-107822556D01*
X195027062Y-108546512D01*
X195024520Y-108550320D01*
X195020712Y-108552862D01*
X194296756Y-108851756D01*
X194290560Y-108852512D01*
X194284857Y-108849976D01*
X194281271Y-108844870D01*
X193807223Y-107514284D01*
X193806831Y-107507789D01*
X193809970Y-107502089D01*
X193976289Y-107335770D01*
X193981989Y-107332631D01*
X193988484Y-107333023D01*
G37*
%TD.AperFunction*%
%TD*%
%TA.AperFunction,Conductor*%
%TO.N,Net-(Q6-Pad1)*%
G36*
X85103376Y-67796979D02*
G01*
X85108655Y-67800664D01*
X86108524Y-69030467D01*
X86111131Y-69038448D01*
X86107719Y-69046120D01*
X85224620Y-69929219D01*
X85216948Y-69932631D01*
X85208967Y-69930024D01*
X83979164Y-68930155D01*
X83975479Y-68924876D01*
X83975144Y-68918447D01*
X83978260Y-68912816D01*
X84534093Y-68355593D01*
X85091316Y-67799760D01*
X85096947Y-67796644D01*
X85103376Y-67796979D01*
G37*
%TD.AperFunction*%
%TD*%
%TA.AperFunction,Conductor*%
%TO.N,SDA*%
G36*
X106195038Y-100393435D02*
G01*
X106924909Y-101797242D01*
X106926091Y-101804422D01*
X106922801Y-101810912D01*
X106395821Y-102337892D01*
X106389599Y-102341138D01*
X106382639Y-102340239D01*
X105129718Y-101761039D01*
X105124039Y-101755397D01*
X105123316Y-101747426D01*
X105375043Y-100796292D01*
X105377273Y-100791907D01*
X105381105Y-100788829D01*
X106179412Y-100388373D01*
X106188262Y-100387701D01*
X106195038Y-100393435D01*
G37*
%TD.AperFunction*%
%TD*%
%TA.AperFunction,Conductor*%
%TO.N,Net-(Q23-D)*%
G36*
X202514744Y-59294440D02*
G01*
X202517800Y-59302325D01*
X202517800Y-59528800D01*
X202832322Y-59722389D01*
X202836590Y-59726996D01*
X202837861Y-59733148D01*
X202835767Y-59739070D01*
X202327916Y-60463192D01*
X202321537Y-60467728D01*
X202313727Y-60467227D01*
X202307979Y-60461915D01*
X202185107Y-60227986D01*
X201927574Y-59737681D01*
X201926514Y-59729693D01*
X201930871Y-59722914D01*
X202499040Y-59292994D01*
X202507172Y-59290674D01*
X202514744Y-59294440D01*
G37*
%TD.AperFunction*%
%TD*%
%TA.AperFunction,Conductor*%
%TO.N,GND*%
G36*
X190023177Y-108551278D02*
G01*
X190027493Y-108556537D01*
X190326636Y-109279709D01*
X190326859Y-109288069D01*
X190321444Y-109294443D01*
X189456427Y-109768162D01*
X189360798Y-109820533D01*
X189360226Y-109820846D01*
X189354606Y-109822284D01*
X189120425Y-109822284D01*
X189114268Y-109820533D01*
X189109954Y-109815804D01*
X189108774Y-109809513D01*
X189223524Y-108560915D01*
X189227284Y-108553347D01*
X189235158Y-108550286D01*
X190016668Y-108549309D01*
X190023177Y-108551278D01*
G37*
%TD.AperFunction*%
%TD*%
%TA.AperFunction,Conductor*%
%TO.N,VPP*%
G36*
X118855845Y-65735687D02*
G01*
X119693816Y-66081738D01*
X119697621Y-66084277D01*
X119700162Y-66088084D01*
X120046341Y-66926055D01*
X120046835Y-66933526D01*
X120042698Y-66939767D01*
X118704100Y-67978030D01*
X118696194Y-67980462D01*
X118688656Y-67977058D01*
X117805223Y-67093610D01*
X117801819Y-67086073D01*
X117804248Y-67078171D01*
X118842134Y-65739332D01*
X118848374Y-65735195D01*
X118855845Y-65735687D01*
G37*
%TD.AperFunction*%
%TD*%
%TA.AperFunction,Conductor*%
%TO.N,Net-(Q6-Pad1)*%
G36*
X92364139Y-72835534D02*
G01*
X93311714Y-73782123D01*
X93314746Y-73787370D01*
X93314746Y-73793430D01*
X93311714Y-73798677D01*
X92364139Y-74745265D01*
X92358528Y-74748382D01*
X92352118Y-74748070D01*
X92006324Y-74631004D01*
X91406947Y-74428090D01*
X91401192Y-74423828D01*
X91399000Y-74417009D01*
X91399000Y-73163791D01*
X91401192Y-73156972D01*
X91406947Y-73152709D01*
X92352120Y-72832728D01*
X92358528Y-72832417D01*
X92364139Y-72835534D01*
G37*
%TD.AperFunction*%
%TD*%
%TA.AperFunction,Conductor*%
%TO.N,GND*%
G36*
X123095724Y-105998788D02*
G01*
X123862470Y-106315981D01*
X123867577Y-106320076D01*
X123869685Y-106326276D01*
X123868131Y-106332637D01*
X123456700Y-107045900D01*
X123456700Y-107273022D01*
X123453703Y-107280842D01*
X123446246Y-107284655D01*
X123438151Y-107282508D01*
X122499588Y-106604876D01*
X122495525Y-106599609D01*
X122494990Y-106592976D01*
X122498157Y-106587126D01*
X123082976Y-106001332D01*
X123088964Y-105998126D01*
X123095724Y-105998788D01*
G37*
%TD.AperFunction*%
%TD*%
%TA.AperFunction,Conductor*%
%TO.N,GND*%
G36*
X185145024Y-99792488D02*
G01*
X185818503Y-100071097D01*
X185911743Y-100109670D01*
X185916856Y-100113773D01*
X185918959Y-100119982D01*
X185917393Y-100126348D01*
X185504000Y-100839600D01*
X185504000Y-101066695D01*
X185501000Y-101074518D01*
X185493539Y-101078329D01*
X185485442Y-101076174D01*
X184548869Y-100398579D01*
X184544812Y-100393312D01*
X184544281Y-100386682D01*
X184547446Y-100380836D01*
X185132276Y-99795032D01*
X185138264Y-99791826D01*
X185145024Y-99792488D01*
G37*
%TD.AperFunction*%
%TD*%
%TA.AperFunction,Conductor*%
%TO.N,GND*%
G36*
X116940255Y-143750811D02*
G01*
X116944572Y-143755683D01*
X117550233Y-145031748D01*
X117551308Y-145037897D01*
X117549069Y-145043723D01*
X117544153Y-145047569D01*
X116820890Y-145348134D01*
X116816400Y-145349030D01*
X116811910Y-145348134D01*
X116088646Y-145047569D01*
X116083730Y-145043723D01*
X116081491Y-145037897D01*
X116082565Y-145031750D01*
X116688228Y-143755682D01*
X116692545Y-143750811D01*
X116698798Y-143749000D01*
X116934002Y-143749000D01*
X116940255Y-143750811D01*
G37*
%TD.AperFunction*%
%TD*%
%TA.AperFunction,Conductor*%
%TO.N,Net-(Q23-D)*%
G36*
X207199455Y-57553142D02*
G01*
X207216139Y-57560031D01*
X207923412Y-57852037D01*
X207927220Y-57854579D01*
X207929762Y-57858387D01*
X208228656Y-58582343D01*
X208229412Y-58588539D01*
X208226876Y-58594242D01*
X208221768Y-58597829D01*
X206891187Y-59071875D01*
X206884689Y-59072268D01*
X206878987Y-59069127D01*
X206712672Y-58902812D01*
X206709531Y-58897110D01*
X206709923Y-58890616D01*
X207183972Y-57560027D01*
X207187557Y-57554923D01*
X207193260Y-57552387D01*
X207199455Y-57553142D01*
G37*
%TD.AperFunction*%
%TD*%
%TA.AperFunction,Conductor*%
%TO.N,/Sheet6152913C/RSCOM2TX*%
G36*
X122246165Y-110232465D02*
G01*
X123080890Y-111067190D01*
X123084029Y-111072883D01*
X123083644Y-111079373D01*
X123079854Y-111084656D01*
X122248494Y-111739142D01*
X122240001Y-111741581D01*
X122232224Y-111737385D01*
X121685222Y-111072883D01*
X121461600Y-110801226D01*
X121458948Y-110793226D01*
X121462360Y-110785519D01*
X121630742Y-110617137D01*
X121632682Y-110615574D01*
X122231569Y-110230893D01*
X122239144Y-110229105D01*
X122246165Y-110232465D01*
G37*
%TD.AperFunction*%
%TD*%
%TA.AperFunction,Conductor*%
%TO.N,Net-(#FLG03-pwr)*%
G36*
X94234622Y-69450732D02*
G01*
X95118667Y-70334777D01*
X95122053Y-70342070D01*
X95119932Y-70349826D01*
X94005834Y-71917946D01*
X94000570Y-71922062D01*
X93993912Y-71922625D01*
X93988032Y-71919452D01*
X93318293Y-71251107D01*
X92649946Y-70581366D01*
X92646774Y-70575487D01*
X92647337Y-70568829D01*
X92651451Y-70563566D01*
X93733693Y-69794669D01*
X93736220Y-69793309D01*
X93838496Y-69753688D01*
X94021354Y-69640467D01*
X94180294Y-69495573D01*
X94208861Y-69457743D01*
X94211415Y-69455263D01*
X94219574Y-69449466D01*
X94227329Y-69447346D01*
X94234622Y-69450732D01*
G37*
%TD.AperFunction*%
%TD*%
%TA.AperFunction,Conductor*%
%TO.N,+5V*%
G36*
X185147262Y-97258951D02*
G01*
X185975981Y-98086696D01*
X185979327Y-98093561D01*
X185977725Y-98101028D01*
X185971857Y-98105916D01*
X185460400Y-98299600D01*
X185460400Y-98531279D01*
X185457883Y-98538529D01*
X185451415Y-98542660D01*
X185443779Y-98541893D01*
X184502913Y-98105626D01*
X184497803Y-98101033D01*
X184496153Y-98094364D01*
X184498530Y-98087920D01*
X185129692Y-97260133D01*
X185134968Y-97256244D01*
X185141510Y-97255803D01*
X185147262Y-97258951D01*
G37*
%TD.AperFunction*%
%TD*%
%TA.AperFunction,Conductor*%
%TO.N,GND*%
G36*
X190148355Y-106952111D02*
G01*
X190152672Y-106956983D01*
X190758333Y-108233048D01*
X190759408Y-108239197D01*
X190757169Y-108245023D01*
X190752253Y-108248869D01*
X190028990Y-108549434D01*
X190024500Y-108550330D01*
X190020010Y-108549434D01*
X189296746Y-108248869D01*
X189291830Y-108245023D01*
X189289591Y-108239197D01*
X189290665Y-108233050D01*
X189896328Y-106956982D01*
X189900645Y-106952111D01*
X189906898Y-106950300D01*
X190142102Y-106950300D01*
X190148355Y-106952111D01*
G37*
%TD.AperFunction*%
%TD*%
%TA.AperFunction,Conductor*%
%TO.N,SDA*%
G36*
X135471327Y-106208538D02*
G01*
X136148296Y-107449588D01*
X136149606Y-107456859D01*
X136146298Y-107463464D01*
X135619864Y-107989898D01*
X135613259Y-107993206D01*
X135605988Y-107991896D01*
X134364938Y-107314927D01*
X134359510Y-107308557D01*
X134359726Y-107300192D01*
X134678439Y-106528380D01*
X134680978Y-106524578D01*
X134684780Y-106522039D01*
X135456592Y-106203326D01*
X135464957Y-106203110D01*
X135471327Y-106208538D01*
G37*
%TD.AperFunction*%
%TD*%
%TA.AperFunction,Conductor*%
%TO.N,LsideCS*%
G36*
X178363167Y-133020804D02*
G01*
X178744309Y-133243476D01*
X179084799Y-133442400D01*
X179084800Y-133442400D01*
X179312010Y-133442400D01*
X179319821Y-133445389D01*
X179323641Y-133452830D01*
X179321517Y-133460919D01*
X178639784Y-134411365D01*
X178634517Y-134415451D01*
X178627874Y-134415997D01*
X178622011Y-134412826D01*
X178026634Y-133818425D01*
X178023426Y-133812435D01*
X178024088Y-133805675D01*
X178346457Y-133026431D01*
X178350570Y-133021313D01*
X178356795Y-133019217D01*
X178363167Y-133020804D01*
G37*
%TD.AperFunction*%
%TD*%
%TA.AperFunction,Conductor*%
%TO.N,GND*%
G36*
X123799612Y-115529872D02*
G01*
X123965927Y-115696187D01*
X123969068Y-115701889D01*
X123968675Y-115708387D01*
X123494629Y-117038968D01*
X123491042Y-117044076D01*
X123485339Y-117046612D01*
X123479143Y-117045856D01*
X122755187Y-116746962D01*
X122751379Y-116744420D01*
X122748837Y-116740612D01*
X122449943Y-116016656D01*
X122449187Y-116010460D01*
X122451723Y-116004757D01*
X122456827Y-116001172D01*
X123787416Y-115527123D01*
X123793910Y-115526731D01*
X123799612Y-115529872D01*
G37*
%TD.AperFunction*%
%TD*%
%TA.AperFunction,Conductor*%
%TO.N,GND*%
G36*
X141654985Y-126279864D02*
G01*
X142307190Y-126550898D01*
X142378253Y-126580430D01*
X142383169Y-126584276D01*
X142385408Y-126590102D01*
X142384333Y-126596251D01*
X141778672Y-127872317D01*
X141774355Y-127877189D01*
X141768102Y-127879000D01*
X141532898Y-127879000D01*
X141526645Y-127877189D01*
X141522328Y-127872317D01*
X140916666Y-126596251D01*
X140915591Y-126590102D01*
X140917830Y-126584276D01*
X140922745Y-126580430D01*
X141646014Y-126279864D01*
X141650500Y-126278969D01*
X141654985Y-126279864D01*
G37*
%TD.AperFunction*%
%TD*%
%TA.AperFunction,Conductor*%
%TO.N,GND*%
G36*
X189356455Y-116349511D02*
G01*
X189360772Y-116354383D01*
X189966433Y-117630448D01*
X189967508Y-117636597D01*
X189965269Y-117642423D01*
X189960353Y-117646269D01*
X189237090Y-117946834D01*
X189232600Y-117947730D01*
X189228110Y-117946834D01*
X188504846Y-117646269D01*
X188499930Y-117642423D01*
X188497691Y-117636597D01*
X188498765Y-117630450D01*
X189104428Y-116354382D01*
X189108745Y-116349511D01*
X189114998Y-116347700D01*
X189350202Y-116347700D01*
X189356455Y-116349511D01*
G37*
%TD.AperFunction*%
%TD*%
%TA.AperFunction,Conductor*%
%TO.N,GND*%
G36*
X219040167Y-84214940D02*
G01*
X219045447Y-84218464D01*
X219190866Y-84388530D01*
X219914016Y-85234243D01*
X219916815Y-85242296D01*
X219913407Y-85250110D01*
X219326238Y-85838662D01*
X219320242Y-85841873D01*
X219313473Y-85841206D01*
X218544351Y-85522220D01*
X218538292Y-85516489D01*
X218537589Y-85508180D01*
X218859617Y-84388528D01*
X218862586Y-84383493D01*
X219028285Y-84217794D01*
X219033823Y-84214693D01*
X219040167Y-84214940D01*
G37*
%TD.AperFunction*%
%TD*%
%TA.AperFunction,Conductor*%
%TO.N,Net-(Q2-G)*%
G36*
X210468984Y-57860611D02*
G01*
X210472668Y-57865422D01*
X210769650Y-58584750D01*
X210770013Y-58592672D01*
X210765241Y-58599006D01*
X210010406Y-59092854D01*
X210002398Y-59094653D01*
X209995179Y-59090749D01*
X209992300Y-59083063D01*
X209992300Y-58854699D01*
X209732142Y-58171375D01*
X209732334Y-58162576D01*
X209738603Y-58156400D01*
X210457382Y-57859074D01*
X210463388Y-57858288D01*
X210468984Y-57860611D01*
G37*
%TD.AperFunction*%
%TD*%
%TA.AperFunction,Conductor*%
%TO.N,Net-(Q14-Pad1)*%
G36*
X147844292Y-68229392D02*
G01*
X148789059Y-69174159D01*
X148792407Y-69181072D01*
X148790746Y-69188572D01*
X148373646Y-69865190D01*
X148371959Y-69867323D01*
X148203472Y-70035810D01*
X148195914Y-70039215D01*
X148187996Y-70036757D01*
X147101358Y-69187866D01*
X147096952Y-69180102D01*
X147099305Y-69171490D01*
X147826763Y-68230509D01*
X147832044Y-68226661D01*
X147838565Y-68226245D01*
X147844292Y-68229392D01*
G37*
%TD.AperFunction*%
%TD*%
M02*
