%TF.GenerationSoftware,KiCad,Pcbnew,7.0.1*%
%TF.CreationDate,2023-07-31T19:52:26-07:00*%
%TF.ProjectId,AMS-Mega2560-Base,414d532d-4d65-4676-9132-3536302d4261,rev?*%
%TF.SameCoordinates,Original*%
%TF.FileFunction,Copper,L2,Inr*%
%TF.FilePolarity,Positive*%
%FSLAX46Y46*%
G04 Gerber Fmt 4.6, Leading zero omitted, Abs format (unit mm)*
G04 Created by KiCad (PCBNEW 7.0.1) date 2023-07-31 19:52:26*
%MOMM*%
%LPD*%
G01*
G04 APERTURE LIST*
%TA.AperFunction,ComponentPad*%
%ADD10C,1.727200*%
%TD*%
%TA.AperFunction,ComponentPad*%
%ADD11O,1.727200X1.727200*%
%TD*%
%TA.AperFunction,ComponentPad*%
%ADD12O,1.727200X2.032000*%
%TD*%
%TA.AperFunction,ComponentPad*%
%ADD13C,4.064000*%
%TD*%
%TA.AperFunction,ComponentPad*%
%ADD14C,1.650000*%
%TD*%
%TA.AperFunction,ComponentPad*%
%ADD15C,1.600000*%
%TD*%
%TA.AperFunction,ComponentPad*%
%ADD16O,1.600000X1.600000*%
%TD*%
%TA.AperFunction,ComponentPad*%
%ADD17R,1.050000X1.500000*%
%TD*%
%TA.AperFunction,ComponentPad*%
%ADD18O,1.050000X1.500000*%
%TD*%
%TA.AperFunction,ComponentPad*%
%ADD19R,1.920000X1.920000*%
%TD*%
%TA.AperFunction,ComponentPad*%
%ADD20C,1.920000*%
%TD*%
%TA.AperFunction,ComponentPad*%
%ADD21R,1.700000X1.700000*%
%TD*%
%TA.AperFunction,ComponentPad*%
%ADD22O,1.700000X1.700000*%
%TD*%
%TA.AperFunction,ComponentPad*%
%ADD23R,1.150000X1.150000*%
%TD*%
%TA.AperFunction,ComponentPad*%
%ADD24C,1.150000*%
%TD*%
%TA.AperFunction,ComponentPad*%
%ADD25R,2.600000X2.600000*%
%TD*%
%TA.AperFunction,ComponentPad*%
%ADD26C,2.600000*%
%TD*%
%TA.AperFunction,ComponentPad*%
%ADD27R,1.600000X1.600000*%
%TD*%
%TA.AperFunction,ComponentPad*%
%ADD28R,1.160000X1.160000*%
%TD*%
%TA.AperFunction,ComponentPad*%
%ADD29C,1.160000*%
%TD*%
%TA.AperFunction,ComponentPad*%
%ADD30C,2.360000*%
%TD*%
%TA.AperFunction,ComponentPad*%
%ADD31R,1.200000X1.200000*%
%TD*%
%TA.AperFunction,ComponentPad*%
%ADD32C,1.200000*%
%TD*%
%TA.AperFunction,ComponentPad*%
%ADD33C,1.500000*%
%TD*%
%TA.AperFunction,ViaPad*%
%ADD34C,0.600000*%
%TD*%
%TA.AperFunction,ViaPad*%
%ADD35C,0.762000*%
%TD*%
%TA.AperFunction,Conductor*%
%ADD36C,0.250000*%
%TD*%
%TA.AperFunction,Conductor*%
%ADD37C,0.508000*%
%TD*%
%TA.AperFunction,Conductor*%
%ADD38C,0.762000*%
%TD*%
G04 APERTURE END LIST*
D10*
%TO.N,GND*%
%TO.C,P4*%
X178021100Y-143971900D03*
D11*
X180561100Y-143971900D03*
%TO.N,SCLK*%
X178021100Y-141431900D03*
%TO.N,unconnected-(P4-Pin_4-Pad4)*%
X180561100Y-141431900D03*
%TO.N,MISO*%
X178021100Y-138891900D03*
%TO.N,MOSI*%
X180561100Y-138891900D03*
%TO.N,WaterCS*%
X178021100Y-136351900D03*
%TO.N,Logging*%
X180561100Y-136351900D03*
%TO.N,LsideCS*%
X178021100Y-133811900D03*
%TO.N,IN3TTL*%
X180561100Y-133811900D03*
%TO.N,RsideCS*%
X178021100Y-131271900D03*
%TO.N,OUTPUTLED2*%
X180561100Y-131271900D03*
%TO.N,FrontCS*%
X178021100Y-128731900D03*
%TO.N,OUTPUTLED1*%
X180561100Y-128731900D03*
%TO.N,AmbientCS*%
X178021100Y-126191900D03*
%TO.N,unconnected-(P4-Pin_16-Pad16)*%
X180561100Y-126191900D03*
%TO.N,CarbCS*%
X178021100Y-123651900D03*
%TO.N,unconnected-(P4-Pin_18-Pad18)*%
X180561100Y-123651900D03*
%TO.N,SDCS*%
X178021100Y-121111900D03*
%TO.N,unconnected-(P4-Pin_20-Pad20)*%
X180561100Y-121111900D03*
%TO.N,SDDetect*%
X178021100Y-118571900D03*
%TO.N,unconnected-(P4-Pin_22-Pad22)*%
X180561100Y-118571900D03*
%TO.N,CANCS*%
X178021100Y-116031900D03*
%TO.N,unconnected-(P4-Pin_24-Pad24)*%
X180561100Y-116031900D03*
%TO.N,CAN_TX_STBY*%
X178021100Y-113491900D03*
%TO.N,unconnected-(P4-Pin_26-Pad26)*%
X180561100Y-113491900D03*
%TO.N,CAN_INT*%
X178021100Y-110951900D03*
%TO.N,unconnected-(P4-Pin_28-Pad28)*%
X180561100Y-110951900D03*
%TO.N,unconnected-(P4-Pin_29-Pad29)*%
X178021100Y-108411900D03*
%TO.N,SWSCLK*%
X180561100Y-108411900D03*
%TO.N,unconnected-(P4-Pin_31-Pad31)*%
X178021100Y-105871900D03*
%TO.N,SWMISO*%
X180561100Y-105871900D03*
%TO.N,unconnected-(P4-Pin_33-Pad33)*%
X178021100Y-103331900D03*
%TO.N,SWMOSI*%
X180561100Y-103331900D03*
%TO.N,unconnected-(P4-Pin_35-Pad35)*%
X178021100Y-100791900D03*
%TO.N,unconnected-(P4-Pin_36-Pad36)*%
X180561100Y-100791900D03*
%TD*%
D12*
%TO.N,unconnected-(P1-Pin_1-Pad1)*%
%TO.C,P1*%
X111981100Y-149051900D03*
%TO.N,unconnected-(P1-Pin_2-Pad2)*%
X114521100Y-149051900D03*
%TO.N,unconnected-(P1-Pin_3-Pad3)*%
X117061100Y-149051900D03*
%TO.N,unconnected-(P1-Pin_4-Pad4)*%
X119601100Y-149051900D03*
%TO.N,+5V*%
X122141100Y-149051900D03*
%TO.N,GND*%
X124681100Y-149051900D03*
X127221100Y-149051900D03*
%TO.N,unconnected-(P1-Pin_8-Pad8)*%
X129761100Y-149051900D03*
%TD*%
%TO.N,VoltageSensor*%
%TO.C,P2*%
X134841100Y-149051900D03*
%TO.N,GPSBat*%
X137381100Y-149051900D03*
%TO.N,FuelPressure1*%
X139921100Y-149051900D03*
%TO.N,FuelPressure2*%
X142461100Y-149051900D03*
%TO.N,FuelPressure3*%
X145001100Y-149051900D03*
%TO.N,OilPressure*%
X147541100Y-149051900D03*
%TO.N,SpareADC1*%
X150081100Y-149051900D03*
%TO.N,SpareADC2*%
X152621100Y-149051900D03*
%TD*%
%TO.N,SpareADC3*%
%TO.C,P3*%
X157701100Y-149051900D03*
%TO.N,Sense1-1*%
X160241100Y-149051900D03*
%TO.N,unconnected-(P3-Pin_3-Pad3)*%
X162781100Y-149051900D03*
%TO.N,unconnected-(P3-Pin_4-Pad4)*%
X165321100Y-149051900D03*
%TO.N,unconnected-(P3-Pin_5-Pad5)*%
X167861100Y-149051900D03*
%TO.N,unconnected-(P3-Pin_6-Pad6)*%
X170401100Y-149051900D03*
%TO.N,unconnected-(P3-Pin_7-Pad7)*%
X172941100Y-149051900D03*
%TO.N,unconnected-(P3-Pin_8-Pad8)*%
X175481100Y-149051900D03*
%TD*%
%TO.N,SCL*%
%TO.C,P5*%
X102837100Y-100791900D03*
%TO.N,SDA*%
X105377100Y-100791900D03*
%TO.N,unconnected-(P5-Pin_3-Pad3)*%
X107917100Y-100791900D03*
%TO.N,GND*%
X110457100Y-100791900D03*
%TO.N,unconnected-(P5-Pin_5-Pad5)*%
X112997100Y-100791900D03*
%TO.N,unconnected-(P5-Pin_6-Pad6)*%
X115537100Y-100791900D03*
%TO.N,unconnected-(P5-Pin_7-Pad7)*%
X118077100Y-100791900D03*
%TO.N,unconnected-(P5-Pin_8-Pad8)*%
X120617100Y-100791900D03*
%TO.N,unconnected-(P5-Pin_9-Pad9)*%
X123157100Y-100791900D03*
%TO.N,OUTPUTSiren*%
X125697100Y-100791900D03*
%TD*%
%TO.N,OUTPUT4*%
%TO.C,P6*%
X129761100Y-100791900D03*
%TO.N,OUTPUT3*%
X132301100Y-100791900D03*
%TO.N,OUTPUT2*%
X134841100Y-100791900D03*
%TO.N,OUTPUT1*%
X137381100Y-100791900D03*
%TO.N,IN2TTL*%
X139921100Y-100791900D03*
%TO.N,IN1TTL*%
X142461100Y-100791900D03*
%TO.N,unconnected-(P6-Pin_7-Pad7)*%
X145001100Y-100791900D03*
%TO.N,unconnected-(P6-Pin_8-Pad8)*%
X147541100Y-100791900D03*
%TD*%
%TO.N,GPSRX*%
%TO.C,P7*%
X152621100Y-100791900D03*
%TO.N,GPSTX*%
X155161100Y-100791900D03*
%TO.N,Com1TX*%
X157701100Y-100791900D03*
%TO.N,Com1RX*%
X160241100Y-100791900D03*
%TO.N,Com2TX*%
X162781100Y-100791900D03*
%TO.N,Com2RX*%
X165321100Y-100791900D03*
%TO.N,SDA*%
X167861100Y-100791900D03*
%TO.N,SCL*%
X170401100Y-100791900D03*
%TD*%
D13*
%TO.N,unconnected-(P8-Pin_1-Pad1)*%
%TO.C,P8*%
X98011100Y-149051900D03*
%TD*%
%TO.N,unconnected-(P9-Pin_1-Pad1)*%
%TO.C,P9*%
X150081100Y-143971900D03*
%TD*%
%TO.N,unconnected-(P10-Pin_1-Pad1)*%
%TO.C,P10*%
X180561100Y-149051900D03*
%TD*%
%TO.N,unconnected-(P11-Pin_1-Pad1)*%
%TO.C,P11*%
X99281100Y-100791900D03*
%TD*%
%TO.N,unconnected-(P12-Pin_1-Pad1)*%
%TO.C,P12*%
X150081100Y-116031900D03*
%TD*%
%TO.N,unconnected-(P13-Pin_1-Pad1)*%
%TO.C,P13*%
X174211100Y-100791900D03*
%TD*%
D14*
%TO.N,Sense1-1*%
%TO.C,J4*%
X181080800Y-79145100D03*
%TO.N,Sense1-2*%
X177270800Y-79145100D03*
%TO.N,Sense1-3*%
X173460800Y-79145100D03*
%TO.N,Sense1-4*%
X169650800Y-79145100D03*
%TO.N,Sense1-5*%
X182980800Y-71525100D03*
%TO.N,Sense1-6*%
X179170800Y-71525100D03*
%TO.N,Sense1-7*%
X175360800Y-71525100D03*
%TO.N,Sense1-8*%
X171550800Y-71525100D03*
%TO.N,Sense1-9*%
X181080800Y-60095100D03*
%TO.N,Sense1-10*%
X177270800Y-60095100D03*
%TO.N,Sense1-11*%
X173460800Y-60095100D03*
%TO.N,Sense1-12*%
X169650800Y-60095100D03*
%TD*%
%TO.N,Sense2-1*%
%TO.C,J5*%
X165836500Y-79145100D03*
%TO.N,Sense2-2*%
X162026500Y-79145100D03*
%TO.N,Sense2-3*%
X158216500Y-79145100D03*
%TO.N,Sense2-4*%
X154406500Y-79145100D03*
%TO.N,Sense2-5*%
X167736500Y-71525100D03*
%TO.N,Sense2-6*%
X163926500Y-71525100D03*
%TO.N,Sense2-7*%
X160116500Y-71525100D03*
%TO.N,Sense2-8*%
X156306500Y-71525100D03*
%TO.N,Sense2-9*%
X165836500Y-60095100D03*
%TO.N,Sense2-10*%
X162026500Y-60095100D03*
%TO.N,Sense2-11*%
X158216500Y-60095100D03*
%TO.N,Sense2-12*%
X154406500Y-60095100D03*
%TD*%
D15*
%TO.N,Net-(Q2-D)*%
%TO.C,R31*%
X197062500Y-61155500D03*
D16*
%TO.N,Net-(Q21-CATHODE_2)*%
X199602500Y-61155500D03*
%TD*%
D17*
%TO.N,GND*%
%TO.C,Q8*%
X145869300Y-85561400D03*
D18*
%TO.N,OUTPUTLED1*%
X147139300Y-85561400D03*
%TO.N,Net-(Q8-D)*%
X148409300Y-85561400D03*
%TD*%
D15*
%TO.N,+VDC*%
%TO.C,R43*%
X153587000Y-87436700D03*
D16*
%TO.N,Net-(Q10-Pad1)*%
X151047000Y-87436700D03*
%TD*%
D17*
%TO.N,GND*%
%TO.C,Q16*%
X159603700Y-85255900D03*
D18*
%TO.N,OUTPUTSiren*%
X160873700Y-85255900D03*
%TO.N,Net-(Q16-D)*%
X162143700Y-85255900D03*
%TD*%
D19*
%TO.N,Net-(Q13-Pad1)*%
%TO.C,Q13*%
X137948300Y-74690000D03*
D20*
%TO.N,Sense2-9*%
X137948300Y-77230000D03*
%TO.N,+VDC*%
X137948300Y-79770000D03*
%TD*%
D15*
%TO.N,Net-(J10-Pin_2)*%
%TO.C,R63*%
X174000700Y-94237500D03*
D16*
%TO.N,Sense1-5*%
X176540700Y-94237500D03*
%TD*%
D15*
%TO.N,GND*%
%TO.C,R24*%
X141650500Y-121671700D03*
D16*
%TO.N,SpareADC2*%
X139110500Y-121671700D03*
%TD*%
D15*
%TO.N,Net-(Q18-Pad1)*%
%TO.C,R56*%
X165174600Y-87090400D03*
D16*
%TO.N,Net-(Q16-D)*%
X167714600Y-87090400D03*
%TD*%
D19*
%TO.N,Net-(Q6-Pad1)*%
%TO.C,Q6*%
X93319000Y-73790400D03*
D20*
%TO.N,Net-(#FLG03-pwr)*%
X93319000Y-71250400D03*
%TO.N,Net-(#FLG0103-pwr)*%
X93319000Y-68710400D03*
%TD*%
D15*
%TO.N,Net-(Q20-Pad1)*%
%TO.C,R59*%
X132753300Y-52337500D03*
D16*
%TO.N,Net-(Q19-D)*%
X130213300Y-52337500D03*
%TD*%
D15*
%TO.N,GND*%
%TO.C,R12*%
X122751400Y-121680200D03*
D16*
%TO.N,Sense1-3*%
X125291400Y-121680200D03*
%TD*%
D15*
%TO.N,Net-(Q13-Pad1)*%
%TO.C,R48*%
X132330700Y-77430500D03*
D16*
%TO.N,Net-(Q11-D)*%
X132330700Y-79970500D03*
%TD*%
D15*
%TO.N,GND*%
%TO.C,R26*%
X141650500Y-130872700D03*
D16*
%TO.N,Sense2-7*%
X139110500Y-130872700D03*
%TD*%
D15*
%TO.N,+VDC*%
%TO.C,R41*%
X132040600Y-58566000D03*
D16*
%TO.N,Net-(Q9-Pad1)*%
X134580600Y-58566000D03*
%TD*%
D15*
%TO.N,+5V*%
%TO.C,R65*%
X207963000Y-121755900D03*
D16*
%TO.N,/CAN Bus/CAN_INT*%
X210503000Y-121755900D03*
%TD*%
D15*
%TO.N,Net-(Q6-Pad1)*%
%TO.C,R21*%
X84534800Y-68356300D03*
D16*
%TO.N,GND*%
X84534800Y-65816300D03*
%TD*%
D15*
%TO.N,GND*%
%TO.C,R22*%
X122751400Y-131190900D03*
D16*
%TO.N,SpareADC1*%
X125291400Y-131190900D03*
%TD*%
D21*
%TO.N,+5V*%
%TO.C,T3*%
X185205600Y-133341400D03*
D22*
%TO.N,GND*%
X185205600Y-135881400D03*
%TO.N,unconnected-(T3-Pin_3-Pad3)*%
X185205600Y-138421400D03*
%TO.N,RTDSCLK*%
X185205600Y-140961400D03*
%TO.N,RTDMISO*%
X185205600Y-143501400D03*
%TO.N,RTDMOSI*%
X185205600Y-146041400D03*
%TO.N,RsideCS*%
X185205600Y-148581400D03*
%TO.N,unconnected-(T3-Pin_8-Pad8)*%
X185205600Y-151121400D03*
%TD*%
D15*
%TO.N,+VDC*%
%TO.C,R58*%
X130663300Y-55452600D03*
D16*
%TO.N,Net-(Q20-Pad1)*%
X133203300Y-55452600D03*
%TD*%
D21*
%TO.N,/Sheet6152913C/RSCOM2TX*%
%TO.C,J9*%
X123089500Y-111075800D03*
D22*
%TO.N,/Sheet6152913C/RSCOM2RX*%
X123089500Y-108535800D03*
%TO.N,GND*%
X123089500Y-105995800D03*
%TD*%
D15*
%TO.N,Net-(Q24-D)*%
%TO.C,R11*%
X207680200Y-67007700D03*
D16*
%TO.N,Net-(Q3-G)*%
X210220200Y-67007700D03*
%TD*%
D15*
%TO.N,GND*%
%TO.C,R19*%
X122751400Y-116744400D03*
D16*
%TO.N,OilPressure*%
X125291400Y-116744400D03*
%TD*%
D17*
%TO.N,GND*%
%TO.C,Q15*%
X124980900Y-91002600D03*
D18*
%TO.N,OUTPUT4*%
X126250900Y-91002600D03*
%TO.N,Net-(Q15-D)*%
X127520900Y-91002600D03*
%TD*%
D23*
%TO.N,+VDC*%
%TO.C,Z9*%
X84521500Y-77164000D03*
D24*
%TO.N,Net-(Q22-Pad1)*%
X84521500Y-87864000D03*
%TD*%
D25*
%TO.N,Net-(#FLG03-pwr)*%
%TO.C,J21*%
X96112600Y-58096800D03*
D26*
%TO.N,GND*%
X91032600Y-58096800D03*
%TO.N,PowerOn*%
X85952600Y-58096800D03*
%TD*%
D15*
%TO.N,GND*%
%TO.C,R64*%
X199595500Y-102214500D03*
D16*
%TO.N,CAN_TX_STBY*%
X202135500Y-102214500D03*
%TD*%
D21*
%TO.N,+5V*%
%TO.C,T4*%
X204282700Y-133341400D03*
D22*
%TO.N,GND*%
X204282700Y-135881400D03*
%TO.N,unconnected-(T4-Pin_3-Pad3)*%
X204282700Y-138421400D03*
%TO.N,RTDSCLK*%
X204282700Y-140961400D03*
%TO.N,RTDMISO*%
X204282700Y-143501400D03*
%TO.N,RTDMOSI*%
X204282700Y-146041400D03*
%TO.N,FrontCS*%
X204282700Y-148581400D03*
%TO.N,unconnected-(T4-Pin_8-Pad8)*%
X204282700Y-151121400D03*
%TD*%
D15*
%TO.N,OUTPUTLED2*%
%TO.C,R46*%
X139912900Y-96025600D03*
D16*
%TO.N,GND*%
X137372900Y-96025600D03*
%TD*%
D15*
%TO.N,Net-(Q25-G)*%
%TO.C,R34*%
X196570900Y-76078200D03*
D16*
%TO.N,GND*%
X199110900Y-76078200D03*
%TD*%
D15*
%TO.N,Sense1-7*%
%TO.C,C5*%
X190771500Y-62155500D03*
%TO.N,GND*%
X190771500Y-57155500D03*
%TD*%
%TO.N,+5V*%
%TO.C,R36*%
X163218700Y-113941500D03*
D16*
%TO.N,SCL*%
X165758700Y-113941500D03*
%TD*%
D17*
%TO.N,GND*%
%TO.C,Q19*%
X123281600Y-54920500D03*
D18*
%TO.N,OUTPUT1*%
X124551600Y-54920500D03*
%TO.N,Net-(Q19-D)*%
X125821600Y-54920500D03*
%TD*%
D21*
%TO.N,unconnected-(J6-Pin_1-Pad1)*%
%TO.C,J6*%
X93896800Y-105925600D03*
D22*
%TO.N,unconnected-(J6-Pin_2-Pad2)*%
X91356800Y-105925600D03*
%TO.N,GPSBat*%
X88816800Y-105925600D03*
%TO.N,unconnected-(J6-Pin_4-Pad4)*%
X86276800Y-105925600D03*
%TO.N,GPSTX*%
X83736800Y-105925600D03*
%TO.N,GPSRX*%
X81196800Y-105925600D03*
%TO.N,GND*%
X78656800Y-105925600D03*
%TO.N,+5V*%
X76116800Y-105925600D03*
%TO.N,unconnected-(J6-Pin_9-Pad9)*%
X73576800Y-105925600D03*
%TD*%
D15*
%TO.N,Net-(Q28-D)*%
%TO.C,R5*%
X204438900Y-49635500D03*
D16*
%TO.N,Net-(Q1-G)*%
X206978900Y-49635500D03*
%TD*%
D19*
%TO.N,Net-(Q20-Pad1)*%
%TO.C,Q20*%
X137948300Y-51591400D03*
D20*
%TO.N,Sense2-3*%
X137948300Y-54131400D03*
%TO.N,+VDC*%
X137948300Y-56671400D03*
%TD*%
D15*
%TO.N,GND*%
%TO.C,R2*%
X99906600Y-135387200D03*
D16*
%TO.N,Sense1-12*%
X102446600Y-135387200D03*
%TD*%
D23*
%TO.N,+VDC*%
%TO.C,Z5*%
X124379600Y-85479800D03*
D24*
%TO.N,Net-(Q17-Pad1)*%
X135079600Y-85479800D03*
%TD*%
D15*
%TO.N,+VDC*%
%TO.C,R49*%
X150974700Y-92348200D03*
D16*
%TO.N,Net-(Q14-Pad1)*%
X148434700Y-92348200D03*
%TD*%
D15*
%TO.N,+5V*%
%TO.C,R1*%
X215437900Y-94386400D03*
D16*
%TO.N,SDDetect*%
X215437900Y-91846400D03*
%TD*%
D17*
%TO.N,GND*%
%TO.C,Q12*%
X143217100Y-93590800D03*
D18*
%TO.N,OUTPUTLED2*%
X144487100Y-93590800D03*
%TO.N,Net-(Q12-D)*%
X145757100Y-93590800D03*
%TD*%
D27*
%TO.N,GND*%
%TO.C,C39*%
X105777600Y-104378800D03*
D15*
%TO.N,Net-(#FLG0105-pwr)*%
X105777600Y-106878800D03*
%TD*%
D17*
%TO.N,GND*%
%TO.C,Q2*%
X213092300Y-59757100D03*
D18*
%TO.N,Net-(Q2-G)*%
X214362300Y-59757100D03*
%TO.N,Net-(Q2-D)*%
X215632300Y-59757100D03*
%TD*%
D17*
%TO.N,Net-(Q25-D)*%
%TO.C,Q25*%
X201732600Y-77886500D03*
D18*
%TO.N,Net-(Q25-G)*%
X203002600Y-77886500D03*
%TO.N,Sense2-1*%
X204272600Y-77886500D03*
%TD*%
D27*
%TO.N,Net-(#FLG0106-pwr)*%
%TO.C,C40*%
X101718200Y-117243200D03*
D15*
%TO.N,+5V*%
X101718200Y-119743200D03*
%TD*%
%TO.N,+VDC*%
%TO.C,R47*%
X132450100Y-70105300D03*
D16*
%TO.N,Net-(Q13-Pad1)*%
X134990100Y-70105300D03*
%TD*%
D21*
%TO.N,SWMOSI*%
%TO.C,J8*%
X229872200Y-121547800D03*
D22*
%TO.N,RTDMOSI*%
X229872200Y-124087800D03*
%TO.N,MOSI*%
X229872200Y-126627800D03*
%TD*%
D15*
%TO.N,Net-(IC3-OSC2)*%
%TO.C,C11*%
X189232600Y-122947700D03*
%TO.N,GND*%
X189232600Y-117947700D03*
%TD*%
%TO.N,Net-(Q9-Pad1)*%
%TO.C,R42*%
X132887300Y-64171300D03*
D16*
%TO.N,Net-(Q7-D)*%
X130347300Y-64171300D03*
%TD*%
D15*
%TO.N,GND*%
%TO.C,R18*%
X122751400Y-126260600D03*
D16*
%TO.N,Sense2-10*%
X125291400Y-126260600D03*
%TD*%
D19*
%TO.N,Net-(Q17-Pad1)*%
%TO.C,Q17*%
X137948300Y-86239200D03*
D20*
%TO.N,Sense2-12*%
X137948300Y-88779200D03*
%TO.N,+VDC*%
X137948300Y-91319200D03*
%TD*%
D15*
%TO.N,GND*%
%TO.C,R69*%
X116816400Y-145349000D03*
D16*
%TO.N,FuelPressure3*%
X114276400Y-145349000D03*
%TD*%
D17*
%TO.N,Net-(Q28-D)*%
%TO.C,Q28*%
X198434900Y-53868800D03*
D18*
%TO.N,Net-(Q28-G)*%
X199704900Y-53868800D03*
%TO.N,Sense1-10*%
X200974900Y-53868800D03*
%TD*%
D17*
%TO.N,GND*%
%TO.C,Q11*%
X124175200Y-77430200D03*
D18*
%TO.N,OUTPUT3*%
X125445200Y-77430200D03*
%TO.N,Net-(Q11-D)*%
X126715200Y-77430200D03*
%TD*%
D15*
%TO.N,GND*%
%TO.C,R20*%
X116672700Y-140684700D03*
D16*
%TO.N,Sense1-6*%
X114132700Y-140684700D03*
%TD*%
D15*
%TO.N,OUTPUT3*%
%TO.C,R45*%
X126348800Y-82222500D03*
D16*
%TO.N,GND*%
X123808800Y-82222500D03*
%TD*%
D15*
%TO.N,+VDC*%
%TO.C,R28*%
X96867100Y-83431200D03*
D16*
%TO.N,Net-(Q22-Pad1)*%
X99407100Y-83431200D03*
%TD*%
D15*
%TO.N,Net-(Q28-G)*%
%TO.C,R67*%
X193167700Y-49742800D03*
D16*
%TO.N,GND*%
X195707700Y-49742800D03*
%TD*%
D19*
%TO.N,Net-(Q22-Pad1)*%
%TO.C,Q22*%
X93303400Y-85000200D03*
D20*
%TO.N,VPP*%
X93303400Y-82460200D03*
%TO.N,+VDC*%
X93303400Y-79920200D03*
%TD*%
D21*
%TO.N,Sense1-2*%
%TO.C,J10*%
X174115600Y-87855000D03*
D22*
%TO.N,Net-(J10-Pin_2)*%
X174115600Y-90395000D03*
%TD*%
D15*
%TO.N,VPP*%
%TO.C,R16*%
X114737400Y-133063100D03*
D16*
%TO.N,/BufferedADC1/ADCIN4*%
X117277400Y-133063100D03*
%TD*%
D21*
%TO.N,+5V*%
%TO.C,J3*%
X226581200Y-111690700D03*
D22*
%TO.N,unconnected-(J3-Pin_2-Pad2)*%
X226581200Y-109150700D03*
%TO.N,GND*%
X226581200Y-106610700D03*
%TO.N,SCLK*%
X226581200Y-104070700D03*
%TO.N,MISO*%
X226581200Y-101530700D03*
%TO.N,MOSI*%
X226581200Y-98990700D03*
%TO.N,SDCS*%
X226581200Y-96450700D03*
%TO.N,SDDetect*%
X226581200Y-93910700D03*
%TD*%
D15*
%TO.N,GND*%
%TO.C,R23*%
X141650500Y-117151100D03*
D16*
%TO.N,SpareADC3*%
X139110500Y-117151100D03*
%TD*%
D21*
%TO.N,+5V*%
%TO.C,T2*%
X185138800Y-97249500D03*
D22*
%TO.N,GND*%
X185138800Y-99789500D03*
%TO.N,unconnected-(T2-Pin_3-Pad3)*%
X185138800Y-102329500D03*
%TO.N,RTDSCLK*%
X185138800Y-104869500D03*
%TO.N,RTDMISO*%
X185138800Y-107409500D03*
%TO.N,RTDMOSI*%
X185138800Y-109949500D03*
%TO.N,LsideCS*%
X185138800Y-112489500D03*
%TO.N,unconnected-(T2-Pin_8-Pad8)*%
X185138800Y-115029500D03*
%TD*%
D15*
%TO.N,Net-(Q22-Pad1)*%
%TO.C,R29*%
X96850700Y-86549200D03*
D16*
%TO.N,Net-(Q5-D)*%
X99390700Y-86549200D03*
%TD*%
D28*
%TO.N,Net-(IC17-C1+)*%
%TO.C,IC17*%
X117227000Y-121483700D03*
D29*
%TO.N,Net-(#FLG0106-pwr)*%
X117227000Y-118943700D03*
%TO.N,Net-(IC17-C1-)*%
X117227000Y-116403700D03*
%TO.N,Net-(IC17-C2+)*%
X117227000Y-113863700D03*
%TO.N,Net-(IC17-C2-)*%
X117227000Y-111323700D03*
%TO.N,Net-(#FLG0105-pwr)*%
X117227000Y-108783700D03*
%TO.N,/Sheet6152913C/RSCOM2TX*%
X117227000Y-106243700D03*
%TO.N,/Sheet6152913C/RSCOM2RX*%
X117227000Y-103703700D03*
%TO.N,Com2RX*%
X109607000Y-103703700D03*
%TO.N,Com2TX*%
X109607000Y-106243700D03*
%TO.N,Com1TX*%
X109607000Y-108783700D03*
%TO.N,Com1RX*%
X109607000Y-111323700D03*
%TO.N,Sense1-8*%
X109607000Y-113863700D03*
%TO.N,Sense1-11*%
X109607000Y-116403700D03*
%TO.N,GND*%
X109607000Y-118943700D03*
%TO.N,+5V*%
X109607000Y-121483700D03*
%TD*%
D15*
%TO.N,GND*%
%TO.C,R4*%
X116863700Y-136197100D03*
D16*
%TO.N,/BufferedADC1/ADCIN4*%
X114323700Y-136197100D03*
%TD*%
D15*
%TO.N,Net-(Q1-G)*%
%TO.C,R8*%
X204190800Y-54281900D03*
D16*
%TO.N,GND*%
X206730800Y-54281900D03*
%TD*%
D17*
%TO.N,GND*%
%TO.C,Q3*%
X212897400Y-68857200D03*
D18*
%TO.N,Net-(Q3-G)*%
X214167400Y-68857200D03*
%TO.N,Net-(Q3-D)*%
X215437400Y-68857200D03*
%TD*%
D23*
%TO.N,+VDC*%
%TO.C,Z1*%
X124469800Y-61361800D03*
D24*
%TO.N,Net-(Q9-Pad1)*%
X135169800Y-61361800D03*
%TD*%
D15*
%TO.N,Net-(Q14-Pad1)*%
%TO.C,R50*%
X148881600Y-95455700D03*
D16*
%TO.N,Net-(Q12-D)*%
X151421600Y-95455700D03*
%TD*%
D27*
%TO.N,Net-(IC17-C2+)*%
%TO.C,C38*%
X101718200Y-111166200D03*
D15*
%TO.N,Net-(IC17-C2-)*%
X101718200Y-108666200D03*
%TD*%
D23*
%TO.N,+VDC*%
%TO.C,Z7*%
X124403000Y-49296100D03*
D24*
%TO.N,Net-(Q20-Pad1)*%
X135103000Y-49296100D03*
%TD*%
D23*
%TO.N,+VDC*%
%TO.C,Z3*%
X124430900Y-72953300D03*
D24*
%TO.N,Net-(Q13-Pad1)*%
X135130900Y-72953300D03*
%TD*%
D30*
%TO.N,Net-(#FLG0103-pwr)*%
%TO.C,U1*%
X78250100Y-64100700D03*
%TO.N,+VDC*%
X78250100Y-86700700D03*
%TD*%
D21*
%TO.N,/CAN Bus/CAN_INT*%
%TO.C,J11*%
X213845000Y-122132000D03*
D22*
%TO.N,CAN_INT*%
X213845000Y-124672000D03*
%TD*%
D17*
%TO.N,GND*%
%TO.C,Q7*%
X124895600Y-65590600D03*
D18*
%TO.N,OUTPUT2*%
X126165600Y-65590600D03*
%TO.N,Net-(Q7-D)*%
X127435600Y-65590600D03*
%TD*%
D15*
%TO.N,/CAN Bus/CAN_INT*%
%TO.C,R66*%
X207963000Y-125805900D03*
D16*
%TO.N,GND*%
X210503000Y-125805900D03*
%TD*%
D15*
%TO.N,Net-(Q25-D)*%
%TO.C,R14*%
X207461300Y-76295800D03*
D16*
%TO.N,Net-(Q4-G)*%
X210001300Y-76295800D03*
%TD*%
D15*
%TO.N,Net-(Q4-G)*%
%TO.C,R15*%
X207438700Y-79453500D03*
D16*
%TO.N,GND*%
X209978700Y-79453500D03*
%TD*%
D15*
%TO.N,Net-(Q23-G)*%
%TO.C,R30*%
X197077800Y-58031600D03*
D16*
%TO.N,GND*%
X199617800Y-58031600D03*
%TD*%
D21*
%TO.N,+5V*%
%TO.C,T1*%
X190610600Y-85780400D03*
D22*
%TO.N,GND*%
X193150600Y-85780400D03*
%TO.N,unconnected-(T1-Pin_3-Pad3)*%
X195690600Y-85780400D03*
%TO.N,RTDSCLK*%
X198230600Y-85780400D03*
%TO.N,RTDMISO*%
X200770600Y-85780400D03*
%TO.N,RTDMOSI*%
X203310600Y-85780400D03*
%TO.N,WaterCS*%
X205850600Y-85780400D03*
%TO.N,unconnected-(T1-Pin_8-Pad8)*%
X208390600Y-85780400D03*
%TD*%
D21*
%TO.N,SWSCLK*%
%TO.C,J1*%
X234522200Y-121547800D03*
D22*
%TO.N,RTDSCLK*%
X234522200Y-124087800D03*
%TO.N,SCLK*%
X234522200Y-126627800D03*
%TD*%
D21*
%TO.N,unconnected-(J12-Pin_1-Pad1)*%
%TO.C,J12*%
X142301000Y-106524600D03*
D22*
%TO.N,unconnected-(J12-Pin_2-Pad2)*%
X139761000Y-106524600D03*
%TO.N,SCL*%
X137221000Y-106524600D03*
%TO.N,SDA*%
X134681000Y-106524600D03*
%TO.N,+5V*%
X132141000Y-106524600D03*
%TO.N,GND*%
X129601000Y-106524600D03*
%TD*%
D15*
%TO.N,Net-(Q24-G)*%
%TO.C,R32*%
X196780800Y-67008000D03*
D16*
%TO.N,GND*%
X199320800Y-67008000D03*
%TD*%
D19*
%TO.N,Net-(Q14-Pad1)*%
%TO.C,Q14*%
X147835600Y-68220700D03*
D20*
%TO.N,Sense2-8*%
X147835600Y-65680700D03*
%TO.N,+VDC*%
X147835600Y-63140700D03*
%TD*%
D15*
%TO.N,+5V*%
%TO.C,C10*%
X195024500Y-108550300D03*
%TO.N,GND*%
X190024500Y-108550300D03*
%TD*%
%TO.N,Sense1-4*%
%TO.C,C6*%
X190529600Y-71112700D03*
%TO.N,GND*%
X190529600Y-66112700D03*
%TD*%
D21*
%TO.N,+5V*%
%TO.C,T5*%
X216780000Y-85843500D03*
D22*
%TO.N,GND*%
X219320000Y-85843500D03*
%TO.N,unconnected-(T5-Pin_3-Pad3)*%
X221860000Y-85843500D03*
%TO.N,RTDSCLK*%
X224400000Y-85843500D03*
%TO.N,RTDMISO*%
X226940000Y-85843500D03*
%TO.N,RTDMOSI*%
X229480000Y-85843500D03*
%TO.N,AmbientCS*%
X232020000Y-85843500D03*
%TO.N,unconnected-(T5-Pin_8-Pad8)*%
X234560000Y-85843500D03*
%TD*%
D15*
%TO.N,+VDC*%
%TO.C,R53*%
X132300900Y-82632400D03*
D16*
%TO.N,Net-(Q17-Pad1)*%
X134840900Y-82632400D03*
%TD*%
D15*
%TO.N,+VDC*%
%TO.C,R55*%
X167264600Y-84024400D03*
D16*
%TO.N,Net-(Q18-Pad1)*%
X164724600Y-84024400D03*
%TD*%
D15*
%TO.N,OUTPUTSiren*%
%TO.C,R52*%
X161738600Y-88833000D03*
D16*
%TO.N,GND*%
X159198600Y-88833000D03*
%TD*%
D17*
%TO.N,GND*%
%TO.C,Q1*%
X211460500Y-51958700D03*
D18*
%TO.N,Net-(Q1-G)*%
X212730500Y-51958700D03*
%TO.N,Net-(Q1-D)*%
X214000500Y-51958700D03*
%TD*%
D15*
%TO.N,Net-(Q10-Pad1)*%
%TO.C,R44*%
X151477000Y-84322700D03*
D16*
%TO.N,Net-(Q8-D)*%
X154017000Y-84322700D03*
%TD*%
D17*
%TO.N,GND*%
%TO.C,Q5*%
X96844900Y-76648100D03*
D18*
%TO.N,PowerOn*%
X98114900Y-76648100D03*
%TO.N,Net-(Q5-D)*%
X99384900Y-76648100D03*
%TD*%
D15*
%TO.N,PowerOn*%
%TO.C,R27*%
X96880200Y-80272600D03*
D16*
%TO.N,GND*%
X99420200Y-80272600D03*
%TD*%
D15*
%TO.N,Net-(Q23-D)*%
%TO.C,R9*%
X207927200Y-57854600D03*
D16*
%TO.N,Net-(Q2-G)*%
X210467200Y-57854600D03*
%TD*%
D15*
%TO.N,Net-(Q1-D)*%
%TO.C,R70*%
X193071500Y-54440300D03*
D16*
%TO.N,Net-(Q21-CATHODE_1)*%
X195611500Y-54440300D03*
%TD*%
D31*
%TO.N,+5V*%
%TO.C,Q21*%
X219482800Y-58749800D03*
D32*
%TO.N,Net-(Q21-CATHODE_1)*%
X219482800Y-61289800D03*
%TO.N,+5V*%
X219482800Y-63829800D03*
%TO.N,Net-(Q21-CATHODE_2)*%
X219482800Y-66369800D03*
%TO.N,+5V*%
X219482800Y-68909800D03*
%TO.N,Net-(Q21-CATHODE_3)*%
X219482800Y-71449800D03*
%TO.N,+5V*%
X219482800Y-73989800D03*
%TO.N,Net-(Q21-CATHODE_4)*%
X219482800Y-76529800D03*
%TO.N,Logging*%
X227102800Y-76529800D03*
%TO.N,+5V*%
X227102800Y-73989800D03*
%TO.N,IN3TTL*%
X227102800Y-71449800D03*
%TO.N,+5V*%
X227102800Y-68909800D03*
%TO.N,IN2TTL*%
X227102800Y-66369800D03*
%TO.N,+5V*%
X227102800Y-63829800D03*
%TO.N,IN1TTL*%
X227102800Y-61289800D03*
%TO.N,+5V*%
X227102800Y-58749800D03*
%TD*%
D17*
%TO.N,Net-(Q24-D)*%
%TO.C,Q24*%
X202048400Y-68857200D03*
D18*
%TO.N,Net-(Q24-G)*%
X203318400Y-68857200D03*
%TO.N,Sense1-4*%
X204588400Y-68857200D03*
%TD*%
D17*
%TO.N,Net-(Q23-D)*%
%TO.C,Q23*%
X202317900Y-60478900D03*
D18*
%TO.N,Net-(Q23-G)*%
X203587900Y-60478900D03*
%TO.N,Sense1-7*%
X204857900Y-60478900D03*
%TD*%
D15*
%TO.N,+5V*%
%TO.C,R17*%
X163250700Y-109293700D03*
D16*
%TO.N,SDA*%
X165790700Y-109293700D03*
%TD*%
D15*
%TO.N,Net-(Q3-G)*%
%TO.C,R13*%
X207657700Y-70165400D03*
D16*
%TO.N,GND*%
X210197700Y-70165400D03*
%TD*%
D15*
%TO.N,GND*%
%TO.C,R68*%
X99866800Y-129284400D03*
D16*
%TO.N,VoltageSensor*%
X102406800Y-129284400D03*
%TD*%
D15*
%TO.N,GND*%
%TO.C,R6*%
X104601100Y-145985500D03*
D16*
%TO.N,FuelPressure1*%
X104601100Y-143445500D03*
%TD*%
D21*
%TO.N,VPP*%
%TO.C,J7*%
X119697600Y-66084300D03*
D22*
%TO.N,+5V*%
X119697600Y-63544300D03*
%TO.N,GND*%
X119697600Y-61004300D03*
%TD*%
D15*
%TO.N,GND*%
%TO.C,C9*%
X199353800Y-118424200D03*
%TO.N,+5V*%
X204353800Y-118424200D03*
%TD*%
%TO.N,Net-(Q17-Pad1)*%
%TO.C,R54*%
X132691100Y-88305900D03*
D16*
%TO.N,Net-(Q15-D)*%
X130151100Y-88305900D03*
%TD*%
D17*
%TO.N,GND*%
%TO.C,Q4*%
X212646200Y-77984300D03*
D18*
%TO.N,Net-(Q4-G)*%
X213916200Y-77984300D03*
%TO.N,Net-(Q4-D)*%
X215186200Y-77984300D03*
%TD*%
D15*
%TO.N,GND*%
%TO.C,R3*%
X99763400Y-140065700D03*
D16*
%TO.N,Sense1-9*%
X102303400Y-140065700D03*
%TD*%
D15*
%TO.N,GND*%
%TO.C,R25*%
X141650500Y-126279000D03*
D16*
%TO.N,Sense2-4*%
X139110500Y-126279000D03*
%TD*%
D15*
%TO.N,OUTPUTLED1*%
%TO.C,R40*%
X148378000Y-89191900D03*
D16*
%TO.N,GND*%
X145838000Y-89191900D03*
%TD*%
D15*
%TO.N,OUTPUT2*%
%TO.C,R39*%
X127060000Y-69235400D03*
D16*
%TO.N,GND*%
X124520000Y-69235400D03*
%TD*%
D15*
%TO.N,Net-(Q3-D)*%
%TO.C,R33*%
X196793900Y-70163400D03*
D16*
%TO.N,Net-(Q21-CATHODE_3)*%
X199333900Y-70163400D03*
%TD*%
D15*
%TO.N,OUTPUT4*%
%TO.C,R51*%
X127076000Y-94602500D03*
D16*
%TO.N,GND*%
X124536000Y-94602500D03*
%TD*%
D21*
%TO.N,SWMISO*%
%TO.C,J2*%
X225222200Y-121547800D03*
D22*
%TO.N,RTDMISO*%
X225222200Y-124087800D03*
%TO.N,MISO*%
X225222200Y-126627800D03*
%TD*%
D19*
%TO.N,Net-(Q9-Pad1)*%
%TO.C,Q9*%
X137948300Y-63140700D03*
D20*
%TO.N,Sense2-6*%
X137948300Y-65680700D03*
%TO.N,+VDC*%
X137948300Y-68220700D03*
%TD*%
D15*
%TO.N,Net-(IC3-OSC1)*%
%TO.C,C12*%
X189137100Y-125299700D03*
%TO.N,GND*%
X189137100Y-130299700D03*
%TD*%
%TO.N,Net-(Q4-D)*%
%TO.C,R35*%
X196591000Y-79208600D03*
D16*
%TO.N,Net-(Q21-CATHODE_4)*%
X199131000Y-79208600D03*
%TD*%
D15*
%TO.N,Net-(Q2-G)*%
%TO.C,R10*%
X207911500Y-60975100D03*
D16*
%TO.N,GND*%
X210451500Y-60975100D03*
%TD*%
D33*
%TO.N,Net-(IC3-OSC2)*%
%TO.C,Y1*%
X194174500Y-121903800D03*
%TO.N,Net-(IC3-OSC1)*%
X194174500Y-126783800D03*
%TD*%
D21*
%TO.N,+5V*%
%TO.C,T6*%
X155695300Y-141069100D03*
D22*
%TO.N,GND*%
X158235300Y-141069100D03*
%TO.N,unconnected-(T6-Pin_3-Pad3)*%
X160775300Y-141069100D03*
%TO.N,RTDSCLK*%
X163315300Y-141069100D03*
%TO.N,RTDMISO*%
X165855300Y-141069100D03*
%TO.N,RTDMOSI*%
X168395300Y-141069100D03*
%TO.N,CarbCS*%
X170935300Y-141069100D03*
%TO.N,unconnected-(T6-Pin_8-Pad8)*%
X173475300Y-141069100D03*
%TD*%
D15*
%TO.N,Sense1-10*%
%TO.C,C13*%
X189408500Y-54575100D03*
%TO.N,GND*%
X189408500Y-49575100D03*
%TD*%
D27*
%TO.N,Net-(IC17-C1+)*%
%TO.C,C37*%
X105777600Y-115358800D03*
D15*
%TO.N,Net-(IC17-C1-)*%
X105777600Y-112858800D03*
%TD*%
%TO.N,Sense2-1*%
%TO.C,C7*%
X190228600Y-80541100D03*
%TO.N,GND*%
X190228600Y-75541100D03*
%TD*%
%TO.N,GND*%
%TO.C,R7*%
X107730800Y-145972500D03*
D16*
%TO.N,FuelPressure2*%
X107730800Y-143432500D03*
%TD*%
D19*
%TO.N,Net-(Q10-Pad1)*%
%TO.C,Q10*%
X147788500Y-56671400D03*
D20*
%TO.N,Sense2-11*%
X147788500Y-54131400D03*
%TO.N,+VDC*%
X147788500Y-51591400D03*
%TD*%
D19*
%TO.N,Net-(Q18-Pad1)*%
%TO.C,Q18*%
X147835600Y-79770000D03*
D20*
%TO.N,Sense2-5*%
X147835600Y-77230000D03*
%TO.N,+VDC*%
X147835600Y-74690000D03*
%TD*%
D15*
%TO.N,OUTPUT1*%
%TO.C,R57*%
X127106300Y-58571900D03*
D16*
%TO.N,GND*%
X124566300Y-58571900D03*
%TD*%
D23*
%TO.N,+VDC*%
%TO.C,Z2*%
X162908500Y-49269700D03*
D24*
%TO.N,Net-(Q10-Pad1)*%
X152208500Y-49269700D03*
%TD*%
D23*
%TO.N,+VDC*%
%TO.C,Z6*%
X162908500Y-54465700D03*
D24*
%TO.N,Net-(Q18-Pad1)*%
X152208500Y-54465700D03*
%TD*%
D23*
%TO.N,+VDC*%
%TO.C,Z4*%
X162908500Y-51902100D03*
D24*
%TO.N,Net-(Q14-Pad1)*%
X152208500Y-51902100D03*
%TD*%
D34*
%TO.N,+5V*%
X104935700Y-135578100D03*
X202200900Y-109766300D03*
%TO.N,GPSTX*%
X122828200Y-104032900D03*
D35*
%TO.N,SDA*%
X159332362Y-107700799D03*
D34*
%TO.N,AmbientCS*%
X220013700Y-91572200D03*
%TO.N,CANCS*%
X203187900Y-122779100D03*
%TO.N,Sense2-10*%
X161385400Y-66733900D03*
%TO.N,Sense1-3*%
X151006500Y-111951400D03*
%TO.N,Sense1-11*%
X147192400Y-110379600D03*
%TO.N,SDCS*%
X197158200Y-105037600D03*
%TO.N,OUTPUTLED2*%
X143685700Y-108765000D03*
%TO.N,Sense1-6*%
X142495600Y-128575800D03*
%TO.N,Sense1-9*%
X146826200Y-113708400D03*
%TO.N,Sense1-12*%
X146406800Y-112656500D03*
%TO.N,Sense1-8*%
X148468000Y-109754500D03*
%TD*%
D36*
%TO.N,GND*%
X123281600Y-56162100D02*
X124566300Y-57446800D01*
X192870100Y-78182500D02*
X190228600Y-75541100D01*
X210451500Y-59757100D02*
X213092300Y-59757100D01*
X111645800Y-101275700D02*
X111645800Y-100791900D01*
X206730800Y-54281900D02*
X207855900Y-54281900D01*
X197045200Y-74904500D02*
X197985800Y-75845100D01*
X104601100Y-145985500D02*
X99763400Y-141147800D01*
X110457100Y-100791900D02*
X111645800Y-100791900D01*
X209326400Y-55752400D02*
X207855900Y-54281900D01*
X210503000Y-129293900D02*
X210503000Y-125805900D01*
X121480800Y-61004300D02*
X122275800Y-61799300D01*
X186013500Y-134706300D02*
X189137100Y-131582700D01*
X210451500Y-59850000D02*
X210451500Y-59757100D01*
X122275800Y-61799300D02*
X124045500Y-63569000D01*
X124520000Y-69235400D02*
X124520000Y-70360500D01*
X116816400Y-145349000D02*
X115641500Y-146523900D01*
X125331100Y-71171600D02*
X125331100Y-74551200D01*
X122275800Y-61799300D02*
X124378100Y-59697000D01*
X211628100Y-123555700D02*
X211628100Y-122145600D01*
X123808800Y-83347600D02*
X123479400Y-83677000D01*
X123453300Y-103409900D02*
X122948300Y-102904900D01*
X115641500Y-146523900D02*
X108282200Y-146523900D01*
X116672700Y-136388100D02*
X116672700Y-140684700D01*
X124470600Y-68060900D02*
X124520000Y-68110300D01*
X124536000Y-94602500D02*
X124536000Y-95727600D01*
X123479400Y-83677000D02*
X123479400Y-90351200D01*
X124895600Y-65590600D02*
X124470600Y-65590600D01*
X198195700Y-66726700D02*
X197319300Y-65850300D01*
X208853700Y-77203400D02*
X209978700Y-78328400D01*
X122948300Y-102904900D02*
X122841900Y-102798500D01*
X212646200Y-77984300D02*
X211796100Y-77984300D01*
X189632000Y-58295000D02*
X190771500Y-57155500D01*
X153927100Y-137128100D02*
X157060200Y-140261200D01*
X159603700Y-86331000D02*
X159198600Y-86736100D01*
X141650500Y-131064700D02*
X147713900Y-137128100D01*
X141650500Y-117151100D02*
X141650500Y-121671700D01*
X210503000Y-125805900D02*
X210503000Y-124680800D01*
X145838000Y-86667800D02*
X145838000Y-89191900D01*
X124045500Y-63569000D02*
X124045500Y-65590600D01*
X190529600Y-66112700D02*
X189632000Y-65215100D01*
X122751400Y-126260600D02*
X122751400Y-121680200D01*
X124520000Y-69235400D02*
X124520000Y-68110300D01*
X96844900Y-76648100D02*
X93747600Y-76648100D01*
X84534800Y-65816300D02*
X84534800Y-66941400D01*
X125331100Y-74551200D02*
X124175200Y-75707100D01*
X124175200Y-77430200D02*
X124175200Y-78505300D01*
X143639300Y-92515700D02*
X145838000Y-90317000D01*
X124470600Y-65590600D02*
X124470600Y-68060900D01*
X189408500Y-49575100D02*
X190771500Y-50938100D01*
X210197700Y-70165400D02*
X210197700Y-71290500D01*
X159198600Y-86736100D02*
X159198600Y-88833000D01*
X209978700Y-78890900D02*
X209978700Y-78328400D01*
X113168600Y-102798500D02*
X111645800Y-101275700D01*
X204282700Y-134706300D02*
X205090600Y-134706300D01*
X193150600Y-85780400D02*
X193150600Y-78463100D01*
X199617800Y-58031600D02*
X202089100Y-58031600D01*
X123453300Y-104456900D02*
X123453300Y-103409900D01*
X209326400Y-58632000D02*
X209326400Y-55752400D01*
X122841900Y-102798500D02*
X113168600Y-102798500D01*
X197985800Y-75845100D02*
X197985800Y-76078200D01*
X226210000Y-107785800D02*
X226581200Y-107785800D01*
X210451500Y-59757100D02*
X209326400Y-58632000D01*
X197319300Y-65850300D02*
X190792000Y-65850300D01*
X85949600Y-68123100D02*
X84767900Y-66941400D01*
X124378100Y-59697000D02*
X124566300Y-59697000D01*
X189232600Y-117947700D02*
X187966500Y-119213800D01*
X124427100Y-101426100D02*
X124427100Y-95836500D01*
X199320800Y-67008000D02*
X198195700Y-67008000D01*
X158235300Y-141069100D02*
X157060200Y-141069100D01*
X189394400Y-67247900D02*
X190529600Y-66112700D01*
X145838000Y-89191900D02*
X145838000Y-90317000D01*
X219110600Y-114885200D02*
X226210000Y-107785800D01*
X159603700Y-85255900D02*
X159603700Y-86331000D01*
X210503000Y-124680800D02*
X211628100Y-123555700D01*
X210197700Y-71290500D02*
X208853700Y-72634500D01*
X124175200Y-78505300D02*
X123808800Y-78871700D01*
X194582600Y-49975900D02*
X194582600Y-49742800D01*
X205605700Y-54515000D02*
X205605700Y-54281900D01*
X189137100Y-131582700D02*
X189137100Y-130299700D01*
X143217100Y-93590800D02*
X143217100Y-92515700D01*
X189632000Y-65215100D02*
X189632000Y-58295000D01*
X190228600Y-75541100D02*
X189394400Y-74706900D01*
X187966500Y-119213800D02*
X187966500Y-129129100D01*
X190771500Y-50938100D02*
X193620400Y-50938100D01*
X185205600Y-134706300D02*
X186013500Y-134706300D01*
X185205600Y-135881400D02*
X185205600Y-134706300D01*
X143217100Y-92515700D02*
X143639300Y-92515700D01*
X196148100Y-74904500D02*
X197045200Y-74904500D01*
X123808800Y-78871700D02*
X123808800Y-82222500D01*
X99866800Y-129284400D02*
X99866800Y-135347400D01*
X206730800Y-54281900D02*
X205605700Y-54281900D01*
X108282200Y-146523900D02*
X107730800Y-145972500D01*
X210889500Y-78890900D02*
X211796100Y-77984300D01*
X190771500Y-50938100D02*
X190771500Y-57155500D01*
X119697600Y-61004300D02*
X121480800Y-61004300D01*
X208853700Y-72634500D02*
X208853700Y-77203400D01*
X210451500Y-60975100D02*
X210451500Y-59850000D01*
X123281600Y-54920500D02*
X123281600Y-56162100D01*
X123479400Y-90351200D02*
X124130800Y-91002600D01*
X124175200Y-75707100D02*
X124175200Y-77430200D01*
X193150600Y-78463100D02*
X192870100Y-78182500D01*
X189394400Y-74706900D02*
X189394400Y-67247900D01*
X123089500Y-104820700D02*
X123453300Y-104456900D01*
X145869300Y-86636500D02*
X145838000Y-86667800D01*
X93747600Y-76648100D02*
X85949600Y-68850100D01*
X145869300Y-85561400D02*
X145869300Y-86636500D01*
X124427100Y-95836500D02*
X124536000Y-95727600D01*
X202089100Y-58031600D02*
X205605700Y-54515000D01*
X157060200Y-140261200D02*
X157060200Y-141069100D01*
X199110900Y-76078200D02*
X197985800Y-76078200D01*
X99763400Y-141147800D02*
X99763400Y-140065700D01*
X84767900Y-66941400D02*
X84534800Y-66941400D01*
X122751400Y-116744400D02*
X122751400Y-121680200D01*
X211628100Y-122145600D02*
X218888500Y-114885200D01*
X147713900Y-137128100D02*
X153927100Y-137128100D01*
X204282700Y-135881400D02*
X204282700Y-134706300D01*
X198195700Y-67008000D02*
X198195700Y-66726700D01*
X226581200Y-106610700D02*
X226581200Y-107785800D01*
X124566300Y-58571900D02*
X124566300Y-57446800D01*
X124566300Y-58571900D02*
X124566300Y-59697000D01*
X123089500Y-105995800D02*
X123089500Y-104820700D01*
X187966500Y-129129100D02*
X189137100Y-130299700D01*
X124980900Y-91002600D02*
X124130800Y-91002600D01*
X99906600Y-139922500D02*
X99906600Y-135387200D01*
X124470600Y-65590600D02*
X124045500Y-65590600D01*
X123808800Y-82222500D02*
X123808800Y-83347600D01*
X210179100Y-51958700D02*
X211460500Y-51958700D01*
X209978700Y-78890900D02*
X210889500Y-78890900D01*
X193620400Y-50938100D02*
X194582600Y-49975900D01*
X207855900Y-54281900D02*
X210179100Y-51958700D01*
X85949600Y-68850100D02*
X85949600Y-68123100D01*
X195707700Y-49742800D02*
X194582600Y-49742800D01*
X192870100Y-78182500D02*
X196148100Y-74904500D01*
X218888500Y-114885200D02*
X219110600Y-114885200D01*
X122948300Y-102904900D02*
X124427100Y-101426100D01*
X124520000Y-70360500D02*
X125331100Y-71171600D01*
X205090600Y-134706300D02*
X210503000Y-129293900D01*
%TO.N,+5V*%
X226137400Y-65932500D02*
X226137400Y-67944400D01*
X185138800Y-97249500D02*
X185138800Y-92427300D01*
X77291900Y-106292800D02*
X90742300Y-119743200D01*
X202055000Y-107769300D02*
X202055000Y-108550300D01*
X202055000Y-109620400D02*
X202200900Y-109766300D01*
X219482800Y-73989800D02*
X216780000Y-76692600D01*
X204282700Y-133341400D02*
X204282700Y-132166300D01*
X101273100Y-119743200D02*
X101273100Y-131915500D01*
X125800700Y-94199700D02*
X121000500Y-89399500D01*
X216780000Y-85843500D02*
X216780000Y-93044300D01*
X227102800Y-63829800D02*
X226137400Y-64795200D01*
X90742300Y-119743200D02*
X101273100Y-119743200D01*
X226137400Y-65932500D02*
X220467200Y-65932500D01*
X206716500Y-121755900D02*
X206716500Y-129732500D01*
X220467200Y-64814200D02*
X219482800Y-63829800D01*
X226137400Y-67944400D02*
X227102800Y-68909800D01*
X218557700Y-62904700D02*
X218557700Y-60600000D01*
X202055000Y-108550300D02*
X202055000Y-109620400D01*
X215437900Y-94386400D02*
X202055000Y-107769300D01*
X219482800Y-68909800D02*
X220467200Y-67925400D01*
X76116800Y-105925600D02*
X77291900Y-105925600D01*
X120952400Y-147863200D02*
X120952400Y-149051900D01*
X120528600Y-64719400D02*
X119697600Y-64719400D01*
X101273100Y-131915500D02*
X104935700Y-135578100D01*
X206716500Y-129732500D02*
X204282700Y-132166300D01*
X206716500Y-121755900D02*
X207963000Y-121755900D01*
X226137400Y-64795200D02*
X226137400Y-65932500D01*
X195024500Y-108550300D02*
X202055000Y-108550300D01*
X121000500Y-89399500D02*
X121000500Y-65191300D01*
X121000500Y-65191300D02*
X120528600Y-64719400D01*
X227102800Y-58749800D02*
X226177600Y-59675000D01*
X216780000Y-76692600D02*
X216780000Y-85843500D01*
X218557700Y-60600000D02*
X219482800Y-59674900D01*
X226177600Y-59675000D02*
X226177600Y-62904600D01*
X125800700Y-99009200D02*
X125800700Y-94199700D01*
X119697600Y-63544300D02*
X119697600Y-64719400D01*
X132141000Y-106524600D02*
X132141000Y-105349500D01*
X220467200Y-65932500D02*
X220467200Y-64814200D01*
X132141000Y-105349500D02*
X125800700Y-99009200D01*
X219482800Y-58749800D02*
X219482800Y-59674900D01*
X163218700Y-109325700D02*
X163218700Y-113941500D01*
X204353800Y-118424200D02*
X206716500Y-120786900D01*
X218524000Y-69868600D02*
X219482800Y-68909800D01*
X218524000Y-73031000D02*
X218524000Y-69868600D01*
X206716500Y-120786900D02*
X206716500Y-121755900D01*
X216780000Y-93044300D02*
X215437900Y-94386400D01*
X116865300Y-143776100D02*
X120952400Y-147863200D01*
X122141100Y-149051900D02*
X120952400Y-149051900D01*
X226177600Y-62904600D02*
X227102800Y-63829800D01*
X220467200Y-67925400D02*
X220467200Y-65932500D01*
X190610600Y-85780400D02*
X190610600Y-86955500D01*
X185138800Y-92427300D02*
X190610600Y-86955500D01*
X77291900Y-105925600D02*
X77291900Y-106292800D01*
X219482800Y-63829800D02*
X218557700Y-62904700D01*
X219482800Y-73989800D02*
X218524000Y-73031000D01*
X104935700Y-135578100D02*
X113133700Y-143776100D01*
X113133700Y-143776100D02*
X116865300Y-143776100D01*
%TO.N,+VDC*%
X150974700Y-90049000D02*
X153587000Y-87436700D01*
D37*
X96814300Y-83431200D02*
X93303400Y-79920200D01*
D36*
X150974700Y-92348200D02*
X150974700Y-90049000D01*
%TO.N,CAN_TX_STBY*%
X201010400Y-102214500D02*
X201010400Y-102495900D01*
X179209800Y-113863400D02*
X179209800Y-113491900D01*
X178021100Y-113491900D02*
X179209800Y-113491900D01*
X184446800Y-111314300D02*
X181075300Y-114685800D01*
X181075300Y-114685800D02*
X180032200Y-114685800D01*
X196960800Y-103677800D02*
X189324300Y-111314300D01*
X199828500Y-103677800D02*
X196960800Y-103677800D01*
X201010400Y-102495900D02*
X199828500Y-103677800D01*
X202135500Y-102214500D02*
X201010400Y-102214500D01*
X189324300Y-111314300D02*
X184446800Y-111314300D01*
X180032200Y-114685800D02*
X179209800Y-113863400D01*
%TO.N,SpareADC1*%
X125291400Y-131190900D02*
X131513700Y-131190900D01*
X150081100Y-149051900D02*
X148892400Y-149051900D01*
X131513700Y-131190900D02*
X148892400Y-148569600D01*
X148892400Y-148569600D02*
X148892400Y-149051900D01*
%TO.N,Net-(IC17-C1+)*%
X116321900Y-121483700D02*
X110197000Y-115358800D01*
X117227000Y-121483700D02*
X116321900Y-121483700D01*
X105777600Y-115358800D02*
X110197000Y-115358800D01*
%TO.N,Net-(IC17-C1-)*%
X105777600Y-112858800D02*
X113682100Y-112858800D01*
X113682100Y-112858800D02*
X117227000Y-116403700D01*
%TO.N,MOSI*%
X226581200Y-98990700D02*
X226581200Y-100165800D01*
X228697100Y-101916500D02*
X226946400Y-100165800D01*
X229504900Y-125452700D02*
X228697100Y-124644900D01*
X229872200Y-125452700D02*
X229504900Y-125452700D01*
X228697100Y-124644900D02*
X228697100Y-101916500D01*
X226946400Y-100165800D02*
X226581200Y-100165800D01*
X229872200Y-126627800D02*
X229872200Y-125452700D01*
%TO.N,MISO*%
X225222200Y-126627800D02*
X225222200Y-125452700D01*
X226581200Y-102705800D02*
X226904800Y-102705800D01*
X226904800Y-102705800D02*
X227756300Y-103557300D01*
X227756300Y-123283800D02*
X225587400Y-125452700D01*
X226581200Y-101530700D02*
X226581200Y-102705800D01*
X227756300Y-103557300D02*
X227756300Y-123283800D01*
X225587400Y-125452700D02*
X225222200Y-125452700D01*
%TO.N,Net-(IC17-C2+)*%
X106042400Y-111166200D02*
X101718200Y-111166200D01*
X117227000Y-113863700D02*
X115771900Y-112408600D01*
X107284800Y-112408600D02*
X106042400Y-111166200D01*
X115771900Y-112408600D02*
X107284800Y-112408600D01*
%TO.N,Net-(Q23-G)*%
X203587900Y-60478900D02*
X203587900Y-59403800D01*
X198450000Y-59403800D02*
X197077800Y-58031600D01*
X203587900Y-59403800D02*
X198450000Y-59403800D01*
%TO.N,Net-(Q24-G)*%
X203318400Y-68857200D02*
X203318400Y-67782100D01*
X197909300Y-68136500D02*
X196780800Y-67008000D01*
X200567600Y-68136500D02*
X197909300Y-68136500D01*
X200922000Y-67782100D02*
X200567600Y-68136500D01*
X203318400Y-67782100D02*
X200922000Y-67782100D01*
%TO.N,Net-(Q25-D)*%
X201732600Y-77886500D02*
X201732600Y-78961600D01*
X201732600Y-78961600D02*
X204795500Y-78961600D01*
X204795500Y-78961600D02*
X207461300Y-76295800D01*
%TO.N,OilPressure*%
X125291400Y-117869500D02*
X124153000Y-119007900D01*
X146352400Y-148568200D02*
X146352400Y-149051900D01*
X139721200Y-147230200D02*
X145014400Y-147230200D01*
X125291400Y-116744400D02*
X125291400Y-117869500D01*
X124153000Y-119007900D02*
X124153000Y-131662000D01*
X147541100Y-149051900D02*
X146352400Y-149051900D01*
X124153000Y-131662000D02*
X139721200Y-147230200D01*
X145014400Y-147230200D02*
X146352400Y-148568200D01*
D38*
%TO.N,SCL*%
X165758700Y-113941500D02*
X170401100Y-109299100D01*
X170401100Y-109299100D02*
X170401100Y-100791900D01*
%TO.N,SDA*%
X165790700Y-109293700D02*
X165790700Y-102862300D01*
X159332362Y-107700799D02*
X164197799Y-107700799D01*
X164197799Y-107700799D02*
X165790700Y-109293700D01*
X165790700Y-102862300D02*
X167861100Y-100791900D01*
D36*
%TO.N,CarbCS*%
X178021100Y-123651900D02*
X178021100Y-124840600D01*
X170935300Y-131557000D02*
X177651700Y-124840600D01*
X177651700Y-124840600D02*
X178021100Y-124840600D01*
X170935300Y-141069100D02*
X170935300Y-131557000D01*
%TO.N,AmbientCS*%
X178021100Y-126191900D02*
X179209800Y-126191900D01*
X220013700Y-92842000D02*
X202414600Y-110441100D01*
X220013700Y-91572200D02*
X220013700Y-92842000D01*
X180110300Y-124921900D02*
X179209800Y-125822400D01*
X180979400Y-124921900D02*
X180110300Y-124921900D01*
X182096000Y-122726300D02*
X182096000Y-123805300D01*
X194381200Y-110441100D02*
X182096000Y-122726300D01*
X202414600Y-110441100D02*
X194381200Y-110441100D01*
X182096000Y-123805300D02*
X180979400Y-124921900D01*
X179209800Y-125822400D02*
X179209800Y-126191900D01*
%TO.N,FrontCS*%
X203107600Y-148581400D02*
X194122700Y-139596500D01*
X181137100Y-137540700D02*
X180055400Y-137540700D01*
X194122700Y-139596500D02*
X183192900Y-139596500D01*
X204282700Y-148581400D02*
X203107600Y-148581400D01*
X178021100Y-128731900D02*
X178021100Y-129920600D01*
X180055400Y-137540700D02*
X179291100Y-136776400D01*
X179291100Y-136776400D02*
X179291100Y-130821200D01*
X179291100Y-130821200D02*
X178390500Y-129920600D01*
X183192900Y-139596500D02*
X181137100Y-137540700D01*
X178390500Y-129920600D02*
X178021100Y-129920600D01*
%TO.N,Logging*%
X181749800Y-136351900D02*
X182506900Y-137109000D01*
X202469200Y-111659700D02*
X223166500Y-90962400D01*
X202469200Y-120279700D02*
X202469200Y-111659700D01*
X180561100Y-136351900D02*
X181749800Y-136351900D01*
X182506900Y-137109000D02*
X185639900Y-137109000D01*
X185639900Y-137109000D02*
X202469200Y-120279700D01*
X223166500Y-80466100D02*
X227102800Y-76529800D01*
X223166500Y-90962400D02*
X223166500Y-80466100D01*
%TO.N,Net-(Q25-G)*%
X197709700Y-77217000D02*
X196570900Y-76078200D01*
X200620700Y-76811400D02*
X200215100Y-77217000D01*
X203002600Y-77886500D02*
X203002600Y-76811400D01*
X200215100Y-77217000D02*
X197709700Y-77217000D01*
X203002600Y-76811400D02*
X200620700Y-76811400D01*
%TO.N,GPSBat*%
X102843400Y-119251300D02*
X102843400Y-122798300D01*
X88816800Y-107100700D02*
X100084500Y-118368400D01*
X136192400Y-148568200D02*
X136192400Y-149051900D01*
X102843400Y-122798300D02*
X114246500Y-134201400D01*
X121825600Y-134201400D02*
X136192400Y-148568200D01*
X100084500Y-118368400D02*
X101960500Y-118368400D01*
X114246500Y-134201400D02*
X121825600Y-134201400D01*
X101960500Y-118368400D02*
X102843400Y-119251300D01*
X137381100Y-149051900D02*
X136192400Y-149051900D01*
X88816800Y-105925600D02*
X88816800Y-107100700D01*
%TO.N,IN3TTL*%
X183077400Y-130476300D02*
X183077400Y-122484700D01*
X194670800Y-110891300D02*
X202601000Y-110891300D01*
X227195500Y-75259800D02*
X228055000Y-74400300D01*
X180561100Y-132623200D02*
X180930500Y-132623200D01*
X202601000Y-110891300D02*
X220638800Y-92853500D01*
X180930500Y-132623200D02*
X183077400Y-130476300D01*
X183077400Y-122484700D02*
X194670800Y-110891300D01*
X220638800Y-92853500D02*
X220638800Y-81627000D01*
X228055000Y-72402000D02*
X227102800Y-71449800D01*
X228055000Y-74400300D02*
X228055000Y-72402000D01*
X227006000Y-75259800D02*
X227195500Y-75259800D01*
X180561100Y-133811900D02*
X180561100Y-132623200D01*
X220638800Y-81627000D02*
X227006000Y-75259800D01*
%TO.N,Net-(Q28-D)*%
X201343500Y-54943900D02*
X204438900Y-51848500D01*
X198434900Y-53868800D02*
X198434900Y-54943900D01*
X198434900Y-54943900D02*
X201343500Y-54943900D01*
X204438900Y-51848500D02*
X204438900Y-49635500D01*
%TO.N,Sense1-2*%
X174115600Y-87855000D02*
X174115600Y-82300300D01*
X174115600Y-82300300D02*
X177270800Y-79145100D01*
%TO.N,/CAN Bus/CAN_INT*%
X210503000Y-121755900D02*
X210503000Y-122881000D01*
X210503000Y-122881000D02*
X207963000Y-125421000D01*
%TO.N,Net-(Q28-G)*%
X199704900Y-52144600D02*
X196176300Y-48616000D01*
X196176300Y-48616000D02*
X194294500Y-48616000D01*
X194294500Y-48616000D02*
X193167700Y-49742800D01*
X199704900Y-53868800D02*
X199704900Y-52144600D01*
%TO.N,VoltageSensor*%
X134841100Y-149051900D02*
X133652400Y-149051900D01*
X103531900Y-129284400D02*
X108899200Y-134651700D01*
X119252200Y-134651700D02*
X133652400Y-149051900D01*
X102406800Y-129284400D02*
X103531900Y-129284400D01*
X108899200Y-134651700D02*
X119252200Y-134651700D01*
%TO.N,Sense2-4*%
X139110500Y-125153900D02*
X139813700Y-125153900D01*
X149722300Y-89439000D02*
X149722300Y-83829300D01*
X149722300Y-83829300D02*
X154406500Y-79145100D01*
X146271100Y-101601500D02*
X146271100Y-94993500D01*
X146271100Y-94993500D02*
X147076700Y-94187900D01*
X147076700Y-92084600D02*
X149722300Y-89439000D01*
X144470600Y-103402000D02*
X146271100Y-101601500D01*
X147076700Y-94187900D02*
X147076700Y-92084600D01*
X144470600Y-120497000D02*
X144470600Y-103402000D01*
X139813700Y-125153900D02*
X144470600Y-120497000D01*
X139110500Y-126279000D02*
X139110500Y-125153900D01*
%TO.N,Sense2-7*%
X155556700Y-94648800D02*
X155556700Y-76084900D01*
X139813700Y-129747600D02*
X145613000Y-123948300D01*
X155556700Y-76084900D02*
X160116500Y-71525100D01*
X139110500Y-130872700D02*
X139110500Y-129747600D01*
X145613000Y-104592500D02*
X155556700Y-94648800D01*
X139110500Y-129747600D02*
X139813700Y-129747600D01*
X145613000Y-123948300D02*
X145613000Y-104592500D01*
%TO.N,Sense2-9*%
X164630800Y-61300800D02*
X165836500Y-60095100D01*
D38*
X156810000Y-58689100D02*
X150108000Y-58689100D01*
D36*
X161605400Y-61300800D02*
X164630800Y-61300800D01*
X159234200Y-58929600D02*
X161605400Y-61300800D01*
D38*
X157050500Y-58929600D02*
X156810000Y-58689100D01*
X139570000Y-76966200D02*
X139306000Y-77230000D01*
X150108000Y-58689100D02*
X139570000Y-69227300D01*
X139570000Y-69227300D02*
X139570000Y-76966200D01*
D36*
X157050500Y-58929600D02*
X159234200Y-58929600D01*
D38*
X139306000Y-77230000D02*
X137948300Y-77230000D01*
D36*
%TO.N,Sense2-10*%
X158142200Y-69977100D02*
X161385400Y-66733900D01*
X143729600Y-89709000D02*
X143729600Y-85942900D01*
X145920200Y-84167700D02*
X158142200Y-71945700D01*
X125291400Y-125135500D02*
X138569800Y-111857100D01*
X143729600Y-85942900D02*
X145504800Y-84167700D01*
X158142200Y-71945700D02*
X158142200Y-69977100D01*
X145504800Y-84167700D02*
X145920200Y-84167700D01*
X138569800Y-111857100D02*
X138569800Y-94868800D01*
X125291400Y-126260600D02*
X125291400Y-125135500D01*
X138569800Y-94868800D02*
X143729600Y-89709000D01*
D38*
%TO.N,Sense2-12*%
X139489000Y-80856900D02*
X139489000Y-88586100D01*
X154406000Y-65939700D02*
X139489000Y-80856900D01*
X139296000Y-88779200D02*
X137948300Y-88779200D01*
D36*
X154406500Y-63016900D02*
X154406500Y-60095100D01*
D38*
X154406000Y-60095100D02*
X154406000Y-63017400D01*
X154406000Y-63017400D02*
X154406000Y-65939700D01*
X139489000Y-88586100D02*
X139296000Y-88779200D01*
D36*
X154406000Y-63017400D02*
X154406500Y-63016900D01*
%TO.N,Sense1-1*%
X181080800Y-79145100D02*
X175415500Y-84810400D01*
X161429800Y-147863200D02*
X161429800Y-149051900D01*
X171823800Y-127801200D02*
X162045300Y-137579700D01*
X171823800Y-98090500D02*
X171823800Y-127801200D01*
X160241100Y-149051900D02*
X161429800Y-149051900D01*
X175415500Y-84810400D02*
X175415500Y-94498800D01*
X175415500Y-94498800D02*
X171823800Y-98090500D01*
X162045300Y-147247700D02*
X161429800Y-147863200D01*
X162045300Y-137579700D02*
X162045300Y-147247700D01*
%TO.N,Sense1-3*%
X173460800Y-79145100D02*
X173460800Y-83672600D01*
X173460800Y-83672600D02*
X161511100Y-95622300D01*
X161511100Y-95622300D02*
X161511100Y-101446800D01*
X161511100Y-101446800D02*
X151006500Y-111951400D01*
%TO.N,Sense1-4*%
X203199900Y-71320800D02*
X204588400Y-69932300D01*
X190737700Y-71320800D02*
X203199900Y-71320800D01*
X204588400Y-68857200D02*
X204588400Y-69932300D01*
%TO.N,Sense1-7*%
X204857900Y-60478900D02*
X204857900Y-61554000D01*
X204076000Y-62335900D02*
X204857900Y-61554000D01*
X190951900Y-62335900D02*
X204076000Y-62335900D01*
%TO.N,Sense1-11*%
X147192400Y-110379600D02*
X147192400Y-104363300D01*
X157966900Y-93588800D02*
X157966900Y-85138800D01*
X168886700Y-64669200D02*
X173460800Y-60095100D01*
X157966900Y-85138800D02*
X168886700Y-74219000D01*
X168886700Y-74219000D02*
X168886700Y-64669200D01*
X147192400Y-104363300D02*
X157966900Y-93588800D01*
%TO.N,SDCS*%
X182136300Y-119841900D02*
X196940600Y-105037600D01*
X196940600Y-105037600D02*
X197158200Y-105037600D01*
X179209800Y-121111900D02*
X179209800Y-120742400D01*
X179209800Y-120742400D02*
X180110300Y-119841900D01*
X178021100Y-121111900D02*
X179209800Y-121111900D01*
X180110300Y-119841900D02*
X182136300Y-119841900D01*
%TO.N,SDDetect*%
X184744900Y-113759500D02*
X181202500Y-117301900D01*
X197120000Y-104155200D02*
X187515700Y-113759500D01*
X178021100Y-118571900D02*
X179209800Y-118571900D01*
X179209800Y-118202400D02*
X179209800Y-118571900D01*
X202004000Y-104155200D02*
X197120000Y-104155200D01*
X187515700Y-113759500D02*
X184744900Y-113759500D01*
X181202500Y-117301900D02*
X180110300Y-117301900D01*
X180110300Y-117301900D02*
X179209800Y-118202400D01*
X215437900Y-91846400D02*
X214312800Y-91846400D01*
X214312800Y-91846400D02*
X202004000Y-104155200D01*
%TO.N,OUTPUTLED2*%
X143685700Y-96025600D02*
X143685700Y-108765000D01*
X143685700Y-96025600D02*
X144487100Y-95224200D01*
X139912900Y-96025600D02*
X143685700Y-96025600D01*
X144487100Y-93590800D02*
X144487100Y-95224200D01*
%TO.N,OUTPUTLED1*%
X147139300Y-85561400D02*
X147139300Y-87953200D01*
X147139300Y-87953200D02*
X148378000Y-89191900D01*
%TO.N,OUTPUTSiren*%
X160873700Y-85255900D02*
X160873700Y-87968100D01*
X160873700Y-87968100D02*
X161738600Y-88833000D01*
%TO.N,Net-(Q10-Pad1)*%
X151047000Y-84752700D02*
X151047000Y-87436700D01*
%TO.N,OUTPUT4*%
X126250900Y-93777400D02*
X127076000Y-94602500D01*
X126250900Y-91002600D02*
X126250900Y-93777400D01*
X129761100Y-97287600D02*
X127076000Y-94602500D01*
X129761100Y-100791900D02*
X129761100Y-97287600D01*
%TO.N,OUTPUT3*%
X131421100Y-87294800D02*
X131421100Y-98570800D01*
X125445200Y-77430200D02*
X125445200Y-81318900D01*
X125445200Y-81318900D02*
X126348800Y-82222500D01*
X126348800Y-82222500D02*
X131421100Y-87294800D01*
X132301100Y-100791900D02*
X132301100Y-99450800D01*
X131421100Y-98570800D02*
X132301100Y-99450800D01*
%TO.N,OUTPUT2*%
X131175700Y-73351100D02*
X127060000Y-69235400D01*
X126165600Y-65590600D02*
X126165600Y-68341000D01*
X134841100Y-100791900D02*
X134841100Y-87586100D01*
X134841100Y-87586100D02*
X131175700Y-83920700D01*
X131175700Y-83920700D02*
X131175700Y-73351100D01*
X126165600Y-68341000D02*
X127060000Y-69235400D01*
%TO.N,Net-(Q14-Pad1)*%
X148434700Y-92348200D02*
X148434700Y-93473300D01*
X148434700Y-93473300D02*
X148881600Y-93920200D01*
X148881600Y-93920200D02*
X148881600Y-95455700D01*
%TO.N,OUTPUT1*%
X136192400Y-77574000D02*
X128411900Y-69793500D01*
X128411900Y-69793500D02*
X128411900Y-59877500D01*
X124551600Y-56017200D02*
X127106300Y-58571900D01*
X128411900Y-59877500D02*
X127106300Y-58571900D01*
X136192400Y-100791900D02*
X136192400Y-77574000D01*
X137381100Y-100791900D02*
X136192400Y-100791900D01*
X124551600Y-54920500D02*
X124551600Y-56017200D01*
%TO.N,Net-(Q18-Pad1)*%
X164724600Y-84024400D02*
X164724600Y-85149500D01*
X164724600Y-85149500D02*
X165174600Y-85599500D01*
X165174600Y-85599500D02*
X165174600Y-87090400D01*
%TO.N,Net-(Q15-D)*%
X127520900Y-91002600D02*
X128371000Y-91002600D01*
X130151100Y-88305900D02*
X130151100Y-89431000D01*
X128371000Y-91002600D02*
X129942600Y-89431000D01*
X129942600Y-89431000D02*
X130151100Y-89431000D01*
%TO.N,Net-(Q19-D)*%
X125821600Y-54920500D02*
X126671700Y-54920500D01*
X130213300Y-52337500D02*
X129088200Y-52337500D01*
X126671700Y-54920500D02*
X129088200Y-52504000D01*
X129088200Y-52504000D02*
X129088200Y-52337500D01*
%TO.N,Sense1-6*%
X142495600Y-128575800D02*
X147192400Y-123879000D01*
X171920300Y-78775600D02*
X179170800Y-71525100D01*
X171920300Y-84576400D02*
X171920300Y-78775600D01*
X147192400Y-123879000D02*
X147192400Y-114314900D01*
X147192400Y-114314900D02*
X158889900Y-102617400D01*
X158889900Y-102617400D02*
X158889900Y-97606800D01*
X158889900Y-97606800D02*
X171920300Y-84576400D01*
D37*
%TO.N,PowerOn*%
X98114900Y-79037900D02*
X98114900Y-76648100D01*
X85952600Y-58096800D02*
X98114900Y-70259100D01*
X98114900Y-70259100D02*
X98114900Y-76648100D01*
X96880200Y-80272600D02*
X98114900Y-79037900D01*
D36*
%TO.N,Sense1-9*%
X166299800Y-88733200D02*
X156431100Y-98601900D01*
X171311000Y-77484900D02*
X171311000Y-81832700D01*
X156431100Y-104103500D02*
X146826200Y-113708400D01*
X171311000Y-81832700D02*
X166299800Y-86843900D01*
X166299800Y-86843900D02*
X166299800Y-88733200D01*
X156431100Y-98601900D02*
X156431100Y-104103500D01*
X181080800Y-67715100D02*
X171311000Y-77484900D01*
X181080800Y-60095100D02*
X181080800Y-67715100D01*
%TO.N,Sense1-12*%
X165831600Y-63914300D02*
X165831600Y-73237700D01*
X156859100Y-93983100D02*
X146406800Y-104435400D01*
X156859100Y-82210200D02*
X156859100Y-93983100D01*
X146406800Y-104435400D02*
X146406800Y-112656500D01*
X169650800Y-60095100D02*
X165831600Y-63914300D01*
X165831600Y-73237700D02*
X156859100Y-82210200D01*
%TO.N,Sense1-8*%
X153891100Y-104331400D02*
X148468000Y-109754500D01*
X163054700Y-89730100D02*
X153891100Y-98893700D01*
X153891100Y-98893700D02*
X153891100Y-104331400D01*
X171550800Y-75478300D02*
X163054700Y-83974400D01*
X163054700Y-83974400D02*
X163054700Y-89730100D01*
X171550800Y-71525100D02*
X171550800Y-75478300D01*
%TO.N,RTDSCLK*%
X233347100Y-122545500D02*
X233347100Y-95965700D01*
X233347100Y-95965700D02*
X224400000Y-87018600D01*
X234522200Y-122912700D02*
X233714300Y-122912700D01*
X198230600Y-85780400D02*
X198230600Y-90967800D01*
X233714300Y-122912700D02*
X233347100Y-122545500D01*
X185138800Y-104869500D02*
X185138800Y-103694400D01*
X185504000Y-103694400D02*
X185138800Y-103694400D01*
X224400000Y-85843500D02*
X224400000Y-87018600D01*
X234522200Y-124087800D02*
X234522200Y-122912700D01*
X198230600Y-90967800D02*
X185504000Y-103694400D01*
%TO.N,RTDMISO*%
X169665300Y-142276700D02*
X167872700Y-142276700D01*
X224047100Y-124087800D02*
X205457800Y-142677100D01*
X167030400Y-141434400D02*
X167030400Y-141069100D01*
X170170700Y-142782100D02*
X169665300Y-142276700D01*
X185138800Y-107409500D02*
X185138800Y-108584600D01*
X184645500Y-108584600D02*
X185138800Y-108584600D01*
X185205600Y-143501400D02*
X184030500Y-143501400D01*
X185138800Y-107409500D02*
X185138800Y-106234400D01*
X200770600Y-90967800D02*
X185504000Y-106234400D01*
X225222200Y-124087800D02*
X224047100Y-124087800D01*
X169665300Y-142276700D02*
X169665300Y-132190300D01*
X167872700Y-142276700D02*
X167030400Y-141434400D01*
X169665300Y-132190300D02*
X175770400Y-126085200D01*
X175770400Y-126085200D02*
X175770400Y-114059400D01*
X165855300Y-141069100D02*
X167030400Y-141069100D01*
X181008200Y-112221900D02*
X184645500Y-108584600D01*
X175770400Y-114059400D02*
X177607900Y-112221900D01*
X200770600Y-85780400D02*
X200770600Y-90967800D01*
X183311200Y-142782100D02*
X170170700Y-142782100D01*
X184030500Y-143501400D02*
X183311200Y-142782100D01*
X177607900Y-112221900D02*
X181008200Y-112221900D01*
X204282700Y-143501400D02*
X205457800Y-143501400D01*
X185504000Y-106234400D02*
X185138800Y-106234400D01*
X205457800Y-142677100D02*
X205457800Y-143501400D01*
%TO.N,RTDMOSI*%
X235080200Y-125267500D02*
X235697400Y-124650300D01*
X229872200Y-124087800D02*
X231047300Y-124087800D01*
X235697400Y-93236000D02*
X229480000Y-87018600D01*
X185138800Y-109949500D02*
X186313900Y-109949500D01*
X229480000Y-85843500D02*
X229480000Y-87018600D01*
X231047300Y-124087800D02*
X231047300Y-125262900D01*
X231051900Y-127191800D02*
X212202300Y-146041400D01*
X203310600Y-92952800D02*
X186313900Y-109949500D01*
X231047300Y-125262900D02*
X231051900Y-125267500D01*
X203310600Y-85780400D02*
X203310600Y-92952800D01*
X231051900Y-125267500D02*
X231051900Y-127191800D01*
X212202300Y-146041400D02*
X204282700Y-146041400D01*
X235697400Y-124650300D02*
X235697400Y-93236000D01*
X231051900Y-125267500D02*
X235080200Y-125267500D01*
%TO.N,Sense1-5*%
X176540700Y-94237500D02*
X176540700Y-93112400D01*
X182980800Y-86672300D02*
X176540700Y-93112400D01*
X182980800Y-71525100D02*
X182980800Y-86672300D01*
%TO.N,VPP*%
X108594900Y-121301600D02*
X95072000Y-107778700D01*
X95072000Y-107778700D02*
X95072000Y-84228800D01*
X108594900Y-126920600D02*
X108594900Y-121301600D01*
X114737400Y-133063100D02*
X108594900Y-126920600D01*
X95072000Y-84228800D02*
X93303400Y-82460200D01*
%TO.N,Net-(Q5-D)*%
X99384900Y-76648100D02*
X100235000Y-76648100D01*
X100573900Y-76987000D02*
X100573900Y-84240900D01*
X100573900Y-84240900D02*
X99390700Y-85424100D01*
X99390700Y-86549200D02*
X99390700Y-85424100D01*
X100235000Y-76648100D02*
X100573900Y-76987000D01*
%TO.N,Net-(J10-Pin_2)*%
X174115600Y-91570100D02*
X174000700Y-91685000D01*
X174000700Y-91685000D02*
X174000700Y-94237500D01*
X174115600Y-90395000D02*
X174115600Y-91570100D01*
%TO.N,Net-(Q1-G)*%
X206978900Y-49635500D02*
X206978900Y-51493800D01*
X206978900Y-51493800D02*
X204190800Y-54281900D01*
%TO.N,Net-(Q2-G)*%
X210467200Y-57854600D02*
X211592300Y-57854600D01*
X214362300Y-58682000D02*
X212419700Y-58682000D01*
X212419700Y-58682000D02*
X211592300Y-57854600D01*
X214362300Y-59757100D02*
X214362300Y-58682000D01*
%TO.N,Net-(Q3-G)*%
X209690300Y-68132800D02*
X210220200Y-68132800D01*
X212119700Y-67782100D02*
X211345300Y-67007700D01*
X214167400Y-67782100D02*
X212119700Y-67782100D01*
X210220200Y-67007700D02*
X211345300Y-67007700D01*
X214167400Y-68857200D02*
X214167400Y-67782100D01*
X210220200Y-67007700D02*
X210220200Y-68132800D01*
X207657700Y-70165400D02*
X209690300Y-68132800D01*
%TO.N,Net-(Q4-G)*%
X213916200Y-77984300D02*
X213916200Y-76909200D01*
X211739800Y-76909200D02*
X211126400Y-76295800D01*
X210001300Y-76295800D02*
X211126400Y-76295800D01*
X213916200Y-76909200D02*
X211739800Y-76909200D01*
%TD*%
%TA.AperFunction,Conductor*%
%TO.N,Net-(Q28-G)*%
G36*
X194298665Y-48500623D02*
G01*
X194300964Y-48507588D01*
X194300964Y-48739277D01*
X194300466Y-48742653D01*
X193910533Y-50036570D01*
X193907057Y-50041980D01*
X193901248Y-50044736D01*
X193894859Y-50044006D01*
X193171189Y-49744656D01*
X193167385Y-49742114D01*
X193164846Y-49738309D01*
X192866244Y-49015058D01*
X192865488Y-49008862D01*
X192868025Y-49003158D01*
X192873131Y-48999571D01*
X194254393Y-48507588D01*
X194285338Y-48496566D01*
X194292671Y-48496395D01*
X194298665Y-48500623D01*
G37*
%TD.AperFunction*%
%TD*%
%TA.AperFunction,Conductor*%
%TO.N,Net-(Q18-Pad1)*%
G36*
X165188150Y-85442848D02*
G01*
X165193299Y-85447802D01*
X165907564Y-86772862D01*
X165908942Y-86779147D01*
X165906789Y-86785211D01*
X165901755Y-86789218D01*
X165179792Y-87089242D01*
X165175306Y-87090138D01*
X165170819Y-87089245D01*
X164446988Y-86789019D01*
X164442042Y-86785138D01*
X164439818Y-86779257D01*
X164440958Y-86773076D01*
X165008212Y-85612490D01*
X165010446Y-85609362D01*
X165174729Y-85445079D01*
X165181081Y-85441813D01*
X165188150Y-85442848D01*
G37*
%TD.AperFunction*%
%TD*%
%TA.AperFunction,Conductor*%
%TO.N,RTDMOSI*%
G36*
X186593769Y-109489117D02*
G01*
X186598808Y-109492088D01*
X186764503Y-109657783D01*
X186767606Y-109663323D01*
X186767359Y-109669667D01*
X186763834Y-109674948D01*
X185748056Y-110543516D01*
X185740003Y-110546315D01*
X185732189Y-110542907D01*
X185143637Y-109955738D01*
X185140426Y-109949742D01*
X185141093Y-109942973D01*
X185329326Y-109489117D01*
X185460079Y-109173850D01*
X185465810Y-109167792D01*
X185474119Y-109167089D01*
X186593769Y-109489117D01*
G37*
%TD.AperFunction*%
%TD*%
%TA.AperFunction,Conductor*%
%TO.N,GND*%
G36*
X190895355Y-55557311D02*
G01*
X190899672Y-55562183D01*
X191505333Y-56838248D01*
X191506408Y-56844397D01*
X191504169Y-56850223D01*
X191499253Y-56854069D01*
X190775990Y-57154634D01*
X190771500Y-57155530D01*
X190767010Y-57154634D01*
X190043746Y-56854069D01*
X190038830Y-56850223D01*
X190036591Y-56844397D01*
X190037665Y-56838250D01*
X190643328Y-55562182D01*
X190647645Y-55557311D01*
X190653898Y-55555500D01*
X190889102Y-55555500D01*
X190895355Y-55557311D01*
G37*
%TD.AperFunction*%
%TD*%
%TA.AperFunction,Conductor*%
%TO.N,OUTPUT4*%
G36*
X129884973Y-98914093D02*
G01*
X129889290Y-98918922D01*
X130554350Y-100299443D01*
X130555026Y-100307848D01*
X130549876Y-100314525D01*
X129767167Y-100789220D01*
X129761100Y-100790916D01*
X129755033Y-100789220D01*
X128972323Y-100314525D01*
X128967173Y-100307848D01*
X128967849Y-100299443D01*
X129632910Y-98918922D01*
X129637227Y-98914093D01*
X129643451Y-98912300D01*
X129878749Y-98912300D01*
X129884973Y-98914093D01*
G37*
%TD.AperFunction*%
%TD*%
%TA.AperFunction,Conductor*%
%TO.N,GND*%
G36*
X157908210Y-140287887D02*
G01*
X157914284Y-140294112D01*
X158230824Y-141059281D01*
X158231612Y-141065289D01*
X158229289Y-141070885D01*
X158224479Y-141074568D01*
X157459277Y-141390550D01*
X157451160Y-141390852D01*
X157444804Y-141385796D01*
X156945953Y-140561959D01*
X156944413Y-140554029D01*
X156948379Y-140546990D01*
X156955962Y-140544200D01*
X157185200Y-140544200D01*
X157899519Y-140287574D01*
X157908210Y-140287887D01*
G37*
%TD.AperFunction*%
%TD*%
%TA.AperFunction,Conductor*%
%TO.N,+5V*%
G36*
X218729764Y-73055629D02*
G01*
X219181188Y-73230128D01*
X219701250Y-73431158D01*
X219706196Y-73434797D01*
X219708618Y-73440440D01*
X219707848Y-73446532D01*
X219485362Y-73986007D01*
X219482819Y-73989819D01*
X219479007Y-73992362D01*
X218939532Y-74214848D01*
X218933440Y-74215618D01*
X218927797Y-74213196D01*
X218924158Y-74208250D01*
X218548630Y-73236765D01*
X218548096Y-73230128D01*
X218551268Y-73224276D01*
X218717276Y-73058268D01*
X218723128Y-73055096D01*
X218729764Y-73055629D01*
G37*
%TD.AperFunction*%
%TD*%
%TA.AperFunction,Conductor*%
%TO.N,Net-(Q14-Pad1)*%
G36*
X148441225Y-92350492D02*
G01*
X149164086Y-92650316D01*
X149170162Y-92656084D01*
X149170824Y-92664437D01*
X148859735Y-93717862D01*
X148856787Y-93722821D01*
X148691211Y-93888397D01*
X148685608Y-93891515D01*
X148679203Y-93891212D01*
X148673921Y-93887579D01*
X147875787Y-92922077D01*
X147873118Y-92914076D01*
X147876522Y-92906359D01*
X148428464Y-92353034D01*
X148434457Y-92349826D01*
X148441225Y-92350492D01*
G37*
%TD.AperFunction*%
%TD*%
%TA.AperFunction,Conductor*%
%TO.N,GND*%
G36*
X122755885Y-116745264D02*
G01*
X123408090Y-117016298D01*
X123479153Y-117045830D01*
X123484069Y-117049676D01*
X123486308Y-117055502D01*
X123485233Y-117061651D01*
X122879572Y-118337717D01*
X122875255Y-118342589D01*
X122869002Y-118344400D01*
X122633798Y-118344400D01*
X122627545Y-118342589D01*
X122623228Y-118337717D01*
X122017566Y-117061651D01*
X122016491Y-117055502D01*
X122018730Y-117049676D01*
X122023645Y-117045830D01*
X122746914Y-116745264D01*
X122751400Y-116744369D01*
X122755885Y-116745264D01*
G37*
%TD.AperFunction*%
%TD*%
%TA.AperFunction,Conductor*%
%TO.N,GND*%
G36*
X209734196Y-77910487D02*
G01*
X209739478Y-77914119D01*
X210236683Y-78515588D01*
X210537612Y-78879622D01*
X210540281Y-78887623D01*
X210536877Y-78895340D01*
X209984938Y-79448662D01*
X209978942Y-79451873D01*
X209972172Y-79451206D01*
X209249313Y-79151383D01*
X209243237Y-79145615D01*
X209242575Y-79137264D01*
X209553664Y-78083835D01*
X209556610Y-78078880D01*
X209722190Y-77913300D01*
X209727791Y-77910184D01*
X209734196Y-77910487D01*
G37*
%TD.AperFunction*%
%TD*%
%TA.AperFunction,Conductor*%
%TO.N,Net-(Q25-G)*%
G36*
X197310542Y-75778523D02*
G01*
X197314128Y-75783630D01*
X197682395Y-76817304D01*
X197788175Y-77114212D01*
X197788568Y-77120710D01*
X197785427Y-77126412D01*
X197619112Y-77292727D01*
X197613410Y-77295868D01*
X197606912Y-77295475D01*
X196276330Y-76821428D01*
X196271223Y-76817842D01*
X196268687Y-76812139D01*
X196269442Y-76805944D01*
X196568338Y-76081984D01*
X196570879Y-76078179D01*
X196574684Y-76075638D01*
X197298644Y-75776742D01*
X197304839Y-75775987D01*
X197310542Y-75778523D01*
G37*
%TD.AperFunction*%
%TD*%
%TA.AperFunction,Conductor*%
%TO.N,Sense1-8*%
G36*
X148809950Y-109247923D02*
G01*
X148974576Y-109412549D01*
X148977868Y-109419051D01*
X148976673Y-109426240D01*
X148750106Y-109859846D01*
X148743746Y-109865419D01*
X148735292Y-109865251D01*
X148471815Y-109757063D01*
X148467986Y-109754513D01*
X148465436Y-109750684D01*
X148357248Y-109487207D01*
X148357080Y-109478753D01*
X148362651Y-109472394D01*
X148796263Y-109245825D01*
X148803448Y-109244631D01*
X148809950Y-109247923D01*
G37*
%TD.AperFunction*%
%TD*%
%TA.AperFunction,Conductor*%
%TO.N,GND*%
G36*
X99990741Y-133796844D02*
G01*
X99995052Y-133801513D01*
X100181134Y-134167453D01*
X100639978Y-135069793D01*
X100641213Y-135076016D01*
X100639018Y-135081968D01*
X100634039Y-135085900D01*
X99911090Y-135386334D01*
X99906600Y-135387230D01*
X99902110Y-135386334D01*
X99178586Y-135085661D01*
X99173724Y-135081887D01*
X99171450Y-135076168D01*
X99172392Y-135070089D01*
X99738706Y-133802044D01*
X99743021Y-133797001D01*
X99749388Y-133795117D01*
X99984624Y-133795117D01*
X99990741Y-133796844D01*
G37*
%TD.AperFunction*%
%TD*%
%TA.AperFunction,Conductor*%
%TO.N,GND*%
G36*
X226587725Y-106616234D02*
G01*
X227172522Y-107202006D01*
X227175692Y-107207865D01*
X227175150Y-107214504D01*
X227171072Y-107219771D01*
X226570960Y-107651262D01*
X226228529Y-107897477D01*
X226220439Y-107899610D01*
X226212992Y-107895792D01*
X226210000Y-107887978D01*
X226210000Y-107660802D01*
X226210000Y-107660800D01*
X225802491Y-106947515D01*
X225800964Y-106941166D01*
X225803079Y-106934985D01*
X225808176Y-106930903D01*
X226574975Y-106613688D01*
X226581735Y-106613026D01*
X226587725Y-106616234D01*
G37*
%TD.AperFunction*%
%TD*%
%TA.AperFunction,Conductor*%
%TO.N,Net-(Q25-D)*%
G36*
X206733555Y-75994342D02*
G01*
X206750239Y-76001231D01*
X207457512Y-76293237D01*
X207461320Y-76295779D01*
X207463862Y-76299587D01*
X207762756Y-77023543D01*
X207763512Y-77029739D01*
X207760976Y-77035442D01*
X207755868Y-77039029D01*
X206425287Y-77513075D01*
X206418789Y-77513468D01*
X206413087Y-77510327D01*
X206246772Y-77344012D01*
X206243631Y-77338310D01*
X206244023Y-77331816D01*
X206718072Y-76001227D01*
X206721657Y-75996123D01*
X206727360Y-75993587D01*
X206733555Y-75994342D01*
G37*
%TD.AperFunction*%
%TD*%
%TA.AperFunction,Conductor*%
%TO.N,+VDC*%
G36*
X151098555Y-90750011D02*
G01*
X151102872Y-90754883D01*
X151708533Y-92030948D01*
X151709608Y-92037097D01*
X151707369Y-92042923D01*
X151702453Y-92046769D01*
X150979190Y-92347334D01*
X150974700Y-92348230D01*
X150970210Y-92347334D01*
X150246946Y-92046769D01*
X150242030Y-92042923D01*
X150239791Y-92037097D01*
X150240865Y-92030950D01*
X150846528Y-90754882D01*
X150850845Y-90750011D01*
X150857098Y-90748200D01*
X151092302Y-90748200D01*
X151098555Y-90750011D01*
G37*
%TD.AperFunction*%
%TD*%
%TA.AperFunction,Conductor*%
%TO.N,Sense1-9*%
G36*
X147168150Y-113201823D02*
G01*
X147332776Y-113366449D01*
X147336068Y-113372951D01*
X147334873Y-113380140D01*
X147108306Y-113813746D01*
X147101946Y-113819319D01*
X147093492Y-113819151D01*
X146830015Y-113710963D01*
X146826186Y-113708413D01*
X146823636Y-113704584D01*
X146715448Y-113441107D01*
X146715280Y-113432653D01*
X146720851Y-113426294D01*
X147154463Y-113199725D01*
X147161648Y-113198531D01*
X147168150Y-113201823D01*
G37*
%TD.AperFunction*%
%TD*%
%TA.AperFunction,Conductor*%
%TO.N,SDA*%
G36*
X166169882Y-107696089D02*
G01*
X166174074Y-107702279D01*
X166527047Y-108977593D01*
X166526289Y-108985840D01*
X166520261Y-108991518D01*
X165795190Y-109292834D01*
X165790700Y-109293730D01*
X165786210Y-109292834D01*
X165061138Y-108991518D01*
X165055110Y-108985840D01*
X165054352Y-108977594D01*
X165407326Y-107702279D01*
X165411518Y-107696089D01*
X165418602Y-107693700D01*
X166162798Y-107693700D01*
X166169882Y-107696089D01*
G37*
%TD.AperFunction*%
%TD*%
%TA.AperFunction,Conductor*%
%TO.N,OUTPUT3*%
G36*
X127088442Y-81922823D02*
G01*
X127092028Y-81927930D01*
X127460295Y-82961604D01*
X127566075Y-83258512D01*
X127566468Y-83265010D01*
X127563327Y-83270712D01*
X127397012Y-83437027D01*
X127391310Y-83440168D01*
X127384812Y-83439775D01*
X126054230Y-82965728D01*
X126049123Y-82962142D01*
X126046587Y-82956439D01*
X126047342Y-82950244D01*
X126346238Y-82226284D01*
X126348779Y-82222479D01*
X126352584Y-82219938D01*
X127076544Y-81921042D01*
X127082739Y-81920287D01*
X127088442Y-81922823D01*
G37*
%TD.AperFunction*%
%TD*%
%TA.AperFunction,Conductor*%
%TO.N,+5V*%
G36*
X207406150Y-121199034D02*
G01*
X207957464Y-121749374D01*
X207960672Y-121755364D01*
X207960010Y-121762126D01*
X207661552Y-122483642D01*
X207657713Y-122488565D01*
X207651889Y-122490813D01*
X207645738Y-122489747D01*
X206841500Y-122109400D01*
X206617317Y-122109400D01*
X206609227Y-122106152D01*
X206605628Y-122098212D01*
X206608519Y-122089987D01*
X206907121Y-121749374D01*
X207389087Y-121199600D01*
X207394361Y-121196157D01*
X207400658Y-121195947D01*
X207406150Y-121199034D01*
G37*
%TD.AperFunction*%
%TD*%
%TA.AperFunction,Conductor*%
%TO.N,Sense2-9*%
G36*
X165085686Y-59784087D02*
G01*
X165832714Y-60092538D01*
X165836521Y-60095078D01*
X165839062Y-60098886D01*
X166147511Y-60845912D01*
X166148267Y-60852117D01*
X166145720Y-60857825D01*
X166140597Y-60861408D01*
X164765118Y-61347754D01*
X164758633Y-61348134D01*
X164752945Y-61344996D01*
X164586603Y-61178654D01*
X164583465Y-61172966D01*
X164583844Y-61166482D01*
X165070192Y-59790999D01*
X165073774Y-59785879D01*
X165079482Y-59783332D01*
X165085686Y-59784087D01*
G37*
%TD.AperFunction*%
%TD*%
%TA.AperFunction,Conductor*%
%TO.N,GND*%
G36*
X116796555Y-139086511D02*
G01*
X116800872Y-139091383D01*
X117406533Y-140367448D01*
X117407608Y-140373597D01*
X117405369Y-140379423D01*
X117400453Y-140383269D01*
X116677190Y-140683834D01*
X116672700Y-140684730D01*
X116668210Y-140683834D01*
X115944946Y-140383269D01*
X115940030Y-140379423D01*
X115937791Y-140373597D01*
X115938865Y-140367450D01*
X116544528Y-139091382D01*
X116548845Y-139086511D01*
X116555098Y-139084700D01*
X116790302Y-139084700D01*
X116796555Y-139086511D01*
G37*
%TD.AperFunction*%
%TD*%
%TA.AperFunction,Conductor*%
%TO.N,+5V*%
G36*
X101717829Y-119743096D02*
G01*
X101721634Y-119745640D01*
X102275601Y-120300586D01*
X102278627Y-120305842D01*
X102278615Y-120311906D01*
X102275570Y-120317150D01*
X101401522Y-121186056D01*
X101393273Y-121189458D01*
X101158087Y-121189458D01*
X101150491Y-121186657D01*
X101146532Y-121179595D01*
X100920349Y-119756719D01*
X100921212Y-119750132D01*
X100925522Y-119745076D01*
X100931885Y-119743182D01*
X101713339Y-119742206D01*
X101717829Y-119743096D01*
G37*
%TD.AperFunction*%
%TD*%
%TA.AperFunction,Conductor*%
%TO.N,MISO*%
G36*
X226587424Y-101533688D02*
G01*
X227353609Y-101850649D01*
X227358814Y-101854885D01*
X227360834Y-101861287D01*
X227359003Y-101867745D01*
X227038811Y-102370416D01*
X226904800Y-102580800D01*
X226904800Y-102580801D01*
X226904800Y-102807287D01*
X226901745Y-102815171D01*
X226894175Y-102818937D01*
X226886044Y-102816620D01*
X226884127Y-102815171D01*
X225990869Y-102139838D01*
X225986951Y-102134562D01*
X225986495Y-102128006D01*
X225989645Y-102122239D01*
X226574676Y-101536232D01*
X226580664Y-101533026D01*
X226587424Y-101533688D01*
G37*
%TD.AperFunction*%
%TD*%
%TA.AperFunction,Conductor*%
%TO.N,GND*%
G36*
X123290616Y-54933678D02*
G01*
X123801062Y-55662592D01*
X123803142Y-55670225D01*
X123799886Y-55677438D01*
X123393664Y-56097268D01*
X123393529Y-56097405D01*
X123226431Y-56264503D01*
X123220624Y-56267667D01*
X123214028Y-56267177D01*
X123208753Y-56263189D01*
X123086089Y-56097405D01*
X122775158Y-55677172D01*
X122772866Y-55670448D01*
X122774889Y-55663637D01*
X123271360Y-54933806D01*
X123277252Y-54929317D01*
X123284662Y-54929266D01*
X123290616Y-54933678D01*
G37*
%TD.AperFunction*%
%TD*%
%TA.AperFunction,Conductor*%
%TO.N,GPSBat*%
G36*
X137051361Y-148110032D02*
G01*
X137055468Y-148115608D01*
X137377989Y-149043945D01*
X137377941Y-149051759D01*
X137372986Y-149057800D01*
X136593799Y-149528405D01*
X136587774Y-149530090D01*
X136581742Y-149528430D01*
X136577428Y-149523899D01*
X136076584Y-148585409D01*
X136075432Y-148577612D01*
X136079486Y-148570854D01*
X136086906Y-148568200D01*
X136317400Y-148568200D01*
X137038137Y-148109577D01*
X137044819Y-148107756D01*
X137051361Y-148110032D01*
G37*
%TD.AperFunction*%
%TD*%
%TA.AperFunction,Conductor*%
%TO.N,FrontCS*%
G36*
X178027324Y-128734888D02*
G01*
X178806564Y-129057256D01*
X178811684Y-129061369D01*
X178813781Y-129067595D01*
X178812192Y-129073969D01*
X178390500Y-129795598D01*
X178390500Y-130022808D01*
X178387511Y-130030619D01*
X178380070Y-130034439D01*
X178371980Y-130032315D01*
X178358727Y-130022808D01*
X177421630Y-129350582D01*
X177417547Y-129345317D01*
X177417001Y-129338674D01*
X177420170Y-129332813D01*
X178014576Y-128737432D01*
X178020564Y-128734226D01*
X178027324Y-128734888D01*
G37*
%TD.AperFunction*%
%TD*%
%TA.AperFunction,Conductor*%
%TO.N,OUTPUT3*%
G36*
X132011657Y-98987676D02*
G01*
X132016937Y-98991173D01*
X132161153Y-99158412D01*
X132905415Y-100021489D01*
X132908252Y-100028909D01*
X132905696Y-100036431D01*
X132308219Y-100784576D01*
X132301128Y-100788794D01*
X132293016Y-100787283D01*
X131510881Y-100313643D01*
X131506051Y-100307910D01*
X131505692Y-100300424D01*
X131831103Y-99161324D01*
X131834077Y-99156269D01*
X131999806Y-98990540D01*
X132005328Y-98987443D01*
X132011657Y-98987676D01*
G37*
%TD.AperFunction*%
%TD*%
%TA.AperFunction,Conductor*%
%TO.N,GND*%
G36*
X193274469Y-84082197D02*
G01*
X193278786Y-84087034D01*
X193930550Y-85443986D01*
X193931652Y-85450148D01*
X193929419Y-85455996D01*
X193924492Y-85459857D01*
X193155088Y-85779534D01*
X193150599Y-85780429D01*
X193146110Y-85779534D01*
X192376707Y-85459857D01*
X192371780Y-85455996D01*
X192369547Y-85450148D01*
X192370649Y-85443986D01*
X193022414Y-84087034D01*
X193026731Y-84082197D01*
X193032961Y-84080400D01*
X193268239Y-84080400D01*
X193274469Y-84082197D01*
G37*
%TD.AperFunction*%
%TD*%
%TA.AperFunction,Conductor*%
%TO.N,OUTPUT1*%
G36*
X124558641Y-54926598D02*
G01*
X124949427Y-55269815D01*
X125030526Y-55341042D01*
X125034162Y-55347022D01*
X125033735Y-55354007D01*
X124766955Y-56052555D01*
X124764298Y-56056654D01*
X124599961Y-56220991D01*
X124593757Y-56224234D01*
X124586812Y-56223354D01*
X124581614Y-56218667D01*
X124072328Y-55356005D01*
X124070847Y-55348235D01*
X124074648Y-55341301D01*
X124543170Y-54926628D01*
X124550900Y-54923690D01*
X124558641Y-54926598D01*
G37*
%TD.AperFunction*%
%TD*%
%TA.AperFunction,Conductor*%
%TO.N,+5V*%
G36*
X185263303Y-95550576D02*
G01*
X185267303Y-95553607D01*
X185981790Y-96391281D01*
X185984579Y-96399334D01*
X185981166Y-96407142D01*
X185147078Y-97242212D01*
X185141830Y-97245245D01*
X185135770Y-97245245D01*
X185130522Y-97242212D01*
X184296433Y-96407142D01*
X184293020Y-96399334D01*
X184295808Y-96391283D01*
X185010296Y-95553607D01*
X185014297Y-95550576D01*
X185019199Y-95549500D01*
X185258401Y-95549500D01*
X185263303Y-95550576D01*
G37*
%TD.AperFunction*%
%TD*%
%TA.AperFunction,Conductor*%
%TO.N,Sense1-6*%
G36*
X142837550Y-128069223D02*
G01*
X143002176Y-128233849D01*
X143005468Y-128240351D01*
X143004273Y-128247540D01*
X142777706Y-128681146D01*
X142771346Y-128686719D01*
X142762892Y-128686551D01*
X142499415Y-128578363D01*
X142495586Y-128575813D01*
X142493036Y-128571984D01*
X142384848Y-128308507D01*
X142384680Y-128300053D01*
X142390251Y-128293694D01*
X142823863Y-128067125D01*
X142831048Y-128065931D01*
X142837550Y-128069223D01*
G37*
%TD.AperFunction*%
%TD*%
%TA.AperFunction,Conductor*%
%TO.N,+VDC*%
G36*
X94194832Y-79563537D02*
G01*
X94837580Y-81091010D01*
X94838278Y-81097798D01*
X94835069Y-81103821D01*
X94486977Y-81451903D01*
X94480954Y-81455112D01*
X94474166Y-81454414D01*
X92946737Y-80811632D01*
X92940455Y-80805300D01*
X92940460Y-80796382D01*
X93300839Y-79923980D01*
X93303378Y-79920178D01*
X93307180Y-79917639D01*
X94179582Y-79557260D01*
X94188500Y-79557255D01*
X94194832Y-79563537D01*
G37*
%TD.AperFunction*%
%TD*%
%TA.AperFunction,Conductor*%
%TO.N,Net-(Q10-Pad1)*%
G36*
X151476629Y-84322596D02*
G01*
X151480433Y-84325139D01*
X152034519Y-84880204D01*
X152037939Y-84888409D01*
X152034605Y-84896649D01*
X151175442Y-85775526D01*
X151171615Y-85778131D01*
X151167076Y-85779047D01*
X150931896Y-85779047D01*
X150924340Y-85776280D01*
X150920358Y-85769288D01*
X150679291Y-84336320D01*
X150680108Y-84329696D01*
X150684417Y-84324595D01*
X150690811Y-84322682D01*
X151472139Y-84321706D01*
X151476629Y-84322596D01*
G37*
%TD.AperFunction*%
%TD*%
%TA.AperFunction,Conductor*%
%TO.N,GND*%
G36*
X111256457Y-100315370D02*
G01*
X111260770Y-100319900D01*
X111516881Y-100799854D01*
X111761618Y-101258492D01*
X111762770Y-101266288D01*
X111758716Y-101273046D01*
X111751296Y-101275700D01*
X111520800Y-101275700D01*
X111165979Y-101501432D01*
X110800063Y-101734223D01*
X110793381Y-101736044D01*
X110786839Y-101733767D01*
X110782731Y-101728191D01*
X110460210Y-100799851D01*
X110460258Y-100792040D01*
X110465211Y-100786000D01*
X111244400Y-100315393D01*
X111250425Y-100313709D01*
X111256457Y-100315370D01*
G37*
%TD.AperFunction*%
%TD*%
%TA.AperFunction,Conductor*%
%TO.N,RTDMISO*%
G36*
X200775088Y-85781265D02*
G01*
X201544492Y-86100942D01*
X201549419Y-86104803D01*
X201551652Y-86110651D01*
X201550550Y-86116813D01*
X200898786Y-87473766D01*
X200894469Y-87478603D01*
X200888239Y-87480400D01*
X200652961Y-87480400D01*
X200646731Y-87478603D01*
X200642414Y-87473766D01*
X199990649Y-86116813D01*
X199989547Y-86110651D01*
X199991780Y-86104803D01*
X199996705Y-86100942D01*
X200766112Y-85781264D01*
X200770599Y-85780370D01*
X200775088Y-85781265D01*
G37*
%TD.AperFunction*%
%TD*%
%TA.AperFunction,Conductor*%
%TO.N,OUTPUTLED2*%
G36*
X140230149Y-95291765D02*
G01*
X141506217Y-95897428D01*
X141511089Y-95901745D01*
X141512900Y-95907998D01*
X141512900Y-96143202D01*
X141511089Y-96149455D01*
X141506217Y-96153772D01*
X140230151Y-96759433D01*
X140224002Y-96760508D01*
X140218176Y-96758269D01*
X140214330Y-96753353D01*
X139965164Y-96153772D01*
X139913764Y-96030086D01*
X139912869Y-96025599D01*
X139913763Y-96021115D01*
X140214330Y-95297845D01*
X140218176Y-95292930D01*
X140224002Y-95290691D01*
X140230149Y-95291765D01*
G37*
%TD.AperFunction*%
%TD*%
%TA.AperFunction,Conductor*%
%TO.N,OilPressure*%
G36*
X147211361Y-148110032D02*
G01*
X147215468Y-148115608D01*
X147537989Y-149043945D01*
X147537941Y-149051759D01*
X147532986Y-149057800D01*
X146753799Y-149528405D01*
X146747774Y-149530090D01*
X146741742Y-149528430D01*
X146737428Y-149523899D01*
X146236584Y-148585409D01*
X146235432Y-148577612D01*
X146239486Y-148570854D01*
X146246906Y-148568200D01*
X146477400Y-148568200D01*
X147198137Y-148109577D01*
X147204819Y-148107756D01*
X147211361Y-148110032D01*
G37*
%TD.AperFunction*%
%TD*%
%TA.AperFunction,Conductor*%
%TO.N,GND*%
G36*
X212129081Y-77535332D02*
G01*
X212638048Y-77975924D01*
X212641446Y-77980943D01*
X212641878Y-77986989D01*
X212639226Y-77992440D01*
X212129398Y-78579772D01*
X212124132Y-78583244D01*
X212117829Y-78583478D01*
X212112321Y-78580407D01*
X211743138Y-78214038D01*
X211575001Y-78045901D01*
X211571930Y-78040493D01*
X211572065Y-78034275D01*
X211575365Y-78029006D01*
X212113519Y-77535552D01*
X212121256Y-77532479D01*
X212129081Y-77535332D01*
G37*
%TD.AperFunction*%
%TD*%
%TA.AperFunction,Conductor*%
%TO.N,PowerOn*%
G36*
X97837698Y-78967358D02*
G01*
X98185441Y-79315101D01*
X98188680Y-79321287D01*
X98187819Y-79328216D01*
X97623979Y-80568463D01*
X97617627Y-80574502D01*
X97608863Y-80574436D01*
X96883987Y-80275162D01*
X96880179Y-80272620D01*
X96877637Y-80268812D01*
X96578363Y-79543936D01*
X96578297Y-79535172D01*
X96584334Y-79528822D01*
X97824586Y-78964979D01*
X97831512Y-78964119D01*
X97837698Y-78967358D01*
G37*
%TD.AperFunction*%
%TD*%
%TA.AperFunction,Conductor*%
%TO.N,Logging*%
G36*
X181179976Y-135748330D02*
G01*
X181887469Y-136358427D01*
X182209425Y-136636061D01*
X182212923Y-136641342D01*
X182213156Y-136647671D01*
X182210057Y-136653195D01*
X182044332Y-136818920D01*
X182039273Y-136821897D01*
X180901611Y-137146897D01*
X180893311Y-137146184D01*
X180887590Y-137140129D01*
X180563393Y-136358427D01*
X180562726Y-136351658D01*
X180565935Y-136345663D01*
X181164074Y-135748908D01*
X181171911Y-135745500D01*
X181179976Y-135748330D01*
G37*
%TD.AperFunction*%
%TD*%
%TA.AperFunction,Conductor*%
%TO.N,GND*%
G36*
X159322455Y-87234811D02*
G01*
X159326772Y-87239683D01*
X159932433Y-88515748D01*
X159933508Y-88521897D01*
X159931269Y-88527723D01*
X159926353Y-88531569D01*
X159203090Y-88832134D01*
X159198600Y-88833030D01*
X159194110Y-88832134D01*
X158470846Y-88531569D01*
X158465930Y-88527723D01*
X158463691Y-88521897D01*
X158464765Y-88515750D01*
X159070428Y-87239682D01*
X159074745Y-87234811D01*
X159080998Y-87233000D01*
X159316202Y-87233000D01*
X159322455Y-87234811D01*
G37*
%TD.AperFunction*%
%TD*%
%TA.AperFunction,Conductor*%
%TO.N,Net-(IC17-C1+)*%
G36*
X116654160Y-120910860D02*
G01*
X117218714Y-121475414D01*
X117221822Y-121480974D01*
X117221557Y-121487338D01*
X117217997Y-121492620D01*
X116655148Y-121968756D01*
X116647154Y-121971515D01*
X116639389Y-121968166D01*
X116061684Y-121400119D01*
X116058603Y-121394868D01*
X116058577Y-121388780D01*
X116061612Y-121383505D01*
X116229457Y-121215660D01*
X116230714Y-121214572D01*
X116638886Y-120909758D01*
X116646728Y-120907463D01*
X116654160Y-120910860D01*
G37*
%TD.AperFunction*%
%TD*%
%TA.AperFunction,Conductor*%
%TO.N,GND*%
G36*
X159607809Y-85265928D02*
G01*
X159613631Y-85270897D01*
X160041036Y-85998549D01*
X160042591Y-86005626D01*
X160039682Y-86012261D01*
X159558983Y-86551489D01*
X159553707Y-86554880D01*
X159547437Y-86555060D01*
X159541976Y-86551976D01*
X159374471Y-86384471D01*
X159373523Y-86383400D01*
X159084028Y-86012722D01*
X159081553Y-86005825D01*
X159083664Y-85998810D01*
X159593959Y-85270111D01*
X159600160Y-85265623D01*
X159607809Y-85265928D01*
G37*
%TD.AperFunction*%
%TD*%
%TA.AperFunction,Conductor*%
%TO.N,GND*%
G36*
X204804810Y-134594479D02*
G01*
X204807600Y-134602062D01*
X204807600Y-134831300D01*
X205064225Y-135545617D01*
X205063912Y-135554310D01*
X205057687Y-135560384D01*
X204292518Y-135876924D01*
X204286510Y-135877712D01*
X204280914Y-135875389D01*
X204277232Y-135870580D01*
X203961248Y-135105376D01*
X203960947Y-135097260D01*
X203966001Y-135090905D01*
X204789840Y-134592053D01*
X204797771Y-134590513D01*
X204804810Y-134594479D01*
G37*
%TD.AperFunction*%
%TD*%
%TA.AperFunction,Conductor*%
%TO.N,+5V*%
G36*
X226559531Y-58524750D02*
G01*
X227099007Y-58747237D01*
X227102819Y-58749780D01*
X227105362Y-58753592D01*
X227327848Y-59293067D01*
X227328618Y-59299159D01*
X227326196Y-59304802D01*
X227321250Y-59308441D01*
X226349765Y-59683969D01*
X226343128Y-59684503D01*
X226337274Y-59681329D01*
X226171270Y-59515325D01*
X226168096Y-59509471D01*
X226168630Y-59502834D01*
X226243773Y-59308441D01*
X226544159Y-58531347D01*
X226547797Y-58526403D01*
X226553440Y-58523981D01*
X226559531Y-58524750D01*
G37*
%TD.AperFunction*%
%TD*%
%TA.AperFunction,Conductor*%
%TO.N,RTDMISO*%
G36*
X205332800Y-142976500D02*
G01*
X205562038Y-142976500D01*
X205569621Y-142979290D01*
X205573587Y-142986329D01*
X205572046Y-142994260D01*
X205073196Y-143818096D01*
X205066839Y-143823152D01*
X205058722Y-143822850D01*
X204293520Y-143506868D01*
X204288710Y-143503185D01*
X204286387Y-143497589D01*
X204287174Y-143491583D01*
X204603716Y-142726410D01*
X204609789Y-142720187D01*
X204618480Y-142719874D01*
X205332800Y-142976500D01*
G37*
%TD.AperFunction*%
%TD*%
%TA.AperFunction,Conductor*%
%TO.N,GND*%
G36*
X124542236Y-94607336D02*
G01*
X125094414Y-95160896D01*
X125097808Y-95168427D01*
X125095380Y-95176323D01*
X124523621Y-95914389D01*
X124518340Y-95918231D01*
X124511822Y-95918643D01*
X124506099Y-95915497D01*
X124339594Y-95748992D01*
X124338037Y-95747064D01*
X123969662Y-95176323D01*
X123804498Y-94920426D01*
X123802630Y-94913960D01*
X123804633Y-94907533D01*
X123809844Y-94903276D01*
X124529474Y-94604792D01*
X124536242Y-94604126D01*
X124542236Y-94607336D01*
G37*
%TD.AperFunction*%
%TD*%
%TA.AperFunction,Conductor*%
%TO.N,+5V*%
G36*
X119707417Y-63548774D02*
G01*
X120472587Y-63865315D01*
X120478812Y-63871389D01*
X120479125Y-63880082D01*
X120222500Y-64594400D01*
X120222500Y-64823638D01*
X120219710Y-64831221D01*
X120212671Y-64835187D01*
X120204740Y-64833646D01*
X119380903Y-64334796D01*
X119375847Y-64328439D01*
X119376149Y-64320322D01*
X119692133Y-63555117D01*
X119695814Y-63550310D01*
X119701410Y-63547987D01*
X119707417Y-63548774D01*
G37*
%TD.AperFunction*%
%TD*%
%TA.AperFunction,Conductor*%
%TO.N,+VDC*%
G36*
X95901456Y-82154924D02*
G01*
X96762372Y-82518553D01*
X97162555Y-82687580D01*
X97168825Y-82693912D01*
X97168818Y-82702823D01*
X96869662Y-83427412D01*
X96867120Y-83431220D01*
X96863312Y-83433762D01*
X96138191Y-83733137D01*
X96129556Y-83733254D01*
X96123193Y-83727416D01*
X95538606Y-82518552D01*
X95537604Y-82511508D01*
X95540865Y-82505188D01*
X95888634Y-82157429D01*
X95894663Y-82154220D01*
X95901456Y-82154924D01*
G37*
%TD.AperFunction*%
%TD*%
%TA.AperFunction,Conductor*%
%TO.N,SCL*%
G36*
X166626956Y-112547016D02*
G01*
X167153183Y-113073243D01*
X167156504Y-113079941D01*
X167155090Y-113087283D01*
X166502897Y-114238655D01*
X166496530Y-114243949D01*
X166488252Y-114243703D01*
X165762487Y-113944062D01*
X165758679Y-113941520D01*
X165756137Y-113937712D01*
X165456496Y-113211947D01*
X165456250Y-113203669D01*
X165461542Y-113197304D01*
X166612917Y-112545108D01*
X166620258Y-112543695D01*
X166626956Y-112547016D01*
G37*
%TD.AperFunction*%
%TD*%
%TA.AperFunction,Conductor*%
%TO.N,Net-(Q19-D)*%
G36*
X126210829Y-54343111D02*
G01*
X126723734Y-54690134D01*
X126725451Y-54691551D01*
X126892383Y-54858483D01*
X126895497Y-54864068D01*
X126895209Y-54870457D01*
X126891606Y-54875740D01*
X126288584Y-55378890D01*
X126280529Y-55381593D01*
X126272769Y-55378133D01*
X125827519Y-54927907D01*
X125824199Y-54920868D01*
X125826027Y-54913307D01*
X126194466Y-54346424D01*
X126199032Y-54342343D01*
X126205036Y-54341127D01*
X126210829Y-54343111D01*
G37*
%TD.AperFunction*%
%TD*%
%TA.AperFunction,Conductor*%
%TO.N,Sense1-3*%
G36*
X173465288Y-79145965D02*
G01*
X174211624Y-79456086D01*
X174216544Y-79459938D01*
X174218780Y-79465776D01*
X174217691Y-79471931D01*
X173588980Y-80788442D01*
X173584663Y-80793296D01*
X173578422Y-80795100D01*
X173343178Y-80795100D01*
X173336937Y-80793296D01*
X173332620Y-80788442D01*
X172703908Y-79471931D01*
X172702819Y-79465776D01*
X172705055Y-79459938D01*
X172709973Y-79456087D01*
X173456313Y-79145964D01*
X173460799Y-79145069D01*
X173465288Y-79145965D01*
G37*
%TD.AperFunction*%
%TD*%
%TA.AperFunction,Conductor*%
%TO.N,Sense1-12*%
G36*
X146530133Y-112058770D02*
G01*
X146534371Y-112064699D01*
X146680770Y-112531512D01*
X146680214Y-112539949D01*
X146674117Y-112545809D01*
X146411311Y-112655615D01*
X146406800Y-112656519D01*
X146402289Y-112655615D01*
X146139482Y-112545809D01*
X146133385Y-112539949D01*
X146132829Y-112531513D01*
X146279228Y-112064699D01*
X146283467Y-112058770D01*
X146290393Y-112056500D01*
X146523207Y-112056500D01*
X146530133Y-112058770D01*
G37*
%TD.AperFunction*%
%TD*%
%TA.AperFunction,Conductor*%
%TO.N,RTDMOSI*%
G36*
X203315088Y-85781265D02*
G01*
X204084492Y-86100942D01*
X204089419Y-86104803D01*
X204091652Y-86110651D01*
X204090550Y-86116813D01*
X203438786Y-87473766D01*
X203434469Y-87478603D01*
X203428239Y-87480400D01*
X203192961Y-87480400D01*
X203186731Y-87478603D01*
X203182414Y-87473766D01*
X202530649Y-86116813D01*
X202529547Y-86110651D01*
X202531780Y-86104803D01*
X202536705Y-86100942D01*
X203306112Y-85781264D01*
X203310599Y-85780370D01*
X203315088Y-85781265D01*
G37*
%TD.AperFunction*%
%TD*%
%TA.AperFunction,Conductor*%
%TO.N,OUTPUT3*%
G36*
X125452929Y-77436003D02*
G01*
X125923899Y-77850531D01*
X125927577Y-77856714D01*
X125926941Y-77863880D01*
X125573225Y-78698067D01*
X125568913Y-78703255D01*
X125562453Y-78705200D01*
X125327947Y-78705200D01*
X125321487Y-78703255D01*
X125317175Y-78698067D01*
X124963458Y-77863880D01*
X124962822Y-77856714D01*
X124966498Y-77850533D01*
X125437471Y-77436001D01*
X125445199Y-77433086D01*
X125452929Y-77436003D01*
G37*
%TD.AperFunction*%
%TD*%
%TA.AperFunction,Conductor*%
%TO.N,GND*%
G36*
X188101084Y-129082423D02*
G01*
X189431670Y-129556471D01*
X189436776Y-129560057D01*
X189439312Y-129565760D01*
X189438556Y-129571956D01*
X189139662Y-130295912D01*
X189137120Y-130299720D01*
X189133312Y-130302262D01*
X188409356Y-130601156D01*
X188403160Y-130601912D01*
X188397457Y-130599376D01*
X188393871Y-130594270D01*
X187919823Y-129263684D01*
X187919431Y-129257189D01*
X187922570Y-129251489D01*
X188088889Y-129085170D01*
X188094589Y-129082031D01*
X188101084Y-129082423D01*
G37*
%TD.AperFunction*%
%TD*%
%TA.AperFunction,Conductor*%
%TO.N,GND*%
G36*
X189759302Y-64885541D02*
G01*
X190825441Y-65368923D01*
X190831491Y-65375278D01*
X190831422Y-65384051D01*
X190532593Y-66106462D01*
X190528277Y-66111721D01*
X190521766Y-66113690D01*
X189739356Y-66112712D01*
X189731866Y-66109988D01*
X189727860Y-66103101D01*
X189509498Y-64898285D01*
X189510253Y-64891598D01*
X189514566Y-64886433D01*
X189521011Y-64884498D01*
X189754472Y-64884498D01*
X189759302Y-64885541D01*
G37*
%TD.AperFunction*%
%TD*%
%TA.AperFunction,Conductor*%
%TO.N,Net-(Q3-G)*%
G36*
X210221984Y-67013711D02*
G01*
X210225668Y-67018522D01*
X210522650Y-67737850D01*
X210523013Y-67745772D01*
X210518241Y-67752106D01*
X209763406Y-68245954D01*
X209755398Y-68247753D01*
X209748179Y-68243849D01*
X209745300Y-68236163D01*
X209745300Y-68007799D01*
X209485142Y-67324475D01*
X209485334Y-67315676D01*
X209491603Y-67309500D01*
X210210382Y-67012174D01*
X210216388Y-67011388D01*
X210221984Y-67013711D01*
G37*
%TD.AperFunction*%
%TD*%
%TA.AperFunction,Conductor*%
%TO.N,OUTPUT2*%
G36*
X134964973Y-98914093D02*
G01*
X134969290Y-98918922D01*
X135634350Y-100299443D01*
X135635026Y-100307848D01*
X135629876Y-100314525D01*
X134847167Y-100789220D01*
X134841100Y-100790916D01*
X134835033Y-100789220D01*
X134052323Y-100314525D01*
X134047173Y-100307848D01*
X134047849Y-100299443D01*
X134712910Y-98918922D01*
X134717227Y-98914093D01*
X134723451Y-98912300D01*
X134958749Y-98912300D01*
X134964973Y-98914093D01*
G37*
%TD.AperFunction*%
%TD*%
%TA.AperFunction,Conductor*%
%TO.N,PowerOn*%
G36*
X98122629Y-76653903D02*
G01*
X98594462Y-77069190D01*
X98597938Y-77074608D01*
X98598022Y-77081045D01*
X98371248Y-77914472D01*
X98367063Y-77920696D01*
X98359958Y-77923100D01*
X97869842Y-77923100D01*
X97862737Y-77920696D01*
X97858552Y-77914472D01*
X97631777Y-77081045D01*
X97631861Y-77074608D01*
X97635335Y-77069192D01*
X98107171Y-76653901D01*
X98114899Y-76650986D01*
X98122629Y-76653903D01*
G37*
%TD.AperFunction*%
%TD*%
%TA.AperFunction,Conductor*%
%TO.N,OUTPUT4*%
G36*
X126258628Y-91008402D02*
G01*
X126729599Y-91422931D01*
X126733277Y-91429114D01*
X126732641Y-91436280D01*
X126378925Y-92270467D01*
X126374613Y-92275655D01*
X126368153Y-92277600D01*
X126133647Y-92277600D01*
X126127187Y-92275655D01*
X126122875Y-92270467D01*
X125769158Y-91436280D01*
X125768522Y-91429114D01*
X125772198Y-91422933D01*
X126243171Y-91008402D01*
X126250900Y-91005486D01*
X126258628Y-91008402D01*
G37*
%TD.AperFunction*%
%TD*%
%TA.AperFunction,Conductor*%
%TO.N,GND*%
G36*
X185727710Y-134594479D02*
G01*
X185730500Y-134602062D01*
X185730500Y-134831300D01*
X185987125Y-135545617D01*
X185986812Y-135554310D01*
X185980587Y-135560384D01*
X185215418Y-135876924D01*
X185209410Y-135877712D01*
X185203814Y-135875389D01*
X185200132Y-135870580D01*
X184884148Y-135105376D01*
X184883847Y-135097260D01*
X184888901Y-135090905D01*
X185712740Y-134592053D01*
X185720671Y-134590513D01*
X185727710Y-134594479D01*
G37*
%TD.AperFunction*%
%TD*%
%TA.AperFunction,Conductor*%
%TO.N,GND*%
G36*
X145873627Y-85570331D02*
G01*
X145879515Y-85574870D01*
X146368151Y-86303390D01*
X146370077Y-86311059D01*
X146366685Y-86318202D01*
X145934660Y-86747957D01*
X145926394Y-86751362D01*
X145918136Y-86747935D01*
X145749612Y-86579411D01*
X145354323Y-86318027D01*
X145350262Y-86313400D01*
X145349112Y-86307351D01*
X145351191Y-86301559D01*
X145860215Y-85574674D01*
X145866193Y-85570256D01*
X145873627Y-85570331D01*
G37*
%TD.AperFunction*%
%TD*%
%TA.AperFunction,Conductor*%
%TO.N,Net-(Q10-Pad1)*%
G36*
X151170855Y-85838511D02*
G01*
X151175172Y-85843383D01*
X151780833Y-87119448D01*
X151781908Y-87125597D01*
X151779669Y-87131423D01*
X151774753Y-87135269D01*
X151051489Y-87435834D01*
X151046999Y-87436730D01*
X151042510Y-87435834D01*
X150816470Y-87341899D01*
X150319246Y-87135269D01*
X150314330Y-87131423D01*
X150312091Y-87125597D01*
X150313165Y-87119450D01*
X150918828Y-85843382D01*
X150923145Y-85838511D01*
X150929398Y-85836700D01*
X151164602Y-85836700D01*
X151170855Y-85838511D01*
G37*
%TD.AperFunction*%
%TD*%
%TA.AperFunction,Conductor*%
%TO.N,+5V*%
G36*
X218939531Y-73764750D02*
G01*
X219479007Y-73987237D01*
X219482819Y-73989780D01*
X219485362Y-73993592D01*
X219707848Y-74533067D01*
X219708618Y-74539159D01*
X219706196Y-74544802D01*
X219701250Y-74548441D01*
X218729765Y-74923969D01*
X218723128Y-74924503D01*
X218717274Y-74921329D01*
X218551270Y-74755325D01*
X218548096Y-74749471D01*
X218548630Y-74742834D01*
X218623773Y-74548441D01*
X218924159Y-73771347D01*
X218927797Y-73766403D01*
X218933440Y-73763981D01*
X218939531Y-73764750D01*
G37*
%TD.AperFunction*%
%TD*%
%TA.AperFunction,Conductor*%
%TO.N,OUTPUT1*%
G36*
X126070284Y-57354623D02*
G01*
X127400870Y-57828671D01*
X127405976Y-57832257D01*
X127408512Y-57837960D01*
X127407756Y-57844156D01*
X127108862Y-58568112D01*
X127106320Y-58571920D01*
X127102512Y-58574462D01*
X126378556Y-58873356D01*
X126372360Y-58874112D01*
X126366657Y-58871576D01*
X126363071Y-58866470D01*
X125889023Y-57535884D01*
X125888631Y-57529389D01*
X125891770Y-57523689D01*
X126058089Y-57357370D01*
X126063789Y-57354231D01*
X126070284Y-57354623D01*
G37*
%TD.AperFunction*%
%TD*%
%TA.AperFunction,Conductor*%
%TO.N,GND*%
G36*
X143413944Y-92406340D02*
G01*
X143417000Y-92414225D01*
X143417000Y-92640700D01*
X143731522Y-92834289D01*
X143735790Y-92838896D01*
X143737061Y-92845048D01*
X143734967Y-92850970D01*
X143227116Y-93575092D01*
X143220737Y-93579628D01*
X143212927Y-93579127D01*
X143207179Y-93573815D01*
X143084307Y-93339886D01*
X142826774Y-92849581D01*
X142825714Y-92841593D01*
X142830071Y-92834814D01*
X143398240Y-92404894D01*
X143406372Y-92402574D01*
X143413944Y-92406340D01*
G37*
%TD.AperFunction*%
%TD*%
%TA.AperFunction,Conductor*%
%TO.N,CarbCS*%
G36*
X178027624Y-123657433D02*
G01*
X178352044Y-123982385D01*
X178622027Y-124252811D01*
X178625198Y-124258674D01*
X178624652Y-124265317D01*
X178620566Y-124270584D01*
X178000206Y-124715600D01*
X177670220Y-124952315D01*
X177662130Y-124954439D01*
X177654689Y-124950619D01*
X177651700Y-124942808D01*
X177651700Y-124715601D01*
X177651699Y-124715598D01*
X177230007Y-123993969D01*
X177228418Y-123987595D01*
X177230515Y-123981369D01*
X177235633Y-123977257D01*
X178014875Y-123654888D01*
X178021635Y-123654226D01*
X178027624Y-123657433D01*
G37*
%TD.AperFunction*%
%TD*%
%TA.AperFunction,Conductor*%
%TO.N,Sense2-12*%
G36*
X154410987Y-60095964D02*
G01*
X155159073Y-60406813D01*
X155165123Y-60412537D01*
X155165833Y-60420835D01*
X154789427Y-61736519D01*
X154785222Y-61742643D01*
X154778178Y-61745001D01*
X154033828Y-61745001D01*
X154026781Y-61742640D01*
X154022577Y-61736511D01*
X153647157Y-60420830D01*
X153647870Y-60412536D01*
X153653917Y-60406817D01*
X154402012Y-60095964D01*
X154406500Y-60095069D01*
X154410987Y-60095964D01*
G37*
%TD.AperFunction*%
%TD*%
%TA.AperFunction,Conductor*%
%TO.N,Logging*%
G36*
X226559531Y-76304750D02*
G01*
X227099007Y-76527237D01*
X227102819Y-76529780D01*
X227105362Y-76533592D01*
X227327848Y-77073067D01*
X227328618Y-77079159D01*
X227326196Y-77084802D01*
X227321250Y-77088441D01*
X226349765Y-77463969D01*
X226343128Y-77464503D01*
X226337274Y-77461329D01*
X226171270Y-77295325D01*
X226168096Y-77289471D01*
X226168630Y-77282834D01*
X226243773Y-77088441D01*
X226544159Y-76311347D01*
X226547797Y-76306403D01*
X226553440Y-76303981D01*
X226559531Y-76304750D01*
G37*
%TD.AperFunction*%
%TD*%
%TA.AperFunction,Conductor*%
%TO.N,Net-(Q1-G)*%
G36*
X206983385Y-49636364D02*
G01*
X207635590Y-49907398D01*
X207706653Y-49936930D01*
X207711569Y-49940776D01*
X207713808Y-49946602D01*
X207712733Y-49952751D01*
X207107072Y-51228817D01*
X207102755Y-51233689D01*
X207096502Y-51235500D01*
X206861298Y-51235500D01*
X206855045Y-51233689D01*
X206850728Y-51228817D01*
X206245066Y-49952751D01*
X206243991Y-49946602D01*
X206246230Y-49940776D01*
X206251145Y-49936930D01*
X206974414Y-49636364D01*
X206978900Y-49635469D01*
X206983385Y-49636364D01*
G37*
%TD.AperFunction*%
%TD*%
%TA.AperFunction,Conductor*%
%TO.N,OUTPUT2*%
G36*
X126173328Y-65596402D02*
G01*
X126644299Y-66010931D01*
X126647977Y-66017114D01*
X126647341Y-66024280D01*
X126293625Y-66858467D01*
X126289313Y-66863655D01*
X126282853Y-66865600D01*
X126048347Y-66865600D01*
X126041887Y-66863655D01*
X126037575Y-66858467D01*
X125683858Y-66024280D01*
X125683222Y-66017114D01*
X125686898Y-66010933D01*
X126157871Y-65596402D01*
X126165600Y-65593486D01*
X126173328Y-65596402D01*
G37*
%TD.AperFunction*%
%TD*%
%TA.AperFunction,Conductor*%
%TO.N,Net-(IC17-C1-)*%
G36*
X116502268Y-115497852D02*
G01*
X117437854Y-115863511D01*
X117442777Y-115867157D01*
X117445183Y-115872791D01*
X117444412Y-115878868D01*
X117229562Y-116399905D01*
X117227018Y-116403718D01*
X117223205Y-116406262D01*
X116702168Y-116621112D01*
X116696091Y-116621883D01*
X116690457Y-116619477D01*
X116686811Y-116614554D01*
X116321152Y-115678968D01*
X116320597Y-115672311D01*
X116323774Y-115666438D01*
X116489738Y-115500474D01*
X116495611Y-115497297D01*
X116502268Y-115497852D01*
G37*
%TD.AperFunction*%
%TD*%
%TA.AperFunction,Conductor*%
%TO.N,OUTPUT4*%
G36*
X127815642Y-94302823D02*
G01*
X127819228Y-94307930D01*
X128187495Y-95341604D01*
X128293275Y-95638512D01*
X128293668Y-95645010D01*
X128290527Y-95650712D01*
X128124212Y-95817027D01*
X128118510Y-95820168D01*
X128112012Y-95819775D01*
X126781430Y-95345728D01*
X126776323Y-95342142D01*
X126773787Y-95336439D01*
X126774542Y-95330244D01*
X127073438Y-94606284D01*
X127075979Y-94602479D01*
X127079784Y-94599938D01*
X127803744Y-94301042D01*
X127809939Y-94300287D01*
X127815642Y-94302823D01*
G37*
%TD.AperFunction*%
%TD*%
%TA.AperFunction,Conductor*%
%TO.N,AmbientCS*%
G36*
X178363167Y-125400804D02*
G01*
X178744309Y-125623476D01*
X179084799Y-125822400D01*
X179084800Y-125822400D01*
X179312010Y-125822400D01*
X179319821Y-125825389D01*
X179323641Y-125832830D01*
X179321517Y-125840919D01*
X178639784Y-126791365D01*
X178634517Y-126795451D01*
X178627874Y-126795997D01*
X178622011Y-126792826D01*
X178026634Y-126198425D01*
X178023426Y-126192435D01*
X178024088Y-126185675D01*
X178346457Y-125406431D01*
X178350570Y-125401313D01*
X178356795Y-125399217D01*
X178363167Y-125400804D01*
G37*
%TD.AperFunction*%
%TD*%
%TA.AperFunction,Conductor*%
%TO.N,Net-(Q25-G)*%
G36*
X202822900Y-76707758D02*
G01*
X203367634Y-77283717D01*
X203370774Y-77290578D01*
X203369074Y-77297929D01*
X203010876Y-77874781D01*
X203005887Y-77879210D01*
X202999288Y-77880192D01*
X202993226Y-77877409D01*
X202524602Y-77466759D01*
X202520795Y-77460014D01*
X202522034Y-77452370D01*
X202802700Y-76936400D01*
X202802700Y-76715798D01*
X202804717Y-76709230D01*
X202810074Y-76704927D01*
X202816922Y-76704373D01*
X202822900Y-76707758D01*
G37*
%TD.AperFunction*%
%TD*%
%TA.AperFunction,Conductor*%
%TO.N,SDCS*%
G36*
X196954664Y-104834007D02*
G01*
X197155441Y-105033450D01*
X197158002Y-105037268D01*
X197158895Y-105041778D01*
X197158223Y-105327732D01*
X197155450Y-105335269D01*
X197148471Y-105339242D01*
X196754079Y-105405843D01*
X196748572Y-105405452D01*
X196743858Y-105402579D01*
X196579312Y-105238033D01*
X196575887Y-105229984D01*
X196578999Y-105221813D01*
X196937835Y-104834357D01*
X196943090Y-104831091D01*
X196949276Y-104830963D01*
X196954664Y-104834007D01*
G37*
%TD.AperFunction*%
%TD*%
%TA.AperFunction,Conductor*%
%TO.N,GND*%
G36*
X190968242Y-75241423D02*
G01*
X190971829Y-75246531D01*
X191445893Y-76577087D01*
X191446286Y-76583585D01*
X191443145Y-76589287D01*
X191276834Y-76755604D01*
X191271132Y-76758745D01*
X191264635Y-76758353D01*
X189934032Y-76284329D01*
X189928923Y-76280741D01*
X189926387Y-76275038D01*
X189927142Y-76268845D01*
X190226038Y-75544884D01*
X190228579Y-75541079D01*
X190232384Y-75538538D01*
X190956344Y-75239642D01*
X190962539Y-75238887D01*
X190968242Y-75241423D01*
G37*
%TD.AperFunction*%
%TD*%
%TA.AperFunction,Conductor*%
%TO.N,Net-(IC17-C1+)*%
G36*
X106585811Y-114565728D02*
G01*
X107373445Y-115230294D01*
X107376511Y-115234306D01*
X107377600Y-115239236D01*
X107377600Y-115478364D01*
X107376511Y-115483294D01*
X107373445Y-115487306D01*
X106585811Y-116151871D01*
X106577775Y-116154619D01*
X106569998Y-116151207D01*
X106110164Y-115691948D01*
X105784887Y-115367077D01*
X105781855Y-115361831D01*
X105781855Y-115355769D01*
X105784888Y-115350522D01*
X105896313Y-115239236D01*
X106569998Y-114566391D01*
X106577775Y-114562980D01*
X106585811Y-114565728D01*
G37*
%TD.AperFunction*%
%TD*%
%TA.AperFunction,Conductor*%
%TO.N,PowerOn*%
G36*
X87226338Y-57960947D02*
G01*
X87231113Y-57967116D01*
X87745783Y-59526188D01*
X87746056Y-59532561D01*
X87742946Y-59538129D01*
X87393919Y-59887156D01*
X87388361Y-59890264D01*
X87381998Y-59890000D01*
X85827602Y-59379991D01*
X85821432Y-59375237D01*
X85819613Y-59367664D01*
X85950914Y-58105495D01*
X85954261Y-58098452D01*
X85961291Y-58095077D01*
X87218747Y-57959152D01*
X87226338Y-57960947D01*
G37*
%TD.AperFunction*%
%TD*%
%TA.AperFunction,Conductor*%
%TO.N,Net-(Q24-G)*%
G36*
X203138700Y-67678458D02*
G01*
X203683434Y-68254417D01*
X203686574Y-68261278D01*
X203684874Y-68268629D01*
X203326676Y-68845481D01*
X203321687Y-68849910D01*
X203315088Y-68850892D01*
X203309026Y-68848109D01*
X202840402Y-68437459D01*
X202836595Y-68430714D01*
X202837834Y-68423070D01*
X203118500Y-67907100D01*
X203118500Y-67686498D01*
X203120517Y-67679930D01*
X203125874Y-67675627D01*
X203132722Y-67675073D01*
X203138700Y-67678458D01*
G37*
%TD.AperFunction*%
%TD*%
%TA.AperFunction,Conductor*%
%TO.N,+5V*%
G36*
X218729764Y-62895629D02*
G01*
X219181188Y-63070128D01*
X219701250Y-63271158D01*
X219706196Y-63274797D01*
X219708618Y-63280440D01*
X219707848Y-63286532D01*
X219485362Y-63826007D01*
X219482819Y-63829819D01*
X219479007Y-63832362D01*
X218939532Y-64054848D01*
X218933440Y-64055618D01*
X218927797Y-64053196D01*
X218924158Y-64048250D01*
X218548630Y-63076765D01*
X218548096Y-63070128D01*
X218551268Y-63064276D01*
X218717276Y-62898268D01*
X218723128Y-62895096D01*
X218729764Y-62895629D01*
G37*
%TD.AperFunction*%
%TD*%
%TA.AperFunction,Conductor*%
%TO.N,OUTPUTLED2*%
G36*
X143809033Y-108167270D02*
G01*
X143813271Y-108173199D01*
X143959670Y-108640012D01*
X143959114Y-108648449D01*
X143953017Y-108654309D01*
X143690210Y-108764115D01*
X143685699Y-108765019D01*
X143681188Y-108764115D01*
X143418381Y-108654308D01*
X143412285Y-108648449D01*
X143411729Y-108640013D01*
X143558128Y-108173199D01*
X143562367Y-108167270D01*
X143569293Y-108165000D01*
X143802107Y-108165000D01*
X143809033Y-108167270D01*
G37*
%TD.AperFunction*%
%TD*%
%TA.AperFunction,Conductor*%
%TO.N,OUTPUT2*%
G36*
X126292911Y-68006926D02*
G01*
X127355873Y-68491611D01*
X127361904Y-68497967D01*
X127361831Y-68506729D01*
X127062993Y-69229162D01*
X127058677Y-69234421D01*
X127052166Y-69236390D01*
X126269784Y-69235412D01*
X126262282Y-69232678D01*
X126258281Y-69225767D01*
X126129974Y-68506729D01*
X126043054Y-68019626D01*
X126043823Y-68012954D01*
X126048136Y-68007802D01*
X126054572Y-68005873D01*
X126288058Y-68005873D01*
X126292911Y-68006926D01*
G37*
%TD.AperFunction*%
%TD*%
%TA.AperFunction,Conductor*%
%TO.N,Sense1-4*%
G36*
X190847552Y-70381346D02*
G01*
X190855612Y-70386637D01*
X192082929Y-71192335D01*
X192086803Y-71196558D01*
X192088207Y-71202115D01*
X192088207Y-71437293D01*
X192085970Y-71444173D01*
X192080115Y-71448423D01*
X190846016Y-71848475D01*
X190837512Y-71847971D01*
X190831604Y-71841835D01*
X190666349Y-71444173D01*
X190530464Y-71117185D01*
X190529569Y-71112700D01*
X190530464Y-71108214D01*
X190830328Y-70386635D01*
X190834612Y-70381411D01*
X190841072Y-70379427D01*
X190847552Y-70381346D01*
G37*
%TD.AperFunction*%
%TD*%
%TA.AperFunction,Conductor*%
%TO.N,GND*%
G36*
X124382743Y-64943415D02*
G01*
X124888340Y-65582424D01*
X124890741Y-65587985D01*
X124890040Y-65594000D01*
X124886425Y-65598859D01*
X124380136Y-65999444D01*
X124374426Y-66001866D01*
X124368282Y-66001029D01*
X124363428Y-65997170D01*
X123934085Y-65409301D01*
X123931895Y-65401196D01*
X123935697Y-65393712D01*
X123943533Y-65390700D01*
X124170499Y-65390700D01*
X124170500Y-65390700D01*
X124362831Y-64946029D01*
X124368223Y-64940269D01*
X124376047Y-64939241D01*
X124382743Y-64943415D01*
G37*
%TD.AperFunction*%
%TD*%
%TA.AperFunction,Conductor*%
%TO.N,Sense1-12*%
G36*
X168899986Y-59784087D02*
G01*
X169647014Y-60092538D01*
X169650821Y-60095078D01*
X169653362Y-60098886D01*
X169961811Y-60845912D01*
X169962567Y-60852117D01*
X169960020Y-60857825D01*
X169954897Y-60861408D01*
X168579418Y-61347754D01*
X168572933Y-61348134D01*
X168567245Y-61344996D01*
X168400903Y-61178654D01*
X168397765Y-61172966D01*
X168398144Y-61166482D01*
X168884492Y-59790999D01*
X168888074Y-59785879D01*
X168893782Y-59783332D01*
X168899986Y-59784087D01*
G37*
%TD.AperFunction*%
%TD*%
%TA.AperFunction,Conductor*%
%TO.N,OUTPUT3*%
G36*
X125572485Y-80997808D02*
G01*
X126644581Y-81478746D01*
X126650664Y-81485098D01*
X126650604Y-81493893D01*
X126351793Y-82216262D01*
X126347477Y-82221521D01*
X126340966Y-82223490D01*
X125558507Y-82222512D01*
X125551040Y-82219807D01*
X125547020Y-82212957D01*
X125412912Y-81493893D01*
X125322782Y-81010627D01*
X125323511Y-81003920D01*
X125327823Y-80998729D01*
X125334284Y-80996783D01*
X125567696Y-80996783D01*
X125572485Y-80997808D01*
G37*
%TD.AperFunction*%
%TD*%
%TA.AperFunction,Conductor*%
%TO.N,GND*%
G36*
X120034013Y-60224349D02*
G01*
X121390966Y-60876114D01*
X121395803Y-60880431D01*
X121397600Y-60886661D01*
X121397600Y-61121939D01*
X121395803Y-61128169D01*
X121390966Y-61132486D01*
X120034013Y-61784250D01*
X120027851Y-61785352D01*
X120022003Y-61783119D01*
X120018142Y-61778192D01*
X119698465Y-61008789D01*
X119697570Y-61004300D01*
X119698465Y-60999811D01*
X119748536Y-60879300D01*
X120018142Y-60230405D01*
X120022003Y-60225480D01*
X120027851Y-60223247D01*
X120034013Y-60224349D01*
G37*
%TD.AperFunction*%
%TD*%
%TA.AperFunction,Conductor*%
%TO.N,GND*%
G36*
X210942729Y-51440915D02*
G01*
X211453204Y-51950419D01*
X211456238Y-51955667D01*
X211456238Y-51961731D01*
X211453203Y-51966980D01*
X210942730Y-52476483D01*
X210935245Y-52479876D01*
X210927374Y-52477509D01*
X210415108Y-52087210D01*
X210411715Y-52083098D01*
X210410500Y-52077905D01*
X210410500Y-51839495D01*
X210411715Y-51834302D01*
X210415108Y-51830189D01*
X210927376Y-51439889D01*
X210935245Y-51437523D01*
X210942729Y-51440915D01*
G37*
%TD.AperFunction*%
%TD*%
%TA.AperFunction,Conductor*%
%TO.N,Net-(Q5-D)*%
G36*
X99647211Y-85009002D02*
G01*
X99812787Y-85174578D01*
X99815735Y-85179537D01*
X100126824Y-86232962D01*
X100126162Y-86241315D01*
X100120086Y-86247083D01*
X99397227Y-86546906D01*
X99390457Y-86547573D01*
X99384462Y-86544362D01*
X99073839Y-86232962D01*
X98832522Y-85991040D01*
X98829118Y-85983323D01*
X98831786Y-85975323D01*
X99629923Y-85009817D01*
X99635203Y-85006187D01*
X99641608Y-85005884D01*
X99647211Y-85009002D01*
G37*
%TD.AperFunction*%
%TD*%
%TA.AperFunction,Conductor*%
%TO.N,Net-(Q15-D)*%
G36*
X127910129Y-90425211D02*
G01*
X128423034Y-90772234D01*
X128424751Y-90773651D01*
X128591683Y-90940583D01*
X128594797Y-90946168D01*
X128594509Y-90952557D01*
X128590906Y-90957840D01*
X127987884Y-91460990D01*
X127979829Y-91463693D01*
X127972069Y-91460233D01*
X127526819Y-91010007D01*
X127523499Y-91002968D01*
X127525327Y-90995407D01*
X127893766Y-90428524D01*
X127898332Y-90424443D01*
X127904336Y-90423227D01*
X127910129Y-90425211D01*
G37*
%TD.AperFunction*%
%TD*%
%TA.AperFunction,Conductor*%
%TO.N,RTDMOSI*%
G36*
X229486526Y-85845793D02*
G01*
X230255648Y-86164779D01*
X230261707Y-86170510D01*
X230262410Y-86178820D01*
X229940382Y-87298469D01*
X229937411Y-87303508D01*
X229771716Y-87469203D01*
X229766176Y-87472306D01*
X229759832Y-87472059D01*
X229754551Y-87468534D01*
X229611615Y-87301372D01*
X228885982Y-86452755D01*
X228883184Y-86444703D01*
X228886591Y-86436890D01*
X229473763Y-85848335D01*
X229479757Y-85845126D01*
X229486526Y-85845793D01*
G37*
%TD.AperFunction*%
%TD*%
%TA.AperFunction,Conductor*%
%TO.N,GND*%
G36*
X141654985Y-117151964D02*
G01*
X142307190Y-117422998D01*
X142378253Y-117452530D01*
X142383169Y-117456376D01*
X142385408Y-117462202D01*
X142384333Y-117468351D01*
X141778672Y-118744417D01*
X141774355Y-118749289D01*
X141768102Y-118751100D01*
X141532898Y-118751100D01*
X141526645Y-118749289D01*
X141522328Y-118744417D01*
X140916666Y-117468351D01*
X140915591Y-117462202D01*
X140917830Y-117456376D01*
X140922745Y-117452530D01*
X141646014Y-117151964D01*
X141650500Y-117151069D01*
X141654985Y-117151964D01*
G37*
%TD.AperFunction*%
%TD*%
%TA.AperFunction,Conductor*%
%TO.N,+5V*%
G36*
X219486432Y-58755284D02*
G01*
X219491714Y-58758867D01*
X219981005Y-59341564D01*
X219983733Y-59349612D01*
X219980296Y-59357383D01*
X219385077Y-59949442D01*
X219376810Y-59952847D01*
X219368553Y-59949420D01*
X219200655Y-59781522D01*
X219199504Y-59780183D01*
X218888758Y-59357897D01*
X218886515Y-59350080D01*
X218889908Y-59342691D01*
X219474483Y-58758116D01*
X219480054Y-58755007D01*
X219486432Y-58755284D01*
G37*
%TD.AperFunction*%
%TD*%
%TA.AperFunction,Conductor*%
%TO.N,Net-(Q4-G)*%
G36*
X213736500Y-76805558D02*
G01*
X214281234Y-77381517D01*
X214284374Y-77388378D01*
X214282674Y-77395729D01*
X213924476Y-77972581D01*
X213919487Y-77977010D01*
X213912888Y-77977992D01*
X213906826Y-77975209D01*
X213438202Y-77564559D01*
X213434395Y-77557814D01*
X213435634Y-77550170D01*
X213716300Y-77034200D01*
X213716300Y-76813598D01*
X213718317Y-76807030D01*
X213723674Y-76802727D01*
X213730522Y-76802173D01*
X213736500Y-76805558D01*
G37*
%TD.AperFunction*%
%TD*%
%TA.AperFunction,Conductor*%
%TO.N,VoltageSensor*%
G36*
X102980677Y-128725487D02*
G01*
X103946179Y-129523621D01*
X103949812Y-129528903D01*
X103950115Y-129535308D01*
X103946997Y-129540911D01*
X103781421Y-129706487D01*
X103776462Y-129709435D01*
X102723037Y-130020524D01*
X102714684Y-130019862D01*
X102708916Y-130013786D01*
X102409092Y-129290925D01*
X102408426Y-129284157D01*
X102411634Y-129278164D01*
X102964959Y-128726221D01*
X102972676Y-128722818D01*
X102980677Y-128725487D01*
G37*
%TD.AperFunction*%
%TD*%
%TA.AperFunction,Conductor*%
%TO.N,+5V*%
G36*
X216486112Y-93171872D02*
G01*
X216652427Y-93338187D01*
X216655568Y-93343889D01*
X216655175Y-93350387D01*
X216181129Y-94680968D01*
X216177542Y-94686076D01*
X216171839Y-94688612D01*
X216165643Y-94687856D01*
X215441687Y-94388962D01*
X215437879Y-94386420D01*
X215435337Y-94382612D01*
X215136443Y-93658656D01*
X215135687Y-93652460D01*
X215138223Y-93646757D01*
X215143327Y-93643172D01*
X216473916Y-93169123D01*
X216480410Y-93168731D01*
X216486112Y-93171872D01*
G37*
%TD.AperFunction*%
%TD*%
%TA.AperFunction,Conductor*%
%TO.N,GPSBat*%
G36*
X88823326Y-105927893D02*
G01*
X89592448Y-106246879D01*
X89598507Y-106252610D01*
X89599210Y-106260920D01*
X89277182Y-107380569D01*
X89274211Y-107385608D01*
X89108516Y-107551303D01*
X89102976Y-107554406D01*
X89096632Y-107554159D01*
X89091351Y-107550634D01*
X88948415Y-107383472D01*
X88222782Y-106534855D01*
X88219984Y-106526803D01*
X88223391Y-106518990D01*
X88810563Y-105930435D01*
X88816557Y-105927226D01*
X88823326Y-105927893D01*
G37*
%TD.AperFunction*%
%TD*%
%TA.AperFunction,Conductor*%
%TO.N,SpareADC1*%
G36*
X149751363Y-148110049D02*
G01*
X149755475Y-148115629D01*
X150077989Y-149043945D01*
X150077941Y-149051759D01*
X150072986Y-149057800D01*
X149293793Y-149528409D01*
X149287770Y-149530094D01*
X149281740Y-149528436D01*
X149277425Y-149523909D01*
X148776599Y-148586813D01*
X148775444Y-148579017D01*
X148779497Y-148572256D01*
X148786919Y-148569600D01*
X149017398Y-148569600D01*
X149017400Y-148569600D01*
X149738129Y-148109606D01*
X149744814Y-148107776D01*
X149751363Y-148110049D01*
G37*
%TD.AperFunction*%
%TD*%
%TA.AperFunction,Conductor*%
%TO.N,GND*%
G36*
X124889094Y-65588545D02*
G01*
X124894520Y-65590951D01*
X124898068Y-65595713D01*
X125195696Y-66332868D01*
X125196224Y-66339977D01*
X125192528Y-66346074D01*
X124598902Y-66862726D01*
X124591221Y-66865600D01*
X124357517Y-66865600D01*
X124351605Y-66863996D01*
X124347314Y-66859626D01*
X124345819Y-66853685D01*
X124368924Y-65595713D01*
X124370352Y-65517960D01*
X124372324Y-65511672D01*
X124377383Y-65507447D01*
X124383921Y-65506627D01*
X124889094Y-65588545D01*
G37*
%TD.AperFunction*%
%TD*%
%TA.AperFunction,Conductor*%
%TO.N,GND*%
G36*
X145844236Y-89196736D02*
G01*
X146129003Y-89482215D01*
X146396177Y-89750059D01*
X146399581Y-89757776D01*
X146396912Y-89765777D01*
X145598779Y-90731279D01*
X145593496Y-90734912D01*
X145587091Y-90735215D01*
X145581488Y-90732097D01*
X145415912Y-90566521D01*
X145412964Y-90561562D01*
X145101875Y-89508135D01*
X145102537Y-89499784D01*
X145108611Y-89494017D01*
X145831474Y-89194192D01*
X145838242Y-89193526D01*
X145844236Y-89196736D01*
G37*
%TD.AperFunction*%
%TD*%
%TA.AperFunction,Conductor*%
%TO.N,+5V*%
G36*
X195341749Y-107816465D02*
G01*
X196617817Y-108422128D01*
X196622689Y-108426445D01*
X196624500Y-108432698D01*
X196624500Y-108667902D01*
X196622689Y-108674155D01*
X196617817Y-108678472D01*
X195341751Y-109284133D01*
X195335602Y-109285208D01*
X195329776Y-109282969D01*
X195325930Y-109278053D01*
X195296398Y-109206990D01*
X195025364Y-108554785D01*
X195024469Y-108550300D01*
X195025364Y-108545814D01*
X195325930Y-107822545D01*
X195329776Y-107817630D01*
X195335602Y-107815391D01*
X195341749Y-107816465D01*
G37*
%TD.AperFunction*%
%TD*%
%TA.AperFunction,Conductor*%
%TO.N,+5V*%
G36*
X121811266Y-148109398D02*
G01*
X121815203Y-148114846D01*
X122137989Y-149043945D01*
X122137941Y-149051759D01*
X122132986Y-149057800D01*
X121354041Y-149528260D01*
X121347928Y-149529945D01*
X121341834Y-149528193D01*
X121337548Y-149523519D01*
X120835973Y-148530374D01*
X120834978Y-148522640D01*
X120839065Y-148515999D01*
X120846417Y-148513400D01*
X121077399Y-148513400D01*
X121077400Y-148513400D01*
X121798423Y-148108484D01*
X121804981Y-148107015D01*
X121811266Y-148109398D01*
G37*
%TD.AperFunction*%
%TD*%
%TA.AperFunction,Conductor*%
%TO.N,+5V*%
G36*
X101412923Y-119010530D02*
G01*
X101416769Y-119015446D01*
X101717334Y-119738710D01*
X101718230Y-119743200D01*
X101717334Y-119747690D01*
X101416769Y-120470953D01*
X101412923Y-120475869D01*
X101407097Y-120478108D01*
X101400948Y-120477033D01*
X100124883Y-119871372D01*
X100120011Y-119867055D01*
X100118200Y-119860802D01*
X100118200Y-119625598D01*
X100120011Y-119619345D01*
X100124883Y-119615028D01*
X101400950Y-119009365D01*
X101407097Y-119008291D01*
X101412923Y-119010530D01*
G37*
%TD.AperFunction*%
%TD*%
%TA.AperFunction,Conductor*%
%TO.N,Net-(Q18-Pad1)*%
G36*
X164731125Y-84026692D02*
G01*
X165453986Y-84326516D01*
X165460062Y-84332284D01*
X165460724Y-84340637D01*
X165149635Y-85394062D01*
X165146687Y-85399021D01*
X164981111Y-85564597D01*
X164975508Y-85567715D01*
X164969103Y-85567412D01*
X164963821Y-85563779D01*
X164165687Y-84598277D01*
X164163018Y-84590276D01*
X164166422Y-84582559D01*
X164718364Y-84029234D01*
X164724357Y-84026026D01*
X164731125Y-84026692D01*
G37*
%TD.AperFunction*%
%TD*%
%TA.AperFunction,Conductor*%
%TO.N,Sense2-4*%
G36*
X153655686Y-78834087D02*
G01*
X154402714Y-79142538D01*
X154406521Y-79145078D01*
X154409062Y-79148886D01*
X154717511Y-79895912D01*
X154718267Y-79902117D01*
X154715720Y-79907825D01*
X154710597Y-79911408D01*
X153335118Y-80397754D01*
X153328633Y-80398134D01*
X153322945Y-80394996D01*
X153156603Y-80228654D01*
X153153465Y-80222966D01*
X153153844Y-80216482D01*
X153640192Y-78840999D01*
X153643774Y-78835879D01*
X153649482Y-78833332D01*
X153655686Y-78834087D01*
G37*
%TD.AperFunction*%
%TD*%
%TA.AperFunction,Conductor*%
%TO.N,RTDMOSI*%
G36*
X230662696Y-123771103D02*
G01*
X231161546Y-124594940D01*
X231163087Y-124602871D01*
X231159121Y-124609910D01*
X231151538Y-124612700D01*
X230922300Y-124612700D01*
X230207982Y-124869325D01*
X230199289Y-124869012D01*
X230193215Y-124862787D01*
X230089757Y-124612700D01*
X229876674Y-124097617D01*
X229875887Y-124091610D01*
X229878210Y-124086014D01*
X229883017Y-124082333D01*
X230648223Y-123766348D01*
X230656339Y-123766047D01*
X230662696Y-123771103D01*
G37*
%TD.AperFunction*%
%TD*%
%TA.AperFunction,Conductor*%
%TO.N,+5V*%
G36*
X216788276Y-85850785D02*
G01*
X217622366Y-86685857D01*
X217625779Y-86693665D01*
X217622990Y-86701718D01*
X216908503Y-87539393D01*
X216904503Y-87542424D01*
X216899601Y-87543500D01*
X216660399Y-87543500D01*
X216655497Y-87542424D01*
X216651497Y-87539393D01*
X215937009Y-86701718D01*
X215934220Y-86693665D01*
X215937632Y-86685858D01*
X216771723Y-85850785D01*
X216776970Y-85847754D01*
X216783030Y-85847754D01*
X216788276Y-85850785D01*
G37*
%TD.AperFunction*%
%TD*%
%TA.AperFunction,Conductor*%
%TO.N,+5V*%
G36*
X76720609Y-105331625D02*
G01*
X76725877Y-105335689D01*
X77403508Y-106274251D01*
X77405655Y-106282346D01*
X77401842Y-106289803D01*
X77394022Y-106292800D01*
X77166900Y-106292800D01*
X76453637Y-106704231D01*
X76447276Y-106705785D01*
X76441076Y-106703677D01*
X76436981Y-106698570D01*
X76119788Y-105931824D01*
X76119126Y-105925064D01*
X76122332Y-105919076D01*
X76708126Y-105334257D01*
X76713976Y-105331090D01*
X76720609Y-105331625D01*
G37*
%TD.AperFunction*%
%TD*%
%TA.AperFunction,Conductor*%
%TO.N,Sense1-4*%
G36*
X204596844Y-68863568D02*
G01*
X204814486Y-69062571D01*
X205059583Y-69286678D01*
X205063272Y-69293672D01*
X205061670Y-69301415D01*
X204543188Y-70149363D01*
X204537972Y-70153945D01*
X204531078Y-70154765D01*
X204524933Y-70151533D01*
X204360498Y-69987098D01*
X204357775Y-69982823D01*
X204106093Y-69290619D01*
X204105756Y-69283722D01*
X204109367Y-69277835D01*
X204581229Y-68863411D01*
X204589066Y-68860504D01*
X204596844Y-68863568D01*
G37*
%TD.AperFunction*%
%TD*%
%TA.AperFunction,Conductor*%
%TO.N,Sense1-2*%
G36*
X176519986Y-78834087D02*
G01*
X177267014Y-79142538D01*
X177270821Y-79145078D01*
X177273362Y-79148886D01*
X177581811Y-79895912D01*
X177582567Y-79902117D01*
X177580020Y-79907825D01*
X177574897Y-79911408D01*
X176199418Y-80397754D01*
X176192933Y-80398134D01*
X176187245Y-80394996D01*
X176020903Y-80228654D01*
X176017765Y-80222966D01*
X176018144Y-80216482D01*
X176504492Y-78840999D01*
X176508074Y-78835879D01*
X176513782Y-78833332D01*
X176519986Y-78834087D01*
G37*
%TD.AperFunction*%
%TD*%
%TA.AperFunction,Conductor*%
%TO.N,GND*%
G36*
X189801855Y-65811242D02*
G01*
X189818539Y-65818131D01*
X190525812Y-66110137D01*
X190529620Y-66112679D01*
X190532162Y-66116487D01*
X190831056Y-66840443D01*
X190831812Y-66846639D01*
X190829276Y-66852342D01*
X190824168Y-66855929D01*
X189493587Y-67329975D01*
X189487089Y-67330368D01*
X189481387Y-67327227D01*
X189315072Y-67160912D01*
X189311931Y-67155210D01*
X189312323Y-67148716D01*
X189786372Y-65818127D01*
X189789957Y-65813023D01*
X189795660Y-65810487D01*
X189801855Y-65811242D01*
G37*
%TD.AperFunction*%
%TD*%
%TA.AperFunction,Conductor*%
%TO.N,GND*%
G36*
X210759511Y-124265702D02*
G01*
X210925087Y-124431278D01*
X210928035Y-124436237D01*
X211239124Y-125489662D01*
X211238462Y-125498015D01*
X211232386Y-125503783D01*
X210509527Y-125803606D01*
X210502757Y-125804273D01*
X210496762Y-125801062D01*
X210186139Y-125489662D01*
X209944822Y-125247740D01*
X209941418Y-125240023D01*
X209944086Y-125232023D01*
X210742223Y-124266517D01*
X210747503Y-124262887D01*
X210753908Y-124262584D01*
X210759511Y-124265702D01*
G37*
%TD.AperFunction*%
%TD*%
%TA.AperFunction,Conductor*%
%TO.N,GND*%
G36*
X96327130Y-76130316D02*
G01*
X96837603Y-76639819D01*
X96840638Y-76645068D01*
X96840638Y-76651132D01*
X96837603Y-76656381D01*
X96327130Y-77165883D01*
X96319645Y-77169276D01*
X96311774Y-77166909D01*
X95799508Y-76776610D01*
X95796115Y-76772498D01*
X95794900Y-76767305D01*
X95794900Y-76528895D01*
X95796115Y-76523702D01*
X95799508Y-76519589D01*
X96311776Y-76129289D01*
X96319645Y-76126923D01*
X96327130Y-76130316D01*
G37*
%TD.AperFunction*%
%TD*%
%TA.AperFunction,Conductor*%
%TO.N,SDCS*%
G36*
X178363167Y-120320804D02*
G01*
X178744309Y-120543476D01*
X179084799Y-120742400D01*
X179084800Y-120742400D01*
X179312010Y-120742400D01*
X179319821Y-120745389D01*
X179323641Y-120752830D01*
X179321517Y-120760919D01*
X178639784Y-121711365D01*
X178634517Y-121715451D01*
X178627874Y-121715997D01*
X178622011Y-121712826D01*
X178026634Y-121118425D01*
X178023426Y-121112435D01*
X178024088Y-121105675D01*
X178346457Y-120326431D01*
X178350570Y-120321313D01*
X178356795Y-120319217D01*
X178363167Y-120320804D01*
G37*
%TD.AperFunction*%
%TD*%
%TA.AperFunction,Conductor*%
%TO.N,OUTPUTSiren*%
G36*
X161001101Y-87592406D02*
G01*
X161587043Y-87873962D01*
X162034772Y-88089103D01*
X162040633Y-88095469D01*
X162040517Y-88104121D01*
X161741593Y-88826762D01*
X161737277Y-88832021D01*
X161730766Y-88833990D01*
X160948634Y-88833012D01*
X160941021Y-88830184D01*
X160937083Y-88823081D01*
X160750760Y-87604722D01*
X160751654Y-87598156D01*
X160755971Y-87593129D01*
X160762326Y-87591253D01*
X160996035Y-87591253D01*
X161001101Y-87592406D01*
G37*
%TD.AperFunction*%
%TD*%
%TA.AperFunction,Conductor*%
%TO.N,Sense2-7*%
G36*
X139582521Y-129636551D02*
G01*
X139585400Y-129644237D01*
X139585400Y-129872601D01*
X139845557Y-130555924D01*
X139845365Y-130564723D01*
X139839095Y-130570899D01*
X139120318Y-130868224D01*
X139114311Y-130869011D01*
X139108715Y-130866688D01*
X139105032Y-130861878D01*
X138808048Y-130142548D01*
X138807686Y-130134627D01*
X138812457Y-130128293D01*
X139256069Y-129838062D01*
X139567294Y-129634446D01*
X139575302Y-129632647D01*
X139582521Y-129636551D01*
G37*
%TD.AperFunction*%
%TD*%
%TA.AperFunction,Conductor*%
%TO.N,GND*%
G36*
X123373860Y-104377462D02*
G01*
X123539584Y-104543186D01*
X123542530Y-104548138D01*
X123871809Y-105660424D01*
X123871151Y-105668780D01*
X123865072Y-105674552D01*
X123096026Y-105993506D01*
X123089257Y-105994173D01*
X123083261Y-105990962D01*
X122496088Y-105402406D01*
X122492680Y-105394596D01*
X122495474Y-105386545D01*
X123356694Y-104378134D01*
X123361971Y-104374608D01*
X123368318Y-104374358D01*
X123373860Y-104377462D01*
G37*
%TD.AperFunction*%
%TD*%
%TA.AperFunction,Conductor*%
%TO.N,+VDC*%
G36*
X152859255Y-87135242D02*
G01*
X152875939Y-87142131D01*
X153583212Y-87434137D01*
X153587020Y-87436679D01*
X153589562Y-87440487D01*
X153888456Y-88164443D01*
X153889212Y-88170639D01*
X153886676Y-88176342D01*
X153881568Y-88179929D01*
X152550987Y-88653975D01*
X152544489Y-88654368D01*
X152538787Y-88651227D01*
X152372472Y-88484912D01*
X152369331Y-88479210D01*
X152369723Y-88472716D01*
X152843772Y-87142127D01*
X152847357Y-87137023D01*
X152853060Y-87134487D01*
X152859255Y-87135242D01*
G37*
%TD.AperFunction*%
%TD*%
%TA.AperFunction,Conductor*%
%TO.N,GND*%
G36*
X208100462Y-53856864D02*
G01*
X208105421Y-53859812D01*
X208270997Y-54025388D01*
X208274115Y-54030991D01*
X208273812Y-54037396D01*
X208270179Y-54042679D01*
X207304677Y-54840812D01*
X207296676Y-54843481D01*
X207288959Y-54840077D01*
X207021115Y-54572903D01*
X206735636Y-54288136D01*
X206732426Y-54282142D01*
X206733092Y-54275374D01*
X207032917Y-53552511D01*
X207038684Y-53546437D01*
X207047035Y-53545775D01*
X208100462Y-53856864D01*
G37*
%TD.AperFunction*%
%TD*%
%TA.AperFunction,Conductor*%
%TO.N,GND*%
G36*
X199015782Y-66276756D02*
G01*
X199020072Y-66281997D01*
X199317810Y-67001773D01*
X199318472Y-67008535D01*
X199315264Y-67014525D01*
X198764313Y-67564503D01*
X198758668Y-67567626D01*
X198752227Y-67567282D01*
X198746947Y-67563577D01*
X198086097Y-66745754D01*
X198083526Y-66737576D01*
X198087221Y-66729840D01*
X198095197Y-66726700D01*
X198320700Y-66726700D01*
X199002820Y-66276701D01*
X199009308Y-66274769D01*
X199015782Y-66276756D01*
G37*
%TD.AperFunction*%
%TD*%
%TA.AperFunction,Conductor*%
%TO.N,GND*%
G36*
X124526525Y-69237692D02*
G01*
X125249386Y-69537516D01*
X125255462Y-69543284D01*
X125256124Y-69551637D01*
X124945035Y-70605062D01*
X124942087Y-70610021D01*
X124776511Y-70775597D01*
X124770908Y-70778715D01*
X124764503Y-70778412D01*
X124759221Y-70774779D01*
X123961087Y-69809277D01*
X123958418Y-69801276D01*
X123961822Y-69793559D01*
X124513764Y-69240234D01*
X124519757Y-69237026D01*
X124526525Y-69237692D01*
G37*
%TD.AperFunction*%
%TD*%
%TA.AperFunction,Conductor*%
%TO.N,+5V*%
G36*
X105217805Y-135472752D02*
G01*
X105417674Y-135855264D01*
X105444373Y-135906359D01*
X105445568Y-135913548D01*
X105442276Y-135920050D01*
X105277650Y-136084676D01*
X105271148Y-136087968D01*
X105263960Y-136086773D01*
X104830352Y-135860205D01*
X104824780Y-135853846D01*
X104824947Y-135845393D01*
X104933136Y-135581914D01*
X104935686Y-135578086D01*
X104939515Y-135575536D01*
X105202993Y-135467347D01*
X105211446Y-135467180D01*
X105217805Y-135472752D01*
G37*
%TD.AperFunction*%
%TD*%
%TA.AperFunction,Conductor*%
%TO.N,Sense1-11*%
G36*
X147315733Y-109781870D02*
G01*
X147319971Y-109787799D01*
X147466370Y-110254612D01*
X147465814Y-110263049D01*
X147459717Y-110268909D01*
X147196910Y-110378715D01*
X147192399Y-110379619D01*
X147187888Y-110378715D01*
X146925081Y-110268908D01*
X146918985Y-110263049D01*
X146918429Y-110254613D01*
X147064828Y-109787799D01*
X147069067Y-109781870D01*
X147075993Y-109779600D01*
X147308807Y-109779600D01*
X147315733Y-109781870D01*
G37*
%TD.AperFunction*%
%TD*%
%TA.AperFunction,Conductor*%
%TO.N,Sense1-2*%
G36*
X174240103Y-86156076D02*
G01*
X174244103Y-86159107D01*
X174958590Y-86996781D01*
X174961379Y-87004834D01*
X174957966Y-87012642D01*
X174123878Y-87847712D01*
X174118630Y-87850745D01*
X174112570Y-87850745D01*
X174107322Y-87847712D01*
X173273233Y-87012642D01*
X173269820Y-87004834D01*
X173272608Y-86996783D01*
X173987096Y-86159107D01*
X173991097Y-86156076D01*
X173995999Y-86155000D01*
X174235201Y-86155000D01*
X174240103Y-86156076D01*
G37*
%TD.AperFunction*%
%TD*%
%TA.AperFunction,Conductor*%
%TO.N,+5V*%
G36*
X216904503Y-84144576D02*
G01*
X216908503Y-84147607D01*
X217622990Y-84985281D01*
X217625779Y-84993334D01*
X217622366Y-85001142D01*
X216788278Y-85836212D01*
X216783030Y-85839245D01*
X216776970Y-85839245D01*
X216771722Y-85836212D01*
X215937633Y-85001142D01*
X215934220Y-84993334D01*
X215937008Y-84985283D01*
X216651496Y-84147607D01*
X216655497Y-84144576D01*
X216660399Y-84143500D01*
X216899601Y-84143500D01*
X216904503Y-84144576D01*
G37*
%TD.AperFunction*%
%TD*%
%TA.AperFunction,Conductor*%
%TO.N,RTDSCLK*%
G36*
X185501000Y-103584482D02*
G01*
X185504000Y-103592305D01*
X185504000Y-103819400D01*
X185917393Y-104532651D01*
X185918959Y-104539017D01*
X185916856Y-104545226D01*
X185911743Y-104549329D01*
X185145027Y-104866510D01*
X185138264Y-104867173D01*
X185132274Y-104863965D01*
X184547448Y-104278164D01*
X184544281Y-104272317D01*
X184544812Y-104265687D01*
X184548867Y-104260422D01*
X185485442Y-103582825D01*
X185493539Y-103580671D01*
X185501000Y-103584482D01*
G37*
%TD.AperFunction*%
%TD*%
%TA.AperFunction,Conductor*%
%TO.N,OUTPUTSiren*%
G36*
X160881428Y-85261702D02*
G01*
X161352399Y-85676231D01*
X161356077Y-85682414D01*
X161355441Y-85689580D01*
X161001725Y-86523767D01*
X160997413Y-86528955D01*
X160990953Y-86530900D01*
X160756447Y-86530900D01*
X160749987Y-86528955D01*
X160745675Y-86523767D01*
X160391958Y-85689580D01*
X160391322Y-85682414D01*
X160394998Y-85676233D01*
X160865971Y-85261702D01*
X160873700Y-85258786D01*
X160881428Y-85261702D01*
G37*
%TD.AperFunction*%
%TD*%
%TA.AperFunction,Conductor*%
%TO.N,Net-(Q14-Pad1)*%
G36*
X148926581Y-93795424D02*
G01*
X148931696Y-93800530D01*
X149614948Y-95138283D01*
X149616193Y-95144511D01*
X149614001Y-95150472D01*
X149609018Y-95154409D01*
X148886792Y-95454542D01*
X148882306Y-95455438D01*
X148877819Y-95454545D01*
X148154185Y-95154401D01*
X148149200Y-95150467D01*
X148147004Y-95144507D01*
X148148245Y-95138279D01*
X148746764Y-93964624D01*
X148748910Y-93961672D01*
X148913005Y-93797577D01*
X148919442Y-93794297D01*
X148926581Y-93795424D01*
G37*
%TD.AperFunction*%
%TD*%
%TA.AperFunction,Conductor*%
%TO.N,GND*%
G36*
X212574530Y-59239316D02*
G01*
X213085003Y-59748819D01*
X213088038Y-59754068D01*
X213088038Y-59760132D01*
X213085003Y-59765381D01*
X212574530Y-60274883D01*
X212567045Y-60278276D01*
X212559174Y-60275909D01*
X212046908Y-59885610D01*
X212043515Y-59881498D01*
X212042300Y-59876305D01*
X212042300Y-59637895D01*
X212043515Y-59632702D01*
X212046908Y-59628589D01*
X212559176Y-59238289D01*
X212567045Y-59235923D01*
X212574530Y-59239316D01*
G37*
%TD.AperFunction*%
%TD*%
%TA.AperFunction,Conductor*%
%TO.N,GND*%
G36*
X189521896Y-74287904D02*
G01*
X190525091Y-74797095D01*
X190530769Y-74803467D01*
X190530608Y-74812000D01*
X190231593Y-75534862D01*
X190227277Y-75540121D01*
X190220766Y-75542090D01*
X189438895Y-75541112D01*
X189431170Y-75538186D01*
X189427303Y-75530886D01*
X189271071Y-74299810D01*
X189272091Y-74293359D01*
X189276408Y-74288460D01*
X189282679Y-74286637D01*
X189516601Y-74286637D01*
X189521896Y-74287904D01*
G37*
%TD.AperFunction*%
%TD*%
%TA.AperFunction,Conductor*%
%TO.N,Net-(IC17-C2+)*%
G36*
X116502268Y-112957852D02*
G01*
X117437854Y-113323511D01*
X117442777Y-113327157D01*
X117445183Y-113332791D01*
X117444412Y-113338868D01*
X117229562Y-113859905D01*
X117227018Y-113863718D01*
X117223205Y-113866262D01*
X116702168Y-114081112D01*
X116696091Y-114081883D01*
X116690457Y-114079477D01*
X116686811Y-114074554D01*
X116321152Y-113138968D01*
X116320597Y-113132311D01*
X116323774Y-113126438D01*
X116489738Y-112960474D01*
X116495611Y-112957297D01*
X116502268Y-112957852D01*
G37*
%TD.AperFunction*%
%TD*%
%TA.AperFunction,Conductor*%
%TO.N,/CAN Bus/CAN_INT*%
G36*
X210509236Y-121760736D02*
G01*
X210794003Y-122046215D01*
X211061177Y-122314059D01*
X211064581Y-122321776D01*
X211061912Y-122329777D01*
X210263779Y-123295279D01*
X210258496Y-123298912D01*
X210252091Y-123299215D01*
X210246488Y-123296097D01*
X210080912Y-123130521D01*
X210077964Y-123125562D01*
X209766875Y-122072135D01*
X209767537Y-122063784D01*
X209773611Y-122058017D01*
X210496474Y-121758192D01*
X210503242Y-121757526D01*
X210509236Y-121760736D01*
G37*
%TD.AperFunction*%
%TD*%
%TA.AperFunction,Conductor*%
%TO.N,+5V*%
G36*
X163255185Y-109294564D02*
G01*
X163978201Y-109595025D01*
X163983168Y-109598940D01*
X163985371Y-109604868D01*
X163984168Y-109611077D01*
X163346938Y-110880883D01*
X163342625Y-110885592D01*
X163336481Y-110887335D01*
X163101250Y-110887335D01*
X163094906Y-110885466D01*
X163090589Y-110880455D01*
X162516566Y-109610840D01*
X162515597Y-109604744D01*
X162517864Y-109599004D01*
X162522733Y-109595218D01*
X163246214Y-109294564D01*
X163250700Y-109293669D01*
X163255185Y-109294564D01*
G37*
%TD.AperFunction*%
%TD*%
%TA.AperFunction,Conductor*%
%TO.N,Sense1-11*%
G36*
X172709986Y-59784087D02*
G01*
X173457014Y-60092538D01*
X173460821Y-60095078D01*
X173463362Y-60098886D01*
X173771811Y-60845912D01*
X173772567Y-60852117D01*
X173770020Y-60857825D01*
X173764897Y-60861408D01*
X172389418Y-61347754D01*
X172382933Y-61348134D01*
X172377245Y-61344996D01*
X172210903Y-61178654D01*
X172207765Y-61172966D01*
X172208144Y-61166482D01*
X172694492Y-59790999D01*
X172698074Y-59785879D01*
X172703782Y-59783332D01*
X172709986Y-59784087D01*
G37*
%TD.AperFunction*%
%TD*%
%TA.AperFunction,Conductor*%
%TO.N,GND*%
G36*
X210203936Y-70170236D02*
G01*
X210488703Y-70455715D01*
X210755877Y-70723559D01*
X210759281Y-70731276D01*
X210756612Y-70739277D01*
X209958479Y-71704779D01*
X209953196Y-71708412D01*
X209946791Y-71708715D01*
X209941188Y-71705597D01*
X209775612Y-71540021D01*
X209772664Y-71535062D01*
X209461575Y-70481635D01*
X209462237Y-70473284D01*
X209468311Y-70467517D01*
X210191174Y-70167692D01*
X210197942Y-70167026D01*
X210203936Y-70170236D01*
G37*
%TD.AperFunction*%
%TD*%
%TA.AperFunction,Conductor*%
%TO.N,SpareADC1*%
G36*
X125608649Y-130457065D02*
G01*
X126884717Y-131062728D01*
X126889589Y-131067045D01*
X126891400Y-131073298D01*
X126891400Y-131308502D01*
X126889589Y-131314755D01*
X126884717Y-131319072D01*
X125608651Y-131924733D01*
X125602502Y-131925808D01*
X125596676Y-131923569D01*
X125592830Y-131918653D01*
X125563298Y-131847590D01*
X125292264Y-131195385D01*
X125291369Y-131190900D01*
X125292264Y-131186414D01*
X125592830Y-130463145D01*
X125596676Y-130458230D01*
X125602502Y-130455991D01*
X125608649Y-130457065D01*
G37*
%TD.AperFunction*%
%TD*%
%TA.AperFunction,Conductor*%
%TO.N,Sense2-4*%
G36*
X139582521Y-125042851D02*
G01*
X139585400Y-125050537D01*
X139585400Y-125278901D01*
X139845557Y-125962224D01*
X139845365Y-125971023D01*
X139839095Y-125977199D01*
X139120318Y-126274524D01*
X139114311Y-126275311D01*
X139108715Y-126272988D01*
X139105032Y-126268178D01*
X138808048Y-125548848D01*
X138807686Y-125540927D01*
X138812457Y-125534593D01*
X139256069Y-125244362D01*
X139567294Y-125040746D01*
X139575302Y-125038947D01*
X139582521Y-125042851D01*
G37*
%TD.AperFunction*%
%TD*%
%TA.AperFunction,Conductor*%
%TO.N,CAN_TX_STBY*%
G36*
X178634514Y-112888360D02*
G01*
X178639781Y-112892452D01*
X179321550Y-113844890D01*
X179323666Y-113852978D01*
X179319844Y-113860413D01*
X179312036Y-113863400D01*
X179084799Y-113863400D01*
X178363159Y-114283031D01*
X178356790Y-114284607D01*
X178350574Y-114282506D01*
X178346467Y-114277390D01*
X178175201Y-113863400D01*
X178024088Y-113498124D01*
X178023426Y-113491364D01*
X178026632Y-113485376D01*
X178622003Y-112890980D01*
X178627868Y-112887811D01*
X178634514Y-112888360D01*
G37*
%TD.AperFunction*%
%TD*%
%TA.AperFunction,Conductor*%
%TO.N,GND*%
G36*
X99871285Y-129285264D02*
G01*
X100523490Y-129556298D01*
X100594553Y-129585830D01*
X100599469Y-129589676D01*
X100601708Y-129595502D01*
X100600633Y-129601651D01*
X99994972Y-130877717D01*
X99990655Y-130882589D01*
X99984402Y-130884400D01*
X99749198Y-130884400D01*
X99742945Y-130882589D01*
X99738628Y-130877717D01*
X99132966Y-129601651D01*
X99131891Y-129595502D01*
X99134130Y-129589676D01*
X99139045Y-129585830D01*
X99862314Y-129285264D01*
X99866800Y-129284369D01*
X99871285Y-129285264D01*
G37*
%TD.AperFunction*%
%TD*%
%TA.AperFunction,Conductor*%
%TO.N,OUTPUTLED1*%
G36*
X147341984Y-87974623D02*
G01*
X148672570Y-88448671D01*
X148677676Y-88452257D01*
X148680212Y-88457960D01*
X148679456Y-88464156D01*
X148380562Y-89188112D01*
X148378020Y-89191920D01*
X148374212Y-89194462D01*
X147650256Y-89493356D01*
X147644060Y-89494112D01*
X147638357Y-89491576D01*
X147634771Y-89486470D01*
X147160723Y-88155884D01*
X147160331Y-88149389D01*
X147163470Y-88143689D01*
X147329789Y-87977370D01*
X147335489Y-87974231D01*
X147341984Y-87974623D01*
G37*
%TD.AperFunction*%
%TD*%
%TA.AperFunction,Conductor*%
%TO.N,GND*%
G36*
X210507485Y-125806764D02*
G01*
X211159690Y-126077798D01*
X211230753Y-126107330D01*
X211235669Y-126111176D01*
X211237908Y-126117002D01*
X211236833Y-126123151D01*
X210631172Y-127399217D01*
X210626855Y-127404089D01*
X210620602Y-127405900D01*
X210385398Y-127405900D01*
X210379145Y-127404089D01*
X210374828Y-127399217D01*
X209769166Y-126123151D01*
X209768091Y-126117002D01*
X209770330Y-126111176D01*
X209775245Y-126107330D01*
X210498514Y-125806764D01*
X210503000Y-125805869D01*
X210507485Y-125806764D01*
G37*
%TD.AperFunction*%
%TD*%
%TA.AperFunction,Conductor*%
%TO.N,RTDMISO*%
G36*
X184878589Y-142719692D02*
G01*
X184884320Y-142725751D01*
X185203306Y-143494873D01*
X185203973Y-143501642D01*
X185200762Y-143507638D01*
X184612210Y-144094807D01*
X184604396Y-144098215D01*
X184596343Y-144095416D01*
X183894016Y-143494873D01*
X183580564Y-143226847D01*
X183577040Y-143221567D01*
X183576793Y-143215223D01*
X183579894Y-143209685D01*
X183745593Y-143043986D01*
X183750628Y-143041017D01*
X184870280Y-142718989D01*
X184878589Y-142719692D01*
G37*
%TD.AperFunction*%
%TD*%
%TA.AperFunction,Conductor*%
%TO.N,+5V*%
G36*
X205093442Y-118124523D02*
G01*
X205097028Y-118129630D01*
X205465295Y-119163304D01*
X205571075Y-119460212D01*
X205571468Y-119466710D01*
X205568327Y-119472412D01*
X205402012Y-119638727D01*
X205396310Y-119641868D01*
X205389812Y-119641475D01*
X204059230Y-119167428D01*
X204054123Y-119163842D01*
X204051587Y-119158139D01*
X204052342Y-119151944D01*
X204351238Y-118427984D01*
X204353779Y-118424179D01*
X204357584Y-118421638D01*
X205081544Y-118122742D01*
X205087739Y-118121987D01*
X205093442Y-118124523D01*
G37*
%TD.AperFunction*%
%TD*%
%TA.AperFunction,Conductor*%
%TO.N,RTDMISO*%
G36*
X185140585Y-107415510D02*
G01*
X185144268Y-107420320D01*
X185460315Y-108185679D01*
X185460647Y-108193702D01*
X185455730Y-108200049D01*
X185043024Y-108459599D01*
X184663427Y-108698325D01*
X184655459Y-108699991D01*
X184648333Y-108696054D01*
X184645500Y-108688421D01*
X184645500Y-108459599D01*
X184518883Y-108145302D01*
X184357833Y-107745531D01*
X184357899Y-107736629D01*
X184364211Y-107730350D01*
X185128983Y-107413974D01*
X185134989Y-107413187D01*
X185140585Y-107415510D01*
G37*
%TD.AperFunction*%
%TD*%
%TA.AperFunction,Conductor*%
%TO.N,GND*%
G36*
X123932655Y-80624311D02*
G01*
X123936972Y-80629183D01*
X124542633Y-81905248D01*
X124543708Y-81911397D01*
X124541469Y-81917223D01*
X124536553Y-81921069D01*
X123813290Y-82221634D01*
X123808800Y-82222530D01*
X123804310Y-82221634D01*
X123081046Y-81921069D01*
X123076130Y-81917223D01*
X123073891Y-81911397D01*
X123074965Y-81905250D01*
X123680628Y-80629182D01*
X123684945Y-80624311D01*
X123691198Y-80622500D01*
X123926402Y-80622500D01*
X123932655Y-80624311D01*
G37*
%TD.AperFunction*%
%TD*%
%TA.AperFunction,Conductor*%
%TO.N,Net-(Q2-G)*%
G36*
X214182600Y-58578358D02*
G01*
X214727334Y-59154317D01*
X214730474Y-59161178D01*
X214728774Y-59168529D01*
X214370576Y-59745381D01*
X214365587Y-59749810D01*
X214358988Y-59750792D01*
X214352926Y-59748009D01*
X213884302Y-59337359D01*
X213880495Y-59330614D01*
X213881734Y-59322970D01*
X214162400Y-58807000D01*
X214162400Y-58586398D01*
X214164417Y-58579830D01*
X214169774Y-58575527D01*
X214176622Y-58574973D01*
X214182600Y-58578358D01*
G37*
%TD.AperFunction*%
%TD*%
%TA.AperFunction,Conductor*%
%TO.N,+5V*%
G36*
X226349764Y-62895629D02*
G01*
X226801188Y-63070128D01*
X227321250Y-63271158D01*
X227326196Y-63274797D01*
X227328618Y-63280440D01*
X227327848Y-63286532D01*
X227105362Y-63826007D01*
X227102819Y-63829819D01*
X227099007Y-63832362D01*
X226559532Y-64054848D01*
X226553440Y-64055618D01*
X226547797Y-64053196D01*
X226544158Y-64048250D01*
X226168630Y-63076765D01*
X226168096Y-63070128D01*
X226171268Y-63064276D01*
X226337276Y-62898268D01*
X226343128Y-62895096D01*
X226349764Y-62895629D01*
G37*
%TD.AperFunction*%
%TD*%
%TA.AperFunction,Conductor*%
%TO.N,GND*%
G36*
X124458832Y-90403655D02*
G01*
X124464098Y-90407127D01*
X124973926Y-90994459D01*
X124976578Y-90999910D01*
X124976146Y-91005956D01*
X124972748Y-91010975D01*
X124463781Y-91451567D01*
X124455956Y-91454420D01*
X124448217Y-91451345D01*
X123910067Y-90957895D01*
X123906765Y-90952624D01*
X123906630Y-90946406D01*
X123909699Y-90941000D01*
X124077838Y-90772862D01*
X124447024Y-90406490D01*
X124452529Y-90403421D01*
X124458832Y-90403655D01*
G37*
%TD.AperFunction*%
%TD*%
%TA.AperFunction,Conductor*%
%TO.N,RTDSCLK*%
G36*
X198235088Y-85781265D02*
G01*
X199004492Y-86100942D01*
X199009419Y-86104803D01*
X199011652Y-86110651D01*
X199010550Y-86116813D01*
X198358786Y-87473766D01*
X198354469Y-87478603D01*
X198348239Y-87480400D01*
X198112961Y-87480400D01*
X198106731Y-87478603D01*
X198102414Y-87473766D01*
X197450649Y-86116813D01*
X197449547Y-86110651D01*
X197451780Y-86104803D01*
X197456705Y-86100942D01*
X198226112Y-85781264D01*
X198230599Y-85780370D01*
X198235088Y-85781265D01*
G37*
%TD.AperFunction*%
%TD*%
%TA.AperFunction,Conductor*%
%TO.N,GND*%
G36*
X84541025Y-65819288D02*
G01*
X85260160Y-66116761D01*
X85265500Y-66121202D01*
X85267382Y-66127890D01*
X85265140Y-66134465D01*
X84767900Y-66816399D01*
X84767900Y-67040967D01*
X84764683Y-67049025D01*
X84756800Y-67052652D01*
X84748587Y-67049852D01*
X83978702Y-66390199D01*
X83975185Y-66384921D01*
X83974938Y-66378583D01*
X83978033Y-66373050D01*
X84528275Y-65821834D01*
X84534264Y-65818627D01*
X84541025Y-65819288D01*
G37*
%TD.AperFunction*%
%TD*%
%TA.AperFunction,Conductor*%
%TO.N,+5V*%
G36*
X220248325Y-67978270D02*
G01*
X220414329Y-68144274D01*
X220417503Y-68150128D01*
X220416969Y-68156765D01*
X220041441Y-69128250D01*
X220037802Y-69133196D01*
X220032159Y-69135618D01*
X220026067Y-69134848D01*
X219486592Y-68912362D01*
X219482780Y-68909819D01*
X219480237Y-68906007D01*
X219257751Y-68366532D01*
X219256981Y-68360440D01*
X219259403Y-68354797D01*
X219264347Y-68351159D01*
X220235835Y-67975629D01*
X220242471Y-67975096D01*
X220248325Y-67978270D01*
G37*
%TD.AperFunction*%
%TD*%
%TA.AperFunction,Conductor*%
%TO.N,GND*%
G36*
X103565084Y-144768223D02*
G01*
X104895670Y-145242271D01*
X104900776Y-145245857D01*
X104903312Y-145251560D01*
X104902556Y-145257756D01*
X104603662Y-145981712D01*
X104601120Y-145985520D01*
X104597312Y-145988062D01*
X103873356Y-146286956D01*
X103867160Y-146287712D01*
X103861457Y-146285176D01*
X103857871Y-146280070D01*
X103383823Y-144949484D01*
X103383431Y-144942989D01*
X103386570Y-144937289D01*
X103552889Y-144770970D01*
X103558589Y-144767831D01*
X103565084Y-144768223D01*
G37*
%TD.AperFunction*%
%TD*%
%TA.AperFunction,Conductor*%
%TO.N,GND*%
G36*
X116868186Y-136197964D02*
G01*
X117589906Y-136497887D01*
X117595108Y-136502137D01*
X117597115Y-136508548D01*
X117595266Y-136515005D01*
X116801153Y-137753722D01*
X116796916Y-137757674D01*
X116791303Y-137759108D01*
X116556105Y-137759108D01*
X116549279Y-137756911D01*
X116545017Y-137751143D01*
X116128082Y-136513595D01*
X116128516Y-136505025D01*
X116134679Y-136499056D01*
X116859215Y-136197963D01*
X116863699Y-136197069D01*
X116868186Y-136197964D01*
G37*
%TD.AperFunction*%
%TD*%
%TA.AperFunction,Conductor*%
%TO.N,Net-(Q24-G)*%
G36*
X197520152Y-66708827D02*
G01*
X197523626Y-66714243D01*
X197912865Y-68009852D01*
X197913360Y-68013218D01*
X197913360Y-68244891D01*
X197911058Y-68251860D01*
X197905058Y-68256087D01*
X197897721Y-68255908D01*
X196486214Y-67751237D01*
X196481113Y-67747647D01*
X196478581Y-67741947D01*
X196479337Y-67735756D01*
X196777946Y-67012488D01*
X196780485Y-67008685D01*
X196784289Y-67006143D01*
X197507953Y-66706796D01*
X197514341Y-66706068D01*
X197520152Y-66708827D01*
G37*
%TD.AperFunction*%
%TD*%
%TA.AperFunction,Conductor*%
%TO.N,CarbCS*%
G36*
X171059169Y-139370897D02*
G01*
X171063486Y-139375734D01*
X171715250Y-140732686D01*
X171716352Y-140738848D01*
X171714119Y-140744696D01*
X171709192Y-140748557D01*
X170939789Y-141068234D01*
X170935300Y-141069129D01*
X170930811Y-141068234D01*
X170161407Y-140748557D01*
X170156480Y-140744696D01*
X170154247Y-140738848D01*
X170155349Y-140732686D01*
X170807114Y-139375734D01*
X170811431Y-139370897D01*
X170817661Y-139369100D01*
X171052939Y-139369100D01*
X171059169Y-139370897D01*
G37*
%TD.AperFunction*%
%TD*%
%TA.AperFunction,Conductor*%
%TO.N,GND*%
G36*
X195150951Y-49186035D02*
G01*
X195702164Y-49736274D01*
X195705372Y-49742264D01*
X195704710Y-49749026D01*
X195407239Y-50468158D01*
X195402797Y-50473500D01*
X195396109Y-50475382D01*
X195389534Y-50473140D01*
X194707600Y-49975900D01*
X194483033Y-49975900D01*
X194474975Y-49972683D01*
X194471348Y-49964800D01*
X194474148Y-49956587D01*
X194662916Y-49736274D01*
X195133801Y-49186700D01*
X195139078Y-49183185D01*
X195145416Y-49182938D01*
X195150951Y-49186035D01*
G37*
%TD.AperFunction*%
%TD*%
%TA.AperFunction,Conductor*%
%TO.N,MOSI*%
G36*
X226587424Y-98993688D02*
G01*
X227260903Y-99272297D01*
X227354143Y-99310870D01*
X227359256Y-99314973D01*
X227361359Y-99321182D01*
X227359793Y-99327548D01*
X226946400Y-100040800D01*
X226946400Y-100267895D01*
X226943400Y-100275718D01*
X226935939Y-100279529D01*
X226927842Y-100277374D01*
X225991269Y-99599779D01*
X225987212Y-99594512D01*
X225986681Y-99587882D01*
X225989846Y-99582036D01*
X226574676Y-98996232D01*
X226580664Y-98993026D01*
X226587424Y-98993688D01*
G37*
%TD.AperFunction*%
%TD*%
%TA.AperFunction,Conductor*%
%TO.N,Sense1-3*%
G36*
X151348450Y-111444823D02*
G01*
X151513076Y-111609449D01*
X151516368Y-111615951D01*
X151515173Y-111623140D01*
X151288606Y-112056746D01*
X151282246Y-112062319D01*
X151273792Y-112062151D01*
X151010315Y-111953963D01*
X151006486Y-111951413D01*
X151003936Y-111947584D01*
X150895748Y-111684107D01*
X150895580Y-111675653D01*
X150901151Y-111669294D01*
X151334763Y-111442725D01*
X151341948Y-111441531D01*
X151348450Y-111444823D01*
G37*
%TD.AperFunction*%
%TD*%
%TA.AperFunction,Conductor*%
%TO.N,+5V*%
G36*
X202179275Y-109211278D02*
G01*
X202183480Y-109215054D01*
X202407628Y-109546186D01*
X202409587Y-109553843D01*
X202406232Y-109560999D01*
X202204346Y-109763837D01*
X202200525Y-109766395D01*
X202196014Y-109767283D01*
X201913186Y-109766340D01*
X201907177Y-109764656D01*
X201902889Y-109760122D01*
X201901541Y-109754031D01*
X201929420Y-109221001D01*
X201933050Y-109213127D01*
X201941104Y-109209913D01*
X202173791Y-109209913D01*
X202179275Y-109211278D01*
G37*
%TD.AperFunction*%
%TD*%
%TA.AperFunction,Conductor*%
%TO.N,MISO*%
G36*
X225584400Y-125342782D02*
G01*
X225587400Y-125350605D01*
X225587400Y-125577700D01*
X226000793Y-126290951D01*
X226002359Y-126297317D01*
X226000256Y-126303526D01*
X225995143Y-126307629D01*
X225228427Y-126624810D01*
X225221664Y-126625473D01*
X225215674Y-126622265D01*
X224630848Y-126036464D01*
X224627681Y-126030617D01*
X224628212Y-126023987D01*
X224632267Y-126018722D01*
X225568842Y-125341125D01*
X225576939Y-125338971D01*
X225584400Y-125342782D01*
G37*
%TD.AperFunction*%
%TD*%
%TA.AperFunction,Conductor*%
%TO.N,+5V*%
G36*
X104607437Y-135069425D02*
G01*
X105041046Y-135295993D01*
X105046619Y-135302353D01*
X105046451Y-135310807D01*
X104938263Y-135574284D01*
X104935713Y-135578113D01*
X104931884Y-135580663D01*
X104668407Y-135688851D01*
X104659953Y-135689019D01*
X104653593Y-135683446D01*
X104427025Y-135249837D01*
X104425831Y-135242651D01*
X104429121Y-135236151D01*
X104593751Y-135071521D01*
X104600251Y-135068231D01*
X104607437Y-135069425D01*
G37*
%TD.AperFunction*%
%TD*%
%TA.AperFunction,Conductor*%
%TO.N,GND*%
G36*
X123815036Y-82227336D02*
G01*
X124115595Y-82528647D01*
X124366983Y-82780664D01*
X124370387Y-82788377D01*
X124367723Y-82796375D01*
X123575984Y-83755460D01*
X123570701Y-83759098D01*
X123564293Y-83759404D01*
X123558688Y-83756285D01*
X123393086Y-83590683D01*
X123390162Y-83585804D01*
X123148430Y-82788377D01*
X123072770Y-82538787D01*
X123073390Y-82530393D01*
X123079484Y-82524587D01*
X123802274Y-82224792D01*
X123809042Y-82224126D01*
X123815036Y-82227336D01*
G37*
%TD.AperFunction*%
%TD*%
%TA.AperFunction,Conductor*%
%TO.N,Sense2-10*%
G36*
X125547911Y-124720402D02*
G01*
X125713487Y-124885978D01*
X125716435Y-124890937D01*
X126027524Y-125944362D01*
X126026862Y-125952715D01*
X126020786Y-125958483D01*
X125297927Y-126258306D01*
X125291157Y-126258973D01*
X125285162Y-126255762D01*
X124974539Y-125944362D01*
X124733222Y-125702440D01*
X124729818Y-125694723D01*
X124732486Y-125686723D01*
X125530623Y-124721217D01*
X125535903Y-124717587D01*
X125542308Y-124717284D01*
X125547911Y-124720402D01*
G37*
%TD.AperFunction*%
%TD*%
%TA.AperFunction,Conductor*%
%TO.N,GND*%
G36*
X124561812Y-67979316D02*
G01*
X124567090Y-67983237D01*
X125079491Y-68661516D01*
X125079555Y-68661600D01*
X125081891Y-68669454D01*
X125078502Y-68676915D01*
X124528979Y-69227813D01*
X124523734Y-69230849D01*
X124517673Y-69230853D01*
X124512423Y-69227823D01*
X123961820Y-68677220D01*
X123958407Y-68669516D01*
X123961056Y-68661516D01*
X124381860Y-68149715D01*
X124382605Y-68148894D01*
X124549484Y-67982015D01*
X124555251Y-67978861D01*
X124561812Y-67979316D01*
G37*
%TD.AperFunction*%
%TD*%
%TA.AperFunction,Conductor*%
%TO.N,VPP*%
G36*
X113701384Y-131845823D02*
G01*
X115031970Y-132319871D01*
X115037076Y-132323457D01*
X115039612Y-132329160D01*
X115038856Y-132335356D01*
X114739962Y-133059312D01*
X114737420Y-133063120D01*
X114733612Y-133065662D01*
X114009656Y-133364556D01*
X114003460Y-133365312D01*
X113997757Y-133362776D01*
X113994171Y-133357670D01*
X113520123Y-132027084D01*
X113519731Y-132020589D01*
X113522870Y-132014889D01*
X113689189Y-131848570D01*
X113694889Y-131845431D01*
X113701384Y-131845823D01*
G37*
%TD.AperFunction*%
%TD*%
%TA.AperFunction,Conductor*%
%TO.N,RTDMISO*%
G36*
X166459111Y-140475113D02*
G01*
X166464380Y-140479171D01*
X167141975Y-141415842D01*
X167144129Y-141423939D01*
X167140318Y-141431400D01*
X167132495Y-141434400D01*
X166905400Y-141434400D01*
X166192147Y-141847695D01*
X166185781Y-141849261D01*
X166179572Y-141847158D01*
X166175471Y-141842046D01*
X165858288Y-141075324D01*
X165857626Y-141068564D01*
X165860832Y-141062576D01*
X166446635Y-140477747D01*
X166452482Y-140474582D01*
X166459111Y-140475113D01*
G37*
%TD.AperFunction*%
%TD*%
%TA.AperFunction,Conductor*%
%TO.N,GND*%
G36*
X206174051Y-53725135D02*
G01*
X206725264Y-54275374D01*
X206728472Y-54281364D01*
X206727810Y-54288126D01*
X206430339Y-55007258D01*
X206425897Y-55012600D01*
X206419209Y-55014482D01*
X206412634Y-55012240D01*
X205730700Y-54515000D01*
X205506133Y-54515000D01*
X205498075Y-54511783D01*
X205494448Y-54503900D01*
X205497248Y-54495687D01*
X205686016Y-54275374D01*
X206156901Y-53725800D01*
X206162178Y-53722285D01*
X206168516Y-53722038D01*
X206174051Y-53725135D01*
G37*
%TD.AperFunction*%
%TD*%
%TA.AperFunction,Conductor*%
%TO.N,OUTPUT1*%
G36*
X137051266Y-99849398D02*
G01*
X137055203Y-99854846D01*
X137377989Y-100783945D01*
X137377941Y-100791759D01*
X137372986Y-100797800D01*
X136594041Y-101268260D01*
X136587928Y-101269945D01*
X136581834Y-101268193D01*
X136577548Y-101263519D01*
X136075973Y-100270374D01*
X136074978Y-100262640D01*
X136079065Y-100255999D01*
X136086417Y-100253400D01*
X136317399Y-100253400D01*
X136317400Y-100253400D01*
X137038423Y-99848484D01*
X137044981Y-99847015D01*
X137051266Y-99849398D01*
G37*
%TD.AperFunction*%
%TD*%
%TA.AperFunction,Conductor*%
%TO.N,Sense1-8*%
G36*
X171555287Y-71525964D02*
G01*
X172301624Y-71836086D01*
X172306544Y-71839938D01*
X172308780Y-71845776D01*
X172307691Y-71851931D01*
X171678980Y-73168442D01*
X171674663Y-73173296D01*
X171668422Y-73175100D01*
X171433178Y-73175100D01*
X171426937Y-73173296D01*
X171422620Y-73168442D01*
X170793908Y-71851931D01*
X170792819Y-71845776D01*
X170795055Y-71839938D01*
X170799973Y-71836087D01*
X171546312Y-71525964D01*
X171550800Y-71525069D01*
X171555287Y-71525964D01*
G37*
%TD.AperFunction*%
%TD*%
%TA.AperFunction,Conductor*%
%TO.N,Sense2-12*%
G36*
X154410987Y-60095964D02*
G01*
X155157324Y-60406086D01*
X155162244Y-60409938D01*
X155164480Y-60415776D01*
X155163391Y-60421931D01*
X154534680Y-61738442D01*
X154530363Y-61743296D01*
X154524122Y-61745100D01*
X154288878Y-61745100D01*
X154282637Y-61743296D01*
X154278320Y-61738442D01*
X153649608Y-60421931D01*
X153648519Y-60415776D01*
X153650755Y-60409938D01*
X153655673Y-60406087D01*
X154402012Y-60095964D01*
X154406500Y-60095069D01*
X154410987Y-60095964D01*
G37*
%TD.AperFunction*%
%TD*%
%TA.AperFunction,Conductor*%
%TO.N,Net-(Q28-D)*%
G36*
X198444915Y-53884506D02*
G01*
X198445811Y-53885784D01*
X198952767Y-54608629D01*
X198954861Y-54614551D01*
X198953590Y-54620703D01*
X198949321Y-54625311D01*
X198634800Y-54818900D01*
X198634800Y-55045375D01*
X198631744Y-55053260D01*
X198624172Y-55057026D01*
X198616040Y-55054705D01*
X198614130Y-55053260D01*
X198047873Y-54624786D01*
X198043514Y-54618006D01*
X198044574Y-54610018D01*
X198424979Y-53885783D01*
X198430727Y-53880472D01*
X198438537Y-53879971D01*
X198444915Y-53884506D01*
G37*
%TD.AperFunction*%
%TD*%
%TA.AperFunction,Conductor*%
%TO.N,Net-(J10-Pin_2)*%
G36*
X174121838Y-90399837D02*
G01*
X174709220Y-90988603D01*
X174712621Y-90996252D01*
X174710041Y-91004215D01*
X174097263Y-91763261D01*
X174091979Y-91766971D01*
X174085533Y-91767313D01*
X174079886Y-91764185D01*
X173913138Y-91597437D01*
X173911665Y-91595637D01*
X173338163Y-90732117D01*
X173336209Y-90725624D01*
X173338185Y-90719138D01*
X173343425Y-90714838D01*
X174109073Y-90397292D01*
X174115842Y-90396626D01*
X174121838Y-90399837D01*
G37*
%TD.AperFunction*%
%TD*%
%TA.AperFunction,Conductor*%
%TO.N,Net-(Q23-G)*%
G36*
X203408200Y-59300158D02*
G01*
X203952934Y-59876117D01*
X203956074Y-59882978D01*
X203954374Y-59890329D01*
X203596176Y-60467181D01*
X203591187Y-60471610D01*
X203584588Y-60472592D01*
X203578526Y-60469809D01*
X203109902Y-60059159D01*
X203106095Y-60052414D01*
X203107334Y-60044770D01*
X203388000Y-59528800D01*
X203388000Y-59308198D01*
X203390017Y-59301630D01*
X203395374Y-59297327D01*
X203402222Y-59296773D01*
X203408200Y-59300158D01*
G37*
%TD.AperFunction*%
%TD*%
%TA.AperFunction,Conductor*%
%TO.N,RTDMOSI*%
G36*
X204619113Y-145261449D02*
G01*
X205976066Y-145913214D01*
X205980903Y-145917531D01*
X205982700Y-145923761D01*
X205982700Y-146159039D01*
X205980903Y-146165269D01*
X205976066Y-146169586D01*
X204619113Y-146821350D01*
X204612951Y-146822452D01*
X204607103Y-146820219D01*
X204603242Y-146815292D01*
X204283565Y-146045889D01*
X204282670Y-146041400D01*
X204283565Y-146036911D01*
X204333636Y-145916400D01*
X204603242Y-145267505D01*
X204607103Y-145262580D01*
X204612951Y-145260347D01*
X204619113Y-145261449D01*
G37*
%TD.AperFunction*%
%TD*%
%TA.AperFunction,Conductor*%
%TO.N,GND*%
G36*
X210575773Y-59758468D02*
G01*
X210579979Y-59762250D01*
X211011786Y-60401424D01*
X211013738Y-60409086D01*
X211010371Y-60416240D01*
X210459780Y-60967805D01*
X210454532Y-60970839D01*
X210448468Y-60970839D01*
X210443220Y-60967805D01*
X209892628Y-60416240D01*
X209889261Y-60409086D01*
X209891213Y-60401424D01*
X210323021Y-59762250D01*
X210327227Y-59758468D01*
X210332716Y-59757100D01*
X210570284Y-59757100D01*
X210575773Y-59758468D01*
G37*
%TD.AperFunction*%
%TD*%
%TA.AperFunction,Conductor*%
%TO.N,Sense2-9*%
G36*
X139298227Y-76695805D02*
G01*
X139302548Y-76698546D01*
X139828538Y-77224936D01*
X139831784Y-77231174D01*
X139830868Y-77238147D01*
X139826120Y-77243334D01*
X138327222Y-78110245D01*
X138320863Y-78111806D01*
X138314662Y-78109707D01*
X138310559Y-78104605D01*
X137949454Y-77235187D01*
X137948560Y-77230706D01*
X137949451Y-77226224D01*
X138311406Y-76353371D01*
X138317480Y-76347154D01*
X138326166Y-76346842D01*
X139298227Y-76695805D01*
G37*
%TD.AperFunction*%
%TD*%
%TA.AperFunction,Conductor*%
%TO.N,VPP*%
G36*
X94190790Y-82099423D02*
G01*
X94194350Y-82104611D01*
X94747076Y-83722557D01*
X94747401Y-83728985D01*
X94744277Y-83734612D01*
X94577812Y-83901077D01*
X94572185Y-83904201D01*
X94565757Y-83903876D01*
X94070285Y-83734612D01*
X92947811Y-83351150D01*
X92942623Y-83347590D01*
X92940029Y-83341858D01*
X92940778Y-83335613D01*
X93300839Y-82463980D01*
X93303378Y-82460178D01*
X93307180Y-82457639D01*
X94178813Y-82097578D01*
X94185058Y-82096829D01*
X94190790Y-82099423D01*
G37*
%TD.AperFunction*%
%TD*%
%TA.AperFunction,Conductor*%
%TO.N,+5V*%
G36*
X163342555Y-112343311D02*
G01*
X163346872Y-112348183D01*
X163952533Y-113624248D01*
X163953608Y-113630397D01*
X163951369Y-113636223D01*
X163946453Y-113640069D01*
X163223190Y-113940634D01*
X163218700Y-113941530D01*
X163214210Y-113940634D01*
X162490946Y-113640069D01*
X162486030Y-113636223D01*
X162483791Y-113630397D01*
X162484865Y-113624250D01*
X163090528Y-112348182D01*
X163094845Y-112343311D01*
X163101098Y-112341500D01*
X163336302Y-112341500D01*
X163342555Y-112343311D01*
G37*
%TD.AperFunction*%
%TD*%
%TA.AperFunction,Conductor*%
%TO.N,Net-(IC17-C1-)*%
G36*
X106094849Y-112124965D02*
G01*
X106941935Y-112527019D01*
X106945189Y-112529315D01*
X107044219Y-112628345D01*
X107044909Y-112629097D01*
X107072345Y-112661794D01*
X107109313Y-112683137D01*
X107110159Y-112683677D01*
X107145114Y-112708153D01*
X107145116Y-112708154D01*
X107157680Y-112711520D01*
X107160492Y-112712684D01*
X107171755Y-112719188D01*
X107213782Y-112726598D01*
X107214755Y-112726813D01*
X107255993Y-112737864D01*
X107298500Y-112734145D01*
X107299520Y-112734100D01*
X107365900Y-112734100D01*
X107374173Y-112737527D01*
X107377600Y-112745800D01*
X107377600Y-112976402D01*
X107375789Y-112982655D01*
X107370917Y-112986972D01*
X106094851Y-113592633D01*
X106088702Y-113593708D01*
X106082876Y-113591469D01*
X106079030Y-113586553D01*
X106049498Y-113515490D01*
X105778464Y-112863285D01*
X105777569Y-112858800D01*
X105778464Y-112854314D01*
X106079030Y-112131045D01*
X106082876Y-112126130D01*
X106088702Y-112123891D01*
X106094849Y-112124965D01*
G37*
%TD.AperFunction*%
%TD*%
%TA.AperFunction,Conductor*%
%TO.N,GND*%
G36*
X122875255Y-124662411D02*
G01*
X122879572Y-124667283D01*
X123485233Y-125943348D01*
X123486308Y-125949497D01*
X123484069Y-125955323D01*
X123479153Y-125959169D01*
X122755890Y-126259734D01*
X122751400Y-126260630D01*
X122746910Y-126259734D01*
X122023646Y-125959169D01*
X122018730Y-125955323D01*
X122016491Y-125949497D01*
X122017565Y-125943350D01*
X122623228Y-124667282D01*
X122627545Y-124662411D01*
X122633798Y-124660600D01*
X122869002Y-124660600D01*
X122875255Y-124662411D01*
G37*
%TD.AperFunction*%
%TD*%
%TA.AperFunction,Conductor*%
%TO.N,GND*%
G36*
X124321796Y-57028887D02*
G01*
X124327078Y-57032519D01*
X124824283Y-57633988D01*
X125125212Y-57998022D01*
X125127881Y-58006023D01*
X125124477Y-58013740D01*
X124572538Y-58567062D01*
X124566542Y-58570273D01*
X124559772Y-58569606D01*
X123836913Y-58269783D01*
X123830837Y-58264015D01*
X123830175Y-58255664D01*
X124141264Y-57202235D01*
X124144210Y-57197280D01*
X124309790Y-57031700D01*
X124315391Y-57028584D01*
X124321796Y-57028887D01*
G37*
%TD.AperFunction*%
%TD*%
%TA.AperFunction,Conductor*%
%TO.N,OUTPUT1*%
G36*
X127845942Y-58272223D02*
G01*
X127849528Y-58277330D01*
X128217795Y-59311004D01*
X128323575Y-59607912D01*
X128323968Y-59614410D01*
X128320827Y-59620112D01*
X128154512Y-59786427D01*
X128148810Y-59789568D01*
X128142312Y-59789175D01*
X126811730Y-59315128D01*
X126806623Y-59311542D01*
X126804087Y-59305839D01*
X126804842Y-59299644D01*
X127103738Y-58575684D01*
X127106279Y-58571879D01*
X127110084Y-58569338D01*
X127834044Y-58270442D01*
X127840239Y-58269687D01*
X127845942Y-58272223D01*
G37*
%TD.AperFunction*%
%TD*%
%TA.AperFunction,Conductor*%
%TO.N,SDA*%
G36*
X167058786Y-100388373D02*
G01*
X167857092Y-100788827D01*
X167860926Y-100791907D01*
X167863156Y-100796292D01*
X168114882Y-101747426D01*
X168114159Y-101755397D01*
X168108480Y-101761039D01*
X166855560Y-102340239D01*
X166848600Y-102341138D01*
X166842378Y-102337892D01*
X166315398Y-101810912D01*
X166312108Y-101804422D01*
X166313290Y-101797242D01*
X166335046Y-101755397D01*
X167043161Y-100393433D01*
X167049936Y-100387701D01*
X167058786Y-100388373D01*
G37*
%TD.AperFunction*%
%TD*%
%TA.AperFunction,Conductor*%
%TO.N,Sense1-1*%
G36*
X160583777Y-148108485D02*
G01*
X161304800Y-148513400D01*
X161535783Y-148513400D01*
X161543135Y-148515999D01*
X161547222Y-148522640D01*
X161546227Y-148530374D01*
X161044651Y-149523519D01*
X161040365Y-149528193D01*
X161034271Y-149529945D01*
X161028158Y-149528260D01*
X161028047Y-149528193D01*
X160249213Y-149057800D01*
X160244258Y-149051759D01*
X160244210Y-149043948D01*
X160566996Y-148114845D01*
X160570933Y-148109398D01*
X160577218Y-148107015D01*
X160583777Y-148108485D01*
G37*
%TD.AperFunction*%
%TD*%
%TA.AperFunction,Conductor*%
%TO.N,GND*%
G36*
X199935049Y-57297765D02*
G01*
X201211117Y-57903428D01*
X201215989Y-57907745D01*
X201217800Y-57913998D01*
X201217800Y-58149202D01*
X201215989Y-58155455D01*
X201211117Y-58159772D01*
X199935051Y-58765433D01*
X199928902Y-58766508D01*
X199923076Y-58764269D01*
X199919230Y-58759353D01*
X199889698Y-58688290D01*
X199618664Y-58036085D01*
X199617769Y-58031600D01*
X199618664Y-58027114D01*
X199919230Y-57303845D01*
X199923076Y-57298930D01*
X199928902Y-57296691D01*
X199935049Y-57297765D01*
G37*
%TD.AperFunction*%
%TD*%
%TA.AperFunction,Conductor*%
%TO.N,Net-(Q4-G)*%
G36*
X210575177Y-75736887D02*
G01*
X211540679Y-76535021D01*
X211544312Y-76540303D01*
X211544615Y-76546708D01*
X211541497Y-76552311D01*
X211375921Y-76717887D01*
X211370962Y-76720835D01*
X210317537Y-77031924D01*
X210309184Y-77031262D01*
X210303416Y-77025186D01*
X210003592Y-76302325D01*
X210002926Y-76295557D01*
X210006134Y-76289564D01*
X210559459Y-75737621D01*
X210567176Y-75734218D01*
X210575177Y-75736887D01*
G37*
%TD.AperFunction*%
%TD*%
%TA.AperFunction,Conductor*%
%TO.N,Sense1-5*%
G36*
X176797211Y-92697302D02*
G01*
X176962787Y-92862878D01*
X176965735Y-92867837D01*
X177276824Y-93921262D01*
X177276162Y-93929615D01*
X177270086Y-93935383D01*
X176547227Y-94235206D01*
X176540457Y-94235873D01*
X176534462Y-94232662D01*
X176223839Y-93921262D01*
X175982522Y-93679340D01*
X175979118Y-93671623D01*
X175981786Y-93663623D01*
X176779923Y-92698117D01*
X176785203Y-92694487D01*
X176791608Y-92694184D01*
X176797211Y-92697302D01*
G37*
%TD.AperFunction*%
%TD*%
%TA.AperFunction,Conductor*%
%TO.N,Net-(Q1-G)*%
G36*
X205239012Y-53067372D02*
G01*
X205405327Y-53233687D01*
X205408468Y-53239389D01*
X205408075Y-53245887D01*
X204934029Y-54576468D01*
X204930442Y-54581576D01*
X204924739Y-54584112D01*
X204918543Y-54583356D01*
X204194587Y-54284462D01*
X204190779Y-54281920D01*
X204188237Y-54278112D01*
X203889343Y-53554156D01*
X203888587Y-53547960D01*
X203891123Y-53542257D01*
X203896227Y-53538672D01*
X205226816Y-53064623D01*
X205233310Y-53064231D01*
X205239012Y-53067372D01*
G37*
%TD.AperFunction*%
%TD*%
%TA.AperFunction,Conductor*%
%TO.N,+5V*%
G36*
X226349764Y-67975629D02*
G01*
X226801188Y-68150128D01*
X227321250Y-68351158D01*
X227326196Y-68354797D01*
X227328618Y-68360440D01*
X227327848Y-68366532D01*
X227105362Y-68906007D01*
X227102819Y-68909819D01*
X227099007Y-68912362D01*
X226559532Y-69134848D01*
X226553440Y-69135618D01*
X226547797Y-69133196D01*
X226544158Y-69128250D01*
X226168630Y-68156765D01*
X226168096Y-68150128D01*
X226171268Y-68144276D01*
X226337276Y-67978268D01*
X226343128Y-67975096D01*
X226349764Y-67975629D01*
G37*
%TD.AperFunction*%
%TD*%
%TA.AperFunction,Conductor*%
%TO.N,VoltageSensor*%
G36*
X134511118Y-148108218D02*
G01*
X134514704Y-148113380D01*
X134839597Y-149046262D01*
X134840046Y-149052274D01*
X134837442Y-149057712D01*
X134220983Y-149778886D01*
X134215702Y-149782412D01*
X134209358Y-149782661D01*
X134203818Y-149779559D01*
X133191512Y-148767784D01*
X133188482Y-148762539D01*
X133188481Y-148756482D01*
X133191508Y-148751238D01*
X133358384Y-148584362D01*
X133362137Y-148581846D01*
X134499145Y-148106433D01*
X134505379Y-148105656D01*
X134511118Y-148108218D01*
G37*
%TD.AperFunction*%
%TD*%
%TA.AperFunction,Conductor*%
%TO.N,+5V*%
G36*
X220037802Y-63606403D02*
G01*
X220041441Y-63611349D01*
X220416969Y-64582834D01*
X220417503Y-64589471D01*
X220414329Y-64595325D01*
X220248325Y-64761329D01*
X220242471Y-64764503D01*
X220235834Y-64763969D01*
X219264349Y-64388441D01*
X219259403Y-64384802D01*
X219256981Y-64379159D01*
X219257750Y-64373069D01*
X219480238Y-63833589D01*
X219482780Y-63829780D01*
X219486589Y-63827238D01*
X220026069Y-63604750D01*
X220032159Y-63603981D01*
X220037802Y-63606403D01*
G37*
%TD.AperFunction*%
%TD*%
%TA.AperFunction,Conductor*%
%TO.N,Sense2-12*%
G36*
X138326765Y-87897484D02*
G01*
X139217671Y-88315894D01*
X139220968Y-88318209D01*
X139747557Y-88844525D01*
X139750816Y-88850811D01*
X139749851Y-88857826D01*
X139745017Y-88863000D01*
X138327159Y-89659671D01*
X138320830Y-89661156D01*
X138314686Y-89659033D01*
X138310623Y-89653959D01*
X137949455Y-88784388D01*
X137948561Y-88779907D01*
X137949452Y-88775425D01*
X138310984Y-87903590D01*
X138314815Y-87898681D01*
X138320625Y-87896432D01*
X138326765Y-87897484D01*
G37*
%TD.AperFunction*%
%TD*%
%TA.AperFunction,Conductor*%
%TO.N,Sense1-7*%
G36*
X204866344Y-60485268D02*
G01*
X205083986Y-60684271D01*
X205329083Y-60908378D01*
X205332772Y-60915372D01*
X205331170Y-60923115D01*
X204812688Y-61771063D01*
X204807472Y-61775645D01*
X204800578Y-61776465D01*
X204794433Y-61773233D01*
X204629998Y-61608798D01*
X204627275Y-61604523D01*
X204375593Y-60912319D01*
X204375256Y-60905422D01*
X204378867Y-60899535D01*
X204850729Y-60485111D01*
X204858566Y-60482204D01*
X204866344Y-60485268D01*
G37*
%TD.AperFunction*%
%TD*%
%TA.AperFunction,Conductor*%
%TO.N,Net-(Q3-G)*%
G36*
X208705912Y-68950872D02*
G01*
X208872227Y-69117187D01*
X208875368Y-69122889D01*
X208874975Y-69129387D01*
X208400929Y-70459968D01*
X208397342Y-70465076D01*
X208391639Y-70467612D01*
X208385443Y-70466856D01*
X207661487Y-70167962D01*
X207657679Y-70165420D01*
X207655137Y-70161612D01*
X207356243Y-69437656D01*
X207355487Y-69431460D01*
X207358023Y-69425757D01*
X207363127Y-69422172D01*
X208693716Y-68948123D01*
X208700210Y-68947731D01*
X208705912Y-68950872D01*
G37*
%TD.AperFunction*%
%TD*%
%TA.AperFunction,Conductor*%
%TO.N,GND*%
G36*
X122755885Y-121681064D02*
G01*
X123408090Y-121952098D01*
X123479153Y-121981630D01*
X123484069Y-121985476D01*
X123486308Y-121991302D01*
X123485233Y-121997451D01*
X122879572Y-123273517D01*
X122875255Y-123278389D01*
X122869002Y-123280200D01*
X122633798Y-123280200D01*
X122627545Y-123278389D01*
X122623228Y-123273517D01*
X122017566Y-121997451D01*
X122016491Y-121991302D01*
X122018730Y-121985476D01*
X122023645Y-121981630D01*
X122746914Y-121681064D01*
X122751400Y-121680169D01*
X122755885Y-121681064D01*
G37*
%TD.AperFunction*%
%TD*%
%TA.AperFunction,Conductor*%
%TO.N,Net-(Q15-D)*%
G36*
X130157625Y-88311435D02*
G01*
X130469781Y-88624144D01*
X130708002Y-88862786D01*
X130711085Y-88868263D01*
X130710889Y-88874544D01*
X130707471Y-88879818D01*
X129962049Y-89538806D01*
X129953821Y-89541730D01*
X129945859Y-89538142D01*
X129942600Y-89530040D01*
X129942600Y-89306000D01*
X129421246Y-88624144D01*
X129418850Y-88617532D01*
X129420678Y-88610742D01*
X129426065Y-88606227D01*
X130144874Y-88308888D01*
X130151635Y-88308227D01*
X130157625Y-88311435D01*
G37*
%TD.AperFunction*%
%TD*%
%TA.AperFunction,Conductor*%
%TO.N,GND*%
G36*
X99769925Y-140067992D02*
G01*
X100449636Y-140349918D01*
X100493012Y-140367910D01*
X100499029Y-140373555D01*
X100499825Y-140381767D01*
X100218811Y-141422608D01*
X100215788Y-141427831D01*
X100050097Y-141593522D01*
X100044587Y-141596618D01*
X100038271Y-141596396D01*
X100032991Y-141592922D01*
X99204858Y-140639608D01*
X99201998Y-140631532D01*
X99205407Y-140623673D01*
X99757164Y-140070534D01*
X99763157Y-140067326D01*
X99769925Y-140067992D01*
G37*
%TD.AperFunction*%
%TD*%
%TA.AperFunction,Conductor*%
%TO.N,+5V*%
G36*
X226559531Y-63604750D02*
G01*
X227099007Y-63827237D01*
X227102819Y-63829780D01*
X227105362Y-63833592D01*
X227327848Y-64373067D01*
X227328618Y-64379159D01*
X227326196Y-64384802D01*
X227321250Y-64388441D01*
X226349765Y-64763969D01*
X226343128Y-64764503D01*
X226337274Y-64761329D01*
X226171270Y-64595325D01*
X226168096Y-64589471D01*
X226168630Y-64582834D01*
X226243773Y-64388441D01*
X226544159Y-63611347D01*
X226547797Y-63606403D01*
X226553440Y-63603981D01*
X226559531Y-63604750D01*
G37*
%TD.AperFunction*%
%TD*%
%TA.AperFunction,Conductor*%
%TO.N,CAN_TX_STBY*%
G36*
X201579013Y-101657997D02*
G01*
X202129964Y-102207974D01*
X202133172Y-102213964D01*
X202132510Y-102220726D01*
X201834772Y-102940503D01*
X201830483Y-102945744D01*
X201824009Y-102947731D01*
X201817518Y-102945798D01*
X201135401Y-102495900D01*
X201135400Y-102495900D01*
X200909895Y-102495900D01*
X200901919Y-102492760D01*
X200898224Y-102485025D01*
X200900794Y-102476847D01*
X201561648Y-101658921D01*
X201566926Y-101655218D01*
X201573368Y-101654874D01*
X201579013Y-101657997D01*
G37*
%TD.AperFunction*%
%TD*%
%TA.AperFunction,Conductor*%
%TO.N,OUTPUT2*%
G36*
X127799642Y-68935723D02*
G01*
X127803228Y-68940830D01*
X127909524Y-69239187D01*
X128085721Y-69733747D01*
X128086400Y-69737674D01*
X128086400Y-69778780D01*
X128086355Y-69779800D01*
X128082635Y-69822306D01*
X128093681Y-69863529D01*
X128093902Y-69864525D01*
X128101311Y-69906545D01*
X128107811Y-69917802D01*
X128108980Y-69920623D01*
X128112346Y-69933184D01*
X128127673Y-69955074D01*
X128136821Y-69968139D01*
X128137369Y-69969000D01*
X128158704Y-70005953D01*
X128190498Y-70032632D01*
X128193998Y-70037668D01*
X128277275Y-70271412D01*
X128277668Y-70277910D01*
X128274527Y-70283612D01*
X128108212Y-70449927D01*
X128102510Y-70453068D01*
X128096012Y-70452675D01*
X126765430Y-69978628D01*
X126760323Y-69975042D01*
X126757787Y-69969339D01*
X126758542Y-69963144D01*
X127057438Y-69239184D01*
X127059979Y-69235379D01*
X127063784Y-69232838D01*
X127787744Y-68933942D01*
X127793939Y-68933187D01*
X127799642Y-68935723D01*
G37*
%TD.AperFunction*%
%TD*%
%TA.AperFunction,Conductor*%
%TO.N,+5V*%
G36*
X131861167Y-104896040D02*
G01*
X131866447Y-104899564D01*
X132011866Y-105069630D01*
X132735016Y-105915343D01*
X132737815Y-105923396D01*
X132734407Y-105931210D01*
X132147238Y-106519762D01*
X132141242Y-106522973D01*
X132134473Y-106522306D01*
X131365351Y-106203320D01*
X131359292Y-106197589D01*
X131358589Y-106189280D01*
X131680617Y-105069628D01*
X131683586Y-105064593D01*
X131849285Y-104898894D01*
X131854823Y-104895793D01*
X131861167Y-104896040D01*
G37*
%TD.AperFunction*%
%TD*%
%TA.AperFunction,Conductor*%
%TO.N,OUTPUT4*%
G36*
X126378424Y-93345570D02*
G01*
X127372587Y-93858464D01*
X127378209Y-93864838D01*
X127378035Y-93873334D01*
X127078993Y-94596262D01*
X127074677Y-94601521D01*
X127068166Y-94603490D01*
X126286374Y-94602512D01*
X126278616Y-94599557D01*
X126274771Y-94592198D01*
X126127461Y-93357354D01*
X126128516Y-93350938D01*
X126132833Y-93346075D01*
X126139079Y-93344268D01*
X126373060Y-93344268D01*
X126378424Y-93345570D01*
G37*
%TD.AperFunction*%
%TD*%
%TA.AperFunction,Conductor*%
%TO.N,GND*%
G36*
X190148142Y-49275423D02*
G01*
X190151728Y-49280530D01*
X190519995Y-50314204D01*
X190625775Y-50611112D01*
X190626168Y-50617610D01*
X190623027Y-50623312D01*
X190456712Y-50789627D01*
X190451010Y-50792768D01*
X190444512Y-50792375D01*
X189113930Y-50318328D01*
X189108823Y-50314742D01*
X189106287Y-50309039D01*
X189107042Y-50302844D01*
X189405938Y-49578884D01*
X189408479Y-49575079D01*
X189412284Y-49572538D01*
X190136244Y-49273642D01*
X190142439Y-49272887D01*
X190148142Y-49275423D01*
G37*
%TD.AperFunction*%
%TD*%
%TA.AperFunction,Conductor*%
%TO.N,Net-(Q28-D)*%
G36*
X204443385Y-49636364D02*
G01*
X205095590Y-49907398D01*
X205166653Y-49936930D01*
X205171569Y-49940776D01*
X205173808Y-49946602D01*
X205172733Y-49952751D01*
X204567072Y-51228817D01*
X204562755Y-51233689D01*
X204556502Y-51235500D01*
X204321298Y-51235500D01*
X204315045Y-51233689D01*
X204310728Y-51228817D01*
X203705066Y-49952751D01*
X203703991Y-49946602D01*
X203706230Y-49940776D01*
X203711145Y-49936930D01*
X204434414Y-49636364D01*
X204438900Y-49635469D01*
X204443385Y-49636364D01*
G37*
%TD.AperFunction*%
%TD*%
%TA.AperFunction,Conductor*%
%TO.N,OUTPUTLED1*%
G36*
X147147028Y-85567202D02*
G01*
X147617999Y-85981731D01*
X147621677Y-85987914D01*
X147621041Y-85995080D01*
X147267325Y-86829267D01*
X147263013Y-86834455D01*
X147256553Y-86836400D01*
X147022047Y-86836400D01*
X147015587Y-86834455D01*
X147011275Y-86829267D01*
X146657558Y-85995080D01*
X146656922Y-85987914D01*
X146660598Y-85981733D01*
X147131571Y-85567202D01*
X147139300Y-85564286D01*
X147147028Y-85567202D01*
G37*
%TD.AperFunction*%
%TD*%
%TA.AperFunction,Conductor*%
%TO.N,GND*%
G36*
X142389585Y-130573943D02*
G01*
X142392949Y-130579604D01*
X142753506Y-131986126D01*
X142753457Y-131992120D01*
X142750445Y-131997304D01*
X142584106Y-132163643D01*
X142577934Y-132166880D01*
X142571016Y-132166032D01*
X141354671Y-131616466D01*
X141348612Y-131610116D01*
X141348672Y-131601340D01*
X141647938Y-130876484D01*
X141650479Y-130872679D01*
X141654284Y-130870138D01*
X142377152Y-130571693D01*
X142383697Y-130570996D01*
X142389585Y-130573943D01*
G37*
%TD.AperFunction*%
%TD*%
%TA.AperFunction,Conductor*%
%TO.N,MOSI*%
G36*
X229523447Y-125341089D02*
G01*
X230462110Y-126018723D01*
X230466174Y-126023990D01*
X230466709Y-126030623D01*
X230463541Y-126036474D01*
X229878725Y-126622265D01*
X229872735Y-126625473D01*
X229865972Y-126624810D01*
X229099228Y-126307618D01*
X229094120Y-126303522D01*
X229092012Y-126297323D01*
X229093565Y-126290964D01*
X229504900Y-125577700D01*
X229504900Y-125350576D01*
X229507897Y-125342756D01*
X229515353Y-125338943D01*
X229523447Y-125341089D01*
G37*
%TD.AperFunction*%
%TD*%
%TA.AperFunction,Conductor*%
%TO.N,GND*%
G36*
X124299598Y-76156415D02*
G01*
X124303712Y-76159809D01*
X124695023Y-76673406D01*
X124697414Y-76680257D01*
X124695305Y-76687201D01*
X124184789Y-77417483D01*
X124178883Y-77421884D01*
X124171517Y-77421884D01*
X124165611Y-77417483D01*
X123655094Y-76687201D01*
X123652985Y-76680257D01*
X123655376Y-76673406D01*
X124046688Y-76159809D01*
X124050802Y-76156415D01*
X124055995Y-76155200D01*
X124294405Y-76155200D01*
X124299598Y-76156415D01*
G37*
%TD.AperFunction*%
%TD*%
%TA.AperFunction,Conductor*%
%TO.N,Net-(Q28-G)*%
G36*
X199828613Y-52595745D02*
G01*
X199832925Y-52600933D01*
X200186641Y-53435119D01*
X200187277Y-53442285D01*
X200183599Y-53448469D01*
X199712630Y-53862996D01*
X199704900Y-53865913D01*
X199697170Y-53862996D01*
X199478716Y-53670723D01*
X199226199Y-53448468D01*
X199222522Y-53442285D01*
X199223157Y-53435120D01*
X199576875Y-52600931D01*
X199581187Y-52595745D01*
X199587647Y-52593800D01*
X199822153Y-52593800D01*
X199828613Y-52595745D01*
G37*
%TD.AperFunction*%
%TD*%
%TA.AperFunction,Conductor*%
%TO.N,Sense1-7*%
G36*
X191089375Y-61423803D02*
G01*
X192330164Y-62207457D01*
X192334163Y-62211701D01*
X192335616Y-62217349D01*
X192335616Y-62452558D01*
X192333442Y-62459350D01*
X192327729Y-62463619D01*
X191088043Y-62891019D01*
X191079433Y-62890629D01*
X191073426Y-62884448D01*
X190772364Y-62159986D01*
X190771469Y-62155499D01*
X190772363Y-62151015D01*
X191072325Y-61429202D01*
X191076551Y-61424018D01*
X191082931Y-61421997D01*
X191089375Y-61423803D01*
G37*
%TD.AperFunction*%
%TD*%
%TA.AperFunction,Conductor*%
%TO.N,PowerOn*%
G36*
X98367063Y-75375504D02*
G01*
X98371248Y-75381728D01*
X98598022Y-76215154D01*
X98597938Y-76221591D01*
X98594462Y-76227009D01*
X98122630Y-76642296D01*
X98114900Y-76645213D01*
X98107170Y-76642296D01*
X97635337Y-76227009D01*
X97631861Y-76221591D01*
X97631777Y-76215156D01*
X97858552Y-75381727D01*
X97862737Y-75375504D01*
X97869842Y-75373100D01*
X98359958Y-75373100D01*
X98367063Y-75375504D01*
G37*
%TD.AperFunction*%
%TD*%
%TA.AperFunction,Conductor*%
%TO.N,+5V*%
G36*
X190614173Y-85786255D02*
G01*
X190619456Y-85790045D01*
X191273942Y-86621405D01*
X191276381Y-86629898D01*
X191272185Y-86637675D01*
X190336027Y-87408298D01*
X190328026Y-87410951D01*
X190320318Y-87407538D01*
X190151942Y-87239162D01*
X190150371Y-87237212D01*
X189765694Y-86638330D01*
X189763905Y-86630755D01*
X189767264Y-86623735D01*
X190601992Y-85789007D01*
X190607683Y-85785870D01*
X190614173Y-85786255D01*
G37*
%TD.AperFunction*%
%TD*%
%TA.AperFunction,Conductor*%
%TO.N,+5V*%
G36*
X204572981Y-131714261D02*
G01*
X204741357Y-131882637D01*
X204742928Y-131884587D01*
X205127605Y-132483469D01*
X205129394Y-132491044D01*
X205126034Y-132498065D01*
X204291309Y-133332790D01*
X204285616Y-133335929D01*
X204279126Y-133335544D01*
X204273843Y-133331754D01*
X203619357Y-132500394D01*
X203616918Y-132491901D01*
X203621113Y-132484125D01*
X204557274Y-131713500D01*
X204565273Y-131710848D01*
X204572981Y-131714261D01*
G37*
%TD.AperFunction*%
%TD*%
%TA.AperFunction,Conductor*%
%TO.N,GND*%
G36*
X124572825Y-58577435D02*
G01*
X125123317Y-59128902D01*
X125126387Y-59134329D01*
X125126234Y-59140561D01*
X125122901Y-59145831D01*
X124397664Y-59804239D01*
X124389424Y-59807270D01*
X124381395Y-59803715D01*
X124378100Y-59795576D01*
X124378100Y-59572001D01*
X124378100Y-59572000D01*
X123836845Y-58890201D01*
X123834326Y-58883563D01*
X123836109Y-58876691D01*
X123841535Y-58872115D01*
X124560074Y-58574888D01*
X124566835Y-58574227D01*
X124572825Y-58577435D01*
G37*
%TD.AperFunction*%
%TD*%
%TA.AperFunction,Conductor*%
%TO.N,Net-(Q23-G)*%
G36*
X197817442Y-57731923D02*
G01*
X197821028Y-57737030D01*
X198189295Y-58770704D01*
X198295075Y-59067612D01*
X198295468Y-59074110D01*
X198292327Y-59079812D01*
X198126012Y-59246127D01*
X198120310Y-59249268D01*
X198113812Y-59248875D01*
X196783230Y-58774828D01*
X196778123Y-58771242D01*
X196775587Y-58765539D01*
X196776342Y-58759344D01*
X197075238Y-58035384D01*
X197077779Y-58031579D01*
X197081584Y-58029038D01*
X197805544Y-57730142D01*
X197811739Y-57729387D01*
X197817442Y-57731923D01*
G37*
%TD.AperFunction*%
%TD*%
%TA.AperFunction,Conductor*%
%TO.N,Sense1-5*%
G36*
X182985287Y-71525964D02*
G01*
X183731624Y-71836086D01*
X183736544Y-71839938D01*
X183738780Y-71845776D01*
X183737691Y-71851931D01*
X183108980Y-73168442D01*
X183104663Y-73173296D01*
X183098422Y-73175100D01*
X182863178Y-73175100D01*
X182856937Y-73173296D01*
X182852620Y-73168442D01*
X182223908Y-71851931D01*
X182222819Y-71845776D01*
X182225055Y-71839938D01*
X182229973Y-71836087D01*
X182976312Y-71525964D01*
X182980800Y-71525069D01*
X182985287Y-71525964D01*
G37*
%TD.AperFunction*%
%TD*%
%TA.AperFunction,Conductor*%
%TO.N,Net-(Q3-G)*%
G36*
X213987700Y-67678458D02*
G01*
X214532434Y-68254417D01*
X214535574Y-68261278D01*
X214533874Y-68268629D01*
X214175676Y-68845481D01*
X214170687Y-68849910D01*
X214164088Y-68850892D01*
X214158026Y-68848109D01*
X213689402Y-68437459D01*
X213685595Y-68430714D01*
X213686834Y-68423070D01*
X213967500Y-67907100D01*
X213967500Y-67686498D01*
X213969517Y-67679930D01*
X213974874Y-67675627D01*
X213981722Y-67675073D01*
X213987700Y-67678458D01*
G37*
%TD.AperFunction*%
%TD*%
%TA.AperFunction,Conductor*%
%TO.N,GND*%
G36*
X189143336Y-130304536D02*
G01*
X189634045Y-130796473D01*
X189695950Y-130858533D01*
X189699316Y-130865708D01*
X189697337Y-130873382D01*
X189009289Y-131883564D01*
X189004032Y-131887814D01*
X188997302Y-131888446D01*
X188991346Y-131885251D01*
X188826320Y-131720225D01*
X188823668Y-131716140D01*
X188497623Y-130865708D01*
X188402072Y-130616478D01*
X188402247Y-130607673D01*
X188408513Y-130601484D01*
X189130574Y-130301992D01*
X189137342Y-130301326D01*
X189143336Y-130304536D01*
G37*
%TD.AperFunction*%
%TD*%
%TA.AperFunction,Conductor*%
%TO.N,SCL*%
G36*
X170407165Y-100794578D02*
G01*
X171097152Y-101213040D01*
X171191232Y-101270097D01*
X171196083Y-101275894D01*
X171196376Y-101283447D01*
X170784593Y-102663146D01*
X170780373Y-102669182D01*
X170773382Y-102671500D01*
X170028818Y-102671500D01*
X170021827Y-102669182D01*
X170017607Y-102663146D01*
X169605823Y-101283447D01*
X169606116Y-101275894D01*
X169610966Y-101270098D01*
X170395034Y-100794578D01*
X170401100Y-100792883D01*
X170407165Y-100794578D01*
G37*
%TD.AperFunction*%
%TD*%
%TA.AperFunction,Conductor*%
%TO.N,IN3TTL*%
G36*
X180927511Y-132513181D02*
G01*
X180930500Y-132520992D01*
X180930500Y-132748201D01*
X181352192Y-133469830D01*
X181353781Y-133476204D01*
X181351684Y-133482430D01*
X181346563Y-133486544D01*
X180567327Y-133808910D01*
X180560564Y-133809573D01*
X180554574Y-133806365D01*
X180231169Y-133482430D01*
X179960171Y-133210987D01*
X179957001Y-133205125D01*
X179957547Y-133198482D01*
X179961629Y-133193218D01*
X180911980Y-132511484D01*
X180920070Y-132509361D01*
X180927511Y-132513181D01*
G37*
%TD.AperFunction*%
%TD*%
%TA.AperFunction,Conductor*%
%TO.N,FrontCS*%
G36*
X203955689Y-147799692D02*
G01*
X203961420Y-147805751D01*
X204280406Y-148574873D01*
X204281073Y-148581642D01*
X204277862Y-148587638D01*
X203689310Y-149174807D01*
X203681496Y-149178215D01*
X203673443Y-149175416D01*
X202971116Y-148574873D01*
X202657664Y-148306847D01*
X202654140Y-148301567D01*
X202653893Y-148295223D01*
X202656994Y-148289685D01*
X202822693Y-148123986D01*
X202827728Y-148121017D01*
X203947380Y-147798989D01*
X203955689Y-147799692D01*
G37*
%TD.AperFunction*%
%TD*%
%TA.AperFunction,Conductor*%
%TO.N,+5V*%
G36*
X214710155Y-94084942D02*
G01*
X214726839Y-94091831D01*
X215434112Y-94383837D01*
X215437920Y-94386379D01*
X215440462Y-94390187D01*
X215739356Y-95114143D01*
X215740112Y-95120339D01*
X215737576Y-95126042D01*
X215732468Y-95129629D01*
X214401887Y-95603675D01*
X214395389Y-95604068D01*
X214389687Y-95600927D01*
X214223372Y-95434612D01*
X214220231Y-95428910D01*
X214220623Y-95422416D01*
X214694672Y-94091827D01*
X214698257Y-94086723D01*
X214703960Y-94084187D01*
X214710155Y-94084942D01*
G37*
%TD.AperFunction*%
%TD*%
%TA.AperFunction,Conductor*%
%TO.N,Net-(Q19-D)*%
G36*
X129656172Y-51780357D02*
G01*
X130207764Y-52330974D01*
X130210972Y-52336964D01*
X130210310Y-52343726D01*
X129913202Y-53061978D01*
X129908563Y-53067445D01*
X129901606Y-53069180D01*
X129894944Y-53066530D01*
X129213201Y-52504000D01*
X129213200Y-52504000D01*
X128990152Y-52504000D01*
X128981972Y-52500666D01*
X128978455Y-52492563D01*
X128981605Y-52484310D01*
X129119772Y-52336500D01*
X129639359Y-51780646D01*
X129644621Y-51777408D01*
X129650800Y-51777301D01*
X129656172Y-51780357D01*
G37*
%TD.AperFunction*%
%TD*%
%TA.AperFunction,Conductor*%
%TO.N,GND*%
G36*
X116088655Y-145047542D02*
G01*
X116105339Y-145054431D01*
X116812612Y-145346437D01*
X116816420Y-145348979D01*
X116818962Y-145352787D01*
X117117856Y-146076743D01*
X117118612Y-146082939D01*
X117116076Y-146088642D01*
X117110968Y-146092229D01*
X115780387Y-146566275D01*
X115773889Y-146566668D01*
X115768187Y-146563527D01*
X115601872Y-146397212D01*
X115598731Y-146391510D01*
X115599123Y-146385016D01*
X116073172Y-145054427D01*
X116076757Y-145049323D01*
X116082460Y-145046787D01*
X116088655Y-145047542D01*
G37*
%TD.AperFunction*%
%TD*%
%TA.AperFunction,Conductor*%
%TO.N,Sense2-7*%
G36*
X159365686Y-71214087D02*
G01*
X160112714Y-71522538D01*
X160116521Y-71525078D01*
X160119062Y-71528886D01*
X160427511Y-72275912D01*
X160428267Y-72282117D01*
X160425720Y-72287825D01*
X160420597Y-72291408D01*
X159045118Y-72777754D01*
X159038633Y-72778134D01*
X159032945Y-72774996D01*
X158866603Y-72608654D01*
X158863465Y-72602966D01*
X158863844Y-72596482D01*
X159350192Y-71220999D01*
X159353774Y-71215879D01*
X159359482Y-71213332D01*
X159365686Y-71214087D01*
G37*
%TD.AperFunction*%
%TD*%
%TA.AperFunction,Conductor*%
%TO.N,/CAN Bus/CAN_INT*%
G36*
X208781552Y-124438272D02*
G01*
X208947814Y-124604534D01*
X208950668Y-124609189D01*
X208951098Y-124614632D01*
X208764557Y-125796033D01*
X208760605Y-125803100D01*
X208753010Y-125805908D01*
X207970128Y-125806600D01*
X207963617Y-125804627D01*
X207959303Y-125799365D01*
X207660793Y-125076339D01*
X207660545Y-125068066D01*
X207665831Y-125061699D01*
X208767504Y-124436369D01*
X208774849Y-124434951D01*
X208781552Y-124438272D01*
G37*
%TD.AperFunction*%
%TD*%
%TA.AperFunction,Conductor*%
%TO.N,GND*%
G36*
X108299382Y-145413161D02*
G01*
X108304660Y-145416833D01*
X108755283Y-145969065D01*
X109103395Y-146395671D01*
X109106030Y-146403068D01*
X109106030Y-146638204D01*
X109102965Y-146646098D01*
X109095377Y-146649857D01*
X107743531Y-146771355D01*
X107737254Y-146770168D01*
X107732536Y-146765860D01*
X107730784Y-146759717D01*
X107730647Y-146649857D01*
X107729806Y-145977359D01*
X107730696Y-145972870D01*
X107733237Y-145969068D01*
X108287332Y-145415950D01*
X108292958Y-145412834D01*
X108299382Y-145413161D01*
G37*
%TD.AperFunction*%
%TD*%
%TA.AperFunction,Conductor*%
%TO.N,Net-(Q2-G)*%
G36*
X211041077Y-57295687D02*
G01*
X212006579Y-58093821D01*
X212010212Y-58099103D01*
X212010515Y-58105508D01*
X212007397Y-58111111D01*
X211841821Y-58276687D01*
X211836862Y-58279635D01*
X210783437Y-58590724D01*
X210775084Y-58590062D01*
X210769316Y-58583986D01*
X210469492Y-57861125D01*
X210468826Y-57854357D01*
X210472034Y-57848364D01*
X211025359Y-57296421D01*
X211033076Y-57293018D01*
X211041077Y-57295687D01*
G37*
%TD.AperFunction*%
%TD*%
%TA.AperFunction,Conductor*%
%TO.N,RTDSCLK*%
G36*
X234015059Y-122798453D02*
G01*
X234838896Y-123297304D01*
X234843952Y-123303660D01*
X234843650Y-123311777D01*
X234527668Y-124076979D01*
X234523985Y-124081789D01*
X234518389Y-124084112D01*
X234512381Y-124083324D01*
X233747212Y-123766784D01*
X233740987Y-123760710D01*
X233740674Y-123752019D01*
X233997300Y-123037700D01*
X233997300Y-122808462D01*
X234000090Y-122800879D01*
X234007129Y-122796913D01*
X234015059Y-122798453D01*
G37*
%TD.AperFunction*%
%TD*%
%TA.AperFunction,Conductor*%
%TO.N,GND*%
G36*
X192068895Y-65722889D02*
G01*
X192075039Y-65727090D01*
X192077406Y-65734146D01*
X192077406Y-65969287D01*
X192076112Y-65974635D01*
X192072517Y-65978800D01*
X191103345Y-66672614D01*
X191095580Y-66674762D01*
X191088269Y-66671381D01*
X190534144Y-66118234D01*
X190530935Y-66112235D01*
X190531605Y-66105467D01*
X190831757Y-65383194D01*
X190837467Y-65377153D01*
X190845748Y-65376429D01*
X192068895Y-65722889D01*
G37*
%TD.AperFunction*%
%TD*%
%TA.AperFunction,Conductor*%
%TO.N,Net-(IC17-C2+)*%
G36*
X102526411Y-110373128D02*
G01*
X103314045Y-111037694D01*
X103317111Y-111041706D01*
X103318200Y-111046636D01*
X103318200Y-111285764D01*
X103317111Y-111290694D01*
X103314045Y-111294706D01*
X102526411Y-111959271D01*
X102518375Y-111962019D01*
X102510598Y-111958607D01*
X102050764Y-111499348D01*
X101725487Y-111174477D01*
X101722455Y-111169231D01*
X101722455Y-111163169D01*
X101725488Y-111157922D01*
X101836913Y-111046636D01*
X102510598Y-110373791D01*
X102518375Y-110370380D01*
X102526411Y-110373128D01*
G37*
%TD.AperFunction*%
%TD*%
%TA.AperFunction,Conductor*%
%TO.N,GND*%
G36*
X145961855Y-87593711D02*
G01*
X145966172Y-87598583D01*
X146571833Y-88874648D01*
X146572908Y-88880797D01*
X146570669Y-88886623D01*
X146565753Y-88890469D01*
X145842490Y-89191034D01*
X145838000Y-89191930D01*
X145833510Y-89191034D01*
X145110246Y-88890469D01*
X145105330Y-88886623D01*
X145103091Y-88880797D01*
X145104165Y-88874650D01*
X145709828Y-87598582D01*
X145714145Y-87593711D01*
X145720398Y-87591900D01*
X145955602Y-87591900D01*
X145961855Y-87593711D01*
G37*
%TD.AperFunction*%
%TD*%
%TA.AperFunction,Conductor*%
%TO.N,GND*%
G36*
X124179309Y-77440228D02*
G01*
X124185131Y-77445197D01*
X124612536Y-78172849D01*
X124614091Y-78179926D01*
X124611182Y-78186561D01*
X124130483Y-78725789D01*
X124125207Y-78729180D01*
X124118937Y-78729360D01*
X124113476Y-78726276D01*
X123945971Y-78558771D01*
X123945023Y-78557700D01*
X123655528Y-78187022D01*
X123653053Y-78180125D01*
X123655164Y-78173110D01*
X124165459Y-77444411D01*
X124171660Y-77439923D01*
X124179309Y-77440228D01*
G37*
%TD.AperFunction*%
%TD*%
%TA.AperFunction,Conductor*%
%TO.N,RTDMISO*%
G36*
X224628810Y-123494392D02*
G01*
X225217362Y-124081561D01*
X225220573Y-124087557D01*
X225219906Y-124094326D01*
X224900920Y-124863448D01*
X224895189Y-124869507D01*
X224886879Y-124870210D01*
X223767230Y-124548182D01*
X223762191Y-124545211D01*
X223596496Y-124379516D01*
X223593393Y-124373976D01*
X223593640Y-124367632D01*
X223597163Y-124362353D01*
X224612945Y-123493782D01*
X224620996Y-123490984D01*
X224628810Y-123494392D01*
G37*
%TD.AperFunction*%
%TD*%
%TA.AperFunction,Conductor*%
%TO.N,Sense1-9*%
G36*
X181085287Y-60095964D02*
G01*
X181831624Y-60406086D01*
X181836544Y-60409938D01*
X181838780Y-60415776D01*
X181837691Y-60421931D01*
X181208980Y-61738442D01*
X181204663Y-61743296D01*
X181198422Y-61745100D01*
X180963178Y-61745100D01*
X180956937Y-61743296D01*
X180952620Y-61738442D01*
X180323908Y-60421931D01*
X180322819Y-60415776D01*
X180325055Y-60409938D01*
X180329973Y-60406087D01*
X181076312Y-60095964D01*
X181080800Y-60095069D01*
X181085287Y-60095964D01*
G37*
%TD.AperFunction*%
%TD*%
%TA.AperFunction,Conductor*%
%TO.N,GND*%
G36*
X188504855Y-117646242D02*
G01*
X188521539Y-117653131D01*
X189228812Y-117945137D01*
X189232620Y-117947679D01*
X189235162Y-117951487D01*
X189534056Y-118675443D01*
X189534812Y-118681639D01*
X189532276Y-118687342D01*
X189527168Y-118690929D01*
X188196587Y-119164975D01*
X188190089Y-119165368D01*
X188184387Y-119162227D01*
X188018072Y-118995912D01*
X188014931Y-118990210D01*
X188015323Y-118983716D01*
X188489372Y-117653127D01*
X188492957Y-117648023D01*
X188498660Y-117645487D01*
X188504855Y-117646242D01*
G37*
%TD.AperFunction*%
%TD*%
%TA.AperFunction,Conductor*%
%TO.N,IN3TTL*%
G36*
X227657802Y-71226403D02*
G01*
X227661441Y-71231349D01*
X228036969Y-72202834D01*
X228037503Y-72209471D01*
X228034329Y-72215325D01*
X227868325Y-72381329D01*
X227862471Y-72384503D01*
X227855834Y-72383969D01*
X226884349Y-72008441D01*
X226879403Y-72004802D01*
X226876981Y-71999159D01*
X226877750Y-71993069D01*
X227100238Y-71453589D01*
X227102780Y-71449780D01*
X227106589Y-71447238D01*
X227646069Y-71224750D01*
X227652159Y-71223981D01*
X227657802Y-71226403D01*
G37*
%TD.AperFunction*%
%TD*%
%TA.AperFunction,Conductor*%
%TO.N,GND*%
G36*
X190043755Y-56854042D02*
G01*
X190060439Y-56860931D01*
X190767712Y-57152937D01*
X190771520Y-57155479D01*
X190774062Y-57159287D01*
X191072956Y-57883243D01*
X191073712Y-57889439D01*
X191071176Y-57895142D01*
X191066068Y-57898729D01*
X189735487Y-58372775D01*
X189728989Y-58373168D01*
X189723287Y-58370027D01*
X189556972Y-58203712D01*
X189553831Y-58198010D01*
X189554223Y-58191516D01*
X190028272Y-56860927D01*
X190031857Y-56855823D01*
X190037560Y-56853287D01*
X190043755Y-56854042D01*
G37*
%TD.AperFunction*%
%TD*%
%TA.AperFunction,Conductor*%
%TO.N,SDDetect*%
G36*
X214879740Y-91288222D02*
G01*
X215146735Y-91554550D01*
X215433062Y-91840162D01*
X215436273Y-91846157D01*
X215435606Y-91852927D01*
X215135783Y-92575786D01*
X215130015Y-92581862D01*
X215121662Y-92582524D01*
X214068237Y-92271435D01*
X214063278Y-92268487D01*
X213897702Y-92102911D01*
X213894584Y-92097308D01*
X213894887Y-92090903D01*
X213898517Y-92085623D01*
X214864023Y-91287486D01*
X214872023Y-91284818D01*
X214879740Y-91288222D01*
G37*
%TD.AperFunction*%
%TD*%
%TA.AperFunction,Conductor*%
%TO.N,OilPressure*%
G36*
X125297636Y-116749236D02*
G01*
X125582403Y-117034715D01*
X125849577Y-117302559D01*
X125852981Y-117310276D01*
X125850312Y-117318277D01*
X125052179Y-118283779D01*
X125046896Y-118287412D01*
X125040491Y-118287715D01*
X125034888Y-118284597D01*
X124869312Y-118119021D01*
X124866364Y-118114062D01*
X124555275Y-117060635D01*
X124555937Y-117052284D01*
X124562011Y-117046517D01*
X125284874Y-116746692D01*
X125291642Y-116746026D01*
X125297636Y-116749236D01*
G37*
%TD.AperFunction*%
%TD*%
%TA.AperFunction,Conductor*%
%TO.N,SDDetect*%
G36*
X178363167Y-117780804D02*
G01*
X178744309Y-118003476D01*
X179084799Y-118202400D01*
X179084800Y-118202400D01*
X179312010Y-118202400D01*
X179319821Y-118205389D01*
X179323641Y-118212830D01*
X179321517Y-118220919D01*
X178639784Y-119171365D01*
X178634517Y-119175451D01*
X178627874Y-119175997D01*
X178622011Y-119172826D01*
X178026634Y-118578425D01*
X178023426Y-118572435D01*
X178024088Y-118565675D01*
X178346457Y-117786431D01*
X178350570Y-117781313D01*
X178356795Y-117779217D01*
X178363167Y-117780804D01*
G37*
%TD.AperFunction*%
%TD*%
%TA.AperFunction,Conductor*%
%TO.N,Net-(Q5-D)*%
G36*
X99851884Y-76189708D02*
G01*
X100454906Y-76692859D01*
X100458509Y-76698142D01*
X100458797Y-76704531D01*
X100455683Y-76710116D01*
X100288751Y-76877048D01*
X100287034Y-76878465D01*
X99774131Y-77225486D01*
X99768336Y-77227471D01*
X99762332Y-77226255D01*
X99757765Y-77222172D01*
X99389327Y-76655292D01*
X99387499Y-76647731D01*
X99390818Y-76640693D01*
X99836071Y-76190463D01*
X99843829Y-76187005D01*
X99851884Y-76189708D01*
G37*
%TD.AperFunction*%
%TD*%
%TA.AperFunction,Conductor*%
%TO.N,Net-(Q3-G)*%
G36*
X210794077Y-66448787D02*
G01*
X211759579Y-67246921D01*
X211763212Y-67252203D01*
X211763515Y-67258608D01*
X211760397Y-67264211D01*
X211594821Y-67429787D01*
X211589862Y-67432735D01*
X210536437Y-67743824D01*
X210528084Y-67743162D01*
X210522316Y-67737086D01*
X210222492Y-67014225D01*
X210221826Y-67007457D01*
X210225034Y-67001464D01*
X210778359Y-66449521D01*
X210786076Y-66446118D01*
X210794077Y-66448787D01*
G37*
%TD.AperFunction*%
%TD*%
%TA.AperFunction,Conductor*%
%TO.N,GND*%
G36*
X141774355Y-120073511D02*
G01*
X141778672Y-120078383D01*
X142384333Y-121354448D01*
X142385408Y-121360597D01*
X142383169Y-121366423D01*
X142378253Y-121370269D01*
X141654990Y-121670834D01*
X141650500Y-121671730D01*
X141646010Y-121670834D01*
X140922746Y-121370269D01*
X140917830Y-121366423D01*
X140915591Y-121360597D01*
X140916665Y-121354450D01*
X141522328Y-120078382D01*
X141526645Y-120073511D01*
X141532898Y-120071700D01*
X141768102Y-120071700D01*
X141774355Y-120073511D01*
G37*
%TD.AperFunction*%
%TD*%
%TA.AperFunction,Conductor*%
%TO.N,Sense1-1*%
G36*
X180329986Y-78834087D02*
G01*
X181077014Y-79142538D01*
X181080821Y-79145078D01*
X181083362Y-79148886D01*
X181391811Y-79895912D01*
X181392567Y-79902117D01*
X181390020Y-79907825D01*
X181384897Y-79911408D01*
X180009418Y-80397754D01*
X180002933Y-80398134D01*
X179997245Y-80394996D01*
X179830903Y-80228654D01*
X179827765Y-80222966D01*
X179828144Y-80216482D01*
X180314492Y-78840999D01*
X180318074Y-78835879D01*
X180323782Y-78833332D01*
X180329986Y-78834087D01*
G37*
%TD.AperFunction*%
%TD*%
%TA.AperFunction,Conductor*%
%TO.N,GND*%
G36*
X211123780Y-78480742D02*
G01*
X211128403Y-78483585D01*
X211294891Y-78650073D01*
X211298187Y-78656602D01*
X211296962Y-78663813D01*
X210722776Y-79750237D01*
X210716406Y-79755775D01*
X210707967Y-79755585D01*
X209985234Y-79457196D01*
X209979972Y-79452882D01*
X209977999Y-79446374D01*
X209978691Y-78663546D01*
X209981521Y-78655927D01*
X209988632Y-78651990D01*
X211118375Y-78480291D01*
X211123780Y-78480742D01*
G37*
%TD.AperFunction*%
%TD*%
%TA.AperFunction,Conductor*%
%TO.N,AmbientCS*%
G36*
X220018207Y-91573083D02*
G01*
X220281018Y-91682891D01*
X220287114Y-91688750D01*
X220287670Y-91697187D01*
X220141271Y-92164001D01*
X220137033Y-92169930D01*
X220130107Y-92172200D01*
X219897293Y-92172200D01*
X219890367Y-92169930D01*
X219886129Y-92164001D01*
X219739729Y-91697187D01*
X219740285Y-91688750D01*
X219746379Y-91682892D01*
X220009192Y-91573083D01*
X220013700Y-91572180D01*
X220018207Y-91573083D01*
G37*
%TD.AperFunction*%
%TD*%
%TA.AperFunction,Conductor*%
%TO.N,Sense1-6*%
G36*
X178419986Y-71214087D02*
G01*
X179167014Y-71522538D01*
X179170821Y-71525078D01*
X179173362Y-71528886D01*
X179481811Y-72275912D01*
X179482567Y-72282117D01*
X179480020Y-72287825D01*
X179474897Y-72291408D01*
X178099418Y-72777754D01*
X178092933Y-72778134D01*
X178087245Y-72774996D01*
X177920903Y-72608654D01*
X177917765Y-72602966D01*
X177918144Y-72596482D01*
X178404492Y-71220999D01*
X178408074Y-71215879D01*
X178413782Y-71213332D01*
X178419986Y-71214087D01*
G37*
%TD.AperFunction*%
%TD*%
%TA.AperFunction,Conductor*%
%TO.N,SDA*%
G36*
X164936482Y-107897308D02*
G01*
X166087855Y-108549502D01*
X166093149Y-108555869D01*
X166092903Y-108564147D01*
X165793262Y-109289912D01*
X165790720Y-109293720D01*
X165786912Y-109296262D01*
X165061147Y-109595903D01*
X165052869Y-109596149D01*
X165046502Y-109590855D01*
X164879630Y-109296262D01*
X164394308Y-108439482D01*
X164392895Y-108432141D01*
X164396215Y-108425444D01*
X164922444Y-107899215D01*
X164929141Y-107895895D01*
X164936482Y-107897308D01*
G37*
%TD.AperFunction*%
%TD*%
%TA.AperFunction,Conductor*%
%TO.N,Net-(Q25-D)*%
G36*
X201742615Y-77902206D02*
G01*
X201743511Y-77903484D01*
X202250467Y-78626329D01*
X202252561Y-78632251D01*
X202251290Y-78638403D01*
X202247021Y-78643011D01*
X201932500Y-78836600D01*
X201932500Y-79063075D01*
X201929444Y-79070960D01*
X201921872Y-79074726D01*
X201913740Y-79072405D01*
X201911830Y-79070960D01*
X201345573Y-78642486D01*
X201341214Y-78635706D01*
X201342274Y-78627718D01*
X201722679Y-77903483D01*
X201728427Y-77898172D01*
X201736237Y-77897671D01*
X201742615Y-77902206D01*
G37*
%TD.AperFunction*%
%TD*%
%TA.AperFunction,Conductor*%
%TO.N,Sense2-10*%
G36*
X161118107Y-66623148D02*
G01*
X161381584Y-66731336D01*
X161385413Y-66733886D01*
X161387963Y-66737715D01*
X161496151Y-67001192D01*
X161496319Y-67009646D01*
X161490746Y-67016006D01*
X161057140Y-67242573D01*
X161049951Y-67243768D01*
X161043449Y-67240476D01*
X160878823Y-67075850D01*
X160875531Y-67069348D01*
X160876725Y-67062163D01*
X161103294Y-66628551D01*
X161109653Y-66622980D01*
X161118107Y-66623148D01*
G37*
%TD.AperFunction*%
%TD*%
%TA.AperFunction,Conductor*%
%TO.N,GND*%
G36*
X122875255Y-120082011D02*
G01*
X122879572Y-120086883D01*
X123485233Y-121362948D01*
X123486308Y-121369097D01*
X123484069Y-121374923D01*
X123479153Y-121378769D01*
X122755890Y-121679334D01*
X122751400Y-121680230D01*
X122746910Y-121679334D01*
X122023646Y-121378769D01*
X122018730Y-121374923D01*
X122016491Y-121369097D01*
X122017565Y-121362950D01*
X122623228Y-120086882D01*
X122627545Y-120082011D01*
X122633798Y-120080200D01*
X122869002Y-120080200D01*
X122875255Y-120082011D01*
G37*
%TD.AperFunction*%
%TD*%
%TA.AperFunction,Conductor*%
%TO.N,OUTPUTLED2*%
G36*
X144494828Y-93596602D02*
G01*
X144965799Y-94011131D01*
X144969477Y-94017314D01*
X144968841Y-94024480D01*
X144615125Y-94858667D01*
X144610813Y-94863855D01*
X144604353Y-94865800D01*
X144369847Y-94865800D01*
X144363387Y-94863855D01*
X144359075Y-94858667D01*
X144005358Y-94024480D01*
X144004722Y-94017314D01*
X144008398Y-94011133D01*
X144479371Y-93596602D01*
X144487100Y-93593686D01*
X144494828Y-93596602D01*
G37*
%TD.AperFunction*%
%TD*%
%TA.AperFunction,Conductor*%
%TO.N,GND*%
G36*
X99911085Y-135388064D02*
G01*
X100563290Y-135659098D01*
X100634353Y-135688630D01*
X100639269Y-135692476D01*
X100641508Y-135698302D01*
X100640433Y-135704451D01*
X100034772Y-136980517D01*
X100030455Y-136985389D01*
X100024202Y-136987200D01*
X99788998Y-136987200D01*
X99782745Y-136985389D01*
X99778428Y-136980517D01*
X99172766Y-135704451D01*
X99171691Y-135698302D01*
X99173930Y-135692476D01*
X99178845Y-135688630D01*
X99902114Y-135388064D01*
X99906600Y-135387169D01*
X99911085Y-135388064D01*
G37*
%TD.AperFunction*%
%TD*%
%TA.AperFunction,Conductor*%
%TO.N,+5V*%
G36*
X218939531Y-68684750D02*
G01*
X219479007Y-68907237D01*
X219482819Y-68909780D01*
X219485362Y-68913592D01*
X219707848Y-69453067D01*
X219708618Y-69459159D01*
X219706196Y-69464802D01*
X219701250Y-69468441D01*
X218729765Y-69843969D01*
X218723128Y-69844503D01*
X218717274Y-69841329D01*
X218551270Y-69675325D01*
X218548096Y-69669471D01*
X218548630Y-69662834D01*
X218623773Y-69468441D01*
X218924159Y-68691347D01*
X218927797Y-68686403D01*
X218933440Y-68683981D01*
X218939531Y-68684750D01*
G37*
%TD.AperFunction*%
%TD*%
%TA.AperFunction,Conductor*%
%TO.N,GND*%
G36*
X100030146Y-138496276D02*
G01*
X100034435Y-138501803D01*
X100498573Y-139748992D01*
X100498337Y-139757740D01*
X100492098Y-139763877D01*
X99767890Y-140064834D01*
X99763400Y-140065730D01*
X99758910Y-140064834D01*
X99036797Y-139764748D01*
X99031663Y-139760597D01*
X99029593Y-139754327D01*
X99031247Y-139747937D01*
X99778194Y-138499875D01*
X99782462Y-138495706D01*
X99788232Y-138494184D01*
X100023470Y-138494184D01*
X100030146Y-138496276D01*
G37*
%TD.AperFunction*%
%TD*%
%TA.AperFunction,Conductor*%
%TO.N,GND*%
G36*
X198805997Y-75347499D02*
G01*
X198810439Y-75352841D01*
X199107910Y-76071973D01*
X199108572Y-76078735D01*
X199105364Y-76084725D01*
X198554151Y-76634964D01*
X198548616Y-76638061D01*
X198542278Y-76637814D01*
X198537000Y-76634297D01*
X197877348Y-75864413D01*
X197874548Y-75856200D01*
X197878175Y-75848317D01*
X197886233Y-75845100D01*
X198110800Y-75845100D01*
X198792736Y-75347858D01*
X198799309Y-75345617D01*
X198805997Y-75347499D01*
G37*
%TD.AperFunction*%
%TD*%
%TA.AperFunction,Conductor*%
%TO.N,Net-(J10-Pin_2)*%
G36*
X174124555Y-92639311D02*
G01*
X174128872Y-92644183D01*
X174734533Y-93920248D01*
X174735608Y-93926397D01*
X174733369Y-93932223D01*
X174728453Y-93936069D01*
X174005190Y-94236634D01*
X174000700Y-94237530D01*
X173996210Y-94236634D01*
X173272946Y-93936069D01*
X173268030Y-93932223D01*
X173265791Y-93926397D01*
X173266865Y-93920250D01*
X173872528Y-92644182D01*
X173876845Y-92639311D01*
X173883098Y-92637500D01*
X174118302Y-92637500D01*
X174124555Y-92639311D01*
G37*
%TD.AperFunction*%
%TD*%
%TA.AperFunction,Conductor*%
%TO.N,RTDMISO*%
G36*
X185501000Y-106124482D02*
G01*
X185504000Y-106132305D01*
X185504000Y-106359400D01*
X185917393Y-107072651D01*
X185918959Y-107079017D01*
X185916856Y-107085226D01*
X185911743Y-107089329D01*
X185145027Y-107406510D01*
X185138264Y-107407173D01*
X185132274Y-107403965D01*
X184547448Y-106818164D01*
X184544281Y-106812317D01*
X184544812Y-106805687D01*
X184548867Y-106800422D01*
X185485442Y-106122825D01*
X185493539Y-106120671D01*
X185501000Y-106124482D01*
G37*
%TD.AperFunction*%
%TD*%
%TA.AperFunction,Conductor*%
%TO.N,RTDSCLK*%
G36*
X224406526Y-85845793D02*
G01*
X225175648Y-86164779D01*
X225181707Y-86170510D01*
X225182410Y-86178820D01*
X224860382Y-87298469D01*
X224857411Y-87303508D01*
X224691716Y-87469203D01*
X224686176Y-87472306D01*
X224679832Y-87472059D01*
X224674551Y-87468534D01*
X224531615Y-87301372D01*
X223805982Y-86452755D01*
X223803184Y-86444703D01*
X223806591Y-86436890D01*
X224393763Y-85848335D01*
X224399757Y-85845126D01*
X224406526Y-85845793D01*
G37*
%TD.AperFunction*%
%TD*%
M02*
