%TF.GenerationSoftware,KiCad,Pcbnew,7.0.1*%
%TF.CreationDate,2023-07-31T19:52:26-07:00*%
%TF.ProjectId,AMS-Mega2560-Base,414d532d-4d65-4676-9132-3536302d4261,rev?*%
%TF.SameCoordinates,Original*%
%TF.FileFunction,Copper,L3,Inr*%
%TF.FilePolarity,Positive*%
%FSLAX46Y46*%
G04 Gerber Fmt 4.6, Leading zero omitted, Abs format (unit mm)*
G04 Created by KiCad (PCBNEW 7.0.1) date 2023-07-31 19:52:26*
%MOMM*%
%LPD*%
G01*
G04 APERTURE LIST*
%TA.AperFunction,ComponentPad*%
%ADD10C,1.727200*%
%TD*%
%TA.AperFunction,ComponentPad*%
%ADD11O,1.727200X1.727200*%
%TD*%
%TA.AperFunction,ComponentPad*%
%ADD12O,1.727200X2.032000*%
%TD*%
%TA.AperFunction,ComponentPad*%
%ADD13C,4.064000*%
%TD*%
%TA.AperFunction,ComponentPad*%
%ADD14C,1.650000*%
%TD*%
%TA.AperFunction,ComponentPad*%
%ADD15C,1.600000*%
%TD*%
%TA.AperFunction,ComponentPad*%
%ADD16O,1.600000X1.600000*%
%TD*%
%TA.AperFunction,ComponentPad*%
%ADD17R,1.050000X1.500000*%
%TD*%
%TA.AperFunction,ComponentPad*%
%ADD18O,1.050000X1.500000*%
%TD*%
%TA.AperFunction,ComponentPad*%
%ADD19R,1.920000X1.920000*%
%TD*%
%TA.AperFunction,ComponentPad*%
%ADD20C,1.920000*%
%TD*%
%TA.AperFunction,ComponentPad*%
%ADD21R,1.700000X1.700000*%
%TD*%
%TA.AperFunction,ComponentPad*%
%ADD22O,1.700000X1.700000*%
%TD*%
%TA.AperFunction,ComponentPad*%
%ADD23R,1.150000X1.150000*%
%TD*%
%TA.AperFunction,ComponentPad*%
%ADD24C,1.150000*%
%TD*%
%TA.AperFunction,ComponentPad*%
%ADD25R,2.600000X2.600000*%
%TD*%
%TA.AperFunction,ComponentPad*%
%ADD26C,2.600000*%
%TD*%
%TA.AperFunction,ComponentPad*%
%ADD27R,1.600000X1.600000*%
%TD*%
%TA.AperFunction,ComponentPad*%
%ADD28R,1.160000X1.160000*%
%TD*%
%TA.AperFunction,ComponentPad*%
%ADD29C,1.160000*%
%TD*%
%TA.AperFunction,ComponentPad*%
%ADD30C,2.360000*%
%TD*%
%TA.AperFunction,ComponentPad*%
%ADD31R,1.200000X1.200000*%
%TD*%
%TA.AperFunction,ComponentPad*%
%ADD32C,1.200000*%
%TD*%
%TA.AperFunction,ComponentPad*%
%ADD33C,1.500000*%
%TD*%
%TA.AperFunction,ViaPad*%
%ADD34C,0.600000*%
%TD*%
%TA.AperFunction,ViaPad*%
%ADD35C,0.762000*%
%TD*%
%TA.AperFunction,Conductor*%
%ADD36C,0.250000*%
%TD*%
%TA.AperFunction,Conductor*%
%ADD37C,0.762000*%
%TD*%
G04 APERTURE END LIST*
D10*
%TO.N,GND*%
%TO.C,P4*%
X178021100Y-143971900D03*
D11*
X180561100Y-143971900D03*
%TO.N,SCLK*%
X178021100Y-141431900D03*
%TO.N,unconnected-(P4-Pin_4-Pad4)*%
X180561100Y-141431900D03*
%TO.N,MISO*%
X178021100Y-138891900D03*
%TO.N,MOSI*%
X180561100Y-138891900D03*
%TO.N,WaterCS*%
X178021100Y-136351900D03*
%TO.N,Logging*%
X180561100Y-136351900D03*
%TO.N,LsideCS*%
X178021100Y-133811900D03*
%TO.N,IN3TTL*%
X180561100Y-133811900D03*
%TO.N,RsideCS*%
X178021100Y-131271900D03*
%TO.N,OUTPUTLED2*%
X180561100Y-131271900D03*
%TO.N,FrontCS*%
X178021100Y-128731900D03*
%TO.N,OUTPUTLED1*%
X180561100Y-128731900D03*
%TO.N,AmbientCS*%
X178021100Y-126191900D03*
%TO.N,unconnected-(P4-Pin_16-Pad16)*%
X180561100Y-126191900D03*
%TO.N,CarbCS*%
X178021100Y-123651900D03*
%TO.N,unconnected-(P4-Pin_18-Pad18)*%
X180561100Y-123651900D03*
%TO.N,SDCS*%
X178021100Y-121111900D03*
%TO.N,unconnected-(P4-Pin_20-Pad20)*%
X180561100Y-121111900D03*
%TO.N,SDDetect*%
X178021100Y-118571900D03*
%TO.N,unconnected-(P4-Pin_22-Pad22)*%
X180561100Y-118571900D03*
%TO.N,CANCS*%
X178021100Y-116031900D03*
%TO.N,unconnected-(P4-Pin_24-Pad24)*%
X180561100Y-116031900D03*
%TO.N,CAN_TX_STBY*%
X178021100Y-113491900D03*
%TO.N,unconnected-(P4-Pin_26-Pad26)*%
X180561100Y-113491900D03*
%TO.N,CAN_INT*%
X178021100Y-110951900D03*
%TO.N,unconnected-(P4-Pin_28-Pad28)*%
X180561100Y-110951900D03*
%TO.N,unconnected-(P4-Pin_29-Pad29)*%
X178021100Y-108411900D03*
%TO.N,SWSCLK*%
X180561100Y-108411900D03*
%TO.N,unconnected-(P4-Pin_31-Pad31)*%
X178021100Y-105871900D03*
%TO.N,SWMISO*%
X180561100Y-105871900D03*
%TO.N,unconnected-(P4-Pin_33-Pad33)*%
X178021100Y-103331900D03*
%TO.N,SWMOSI*%
X180561100Y-103331900D03*
%TO.N,unconnected-(P4-Pin_35-Pad35)*%
X178021100Y-100791900D03*
%TO.N,unconnected-(P4-Pin_36-Pad36)*%
X180561100Y-100791900D03*
%TD*%
D12*
%TO.N,unconnected-(P1-Pin_1-Pad1)*%
%TO.C,P1*%
X111981100Y-149051900D03*
%TO.N,unconnected-(P1-Pin_2-Pad2)*%
X114521100Y-149051900D03*
%TO.N,unconnected-(P1-Pin_3-Pad3)*%
X117061100Y-149051900D03*
%TO.N,unconnected-(P1-Pin_4-Pad4)*%
X119601100Y-149051900D03*
%TO.N,+5V*%
X122141100Y-149051900D03*
%TO.N,GND*%
X124681100Y-149051900D03*
X127221100Y-149051900D03*
%TO.N,unconnected-(P1-Pin_8-Pad8)*%
X129761100Y-149051900D03*
%TD*%
%TO.N,VoltageSensor*%
%TO.C,P2*%
X134841100Y-149051900D03*
%TO.N,GPSBat*%
X137381100Y-149051900D03*
%TO.N,FuelPressure1*%
X139921100Y-149051900D03*
%TO.N,FuelPressure2*%
X142461100Y-149051900D03*
%TO.N,FuelPressure3*%
X145001100Y-149051900D03*
%TO.N,OilPressure*%
X147541100Y-149051900D03*
%TO.N,SpareADC1*%
X150081100Y-149051900D03*
%TO.N,SpareADC2*%
X152621100Y-149051900D03*
%TD*%
%TO.N,SpareADC3*%
%TO.C,P3*%
X157701100Y-149051900D03*
%TO.N,Sense1-1*%
X160241100Y-149051900D03*
%TO.N,unconnected-(P3-Pin_3-Pad3)*%
X162781100Y-149051900D03*
%TO.N,unconnected-(P3-Pin_4-Pad4)*%
X165321100Y-149051900D03*
%TO.N,unconnected-(P3-Pin_5-Pad5)*%
X167861100Y-149051900D03*
%TO.N,unconnected-(P3-Pin_6-Pad6)*%
X170401100Y-149051900D03*
%TO.N,unconnected-(P3-Pin_7-Pad7)*%
X172941100Y-149051900D03*
%TO.N,unconnected-(P3-Pin_8-Pad8)*%
X175481100Y-149051900D03*
%TD*%
%TO.N,SCL*%
%TO.C,P5*%
X102837100Y-100791900D03*
%TO.N,SDA*%
X105377100Y-100791900D03*
%TO.N,unconnected-(P5-Pin_3-Pad3)*%
X107917100Y-100791900D03*
%TO.N,GND*%
X110457100Y-100791900D03*
%TO.N,unconnected-(P5-Pin_5-Pad5)*%
X112997100Y-100791900D03*
%TO.N,unconnected-(P5-Pin_6-Pad6)*%
X115537100Y-100791900D03*
%TO.N,unconnected-(P5-Pin_7-Pad7)*%
X118077100Y-100791900D03*
%TO.N,unconnected-(P5-Pin_8-Pad8)*%
X120617100Y-100791900D03*
%TO.N,unconnected-(P5-Pin_9-Pad9)*%
X123157100Y-100791900D03*
%TO.N,OUTPUTSiren*%
X125697100Y-100791900D03*
%TD*%
%TO.N,OUTPUT4*%
%TO.C,P6*%
X129761100Y-100791900D03*
%TO.N,OUTPUT3*%
X132301100Y-100791900D03*
%TO.N,OUTPUT2*%
X134841100Y-100791900D03*
%TO.N,OUTPUT1*%
X137381100Y-100791900D03*
%TO.N,IN2TTL*%
X139921100Y-100791900D03*
%TO.N,IN1TTL*%
X142461100Y-100791900D03*
%TO.N,unconnected-(P6-Pin_7-Pad7)*%
X145001100Y-100791900D03*
%TO.N,unconnected-(P6-Pin_8-Pad8)*%
X147541100Y-100791900D03*
%TD*%
%TO.N,GPSRX*%
%TO.C,P7*%
X152621100Y-100791900D03*
%TO.N,GPSTX*%
X155161100Y-100791900D03*
%TO.N,Com1TX*%
X157701100Y-100791900D03*
%TO.N,Com1RX*%
X160241100Y-100791900D03*
%TO.N,Com2TX*%
X162781100Y-100791900D03*
%TO.N,Com2RX*%
X165321100Y-100791900D03*
%TO.N,SDA*%
X167861100Y-100791900D03*
%TO.N,SCL*%
X170401100Y-100791900D03*
%TD*%
D13*
%TO.N,unconnected-(P8-Pin_1-Pad1)*%
%TO.C,P8*%
X98011100Y-149051900D03*
%TD*%
%TO.N,unconnected-(P9-Pin_1-Pad1)*%
%TO.C,P9*%
X150081100Y-143971900D03*
%TD*%
%TO.N,unconnected-(P10-Pin_1-Pad1)*%
%TO.C,P10*%
X180561100Y-149051900D03*
%TD*%
%TO.N,unconnected-(P11-Pin_1-Pad1)*%
%TO.C,P11*%
X99281100Y-100791900D03*
%TD*%
%TO.N,unconnected-(P12-Pin_1-Pad1)*%
%TO.C,P12*%
X150081100Y-116031900D03*
%TD*%
%TO.N,unconnected-(P13-Pin_1-Pad1)*%
%TO.C,P13*%
X174211100Y-100791900D03*
%TD*%
D14*
%TO.N,Sense1-1*%
%TO.C,J4*%
X181080800Y-79145100D03*
%TO.N,Sense1-2*%
X177270800Y-79145100D03*
%TO.N,Sense1-3*%
X173460800Y-79145100D03*
%TO.N,Sense1-4*%
X169650800Y-79145100D03*
%TO.N,Sense1-5*%
X182980800Y-71525100D03*
%TO.N,Sense1-6*%
X179170800Y-71525100D03*
%TO.N,Sense1-7*%
X175360800Y-71525100D03*
%TO.N,Sense1-8*%
X171550800Y-71525100D03*
%TO.N,Sense1-9*%
X181080800Y-60095100D03*
%TO.N,Sense1-10*%
X177270800Y-60095100D03*
%TO.N,Sense1-11*%
X173460800Y-60095100D03*
%TO.N,Sense1-12*%
X169650800Y-60095100D03*
%TD*%
%TO.N,Sense2-1*%
%TO.C,J5*%
X165836500Y-79145100D03*
%TO.N,Sense2-2*%
X162026500Y-79145100D03*
%TO.N,Sense2-3*%
X158216500Y-79145100D03*
%TO.N,Sense2-4*%
X154406500Y-79145100D03*
%TO.N,Sense2-5*%
X167736500Y-71525100D03*
%TO.N,Sense2-6*%
X163926500Y-71525100D03*
%TO.N,Sense2-7*%
X160116500Y-71525100D03*
%TO.N,Sense2-8*%
X156306500Y-71525100D03*
%TO.N,Sense2-9*%
X165836500Y-60095100D03*
%TO.N,Sense2-10*%
X162026500Y-60095100D03*
%TO.N,Sense2-11*%
X158216500Y-60095100D03*
%TO.N,Sense2-12*%
X154406500Y-60095100D03*
%TD*%
D15*
%TO.N,Net-(Q2-D)*%
%TO.C,R31*%
X197062500Y-61155500D03*
D16*
%TO.N,Net-(Q21-CATHODE_2)*%
X199602500Y-61155500D03*
%TD*%
D17*
%TO.N,GND*%
%TO.C,Q8*%
X145869300Y-85561400D03*
D18*
%TO.N,OUTPUTLED1*%
X147139300Y-85561400D03*
%TO.N,Net-(Q8-D)*%
X148409300Y-85561400D03*
%TD*%
D15*
%TO.N,+VDC*%
%TO.C,R43*%
X153587000Y-87436700D03*
D16*
%TO.N,Net-(Q10-Pad1)*%
X151047000Y-87436700D03*
%TD*%
D17*
%TO.N,GND*%
%TO.C,Q16*%
X159603700Y-85255900D03*
D18*
%TO.N,OUTPUTSiren*%
X160873700Y-85255900D03*
%TO.N,Net-(Q16-D)*%
X162143700Y-85255900D03*
%TD*%
D19*
%TO.N,Net-(Q13-Pad1)*%
%TO.C,Q13*%
X137948300Y-74690000D03*
D20*
%TO.N,Sense2-9*%
X137948300Y-77230000D03*
%TO.N,+VDC*%
X137948300Y-79770000D03*
%TD*%
D15*
%TO.N,Net-(J10-Pin_2)*%
%TO.C,R63*%
X174000700Y-94237500D03*
D16*
%TO.N,Sense1-5*%
X176540700Y-94237500D03*
%TD*%
D15*
%TO.N,GND*%
%TO.C,R24*%
X141650500Y-121671700D03*
D16*
%TO.N,SpareADC2*%
X139110500Y-121671700D03*
%TD*%
D15*
%TO.N,Net-(Q18-Pad1)*%
%TO.C,R56*%
X165174600Y-87090400D03*
D16*
%TO.N,Net-(Q16-D)*%
X167714600Y-87090400D03*
%TD*%
D19*
%TO.N,Net-(Q6-Pad1)*%
%TO.C,Q6*%
X93319000Y-73790400D03*
D20*
%TO.N,Net-(#FLG03-pwr)*%
X93319000Y-71250400D03*
%TO.N,Net-(#FLG0103-pwr)*%
X93319000Y-68710400D03*
%TD*%
D15*
%TO.N,Net-(Q20-Pad1)*%
%TO.C,R59*%
X132753300Y-52337500D03*
D16*
%TO.N,Net-(Q19-D)*%
X130213300Y-52337500D03*
%TD*%
D15*
%TO.N,GND*%
%TO.C,R12*%
X122751400Y-121680200D03*
D16*
%TO.N,Sense1-3*%
X125291400Y-121680200D03*
%TD*%
D15*
%TO.N,Net-(Q13-Pad1)*%
%TO.C,R48*%
X132330700Y-77430500D03*
D16*
%TO.N,Net-(Q11-D)*%
X132330700Y-79970500D03*
%TD*%
D15*
%TO.N,GND*%
%TO.C,R26*%
X141650500Y-130872700D03*
D16*
%TO.N,Sense2-7*%
X139110500Y-130872700D03*
%TD*%
D15*
%TO.N,+VDC*%
%TO.C,R41*%
X132040600Y-58566000D03*
D16*
%TO.N,Net-(Q9-Pad1)*%
X134580600Y-58566000D03*
%TD*%
D15*
%TO.N,+5V*%
%TO.C,R65*%
X207963000Y-121755900D03*
D16*
%TO.N,/CAN Bus/CAN_INT*%
X210503000Y-121755900D03*
%TD*%
D15*
%TO.N,Net-(Q6-Pad1)*%
%TO.C,R21*%
X84534800Y-68356300D03*
D16*
%TO.N,GND*%
X84534800Y-65816300D03*
%TD*%
D15*
%TO.N,GND*%
%TO.C,R22*%
X122751400Y-131190900D03*
D16*
%TO.N,SpareADC1*%
X125291400Y-131190900D03*
%TD*%
D21*
%TO.N,+5V*%
%TO.C,T3*%
X185205600Y-133341400D03*
D22*
%TO.N,GND*%
X185205600Y-135881400D03*
%TO.N,unconnected-(T3-Pin_3-Pad3)*%
X185205600Y-138421400D03*
%TO.N,RTDSCLK*%
X185205600Y-140961400D03*
%TO.N,RTDMISO*%
X185205600Y-143501400D03*
%TO.N,RTDMOSI*%
X185205600Y-146041400D03*
%TO.N,RsideCS*%
X185205600Y-148581400D03*
%TO.N,unconnected-(T3-Pin_8-Pad8)*%
X185205600Y-151121400D03*
%TD*%
D15*
%TO.N,+VDC*%
%TO.C,R58*%
X130663300Y-55452600D03*
D16*
%TO.N,Net-(Q20-Pad1)*%
X133203300Y-55452600D03*
%TD*%
D21*
%TO.N,/Sheet6152913C/RSCOM2TX*%
%TO.C,J9*%
X123089500Y-111075800D03*
D22*
%TO.N,/Sheet6152913C/RSCOM2RX*%
X123089500Y-108535800D03*
%TO.N,GND*%
X123089500Y-105995800D03*
%TD*%
D15*
%TO.N,Net-(Q24-D)*%
%TO.C,R11*%
X207680200Y-67007700D03*
D16*
%TO.N,Net-(Q3-G)*%
X210220200Y-67007700D03*
%TD*%
D15*
%TO.N,GND*%
%TO.C,R19*%
X122751400Y-116744400D03*
D16*
%TO.N,OilPressure*%
X125291400Y-116744400D03*
%TD*%
D17*
%TO.N,GND*%
%TO.C,Q15*%
X124980900Y-91002600D03*
D18*
%TO.N,OUTPUT4*%
X126250900Y-91002600D03*
%TO.N,Net-(Q15-D)*%
X127520900Y-91002600D03*
%TD*%
D23*
%TO.N,+VDC*%
%TO.C,Z9*%
X84521500Y-77164000D03*
D24*
%TO.N,Net-(Q22-Pad1)*%
X84521500Y-87864000D03*
%TD*%
D25*
%TO.N,Net-(#FLG03-pwr)*%
%TO.C,J21*%
X96112600Y-58096800D03*
D26*
%TO.N,GND*%
X91032600Y-58096800D03*
%TO.N,PowerOn*%
X85952600Y-58096800D03*
%TD*%
D15*
%TO.N,GND*%
%TO.C,R64*%
X199595500Y-102214500D03*
D16*
%TO.N,CAN_TX_STBY*%
X202135500Y-102214500D03*
%TD*%
D21*
%TO.N,+5V*%
%TO.C,T4*%
X204282700Y-133341400D03*
D22*
%TO.N,GND*%
X204282700Y-135881400D03*
%TO.N,unconnected-(T4-Pin_3-Pad3)*%
X204282700Y-138421400D03*
%TO.N,RTDSCLK*%
X204282700Y-140961400D03*
%TO.N,RTDMISO*%
X204282700Y-143501400D03*
%TO.N,RTDMOSI*%
X204282700Y-146041400D03*
%TO.N,FrontCS*%
X204282700Y-148581400D03*
%TO.N,unconnected-(T4-Pin_8-Pad8)*%
X204282700Y-151121400D03*
%TD*%
D15*
%TO.N,OUTPUTLED2*%
%TO.C,R46*%
X139912900Y-96025600D03*
D16*
%TO.N,GND*%
X137372900Y-96025600D03*
%TD*%
D15*
%TO.N,Net-(Q25-G)*%
%TO.C,R34*%
X196570900Y-76078200D03*
D16*
%TO.N,GND*%
X199110900Y-76078200D03*
%TD*%
D15*
%TO.N,Sense1-7*%
%TO.C,C5*%
X190771500Y-62155500D03*
%TO.N,GND*%
X190771500Y-57155500D03*
%TD*%
%TO.N,+5V*%
%TO.C,R36*%
X163218700Y-113941500D03*
D16*
%TO.N,SCL*%
X165758700Y-113941500D03*
%TD*%
D17*
%TO.N,GND*%
%TO.C,Q19*%
X123281600Y-54920500D03*
D18*
%TO.N,OUTPUT1*%
X124551600Y-54920500D03*
%TO.N,Net-(Q19-D)*%
X125821600Y-54920500D03*
%TD*%
D21*
%TO.N,unconnected-(J6-Pin_1-Pad1)*%
%TO.C,J6*%
X93896800Y-105925600D03*
D22*
%TO.N,unconnected-(J6-Pin_2-Pad2)*%
X91356800Y-105925600D03*
%TO.N,GPSBat*%
X88816800Y-105925600D03*
%TO.N,unconnected-(J6-Pin_4-Pad4)*%
X86276800Y-105925600D03*
%TO.N,GPSTX*%
X83736800Y-105925600D03*
%TO.N,GPSRX*%
X81196800Y-105925600D03*
%TO.N,GND*%
X78656800Y-105925600D03*
%TO.N,+5V*%
X76116800Y-105925600D03*
%TO.N,unconnected-(J6-Pin_9-Pad9)*%
X73576800Y-105925600D03*
%TD*%
D15*
%TO.N,Net-(Q28-D)*%
%TO.C,R5*%
X204438900Y-49635500D03*
D16*
%TO.N,Net-(Q1-G)*%
X206978900Y-49635500D03*
%TD*%
D19*
%TO.N,Net-(Q20-Pad1)*%
%TO.C,Q20*%
X137948300Y-51591400D03*
D20*
%TO.N,Sense2-3*%
X137948300Y-54131400D03*
%TO.N,+VDC*%
X137948300Y-56671400D03*
%TD*%
D15*
%TO.N,GND*%
%TO.C,R2*%
X99906600Y-135387200D03*
D16*
%TO.N,Sense1-12*%
X102446600Y-135387200D03*
%TD*%
D23*
%TO.N,+VDC*%
%TO.C,Z5*%
X124379600Y-85479800D03*
D24*
%TO.N,Net-(Q17-Pad1)*%
X135079600Y-85479800D03*
%TD*%
D15*
%TO.N,+VDC*%
%TO.C,R49*%
X150974700Y-92348200D03*
D16*
%TO.N,Net-(Q14-Pad1)*%
X148434700Y-92348200D03*
%TD*%
D15*
%TO.N,+5V*%
%TO.C,R1*%
X215437900Y-94386400D03*
D16*
%TO.N,SDDetect*%
X215437900Y-91846400D03*
%TD*%
D17*
%TO.N,GND*%
%TO.C,Q12*%
X143217100Y-93590800D03*
D18*
%TO.N,OUTPUTLED2*%
X144487100Y-93590800D03*
%TO.N,Net-(Q12-D)*%
X145757100Y-93590800D03*
%TD*%
D27*
%TO.N,GND*%
%TO.C,C39*%
X105777600Y-104378800D03*
D15*
%TO.N,Net-(#FLG0105-pwr)*%
X105777600Y-106878800D03*
%TD*%
D17*
%TO.N,GND*%
%TO.C,Q2*%
X213092300Y-59757100D03*
D18*
%TO.N,Net-(Q2-G)*%
X214362300Y-59757100D03*
%TO.N,Net-(Q2-D)*%
X215632300Y-59757100D03*
%TD*%
D17*
%TO.N,Net-(Q25-D)*%
%TO.C,Q25*%
X201732600Y-77886500D03*
D18*
%TO.N,Net-(Q25-G)*%
X203002600Y-77886500D03*
%TO.N,Sense2-1*%
X204272600Y-77886500D03*
%TD*%
D27*
%TO.N,Net-(#FLG0106-pwr)*%
%TO.C,C40*%
X101718200Y-117243200D03*
D15*
%TO.N,+5V*%
X101718200Y-119743200D03*
%TD*%
%TO.N,+VDC*%
%TO.C,R47*%
X132450100Y-70105300D03*
D16*
%TO.N,Net-(Q13-Pad1)*%
X134990100Y-70105300D03*
%TD*%
D21*
%TO.N,SWMOSI*%
%TO.C,J8*%
X229872200Y-121547800D03*
D22*
%TO.N,RTDMOSI*%
X229872200Y-124087800D03*
%TO.N,MOSI*%
X229872200Y-126627800D03*
%TD*%
D15*
%TO.N,Net-(IC3-OSC2)*%
%TO.C,C11*%
X189232600Y-122947700D03*
%TO.N,GND*%
X189232600Y-117947700D03*
%TD*%
%TO.N,Net-(Q9-Pad1)*%
%TO.C,R42*%
X132887300Y-64171300D03*
D16*
%TO.N,Net-(Q7-D)*%
X130347300Y-64171300D03*
%TD*%
D15*
%TO.N,GND*%
%TO.C,R18*%
X122751400Y-126260600D03*
D16*
%TO.N,Sense2-10*%
X125291400Y-126260600D03*
%TD*%
D19*
%TO.N,Net-(Q17-Pad1)*%
%TO.C,Q17*%
X137948300Y-86239200D03*
D20*
%TO.N,Sense2-12*%
X137948300Y-88779200D03*
%TO.N,+VDC*%
X137948300Y-91319200D03*
%TD*%
D15*
%TO.N,GND*%
%TO.C,R69*%
X116816400Y-145349000D03*
D16*
%TO.N,FuelPressure3*%
X114276400Y-145349000D03*
%TD*%
D17*
%TO.N,Net-(Q28-D)*%
%TO.C,Q28*%
X198434900Y-53868800D03*
D18*
%TO.N,Net-(Q28-G)*%
X199704900Y-53868800D03*
%TO.N,Sense1-10*%
X200974900Y-53868800D03*
%TD*%
D17*
%TO.N,GND*%
%TO.C,Q11*%
X124175200Y-77430200D03*
D18*
%TO.N,OUTPUT3*%
X125445200Y-77430200D03*
%TO.N,Net-(Q11-D)*%
X126715200Y-77430200D03*
%TD*%
D15*
%TO.N,GND*%
%TO.C,R20*%
X116672700Y-140684700D03*
D16*
%TO.N,Sense1-6*%
X114132700Y-140684700D03*
%TD*%
D15*
%TO.N,OUTPUT3*%
%TO.C,R45*%
X126348800Y-82222500D03*
D16*
%TO.N,GND*%
X123808800Y-82222500D03*
%TD*%
D15*
%TO.N,+VDC*%
%TO.C,R28*%
X96867100Y-83431200D03*
D16*
%TO.N,Net-(Q22-Pad1)*%
X99407100Y-83431200D03*
%TD*%
D15*
%TO.N,Net-(Q28-G)*%
%TO.C,R67*%
X193167700Y-49742800D03*
D16*
%TO.N,GND*%
X195707700Y-49742800D03*
%TD*%
D19*
%TO.N,Net-(Q22-Pad1)*%
%TO.C,Q22*%
X93303400Y-85000200D03*
D20*
%TO.N,VPP*%
X93303400Y-82460200D03*
%TO.N,+VDC*%
X93303400Y-79920200D03*
%TD*%
D21*
%TO.N,Sense1-2*%
%TO.C,J10*%
X174115600Y-87855000D03*
D22*
%TO.N,Net-(J10-Pin_2)*%
X174115600Y-90395000D03*
%TD*%
D15*
%TO.N,VPP*%
%TO.C,R16*%
X114737400Y-133063100D03*
D16*
%TO.N,/BufferedADC1/ADCIN4*%
X117277400Y-133063100D03*
%TD*%
D21*
%TO.N,+5V*%
%TO.C,J3*%
X226581200Y-111690700D03*
D22*
%TO.N,unconnected-(J3-Pin_2-Pad2)*%
X226581200Y-109150700D03*
%TO.N,GND*%
X226581200Y-106610700D03*
%TO.N,SCLK*%
X226581200Y-104070700D03*
%TO.N,MISO*%
X226581200Y-101530700D03*
%TO.N,MOSI*%
X226581200Y-98990700D03*
%TO.N,SDCS*%
X226581200Y-96450700D03*
%TO.N,SDDetect*%
X226581200Y-93910700D03*
%TD*%
D15*
%TO.N,GND*%
%TO.C,R23*%
X141650500Y-117151100D03*
D16*
%TO.N,SpareADC3*%
X139110500Y-117151100D03*
%TD*%
D21*
%TO.N,+5V*%
%TO.C,T2*%
X185138800Y-97249500D03*
D22*
%TO.N,GND*%
X185138800Y-99789500D03*
%TO.N,unconnected-(T2-Pin_3-Pad3)*%
X185138800Y-102329500D03*
%TO.N,RTDSCLK*%
X185138800Y-104869500D03*
%TO.N,RTDMISO*%
X185138800Y-107409500D03*
%TO.N,RTDMOSI*%
X185138800Y-109949500D03*
%TO.N,LsideCS*%
X185138800Y-112489500D03*
%TO.N,unconnected-(T2-Pin_8-Pad8)*%
X185138800Y-115029500D03*
%TD*%
D15*
%TO.N,Net-(Q22-Pad1)*%
%TO.C,R29*%
X96850700Y-86549200D03*
D16*
%TO.N,Net-(Q5-D)*%
X99390700Y-86549200D03*
%TD*%
D28*
%TO.N,Net-(IC17-C1+)*%
%TO.C,IC17*%
X117227000Y-121483700D03*
D29*
%TO.N,Net-(#FLG0106-pwr)*%
X117227000Y-118943700D03*
%TO.N,Net-(IC17-C1-)*%
X117227000Y-116403700D03*
%TO.N,Net-(IC17-C2+)*%
X117227000Y-113863700D03*
%TO.N,Net-(IC17-C2-)*%
X117227000Y-111323700D03*
%TO.N,Net-(#FLG0105-pwr)*%
X117227000Y-108783700D03*
%TO.N,/Sheet6152913C/RSCOM2TX*%
X117227000Y-106243700D03*
%TO.N,/Sheet6152913C/RSCOM2RX*%
X117227000Y-103703700D03*
%TO.N,Com2RX*%
X109607000Y-103703700D03*
%TO.N,Com2TX*%
X109607000Y-106243700D03*
%TO.N,Com1TX*%
X109607000Y-108783700D03*
%TO.N,Com1RX*%
X109607000Y-111323700D03*
%TO.N,Sense1-8*%
X109607000Y-113863700D03*
%TO.N,Sense1-11*%
X109607000Y-116403700D03*
%TO.N,GND*%
X109607000Y-118943700D03*
%TO.N,+5V*%
X109607000Y-121483700D03*
%TD*%
D15*
%TO.N,GND*%
%TO.C,R4*%
X116863700Y-136197100D03*
D16*
%TO.N,/BufferedADC1/ADCIN4*%
X114323700Y-136197100D03*
%TD*%
D15*
%TO.N,Net-(Q1-G)*%
%TO.C,R8*%
X204190800Y-54281900D03*
D16*
%TO.N,GND*%
X206730800Y-54281900D03*
%TD*%
D17*
%TO.N,GND*%
%TO.C,Q3*%
X212897400Y-68857200D03*
D18*
%TO.N,Net-(Q3-G)*%
X214167400Y-68857200D03*
%TO.N,Net-(Q3-D)*%
X215437400Y-68857200D03*
%TD*%
D23*
%TO.N,+VDC*%
%TO.C,Z1*%
X124469800Y-61361800D03*
D24*
%TO.N,Net-(Q9-Pad1)*%
X135169800Y-61361800D03*
%TD*%
D15*
%TO.N,Net-(Q14-Pad1)*%
%TO.C,R50*%
X148881600Y-95455700D03*
D16*
%TO.N,Net-(Q12-D)*%
X151421600Y-95455700D03*
%TD*%
D27*
%TO.N,Net-(IC17-C2+)*%
%TO.C,C38*%
X101718200Y-111166200D03*
D15*
%TO.N,Net-(IC17-C2-)*%
X101718200Y-108666200D03*
%TD*%
D23*
%TO.N,+VDC*%
%TO.C,Z7*%
X124403000Y-49296100D03*
D24*
%TO.N,Net-(Q20-Pad1)*%
X135103000Y-49296100D03*
%TD*%
D23*
%TO.N,+VDC*%
%TO.C,Z3*%
X124430900Y-72953300D03*
D24*
%TO.N,Net-(Q13-Pad1)*%
X135130900Y-72953300D03*
%TD*%
D30*
%TO.N,Net-(#FLG0103-pwr)*%
%TO.C,U1*%
X78250100Y-64100700D03*
%TO.N,+VDC*%
X78250100Y-86700700D03*
%TD*%
D21*
%TO.N,/CAN Bus/CAN_INT*%
%TO.C,J11*%
X213845000Y-122132000D03*
D22*
%TO.N,CAN_INT*%
X213845000Y-124672000D03*
%TD*%
D17*
%TO.N,GND*%
%TO.C,Q7*%
X124895600Y-65590600D03*
D18*
%TO.N,OUTPUT2*%
X126165600Y-65590600D03*
%TO.N,Net-(Q7-D)*%
X127435600Y-65590600D03*
%TD*%
D15*
%TO.N,/CAN Bus/CAN_INT*%
%TO.C,R66*%
X207963000Y-125805900D03*
D16*
%TO.N,GND*%
X210503000Y-125805900D03*
%TD*%
D15*
%TO.N,Net-(Q25-D)*%
%TO.C,R14*%
X207461300Y-76295800D03*
D16*
%TO.N,Net-(Q4-G)*%
X210001300Y-76295800D03*
%TD*%
D15*
%TO.N,Net-(Q4-G)*%
%TO.C,R15*%
X207438700Y-79453500D03*
D16*
%TO.N,GND*%
X209978700Y-79453500D03*
%TD*%
D15*
%TO.N,Net-(Q23-G)*%
%TO.C,R30*%
X197077800Y-58031600D03*
D16*
%TO.N,GND*%
X199617800Y-58031600D03*
%TD*%
D21*
%TO.N,+5V*%
%TO.C,T1*%
X190610600Y-85780400D03*
D22*
%TO.N,GND*%
X193150600Y-85780400D03*
%TO.N,unconnected-(T1-Pin_3-Pad3)*%
X195690600Y-85780400D03*
%TO.N,RTDSCLK*%
X198230600Y-85780400D03*
%TO.N,RTDMISO*%
X200770600Y-85780400D03*
%TO.N,RTDMOSI*%
X203310600Y-85780400D03*
%TO.N,WaterCS*%
X205850600Y-85780400D03*
%TO.N,unconnected-(T1-Pin_8-Pad8)*%
X208390600Y-85780400D03*
%TD*%
D21*
%TO.N,SWSCLK*%
%TO.C,J1*%
X234522200Y-121547800D03*
D22*
%TO.N,RTDSCLK*%
X234522200Y-124087800D03*
%TO.N,SCLK*%
X234522200Y-126627800D03*
%TD*%
D21*
%TO.N,unconnected-(J12-Pin_1-Pad1)*%
%TO.C,J12*%
X142301000Y-106524600D03*
D22*
%TO.N,unconnected-(J12-Pin_2-Pad2)*%
X139761000Y-106524600D03*
%TO.N,SCL*%
X137221000Y-106524600D03*
%TO.N,SDA*%
X134681000Y-106524600D03*
%TO.N,+5V*%
X132141000Y-106524600D03*
%TO.N,GND*%
X129601000Y-106524600D03*
%TD*%
D15*
%TO.N,Net-(Q24-G)*%
%TO.C,R32*%
X196780800Y-67008000D03*
D16*
%TO.N,GND*%
X199320800Y-67008000D03*
%TD*%
D19*
%TO.N,Net-(Q14-Pad1)*%
%TO.C,Q14*%
X147835600Y-68220700D03*
D20*
%TO.N,Sense2-8*%
X147835600Y-65680700D03*
%TO.N,+VDC*%
X147835600Y-63140700D03*
%TD*%
D15*
%TO.N,+5V*%
%TO.C,C10*%
X195024500Y-108550300D03*
%TO.N,GND*%
X190024500Y-108550300D03*
%TD*%
%TO.N,Sense1-4*%
%TO.C,C6*%
X190529600Y-71112700D03*
%TO.N,GND*%
X190529600Y-66112700D03*
%TD*%
D21*
%TO.N,+5V*%
%TO.C,T5*%
X216780000Y-85843500D03*
D22*
%TO.N,GND*%
X219320000Y-85843500D03*
%TO.N,unconnected-(T5-Pin_3-Pad3)*%
X221860000Y-85843500D03*
%TO.N,RTDSCLK*%
X224400000Y-85843500D03*
%TO.N,RTDMISO*%
X226940000Y-85843500D03*
%TO.N,RTDMOSI*%
X229480000Y-85843500D03*
%TO.N,AmbientCS*%
X232020000Y-85843500D03*
%TO.N,unconnected-(T5-Pin_8-Pad8)*%
X234560000Y-85843500D03*
%TD*%
D15*
%TO.N,+VDC*%
%TO.C,R53*%
X132300900Y-82632400D03*
D16*
%TO.N,Net-(Q17-Pad1)*%
X134840900Y-82632400D03*
%TD*%
D15*
%TO.N,+VDC*%
%TO.C,R55*%
X167264600Y-84024400D03*
D16*
%TO.N,Net-(Q18-Pad1)*%
X164724600Y-84024400D03*
%TD*%
D15*
%TO.N,OUTPUTSiren*%
%TO.C,R52*%
X161738600Y-88833000D03*
D16*
%TO.N,GND*%
X159198600Y-88833000D03*
%TD*%
D17*
%TO.N,GND*%
%TO.C,Q1*%
X211460500Y-51958700D03*
D18*
%TO.N,Net-(Q1-G)*%
X212730500Y-51958700D03*
%TO.N,Net-(Q1-D)*%
X214000500Y-51958700D03*
%TD*%
D15*
%TO.N,Net-(Q10-Pad1)*%
%TO.C,R44*%
X151477000Y-84322700D03*
D16*
%TO.N,Net-(Q8-D)*%
X154017000Y-84322700D03*
%TD*%
D17*
%TO.N,GND*%
%TO.C,Q5*%
X96844900Y-76648100D03*
D18*
%TO.N,PowerOn*%
X98114900Y-76648100D03*
%TO.N,Net-(Q5-D)*%
X99384900Y-76648100D03*
%TD*%
D15*
%TO.N,PowerOn*%
%TO.C,R27*%
X96880200Y-80272600D03*
D16*
%TO.N,GND*%
X99420200Y-80272600D03*
%TD*%
D15*
%TO.N,Net-(Q23-D)*%
%TO.C,R9*%
X207927200Y-57854600D03*
D16*
%TO.N,Net-(Q2-G)*%
X210467200Y-57854600D03*
%TD*%
D15*
%TO.N,Net-(Q1-D)*%
%TO.C,R70*%
X193071500Y-54440300D03*
D16*
%TO.N,Net-(Q21-CATHODE_1)*%
X195611500Y-54440300D03*
%TD*%
D31*
%TO.N,+5V*%
%TO.C,Q21*%
X219482800Y-58749800D03*
D32*
%TO.N,Net-(Q21-CATHODE_1)*%
X219482800Y-61289800D03*
%TO.N,+5V*%
X219482800Y-63829800D03*
%TO.N,Net-(Q21-CATHODE_2)*%
X219482800Y-66369800D03*
%TO.N,+5V*%
X219482800Y-68909800D03*
%TO.N,Net-(Q21-CATHODE_3)*%
X219482800Y-71449800D03*
%TO.N,+5V*%
X219482800Y-73989800D03*
%TO.N,Net-(Q21-CATHODE_4)*%
X219482800Y-76529800D03*
%TO.N,Logging*%
X227102800Y-76529800D03*
%TO.N,+5V*%
X227102800Y-73989800D03*
%TO.N,IN3TTL*%
X227102800Y-71449800D03*
%TO.N,+5V*%
X227102800Y-68909800D03*
%TO.N,IN2TTL*%
X227102800Y-66369800D03*
%TO.N,+5V*%
X227102800Y-63829800D03*
%TO.N,IN1TTL*%
X227102800Y-61289800D03*
%TO.N,+5V*%
X227102800Y-58749800D03*
%TD*%
D17*
%TO.N,Net-(Q24-D)*%
%TO.C,Q24*%
X202048400Y-68857200D03*
D18*
%TO.N,Net-(Q24-G)*%
X203318400Y-68857200D03*
%TO.N,Sense1-4*%
X204588400Y-68857200D03*
%TD*%
D17*
%TO.N,Net-(Q23-D)*%
%TO.C,Q23*%
X202317900Y-60478900D03*
D18*
%TO.N,Net-(Q23-G)*%
X203587900Y-60478900D03*
%TO.N,Sense1-7*%
X204857900Y-60478900D03*
%TD*%
D15*
%TO.N,+5V*%
%TO.C,R17*%
X163250700Y-109293700D03*
D16*
%TO.N,SDA*%
X165790700Y-109293700D03*
%TD*%
D15*
%TO.N,Net-(Q3-G)*%
%TO.C,R13*%
X207657700Y-70165400D03*
D16*
%TO.N,GND*%
X210197700Y-70165400D03*
%TD*%
D15*
%TO.N,GND*%
%TO.C,R68*%
X99866800Y-129284400D03*
D16*
%TO.N,VoltageSensor*%
X102406800Y-129284400D03*
%TD*%
D15*
%TO.N,GND*%
%TO.C,R6*%
X104601100Y-145985500D03*
D16*
%TO.N,FuelPressure1*%
X104601100Y-143445500D03*
%TD*%
D21*
%TO.N,VPP*%
%TO.C,J7*%
X119697600Y-66084300D03*
D22*
%TO.N,+5V*%
X119697600Y-63544300D03*
%TO.N,GND*%
X119697600Y-61004300D03*
%TD*%
D15*
%TO.N,GND*%
%TO.C,C9*%
X199353800Y-118424200D03*
%TO.N,+5V*%
X204353800Y-118424200D03*
%TD*%
%TO.N,Net-(Q17-Pad1)*%
%TO.C,R54*%
X132691100Y-88305900D03*
D16*
%TO.N,Net-(Q15-D)*%
X130151100Y-88305900D03*
%TD*%
D17*
%TO.N,GND*%
%TO.C,Q4*%
X212646200Y-77984300D03*
D18*
%TO.N,Net-(Q4-G)*%
X213916200Y-77984300D03*
%TO.N,Net-(Q4-D)*%
X215186200Y-77984300D03*
%TD*%
D15*
%TO.N,GND*%
%TO.C,R3*%
X99763400Y-140065700D03*
D16*
%TO.N,Sense1-9*%
X102303400Y-140065700D03*
%TD*%
D15*
%TO.N,GND*%
%TO.C,R25*%
X141650500Y-126279000D03*
D16*
%TO.N,Sense2-4*%
X139110500Y-126279000D03*
%TD*%
D15*
%TO.N,OUTPUTLED1*%
%TO.C,R40*%
X148378000Y-89191900D03*
D16*
%TO.N,GND*%
X145838000Y-89191900D03*
%TD*%
D15*
%TO.N,OUTPUT2*%
%TO.C,R39*%
X127060000Y-69235400D03*
D16*
%TO.N,GND*%
X124520000Y-69235400D03*
%TD*%
D15*
%TO.N,Net-(Q3-D)*%
%TO.C,R33*%
X196793900Y-70163400D03*
D16*
%TO.N,Net-(Q21-CATHODE_3)*%
X199333900Y-70163400D03*
%TD*%
D15*
%TO.N,OUTPUT4*%
%TO.C,R51*%
X127076000Y-94602500D03*
D16*
%TO.N,GND*%
X124536000Y-94602500D03*
%TD*%
D21*
%TO.N,SWMISO*%
%TO.C,J2*%
X225222200Y-121547800D03*
D22*
%TO.N,RTDMISO*%
X225222200Y-124087800D03*
%TO.N,MISO*%
X225222200Y-126627800D03*
%TD*%
D19*
%TO.N,Net-(Q9-Pad1)*%
%TO.C,Q9*%
X137948300Y-63140700D03*
D20*
%TO.N,Sense2-6*%
X137948300Y-65680700D03*
%TO.N,+VDC*%
X137948300Y-68220700D03*
%TD*%
D15*
%TO.N,Net-(IC3-OSC1)*%
%TO.C,C12*%
X189137100Y-125299700D03*
%TO.N,GND*%
X189137100Y-130299700D03*
%TD*%
%TO.N,Net-(Q4-D)*%
%TO.C,R35*%
X196591000Y-79208600D03*
D16*
%TO.N,Net-(Q21-CATHODE_4)*%
X199131000Y-79208600D03*
%TD*%
D15*
%TO.N,Net-(Q2-G)*%
%TO.C,R10*%
X207911500Y-60975100D03*
D16*
%TO.N,GND*%
X210451500Y-60975100D03*
%TD*%
D33*
%TO.N,Net-(IC3-OSC2)*%
%TO.C,Y1*%
X194174500Y-121903800D03*
%TO.N,Net-(IC3-OSC1)*%
X194174500Y-126783800D03*
%TD*%
D21*
%TO.N,+5V*%
%TO.C,T6*%
X155695300Y-141069100D03*
D22*
%TO.N,GND*%
X158235300Y-141069100D03*
%TO.N,unconnected-(T6-Pin_3-Pad3)*%
X160775300Y-141069100D03*
%TO.N,RTDSCLK*%
X163315300Y-141069100D03*
%TO.N,RTDMISO*%
X165855300Y-141069100D03*
%TO.N,RTDMOSI*%
X168395300Y-141069100D03*
%TO.N,CarbCS*%
X170935300Y-141069100D03*
%TO.N,unconnected-(T6-Pin_8-Pad8)*%
X173475300Y-141069100D03*
%TD*%
D15*
%TO.N,Sense1-10*%
%TO.C,C13*%
X189408500Y-54575100D03*
%TO.N,GND*%
X189408500Y-49575100D03*
%TD*%
D27*
%TO.N,Net-(IC17-C1+)*%
%TO.C,C37*%
X105777600Y-115358800D03*
D15*
%TO.N,Net-(IC17-C1-)*%
X105777600Y-112858800D03*
%TD*%
%TO.N,Sense2-1*%
%TO.C,C7*%
X190228600Y-80541100D03*
%TO.N,GND*%
X190228600Y-75541100D03*
%TD*%
%TO.N,GND*%
%TO.C,R7*%
X107730800Y-145972500D03*
D16*
%TO.N,FuelPressure2*%
X107730800Y-143432500D03*
%TD*%
D19*
%TO.N,Net-(Q10-Pad1)*%
%TO.C,Q10*%
X147788500Y-56671400D03*
D20*
%TO.N,Sense2-11*%
X147788500Y-54131400D03*
%TO.N,+VDC*%
X147788500Y-51591400D03*
%TD*%
D19*
%TO.N,Net-(Q18-Pad1)*%
%TO.C,Q18*%
X147835600Y-79770000D03*
D20*
%TO.N,Sense2-5*%
X147835600Y-77230000D03*
%TO.N,+VDC*%
X147835600Y-74690000D03*
%TD*%
D15*
%TO.N,OUTPUT1*%
%TO.C,R57*%
X127106300Y-58571900D03*
D16*
%TO.N,GND*%
X124566300Y-58571900D03*
%TD*%
D23*
%TO.N,+VDC*%
%TO.C,Z2*%
X162908500Y-49269700D03*
D24*
%TO.N,Net-(Q10-Pad1)*%
X152208500Y-49269700D03*
%TD*%
D23*
%TO.N,+VDC*%
%TO.C,Z6*%
X162908500Y-54465700D03*
D24*
%TO.N,Net-(Q18-Pad1)*%
X152208500Y-54465700D03*
%TD*%
D23*
%TO.N,+VDC*%
%TO.C,Z4*%
X162908500Y-51902100D03*
D24*
%TO.N,Net-(Q14-Pad1)*%
X152208500Y-51902100D03*
%TD*%
D34*
%TO.N,+5V*%
X104935700Y-135578100D03*
X202200900Y-109766300D03*
%TO.N,GPSTX*%
X122828200Y-104032900D03*
D35*
%TO.N,SDA*%
X159332362Y-107700799D03*
D34*
%TO.N,AmbientCS*%
X220013700Y-91572200D03*
%TO.N,CANCS*%
X203187900Y-122779100D03*
%TO.N,Sense2-10*%
X161385400Y-66733900D03*
%TO.N,Sense1-3*%
X151006500Y-111951400D03*
%TO.N,Sense1-11*%
X147192400Y-110379600D03*
%TO.N,SDCS*%
X197158200Y-105037600D03*
%TO.N,OUTPUTLED2*%
X143685700Y-108765000D03*
%TO.N,Sense1-6*%
X142495600Y-128575800D03*
%TO.N,Sense1-9*%
X146826200Y-113708400D03*
%TO.N,Sense1-12*%
X146406800Y-112656500D03*
%TO.N,Sense1-8*%
X148468000Y-109754500D03*
%TD*%
D36*
%TO.N,GND*%
X210503000Y-125805900D02*
X209377900Y-125805900D01*
X147860400Y-90322400D02*
X146963100Y-89425100D01*
X123945900Y-129996400D02*
X122751400Y-131190900D01*
X121822100Y-117673700D02*
X122751400Y-116744400D01*
X143217100Y-93590800D02*
X140699600Y-93590800D01*
X105777600Y-104378800D02*
X106902700Y-104378800D01*
X212047300Y-69440900D02*
X211322800Y-70165400D01*
X116863700Y-136197100D02*
X121869900Y-131190900D01*
X133699600Y-93477400D02*
X136247800Y-96025600D01*
X109268400Y-102013100D02*
X109268400Y-100791900D01*
X212047300Y-68857200D02*
X212047300Y-69440900D01*
X208485800Y-126931100D02*
X209377900Y-126039000D01*
X210197700Y-70165400D02*
X211322800Y-70165400D01*
X127221100Y-149051900D02*
X124681100Y-149051900D01*
X126504800Y-93477400D02*
X133699600Y-93477400D01*
X81180300Y-104210000D02*
X79831900Y-105558400D01*
X193150600Y-99789500D02*
X193150600Y-85780400D01*
X109607000Y-118943700D02*
X110877000Y-117673700D01*
X199728200Y-118424200D02*
X205457900Y-124153900D01*
X197170500Y-99789500D02*
X199595500Y-102214500D01*
X137372900Y-96025600D02*
X138498000Y-96025600D01*
X138498000Y-95792400D02*
X138498000Y-96025600D01*
X212897400Y-68857200D02*
X212047300Y-68857200D01*
X123945900Y-127455100D02*
X123945900Y-129996400D01*
X198492700Y-57798500D02*
X198492700Y-58031600D01*
X145838000Y-89191900D02*
X146963100Y-89191900D01*
X124793400Y-106524600D02*
X124264600Y-105995800D01*
X199617800Y-58031600D02*
X198492700Y-58031600D01*
X99420200Y-80272600D02*
X98295100Y-80272600D01*
X125661100Y-94602500D02*
X125661100Y-94321100D01*
X158073500Y-88833000D02*
X156584100Y-90322400D01*
X123945900Y-127455100D02*
X140474400Y-127455100D01*
X191059800Y-56867200D02*
X197561400Y-56867200D01*
X124980900Y-91002600D02*
X124980900Y-92077700D01*
X105215100Y-104378800D02*
X104652500Y-104378800D01*
X140699600Y-93590800D02*
X138498000Y-95792400D01*
X124536000Y-94602500D02*
X125661100Y-94602500D01*
X106902700Y-104378800D02*
X109268400Y-102013100D01*
X98295100Y-79173400D02*
X98295100Y-80272600D01*
X110457100Y-100791900D02*
X109268400Y-100791900D01*
X189232600Y-117947700D02*
X189709100Y-118424200D01*
X121869900Y-131190900D02*
X122751400Y-131190900D01*
X122751400Y-126260600D02*
X123945900Y-127455100D01*
X189709100Y-118424200D02*
X199353800Y-118424200D01*
X180561100Y-143971900D02*
X178021100Y-143971900D01*
X125661100Y-94321100D02*
X126504800Y-93477400D01*
X123089500Y-105995800D02*
X124264600Y-105995800D01*
X207453900Y-126931100D02*
X208485800Y-126931100D01*
X159198600Y-88833000D02*
X158073500Y-88833000D01*
X79831900Y-105558400D02*
X79831900Y-105925600D01*
X104652500Y-104378800D02*
X104483700Y-104210000D01*
X146963100Y-89425100D02*
X146963100Y-89191900D01*
X96844900Y-77723200D02*
X98295100Y-79173400D01*
X205457900Y-124153900D02*
X205457900Y-124935100D01*
X104483700Y-104210000D02*
X81180300Y-104210000D01*
X96844900Y-76648100D02*
X96844900Y-77723200D01*
X129601000Y-106524600D02*
X124793400Y-106524600D01*
X205457900Y-124935100D02*
X207453900Y-126931100D01*
X125105100Y-92077700D02*
X126504800Y-93477400D01*
X193150600Y-99789500D02*
X197170500Y-99789500D01*
X110877000Y-117673700D02*
X121822100Y-117673700D01*
X107717800Y-145985500D02*
X104601100Y-145985500D01*
X78656800Y-105925600D02*
X79831900Y-105925600D01*
X156584100Y-90322400D02*
X147860400Y-90322400D01*
X197561400Y-56867200D02*
X198492700Y-57798500D01*
X137372900Y-96025600D02*
X136247800Y-96025600D01*
X124980900Y-92077700D02*
X125105100Y-92077700D01*
X185138800Y-99789500D02*
X193150600Y-99789500D01*
X209377900Y-126039000D02*
X209377900Y-125805900D01*
X140474400Y-127455100D02*
X141650500Y-126279000D01*
%TO.N,+5V*%
X204282700Y-133341400D02*
X185205600Y-133341400D01*
X163250700Y-109293700D02*
X159306300Y-105349300D01*
X134126100Y-105349300D02*
X133316100Y-106159300D01*
X228038000Y-73054600D02*
X227102800Y-73989800D01*
X156870400Y-140701900D02*
X156870400Y-141069100D01*
X182419700Y-97249500D02*
X179243700Y-100425500D01*
X179243700Y-100425500D02*
X179243700Y-101286500D01*
X133316100Y-106159300D02*
X133316100Y-106524600D01*
X155695300Y-141069100D02*
X156870400Y-141069100D01*
X176991200Y-101980700D02*
X172158400Y-106813500D01*
X162490500Y-135081800D02*
X156870400Y-140701900D01*
X185138800Y-97249500D02*
X182419700Y-97249500D01*
X179243700Y-101286500D02*
X178549500Y-101980700D01*
X182290100Y-135081800D02*
X162490500Y-135081800D01*
X228038000Y-69845000D02*
X228038000Y-73054600D01*
X109607000Y-121483700D02*
X103458700Y-121483700D01*
X184030500Y-133341400D02*
X182290100Y-135081800D01*
X132141000Y-106524600D02*
X133316100Y-106524600D01*
X103458700Y-121483700D02*
X101718200Y-119743200D01*
X178549500Y-101980700D02*
X176991200Y-101980700D01*
X227102800Y-68909800D02*
X228038000Y-69845000D01*
X159306300Y-105349300D02*
X134126100Y-105349300D01*
X172158400Y-106813500D02*
X165730900Y-106813500D01*
X185205600Y-133341400D02*
X184030500Y-133341400D01*
X165730900Y-106813500D02*
X163250700Y-109293700D01*
%TO.N,Net-(IC3-OSC2)*%
X190276500Y-121903800D02*
X189232600Y-122947700D01*
X194174500Y-121903800D02*
X190276500Y-121903800D01*
%TO.N,+VDC*%
X161069300Y-50963000D02*
X148416900Y-50963000D01*
X162908500Y-51902100D02*
X162008400Y-51902100D01*
X150974700Y-92348200D02*
X149832800Y-91206300D01*
X163218400Y-87436700D02*
X166630700Y-84024400D01*
X149832800Y-91206300D02*
X138061200Y-91206300D01*
X162008400Y-51902100D02*
X161069300Y-50963000D01*
X153587000Y-87436700D02*
X163218400Y-87436700D01*
X148416900Y-50963000D02*
X147788500Y-51591400D01*
%TO.N,Net-(IC3-OSC1)*%
X190621200Y-126783800D02*
X189137100Y-125299700D01*
X194174500Y-126783800D02*
X190621200Y-126783800D01*
%TO.N,Net-(#FLG0105-pwr)*%
X117227000Y-108783700D02*
X116316300Y-109694400D01*
X116316300Y-109694400D02*
X108593200Y-109694400D01*
X108593200Y-109694400D02*
X105777600Y-106878800D01*
%TO.N,Net-(#FLG0106-pwr)*%
X101718200Y-117243200D02*
X102843300Y-117243200D01*
X105496300Y-119896200D02*
X102843300Y-117243200D01*
X116274500Y-119896200D02*
X105496300Y-119896200D01*
X117227000Y-118943700D02*
X116274500Y-119896200D01*
%TO.N,FuelPressure3*%
X142091100Y-146810500D02*
X116629800Y-146810500D01*
X116629800Y-146810500D02*
X115401500Y-145582200D01*
X143812400Y-148531800D02*
X142091100Y-146810500D01*
X145001100Y-149051900D02*
X143812400Y-149051900D01*
X115401500Y-145582200D02*
X115401500Y-145349000D01*
X114276400Y-145349000D02*
X115401500Y-145349000D01*
X143812400Y-149051900D02*
X143812400Y-148531800D01*
%TO.N,SCLK*%
X235697400Y-113996800D02*
X226946400Y-105245800D01*
X234889400Y-125452700D02*
X235697400Y-124644700D01*
X226581200Y-104070700D02*
X226581200Y-105245800D01*
X234522200Y-126627800D02*
X234522200Y-125452700D01*
X234522200Y-125452700D02*
X234889400Y-125452700D01*
X226946400Y-105245800D02*
X226581200Y-105245800D01*
X235697400Y-124644700D02*
X235697400Y-113996800D01*
%TO.N,MOSI*%
X228697100Y-126627800D02*
X215710200Y-139614700D01*
X229872200Y-126627800D02*
X228697100Y-126627800D01*
X180561100Y-138891900D02*
X181749800Y-138891900D01*
X215710200Y-139614700D02*
X182472600Y-139614700D01*
X182472600Y-139614700D02*
X181749800Y-138891900D01*
%TO.N,MISO*%
X224047100Y-126627800D02*
X213618300Y-137056600D01*
X178021100Y-138891900D02*
X179209800Y-138891900D01*
X225222200Y-126627800D02*
X224047100Y-126627800D01*
X179209800Y-138522400D02*
X179209800Y-138891900D01*
X180110300Y-137621900D02*
X179209800Y-138522400D01*
X182882900Y-137621900D02*
X180110300Y-137621900D01*
X213618300Y-137056600D02*
X183448200Y-137056600D01*
X183448200Y-137056600D02*
X182882900Y-137621900D01*
%TO.N,Net-(IC17-C2-)*%
X116247400Y-110344100D02*
X103396100Y-110344100D01*
X117227000Y-111323700D02*
X116247400Y-110344100D01*
X103396100Y-110344100D02*
X101718200Y-108666200D01*
%TO.N,Net-(Q24-D)*%
X202048400Y-67782100D02*
X206905800Y-67782100D01*
X206905800Y-67782100D02*
X207680200Y-67007700D01*
X202048400Y-68857200D02*
X202048400Y-67782100D01*
%TO.N,GPSRX*%
X82371900Y-105558400D02*
X82371900Y-105925600D01*
X122569400Y-103407800D02*
X118808100Y-107169100D01*
X148816500Y-103407800D02*
X122569400Y-103407800D01*
X81196800Y-105925600D02*
X82371900Y-105925600D01*
X108543000Y-107169100D02*
X106877900Y-105504000D01*
X118808100Y-107169100D02*
X108543000Y-107169100D01*
X83187000Y-104743300D02*
X82371900Y-105558400D01*
X151432400Y-100791900D02*
X148816500Y-103407800D01*
X106877900Y-105504000D02*
X100820200Y-105504000D01*
X152621100Y-100791900D02*
X151432400Y-100791900D01*
X100820200Y-105504000D02*
X100059500Y-104743300D01*
X100059500Y-104743300D02*
X83187000Y-104743300D01*
%TO.N,GPSTX*%
X122828200Y-104032900D02*
X122940800Y-103920300D01*
X151327700Y-103920300D02*
X153972400Y-101275600D01*
X122940800Y-103920300D02*
X151327700Y-103920300D01*
X153972400Y-101275600D02*
X153972400Y-100791900D01*
X155161100Y-100791900D02*
X153972400Y-100791900D01*
%TO.N,FuelPressure2*%
X142461100Y-149051900D02*
X141272400Y-149051900D01*
X141272400Y-149051900D02*
X141272400Y-148531800D01*
X141272400Y-148531800D02*
X140001200Y-147260600D01*
X140001200Y-147260600D02*
X112684000Y-147260600D01*
X107730800Y-143432500D02*
X108855900Y-143432500D01*
X112684000Y-147260600D02*
X108855900Y-143432500D01*
%TO.N,SpareADC2*%
X139110500Y-122796800D02*
X139813700Y-122796800D01*
X139813700Y-122796800D02*
X152621100Y-135604200D01*
X152621100Y-135604200D02*
X152621100Y-149051900D01*
X139110500Y-121671700D02*
X139110500Y-122796800D01*
%TO.N,FuelPressure1*%
X108995900Y-144702500D02*
X106983200Y-144702500D01*
X138732400Y-148531800D02*
X137911300Y-147710700D01*
X112004100Y-147710700D02*
X108995900Y-144702500D01*
X138732400Y-149051900D02*
X138732400Y-148531800D01*
X139921100Y-149051900D02*
X138732400Y-149051900D01*
X137911300Y-147710700D02*
X112004100Y-147710700D01*
X104601100Y-143445500D02*
X105726200Y-143445500D01*
X106983200Y-144702500D02*
X105726200Y-143445500D01*
%TO.N,/BufferedADC1/ADCIN4*%
X114323700Y-135072000D02*
X116152300Y-133243400D01*
X117277400Y-133063100D02*
X116152300Y-133063100D01*
X114323700Y-136197100D02*
X114323700Y-135072000D01*
X116152300Y-133243400D02*
X116152300Y-133063100D01*
%TO.N,AmbientCS*%
X230844900Y-86210700D02*
X225483400Y-91572200D01*
X225483400Y-91572200D02*
X220013700Y-91572200D01*
X230844900Y-85843500D02*
X230844900Y-86210700D01*
X232020000Y-85843500D02*
X230844900Y-85843500D01*
%TO.N,SpareADC3*%
X139110500Y-117151100D02*
X139110500Y-118276200D01*
X153809900Y-132237300D02*
X153809900Y-146349400D01*
X157701100Y-149051900D02*
X156512400Y-149051900D01*
X139848800Y-118276200D02*
X153809900Y-132237300D01*
X153809900Y-146349400D02*
X156512400Y-149051900D01*
X139110500Y-118276200D02*
X139848800Y-118276200D01*
%TO.N,IN2TTL*%
X220752800Y-72719800D02*
X215409000Y-72719800D01*
X205165200Y-78961700D02*
X201047200Y-78961700D01*
X210707800Y-77421000D02*
X206705900Y-77421000D01*
X143732300Y-97685600D02*
X141109800Y-100308100D01*
X175213900Y-97685600D02*
X143732300Y-97685600D01*
X194836800Y-78062700D02*
X175213900Y-97685600D01*
X141109800Y-100308100D02*
X141109800Y-100791900D01*
X200148200Y-78062700D02*
X194836800Y-78062700D01*
X227102800Y-66369800D02*
X220752800Y-72719800D01*
X206705900Y-77421000D02*
X205165200Y-78961700D01*
X215409000Y-72719800D02*
X210707800Y-77421000D01*
X201047200Y-78961700D02*
X200148200Y-78062700D01*
X139921100Y-100791900D02*
X141109800Y-100791900D01*
%TO.N,/CAN Bus/CAN_INT*%
X212004200Y-122132000D02*
X211628100Y-121755900D01*
X213845000Y-122132000D02*
X212004200Y-122132000D01*
X210503000Y-121755900D02*
X211628100Y-121755900D01*
%TO.N,CANCS*%
X199958200Y-119549400D02*
X203187900Y-122779100D01*
X178021100Y-116031900D02*
X179209800Y-116031900D01*
X188409700Y-119549400D02*
X199958200Y-119549400D01*
X186080900Y-117220600D02*
X188409700Y-119549400D01*
X179209800Y-116031900D02*
X179209800Y-116403500D01*
X179209800Y-116403500D02*
X180026900Y-117220600D01*
X180026900Y-117220600D02*
X186080900Y-117220600D01*
%TO.N,Com2RX*%
X148373400Y-102345100D02*
X110965600Y-102345100D01*
X165321100Y-100791900D02*
X164132400Y-100791900D01*
X164132400Y-100791900D02*
X164132400Y-100271800D01*
X110965600Y-102345100D02*
X109607000Y-103703700D01*
X164132400Y-100271800D02*
X162855600Y-98995000D01*
X151723500Y-98995000D02*
X148373400Y-102345100D01*
X162855600Y-98995000D02*
X151723500Y-98995000D01*
%TO.N,Sense2-1*%
X199630100Y-77484100D02*
X193285600Y-77484100D01*
X190228600Y-80541100D02*
X167232500Y-80541100D01*
X193285600Y-77484100D02*
X190228600Y-80541100D01*
X204272600Y-77886500D02*
X204272600Y-76811400D01*
X167232500Y-80541100D02*
X165836500Y-79145100D01*
X200302800Y-76811400D02*
X199630100Y-77484100D01*
X204272600Y-76811400D02*
X200302800Y-76811400D01*
D37*
%TO.N,Sense2-3*%
X158211500Y-61501100D02*
X145318000Y-61501100D01*
X145318000Y-61501100D02*
X137948200Y-54131500D01*
D36*
X158211500Y-61501100D02*
X158211500Y-79140100D01*
%TO.N,Com2TX*%
X151948400Y-99445100D02*
X148598300Y-102795200D01*
X148598300Y-102795200D02*
X113055500Y-102795200D01*
X160729300Y-99445100D02*
X151948400Y-99445100D01*
X161592400Y-100791900D02*
X161592400Y-100308200D01*
X161592400Y-100308200D02*
X160729300Y-99445100D01*
X113055500Y-102795200D02*
X109607000Y-106243700D01*
X162781100Y-100791900D02*
X161592400Y-100791900D01*
%TO.N,Com1TX*%
X119161000Y-107776300D02*
X122279300Y-104658000D01*
X153417500Y-104370500D02*
X156512400Y-101275600D01*
X125232900Y-104370500D02*
X153417500Y-104370500D01*
X157701100Y-100791900D02*
X156512400Y-100791900D01*
X156512400Y-101275600D02*
X156512400Y-100791900D01*
X122279300Y-104658000D02*
X124945400Y-104658000D01*
X109607000Y-108783700D02*
X110614400Y-107776300D01*
X110614400Y-107776300D02*
X119161000Y-107776300D01*
X124945400Y-104658000D02*
X125232900Y-104370500D01*
%TO.N,Com1RX*%
X132078200Y-104899100D02*
X155428900Y-104899100D01*
X130871000Y-106930400D02*
X130871000Y-106106300D01*
X110534300Y-112251000D02*
X124770000Y-112251000D01*
X128892000Y-108129000D02*
X129672400Y-108129000D01*
X159052400Y-101275600D02*
X159052400Y-100791900D01*
X124770000Y-112251000D02*
X128892000Y-108129000D01*
X109607000Y-111323700D02*
X110534300Y-112251000D01*
X130871000Y-106106300D02*
X132078200Y-104899100D01*
X129672400Y-108129000D02*
X130871000Y-106930400D01*
X155428900Y-104899100D02*
X159052400Y-101275600D01*
X160241100Y-100791900D02*
X159052400Y-100791900D01*
%TO.N,Sense2-8*%
X147835600Y-65680700D02*
X150462100Y-65680700D01*
X150462100Y-65680700D02*
X156306500Y-71525100D01*
%TO.N,Sense2-10*%
X166328400Y-58928800D02*
X163192800Y-58928800D01*
X161385400Y-66733900D02*
X167033800Y-61085500D01*
X167033800Y-59634200D02*
X166328400Y-58928800D01*
X163192800Y-58928800D02*
X162026500Y-60095100D01*
X167033800Y-61085500D02*
X167033800Y-59634200D01*
%TO.N,Sense2-11*%
X151125400Y-57468300D02*
X155589700Y-57468300D01*
X147788500Y-54131400D02*
X151125400Y-57468300D01*
X155589700Y-57468300D02*
X158216500Y-60095100D01*
%TO.N,Sense1-3*%
X125291400Y-121680200D02*
X126416500Y-121680200D01*
X136145300Y-111951400D02*
X126416500Y-121680200D01*
X151006500Y-111951400D02*
X136145300Y-111951400D01*
%TO.N,Sense1-4*%
X184894400Y-76747900D02*
X172048000Y-76747900D01*
X190529600Y-71112700D02*
X184894400Y-76747900D01*
X172048000Y-76747900D02*
X169650800Y-79145100D01*
%TO.N,Sense1-7*%
X184730400Y-62155500D02*
X175360800Y-71525100D01*
X190771500Y-62155500D02*
X184730400Y-62155500D01*
%TO.N,Sense1-10*%
X189408500Y-54575100D02*
X190398900Y-55565500D01*
X194341500Y-54047200D02*
X195595000Y-52793700D01*
X194341500Y-54767700D02*
X194341500Y-54047200D01*
X182790800Y-54575100D02*
X189408500Y-54575100D01*
X200974900Y-53868800D02*
X200974900Y-52793700D01*
X195595000Y-52793700D02*
X200974900Y-52793700D01*
X177270800Y-60095100D02*
X182790800Y-54575100D01*
X190398900Y-55565500D02*
X193543700Y-55565500D01*
X193543700Y-55565500D02*
X194341500Y-54767700D01*
%TO.N,Sense1-11*%
X126467300Y-115133700D02*
X131221400Y-110379600D01*
X109607000Y-116403700D02*
X110877000Y-115133700D01*
X110877000Y-115133700D02*
X126467300Y-115133700D01*
X131221400Y-110379600D02*
X147192400Y-110379600D01*
%TO.N,SDCS*%
X226581200Y-96450700D02*
X225406100Y-96450700D01*
X216819200Y-105037600D02*
X197158200Y-105037600D01*
X225406100Y-96450700D02*
X216819200Y-105037600D01*
%TO.N,SDDetect*%
X216563000Y-91846400D02*
X218627300Y-93910700D01*
X218627300Y-93910700D02*
X226581200Y-93910700D01*
X215437900Y-91846400D02*
X216563000Y-91846400D01*
%TO.N,OUTPUTLED2*%
X143685700Y-108765000D02*
X154151500Y-108765000D01*
X178471800Y-130001900D02*
X179372400Y-130902500D01*
X175388400Y-130001900D02*
X178471800Y-130001900D01*
X180561100Y-131271900D02*
X179372400Y-131271900D01*
X179372400Y-130902500D02*
X179372400Y-131271900D01*
X154151500Y-108765000D02*
X175388400Y-130001900D01*
%TO.N,OUTPUTSiren*%
X161738600Y-88833000D02*
X153420800Y-97150800D01*
X130526900Y-97150800D02*
X126885800Y-100791900D01*
X125697100Y-100791900D02*
X126885800Y-100791900D01*
X153420800Y-97150800D02*
X130526900Y-97150800D01*
%TO.N,Net-(Q7-D)*%
X127435600Y-65590600D02*
X128285700Y-65590600D01*
X130347300Y-64171300D02*
X129222200Y-64171300D01*
X128285700Y-65590600D02*
X128285700Y-65107800D01*
X128285700Y-65107800D02*
X129222200Y-64171300D01*
%TO.N,Net-(Q8-D)*%
X151886300Y-85561400D02*
X152891900Y-84555800D01*
X154017000Y-84322700D02*
X152891900Y-84322700D01*
X152891900Y-84555800D02*
X152891900Y-84322700D01*
X148409300Y-85561400D02*
X151886300Y-85561400D01*
%TO.N,Net-(Q11-D)*%
X126715200Y-77430200D02*
X127565300Y-77430200D01*
X127565300Y-77430200D02*
X130105600Y-79970500D01*
X130105600Y-79970500D02*
X132330700Y-79970500D01*
%TO.N,Net-(Q12-D)*%
X150296500Y-95222600D02*
X150296500Y-95455700D01*
X148664700Y-93590800D02*
X150296500Y-95222600D01*
X145757100Y-93590800D02*
X148664700Y-93590800D01*
X151421600Y-95455700D02*
X150296500Y-95455700D01*
%TO.N,Net-(Q18-Pad1)*%
X150405800Y-81055100D02*
X149120700Y-79770000D01*
X147835600Y-79770000D02*
X149120700Y-79770000D01*
X163599500Y-84024400D02*
X160630200Y-81055100D01*
X164724600Y-84024400D02*
X163599500Y-84024400D01*
X160630200Y-81055100D02*
X150405800Y-81055100D01*
%TO.N,Sense1-6*%
X115257800Y-140684700D02*
X115257800Y-140403300D01*
X116101500Y-139559600D02*
X128832500Y-139559600D01*
X114132700Y-140684700D02*
X115257800Y-140684700D01*
X139816300Y-128575800D02*
X142495600Y-128575800D01*
X115257800Y-140403300D02*
X116101500Y-139559600D01*
X128832500Y-139559600D02*
X139816300Y-128575800D01*
%TO.N,Sense1-9*%
X128541500Y-125135400D02*
X139968500Y-113708400D01*
X102303400Y-140065700D02*
X103428500Y-140065700D01*
X118358800Y-125135400D02*
X128541500Y-125135400D01*
X139968500Y-113708400D02*
X146826200Y-113708400D01*
X103428500Y-140065700D02*
X118358800Y-125135400D01*
%TO.N,Sense1-12*%
X103571700Y-135387200D02*
X115054400Y-123904500D01*
X128273400Y-123904500D02*
X139521400Y-112656500D01*
X139521400Y-112656500D02*
X146406800Y-112656500D01*
X102446600Y-135387200D02*
X103571700Y-135387200D01*
X115054400Y-123904500D02*
X128273400Y-123904500D01*
%TO.N,Sense1-8*%
X110555100Y-112915600D02*
X125358400Y-112915600D01*
X109607000Y-113863700D02*
X110555100Y-112915600D01*
X128519500Y-109754500D02*
X148468000Y-109754500D01*
X125358400Y-112915600D02*
X128519500Y-109754500D01*
%TO.N,Sense2-5*%
X158939800Y-80321800D02*
X167736500Y-71525100D01*
X147835600Y-77230000D02*
X150927400Y-80321800D01*
X150927400Y-80321800D02*
X158939800Y-80321800D01*
%TO.N,SWSCLK*%
X221000500Y-122723000D02*
X212236300Y-113958800D01*
X212236300Y-113958800D02*
X190303200Y-113958800D01*
X187563900Y-111219500D02*
X184557400Y-111219500D01*
X234522200Y-121547800D02*
X233347100Y-121547800D01*
X184557400Y-111219500D02*
X181749800Y-108411900D01*
X180561100Y-108411900D02*
X181749800Y-108411900D01*
X190303200Y-113958800D02*
X187563900Y-111219500D01*
X232171900Y-122723000D02*
X221000500Y-122723000D01*
X233347100Y-121547800D02*
X232171900Y-122723000D01*
%TO.N,RTDSCLK*%
X223224900Y-86210700D02*
X223224900Y-85843500D01*
X222013900Y-87421700D02*
X223224900Y-86210700D01*
X217207900Y-140961400D02*
X204282700Y-140961400D01*
X199405700Y-85780400D02*
X199405700Y-86145700D01*
X163315300Y-141069100D02*
X164490400Y-141069100D01*
X224400000Y-85843500D02*
X223224900Y-85843500D01*
X233347100Y-124087800D02*
X233347100Y-124822200D01*
X204282700Y-140961400D02*
X185205600Y-140961400D01*
X184030500Y-140961400D02*
X183231000Y-140161900D01*
X183231000Y-140161900D02*
X177100300Y-140161900D01*
X165370000Y-139824200D02*
X164490400Y-140703800D01*
X164490400Y-140703800D02*
X164490400Y-141069100D01*
X199405700Y-86145700D02*
X200681700Y-87421700D01*
X233347100Y-124822200D02*
X217207900Y-140961400D01*
X177100300Y-140161900D02*
X176762600Y-139824200D01*
X200681700Y-87421700D02*
X222013900Y-87421700D01*
X234522200Y-124087800D02*
X233347100Y-124087800D01*
X185205600Y-140961400D02*
X184030500Y-140961400D01*
X176762600Y-139824200D02*
X165370000Y-139824200D01*
X198230600Y-85780400D02*
X199405700Y-85780400D01*
%TO.N,SWMISO*%
X214501200Y-112001900D02*
X224047100Y-121547800D01*
X181749800Y-105871900D02*
X184557400Y-108679500D01*
X187243200Y-108679500D02*
X190565600Y-112001900D01*
X225222200Y-121547800D02*
X224047100Y-121547800D01*
X180561100Y-105871900D02*
X181749800Y-105871900D01*
X190565600Y-112001900D02*
X214501200Y-112001900D01*
X184557400Y-108679500D02*
X187243200Y-108679500D01*
%TO.N,RTDMISO*%
X226940000Y-85843500D02*
X225764900Y-85843500D01*
X200770600Y-85780400D02*
X201945700Y-85780400D01*
X214012100Y-84627900D02*
X224914500Y-84627900D01*
X204282700Y-143501400D02*
X185205600Y-143501400D01*
X224914500Y-84627900D02*
X225764900Y-85478300D01*
X202753700Y-86955600D02*
X211684400Y-86955600D01*
X225764900Y-85478300D02*
X225764900Y-85843500D01*
X201945700Y-86147600D02*
X202753700Y-86955600D01*
X201945700Y-85780400D02*
X201945700Y-86147600D01*
X211684400Y-86955600D02*
X214012100Y-84627900D01*
%TO.N,SWMOSI*%
X214574400Y-107425100D02*
X190528900Y-107425100D01*
X186703300Y-103599500D02*
X182017400Y-103599500D01*
X190528900Y-107425100D02*
X186703300Y-103599500D01*
X180561100Y-103331900D02*
X181749800Y-103331900D01*
X182017400Y-103599500D02*
X181749800Y-103331900D01*
X228697100Y-121547800D02*
X214574400Y-107425100D01*
X229872200Y-121547800D02*
X228697100Y-121547800D01*
%TO.N,RTDMOSI*%
X204282700Y-146041400D02*
X185205600Y-146041400D01*
X203310600Y-85780400D02*
X204485700Y-85780400D01*
X174177400Y-146041400D02*
X169570400Y-141434400D01*
X185205600Y-146041400D02*
X174177400Y-146041400D01*
X227004300Y-84177700D02*
X228304900Y-85478300D01*
X204485700Y-85413200D02*
X205721200Y-84177700D01*
X169570400Y-141434400D02*
X169570400Y-141069100D01*
X228304900Y-85478300D02*
X228304900Y-85843500D01*
X229480000Y-85843500D02*
X228304900Y-85843500D01*
X205721200Y-84177700D02*
X227004300Y-84177700D01*
X168395300Y-141069100D02*
X169570400Y-141069100D01*
X204485700Y-85780400D02*
X204485700Y-85413200D01*
%TO.N,Net-(Q21-CATHODE_4)*%
X207300000Y-77940400D02*
X205824700Y-79415700D01*
X199131000Y-79208600D02*
X200256100Y-79208600D01*
X200463200Y-79415700D02*
X200256100Y-79208600D01*
X219482800Y-76529800D02*
X212320400Y-76529800D01*
X205824700Y-79415700D02*
X200463200Y-79415700D01*
X212320400Y-76529800D02*
X210909800Y-77940400D01*
X210909800Y-77940400D02*
X207300000Y-77940400D01*
%TO.N,Net-(Q21-CATHODE_1)*%
X195611500Y-54440300D02*
X196736600Y-54440300D01*
X214437100Y-56244100D02*
X198540400Y-56244100D01*
X219482800Y-61289800D02*
X214437100Y-56244100D01*
X198540400Y-56244100D02*
X196736600Y-54440300D01*
%TO.N,Net-(Q21-CATHODE_2)*%
X215393600Y-62280600D02*
X219482800Y-66369800D01*
X199602500Y-61155500D02*
X200727600Y-61155500D01*
X201852700Y-62280600D02*
X215393600Y-62280600D01*
X200727600Y-61155500D02*
X201852700Y-62280600D01*
%TO.N,Net-(Q21-CATHODE_3)*%
X219482800Y-71449800D02*
X201745400Y-71449800D01*
X201745400Y-71449800D02*
X200459000Y-70163400D01*
X199333900Y-70163400D02*
X200459000Y-70163400D01*
%TO.N,CAN_INT*%
X208462000Y-124672000D02*
X200612500Y-116822500D01*
X190100000Y-116822500D02*
X187037000Y-113759500D01*
X180110300Y-112221900D02*
X179209800Y-111321400D01*
X179209800Y-111321400D02*
X179209800Y-110951900D01*
X182493300Y-112221900D02*
X180110300Y-112221900D01*
X184030900Y-113759500D02*
X182493300Y-112221900D01*
X200612500Y-116822500D02*
X190100000Y-116822500D01*
X213845000Y-124672000D02*
X208462000Y-124672000D01*
X178021100Y-110951900D02*
X179209800Y-110951900D01*
X187037000Y-113759500D02*
X184030900Y-113759500D01*
%TO.N,Net-(Q1-G)*%
X206978900Y-49635500D02*
X208104000Y-49635500D01*
X212730500Y-50883600D02*
X209352100Y-50883600D01*
X212730500Y-51958700D02*
X212730500Y-50883600D01*
X209352100Y-50883600D02*
X208104000Y-49635500D01*
%TO.N,Net-(Q1-D)*%
X195175600Y-52336200D02*
X193071500Y-54440300D01*
X214000500Y-51958700D02*
X214000500Y-53033800D01*
X203597600Y-53033800D02*
X202900000Y-52336200D01*
X202900000Y-52336200D02*
X195175600Y-52336200D01*
X214000500Y-53033800D02*
X203597600Y-53033800D01*
%TO.N,Net-(Q2-D)*%
X215632300Y-58682000D02*
X211487500Y-58682000D01*
X211487500Y-58682000D02*
X210867700Y-59301800D01*
X198916200Y-59301800D02*
X197062500Y-61155500D01*
X215632300Y-59757100D02*
X215632300Y-58682000D01*
X210867700Y-59301800D02*
X198916200Y-59301800D01*
%TO.N,Net-(Q3-D)*%
X197946200Y-69011100D02*
X196793900Y-70163400D01*
X205813200Y-69932400D02*
X201348400Y-69932400D01*
X201348400Y-69932400D02*
X200427100Y-69011100D01*
X200427100Y-69011100D02*
X197946200Y-69011100D01*
X215437400Y-68857200D02*
X215437400Y-67782100D01*
X211345800Y-68232300D02*
X207513300Y-68232300D01*
X211796000Y-67782100D02*
X211345800Y-68232300D01*
X215437400Y-67782100D02*
X211796000Y-67782100D01*
X207513300Y-68232300D02*
X205813200Y-69932400D01*
%TO.N,Net-(Q4-D)*%
X213640000Y-80605600D02*
X197988000Y-80605600D01*
X197988000Y-80605600D02*
X196591000Y-79208600D01*
X215186200Y-79059400D02*
X213640000Y-80605600D01*
X215186200Y-77984300D02*
X215186200Y-79059400D01*
%TD*%
%TA.AperFunction,Conductor*%
%TO.N,GND*%
G36*
X104987156Y-103588356D02*
G01*
X105769472Y-104370672D01*
X105772564Y-104376165D01*
X105772357Y-104382464D01*
X105768912Y-104387743D01*
X104987135Y-105073137D01*
X104981394Y-105075872D01*
X104975071Y-105075200D01*
X104970033Y-105071320D01*
X104401341Y-104306497D01*
X104399061Y-104298662D01*
X104402456Y-104291244D01*
X104572089Y-104121612D01*
X104969513Y-103589624D01*
X104974787Y-103585669D01*
X104981366Y-103585196D01*
X104987156Y-103588356D01*
G37*
%TD.AperFunction*%
%TD*%
%TA.AperFunction,Conductor*%
%TO.N,GND*%
G36*
X199048523Y-117691530D02*
G01*
X199052369Y-117696446D01*
X199352934Y-118419710D01*
X199353830Y-118424200D01*
X199352934Y-118428690D01*
X199052369Y-119151953D01*
X199048523Y-119156869D01*
X199042697Y-119159108D01*
X199036548Y-119158033D01*
X197760483Y-118552372D01*
X197755611Y-118548055D01*
X197753800Y-118541802D01*
X197753800Y-118306598D01*
X197755611Y-118300345D01*
X197760483Y-118296028D01*
X199036550Y-117690365D01*
X199042697Y-117689291D01*
X199048523Y-117691530D01*
G37*
%TD.AperFunction*%
%TD*%
%TA.AperFunction,Conductor*%
%TO.N,+5V*%
G36*
X102457842Y-119443523D02*
G01*
X102461428Y-119448630D01*
X102829695Y-120482304D01*
X102935475Y-120779212D01*
X102935868Y-120785710D01*
X102932727Y-120791412D01*
X102766412Y-120957727D01*
X102760710Y-120960868D01*
X102754212Y-120960475D01*
X101423630Y-120486428D01*
X101418523Y-120482842D01*
X101415987Y-120477139D01*
X101416742Y-120470944D01*
X101715638Y-119746984D01*
X101718179Y-119743179D01*
X101721984Y-119740638D01*
X102445944Y-119441742D01*
X102452139Y-119440987D01*
X102457842Y-119443523D01*
G37*
%TD.AperFunction*%
%TD*%
%TA.AperFunction,Conductor*%
%TO.N,RTDSCLK*%
G36*
X223808674Y-85252158D02*
G01*
X224394465Y-85836974D01*
X224397673Y-85842964D01*
X224397010Y-85849727D01*
X224079819Y-86616469D01*
X224075723Y-86621577D01*
X224069523Y-86623685D01*
X224063162Y-86622131D01*
X223349900Y-86210700D01*
X223122778Y-86210700D01*
X223114958Y-86207703D01*
X223111145Y-86200246D01*
X223113292Y-86192151D01*
X223365736Y-85842500D01*
X223790924Y-85253586D01*
X223796190Y-85249525D01*
X223802823Y-85248990D01*
X223808674Y-85252158D01*
G37*
%TD.AperFunction*%
%TD*%
%TA.AperFunction,Conductor*%
%TO.N,OUTPUTLED2*%
G36*
X180231630Y-130481315D02*
G01*
X180235743Y-130486435D01*
X180407867Y-130902500D01*
X180558110Y-131265672D01*
X180558773Y-131272435D01*
X180555565Y-131278425D01*
X179960188Y-131872827D01*
X179954325Y-131875998D01*
X179947682Y-131875452D01*
X179942416Y-131871368D01*
X179260684Y-130921019D01*
X179258561Y-130912930D01*
X179262381Y-130905489D01*
X179270192Y-130902500D01*
X179497399Y-130902500D01*
X179497400Y-130902500D01*
X180219032Y-130480806D01*
X180225404Y-130479218D01*
X180231630Y-130481315D01*
G37*
%TD.AperFunction*%
%TD*%
%TA.AperFunction,Conductor*%
%TO.N,SWMOSI*%
G36*
X229028865Y-120704465D02*
G01*
X229863590Y-121539190D01*
X229866729Y-121544883D01*
X229866344Y-121551373D01*
X229862554Y-121556656D01*
X229031194Y-122211142D01*
X229022701Y-122213581D01*
X229014924Y-122209385D01*
X228467922Y-121544883D01*
X228244300Y-121273226D01*
X228241648Y-121265226D01*
X228245060Y-121257519D01*
X228413442Y-121089137D01*
X228415382Y-121087574D01*
X229014269Y-120702893D01*
X229021844Y-120701105D01*
X229028865Y-120704465D01*
G37*
%TD.AperFunction*%
%TD*%
%TA.AperFunction,Conductor*%
%TO.N,Net-(IC17-C2-)*%
G36*
X102457842Y-108366523D02*
G01*
X102461428Y-108371630D01*
X102829695Y-109405304D01*
X102935475Y-109702212D01*
X102935868Y-109708710D01*
X102932727Y-109714412D01*
X102766412Y-109880727D01*
X102760710Y-109883868D01*
X102754212Y-109883475D01*
X101423630Y-109409428D01*
X101418523Y-109405842D01*
X101415987Y-109400139D01*
X101416742Y-109393944D01*
X101715638Y-108669984D01*
X101718179Y-108666179D01*
X101721984Y-108663638D01*
X102445944Y-108364742D01*
X102452139Y-108363987D01*
X102457842Y-108366523D01*
G37*
%TD.AperFunction*%
%TD*%
%TA.AperFunction,Conductor*%
%TO.N,SWMISO*%
G36*
X181179976Y-105268330D02*
G01*
X181887469Y-105878427D01*
X182209425Y-106156061D01*
X182212923Y-106161342D01*
X182213156Y-106167671D01*
X182210057Y-106173195D01*
X182044332Y-106338920D01*
X182039273Y-106341897D01*
X180901611Y-106666897D01*
X180893311Y-106666184D01*
X180887590Y-106660129D01*
X180563393Y-105878427D01*
X180562726Y-105871658D01*
X180565935Y-105865663D01*
X181164074Y-105268908D01*
X181171911Y-105265500D01*
X181179976Y-105268330D01*
G37*
%TD.AperFunction*%
%TD*%
%TA.AperFunction,Conductor*%
%TO.N,/CAN Bus/CAN_INT*%
G36*
X211076877Y-121196987D02*
G01*
X212042379Y-121995121D01*
X212046012Y-122000403D01*
X212046315Y-122006808D01*
X212043197Y-122012411D01*
X211877621Y-122177987D01*
X211872662Y-122180935D01*
X210819237Y-122492024D01*
X210810884Y-122491362D01*
X210805116Y-122485286D01*
X210505292Y-121762425D01*
X210504626Y-121755657D01*
X210507834Y-121749664D01*
X211061159Y-121197721D01*
X211068876Y-121194318D01*
X211076877Y-121196987D01*
G37*
%TD.AperFunction*%
%TD*%
%TA.AperFunction,Conductor*%
%TO.N,GND*%
G36*
X199312897Y-57300899D02*
G01*
X199317339Y-57306241D01*
X199614810Y-58025373D01*
X199615472Y-58032135D01*
X199612264Y-58038125D01*
X199061051Y-58588364D01*
X199055516Y-58591461D01*
X199049178Y-58591214D01*
X199043900Y-58587697D01*
X198384248Y-57817813D01*
X198381448Y-57809600D01*
X198385075Y-57801717D01*
X198393133Y-57798500D01*
X198617700Y-57798500D01*
X199299636Y-57301258D01*
X199306209Y-57299017D01*
X199312897Y-57300899D01*
G37*
%TD.AperFunction*%
%TD*%
%TA.AperFunction,Conductor*%
%TO.N,Net-(Q11-D)*%
G36*
X127182184Y-76971808D02*
G01*
X127785206Y-77474959D01*
X127788809Y-77480242D01*
X127789097Y-77486631D01*
X127785983Y-77492216D01*
X127619051Y-77659148D01*
X127617334Y-77660565D01*
X127104431Y-78007586D01*
X127098636Y-78009571D01*
X127092632Y-78008355D01*
X127088065Y-78004272D01*
X126719627Y-77437392D01*
X126717799Y-77429831D01*
X126721118Y-77422793D01*
X127166371Y-76972563D01*
X127174129Y-76969105D01*
X127182184Y-76971808D01*
G37*
%TD.AperFunction*%
%TD*%
%TA.AperFunction,Conductor*%
%TO.N,FuelPressure1*%
G36*
X105174977Y-142886587D02*
G01*
X106140479Y-143684721D01*
X106144112Y-143690003D01*
X106144415Y-143696408D01*
X106141297Y-143702011D01*
X105975721Y-143867587D01*
X105970762Y-143870535D01*
X104917337Y-144181624D01*
X104908984Y-144180962D01*
X104903216Y-144174886D01*
X104603392Y-143452025D01*
X104602726Y-143445257D01*
X104605934Y-143439264D01*
X105159259Y-142887321D01*
X105166976Y-142883918D01*
X105174977Y-142886587D01*
G37*
%TD.AperFunction*%
%TD*%
%TA.AperFunction,Conductor*%
%TO.N,Net-(Q21-CATHODE_2)*%
G36*
X218729764Y-65435629D02*
G01*
X219181188Y-65610128D01*
X219701250Y-65811158D01*
X219706196Y-65814797D01*
X219708618Y-65820440D01*
X219707848Y-65826532D01*
X219485362Y-66366007D01*
X219482819Y-66369819D01*
X219479007Y-66372362D01*
X218939532Y-66594848D01*
X218933440Y-66595618D01*
X218927797Y-66593196D01*
X218924158Y-66588250D01*
X218548630Y-65616765D01*
X218548096Y-65610128D01*
X218551268Y-65604276D01*
X218717276Y-65438268D01*
X218723128Y-65435096D01*
X218729764Y-65435629D01*
G37*
%TD.AperFunction*%
%TD*%
%TA.AperFunction,Conductor*%
%TO.N,/BufferedADC1/ADCIN4*%
G36*
X114580211Y-134656902D02*
G01*
X114745787Y-134822478D01*
X114748735Y-134827437D01*
X115059824Y-135880862D01*
X115059162Y-135889215D01*
X115053086Y-135894983D01*
X114330227Y-136194806D01*
X114323457Y-136195473D01*
X114317462Y-136192262D01*
X114006839Y-135880862D01*
X113765522Y-135638940D01*
X113762118Y-135631223D01*
X113764786Y-135623223D01*
X114562923Y-134657717D01*
X114568203Y-134654087D01*
X114574608Y-134653784D01*
X114580211Y-134656902D01*
G37*
%TD.AperFunction*%
%TD*%
%TA.AperFunction,Conductor*%
%TO.N,MOSI*%
G36*
X181179976Y-138288330D02*
G01*
X181887469Y-138898427D01*
X182209425Y-139176061D01*
X182212923Y-139181342D01*
X182213156Y-139187671D01*
X182210057Y-139193195D01*
X182044332Y-139358920D01*
X182039273Y-139361897D01*
X180901611Y-139686897D01*
X180893311Y-139686184D01*
X180887590Y-139680129D01*
X180563393Y-138898427D01*
X180562726Y-138891658D01*
X180565935Y-138885663D01*
X181164074Y-138288908D01*
X181171911Y-138285500D01*
X181179976Y-138288330D01*
G37*
%TD.AperFunction*%
%TD*%
%TA.AperFunction,Conductor*%
%TO.N,+VDC*%
G36*
X149192477Y-50804828D02*
G01*
X149450748Y-50836732D01*
X149458080Y-50840595D01*
X149461014Y-50848344D01*
X149461014Y-51083737D01*
X149458270Y-51091265D01*
X148475525Y-52260464D01*
X148470246Y-52264043D01*
X148463873Y-52264321D01*
X148458302Y-52261215D01*
X147790938Y-51594833D01*
X147788395Y-51591030D01*
X147787505Y-51586542D01*
X147788486Y-50644620D01*
X147790306Y-50638365D01*
X147795189Y-50634053D01*
X147801617Y-50633020D01*
X149192477Y-50804828D01*
G37*
%TD.AperFunction*%
%TD*%
%TA.AperFunction,Conductor*%
%TO.N,GPSTX*%
G36*
X154373799Y-100315394D02*
G01*
X154381260Y-100319900D01*
X155152986Y-100785999D01*
X155157941Y-100792040D01*
X155157989Y-100799854D01*
X154835469Y-101728190D01*
X154831361Y-101733767D01*
X154824819Y-101736043D01*
X154818136Y-101734221D01*
X154097400Y-101275600D01*
X153866906Y-101275600D01*
X153859486Y-101272946D01*
X153855432Y-101266188D01*
X153856584Y-101258391D01*
X153886210Y-101202875D01*
X154357430Y-100319897D01*
X154361742Y-100315369D01*
X154367774Y-100313709D01*
X154373799Y-100315394D01*
G37*
%TD.AperFunction*%
%TD*%
%TA.AperFunction,Conductor*%
%TO.N,FuelPressure1*%
G36*
X139591297Y-148109609D02*
G01*
X139595292Y-148115101D01*
X139917989Y-149043945D01*
X139917941Y-149051759D01*
X139912986Y-149057800D01*
X139133962Y-149528307D01*
X139127877Y-149529992D01*
X139121804Y-149528270D01*
X139117508Y-149523643D01*
X138616169Y-148548851D01*
X138615124Y-148541096D01*
X138619199Y-148534417D01*
X138626574Y-148531800D01*
X138857400Y-148531800D01*
X139578323Y-148108849D01*
X139584923Y-148107261D01*
X139591297Y-148109609D01*
G37*
%TD.AperFunction*%
%TD*%
%TA.AperFunction,Conductor*%
%TO.N,GND*%
G36*
X124853980Y-93871200D02*
G01*
X125536100Y-94321100D01*
X125761605Y-94321100D01*
X125769581Y-94324240D01*
X125773276Y-94331975D01*
X125770706Y-94340153D01*
X125109853Y-95158075D01*
X125104573Y-95161781D01*
X125098131Y-95162125D01*
X125092486Y-95159002D01*
X124541535Y-94609025D01*
X124538327Y-94603035D01*
X124538989Y-94596273D01*
X124836729Y-93876493D01*
X124841016Y-93871255D01*
X124847490Y-93869268D01*
X124853980Y-93871200D01*
G37*
%TD.AperFunction*%
%TD*%
%TA.AperFunction,Conductor*%
%TO.N,AmbientCS*%
G36*
X220327566Y-91357464D02*
G01*
X220605501Y-91444629D01*
X220611430Y-91448867D01*
X220613700Y-91455793D01*
X220613700Y-91688607D01*
X220611430Y-91695533D01*
X220605501Y-91699771D01*
X220138687Y-91846170D01*
X220130250Y-91845614D01*
X220124391Y-91839518D01*
X220014583Y-91576707D01*
X220013680Y-91572200D01*
X220014583Y-91567692D01*
X220124392Y-91304879D01*
X220130250Y-91298785D01*
X220138686Y-91298229D01*
X220327566Y-91357464D01*
G37*
%TD.AperFunction*%
%TD*%
%TA.AperFunction,Conductor*%
%TO.N,Sense1-4*%
G36*
X189801855Y-70811242D02*
G01*
X189818539Y-70818131D01*
X190525812Y-71110137D01*
X190529620Y-71112679D01*
X190532162Y-71116487D01*
X190831056Y-71840443D01*
X190831812Y-71846639D01*
X190829276Y-71852342D01*
X190824168Y-71855929D01*
X189493587Y-72329975D01*
X189487089Y-72330368D01*
X189481387Y-72327227D01*
X189315072Y-72160912D01*
X189311931Y-72155210D01*
X189312323Y-72148716D01*
X189786372Y-70818127D01*
X189789957Y-70813023D01*
X189795660Y-70810487D01*
X189801855Y-70811242D01*
G37*
%TD.AperFunction*%
%TD*%
%TA.AperFunction,Conductor*%
%TO.N,GND*%
G36*
X109670038Y-100315538D02*
G01*
X110448986Y-100785999D01*
X110453941Y-100792040D01*
X110453989Y-100799854D01*
X110131203Y-101728953D01*
X110127266Y-101734401D01*
X110120981Y-101736784D01*
X110114422Y-101735314D01*
X109393401Y-101330400D01*
X109393400Y-101330400D01*
X109162417Y-101330400D01*
X109155065Y-101327801D01*
X109150978Y-101321160D01*
X109151973Y-101313426D01*
X109418343Y-100785999D01*
X109653549Y-100320278D01*
X109657834Y-100315606D01*
X109663928Y-100313854D01*
X109670038Y-100315538D01*
G37*
%TD.AperFunction*%
%TD*%
%TA.AperFunction,Conductor*%
%TO.N,GND*%
G36*
X125151775Y-148194416D02*
G01*
X126402492Y-148923514D01*
X126406745Y-148927793D01*
X126408300Y-148933622D01*
X126408300Y-149170178D01*
X126406745Y-149176007D01*
X126402492Y-149180286D01*
X125151775Y-149909383D01*
X125145787Y-149910975D01*
X125139825Y-149909284D01*
X125135562Y-149904786D01*
X124683043Y-149057411D01*
X124681664Y-149051900D01*
X124683043Y-149046389D01*
X124748661Y-148923514D01*
X125135564Y-148199010D01*
X125139825Y-148194515D01*
X125145787Y-148192824D01*
X125151775Y-148194416D01*
G37*
%TD.AperFunction*%
%TD*%
%TA.AperFunction,Conductor*%
%TO.N,CAN_INT*%
G36*
X178634517Y-110348348D02*
G01*
X178639784Y-110352434D01*
X179321517Y-111302881D01*
X179323641Y-111310970D01*
X179319821Y-111318411D01*
X179312010Y-111321400D01*
X179084799Y-111321400D01*
X178363169Y-111742994D01*
X178356795Y-111744582D01*
X178350570Y-111742486D01*
X178346456Y-111737365D01*
X178024088Y-110958124D01*
X178023426Y-110951364D01*
X178026632Y-110945376D01*
X178622011Y-110350972D01*
X178627874Y-110347802D01*
X178634517Y-110348348D01*
G37*
%TD.AperFunction*%
%TD*%
%TA.AperFunction,Conductor*%
%TO.N,Net-(Q1-D)*%
G36*
X214003787Y-51965989D02*
G01*
X214008776Y-51970418D01*
X214366974Y-52547270D01*
X214368674Y-52554621D01*
X214365534Y-52561482D01*
X213820800Y-53137442D01*
X213814822Y-53140827D01*
X213807974Y-53140273D01*
X213802617Y-53135970D01*
X213800600Y-53129402D01*
X213800600Y-52908800D01*
X213611674Y-52561482D01*
X213519934Y-52392829D01*
X213518695Y-52385185D01*
X213522501Y-52378441D01*
X213991128Y-51967788D01*
X213997188Y-51965007D01*
X214003787Y-51965989D01*
G37*
%TD.AperFunction*%
%TD*%
%TA.AperFunction,Conductor*%
%TO.N,GND*%
G36*
X191346403Y-56487210D02*
G01*
X192305435Y-56739903D01*
X192311721Y-56744075D01*
X192314154Y-56751217D01*
X192314154Y-56986332D01*
X192312912Y-56991577D01*
X192309451Y-56995709D01*
X191345290Y-57715137D01*
X191337454Y-57717430D01*
X191330027Y-57714040D01*
X190776044Y-57161034D01*
X190772835Y-57155035D01*
X190773505Y-57148267D01*
X191073731Y-56425818D01*
X191079343Y-56419824D01*
X191087515Y-56418996D01*
X191346403Y-56487210D01*
G37*
%TD.AperFunction*%
%TD*%
%TA.AperFunction,Conductor*%
%TO.N,Sense1-6*%
G36*
X114450680Y-139953400D02*
G01*
X115132800Y-140403300D01*
X115358305Y-140403300D01*
X115366281Y-140406440D01*
X115369976Y-140414175D01*
X115367406Y-140422353D01*
X114706553Y-141240275D01*
X114701273Y-141243981D01*
X114694831Y-141244325D01*
X114689186Y-141241202D01*
X114138235Y-140691225D01*
X114135027Y-140685235D01*
X114135689Y-140678473D01*
X114433429Y-139958693D01*
X114437716Y-139953455D01*
X114444190Y-139951468D01*
X114450680Y-139953400D01*
G37*
%TD.AperFunction*%
%TD*%
%TA.AperFunction,Conductor*%
%TO.N,Sense2-1*%
G36*
X204092900Y-76707758D02*
G01*
X204637634Y-77283717D01*
X204640774Y-77290578D01*
X204639074Y-77297929D01*
X204280876Y-77874781D01*
X204275887Y-77879210D01*
X204269288Y-77880192D01*
X204263226Y-77877409D01*
X203794602Y-77466759D01*
X203790795Y-77460014D01*
X203792034Y-77452370D01*
X204072700Y-76936400D01*
X204072700Y-76715798D01*
X204074717Y-76709230D01*
X204080074Y-76704927D01*
X204086922Y-76704373D01*
X204092900Y-76707758D01*
G37*
%TD.AperFunction*%
%TD*%
%TA.AperFunction,Conductor*%
%TO.N,Net-(IC3-OSC2)*%
G36*
X193888349Y-121217276D02*
G01*
X193892179Y-121222179D01*
X194173633Y-121899309D01*
X194174529Y-121903800D01*
X194173633Y-121908291D01*
X193892179Y-122585420D01*
X193888349Y-122590323D01*
X193882547Y-122592570D01*
X193876414Y-122591525D01*
X192681239Y-122031955D01*
X192676327Y-122027638D01*
X192674500Y-122021359D01*
X192674500Y-121786241D01*
X192676327Y-121779962D01*
X192681239Y-121775645D01*
X193079776Y-121589053D01*
X193876414Y-121216073D01*
X193882547Y-121215029D01*
X193888349Y-121217276D01*
G37*
%TD.AperFunction*%
%TD*%
%TA.AperFunction,Conductor*%
%TO.N,Sense2-1*%
G36*
X166599225Y-78835879D02*
G01*
X166602808Y-78841002D01*
X167089154Y-80216481D01*
X167089534Y-80222966D01*
X167086396Y-80228654D01*
X166920054Y-80394996D01*
X166914366Y-80398134D01*
X166907881Y-80397754D01*
X165532402Y-79911408D01*
X165527279Y-79907825D01*
X165524732Y-79902117D01*
X165525487Y-79895913D01*
X165833939Y-79148882D01*
X165836478Y-79145078D01*
X165840282Y-79142539D01*
X166587313Y-78834087D01*
X166593517Y-78833332D01*
X166599225Y-78835879D01*
G37*
%TD.AperFunction*%
%TD*%
%TA.AperFunction,Conductor*%
%TO.N,GND*%
G36*
X209946251Y-125249135D02*
G01*
X210497464Y-125799374D01*
X210500672Y-125805364D01*
X210500010Y-125812126D01*
X210202539Y-126531258D01*
X210198097Y-126536600D01*
X210191409Y-126538482D01*
X210184834Y-126536240D01*
X209502900Y-126039000D01*
X209278333Y-126039000D01*
X209270275Y-126035783D01*
X209266648Y-126027900D01*
X209269448Y-126019687D01*
X209458216Y-125799374D01*
X209929101Y-125249800D01*
X209934378Y-125246285D01*
X209940716Y-125246038D01*
X209946251Y-125249135D01*
G37*
%TD.AperFunction*%
%TD*%
%TA.AperFunction,Conductor*%
%TO.N,GND*%
G36*
X129276596Y-105745780D02*
G01*
X129280457Y-105750707D01*
X129600134Y-106520111D01*
X129601029Y-106524600D01*
X129600134Y-106529089D01*
X129280457Y-107298492D01*
X129276596Y-107303419D01*
X129270748Y-107305652D01*
X129264586Y-107304550D01*
X127907634Y-106652786D01*
X127902797Y-106648469D01*
X127901000Y-106642239D01*
X127901000Y-106406961D01*
X127902797Y-106400731D01*
X127907634Y-106396414D01*
X128643049Y-106043182D01*
X129264587Y-105744648D01*
X129270748Y-105743547D01*
X129276596Y-105745780D01*
G37*
%TD.AperFunction*%
%TD*%
%TA.AperFunction,Conductor*%
%TO.N,Com1TX*%
G36*
X156913799Y-100315394D02*
G01*
X156921260Y-100319900D01*
X157692986Y-100785999D01*
X157697941Y-100792040D01*
X157697989Y-100799854D01*
X157375469Y-101728190D01*
X157371361Y-101733767D01*
X157364819Y-101736043D01*
X157358136Y-101734221D01*
X156637400Y-101275600D01*
X156406906Y-101275600D01*
X156399486Y-101272946D01*
X156395432Y-101266188D01*
X156396584Y-101258391D01*
X156426210Y-101202875D01*
X156897430Y-100319897D01*
X156901742Y-100315369D01*
X156907774Y-100313709D01*
X156913799Y-100315394D01*
G37*
%TD.AperFunction*%
%TD*%
%TA.AperFunction,Conductor*%
%TO.N,GPSTX*%
G36*
X123073759Y-103759428D02*
G01*
X123395360Y-103794172D01*
X123402809Y-103797988D01*
X123405803Y-103805804D01*
X123405803Y-104038514D01*
X123404224Y-104044384D01*
X123399913Y-104048669D01*
X123285808Y-104113947D01*
X122954503Y-104303485D01*
X122948164Y-104305017D01*
X122941989Y-104302918D01*
X122937898Y-104297841D01*
X122828110Y-104035078D01*
X122827207Y-104030536D01*
X122828157Y-103745888D01*
X122829955Y-103739695D01*
X122834760Y-103735396D01*
X122841113Y-103734295D01*
X123073759Y-103759428D01*
G37*
%TD.AperFunction*%
%TD*%
%TA.AperFunction,Conductor*%
%TO.N,Sense2-11*%
G36*
X157145117Y-58842444D02*
G01*
X158520598Y-59328791D01*
X158525720Y-59332374D01*
X158528267Y-59338082D01*
X158527511Y-59344287D01*
X158219062Y-60091313D01*
X158216521Y-60095121D01*
X158212713Y-60097662D01*
X157465687Y-60406111D01*
X157459482Y-60406867D01*
X157453774Y-60404320D01*
X157450191Y-60399197D01*
X157343573Y-60097662D01*
X156963844Y-59023717D01*
X156963465Y-59017233D01*
X156966601Y-59011547D01*
X157132947Y-58845201D01*
X157138633Y-58842065D01*
X157145117Y-58842444D01*
G37*
%TD.AperFunction*%
%TD*%
%TA.AperFunction,Conductor*%
%TO.N,GND*%
G36*
X104918349Y-145251665D02*
G01*
X106194417Y-145857328D01*
X106199289Y-145861645D01*
X106201100Y-145867898D01*
X106201100Y-146103102D01*
X106199289Y-146109355D01*
X106194417Y-146113672D01*
X104918351Y-146719333D01*
X104912202Y-146720408D01*
X104906376Y-146718169D01*
X104902530Y-146713253D01*
X104872998Y-146642190D01*
X104601964Y-145989985D01*
X104601069Y-145985500D01*
X104601964Y-145981014D01*
X104902530Y-145257745D01*
X104906376Y-145252830D01*
X104912202Y-145250591D01*
X104918349Y-145251665D01*
G37*
%TD.AperFunction*%
%TD*%
%TA.AperFunction,Conductor*%
%TO.N,GND*%
G36*
X200097980Y-118127106D02*
G01*
X200717161Y-119231402D01*
X200719188Y-119235016D01*
X200720573Y-119242338D01*
X200717256Y-119249011D01*
X200550988Y-119415279D01*
X200546301Y-119418143D01*
X200540824Y-119418552D01*
X200241832Y-119369597D01*
X200235450Y-119366324D01*
X200198779Y-119329653D01*
X200198089Y-119328901D01*
X200170653Y-119296204D01*
X200133700Y-119274869D01*
X200132839Y-119274321D01*
X200119774Y-119265173D01*
X200097884Y-119249846D01*
X200090452Y-119247854D01*
X200085323Y-119246480D01*
X200082502Y-119245311D01*
X200071245Y-119238811D01*
X200029225Y-119231402D01*
X200028229Y-119231181D01*
X199987006Y-119220135D01*
X199944500Y-119223855D01*
X199943480Y-119223900D01*
X199365490Y-119223900D01*
X199357221Y-119220477D01*
X199353790Y-119212210D01*
X199353520Y-118907714D01*
X199353099Y-118431324D01*
X199355072Y-118424817D01*
X199360332Y-118420503D01*
X200083312Y-118122012D01*
X200091612Y-118121775D01*
X200097980Y-118127106D01*
G37*
%TD.AperFunction*%
%TD*%
%TA.AperFunction,Conductor*%
%TO.N,Sense1-9*%
G36*
X103673062Y-139640664D02*
G01*
X103678021Y-139643612D01*
X103843597Y-139809188D01*
X103846715Y-139814791D01*
X103846412Y-139821196D01*
X103842779Y-139826479D01*
X102877277Y-140624612D01*
X102869276Y-140627281D01*
X102861559Y-140623877D01*
X102593715Y-140356703D01*
X102308236Y-140071936D01*
X102305026Y-140065942D01*
X102305692Y-140059174D01*
X102605517Y-139336311D01*
X102611284Y-139330237D01*
X102619635Y-139329575D01*
X103673062Y-139640664D01*
G37*
%TD.AperFunction*%
%TD*%
%TA.AperFunction,Conductor*%
%TO.N,Sense2-3*%
G36*
X158335373Y-77497888D02*
G01*
X158339690Y-77502718D01*
X158973336Y-78818248D01*
X158974444Y-78824412D01*
X158972214Y-78830265D01*
X158967284Y-78834129D01*
X158220989Y-79144234D01*
X158216500Y-79145130D01*
X158212011Y-79144234D01*
X157465646Y-78834101D01*
X157460730Y-78830257D01*
X157458490Y-78824432D01*
X157459563Y-78818284D01*
X158083329Y-77502782D01*
X158087646Y-77497907D01*
X158093901Y-77496095D01*
X158329149Y-77496095D01*
X158335373Y-77497888D01*
G37*
%TD.AperFunction*%
%TD*%
%TA.AperFunction,Conductor*%
%TO.N,GND*%
G36*
X107425538Y-145239911D02*
G01*
X107429412Y-145244848D01*
X107729934Y-145968010D01*
X107730830Y-145972500D01*
X107729934Y-145976990D01*
X107429334Y-146700338D01*
X107425512Y-146705237D01*
X107419720Y-146707487D01*
X107413592Y-146706455D01*
X106140148Y-146113648D01*
X106135220Y-146109331D01*
X106133386Y-146103041D01*
X106133386Y-145867825D01*
X106135169Y-145861617D01*
X106139975Y-145857300D01*
X107413500Y-145238812D01*
X107419670Y-145237686D01*
X107425538Y-145239911D01*
G37*
%TD.AperFunction*%
%TD*%
%TA.AperFunction,Conductor*%
%TO.N,RTDMISO*%
G36*
X185542013Y-142721449D02*
G01*
X186898966Y-143373214D01*
X186903803Y-143377531D01*
X186905600Y-143383761D01*
X186905600Y-143619039D01*
X186903803Y-143625269D01*
X186898966Y-143629586D01*
X185542013Y-144281350D01*
X185535851Y-144282452D01*
X185530003Y-144280219D01*
X185526142Y-144275292D01*
X185206465Y-143505888D01*
X185205570Y-143501399D01*
X185206464Y-143496912D01*
X185526142Y-142727505D01*
X185530003Y-142722580D01*
X185535851Y-142720347D01*
X185542013Y-142721449D01*
G37*
%TD.AperFunction*%
%TD*%
%TA.AperFunction,Conductor*%
%TO.N,Net-(Q24-D)*%
G36*
X202245244Y-67672740D02*
G01*
X202248300Y-67680625D01*
X202248300Y-67907100D01*
X202562822Y-68100689D01*
X202567090Y-68105296D01*
X202568361Y-68111448D01*
X202566267Y-68117370D01*
X202058416Y-68841492D01*
X202052037Y-68846028D01*
X202044227Y-68845527D01*
X202038479Y-68840215D01*
X201915607Y-68606286D01*
X201658074Y-68115981D01*
X201657014Y-68107993D01*
X201661371Y-68101214D01*
X202229540Y-67671294D01*
X202237672Y-67668974D01*
X202245244Y-67672740D01*
G37*
%TD.AperFunction*%
%TD*%
%TA.AperFunction,Conductor*%
%TO.N,+5V*%
G36*
X184364594Y-132678057D02*
G01*
X185195954Y-133332543D01*
X185199744Y-133337826D01*
X185200129Y-133344316D01*
X185196990Y-133350009D01*
X184362265Y-134184734D01*
X184355244Y-134188094D01*
X184347669Y-134186305D01*
X183748787Y-133801628D01*
X183746837Y-133800057D01*
X183578461Y-133631681D01*
X183575048Y-133623973D01*
X183577700Y-133615974D01*
X184348325Y-132679813D01*
X184356101Y-132675618D01*
X184364594Y-132678057D01*
G37*
%TD.AperFunction*%
%TD*%
%TA.AperFunction,Conductor*%
%TO.N,RTDMOSI*%
G36*
X185542013Y-145261449D02*
G01*
X186898966Y-145913214D01*
X186903803Y-145917531D01*
X186905600Y-145923761D01*
X186905600Y-146159039D01*
X186903803Y-146165269D01*
X186898966Y-146169586D01*
X185542013Y-146821350D01*
X185535851Y-146822452D01*
X185530003Y-146820219D01*
X185526142Y-146815292D01*
X185206465Y-146045889D01*
X185205570Y-146041400D01*
X185206465Y-146036911D01*
X185256536Y-145916400D01*
X185526142Y-145267505D01*
X185530003Y-145262580D01*
X185535851Y-145260347D01*
X185542013Y-145261449D01*
G37*
%TD.AperFunction*%
%TD*%
%TA.AperFunction,Conductor*%
%TO.N,FuelPressure3*%
G36*
X144671297Y-148109609D02*
G01*
X144675292Y-148115101D01*
X144997989Y-149043945D01*
X144997941Y-149051759D01*
X144992986Y-149057800D01*
X144213962Y-149528307D01*
X144207877Y-149529992D01*
X144201804Y-149528270D01*
X144197508Y-149523643D01*
X143696169Y-148548851D01*
X143695124Y-148541096D01*
X143699199Y-148534417D01*
X143706574Y-148531800D01*
X143937400Y-148531800D01*
X144658323Y-148108849D01*
X144664923Y-148107261D01*
X144671297Y-148109609D01*
G37*
%TD.AperFunction*%
%TD*%
%TA.AperFunction,Conductor*%
%TO.N,FuelPressure2*%
G36*
X108304677Y-142873587D02*
G01*
X109270179Y-143671721D01*
X109273812Y-143677003D01*
X109274115Y-143683408D01*
X109270997Y-143689011D01*
X109105421Y-143854587D01*
X109100462Y-143857535D01*
X108047037Y-144168624D01*
X108038684Y-144167962D01*
X108032916Y-144161886D01*
X107733092Y-143439025D01*
X107732426Y-143432257D01*
X107735634Y-143426264D01*
X108288959Y-142874321D01*
X108296676Y-142870918D01*
X108304677Y-142873587D01*
G37*
%TD.AperFunction*%
%TD*%
%TA.AperFunction,Conductor*%
%TO.N,Com1TX*%
G36*
X110344263Y-107880476D02*
G01*
X110510223Y-108046436D01*
X110513402Y-108052311D01*
X110512847Y-108058968D01*
X110147188Y-108994554D01*
X110143542Y-108999477D01*
X110137908Y-109001883D01*
X110131831Y-109001112D01*
X109610794Y-108786262D01*
X109606981Y-108783718D01*
X109604437Y-108779905D01*
X109389587Y-108258868D01*
X109388816Y-108252791D01*
X109391222Y-108247157D01*
X109396144Y-108243511D01*
X110331731Y-107877851D01*
X110338388Y-107877297D01*
X110344263Y-107880476D01*
G37*
%TD.AperFunction*%
%TD*%
%TA.AperFunction,Conductor*%
%TO.N,Net-(Q21-CATHODE_4)*%
G36*
X219254022Y-75981666D02*
G01*
X219257785Y-75986518D01*
X219481930Y-76525305D01*
X219482828Y-76529799D01*
X219481930Y-76534293D01*
X219257785Y-77073081D01*
X219254022Y-77077933D01*
X219248320Y-77080210D01*
X219242249Y-77079287D01*
X218289766Y-76657882D01*
X218284695Y-76653566D01*
X218282800Y-76647182D01*
X218282800Y-76412418D01*
X218284695Y-76406034D01*
X218289766Y-76401718D01*
X219242251Y-75980311D01*
X219248320Y-75979389D01*
X219254022Y-75981666D01*
G37*
%TD.AperFunction*%
%TD*%
%TA.AperFunction,Conductor*%
%TO.N,+5V*%
G36*
X184296441Y-96407132D02*
G01*
X185131513Y-97241222D01*
X185134545Y-97246469D01*
X185134545Y-97252529D01*
X185131512Y-97257777D01*
X184296442Y-98091866D01*
X184288634Y-98095279D01*
X184280581Y-98092490D01*
X184279849Y-98091866D01*
X183442907Y-97378003D01*
X183439876Y-97374003D01*
X183438800Y-97369101D01*
X183438800Y-97129899D01*
X183439876Y-97124997D01*
X183442907Y-97120997D01*
X183461117Y-97105464D01*
X184280583Y-96406508D01*
X184288634Y-96403720D01*
X184296441Y-96407132D01*
G37*
%TD.AperFunction*%
%TD*%
%TA.AperFunction,Conductor*%
%TO.N,Sense2-5*%
G36*
X166985686Y-71214087D02*
G01*
X167732714Y-71522538D01*
X167736521Y-71525078D01*
X167739062Y-71528886D01*
X168047511Y-72275912D01*
X168048267Y-72282117D01*
X168045720Y-72287825D01*
X168040597Y-72291408D01*
X166665118Y-72777754D01*
X166658633Y-72778134D01*
X166652945Y-72774996D01*
X166486603Y-72608654D01*
X166483465Y-72602966D01*
X166483844Y-72596482D01*
X166970192Y-71220999D01*
X166973774Y-71215879D01*
X166979482Y-71213332D01*
X166985686Y-71214087D01*
G37*
%TD.AperFunction*%
%TD*%
%TA.AperFunction,Conductor*%
%TO.N,AmbientCS*%
G36*
X231428674Y-85252158D02*
G01*
X232014465Y-85836974D01*
X232017673Y-85842964D01*
X232017010Y-85849727D01*
X231699819Y-86616469D01*
X231695723Y-86621577D01*
X231689523Y-86623685D01*
X231683162Y-86622131D01*
X230969900Y-86210700D01*
X230742778Y-86210700D01*
X230734958Y-86207703D01*
X230731145Y-86200246D01*
X230733292Y-86192151D01*
X230985736Y-85842500D01*
X231410924Y-85253586D01*
X231416190Y-85249525D01*
X231422823Y-85248990D01*
X231428674Y-85252158D01*
G37*
%TD.AperFunction*%
%TD*%
%TA.AperFunction,Conductor*%
%TO.N,Net-(Q21-CATHODE_3)*%
G36*
X199907777Y-69604487D02*
G01*
X200873279Y-70402621D01*
X200876912Y-70407903D01*
X200877215Y-70414308D01*
X200874097Y-70419911D01*
X200708521Y-70585487D01*
X200703562Y-70588435D01*
X199650137Y-70899524D01*
X199641784Y-70898862D01*
X199636016Y-70892786D01*
X199336192Y-70169925D01*
X199335526Y-70163157D01*
X199338734Y-70157164D01*
X199892059Y-69605221D01*
X199899776Y-69601818D01*
X199907777Y-69604487D01*
G37*
%TD.AperFunction*%
%TD*%
%TA.AperFunction,Conductor*%
%TO.N,Sense2-10*%
G36*
X161727350Y-66227323D02*
G01*
X161891976Y-66391949D01*
X161895268Y-66398451D01*
X161894073Y-66405640D01*
X161667506Y-66839246D01*
X161661146Y-66844819D01*
X161652692Y-66844651D01*
X161389215Y-66736463D01*
X161385386Y-66733913D01*
X161382836Y-66730084D01*
X161274648Y-66466607D01*
X161274480Y-66458153D01*
X161280051Y-66451794D01*
X161713663Y-66225225D01*
X161720848Y-66224031D01*
X161727350Y-66227323D01*
G37*
%TD.AperFunction*%
%TD*%
%TA.AperFunction,Conductor*%
%TO.N,SWMOSI*%
G36*
X181179964Y-102728183D02*
G01*
X182096076Y-103502899D01*
X182099636Y-103508179D01*
X182099901Y-103514544D01*
X182096793Y-103520104D01*
X181930613Y-103686284D01*
X181926925Y-103688775D01*
X180902452Y-104125133D01*
X180896419Y-104125979D01*
X180890778Y-104123677D01*
X180887060Y-104118851D01*
X180563393Y-103338427D01*
X180562726Y-103331658D01*
X180565935Y-103325663D01*
X181164148Y-102728833D01*
X181171929Y-102725428D01*
X181179964Y-102728183D01*
G37*
%TD.AperFunction*%
%TD*%
%TA.AperFunction,Conductor*%
%TO.N,RTDMOSI*%
G36*
X203647437Y-85001768D02*
G01*
X203657253Y-85007430D01*
X204360700Y-85413200D01*
X204587822Y-85413200D01*
X204595642Y-85416197D01*
X204599455Y-85423654D01*
X204597308Y-85431749D01*
X203919677Y-86370310D01*
X203914409Y-86374374D01*
X203907776Y-86374909D01*
X203901925Y-86371741D01*
X203316134Y-85786925D01*
X203312926Y-85780935D01*
X203313588Y-85774175D01*
X203630782Y-85007427D01*
X203634876Y-85002322D01*
X203641076Y-85000214D01*
X203647437Y-85001768D01*
G37*
%TD.AperFunction*%
%TD*%
%TA.AperFunction,Conductor*%
%TO.N,GPSRX*%
G36*
X151995702Y-100061386D02*
G01*
X152000983Y-100064912D01*
X152617442Y-100786087D01*
X152620046Y-100791525D01*
X152619597Y-100797537D01*
X152294704Y-101730419D01*
X152291118Y-101735581D01*
X152285379Y-101738143D01*
X152279142Y-101737365D01*
X152274875Y-101735581D01*
X151142141Y-101261955D01*
X151138381Y-101259434D01*
X150971510Y-101092563D01*
X150968481Y-101087317D01*
X150968482Y-101081260D01*
X150971512Y-101076015D01*
X151250136Y-100797537D01*
X151983820Y-100064237D01*
X151989358Y-100061137D01*
X151995702Y-100061386D01*
G37*
%TD.AperFunction*%
%TD*%
%TA.AperFunction,Conductor*%
%TO.N,SCLK*%
G36*
X234886403Y-125342758D02*
G01*
X234889400Y-125350578D01*
X234889400Y-125577700D01*
X235300831Y-126290962D01*
X235302385Y-126297323D01*
X235300277Y-126303523D01*
X235295169Y-126307619D01*
X234528427Y-126624810D01*
X234521664Y-126625473D01*
X234515674Y-126622265D01*
X233930858Y-126036474D01*
X233927690Y-126030623D01*
X233928225Y-126023990D01*
X233932286Y-126018724D01*
X234870851Y-125341091D01*
X234878946Y-125338945D01*
X234886403Y-125342758D01*
G37*
%TD.AperFunction*%
%TD*%
%TA.AperFunction,Conductor*%
%TO.N,GND*%
G36*
X137691064Y-95295256D02*
G01*
X138373000Y-95792400D01*
X138597570Y-95792400D01*
X138605628Y-95795617D01*
X138609255Y-95803500D01*
X138606455Y-95811712D01*
X137946799Y-96581696D01*
X137941521Y-96585214D01*
X137935184Y-96585461D01*
X137929648Y-96582364D01*
X137378435Y-96032125D01*
X137375227Y-96026135D01*
X137375889Y-96019373D01*
X137465186Y-95803500D01*
X137673363Y-95300236D01*
X137677803Y-95294897D01*
X137684490Y-95293015D01*
X137691064Y-95295256D01*
G37*
%TD.AperFunction*%
%TD*%
%TA.AperFunction,Conductor*%
%TO.N,Net-(Q8-D)*%
G36*
X153460251Y-83765935D02*
G01*
X154011464Y-84316174D01*
X154014672Y-84322164D01*
X154014010Y-84328926D01*
X153716539Y-85048058D01*
X153712097Y-85053400D01*
X153705409Y-85055282D01*
X153698834Y-85053040D01*
X153016900Y-84555800D01*
X152792333Y-84555800D01*
X152784275Y-84552583D01*
X152780648Y-84544700D01*
X152783448Y-84536487D01*
X152972216Y-84316174D01*
X153443101Y-83766600D01*
X153448378Y-83763085D01*
X153454716Y-83762838D01*
X153460251Y-83765935D01*
G37*
%TD.AperFunction*%
%TD*%
%TA.AperFunction,Conductor*%
%TO.N,+5V*%
G36*
X156547045Y-140229627D02*
G01*
X156552006Y-140235281D01*
X156745399Y-140701900D01*
X156745400Y-140701900D01*
X156977248Y-140701900D01*
X156984472Y-140704397D01*
X156988613Y-140710821D01*
X156987904Y-140718430D01*
X156768267Y-141202799D01*
X156551257Y-141681377D01*
X156546738Y-141686506D01*
X156540125Y-141688235D01*
X156533674Y-141685974D01*
X156103114Y-141369683D01*
X155706273Y-141078161D01*
X155702264Y-141072890D01*
X155701760Y-141066285D01*
X155704922Y-141060466D01*
X156532923Y-140231491D01*
X156539665Y-140228162D01*
X156547045Y-140229627D01*
G37*
%TD.AperFunction*%
%TD*%
%TA.AperFunction,Conductor*%
%TO.N,OUTPUTLED2*%
G36*
X143999566Y-108550264D02*
G01*
X144277501Y-108637429D01*
X144283430Y-108641667D01*
X144285700Y-108648593D01*
X144285700Y-108881407D01*
X144283430Y-108888333D01*
X144277501Y-108892571D01*
X143810687Y-109038970D01*
X143802250Y-109038414D01*
X143796391Y-109032318D01*
X143686583Y-108769508D01*
X143685680Y-108764999D01*
X143686582Y-108760493D01*
X143796392Y-108497679D01*
X143802250Y-108491585D01*
X143810686Y-108491029D01*
X143999566Y-108550264D01*
G37*
%TD.AperFunction*%
%TD*%
%TA.AperFunction,Conductor*%
%TO.N,+VDC*%
G36*
X138326528Y-90436879D02*
G01*
X139838712Y-91078275D01*
X139843899Y-91082587D01*
X139845843Y-91089046D01*
X139845843Y-91324512D01*
X139844263Y-91330383D01*
X139839950Y-91334669D01*
X138327197Y-92199536D01*
X138320850Y-92201067D01*
X138314672Y-92198958D01*
X138310585Y-92193867D01*
X137949164Y-91323688D01*
X137948269Y-91319200D01*
X137949164Y-91314712D01*
X138045575Y-91082587D01*
X138311155Y-90443160D01*
X138314869Y-90438343D01*
X138320501Y-90436041D01*
X138326528Y-90436879D01*
G37*
%TD.AperFunction*%
%TD*%
%TA.AperFunction,Conductor*%
%TO.N,Com2TX*%
G36*
X110344263Y-105340476D02*
G01*
X110510223Y-105506436D01*
X110513402Y-105512311D01*
X110512847Y-105518968D01*
X110147188Y-106454554D01*
X110143542Y-106459477D01*
X110137908Y-106461883D01*
X110131831Y-106461112D01*
X109610794Y-106246262D01*
X109606981Y-106243718D01*
X109604437Y-106239905D01*
X109389587Y-105718868D01*
X109388816Y-105712791D01*
X109391222Y-105707157D01*
X109396144Y-105703511D01*
X110331731Y-105337851D01*
X110338388Y-105337297D01*
X110344263Y-105340476D01*
G37*
%TD.AperFunction*%
%TD*%
%TA.AperFunction,Conductor*%
%TO.N,GPSRX*%
G36*
X81533637Y-105146968D02*
G01*
X81543453Y-105152630D01*
X82246900Y-105558400D01*
X82474022Y-105558400D01*
X82481842Y-105561397D01*
X82485655Y-105568854D01*
X82483508Y-105576949D01*
X81805877Y-106515510D01*
X81800609Y-106519574D01*
X81793976Y-106520109D01*
X81788125Y-106516941D01*
X81202334Y-105932125D01*
X81199126Y-105926135D01*
X81199788Y-105919375D01*
X81516982Y-105152627D01*
X81521076Y-105147522D01*
X81527276Y-105145414D01*
X81533637Y-105146968D01*
G37*
%TD.AperFunction*%
%TD*%
%TA.AperFunction,Conductor*%
%TO.N,Sense1-10*%
G36*
X178354354Y-58845203D02*
G01*
X178520696Y-59011545D01*
X178523834Y-59017233D01*
X178523454Y-59023718D01*
X178037108Y-60399197D01*
X178033525Y-60404320D01*
X178027817Y-60406867D01*
X178021612Y-60406111D01*
X177274586Y-60097662D01*
X177270778Y-60095121D01*
X177268237Y-60091313D01*
X176959788Y-59344287D01*
X176959032Y-59338082D01*
X176961579Y-59332374D01*
X176966699Y-59328792D01*
X178342182Y-58842444D01*
X178348666Y-58842065D01*
X178354354Y-58845203D01*
G37*
%TD.AperFunction*%
%TD*%
%TA.AperFunction,Conductor*%
%TO.N,RTDSCLK*%
G36*
X204619113Y-140181449D02*
G01*
X205976066Y-140833214D01*
X205980903Y-140837531D01*
X205982700Y-140843761D01*
X205982700Y-141079039D01*
X205980903Y-141085269D01*
X205976066Y-141089586D01*
X204619113Y-141741350D01*
X204612951Y-141742452D01*
X204607103Y-141740219D01*
X204603242Y-141735292D01*
X204283565Y-140965889D01*
X204282670Y-140961400D01*
X204283565Y-140956911D01*
X204333636Y-140836400D01*
X204603242Y-140187505D01*
X204607103Y-140182580D01*
X204612951Y-140180347D01*
X204619113Y-140181449D01*
G37*
%TD.AperFunction*%
%TD*%
%TA.AperFunction,Conductor*%
%TO.N,GND*%
G36*
X122194311Y-130633790D02*
G01*
X122509155Y-130947848D01*
X122748665Y-131186760D01*
X122751211Y-131190564D01*
X122752102Y-131195053D01*
X122751412Y-131977239D01*
X122749525Y-131983601D01*
X122744481Y-131987913D01*
X122737904Y-131988788D01*
X121454001Y-131787933D01*
X121447536Y-131784647D01*
X121281416Y-131618527D01*
X121277991Y-131610479D01*
X121281103Y-131602307D01*
X122177467Y-130634123D01*
X122182728Y-130630855D01*
X122188923Y-130630732D01*
X122194311Y-130633790D01*
G37*
%TD.AperFunction*%
%TD*%
%TA.AperFunction,Conductor*%
%TO.N,Net-(Q1-G)*%
G36*
X212550800Y-50779958D02*
G01*
X213095534Y-51355917D01*
X213098674Y-51362778D01*
X213096974Y-51370129D01*
X212738776Y-51946981D01*
X212733787Y-51951410D01*
X212727188Y-51952392D01*
X212721126Y-51949609D01*
X212252502Y-51538959D01*
X212248695Y-51532214D01*
X212249934Y-51524570D01*
X212530600Y-51008600D01*
X212530600Y-50787998D01*
X212532617Y-50781430D01*
X212537974Y-50777127D01*
X212544822Y-50776573D01*
X212550800Y-50779958D01*
G37*
%TD.AperFunction*%
%TD*%
%TA.AperFunction,Conductor*%
%TO.N,Sense1-12*%
G36*
X103816262Y-134962164D02*
G01*
X103821221Y-134965112D01*
X103986797Y-135130688D01*
X103989915Y-135136291D01*
X103989612Y-135142696D01*
X103985979Y-135147979D01*
X103020477Y-135946112D01*
X103012476Y-135948781D01*
X103004759Y-135945377D01*
X102736915Y-135678203D01*
X102451436Y-135393436D01*
X102448226Y-135387442D01*
X102448892Y-135380674D01*
X102748717Y-134657811D01*
X102754484Y-134651737D01*
X102762835Y-134651075D01*
X103816262Y-134962164D01*
G37*
%TD.AperFunction*%
%TD*%
%TA.AperFunction,Conductor*%
%TO.N,SCLK*%
G36*
X226587424Y-104073688D02*
G01*
X227260903Y-104352297D01*
X227354143Y-104390870D01*
X227359256Y-104394973D01*
X227361359Y-104401182D01*
X227359793Y-104407548D01*
X226946400Y-105120800D01*
X226946400Y-105347895D01*
X226943400Y-105355718D01*
X226935939Y-105359529D01*
X226927842Y-105357374D01*
X225991269Y-104679779D01*
X225987212Y-104674512D01*
X225986681Y-104667882D01*
X225989846Y-104662036D01*
X226574676Y-104076232D01*
X226580664Y-104073026D01*
X226587424Y-104073688D01*
G37*
%TD.AperFunction*%
%TD*%
%TA.AperFunction,Conductor*%
%TO.N,GND*%
G36*
X212381935Y-68448354D02*
G01*
X212888226Y-68848941D01*
X212891840Y-68853799D01*
X212892541Y-68859814D01*
X212890140Y-68865375D01*
X212384544Y-69504383D01*
X212377847Y-69508558D01*
X212370023Y-69507530D01*
X212364630Y-69501768D01*
X212172300Y-69057100D01*
X212172299Y-69057100D01*
X211945333Y-69057100D01*
X211937497Y-69054088D01*
X211933695Y-69046604D01*
X211935885Y-69038499D01*
X212074327Y-68848940D01*
X212365229Y-68450627D01*
X212370082Y-68446770D01*
X212376226Y-68445933D01*
X212381935Y-68448354D01*
G37*
%TD.AperFunction*%
%TD*%
%TA.AperFunction,Conductor*%
%TO.N,GND*%
G36*
X185475213Y-99009549D02*
G01*
X186832166Y-99661314D01*
X186837003Y-99665631D01*
X186838800Y-99671861D01*
X186838800Y-99907139D01*
X186837003Y-99913369D01*
X186832166Y-99917686D01*
X185475213Y-100569450D01*
X185469051Y-100570552D01*
X185463203Y-100568319D01*
X185459342Y-100563392D01*
X185139665Y-99793989D01*
X185138770Y-99789500D01*
X185139665Y-99785011D01*
X185189736Y-99664500D01*
X185459342Y-99015605D01*
X185463203Y-99010680D01*
X185469051Y-99008447D01*
X185475213Y-99009549D01*
G37*
%TD.AperFunction*%
%TD*%
%TA.AperFunction,Conductor*%
%TO.N,RTDSCLK*%
G36*
X184878589Y-140179692D02*
G01*
X184884320Y-140185751D01*
X185203306Y-140954873D01*
X185203973Y-140961642D01*
X185200762Y-140967638D01*
X184612210Y-141554807D01*
X184604396Y-141558215D01*
X184596343Y-141555416D01*
X183894016Y-140954873D01*
X183580564Y-140686847D01*
X183577040Y-140681567D01*
X183576793Y-140675223D01*
X183579894Y-140669685D01*
X183745593Y-140503986D01*
X183750628Y-140501017D01*
X184870280Y-140178989D01*
X184878589Y-140179692D01*
G37*
%TD.AperFunction*%
%TD*%
%TA.AperFunction,Conductor*%
%TO.N,Net-(Q21-CATHODE_3)*%
G36*
X219254022Y-70901666D02*
G01*
X219257785Y-70906518D01*
X219481930Y-71445306D01*
X219482828Y-71449800D01*
X219481930Y-71454294D01*
X219257785Y-71993081D01*
X219254022Y-71997933D01*
X219248320Y-72000210D01*
X219242249Y-71999287D01*
X218289766Y-71577882D01*
X218284695Y-71573566D01*
X218282800Y-71567182D01*
X218282800Y-71332418D01*
X218284695Y-71326034D01*
X218289766Y-71321718D01*
X219242251Y-70900311D01*
X219248320Y-70899389D01*
X219254022Y-70901666D01*
G37*
%TD.AperFunction*%
%TD*%
%TA.AperFunction,Conductor*%
%TO.N,+5V*%
G36*
X203440341Y-132499032D02*
G01*
X204275413Y-133333122D01*
X204278445Y-133338369D01*
X204278445Y-133344429D01*
X204275412Y-133349677D01*
X203440342Y-134183766D01*
X203432534Y-134187179D01*
X203424481Y-134184390D01*
X203423749Y-134183766D01*
X202586807Y-133469903D01*
X202583776Y-133465903D01*
X202582700Y-133461001D01*
X202582700Y-133221799D01*
X202583776Y-133216897D01*
X202586807Y-133212897D01*
X202605017Y-133197364D01*
X203424483Y-132498408D01*
X203432534Y-132495620D01*
X203440341Y-132499032D01*
G37*
%TD.AperFunction*%
%TD*%
%TA.AperFunction,Conductor*%
%TO.N,Net-(Q21-CATHODE_4)*%
G36*
X199704852Y-78649453D02*
G01*
X200541385Y-79319144D01*
X200545121Y-79324428D01*
X200545478Y-79330889D01*
X200542346Y-79336551D01*
X200376246Y-79502651D01*
X200372977Y-79504954D01*
X199448251Y-79942450D01*
X199442103Y-79943518D01*
X199436281Y-79941274D01*
X199432441Y-79936358D01*
X199133292Y-79215125D01*
X199132626Y-79208357D01*
X199135834Y-79202364D01*
X199689277Y-78650303D01*
X199696902Y-78646904D01*
X199704852Y-78649453D01*
G37*
%TD.AperFunction*%
%TD*%
%TA.AperFunction,Conductor*%
%TO.N,+5V*%
G36*
X109385870Y-120954011D02*
G01*
X109389622Y-120958853D01*
X109606129Y-121479205D01*
X109607027Y-121483700D01*
X109606129Y-121488195D01*
X109389622Y-122008546D01*
X109385870Y-122013388D01*
X109380185Y-122015671D01*
X109374126Y-122014768D01*
X109254397Y-121962328D01*
X108454004Y-121611768D01*
X108448907Y-121607454D01*
X108447000Y-121601052D01*
X108447000Y-121366348D01*
X108448907Y-121359946D01*
X108454004Y-121355631D01*
X109374129Y-120952630D01*
X109380185Y-120951728D01*
X109385870Y-120954011D01*
G37*
%TD.AperFunction*%
%TD*%
%TA.AperFunction,Conductor*%
%TO.N,Sense2-8*%
G36*
X155235117Y-70272444D02*
G01*
X156610598Y-70758791D01*
X156615720Y-70762374D01*
X156618267Y-70768082D01*
X156617511Y-70774287D01*
X156309062Y-71521313D01*
X156306521Y-71525121D01*
X156302713Y-71527662D01*
X155555687Y-71836111D01*
X155549482Y-71836867D01*
X155543774Y-71834320D01*
X155540191Y-71829197D01*
X155433573Y-71527662D01*
X155053844Y-70453717D01*
X155053465Y-70447233D01*
X155056601Y-70441547D01*
X155222947Y-70275201D01*
X155228633Y-70272065D01*
X155235117Y-70272444D01*
G37*
%TD.AperFunction*%
%TD*%
%TA.AperFunction,Conductor*%
%TO.N,FuelPressure3*%
G36*
X114845022Y-144789385D02*
G01*
X114850299Y-144792903D01*
X115509955Y-145562888D01*
X115512755Y-145571100D01*
X115509128Y-145578983D01*
X115501070Y-145582200D01*
X115276500Y-145582200D01*
X115276499Y-145582200D01*
X115276497Y-145582201D01*
X114594565Y-146079342D01*
X114587990Y-146081584D01*
X114581303Y-146079702D01*
X114576862Y-146074361D01*
X114279388Y-145355225D01*
X114278727Y-145348464D01*
X114281934Y-145342475D01*
X114833150Y-144792233D01*
X114838684Y-144789138D01*
X114845022Y-144789385D01*
G37*
%TD.AperFunction*%
%TD*%
%TA.AperFunction,Conductor*%
%TO.N,Sense1-9*%
G36*
X146709649Y-113434985D02*
G01*
X146715509Y-113441082D01*
X146825315Y-113703889D01*
X146826219Y-113708400D01*
X146825315Y-113712911D01*
X146715509Y-113975717D01*
X146709649Y-113981814D01*
X146701212Y-113982370D01*
X146234399Y-113835971D01*
X146228470Y-113831733D01*
X146226200Y-113824807D01*
X146226200Y-113591993D01*
X146228470Y-113585067D01*
X146234399Y-113580829D01*
X146410343Y-113525649D01*
X146701213Y-113434429D01*
X146709649Y-113434985D01*
G37*
%TD.AperFunction*%
%TD*%
%TA.AperFunction,Conductor*%
%TO.N,SpareADC2*%
G36*
X139120318Y-121676175D02*
G01*
X139839095Y-121973500D01*
X139845365Y-121979676D01*
X139845557Y-121988475D01*
X139585400Y-122671799D01*
X139585400Y-122900163D01*
X139582521Y-122907849D01*
X139575302Y-122911753D01*
X139567294Y-122909954D01*
X138812458Y-122416106D01*
X138807686Y-122409772D01*
X138808048Y-122401852D01*
X139105033Y-121682519D01*
X139108715Y-121677711D01*
X139114311Y-121675388D01*
X139120318Y-121676175D01*
G37*
%TD.AperFunction*%
%TD*%
%TA.AperFunction,Conductor*%
%TO.N,CAN_INT*%
G36*
X213520596Y-123893180D02*
G01*
X213524457Y-123898107D01*
X213844134Y-124667511D01*
X213845029Y-124672000D01*
X213844134Y-124676489D01*
X213524457Y-125445892D01*
X213520596Y-125450819D01*
X213514748Y-125453052D01*
X213508586Y-125451950D01*
X212151634Y-124800186D01*
X212146797Y-124795869D01*
X212145000Y-124789639D01*
X212145000Y-124554361D01*
X212146797Y-124548131D01*
X212151634Y-124543814D01*
X212887050Y-124190582D01*
X213508587Y-123892048D01*
X213514748Y-123890947D01*
X213520596Y-123893180D01*
G37*
%TD.AperFunction*%
%TD*%
%TA.AperFunction,Conductor*%
%TO.N,Sense1-7*%
G36*
X176444354Y-70275203D02*
G01*
X176610696Y-70441545D01*
X176613834Y-70447233D01*
X176613454Y-70453718D01*
X176127108Y-71829197D01*
X176123525Y-71834320D01*
X176117817Y-71836867D01*
X176111612Y-71836111D01*
X175364586Y-71527662D01*
X175360778Y-71525121D01*
X175358237Y-71521313D01*
X175049788Y-70774287D01*
X175049032Y-70768082D01*
X175051579Y-70762374D01*
X175056699Y-70758792D01*
X176432182Y-70272444D01*
X176438666Y-70272065D01*
X176444354Y-70275203D01*
G37*
%TD.AperFunction*%
%TD*%
%TA.AperFunction,Conductor*%
%TO.N,+VDC*%
G36*
X166708588Y-83468364D02*
G01*
X167261865Y-84020260D01*
X167264411Y-84024064D01*
X167265302Y-84028553D01*
X167264610Y-84812640D01*
X167263027Y-84818506D01*
X167258717Y-84822787D01*
X167252841Y-84824330D01*
X166019666Y-84817043D01*
X166011462Y-84813616D01*
X165845160Y-84647314D01*
X165841768Y-84639951D01*
X165843976Y-84632152D01*
X166690871Y-83469755D01*
X166696137Y-83465722D01*
X166702753Y-83465202D01*
X166708588Y-83468364D01*
G37*
%TD.AperFunction*%
%TD*%
%TA.AperFunction,Conductor*%
%TO.N,Net-(#FLG0105-pwr)*%
G36*
X116702167Y-108566286D02*
G01*
X116911367Y-108652550D01*
X117223205Y-108781137D01*
X117227018Y-108783681D01*
X117229562Y-108787494D01*
X117444412Y-109308531D01*
X117445183Y-109314608D01*
X117442777Y-109320242D01*
X117437854Y-109323888D01*
X116502268Y-109689547D01*
X116495611Y-109690102D01*
X116489736Y-109686923D01*
X116323776Y-109520963D01*
X116320597Y-109515088D01*
X116321152Y-109508431D01*
X116604678Y-108782993D01*
X116686811Y-108572844D01*
X116690457Y-108567922D01*
X116696091Y-108565516D01*
X116702167Y-108566286D01*
G37*
%TD.AperFunction*%
%TD*%
%TA.AperFunction,Conductor*%
%TO.N,SDCS*%
G36*
X197472066Y-104822864D02*
G01*
X197750001Y-104910029D01*
X197755930Y-104914267D01*
X197758200Y-104921193D01*
X197758200Y-105154007D01*
X197755930Y-105160933D01*
X197750001Y-105165171D01*
X197283187Y-105311570D01*
X197274750Y-105311014D01*
X197268891Y-105304918D01*
X197159083Y-105042107D01*
X197158180Y-105037600D01*
X197159083Y-105033092D01*
X197268892Y-104770279D01*
X197274750Y-104764185D01*
X197283186Y-104763629D01*
X197472066Y-104822864D01*
G37*
%TD.AperFunction*%
%TD*%
%TA.AperFunction,Conductor*%
%TO.N,SpareADC2*%
G36*
X152744973Y-147174093D02*
G01*
X152749290Y-147178922D01*
X153414350Y-148559443D01*
X153415026Y-148567848D01*
X153409876Y-148574525D01*
X152627166Y-149049220D01*
X152621099Y-149050916D01*
X152615032Y-149049220D01*
X151832323Y-148574525D01*
X151827173Y-148567848D01*
X151827849Y-148559443D01*
X152492910Y-147178922D01*
X152497227Y-147174093D01*
X152503451Y-147172300D01*
X152738749Y-147172300D01*
X152744973Y-147174093D01*
G37*
%TD.AperFunction*%
%TD*%
%TA.AperFunction,Conductor*%
%TO.N,Net-(Q7-D)*%
G36*
X129789140Y-63613122D02*
G01*
X130056135Y-63879450D01*
X130342462Y-64165062D01*
X130345673Y-64171057D01*
X130345006Y-64177827D01*
X130045183Y-64900686D01*
X130039415Y-64906762D01*
X130031062Y-64907424D01*
X128977637Y-64596335D01*
X128972678Y-64593387D01*
X128807102Y-64427811D01*
X128803984Y-64422208D01*
X128804287Y-64415803D01*
X128807917Y-64410523D01*
X129773423Y-63612386D01*
X129781423Y-63609718D01*
X129789140Y-63613122D01*
G37*
%TD.AperFunction*%
%TD*%
%TA.AperFunction,Conductor*%
%TO.N,RTDSCLK*%
G36*
X163652147Y-140290504D02*
G01*
X164365400Y-140703800D01*
X164592495Y-140703800D01*
X164600318Y-140706800D01*
X164604129Y-140714261D01*
X164601975Y-140722358D01*
X163924380Y-141659028D01*
X163919111Y-141663086D01*
X163912482Y-141663617D01*
X163906634Y-141660450D01*
X163320834Y-141075625D01*
X163317626Y-141069635D01*
X163318288Y-141062875D01*
X163635472Y-140296151D01*
X163639572Y-140291041D01*
X163645781Y-140288938D01*
X163652147Y-140290504D01*
G37*
%TD.AperFunction*%
%TD*%
%TA.AperFunction,Conductor*%
%TO.N,GND*%
G36*
X78993637Y-105146968D02*
G01*
X79003453Y-105152630D01*
X79706900Y-105558400D01*
X79934022Y-105558400D01*
X79941842Y-105561397D01*
X79945655Y-105568854D01*
X79943508Y-105576949D01*
X79265877Y-106515510D01*
X79260609Y-106519574D01*
X79253976Y-106520109D01*
X79248125Y-106516941D01*
X78662334Y-105932125D01*
X78659126Y-105926135D01*
X78659788Y-105919375D01*
X78976982Y-105152627D01*
X78981076Y-105147522D01*
X78987276Y-105145414D01*
X78993637Y-105146968D01*
G37*
%TD.AperFunction*%
%TD*%
%TA.AperFunction,Conductor*%
%TO.N,GND*%
G36*
X178362723Y-143179403D02*
G01*
X179163299Y-143565078D01*
X179741678Y-143843710D01*
X179746507Y-143848027D01*
X179748300Y-143854251D01*
X179748300Y-144089549D01*
X179746507Y-144095773D01*
X179741678Y-144100090D01*
X178362724Y-144764395D01*
X178356559Y-144765503D01*
X178350705Y-144763273D01*
X178346841Y-144758343D01*
X178021965Y-143976388D01*
X178021070Y-143971899D01*
X178021965Y-143967410D01*
X178073359Y-143843710D01*
X178346841Y-143185455D01*
X178350705Y-143180526D01*
X178356559Y-143178296D01*
X178362723Y-143179403D01*
G37*
%TD.AperFunction*%
%TD*%
%TA.AperFunction,Conductor*%
%TO.N,Net-(Q3-D)*%
G36*
X215257700Y-67678458D02*
G01*
X215802434Y-68254417D01*
X215805574Y-68261278D01*
X215803874Y-68268629D01*
X215445676Y-68845481D01*
X215440687Y-68849910D01*
X215434088Y-68850892D01*
X215428026Y-68848109D01*
X214959402Y-68437459D01*
X214955595Y-68430714D01*
X214956834Y-68423070D01*
X215237500Y-67907100D01*
X215237500Y-67686498D01*
X215239517Y-67679930D01*
X215244874Y-67675627D01*
X215251722Y-67675073D01*
X215257700Y-67678458D01*
G37*
%TD.AperFunction*%
%TD*%
%TA.AperFunction,Conductor*%
%TO.N,Net-(Q1-D)*%
G36*
X194119712Y-53225772D02*
G01*
X194286027Y-53392087D01*
X194289168Y-53397789D01*
X194288775Y-53404287D01*
X194159427Y-53767346D01*
X194156679Y-53771692D01*
X194121753Y-53806619D01*
X194121001Y-53807308D01*
X194088305Y-53834744D01*
X194066969Y-53871698D01*
X194066421Y-53872558D01*
X194041946Y-53907514D01*
X194038581Y-53920072D01*
X194037413Y-53922892D01*
X194030911Y-53934155D01*
X194023502Y-53976173D01*
X194023281Y-53977169D01*
X194012235Y-54018393D01*
X194015955Y-54060900D01*
X194016000Y-54061920D01*
X194016000Y-54167908D01*
X194015321Y-54171835D01*
X193814729Y-54734868D01*
X193811142Y-54739976D01*
X193805439Y-54742512D01*
X193799243Y-54741756D01*
X193075287Y-54442862D01*
X193071479Y-54440320D01*
X193068937Y-54436512D01*
X192878880Y-53976173D01*
X192770042Y-53712555D01*
X192769287Y-53706360D01*
X192771823Y-53700657D01*
X192776927Y-53697072D01*
X194107516Y-53223023D01*
X194114010Y-53222631D01*
X194119712Y-53225772D01*
G37*
%TD.AperFunction*%
%TD*%
%TA.AperFunction,Conductor*%
%TO.N,GND*%
G36*
X96854640Y-76662312D02*
G01*
X97364934Y-77391009D01*
X97367046Y-77398025D01*
X97364571Y-77404922D01*
X97075076Y-77775600D01*
X97074128Y-77776671D01*
X96906623Y-77944176D01*
X96901162Y-77947260D01*
X96894892Y-77947080D01*
X96889618Y-77943690D01*
X96408917Y-77404461D01*
X96406008Y-77397826D01*
X96407562Y-77390751D01*
X96834969Y-76663095D01*
X96840790Y-76658128D01*
X96848439Y-76657823D01*
X96854640Y-76662312D01*
G37*
%TD.AperFunction*%
%TD*%
%TA.AperFunction,Conductor*%
%TO.N,Net-(Q21-CATHODE_1)*%
G36*
X218729764Y-60355629D02*
G01*
X219181188Y-60530128D01*
X219701250Y-60731158D01*
X219706196Y-60734797D01*
X219708618Y-60740440D01*
X219707848Y-60746532D01*
X219485362Y-61286007D01*
X219482819Y-61289819D01*
X219479007Y-61292362D01*
X218939532Y-61514848D01*
X218933440Y-61515618D01*
X218927797Y-61513196D01*
X218924158Y-61508250D01*
X218548630Y-60536765D01*
X218548096Y-60530128D01*
X218551268Y-60524276D01*
X218717276Y-60358268D01*
X218723128Y-60355096D01*
X218729764Y-60355629D01*
G37*
%TD.AperFunction*%
%TD*%
%TA.AperFunction,Conductor*%
%TO.N,GND*%
G36*
X193155088Y-85781265D02*
G01*
X193924492Y-86100942D01*
X193929419Y-86104803D01*
X193931652Y-86110651D01*
X193930550Y-86116813D01*
X193278786Y-87473766D01*
X193274469Y-87478603D01*
X193268239Y-87480400D01*
X193032961Y-87480400D01*
X193026731Y-87478603D01*
X193022414Y-87473766D01*
X192370649Y-86116813D01*
X192369547Y-86110651D01*
X192371780Y-86104803D01*
X192376705Y-86100942D01*
X193146112Y-85781264D01*
X193150599Y-85780370D01*
X193155088Y-85781265D01*
G37*
%TD.AperFunction*%
%TD*%
%TA.AperFunction,Conductor*%
%TO.N,SWSCLK*%
G36*
X233681194Y-120884457D02*
G01*
X234512554Y-121538943D01*
X234516344Y-121544226D01*
X234516729Y-121550716D01*
X234513590Y-121556409D01*
X233678865Y-122391134D01*
X233671844Y-122394494D01*
X233664269Y-122392705D01*
X233065387Y-122008028D01*
X233063437Y-122006457D01*
X232895061Y-121838081D01*
X232891648Y-121830373D01*
X232894300Y-121822374D01*
X233664925Y-120886213D01*
X233672701Y-120882018D01*
X233681194Y-120884457D01*
G37*
%TD.AperFunction*%
%TD*%
%TA.AperFunction,Conductor*%
%TO.N,RTDSCLK*%
G36*
X203958296Y-140182580D02*
G01*
X203962157Y-140187507D01*
X204281834Y-140956911D01*
X204282729Y-140961400D01*
X204281834Y-140965889D01*
X203962157Y-141735292D01*
X203958296Y-141740219D01*
X203952448Y-141742452D01*
X203946286Y-141741350D01*
X202589334Y-141089586D01*
X202584497Y-141085269D01*
X202582700Y-141079039D01*
X202582700Y-140843761D01*
X202584497Y-140837531D01*
X202589334Y-140833214D01*
X203324749Y-140479982D01*
X203946287Y-140181448D01*
X203952448Y-140180347D01*
X203958296Y-140182580D01*
G37*
%TD.AperFunction*%
%TD*%
%TA.AperFunction,Conductor*%
%TO.N,SDCS*%
G36*
X225987810Y-95857292D02*
G01*
X226576362Y-96444461D01*
X226579573Y-96450457D01*
X226578906Y-96457226D01*
X226259920Y-97226348D01*
X226254189Y-97232407D01*
X226245879Y-97233110D01*
X225126230Y-96911082D01*
X225121191Y-96908111D01*
X224955496Y-96742416D01*
X224952393Y-96736876D01*
X224952640Y-96730532D01*
X224956163Y-96725253D01*
X225971945Y-95856682D01*
X225979996Y-95853884D01*
X225987810Y-95857292D01*
G37*
%TD.AperFunction*%
%TD*%
%TA.AperFunction,Conductor*%
%TO.N,Sense1-12*%
G36*
X146290249Y-112383085D02*
G01*
X146296108Y-112389181D01*
X146355572Y-112531500D01*
X146405915Y-112651988D01*
X146406819Y-112656499D01*
X146405915Y-112661010D01*
X146296109Y-112923817D01*
X146290249Y-112929914D01*
X146281812Y-112930470D01*
X145814999Y-112784071D01*
X145809070Y-112779833D01*
X145806800Y-112772907D01*
X145806800Y-112540093D01*
X145809070Y-112533167D01*
X145814999Y-112528929D01*
X145990943Y-112473749D01*
X146281813Y-112382529D01*
X146290249Y-112383085D01*
G37*
%TD.AperFunction*%
%TD*%
%TA.AperFunction,Conductor*%
%TO.N,Sense2-10*%
G36*
X163191102Y-58813431D02*
G01*
X163193403Y-58820398D01*
X163193403Y-59052092D01*
X163192915Y-59055436D01*
X162792405Y-60398391D01*
X162788936Y-60403818D01*
X162783120Y-60406587D01*
X162776721Y-60405858D01*
X162029988Y-60096956D01*
X162026184Y-60094415D01*
X162023646Y-60090610D01*
X161715474Y-59344253D01*
X161714716Y-59338059D01*
X161717251Y-59332357D01*
X161722353Y-59328771D01*
X162746868Y-58963153D01*
X163177771Y-58809379D01*
X163185106Y-58809204D01*
X163191102Y-58813431D01*
G37*
%TD.AperFunction*%
%TD*%
%TA.AperFunction,Conductor*%
%TO.N,Net-(Q2-D)*%
G36*
X198110712Y-59940972D02*
G01*
X198277027Y-60107287D01*
X198280168Y-60112989D01*
X198279775Y-60119487D01*
X197805729Y-61450068D01*
X197802142Y-61455176D01*
X197796439Y-61457712D01*
X197790243Y-61456956D01*
X197066287Y-61158062D01*
X197062479Y-61155520D01*
X197059937Y-61151712D01*
X196761043Y-60427756D01*
X196760287Y-60421560D01*
X196762823Y-60415857D01*
X196767927Y-60412272D01*
X198098516Y-59938223D01*
X198105010Y-59937831D01*
X198110712Y-59940972D01*
G37*
%TD.AperFunction*%
%TD*%
%TA.AperFunction,Conductor*%
%TO.N,RTDMISO*%
G36*
X226615726Y-85065443D02*
G01*
X226619829Y-85070556D01*
X226937010Y-85837272D01*
X226937673Y-85844035D01*
X226934465Y-85850025D01*
X226348664Y-86434851D01*
X226342817Y-86438018D01*
X226336187Y-86437487D01*
X226330920Y-86433430D01*
X225653325Y-85496857D01*
X225651171Y-85488761D01*
X225654982Y-85481300D01*
X225662805Y-85478300D01*
X225889900Y-85478300D01*
X226603153Y-85064905D01*
X226609517Y-85063340D01*
X226615726Y-85065443D01*
G37*
%TD.AperFunction*%
%TD*%
%TA.AperFunction,Conductor*%
%TO.N,OUTPUTSiren*%
G36*
X126039054Y-99846433D02*
G01*
X127176059Y-100321845D01*
X127179818Y-100324365D01*
X127346689Y-100491236D01*
X127349718Y-100496482D01*
X127349717Y-100502539D01*
X127346687Y-100507784D01*
X126334380Y-101519559D01*
X126328840Y-101522661D01*
X126322496Y-101522412D01*
X126317215Y-101518886D01*
X125700757Y-100797712D01*
X125698153Y-100792274D01*
X125698601Y-100786264D01*
X126023496Y-99853378D01*
X126027081Y-99848218D01*
X126032820Y-99845656D01*
X126039054Y-99846433D01*
G37*
%TD.AperFunction*%
%TD*%
%TA.AperFunction,Conductor*%
%TO.N,SpareADC3*%
G36*
X139120318Y-117155575D02*
G01*
X139839095Y-117452900D01*
X139845365Y-117459076D01*
X139845557Y-117467875D01*
X139585400Y-118151199D01*
X139585400Y-118379563D01*
X139582521Y-118387249D01*
X139575302Y-118391153D01*
X139567294Y-118389354D01*
X138812458Y-117895506D01*
X138807686Y-117889172D01*
X138808048Y-117881252D01*
X139105033Y-117161919D01*
X139108715Y-117157111D01*
X139114311Y-117154788D01*
X139120318Y-117155575D01*
G37*
%TD.AperFunction*%
%TD*%
%TA.AperFunction,Conductor*%
%TO.N,RTDMISO*%
G36*
X201374409Y-85186425D02*
G01*
X201379677Y-85190489D01*
X202057308Y-86129051D01*
X202059455Y-86137146D01*
X202055642Y-86144603D01*
X202047822Y-86147600D01*
X201820700Y-86147600D01*
X201107437Y-86559031D01*
X201101076Y-86560585D01*
X201094876Y-86558477D01*
X201090781Y-86553370D01*
X200773588Y-85786624D01*
X200772926Y-85779864D01*
X200776132Y-85773876D01*
X201361926Y-85189057D01*
X201367776Y-85185890D01*
X201374409Y-85186425D01*
G37*
%TD.AperFunction*%
%TD*%
%TA.AperFunction,Conductor*%
%TO.N,+5V*%
G36*
X164298912Y-108079172D02*
G01*
X164465227Y-108245487D01*
X164468368Y-108251189D01*
X164467975Y-108257687D01*
X163993929Y-109588268D01*
X163990342Y-109593376D01*
X163984639Y-109595912D01*
X163978443Y-109595156D01*
X163254487Y-109296262D01*
X163250679Y-109293720D01*
X163248137Y-109289912D01*
X162949243Y-108565956D01*
X162948487Y-108559760D01*
X162951023Y-108554057D01*
X162956127Y-108550472D01*
X164286716Y-108076423D01*
X164293210Y-108076031D01*
X164298912Y-108079172D01*
G37*
%TD.AperFunction*%
%TD*%
%TA.AperFunction,Conductor*%
%TO.N,Sense1-10*%
G36*
X200795200Y-52690058D02*
G01*
X201339934Y-53266017D01*
X201343074Y-53272878D01*
X201341374Y-53280229D01*
X200983176Y-53857081D01*
X200978187Y-53861510D01*
X200971588Y-53862492D01*
X200965526Y-53859709D01*
X200496902Y-53449059D01*
X200493095Y-53442314D01*
X200494334Y-53434670D01*
X200775000Y-52918700D01*
X200775000Y-52698098D01*
X200777017Y-52691530D01*
X200782374Y-52687227D01*
X200789222Y-52686673D01*
X200795200Y-52690058D01*
G37*
%TD.AperFunction*%
%TD*%
%TA.AperFunction,Conductor*%
%TO.N,Sense2-1*%
G36*
X189923323Y-79808430D02*
G01*
X189927169Y-79813346D01*
X190227734Y-80536609D01*
X190228630Y-80541099D01*
X190227734Y-80545589D01*
X189927169Y-81268853D01*
X189923323Y-81273769D01*
X189917497Y-81276008D01*
X189911348Y-81274933D01*
X188635283Y-80669272D01*
X188630411Y-80664955D01*
X188628600Y-80658702D01*
X188628600Y-80423498D01*
X188630411Y-80417245D01*
X188635283Y-80412928D01*
X189911350Y-79807265D01*
X189917497Y-79806191D01*
X189923323Y-79808430D01*
G37*
%TD.AperFunction*%
%TD*%
%TA.AperFunction,Conductor*%
%TO.N,Sense2-11*%
G36*
X148675890Y-53770623D02*
G01*
X148679450Y-53775811D01*
X149232176Y-55393757D01*
X149232501Y-55400185D01*
X149229377Y-55405812D01*
X149062912Y-55572277D01*
X149057285Y-55575401D01*
X149050857Y-55575076D01*
X148555385Y-55405812D01*
X147432911Y-55022350D01*
X147427723Y-55018790D01*
X147425129Y-55013058D01*
X147425878Y-55006813D01*
X147785939Y-54135180D01*
X147788478Y-54131378D01*
X147792280Y-54128839D01*
X148663913Y-53768778D01*
X148670158Y-53768029D01*
X148675890Y-53770623D01*
G37*
%TD.AperFunction*%
%TD*%
%TA.AperFunction,Conductor*%
%TO.N,Net-(Q3-D)*%
G36*
X197842112Y-68948872D02*
G01*
X198008427Y-69115187D01*
X198011568Y-69120889D01*
X198011175Y-69127387D01*
X197537129Y-70457968D01*
X197533542Y-70463076D01*
X197527839Y-70465612D01*
X197521643Y-70464856D01*
X196797687Y-70165962D01*
X196793879Y-70163420D01*
X196791337Y-70159612D01*
X196492443Y-69435656D01*
X196491687Y-69429460D01*
X196494223Y-69423757D01*
X196499327Y-69420172D01*
X197829916Y-68946123D01*
X197836410Y-68945731D01*
X197842112Y-68948872D01*
G37*
%TD.AperFunction*%
%TD*%
%TA.AperFunction,Conductor*%
%TO.N,Com1RX*%
G36*
X110143542Y-111107922D02*
G01*
X110147188Y-111112845D01*
X110512847Y-112048431D01*
X110513402Y-112055088D01*
X110510223Y-112060963D01*
X110344263Y-112226923D01*
X110338388Y-112230102D01*
X110331731Y-112229547D01*
X109396145Y-111863888D01*
X109391222Y-111860242D01*
X109388816Y-111854608D01*
X109389586Y-111848533D01*
X109604437Y-111327493D01*
X109606981Y-111323681D01*
X109610794Y-111321137D01*
X110131833Y-111106286D01*
X110137908Y-111105516D01*
X110143542Y-111107922D01*
G37*
%TD.AperFunction*%
%TD*%
%TA.AperFunction,Conductor*%
%TO.N,Sense1-11*%
G36*
X147075849Y-110106185D02*
G01*
X147081709Y-110112282D01*
X147191515Y-110375089D01*
X147192419Y-110379600D01*
X147191515Y-110384111D01*
X147081709Y-110646917D01*
X147075849Y-110653014D01*
X147067412Y-110653570D01*
X146600599Y-110507171D01*
X146594670Y-110502933D01*
X146592400Y-110496007D01*
X146592400Y-110263193D01*
X146594670Y-110256267D01*
X146600599Y-110252029D01*
X146776543Y-110196849D01*
X147067413Y-110105629D01*
X147075849Y-110106185D01*
G37*
%TD.AperFunction*%
%TD*%
%TA.AperFunction,Conductor*%
%TO.N,SWMISO*%
G36*
X224378865Y-120704465D02*
G01*
X225213590Y-121539190D01*
X225216729Y-121544883D01*
X225216344Y-121551373D01*
X225212554Y-121556656D01*
X224381194Y-122211142D01*
X224372701Y-122213581D01*
X224364924Y-122209385D01*
X223817922Y-121544883D01*
X223594300Y-121273226D01*
X223591648Y-121265226D01*
X223595060Y-121257519D01*
X223763442Y-121089137D01*
X223765382Y-121087574D01*
X224364269Y-120702893D01*
X224371844Y-120701105D01*
X224378865Y-120704465D01*
G37*
%TD.AperFunction*%
%TD*%
%TA.AperFunction,Conductor*%
%TO.N,Net-(#FLG0106-pwr)*%
G36*
X116702167Y-118726286D02*
G01*
X116911367Y-118812550D01*
X117223205Y-118941137D01*
X117227018Y-118943681D01*
X117229562Y-118947494D01*
X117444412Y-119468531D01*
X117445183Y-119474608D01*
X117442777Y-119480242D01*
X117437854Y-119483888D01*
X116502268Y-119849547D01*
X116495611Y-119850102D01*
X116489736Y-119846923D01*
X116323776Y-119680963D01*
X116320597Y-119675088D01*
X116321152Y-119668431D01*
X116604678Y-118942993D01*
X116686811Y-118732844D01*
X116690457Y-118727922D01*
X116696091Y-118725516D01*
X116702167Y-118726286D01*
G37*
%TD.AperFunction*%
%TD*%
%TA.AperFunction,Conductor*%
%TO.N,Sense1-4*%
G36*
X170734354Y-77895203D02*
G01*
X170900696Y-78061545D01*
X170903834Y-78067233D01*
X170903454Y-78073718D01*
X170417108Y-79449197D01*
X170413525Y-79454320D01*
X170407817Y-79456867D01*
X170401612Y-79456111D01*
X169654586Y-79147662D01*
X169650778Y-79145121D01*
X169648237Y-79141313D01*
X169339788Y-78394287D01*
X169339032Y-78388082D01*
X169341579Y-78382374D01*
X169346699Y-78378792D01*
X170722182Y-77892444D01*
X170728666Y-77892065D01*
X170734354Y-77895203D01*
G37*
%TD.AperFunction*%
%TD*%
%TA.AperFunction,Conductor*%
%TO.N,GND*%
G36*
X117911912Y-134982572D02*
G01*
X118078227Y-135148887D01*
X118081368Y-135154589D01*
X118080975Y-135161087D01*
X117606929Y-136491668D01*
X117603342Y-136496776D01*
X117597639Y-136499312D01*
X117591443Y-136498556D01*
X116867487Y-136199662D01*
X116863679Y-136197120D01*
X116861137Y-136193312D01*
X116562243Y-135469356D01*
X116561487Y-135463160D01*
X116564023Y-135457457D01*
X116569127Y-135453872D01*
X117899716Y-134979823D01*
X117906210Y-134979431D01*
X117911912Y-134982572D01*
G37*
%TD.AperFunction*%
%TD*%
%TA.AperFunction,Conductor*%
%TO.N,Sense1-10*%
G36*
X190148271Y-54275191D02*
G01*
X190151910Y-54280149D01*
X190597483Y-55438472D01*
X190598263Y-55442673D01*
X190598263Y-55675492D01*
X190596181Y-55682154D01*
X190590677Y-55686445D01*
X190583709Y-55686839D01*
X190565084Y-55682154D01*
X190454540Y-55654346D01*
X189115478Y-55317505D01*
X189109790Y-55314154D01*
X189106822Y-55308258D01*
X189107516Y-55301697D01*
X189405646Y-54579588D01*
X189408185Y-54575785D01*
X189411989Y-54573243D01*
X190136520Y-54273537D01*
X190142619Y-54272764D01*
X190148271Y-54275191D01*
G37*
%TD.AperFunction*%
%TD*%
%TA.AperFunction,Conductor*%
%TO.N,Net-(IC17-C2-)*%
G36*
X116502268Y-110417852D02*
G01*
X117437854Y-110783511D01*
X117442777Y-110787157D01*
X117445183Y-110792791D01*
X117444412Y-110798868D01*
X117229562Y-111319905D01*
X117227018Y-111323718D01*
X117223205Y-111326262D01*
X116702168Y-111541112D01*
X116696091Y-111541883D01*
X116690457Y-111539477D01*
X116686811Y-111534554D01*
X116321152Y-110598968D01*
X116320597Y-110592311D01*
X116323774Y-110586438D01*
X116489738Y-110420474D01*
X116495611Y-110417297D01*
X116502268Y-110417852D01*
G37*
%TD.AperFunction*%
%TD*%
%TA.AperFunction,Conductor*%
%TO.N,+5V*%
G36*
X132477847Y-105746004D02*
G01*
X133191100Y-106159300D01*
X133418195Y-106159300D01*
X133426018Y-106162300D01*
X133429829Y-106169761D01*
X133427675Y-106177858D01*
X132750080Y-107114528D01*
X132744811Y-107118586D01*
X132738182Y-107119117D01*
X132732334Y-107115950D01*
X132146534Y-106531125D01*
X132143326Y-106525135D01*
X132143988Y-106518375D01*
X132461172Y-105751651D01*
X132465272Y-105746541D01*
X132471481Y-105744438D01*
X132477847Y-105746004D01*
G37*
%TD.AperFunction*%
%TD*%
%TA.AperFunction,Conductor*%
%TO.N,Net-(IC3-OSC1)*%
G36*
X189876742Y-125000023D02*
G01*
X189880328Y-125005130D01*
X190248595Y-126038804D01*
X190354375Y-126335712D01*
X190354768Y-126342210D01*
X190351627Y-126347912D01*
X190185312Y-126514227D01*
X190179610Y-126517368D01*
X190173112Y-126516975D01*
X188842530Y-126042928D01*
X188837423Y-126039342D01*
X188834887Y-126033639D01*
X188835642Y-126027444D01*
X189134538Y-125303484D01*
X189137079Y-125299679D01*
X189140884Y-125297138D01*
X189864844Y-124998242D01*
X189871039Y-124997487D01*
X189876742Y-125000023D01*
G37*
%TD.AperFunction*%
%TD*%
%TA.AperFunction,Conductor*%
%TO.N,Sense1-3*%
G36*
X126661062Y-121255164D02*
G01*
X126666021Y-121258112D01*
X126831597Y-121423688D01*
X126834715Y-121429291D01*
X126834412Y-121435696D01*
X126830779Y-121440979D01*
X125865277Y-122239112D01*
X125857276Y-122241781D01*
X125849559Y-122238377D01*
X125581715Y-121971203D01*
X125296236Y-121686436D01*
X125293026Y-121680442D01*
X125293692Y-121673674D01*
X125593517Y-120950811D01*
X125599284Y-120944737D01*
X125607635Y-120944075D01*
X126661062Y-121255164D01*
G37*
%TD.AperFunction*%
%TD*%
%TA.AperFunction,Conductor*%
%TO.N,Net-(Q12-D)*%
G36*
X146184779Y-93071410D02*
G01*
X146801663Y-93462354D01*
X146805651Y-93466597D01*
X146807100Y-93472237D01*
X146807100Y-93709363D01*
X146805651Y-93715003D01*
X146801663Y-93719245D01*
X146621876Y-93833183D01*
X146184780Y-94110188D01*
X146176587Y-94111845D01*
X146169379Y-94107612D01*
X145761943Y-93598107D01*
X145759381Y-93590800D01*
X145761943Y-93583493D01*
X145856059Y-93465800D01*
X146169379Y-93073986D01*
X146176587Y-93069754D01*
X146184779Y-93071410D01*
G37*
%TD.AperFunction*%
%TD*%
%TA.AperFunction,Conductor*%
%TO.N,Sense1-7*%
G36*
X190466223Y-61422830D02*
G01*
X190470069Y-61427746D01*
X190770634Y-62151009D01*
X190771530Y-62155499D01*
X190770634Y-62159989D01*
X190470069Y-62883253D01*
X190466223Y-62888169D01*
X190460397Y-62890408D01*
X190454248Y-62889333D01*
X189178183Y-62283672D01*
X189173311Y-62279355D01*
X189171500Y-62273102D01*
X189171500Y-62037898D01*
X189173311Y-62031645D01*
X189178183Y-62027328D01*
X190454250Y-61421665D01*
X190460397Y-61420591D01*
X190466223Y-61422830D01*
G37*
%TD.AperFunction*%
%TD*%
%TA.AperFunction,Conductor*%
%TO.N,MISO*%
G36*
X224628810Y-126034392D02*
G01*
X225217362Y-126621561D01*
X225220573Y-126627557D01*
X225219906Y-126634326D01*
X224900920Y-127403448D01*
X224895189Y-127409507D01*
X224886879Y-127410210D01*
X223767230Y-127088182D01*
X223762191Y-127085211D01*
X223596496Y-126919516D01*
X223593393Y-126913976D01*
X223593640Y-126907632D01*
X223597163Y-126902353D01*
X224612945Y-126033782D01*
X224620996Y-126030984D01*
X224628810Y-126034392D01*
G37*
%TD.AperFunction*%
%TD*%
%TA.AperFunction,Conductor*%
%TO.N,GND*%
G36*
X123491042Y-125960923D02*
G01*
X123494628Y-125966030D01*
X123862895Y-126999704D01*
X123968675Y-127296612D01*
X123969068Y-127303110D01*
X123965927Y-127308812D01*
X123799612Y-127475127D01*
X123793910Y-127478268D01*
X123787412Y-127477875D01*
X122456830Y-127003828D01*
X122451723Y-127000242D01*
X122449187Y-126994539D01*
X122449942Y-126988344D01*
X122748838Y-126264384D01*
X122751379Y-126260579D01*
X122755184Y-126258038D01*
X123479144Y-125959142D01*
X123485339Y-125958387D01*
X123491042Y-125960923D01*
G37*
%TD.AperFunction*%
%TD*%
%TA.AperFunction,Conductor*%
%TO.N,CANCS*%
G36*
X178634514Y-115428361D02*
G01*
X178639781Y-115432453D01*
X179068446Y-116031364D01*
X179321552Y-116384990D01*
X179323668Y-116393078D01*
X179319846Y-116400513D01*
X179312038Y-116403500D01*
X179084799Y-116403500D01*
X178363158Y-116823033D01*
X178356789Y-116824608D01*
X178350574Y-116822507D01*
X178346467Y-116817391D01*
X178024088Y-116038124D01*
X178023426Y-116031364D01*
X178026632Y-116025376D01*
X178622002Y-115430981D01*
X178627867Y-115427812D01*
X178634514Y-115428361D01*
G37*
%TD.AperFunction*%
%TD*%
%TA.AperFunction,Conductor*%
%TO.N,Net-(Q21-CATHODE_1)*%
G36*
X196185377Y-53881387D02*
G01*
X197150879Y-54679521D01*
X197154512Y-54684803D01*
X197154815Y-54691208D01*
X197151697Y-54696811D01*
X196986121Y-54862387D01*
X196981162Y-54865335D01*
X195927737Y-55176424D01*
X195919384Y-55175762D01*
X195913616Y-55169686D01*
X195613792Y-54446825D01*
X195613126Y-54440057D01*
X195616334Y-54434064D01*
X196169659Y-53882121D01*
X196177376Y-53878718D01*
X196185377Y-53881387D01*
G37*
%TD.AperFunction*%
%TD*%
%TA.AperFunction,Conductor*%
%TO.N,GND*%
G36*
X123799612Y-129976372D02*
G01*
X123965927Y-130142687D01*
X123969068Y-130148389D01*
X123968675Y-130154887D01*
X123494629Y-131485468D01*
X123491042Y-131490576D01*
X123485339Y-131493112D01*
X123479143Y-131492356D01*
X122755187Y-131193462D01*
X122751379Y-131190920D01*
X122748837Y-131187112D01*
X122449943Y-130463156D01*
X122449187Y-130456960D01*
X122451723Y-130451257D01*
X122456827Y-130447672D01*
X123787416Y-129973623D01*
X123793910Y-129973231D01*
X123799612Y-129976372D01*
G37*
%TD.AperFunction*%
%TD*%
%TA.AperFunction,Conductor*%
%TO.N,MOSI*%
G36*
X229278810Y-126034392D02*
G01*
X229867362Y-126621561D01*
X229870573Y-126627557D01*
X229869906Y-126634326D01*
X229550920Y-127403448D01*
X229545189Y-127409507D01*
X229536879Y-127410210D01*
X228417230Y-127088182D01*
X228412191Y-127085211D01*
X228246496Y-126919516D01*
X228243393Y-126913976D01*
X228243640Y-126907632D01*
X228247163Y-126902353D01*
X229262945Y-126033782D01*
X229270996Y-126030984D01*
X229278810Y-126034392D01*
G37*
%TD.AperFunction*%
%TD*%
%TA.AperFunction,Conductor*%
%TO.N,/BufferedADC1/ADCIN4*%
G36*
X116720350Y-132506035D02*
G01*
X117147239Y-132932169D01*
X117271864Y-133056574D01*
X117275072Y-133062564D01*
X117274410Y-133069326D01*
X116977228Y-133787759D01*
X116972628Y-133793202D01*
X116965725Y-133794967D01*
X116959078Y-133792400D01*
X116277301Y-133243400D01*
X116277300Y-133243400D01*
X116053912Y-133243400D01*
X116045758Y-133240091D01*
X116042217Y-133232035D01*
X116045291Y-133223790D01*
X116703467Y-132506404D01*
X116708732Y-132503107D01*
X116714945Y-132502971D01*
X116720350Y-132506035D01*
G37*
%TD.AperFunction*%
%TD*%
%TA.AperFunction,Conductor*%
%TO.N,GND*%
G36*
X142699330Y-93073016D02*
G01*
X143209803Y-93582519D01*
X143212838Y-93587768D01*
X143212838Y-93593832D01*
X143209803Y-93599081D01*
X142699330Y-94108583D01*
X142691845Y-94111976D01*
X142683974Y-94109609D01*
X142171708Y-93719310D01*
X142168315Y-93715198D01*
X142167100Y-93710005D01*
X142167100Y-93471595D01*
X142168315Y-93466402D01*
X142171708Y-93462289D01*
X142683976Y-93071989D01*
X142691845Y-93069623D01*
X142699330Y-93073016D01*
G37*
%TD.AperFunction*%
%TD*%
%TA.AperFunction,Conductor*%
%TO.N,Com2TX*%
G36*
X162451361Y-99850032D02*
G01*
X162455468Y-99855608D01*
X162777989Y-100783945D01*
X162777941Y-100791759D01*
X162772986Y-100797800D01*
X161993799Y-101268405D01*
X161987774Y-101270090D01*
X161981742Y-101268430D01*
X161977428Y-101263899D01*
X161476584Y-100325409D01*
X161475432Y-100317612D01*
X161479486Y-100310854D01*
X161486906Y-100308200D01*
X161717400Y-100308200D01*
X162438137Y-99849577D01*
X162444819Y-99847756D01*
X162451361Y-99850032D01*
G37*
%TD.AperFunction*%
%TD*%
%TA.AperFunction,Conductor*%
%TO.N,RTDSCLK*%
G36*
X185542013Y-140181449D02*
G01*
X186898966Y-140833214D01*
X186903803Y-140837531D01*
X186905600Y-140843761D01*
X186905600Y-141079039D01*
X186903803Y-141085269D01*
X186898966Y-141089586D01*
X185542013Y-141741350D01*
X185535851Y-141742452D01*
X185530003Y-141740219D01*
X185526142Y-141735292D01*
X185206465Y-140965889D01*
X185205570Y-140961400D01*
X185206465Y-140956911D01*
X185256536Y-140836400D01*
X185526142Y-140187505D01*
X185530003Y-140182580D01*
X185535851Y-140180347D01*
X185542013Y-140181449D01*
G37*
%TD.AperFunction*%
%TD*%
%TA.AperFunction,Conductor*%
%TO.N,/CAN Bus/CAN_INT*%
G36*
X213002642Y-121289633D02*
G01*
X213837712Y-122123722D01*
X213840745Y-122128970D01*
X213840745Y-122135030D01*
X213837712Y-122140278D01*
X213002642Y-122974366D01*
X212994834Y-122977779D01*
X212986781Y-122974990D01*
X212986049Y-122974366D01*
X212149107Y-122260503D01*
X212146076Y-122256503D01*
X212145000Y-122251601D01*
X212145000Y-122012399D01*
X212146076Y-122007497D01*
X212149107Y-122003497D01*
X212167317Y-121987964D01*
X212986783Y-121289008D01*
X212994834Y-121286220D01*
X213002642Y-121289633D01*
G37*
%TD.AperFunction*%
%TD*%
%TA.AperFunction,Conductor*%
%TO.N,GND*%
G36*
X189801279Y-117387594D02*
G01*
X189806541Y-117390825D01*
X190654714Y-118295825D01*
X190657877Y-118303826D01*
X190657877Y-118539017D01*
X190655002Y-118546698D01*
X190647791Y-118550604D01*
X189615200Y-118694414D01*
X189245897Y-118745848D01*
X189239396Y-118744890D01*
X189234436Y-118740579D01*
X189232583Y-118734275D01*
X189232353Y-118550605D01*
X189231606Y-117952559D01*
X189232496Y-117948070D01*
X189235037Y-117944268D01*
X189789740Y-117390544D01*
X189795105Y-117387491D01*
X189801279Y-117387594D01*
G37*
%TD.AperFunction*%
%TD*%
%TA.AperFunction,Conductor*%
%TO.N,Com2RX*%
G36*
X164991297Y-99849609D02*
G01*
X164995292Y-99855101D01*
X165317989Y-100783945D01*
X165317941Y-100791759D01*
X165312986Y-100797800D01*
X164533962Y-101268307D01*
X164527877Y-101269992D01*
X164521804Y-101268270D01*
X164517508Y-101263643D01*
X164016169Y-100288851D01*
X164015124Y-100281096D01*
X164019199Y-100274417D01*
X164026574Y-100271800D01*
X164257400Y-100271800D01*
X164978323Y-99848849D01*
X164984923Y-99847261D01*
X164991297Y-99849609D01*
G37*
%TD.AperFunction*%
%TD*%
%TA.AperFunction,Conductor*%
%TO.N,Net-(Q8-D)*%
G36*
X148836979Y-85042010D02*
G01*
X149453863Y-85432954D01*
X149457851Y-85437197D01*
X149459300Y-85442837D01*
X149459300Y-85679963D01*
X149457851Y-85685603D01*
X149453863Y-85689845D01*
X149274076Y-85803783D01*
X148836980Y-86080788D01*
X148828787Y-86082445D01*
X148821579Y-86078212D01*
X148414143Y-85568707D01*
X148411581Y-85561400D01*
X148414143Y-85554093D01*
X148508259Y-85436400D01*
X148821579Y-85044586D01*
X148828787Y-85040354D01*
X148836979Y-85042010D01*
G37*
%TD.AperFunction*%
%TD*%
%TA.AperFunction,Conductor*%
%TO.N,GND*%
G36*
X198559484Y-100997223D02*
G01*
X199890070Y-101471271D01*
X199895176Y-101474857D01*
X199897712Y-101480560D01*
X199896956Y-101486756D01*
X199598062Y-102210712D01*
X199595520Y-102214520D01*
X199591712Y-102217062D01*
X198867756Y-102515956D01*
X198861560Y-102516712D01*
X198855857Y-102514176D01*
X198852271Y-102509070D01*
X198378223Y-101178484D01*
X198377831Y-101171989D01*
X198380970Y-101166289D01*
X198547289Y-100999970D01*
X198552989Y-100996831D01*
X198559484Y-100997223D01*
G37*
%TD.AperFunction*%
%TD*%
%TA.AperFunction,Conductor*%
%TO.N,Sense2-5*%
G36*
X148722990Y-76869223D02*
G01*
X148726550Y-76874411D01*
X149279276Y-78492357D01*
X149279601Y-78498785D01*
X149276477Y-78504412D01*
X149110012Y-78670877D01*
X149104385Y-78674001D01*
X149097957Y-78673676D01*
X148602485Y-78504412D01*
X147480011Y-78120950D01*
X147474823Y-78117390D01*
X147472229Y-78111658D01*
X147472978Y-78105413D01*
X147833039Y-77233780D01*
X147835578Y-77229978D01*
X147839380Y-77227439D01*
X148711013Y-76867378D01*
X148717258Y-76866629D01*
X148722990Y-76869223D01*
G37*
%TD.AperFunction*%
%TD*%
%TA.AperFunction,Conductor*%
%TO.N,Net-(Q2-D)*%
G36*
X215452600Y-58578358D02*
G01*
X215997334Y-59154317D01*
X216000474Y-59161178D01*
X215998774Y-59168529D01*
X215640576Y-59745381D01*
X215635587Y-59749810D01*
X215628988Y-59750792D01*
X215622926Y-59748009D01*
X215154302Y-59337359D01*
X215150495Y-59330614D01*
X215151734Y-59322970D01*
X215432400Y-58807000D01*
X215432400Y-58586398D01*
X215434417Y-58579830D01*
X215439774Y-58575527D01*
X215446622Y-58574973D01*
X215452600Y-58578358D01*
G37*
%TD.AperFunction*%
%TD*%
%TA.AperFunction,Conductor*%
%TO.N,Sense2-8*%
G36*
X148214157Y-64799263D02*
G01*
X149749054Y-65552488D01*
X149753830Y-65556803D01*
X149755600Y-65562991D01*
X149755600Y-65798409D01*
X149753830Y-65804597D01*
X149749054Y-65808912D01*
X148214157Y-66562136D01*
X148207972Y-66563287D01*
X148202085Y-66561068D01*
X148198198Y-66556121D01*
X147886059Y-65804597D01*
X147836463Y-65685187D01*
X147835569Y-65680700D01*
X147836464Y-65676212D01*
X147883489Y-65562991D01*
X148198199Y-64805275D01*
X148202085Y-64800331D01*
X148207972Y-64798112D01*
X148214157Y-64799263D01*
G37*
%TD.AperFunction*%
%TD*%
%TA.AperFunction,Conductor*%
%TO.N,Com1RX*%
G36*
X159453799Y-100315394D02*
G01*
X159461260Y-100319900D01*
X160232986Y-100785999D01*
X160237941Y-100792040D01*
X160237989Y-100799854D01*
X159915469Y-101728190D01*
X159911361Y-101733767D01*
X159904819Y-101736043D01*
X159898136Y-101734221D01*
X159177400Y-101275600D01*
X158946906Y-101275600D01*
X158939486Y-101272946D01*
X158935432Y-101266188D01*
X158936584Y-101258391D01*
X158966210Y-101202875D01*
X159437430Y-100319897D01*
X159441742Y-100315369D01*
X159447774Y-100313709D01*
X159453799Y-100315394D01*
G37*
%TD.AperFunction*%
%TD*%
%TA.AperFunction,Conductor*%
%TO.N,IN2TTL*%
G36*
X140264062Y-99849575D02*
G01*
X140984800Y-100308100D01*
X141215296Y-100308100D01*
X141222716Y-100310754D01*
X141226770Y-100317512D01*
X141225618Y-100325308D01*
X140724771Y-101263898D01*
X140720457Y-101268429D01*
X140714425Y-101270090D01*
X140708400Y-101268405D01*
X139929213Y-100797800D01*
X139924258Y-100791759D01*
X139924210Y-100783948D01*
X140246732Y-99855606D01*
X140250839Y-99850032D01*
X140257381Y-99847755D01*
X140264062Y-99849575D01*
G37*
%TD.AperFunction*%
%TD*%
%TA.AperFunction,Conductor*%
%TO.N,+5V*%
G36*
X186063817Y-132498408D02*
G01*
X186852218Y-133170868D01*
X186901493Y-133212897D01*
X186904524Y-133216897D01*
X186905600Y-133221799D01*
X186905600Y-133461001D01*
X186904524Y-133465903D01*
X186901493Y-133469903D01*
X186063818Y-134184390D01*
X186055765Y-134187179D01*
X186047957Y-134183766D01*
X185333254Y-133469903D01*
X185212885Y-133349676D01*
X185209854Y-133344430D01*
X185209854Y-133338370D01*
X185212885Y-133333123D01*
X186047958Y-132499032D01*
X186055765Y-132495620D01*
X186063817Y-132498408D01*
G37*
%TD.AperFunction*%
%TD*%
%TA.AperFunction,Conductor*%
%TO.N,RTDMOSI*%
G36*
X203958296Y-145262580D02*
G01*
X203962157Y-145267507D01*
X204281834Y-146036911D01*
X204282729Y-146041400D01*
X204281834Y-146045889D01*
X203962157Y-146815292D01*
X203958296Y-146820219D01*
X203952448Y-146822452D01*
X203946286Y-146821350D01*
X202589334Y-146169586D01*
X202584497Y-146165269D01*
X202582700Y-146159039D01*
X202582700Y-145923761D01*
X202584497Y-145917531D01*
X202589334Y-145913214D01*
X203324750Y-145559982D01*
X203946287Y-145261448D01*
X203952448Y-145260347D01*
X203958296Y-145262580D01*
G37*
%TD.AperFunction*%
%TD*%
%TA.AperFunction,Conductor*%
%TO.N,Sense2-3*%
G36*
X138840125Y-53773665D02*
G01*
X139571400Y-55212127D01*
X139572525Y-55219264D01*
X139569243Y-55225702D01*
X139042447Y-55752513D01*
X139036009Y-55755795D01*
X139028870Y-55754669D01*
X137590562Y-55023225D01*
X137584893Y-55016855D01*
X137585051Y-55008331D01*
X137945739Y-54135180D01*
X137948278Y-54131378D01*
X137952080Y-54128839D01*
X138825228Y-53768152D01*
X138833755Y-53767994D01*
X138840125Y-53773665D01*
G37*
%TD.AperFunction*%
%TD*%
%TA.AperFunction,Conductor*%
%TO.N,GND*%
G36*
X126762374Y-148194515D02*
G01*
X126766637Y-148199013D01*
X127219156Y-149046389D01*
X127220535Y-149051900D01*
X127219156Y-149057411D01*
X126766637Y-149904786D01*
X126762374Y-149909284D01*
X126756412Y-149910975D01*
X126750424Y-149909383D01*
X125499708Y-149180286D01*
X125495455Y-149176007D01*
X125493900Y-149170178D01*
X125493900Y-148933622D01*
X125495455Y-148927793D01*
X125499708Y-148923514D01*
X126742539Y-148199013D01*
X126750424Y-148194415D01*
X126756412Y-148192824D01*
X126762374Y-148194515D01*
G37*
%TD.AperFunction*%
%TD*%
%TA.AperFunction,Conductor*%
%TO.N,Net-(Q18-Pad1)*%
G36*
X164416715Y-83288937D02*
G01*
X164422483Y-83295013D01*
X164722306Y-84017872D01*
X164722973Y-84024642D01*
X164719762Y-84030638D01*
X164166440Y-84582577D01*
X164158723Y-84585981D01*
X164150722Y-84583312D01*
X163185220Y-83785179D01*
X163181587Y-83779896D01*
X163181284Y-83773491D01*
X163184400Y-83767890D01*
X163349980Y-83602310D01*
X163354935Y-83599364D01*
X164408364Y-83288275D01*
X164416715Y-83288937D01*
G37*
%TD.AperFunction*%
%TD*%
%TA.AperFunction,Conductor*%
%TO.N,GND*%
G36*
X122022969Y-116442667D02*
G01*
X122405806Y-116601030D01*
X122747910Y-116742543D01*
X122751714Y-116745085D01*
X122754253Y-116748890D01*
X123052156Y-117470447D01*
X123052820Y-117477173D01*
X123049655Y-117483144D01*
X123043715Y-117486369D01*
X121723461Y-117759926D01*
X121550402Y-117795783D01*
X121543609Y-117795160D01*
X121538318Y-117790853D01*
X121536329Y-117784327D01*
X121536329Y-117551102D01*
X121537275Y-117546493D01*
X121569870Y-117470447D01*
X122007745Y-116448869D01*
X122014084Y-116442644D01*
X122022969Y-116442667D01*
G37*
%TD.AperFunction*%
%TD*%
%TA.AperFunction,Conductor*%
%TO.N,GND*%
G36*
X180231494Y-143180526D02*
G01*
X180235358Y-143185456D01*
X180560234Y-143967411D01*
X180561129Y-143971900D01*
X180560234Y-143976389D01*
X180235358Y-144758343D01*
X180231494Y-144763273D01*
X180225640Y-144765503D01*
X180219475Y-144764395D01*
X178840522Y-144100090D01*
X178835693Y-144095773D01*
X178833900Y-144089549D01*
X178833900Y-143854251D01*
X178835693Y-143848027D01*
X178840522Y-143843710D01*
X179058993Y-143738462D01*
X180219477Y-143179403D01*
X180225640Y-143178296D01*
X180231494Y-143180526D01*
G37*
%TD.AperFunction*%
%TD*%
%TA.AperFunction,Conductor*%
%TO.N,SDDetect*%
G36*
X216011777Y-91287487D02*
G01*
X216977279Y-92085621D01*
X216980912Y-92090903D01*
X216981215Y-92097308D01*
X216978097Y-92102911D01*
X216812521Y-92268487D01*
X216807562Y-92271435D01*
X215754137Y-92582524D01*
X215745784Y-92581862D01*
X215740016Y-92575786D01*
X215440192Y-91852925D01*
X215439526Y-91846157D01*
X215442734Y-91840164D01*
X215996059Y-91288221D01*
X216003776Y-91284818D01*
X216011777Y-91287487D01*
G37*
%TD.AperFunction*%
%TD*%
%TA.AperFunction,Conductor*%
%TO.N,RTDMOSI*%
G36*
X168999111Y-140475113D02*
G01*
X169004380Y-140479171D01*
X169681975Y-141415842D01*
X169684129Y-141423939D01*
X169680318Y-141431400D01*
X169672495Y-141434400D01*
X169445400Y-141434400D01*
X168732147Y-141847695D01*
X168725781Y-141849261D01*
X168719572Y-141847158D01*
X168715471Y-141842046D01*
X168398288Y-141075324D01*
X168397626Y-141068564D01*
X168400832Y-141062576D01*
X168986635Y-140477747D01*
X168992482Y-140474582D01*
X168999111Y-140475113D01*
G37*
%TD.AperFunction*%
%TD*%
%TA.AperFunction,Conductor*%
%TO.N,Sense1-10*%
G36*
X189103223Y-53842430D02*
G01*
X189107069Y-53847346D01*
X189407634Y-54570610D01*
X189408530Y-54575100D01*
X189407634Y-54579590D01*
X189107069Y-55302853D01*
X189103223Y-55307769D01*
X189097397Y-55310008D01*
X189091248Y-55308933D01*
X187815183Y-54703272D01*
X187810311Y-54698955D01*
X187808500Y-54692702D01*
X187808500Y-54457498D01*
X187810311Y-54451245D01*
X187815183Y-54446928D01*
X189091250Y-53841265D01*
X189097397Y-53840191D01*
X189103223Y-53842430D01*
G37*
%TD.AperFunction*%
%TD*%
%TA.AperFunction,Conductor*%
%TO.N,Net-(Q11-D)*%
G36*
X132025423Y-79237830D02*
G01*
X132029269Y-79242746D01*
X132329834Y-79966010D01*
X132330730Y-79970500D01*
X132329834Y-79974990D01*
X132029269Y-80698253D01*
X132025423Y-80703169D01*
X132019597Y-80705408D01*
X132013448Y-80704333D01*
X130737383Y-80098672D01*
X130732511Y-80094355D01*
X130730700Y-80088102D01*
X130730700Y-79852898D01*
X130732511Y-79846645D01*
X130737383Y-79842328D01*
X132013450Y-79236665D01*
X132019597Y-79235591D01*
X132025423Y-79237830D01*
G37*
%TD.AperFunction*%
%TD*%
%TA.AperFunction,Conductor*%
%TO.N,MISO*%
G36*
X178363167Y-138100804D02*
G01*
X178744309Y-138323476D01*
X179084799Y-138522400D01*
X179084800Y-138522400D01*
X179312010Y-138522400D01*
X179319821Y-138525389D01*
X179323641Y-138532830D01*
X179321517Y-138540919D01*
X178639784Y-139491365D01*
X178634517Y-139495451D01*
X178627874Y-139495997D01*
X178622011Y-139492826D01*
X178026634Y-138898425D01*
X178023426Y-138892435D01*
X178024088Y-138885675D01*
X178346457Y-138106431D01*
X178350570Y-138101313D01*
X178356795Y-138099217D01*
X178363167Y-138100804D01*
G37*
%TD.AperFunction*%
%TD*%
%TA.AperFunction,Conductor*%
%TO.N,RTDMISO*%
G36*
X203958296Y-142722580D02*
G01*
X203962157Y-142727507D01*
X204281834Y-143496910D01*
X204282729Y-143501399D01*
X204281834Y-143505888D01*
X203962157Y-144275292D01*
X203958296Y-144280219D01*
X203952448Y-144282452D01*
X203946286Y-144281350D01*
X202589334Y-143629586D01*
X202584497Y-143625269D01*
X202582700Y-143619039D01*
X202582700Y-143383761D01*
X202584497Y-143377531D01*
X202589334Y-143373214D01*
X203324750Y-143019982D01*
X203946287Y-142721448D01*
X203952448Y-142720347D01*
X203958296Y-142722580D01*
G37*
%TD.AperFunction*%
%TD*%
%TA.AperFunction,Conductor*%
%TO.N,Net-(#FLG0105-pwr)*%
G36*
X106517242Y-106579123D02*
G01*
X106520828Y-106584230D01*
X106889095Y-107617904D01*
X106994875Y-107914812D01*
X106995268Y-107921310D01*
X106992127Y-107927012D01*
X106825812Y-108093327D01*
X106820110Y-108096468D01*
X106813612Y-108096075D01*
X105483030Y-107622028D01*
X105477923Y-107618442D01*
X105475387Y-107612739D01*
X105476142Y-107606544D01*
X105775038Y-106882584D01*
X105777579Y-106878779D01*
X105781384Y-106876238D01*
X106505344Y-106577342D01*
X106511539Y-106576587D01*
X106517242Y-106579123D01*
G37*
%TD.AperFunction*%
%TD*%
%TA.AperFunction,Conductor*%
%TO.N,Com2RX*%
G36*
X110344263Y-102800476D02*
G01*
X110510223Y-102966436D01*
X110513402Y-102972311D01*
X110512847Y-102978968D01*
X110147188Y-103914554D01*
X110143542Y-103919477D01*
X110137908Y-103921883D01*
X110131831Y-103921112D01*
X109610794Y-103706262D01*
X109606981Y-103703718D01*
X109604437Y-103699905D01*
X109389587Y-103178868D01*
X109388816Y-103172791D01*
X109391222Y-103167157D01*
X109396144Y-103163511D01*
X110331731Y-102797851D01*
X110338388Y-102797297D01*
X110344263Y-102800476D01*
G37*
%TD.AperFunction*%
%TD*%
%TA.AperFunction,Conductor*%
%TO.N,+VDC*%
G36*
X149938684Y-91130923D02*
G01*
X151269270Y-91604971D01*
X151274376Y-91608557D01*
X151276912Y-91614260D01*
X151276156Y-91620456D01*
X150977262Y-92344412D01*
X150974720Y-92348220D01*
X150970912Y-92350762D01*
X150246956Y-92649656D01*
X150240760Y-92650412D01*
X150235057Y-92647876D01*
X150231471Y-92642770D01*
X149757423Y-91312184D01*
X149757031Y-91305689D01*
X149760170Y-91299989D01*
X149926489Y-91133670D01*
X149932189Y-91130531D01*
X149938684Y-91130923D01*
G37*
%TD.AperFunction*%
%TD*%
%TA.AperFunction,Conductor*%
%TO.N,Net-(Q24-D)*%
G36*
X206950656Y-66705507D02*
G01*
X207648825Y-66994308D01*
X207673962Y-67004706D01*
X207679221Y-67009022D01*
X207681190Y-67015533D01*
X207680213Y-67796887D01*
X207677096Y-67804824D01*
X207669419Y-67808537D01*
X206413573Y-67906120D01*
X206407348Y-67904876D01*
X206402689Y-67900565D01*
X206400967Y-67894455D01*
X206400967Y-67660177D01*
X206402482Y-67654420D01*
X206454756Y-67561940D01*
X206936003Y-66710561D01*
X206942373Y-66705259D01*
X206950656Y-66705507D01*
G37*
%TD.AperFunction*%
%TD*%
%TA.AperFunction,Conductor*%
%TO.N,IN2TTL*%
G36*
X226559531Y-66144750D02*
G01*
X227099007Y-66367237D01*
X227102819Y-66369780D01*
X227105362Y-66373592D01*
X227327848Y-66913067D01*
X227328618Y-66919159D01*
X227326196Y-66924802D01*
X227321250Y-66928441D01*
X226349765Y-67303969D01*
X226343128Y-67304503D01*
X226337274Y-67301329D01*
X226171270Y-67135325D01*
X226168096Y-67129471D01*
X226168630Y-67122834D01*
X226243773Y-66928441D01*
X226544159Y-66151347D01*
X226547797Y-66146403D01*
X226553440Y-66143981D01*
X226559531Y-66144750D01*
G37*
%TD.AperFunction*%
%TD*%
%TA.AperFunction,Conductor*%
%TO.N,Sense1-3*%
G36*
X150889949Y-111677985D02*
G01*
X150895809Y-111684082D01*
X151005615Y-111946889D01*
X151006519Y-111951400D01*
X151005615Y-111955911D01*
X150895809Y-112218717D01*
X150889949Y-112224814D01*
X150881512Y-112225370D01*
X150414699Y-112078971D01*
X150408770Y-112074733D01*
X150406500Y-112067807D01*
X150406500Y-111834993D01*
X150408770Y-111828067D01*
X150414699Y-111823829D01*
X150590643Y-111768649D01*
X150881513Y-111677429D01*
X150889949Y-111677985D01*
G37*
%TD.AperFunction*%
%TD*%
%TA.AperFunction,Conductor*%
%TO.N,+5V*%
G36*
X227657802Y-68686403D02*
G01*
X227661441Y-68691349D01*
X228036969Y-69662834D01*
X228037503Y-69669471D01*
X228034329Y-69675325D01*
X227868325Y-69841329D01*
X227862471Y-69844503D01*
X227855834Y-69843969D01*
X226884349Y-69468441D01*
X226879403Y-69464802D01*
X226876981Y-69459159D01*
X226877750Y-69453069D01*
X227100238Y-68913589D01*
X227102780Y-68909780D01*
X227106589Y-68907238D01*
X227646069Y-68684750D01*
X227652159Y-68683981D01*
X227657802Y-68686403D01*
G37*
%TD.AperFunction*%
%TD*%
%TA.AperFunction,Conductor*%
%TO.N,Net-(Q12-D)*%
G36*
X151116697Y-94724999D02*
G01*
X151121139Y-94730341D01*
X151418610Y-95449473D01*
X151419272Y-95456235D01*
X151416064Y-95462225D01*
X150864851Y-96012464D01*
X150859316Y-96015561D01*
X150852978Y-96015314D01*
X150847700Y-96011797D01*
X150188048Y-95241913D01*
X150185248Y-95233700D01*
X150188875Y-95225817D01*
X150196933Y-95222600D01*
X150421500Y-95222600D01*
X151103436Y-94725358D01*
X151110009Y-94723117D01*
X151116697Y-94724999D01*
G37*
%TD.AperFunction*%
%TD*%
%TA.AperFunction,Conductor*%
%TO.N,Net-(IC3-OSC2)*%
G36*
X190392342Y-121783348D02*
G01*
X190398037Y-121787619D01*
X190400202Y-121794400D01*
X190400202Y-122026812D01*
X190399546Y-122030675D01*
X189975788Y-123242169D01*
X189972211Y-123247314D01*
X189966492Y-123249875D01*
X189960272Y-123249118D01*
X189236089Y-122949556D01*
X189232285Y-122947014D01*
X189229746Y-122943209D01*
X188931427Y-122220643D01*
X188930707Y-122214222D01*
X188933504Y-122208397D01*
X188938963Y-122204947D01*
X189831764Y-121944575D01*
X190385226Y-121783168D01*
X190392342Y-121783348D01*
G37*
%TD.AperFunction*%
%TD*%
%TA.AperFunction,Conductor*%
%TO.N,RTDSCLK*%
G36*
X198834411Y-85186413D02*
G01*
X198839680Y-85190471D01*
X199517275Y-86127142D01*
X199519429Y-86135239D01*
X199515618Y-86142700D01*
X199507795Y-86145700D01*
X199280700Y-86145700D01*
X198567447Y-86558995D01*
X198561081Y-86560561D01*
X198554872Y-86558458D01*
X198550771Y-86553346D01*
X198233588Y-85786624D01*
X198232926Y-85779864D01*
X198236132Y-85773876D01*
X198821935Y-85189047D01*
X198827782Y-85185882D01*
X198834411Y-85186413D01*
G37*
%TD.AperFunction*%
%TD*%
%TA.AperFunction,Conductor*%
%TO.N,GND*%
G36*
X140922755Y-125977542D02*
G01*
X140939439Y-125984431D01*
X141646712Y-126276437D01*
X141650520Y-126278979D01*
X141653062Y-126282787D01*
X141951956Y-127006743D01*
X141952712Y-127012939D01*
X141950176Y-127018642D01*
X141945068Y-127022229D01*
X140614487Y-127496275D01*
X140607989Y-127496668D01*
X140602287Y-127493527D01*
X140435972Y-127327212D01*
X140432831Y-127321510D01*
X140433223Y-127315016D01*
X140907272Y-125984427D01*
X140910857Y-125979323D01*
X140916560Y-125976787D01*
X140922755Y-125977542D01*
G37*
%TD.AperFunction*%
%TD*%
%TA.AperFunction,Conductor*%
%TO.N,Sense1-8*%
G36*
X148351449Y-109481085D02*
G01*
X148357309Y-109487182D01*
X148467115Y-109749989D01*
X148468019Y-109754500D01*
X148467115Y-109759011D01*
X148357309Y-110021817D01*
X148351449Y-110027914D01*
X148343012Y-110028470D01*
X147876199Y-109882071D01*
X147870270Y-109877833D01*
X147868000Y-109870907D01*
X147868000Y-109638093D01*
X147870270Y-109631167D01*
X147876199Y-109626929D01*
X148052143Y-109571749D01*
X148343013Y-109480529D01*
X148351449Y-109481085D01*
G37*
%TD.AperFunction*%
%TD*%
%TA.AperFunction,Conductor*%
%TO.N,FuelPressure2*%
G36*
X142131297Y-148109609D02*
G01*
X142135292Y-148115101D01*
X142457989Y-149043945D01*
X142457941Y-149051759D01*
X142452986Y-149057800D01*
X141673962Y-149528307D01*
X141667877Y-149529992D01*
X141661804Y-149528270D01*
X141657508Y-149523643D01*
X141156169Y-148548851D01*
X141155124Y-148541096D01*
X141159199Y-148534417D01*
X141166574Y-148531800D01*
X141397400Y-148531800D01*
X142118323Y-148108849D01*
X142124923Y-148107261D01*
X142131297Y-148109609D01*
G37*
%TD.AperFunction*%
%TD*%
%TA.AperFunction,Conductor*%
%TO.N,Net-(Q4-D)*%
G36*
X215194644Y-77990668D02*
G01*
X215412286Y-78189671D01*
X215657383Y-78413778D01*
X215661072Y-78420772D01*
X215659470Y-78428515D01*
X215140988Y-79276463D01*
X215135772Y-79281045D01*
X215128878Y-79281865D01*
X215122733Y-79278633D01*
X214958298Y-79114198D01*
X214955575Y-79109923D01*
X214703893Y-78417719D01*
X214703556Y-78410822D01*
X214707167Y-78404935D01*
X215179029Y-77990511D01*
X215186866Y-77987604D01*
X215194644Y-77990668D01*
G37*
%TD.AperFunction*%
%TD*%
%TA.AperFunction,Conductor*%
%TO.N,RTDMOSI*%
G36*
X184881196Y-145262580D02*
G01*
X184885057Y-145267507D01*
X185204734Y-146036911D01*
X185205629Y-146041400D01*
X185204734Y-146045889D01*
X184885057Y-146815292D01*
X184881196Y-146820219D01*
X184875348Y-146822452D01*
X184869186Y-146821350D01*
X183512234Y-146169586D01*
X183507397Y-146165269D01*
X183505600Y-146159039D01*
X183505600Y-145923761D01*
X183507397Y-145917531D01*
X183512234Y-145913214D01*
X184247650Y-145559982D01*
X184869187Y-145261448D01*
X184875348Y-145260347D01*
X184881196Y-145262580D01*
G37*
%TD.AperFunction*%
%TD*%
%TA.AperFunction,Conductor*%
%TO.N,+5V*%
G36*
X227868325Y-73058270D02*
G01*
X228034329Y-73224274D01*
X228037503Y-73230128D01*
X228036969Y-73236765D01*
X227661441Y-74208250D01*
X227657802Y-74213196D01*
X227652159Y-74215618D01*
X227646067Y-74214848D01*
X227106592Y-73992362D01*
X227102780Y-73989819D01*
X227100237Y-73986007D01*
X226877751Y-73446532D01*
X226876981Y-73440440D01*
X226879403Y-73434797D01*
X226884347Y-73431159D01*
X227855835Y-73055629D01*
X227862471Y-73055096D01*
X227868325Y-73058270D01*
G37*
%TD.AperFunction*%
%TD*%
%TA.AperFunction,Conductor*%
%TO.N,Net-(#FLG0106-pwr)*%
G36*
X102525529Y-116614567D02*
G01*
X102790990Y-116928001D01*
X103260531Y-117482397D01*
X103263293Y-117490443D01*
X103259876Y-117498232D01*
X103091564Y-117666544D01*
X103089711Y-117668052D01*
X102526159Y-118037974D01*
X102518545Y-118039832D01*
X102511466Y-118036466D01*
X101726764Y-117251764D01*
X101723629Y-117246089D01*
X101723997Y-117239616D01*
X101727754Y-117234334D01*
X102509322Y-116612971D01*
X102517749Y-116610486D01*
X102525529Y-116614567D01*
G37*
%TD.AperFunction*%
%TD*%
%TA.AperFunction,Conductor*%
%TO.N,Net-(Q4-D)*%
G36*
X197330642Y-78908923D02*
G01*
X197334228Y-78914030D01*
X197702495Y-79947704D01*
X197808275Y-80244612D01*
X197808668Y-80251110D01*
X197805527Y-80256812D01*
X197639212Y-80423127D01*
X197633510Y-80426268D01*
X197627012Y-80425875D01*
X196296430Y-79951828D01*
X196291323Y-79948242D01*
X196288787Y-79942539D01*
X196289542Y-79936344D01*
X196588438Y-79212384D01*
X196590979Y-79208579D01*
X196594784Y-79206038D01*
X197318744Y-78907142D01*
X197324939Y-78906387D01*
X197330642Y-78908923D01*
G37*
%TD.AperFunction*%
%TD*%
%TA.AperFunction,Conductor*%
%TO.N,GND*%
G36*
X146406622Y-88632285D02*
G01*
X146411899Y-88635803D01*
X147071555Y-89405788D01*
X147074355Y-89414000D01*
X147070728Y-89421883D01*
X147062670Y-89425100D01*
X146838100Y-89425100D01*
X146838099Y-89425100D01*
X146838097Y-89425101D01*
X146156165Y-89922242D01*
X146149590Y-89924484D01*
X146142903Y-89922602D01*
X146138462Y-89917261D01*
X145840988Y-89198125D01*
X145840327Y-89191364D01*
X145843534Y-89185375D01*
X146394750Y-88635133D01*
X146400284Y-88632038D01*
X146406622Y-88632285D01*
G37*
%TD.AperFunction*%
%TD*%
%TA.AperFunction,Conductor*%
%TO.N,RTDMOSI*%
G36*
X229155726Y-85065443D02*
G01*
X229159829Y-85070556D01*
X229477010Y-85837272D01*
X229477673Y-85844035D01*
X229474465Y-85850025D01*
X228888664Y-86434851D01*
X228882817Y-86438018D01*
X228876187Y-86437487D01*
X228870920Y-86433430D01*
X228193325Y-85496857D01*
X228191171Y-85488761D01*
X228194982Y-85481300D01*
X228202805Y-85478300D01*
X228429900Y-85478300D01*
X229143153Y-85064905D01*
X229149517Y-85063340D01*
X229155726Y-85065443D01*
G37*
%TD.AperFunction*%
%TD*%
%TA.AperFunction,Conductor*%
%TO.N,Sense1-11*%
G36*
X110344263Y-115500476D02*
G01*
X110510223Y-115666436D01*
X110513402Y-115672311D01*
X110512847Y-115678968D01*
X110147188Y-116614554D01*
X110143542Y-116619477D01*
X110137908Y-116621883D01*
X110131831Y-116621112D01*
X109610794Y-116406262D01*
X109606981Y-116403718D01*
X109604437Y-116399905D01*
X109389587Y-115878868D01*
X109388816Y-115872791D01*
X109391222Y-115867157D01*
X109396144Y-115863511D01*
X110331731Y-115497851D01*
X110338388Y-115497297D01*
X110344263Y-115500476D01*
G37*
%TD.AperFunction*%
%TD*%
%TA.AperFunction,Conductor*%
%TO.N,Sense1-8*%
G36*
X110344263Y-112960476D02*
G01*
X110510223Y-113126436D01*
X110513402Y-113132311D01*
X110512847Y-113138968D01*
X110147188Y-114074554D01*
X110143542Y-114079477D01*
X110137908Y-114081883D01*
X110131831Y-114081112D01*
X109610794Y-113866262D01*
X109606981Y-113863718D01*
X109604437Y-113859905D01*
X109389587Y-113338868D01*
X109388816Y-113332791D01*
X109391222Y-113327157D01*
X109396144Y-113323511D01*
X110331731Y-112957851D01*
X110338388Y-112957297D01*
X110344263Y-112960476D01*
G37*
%TD.AperFunction*%
%TD*%
%TA.AperFunction,Conductor*%
%TO.N,SDDetect*%
G36*
X226256796Y-93131880D02*
G01*
X226260657Y-93136807D01*
X226580334Y-93906211D01*
X226581229Y-93910700D01*
X226580334Y-93915189D01*
X226260657Y-94684592D01*
X226256796Y-94689519D01*
X226250948Y-94691752D01*
X226244786Y-94690650D01*
X224887834Y-94038886D01*
X224882997Y-94034569D01*
X224881200Y-94028339D01*
X224881200Y-93793061D01*
X224882997Y-93786831D01*
X224887834Y-93782514D01*
X225623249Y-93429282D01*
X226244787Y-93130748D01*
X226250948Y-93129647D01*
X226256796Y-93131880D01*
G37*
%TD.AperFunction*%
%TD*%
%TA.AperFunction,Conductor*%
%TO.N,Net-(Q1-G)*%
G36*
X207552777Y-49076587D02*
G01*
X208518279Y-49874721D01*
X208521912Y-49880003D01*
X208522215Y-49886408D01*
X208519097Y-49892011D01*
X208353521Y-50057587D01*
X208348562Y-50060535D01*
X207295137Y-50371624D01*
X207286784Y-50370962D01*
X207281016Y-50364886D01*
X206981192Y-49642025D01*
X206980526Y-49635257D01*
X206983734Y-49629264D01*
X207537059Y-49077321D01*
X207544776Y-49073918D01*
X207552777Y-49076587D01*
G37*
%TD.AperFunction*%
%TD*%
%TA.AperFunction,Conductor*%
%TO.N,+5V*%
G36*
X162214684Y-108076423D02*
G01*
X163545270Y-108550471D01*
X163550376Y-108554057D01*
X163552912Y-108559760D01*
X163552156Y-108565956D01*
X163253262Y-109289912D01*
X163250720Y-109293720D01*
X163246912Y-109296262D01*
X162522956Y-109595156D01*
X162516760Y-109595912D01*
X162511057Y-109593376D01*
X162507471Y-109588270D01*
X162033423Y-108257684D01*
X162033031Y-108251189D01*
X162036170Y-108245489D01*
X162202489Y-108079170D01*
X162208189Y-108076031D01*
X162214684Y-108076423D01*
G37*
%TD.AperFunction*%
%TD*%
%TA.AperFunction,Conductor*%
%TO.N,Net-(Q21-CATHODE_2)*%
G36*
X200176377Y-60596587D02*
G01*
X201141879Y-61394721D01*
X201145512Y-61400003D01*
X201145815Y-61406408D01*
X201142697Y-61412011D01*
X200977121Y-61577587D01*
X200972162Y-61580535D01*
X199918737Y-61891624D01*
X199910384Y-61890962D01*
X199904616Y-61884886D01*
X199604792Y-61162025D01*
X199604126Y-61155257D01*
X199607334Y-61149264D01*
X200160659Y-60597321D01*
X200168376Y-60593918D01*
X200176377Y-60596587D01*
G37*
%TD.AperFunction*%
%TD*%
%TA.AperFunction,Conductor*%
%TO.N,Net-(Q18-Pad1)*%
G36*
X148802766Y-79035758D02*
G01*
X149651657Y-80122396D01*
X149654115Y-80130314D01*
X149650710Y-80137872D01*
X149482223Y-80306359D01*
X149480090Y-80308046D01*
X148803472Y-80725146D01*
X148795972Y-80726807D01*
X148789059Y-80723459D01*
X147844292Y-79778692D01*
X147841145Y-79772965D01*
X147841561Y-79766444D01*
X147845409Y-79761163D01*
X148783735Y-79035758D01*
X148786390Y-79033704D01*
X148795002Y-79031352D01*
X148802766Y-79035758D01*
G37*
%TD.AperFunction*%
%TD*%
%TA.AperFunction,Conductor*%
%TO.N,GND*%
G36*
X124990341Y-91017488D02*
G01*
X125498101Y-91741480D01*
X125500213Y-91747748D01*
X125498589Y-91754159D01*
X125493748Y-91758666D01*
X125105100Y-91952700D01*
X125105100Y-92178458D01*
X125101981Y-92186411D01*
X125094288Y-92190124D01*
X125086121Y-92187618D01*
X124546654Y-91758926D01*
X124542430Y-91751904D01*
X124543848Y-91743836D01*
X124970680Y-91018271D01*
X124976499Y-91013310D01*
X124984142Y-91013005D01*
X124990341Y-91017488D01*
G37*
%TD.AperFunction*%
%TD*%
%TA.AperFunction,Conductor*%
%TO.N,+VDC*%
G36*
X153904249Y-86702865D02*
G01*
X155180317Y-87308528D01*
X155185189Y-87312845D01*
X155187000Y-87319098D01*
X155187000Y-87554302D01*
X155185189Y-87560555D01*
X155180317Y-87564872D01*
X153904251Y-88170533D01*
X153898102Y-88171608D01*
X153892276Y-88169369D01*
X153888430Y-88164453D01*
X153858898Y-88093390D01*
X153587864Y-87441185D01*
X153586969Y-87436700D01*
X153587864Y-87432214D01*
X153888430Y-86708945D01*
X153892276Y-86704030D01*
X153898102Y-86701791D01*
X153904249Y-86702865D01*
G37*
%TD.AperFunction*%
%TD*%
%TA.AperFunction,Conductor*%
%TO.N,Net-(Q7-D)*%
G36*
X127784761Y-64984189D02*
G01*
X128160700Y-65390700D01*
X128386676Y-65390700D01*
X128394609Y-65393800D01*
X128398338Y-65401457D01*
X128395887Y-65409614D01*
X127928273Y-66006698D01*
X127923233Y-66010415D01*
X127916997Y-66011000D01*
X127911353Y-66008285D01*
X127681818Y-65807248D01*
X127442651Y-65597775D01*
X127438842Y-65591023D01*
X127440091Y-65583371D01*
X127765904Y-64986526D01*
X127771196Y-64981545D01*
X127778411Y-64980650D01*
X127784761Y-64984189D01*
G37*
%TD.AperFunction*%
%TD*%
%TA.AperFunction,Conductor*%
%TO.N,+VDC*%
G36*
X162340673Y-51334273D02*
G01*
X162900223Y-51893823D01*
X162903330Y-51899379D01*
X162903068Y-51905740D01*
X162899515Y-51911021D01*
X162341626Y-52383871D01*
X162333646Y-52386639D01*
X162325882Y-52383312D01*
X161751767Y-51822054D01*
X161748668Y-51816801D01*
X161748633Y-51810702D01*
X161751671Y-51805417D01*
X161919497Y-51637591D01*
X161920738Y-51636514D01*
X162325385Y-51333183D01*
X162333231Y-51330876D01*
X162340673Y-51334273D01*
G37*
%TD.AperFunction*%
%TD*%
%TA.AperFunction,Conductor*%
%TO.N,GND*%
G36*
X99112223Y-79537734D02*
G01*
X99118399Y-79544004D01*
X99415724Y-80262781D01*
X99416511Y-80268788D01*
X99414188Y-80274384D01*
X99409377Y-80278068D01*
X98690049Y-80575050D01*
X98682127Y-80575413D01*
X98675793Y-80570641D01*
X98181946Y-79815806D01*
X98180147Y-79807798D01*
X98184051Y-79800579D01*
X98191737Y-79797700D01*
X98420101Y-79797700D01*
X98659323Y-79706622D01*
X99103425Y-79537542D01*
X99112223Y-79537734D01*
G37*
%TD.AperFunction*%
%TD*%
%TA.AperFunction,Conductor*%
%TO.N,CANCS*%
G36*
X202859637Y-122270425D02*
G01*
X203293246Y-122496993D01*
X203298819Y-122503353D01*
X203298651Y-122511807D01*
X203190463Y-122775284D01*
X203187913Y-122779113D01*
X203184084Y-122781663D01*
X202920607Y-122889851D01*
X202912153Y-122890019D01*
X202905793Y-122884446D01*
X202679225Y-122450837D01*
X202678031Y-122443651D01*
X202681321Y-122437151D01*
X202845951Y-122272521D01*
X202852451Y-122269231D01*
X202859637Y-122270425D01*
G37*
%TD.AperFunction*%
%TD*%
%TA.AperFunction,Conductor*%
%TO.N,OUTPUTSiren*%
G36*
X161010855Y-88531542D02*
G01*
X161027539Y-88538431D01*
X161734812Y-88830437D01*
X161738620Y-88832979D01*
X161741162Y-88836787D01*
X162040056Y-89560743D01*
X162040812Y-89566939D01*
X162038276Y-89572642D01*
X162033168Y-89576229D01*
X160702587Y-90050275D01*
X160696089Y-90050668D01*
X160690387Y-90047527D01*
X160524072Y-89881212D01*
X160520931Y-89875510D01*
X160521323Y-89869016D01*
X160995372Y-88538427D01*
X160998957Y-88533323D01*
X161004660Y-88530787D01*
X161010855Y-88531542D01*
G37*
%TD.AperFunction*%
%TD*%
%TA.AperFunction,Conductor*%
%TO.N,GND*%
G36*
X123698755Y-105401782D02*
G01*
X124714534Y-106270351D01*
X124718059Y-106275632D01*
X124718306Y-106281976D01*
X124715203Y-106287516D01*
X124549508Y-106453211D01*
X124544469Y-106456182D01*
X123424820Y-106778210D01*
X123416510Y-106777507D01*
X123410779Y-106771448D01*
X123091793Y-106002326D01*
X123091126Y-105995557D01*
X123094335Y-105989563D01*
X123682890Y-105402391D01*
X123690703Y-105398984D01*
X123698755Y-105401782D01*
G37*
%TD.AperFunction*%
%TD*%
%TA.AperFunction,Conductor*%
%TO.N,GND*%
G36*
X211567362Y-69740364D02*
G01*
X211572321Y-69743312D01*
X211737897Y-69908888D01*
X211741015Y-69914491D01*
X211740712Y-69920896D01*
X211737079Y-69926179D01*
X210771577Y-70724312D01*
X210763576Y-70726981D01*
X210755859Y-70723577D01*
X210488015Y-70456403D01*
X210202536Y-70171636D01*
X210199326Y-70165642D01*
X210199992Y-70158874D01*
X210499817Y-69436011D01*
X210505584Y-69429937D01*
X210513935Y-69429275D01*
X211567362Y-69740364D01*
G37*
%TD.AperFunction*%
%TD*%
%TA.AperFunction,Conductor*%
%TO.N,Net-(IC3-OSC1)*%
G36*
X193888349Y-126097276D02*
G01*
X193892179Y-126102179D01*
X194173633Y-126779309D01*
X194174529Y-126783800D01*
X194173633Y-126788291D01*
X193892179Y-127465420D01*
X193888349Y-127470323D01*
X193882547Y-127472570D01*
X193876414Y-127471525D01*
X192681239Y-126911955D01*
X192676327Y-126907638D01*
X192674500Y-126901359D01*
X192674500Y-126666241D01*
X192676327Y-126659962D01*
X192681239Y-126655645D01*
X193079776Y-126469053D01*
X193876414Y-126096073D01*
X193882547Y-126095029D01*
X193888349Y-126097276D01*
G37*
%TD.AperFunction*%
%TD*%
%TA.AperFunction,Conductor*%
%TO.N,Sense1-6*%
G36*
X142379049Y-128302385D02*
G01*
X142384908Y-128308481D01*
X142444372Y-128450800D01*
X142494715Y-128571288D01*
X142495619Y-128575799D01*
X142494715Y-128580310D01*
X142384909Y-128843117D01*
X142379049Y-128849214D01*
X142370612Y-128849770D01*
X141903799Y-128703371D01*
X141897870Y-128699133D01*
X141895600Y-128692207D01*
X141895600Y-128459393D01*
X141897870Y-128452467D01*
X141903799Y-128448229D01*
X142079743Y-128393049D01*
X142370613Y-128301829D01*
X142379049Y-128302385D01*
G37*
%TD.AperFunction*%
%TD*%
%TA.AperFunction,Conductor*%
%TO.N,GND*%
G36*
X158640440Y-88274822D02*
G01*
X158907435Y-88541150D01*
X159193762Y-88826762D01*
X159196973Y-88832757D01*
X159196306Y-88839527D01*
X158896483Y-89562386D01*
X158890715Y-89568462D01*
X158882362Y-89569124D01*
X157828937Y-89258035D01*
X157823978Y-89255087D01*
X157658402Y-89089511D01*
X157655284Y-89083908D01*
X157655587Y-89077503D01*
X157659217Y-89072223D01*
X158624723Y-88274086D01*
X158632723Y-88271418D01*
X158640440Y-88274822D01*
G37*
%TD.AperFunction*%
%TD*%
%TA.AperFunction,Conductor*%
%TO.N,RTDSCLK*%
G36*
X233746176Y-123766348D02*
G01*
X234511380Y-124082332D01*
X234516189Y-124086014D01*
X234518512Y-124091610D01*
X234517724Y-124097618D01*
X234201184Y-124862787D01*
X234195110Y-124869012D01*
X234186417Y-124869325D01*
X233472100Y-124612700D01*
X233242862Y-124612700D01*
X233235279Y-124609910D01*
X233231313Y-124602871D01*
X233232854Y-124594940D01*
X233731705Y-123771101D01*
X233738060Y-123766047D01*
X233746176Y-123766348D01*
G37*
%TD.AperFunction*%
%TD*%
%TA.AperFunction,Conductor*%
%TO.N,GND*%
G36*
X137065015Y-95290137D02*
G01*
X137070783Y-95296213D01*
X137370606Y-96019072D01*
X137371273Y-96025842D01*
X137368062Y-96031838D01*
X136814740Y-96583777D01*
X136807023Y-96587181D01*
X136799022Y-96584512D01*
X135833520Y-95786379D01*
X135829887Y-95781096D01*
X135829584Y-95774691D01*
X135832700Y-95769090D01*
X135998280Y-95603510D01*
X136003235Y-95600564D01*
X137056664Y-95289475D01*
X137065015Y-95290137D01*
G37*
%TD.AperFunction*%
%TD*%
%TA.AperFunction,Conductor*%
%TO.N,SpareADC3*%
G36*
X157371118Y-148108218D02*
G01*
X157374704Y-148113380D01*
X157699597Y-149046262D01*
X157700046Y-149052274D01*
X157697442Y-149057712D01*
X157080983Y-149778886D01*
X157075702Y-149782412D01*
X157069358Y-149782661D01*
X157063818Y-149779559D01*
X156051512Y-148767784D01*
X156048482Y-148762539D01*
X156048481Y-148756482D01*
X156051508Y-148751238D01*
X156218384Y-148584362D01*
X156222137Y-148581846D01*
X157359145Y-148106433D01*
X157365379Y-148105656D01*
X157371118Y-148108218D01*
G37*
%TD.AperFunction*%
%TD*%
%TA.AperFunction,Conductor*%
%TO.N,Sense2-1*%
G36*
X191276812Y-79326572D02*
G01*
X191443127Y-79492887D01*
X191446268Y-79498589D01*
X191445875Y-79505087D01*
X190971829Y-80835668D01*
X190968242Y-80840776D01*
X190962539Y-80843312D01*
X190956343Y-80842556D01*
X190232387Y-80543662D01*
X190228579Y-80541120D01*
X190226037Y-80537312D01*
X189927143Y-79813356D01*
X189926387Y-79807160D01*
X189928923Y-79801457D01*
X189934027Y-79797872D01*
X191264616Y-79323823D01*
X191271110Y-79323431D01*
X191276812Y-79326572D01*
G37*
%TD.AperFunction*%
%TD*%
%TA.AperFunction,Conductor*%
%TO.N,SWSCLK*%
G36*
X181179976Y-107808330D02*
G01*
X181887469Y-108418427D01*
X182209425Y-108696061D01*
X182212923Y-108701342D01*
X182213156Y-108707671D01*
X182210057Y-108713195D01*
X182044332Y-108878920D01*
X182039273Y-108881897D01*
X180901611Y-109206897D01*
X180893311Y-109206184D01*
X180887590Y-109200129D01*
X180563393Y-108418427D01*
X180562726Y-108411658D01*
X180565935Y-108405663D01*
X181164074Y-107808908D01*
X181171911Y-107805500D01*
X181179976Y-107808330D01*
G37*
%TD.AperFunction*%
%TD*%
%TA.AperFunction,Conductor*%
%TO.N,GND*%
G36*
X106585559Y-103584025D02*
G01*
X107149111Y-103953947D01*
X107150964Y-103955455D01*
X107319276Y-104123767D01*
X107322693Y-104131556D01*
X107319931Y-104139602D01*
X106584930Y-105007432D01*
X106577149Y-105011514D01*
X106568721Y-105009028D01*
X105787156Y-104387666D01*
X105783397Y-104382383D01*
X105783029Y-104375910D01*
X105786162Y-104370237D01*
X106570867Y-103585532D01*
X106577945Y-103582167D01*
X106585559Y-103584025D01*
G37*
%TD.AperFunction*%
%TD*%
%TA.AperFunction,Conductor*%
%TO.N,GND*%
G36*
X110344263Y-118040476D02*
G01*
X110510223Y-118206436D01*
X110513402Y-118212311D01*
X110512847Y-118218968D01*
X110147188Y-119154554D01*
X110143542Y-119159477D01*
X110137908Y-119161883D01*
X110131831Y-119161112D01*
X109610794Y-118946262D01*
X109606981Y-118943718D01*
X109604437Y-118939905D01*
X109389587Y-118418868D01*
X109388816Y-118412791D01*
X109391222Y-118407157D01*
X109396144Y-118403511D01*
X110331731Y-118037851D01*
X110338388Y-118037297D01*
X110344263Y-118040476D01*
G37*
%TD.AperFunction*%
%TD*%
M02*
