%TF.GenerationSoftware,KiCad,Pcbnew,7.0.1*%
%TF.CreationDate,2023-07-31T19:52:26-07:00*%
%TF.ProjectId,AMS-Mega2560-Base,414d532d-4d65-4676-9132-3536302d4261,rev?*%
%TF.SameCoordinates,Original*%
%TF.FileFunction,Paste,Top*%
%TF.FilePolarity,Positive*%
%FSLAX46Y46*%
G04 Gerber Fmt 4.6, Leading zero omitted, Abs format (unit mm)*
G04 Created by KiCad (PCBNEW 7.0.1) date 2023-07-31 19:52:26*
%MOMM*%
%LPD*%
G01*
G04 APERTURE LIST*
%ADD10R,0.640000X0.420000*%
%ADD11R,0.800000X0.450000*%
%ADD12R,1.500000X0.650000*%
G04 APERTURE END LIST*
D10*
%TO.C,D10*%
X181016000Y-91600800D03*
X182516000Y-91600800D03*
%TD*%
D11*
%TO.C,RN3*%
X231807500Y-67722400D03*
X231807500Y-68522400D03*
X231807500Y-69322400D03*
X231807500Y-70122400D03*
X233407500Y-70122400D03*
X233407500Y-69322400D03*
X233407500Y-68522400D03*
X233407500Y-67722400D03*
%TD*%
D12*
%TO.C,IC2*%
X198068100Y-105956300D03*
X198068100Y-107226300D03*
X198068100Y-108496300D03*
X198068100Y-109766300D03*
X203468100Y-109766300D03*
X203468100Y-108496300D03*
X203468100Y-107226300D03*
X203468100Y-105956300D03*
%TD*%
D10*
%TO.C,D9*%
X180682800Y-88283100D03*
X182182800Y-88283100D03*
%TD*%
D12*
%TO.C,IC1*%
X129672500Y-119193800D03*
X129672500Y-120463800D03*
X129672500Y-121733800D03*
X129672500Y-123003800D03*
X129672500Y-124273800D03*
X129672500Y-125543800D03*
X129672500Y-126813800D03*
X135072500Y-126813800D03*
X135072500Y-125543800D03*
X135072500Y-124273800D03*
X135072500Y-123003800D03*
X135072500Y-121733800D03*
X135072500Y-120463800D03*
X135072500Y-119193800D03*
%TD*%
%TO.C,IC6*%
X106197700Y-131768100D03*
X106197700Y-133038100D03*
X106197700Y-134308100D03*
X106197700Y-135578100D03*
X106197700Y-136848100D03*
X106197700Y-138118100D03*
X106197700Y-139388100D03*
X111597700Y-139388100D03*
X111597700Y-138118100D03*
X111597700Y-136848100D03*
X111597700Y-135578100D03*
X111597700Y-134308100D03*
X111597700Y-133038100D03*
X111597700Y-131768100D03*
%TD*%
%TO.C,IC3*%
X199102200Y-121409100D03*
X199102200Y-122679100D03*
X199102200Y-123949100D03*
X199102200Y-125219100D03*
X199102200Y-126489100D03*
X199102200Y-127759100D03*
X199102200Y-129029100D03*
X204502200Y-129029100D03*
X204502200Y-127759100D03*
X204502200Y-126489100D03*
X204502200Y-125219100D03*
X204502200Y-123949100D03*
X204502200Y-122679100D03*
X204502200Y-121409100D03*
%TD*%
M02*
