%TF.GenerationSoftware,KiCad,Pcbnew,(6.0.0)*%
%TF.CreationDate,2022-07-17T07:01:51-07:00*%
%TF.ProjectId,AMS-Mega2560-Base,414d532d-4d65-4676-9132-3536302d4261,rev?*%
%TF.SameCoordinates,Original*%
%TF.FileFunction,Copper,L4,Bot*%
%TF.FilePolarity,Positive*%
%FSLAX46Y46*%
G04 Gerber Fmt 4.6, Leading zero omitted, Abs format (unit mm)*
G04 Created by KiCad (PCBNEW (6.0.0)) date 2022-07-17 07:01:51*
%MOMM*%
%LPD*%
G01*
G04 APERTURE LIST*
G04 Aperture macros list*
%AMRoundRect*
0 Rectangle with rounded corners*
0 $1 Rounding radius*
0 $2 $3 $4 $5 $6 $7 $8 $9 X,Y pos of 4 corners*
0 Add a 4 corners polygon primitive as box body*
4,1,4,$2,$3,$4,$5,$6,$7,$8,$9,$2,$3,0*
0 Add four circle primitives for the rounded corners*
1,1,$1+$1,$2,$3*
1,1,$1+$1,$4,$5*
1,1,$1+$1,$6,$7*
1,1,$1+$1,$8,$9*
0 Add four rect primitives between the rounded corners*
20,1,$1+$1,$2,$3,$4,$5,0*
20,1,$1+$1,$4,$5,$6,$7,0*
20,1,$1+$1,$6,$7,$8,$9,0*
20,1,$1+$1,$8,$9,$2,$3,0*%
G04 Aperture macros list end*
%TA.AperFunction,ComponentPad*%
%ADD10R,2.085000X2.085000*%
%TD*%
%TA.AperFunction,ComponentPad*%
%ADD11C,2.085000*%
%TD*%
%TA.AperFunction,ComponentPad*%
%ADD12C,1.200000*%
%TD*%
%TA.AperFunction,SMDPad,CuDef*%
%ADD13R,1.250000X0.600000*%
%TD*%
%TA.AperFunction,SMDPad,CuDef*%
%ADD14RoundRect,0.250000X0.475000X-0.337500X0.475000X0.337500X-0.475000X0.337500X-0.475000X-0.337500X0*%
%TD*%
%TA.AperFunction,ComponentPad*%
%ADD15C,1.727200*%
%TD*%
%TA.AperFunction,ComponentPad*%
%ADD16O,1.727200X1.727200*%
%TD*%
%TA.AperFunction,ComponentPad*%
%ADD17O,1.727200X2.032000*%
%TD*%
%TA.AperFunction,ComponentPad*%
%ADD18C,4.064000*%
%TD*%
%TA.AperFunction,ComponentPad*%
%ADD19C,1.650000*%
%TD*%
%TA.AperFunction,ComponentPad*%
%ADD20R,1.575000X1.575000*%
%TD*%
%TA.AperFunction,ComponentPad*%
%ADD21C,1.575000*%
%TD*%
%TA.AperFunction,ComponentPad*%
%ADD22R,2.200000X2.200000*%
%TD*%
%TA.AperFunction,ComponentPad*%
%ADD23O,2.200000X2.200000*%
%TD*%
%TA.AperFunction,ComponentPad*%
%ADD24R,1.050000X1.500000*%
%TD*%
%TA.AperFunction,ComponentPad*%
%ADD25O,1.050000X1.500000*%
%TD*%
%TA.AperFunction,ComponentPad*%
%ADD26C,1.600000*%
%TD*%
%TA.AperFunction,ComponentPad*%
%ADD27O,1.600000X1.600000*%
%TD*%
%TA.AperFunction,ComponentPad*%
%ADD28R,1.920000X1.920000*%
%TD*%
%TA.AperFunction,ComponentPad*%
%ADD29C,1.920000*%
%TD*%
%TA.AperFunction,ComponentPad*%
%ADD30R,1.600000X1.600000*%
%TD*%
%TA.AperFunction,ComponentPad*%
%ADD31R,1.700000X1.700000*%
%TD*%
%TA.AperFunction,ComponentPad*%
%ADD32O,1.700000X1.700000*%
%TD*%
%TA.AperFunction,ComponentPad*%
%ADD33C,2.000000*%
%TD*%
%TA.AperFunction,ComponentPad*%
%ADD34O,2.000000X2.000000*%
%TD*%
%TA.AperFunction,ComponentPad*%
%ADD35R,1.500000X1.050000*%
%TD*%
%TA.AperFunction,ComponentPad*%
%ADD36O,1.500000X1.050000*%
%TD*%
%TA.AperFunction,ComponentPad*%
%ADD37R,2.250000X2.250000*%
%TD*%
%TA.AperFunction,ComponentPad*%
%ADD38C,2.250000*%
%TD*%
%TA.AperFunction,ComponentPad*%
%ADD39R,2.600000X2.600000*%
%TD*%
%TA.AperFunction,ComponentPad*%
%ADD40C,2.600000*%
%TD*%
%TA.AperFunction,ComponentPad*%
%ADD41R,1.150000X1.150000*%
%TD*%
%TA.AperFunction,ComponentPad*%
%ADD42C,1.150000*%
%TD*%
%TA.AperFunction,ComponentPad*%
%ADD43C,1.440000*%
%TD*%
%TA.AperFunction,ComponentPad*%
%ADD44R,1.160000X1.160000*%
%TD*%
%TA.AperFunction,ComponentPad*%
%ADD45C,1.160000*%
%TD*%
%TA.AperFunction,ComponentPad*%
%ADD46C,2.360000*%
%TD*%
%TA.AperFunction,ComponentPad*%
%ADD47R,1.130000X1.130000*%
%TD*%
%TA.AperFunction,ComponentPad*%
%ADD48C,1.130000*%
%TD*%
%TA.AperFunction,SMDPad,CuDef*%
%ADD49R,1.925000X0.650000*%
%TD*%
%TA.AperFunction,ViaPad*%
%ADD50C,0.600000*%
%TD*%
%TA.AperFunction,Conductor*%
%ADD51C,0.508000*%
%TD*%
%TA.AperFunction,Conductor*%
%ADD52C,0.635000*%
%TD*%
%TA.AperFunction,Conductor*%
%ADD53C,0.250000*%
%TD*%
%TA.AperFunction,Conductor*%
%ADD54C,0.762000*%
%TD*%
%TA.AperFunction,Conductor*%
%ADD55C,1.524000*%
%TD*%
%TA.AperFunction,Conductor*%
%ADD56C,0.889000*%
%TD*%
G04 APERTURE END LIST*
D10*
%TO.P,Q22,1*%
%TO.N,Net-(Q22-Pad1)*%
X70584100Y-95867200D03*
D11*
%TO.P,Q22,2*%
%TO.N,+3.3VA*%
X70584100Y-98407200D03*
%TO.P,Q22,3*%
%TO.N,+3.3VP*%
X70584100Y-100947200D03*
%TD*%
D12*
%TO.P,K1,1,COM_1*%
%TO.N,Net-(K1-Pad1)*%
X205074100Y-84663800D03*
%TO.P,K1,2,COIL_1*%
%TO.N,+5V*%
X202534100Y-84663800D03*
%TO.P,K1,6,COIL_2*%
%TO.N,Net-(K1-Pad6)*%
X192374100Y-84663800D03*
%TO.P,K1,7,NO_1*%
%TO.N,Sense2-2*%
X189834100Y-84663800D03*
%TO.P,K1,8,NO_2*%
X189834100Y-92283800D03*
%TO.P,K1,9,NTC_1*%
%TO.N,unconnected-(K1-Pad9)*%
X192374100Y-92283800D03*
%TO.P,K1,13,NTC_2*%
%TO.N,unconnected-(K1-Pad13)*%
X202534100Y-92283800D03*
%TO.P,K1,14,COM_2*%
%TO.N,Net-(K1-Pad1)*%
X205074100Y-92283800D03*
%TD*%
D13*
%TO.P,IC19,1,GND*%
%TO.N,GND*%
X165471400Y-105049500D03*
%TO.P,IC19,2,~{RESET}*%
%TO.N,Net-(IC19-Pad2)*%
X165471400Y-106949500D03*
%TO.P,IC19,3,VCC*%
%TO.N,+3.3VP*%
X163371400Y-105999500D03*
%TD*%
D14*
%TO.P,C31,1*%
%TO.N,Net-(C31-Pad1)*%
X232393984Y-88385908D03*
%TO.P,C31,2*%
%TO.N,GND*%
X232393984Y-86310908D03*
%TD*%
D15*
%TO.P,P4,1,Pin_1*%
%TO.N,GND*%
X178021100Y-143971900D03*
D16*
%TO.P,P4,2,Pin_2*%
X180561100Y-143971900D03*
%TO.P,P4,3,Pin_3*%
%TO.N,SCLK*%
X178021100Y-141431900D03*
%TO.P,P4,4,Pin_4*%
%TO.N,unconnected-(P4-Pad4)*%
X180561100Y-141431900D03*
%TO.P,P4,5,Pin_5*%
%TO.N,MISO*%
X178021100Y-138891900D03*
%TO.P,P4,6,Pin_6*%
%TO.N,MOSI*%
X180561100Y-138891900D03*
%TO.P,P4,7,Pin_7*%
%TO.N,WaterCS*%
X178021100Y-136351900D03*
%TO.P,P4,8,Pin_8*%
%TO.N,Logging*%
X180561100Y-136351900D03*
%TO.P,P4,9,Pin_9*%
%TO.N,LsideCS*%
X178021100Y-133811900D03*
%TO.P,P4,10,Pin_10*%
%TO.N,IN3TTL*%
X180561100Y-133811900D03*
%TO.P,P4,11,Pin_11*%
%TO.N,RsideCS*%
X178021100Y-131271900D03*
%TO.P,P4,12,Pin_12*%
%TO.N,OUTPUTLED2*%
X180561100Y-131271900D03*
%TO.P,P4,13,Pin_13*%
%TO.N,FrontCS*%
X178021100Y-128731900D03*
%TO.P,P4,14,Pin_14*%
%TO.N,OUTPUTLED1*%
X180561100Y-128731900D03*
%TO.P,P4,15,Pin_15*%
%TO.N,AmbientCS*%
X178021100Y-126191900D03*
%TO.P,P4,16,Pin_16*%
%TO.N,RPMEN*%
X180561100Y-126191900D03*
%TO.P,P4,17,Pin_17*%
%TO.N,CarbCS*%
X178021100Y-123651900D03*
%TO.P,P4,18,Pin_18*%
%TO.N,unconnected-(P4-Pad18)*%
X180561100Y-123651900D03*
%TO.P,P4,19,Pin_19*%
%TO.N,SDCS*%
X178021100Y-121111900D03*
%TO.P,P4,20,Pin_20*%
%TO.N,unconnected-(P4-Pad20)*%
X180561100Y-121111900D03*
%TO.P,P4,21,Pin_21*%
%TO.N,SDDetect*%
X178021100Y-118571900D03*
%TO.P,P4,22,Pin_22*%
%TO.N,unconnected-(P4-Pad22)*%
X180561100Y-118571900D03*
%TO.P,P4,23,Pin_23*%
%TO.N,unconnected-(P4-Pad23)*%
X178021100Y-116031900D03*
%TO.P,P4,24,Pin_24*%
%TO.N,unconnected-(P4-Pad24)*%
X180561100Y-116031900D03*
%TO.P,P4,25,Pin_25*%
%TO.N,unconnected-(P4-Pad25)*%
X178021100Y-113491900D03*
%TO.P,P4,26,Pin_26*%
%TO.N,unconnected-(P4-Pad26)*%
X180561100Y-113491900D03*
%TO.P,P4,27,Pin_27*%
%TO.N,unconnected-(P4-Pad27)*%
X178021100Y-110951900D03*
%TO.P,P4,28,Pin_28*%
%TO.N,unconnected-(P4-Pad28)*%
X180561100Y-110951900D03*
%TO.P,P4,29,Pin_29*%
%TO.N,unconnected-(P4-Pad29)*%
X178021100Y-108411900D03*
%TO.P,P4,30,Pin_30*%
%TO.N,SWSCLK*%
X180561100Y-108411900D03*
%TO.P,P4,31,Pin_31*%
%TO.N,unconnected-(P4-Pad31)*%
X178021100Y-105871900D03*
%TO.P,P4,32,Pin_32*%
%TO.N,SWMISO*%
X180561100Y-105871900D03*
%TO.P,P4,33,Pin_33*%
%TO.N,unconnected-(P4-Pad33)*%
X178021100Y-103331900D03*
%TO.P,P4,34,Pin_34*%
%TO.N,SWMOSI*%
X180561100Y-103331900D03*
%TO.P,P4,35,Pin_35*%
%TO.N,unconnected-(P4-Pad35)*%
X178021100Y-100791900D03*
%TO.P,P4,36,Pin_36*%
%TO.N,unconnected-(P4-Pad36)*%
X180561100Y-100791900D03*
%TD*%
D17*
%TO.P,P1,1,Pin_1*%
%TO.N,unconnected-(P1-Pad1)*%
X111981100Y-149051900D03*
%TO.P,P1,2,Pin_2*%
%TO.N,unconnected-(P1-Pad2)*%
X114521100Y-149051900D03*
%TO.P,P1,3,Pin_3*%
%TO.N,unconnected-(P1-Pad3)*%
X117061100Y-149051900D03*
%TO.P,P1,4,Pin_4*%
%TO.N,unconnected-(P1-Pad4)*%
X119601100Y-149051900D03*
%TO.P,P1,5,Pin_5*%
%TO.N,unconnected-(P1-Pad5)*%
X122141100Y-149051900D03*
%TO.P,P1,6,Pin_6*%
%TO.N,GND*%
X124681100Y-149051900D03*
%TO.P,P1,7,Pin_7*%
X127221100Y-149051900D03*
%TO.P,P1,8,Pin_8*%
%TO.N,+10V*%
X129761100Y-149051900D03*
%TD*%
%TO.P,P2,1,Pin_1*%
%TO.N,VoltageSensor*%
X134841100Y-149051900D03*
%TO.P,P2,2,Pin_2*%
%TO.N,/A1*%
X137381100Y-149051900D03*
%TO.P,P2,3,Pin_3*%
%TO.N,Vacuum1*%
X139921100Y-149051900D03*
%TO.P,P2,4,Pin_4*%
%TO.N,Vacuum2*%
X142461100Y-149051900D03*
%TO.P,P2,5,Pin_5*%
%TO.N,AltCurrent*%
X145001100Y-149051900D03*
%TO.P,P2,6,Pin_6*%
%TO.N,FuelPressure1*%
X147541100Y-149051900D03*
%TO.P,P2,7,Pin_7*%
%TO.N,FuelPressure2*%
X150081100Y-149051900D03*
%TO.P,P2,8,Pin_8*%
%TO.N,OilPressure*%
X152621100Y-149051900D03*
%TD*%
%TO.P,P3,1,Pin_1*%
%TO.N,AFR1*%
X157701100Y-149051900D03*
%TO.P,P3,2,Pin_2*%
%TO.N,AFR2*%
X160241100Y-149051900D03*
%TO.P,P3,3,Pin_3*%
%TO.N,/A10*%
X162781100Y-149051900D03*
%TO.P,P3,4,Pin_4*%
%TO.N,GPSBat*%
X165321100Y-149051900D03*
%TO.P,P3,5,Pin_5*%
%TO.N,ThrottlePositionADC*%
X167861100Y-149051900D03*
%TO.P,P3,6,Pin_6*%
%TO.N,SpareBufferedADC*%
X170401100Y-149051900D03*
%TO.P,P3,7,Pin_7*%
%TO.N,unconnected-(P3-Pad7)*%
X172941100Y-149051900D03*
%TO.P,P3,8,Pin_8*%
%TO.N,unconnected-(P3-Pad8)*%
X175481100Y-149051900D03*
%TD*%
%TO.P,P5,1,Pin_1*%
%TO.N,SCL*%
X102837100Y-100791900D03*
%TO.P,P5,2,Pin_2*%
%TO.N,SDA*%
X105377100Y-100791900D03*
%TO.P,P5,3,Pin_3*%
%TO.N,unconnected-(P5-Pad3)*%
X107917100Y-100791900D03*
%TO.P,P5,4,Pin_4*%
%TO.N,GND*%
X110457100Y-100791900D03*
%TO.P,P5,5,Pin_5*%
%TO.N,unconnected-(P5-Pad5)*%
X112997100Y-100791900D03*
%TO.P,P5,6,Pin_6*%
%TO.N,unconnected-(P5-Pad6)*%
X115537100Y-100791900D03*
%TO.P,P5,7,Pin_7*%
%TO.N,unconnected-(P5-Pad7)*%
X118077100Y-100791900D03*
%TO.P,P5,8,Pin_8*%
%TO.N,unconnected-(P5-Pad8)*%
X120617100Y-100791900D03*
%TO.P,P5,9,Pin_9*%
%TO.N,unconnected-(P5-Pad9)*%
X123157100Y-100791900D03*
%TO.P,P5,10,Pin_10*%
%TO.N,OUTPUTSiren*%
X125697100Y-100791900D03*
%TD*%
%TO.P,P6,1,Pin_1*%
%TO.N,OUTPUT4*%
X129761100Y-100791900D03*
%TO.P,P6,2,Pin_2*%
%TO.N,OUTPUT3*%
X132301100Y-100791900D03*
%TO.P,P6,3,Pin_3*%
%TO.N,OUTPUT2*%
X134841100Y-100791900D03*
%TO.P,P6,4,Pin_4*%
%TO.N,OUTPUT1*%
X137381100Y-100791900D03*
%TO.P,P6,5,Pin_5*%
%TO.N,IN2TTL*%
X139921100Y-100791900D03*
%TO.P,P6,6,Pin_6*%
%TO.N,IN1TTL*%
X142461100Y-100791900D03*
%TO.P,P6,7,Pin_7*%
%TO.N,unconnected-(P6-Pad7)*%
X145001100Y-100791900D03*
%TO.P,P6,8,Pin_8*%
%TO.N,unconnected-(P6-Pad8)*%
X147541100Y-100791900D03*
%TD*%
%TO.P,P7,1,Pin_1*%
%TO.N,GPSRX*%
X152621100Y-100791900D03*
%TO.P,P7,2,Pin_2*%
%TO.N,GPSTX*%
X155161100Y-100791900D03*
%TO.P,P7,3,Pin_3*%
%TO.N,Com1TX*%
X157701100Y-100791900D03*
%TO.P,P7,4,Pin_4*%
%TO.N,Com1RX*%
X160241100Y-100791900D03*
%TO.P,P7,5,Pin_5*%
%TO.N,Com2TX*%
X162781100Y-100791900D03*
%TO.P,P7,6,Pin_6*%
%TO.N,Com2RX*%
X165321100Y-100791900D03*
%TO.P,P7,7,Pin_7*%
%TO.N,SDA*%
X167861100Y-100791900D03*
%TO.P,P7,8,Pin_8*%
%TO.N,SCL*%
X170401100Y-100791900D03*
%TD*%
D18*
%TO.P,P8,1,Pin_1*%
%TO.N,unconnected-(P8-Pad1)*%
X98011100Y-149051900D03*
%TD*%
%TO.P,P9,1,Pin_1*%
%TO.N,unconnected-(P9-Pad1)*%
X150081100Y-143971900D03*
%TD*%
%TO.P,P10,1,Pin_1*%
%TO.N,unconnected-(P10-Pad1)*%
X180561100Y-149051900D03*
%TD*%
%TO.P,P11,1,Pin_1*%
%TO.N,unconnected-(P11-Pad1)*%
X99281100Y-100791900D03*
%TD*%
%TO.P,P12,1,Pin_1*%
%TO.N,unconnected-(P12-Pad1)*%
X150081100Y-116031900D03*
%TD*%
%TO.P,P13,1,Pin_1*%
%TO.N,unconnected-(P13-Pad1)*%
X174211100Y-100791900D03*
%TD*%
D19*
%TO.P,J4,1,1*%
%TO.N,Sense1-1*%
X196101600Y-78302400D03*
%TO.P,J4,2,2*%
%TO.N,SCL*%
X198001600Y-70682400D03*
%TO.P,J4,3,3*%
%TO.N,Sense1-3*%
X196101600Y-59252400D03*
%TO.P,J4,4,4*%
%TO.N,Sense1-4*%
X192291600Y-78302400D03*
%TO.P,J4,5,5*%
%TO.N,SDA*%
X194191600Y-70682400D03*
%TO.P,J4,6,6*%
%TO.N,Sense1-6*%
X192291600Y-59252400D03*
%TO.P,J4,7,7*%
%TO.N,Sense1-7*%
X188481600Y-78302400D03*
%TO.P,J4,8,8*%
%TO.N,Sense1-8*%
X190381600Y-70682400D03*
%TO.P,J4,9,9*%
%TO.N,Sense1-9*%
X188481600Y-59252400D03*
%TO.P,J4,10,10*%
%TO.N,Sense1-10*%
X184671600Y-78302400D03*
%TO.P,J4,11,11*%
%TO.N,Sense1-11*%
X186571600Y-70682400D03*
%TO.P,J4,12,12*%
%TO.N,Sense1-12*%
X184671600Y-59252400D03*
%TD*%
%TO.P,J5,1,1*%
%TO.N,Sense2-1*%
X180857300Y-78302400D03*
%TO.P,J5,2,2*%
%TO.N,Sense2-2*%
X182757300Y-70682400D03*
%TO.P,J5,3,3*%
%TO.N,Sense2-3*%
X180857300Y-59252400D03*
%TO.P,J5,4,4*%
%TO.N,Sense2-4*%
X177047300Y-78302400D03*
%TO.P,J5,5,5*%
%TO.N,Sense2-5*%
X178947300Y-70682400D03*
%TO.P,J5,6,6*%
%TO.N,Sense2-6*%
X177047300Y-59252400D03*
%TO.P,J5,7,7*%
%TO.N,Sense2-7*%
X173237300Y-78302400D03*
%TO.P,J5,8,8*%
%TO.N,Sense2-8*%
X175137300Y-70682400D03*
%TO.P,J5,9,9*%
%TO.N,Sense2-9*%
X173237300Y-59252400D03*
%TO.P,J5,10,10*%
%TO.N,Sense2-10*%
X169427300Y-78302400D03*
%TO.P,J5,11,11*%
%TO.N,Sense2-11*%
X171327300Y-70682400D03*
%TO.P,J5,12,12*%
%TO.N,Sense2-12*%
X169427300Y-59252400D03*
%TD*%
D20*
%TO.P,D7,1*%
%TO.N,Net-(D7-Pad1)*%
X92892200Y-85548400D03*
D21*
%TO.P,D7,2*%
%TO.N,GND*%
X92892200Y-71448400D03*
%TD*%
D22*
%TO.P,D10,1,K*%
%TO.N,Net-(D10-Pad1)*%
X149922800Y-121993000D03*
D23*
%TO.P,D10,2,A*%
%TO.N,+3.3VP*%
X160082800Y-121993000D03*
%TD*%
D24*
%TO.P,Q8,1,S*%
%TO.N,GND*%
X160890100Y-84718700D03*
D25*
%TO.P,Q8,2,G*%
%TO.N,OUTPUTLED1*%
X162160100Y-84718700D03*
%TO.P,Q8,3,D*%
%TO.N,Net-(Q8-Pad3)*%
X163430100Y-84718700D03*
%TD*%
D26*
%TO.P,R43,1*%
%TO.N,+VDC*%
X168607800Y-86594000D03*
D27*
%TO.P,R43,2*%
%TO.N,Net-(Q10-Pad1)*%
X166067800Y-86594000D03*
%TD*%
D22*
%TO.P,D1,1,K*%
%TO.N,Net-(D1-Pad1)*%
X80706300Y-89808700D03*
D23*
%TO.P,D1,2,A*%
%TO.N,PowerOn*%
X80706300Y-79648700D03*
%TD*%
D24*
%TO.P,Q16,1,S*%
%TO.N,GND*%
X174624500Y-84413200D03*
D25*
%TO.P,Q16,2,G*%
%TO.N,OUTPUTSiren*%
X175894500Y-84413200D03*
%TO.P,Q16,3,D*%
%TO.N,Net-(Q16-Pad3)*%
X177164500Y-84413200D03*
%TD*%
D28*
%TO.P,Q13,1*%
%TO.N,Net-(Q13-Pad1)*%
X152969100Y-73847300D03*
D29*
%TO.P,Q13,2*%
%TO.N,Sense2-9*%
X152969100Y-76387300D03*
%TO.P,Q13,3*%
%TO.N,+VDC*%
X152969100Y-78927300D03*
%TD*%
D26*
%TO.P,R5,1*%
%TO.N,Sense2-1*%
X108144700Y-138243300D03*
D27*
%TO.P,R5,2*%
%TO.N,GND*%
X108144700Y-140783300D03*
%TD*%
D26*
%TO.P,R65,1*%
%TO.N,GND*%
X120056900Y-124116900D03*
D27*
%TO.P,R65,2*%
%TO.N,FuelPressure2*%
X122596900Y-124116900D03*
%TD*%
D26*
%TO.P,R71,1*%
%TO.N,GND*%
X172102200Y-135512100D03*
D27*
%TO.P,R71,2*%
%TO.N,Sense1-3*%
X174642200Y-135512100D03*
%TD*%
D26*
%TO.P,R56,1*%
%TO.N,Net-(Q18-Pad1)*%
X180195400Y-86247700D03*
D27*
%TO.P,R56,2*%
%TO.N,Net-(Q16-Pad3)*%
X182735400Y-86247700D03*
%TD*%
D28*
%TO.P,Q6,1*%
%TO.N,Net-(Q6-Pad1)*%
X88471600Y-71436700D03*
D29*
%TO.P,Q6,2*%
%TO.N,Net-(J21-Pad1)*%
X88471600Y-68896700D03*
%TO.P,Q6,3*%
%TO.N,Net-(Q6-Pad3)*%
X88471600Y-66356700D03*
%TD*%
D30*
%TO.P,C30,1*%
%TO.N,Net-(C30-Pad1)*%
X197993900Y-123904500D03*
D26*
%TO.P,C30,2*%
%TO.N,GND*%
X202993900Y-123904500D03*
%TD*%
%TO.P,R59,1*%
%TO.N,Net-(Q20-Pad1)*%
X147774100Y-51494800D03*
D27*
%TO.P,R59,2*%
%TO.N,Net-(Q19-Pad3)*%
X145234100Y-51494800D03*
%TD*%
D26*
%TO.P,R48,1*%
%TO.N,Net-(Q13-Pad1)*%
X147351500Y-76587800D03*
D27*
%TO.P,R48,2*%
%TO.N,Net-(Q11-Pad3)*%
X147351500Y-79127800D03*
%TD*%
D26*
%TO.P,R64,1*%
%TO.N,GND*%
X120006400Y-119516000D03*
D27*
%TO.P,R64,2*%
%TO.N,FuelPressure1*%
X122546400Y-119516000D03*
%TD*%
D26*
%TO.P,R22,1*%
%TO.N,Net-(IC9-Pad5)*%
X139843100Y-77085100D03*
D27*
%TO.P,R22,2*%
%TO.N,GND*%
X137303100Y-77085100D03*
%TD*%
D26*
%TO.P,R41,1*%
%TO.N,+VDC*%
X147061400Y-57723300D03*
D27*
%TO.P,R41,2*%
%TO.N,Net-(Q9-Pad1)*%
X149601400Y-57723300D03*
%TD*%
D31*
%TO.P,J24,1,Pin_1*%
%TO.N,Net-(J24-Pad1)*%
X181186800Y-92877800D03*
D32*
%TO.P,J24,2,Pin_2*%
%TO.N,Net-(IC14-Pad1)*%
X181186800Y-95417800D03*
%TD*%
D33*
%TO.P,L2,1,1*%
%TO.N,Net-(D7-Pad1)*%
X96052200Y-86102400D03*
D34*
%TO.P,L2,2,2*%
%TO.N,+10V*%
X111292200Y-86102400D03*
%TD*%
D26*
%TO.P,R21,1*%
%TO.N,Net-(Q6-Pad1)*%
X79687400Y-66002600D03*
D27*
%TO.P,R21,2*%
%TO.N,GND*%
X79687400Y-63462600D03*
%TD*%
D26*
%TO.P,R61,1*%
%TO.N,Net-(Q21-Pad1)*%
X79730500Y-69077500D03*
D27*
%TO.P,R61,2*%
%TO.N,Net-(Q5-Pad3)*%
X82270500Y-69077500D03*
%TD*%
D31*
%TO.P,T3,1,Pin_1*%
%TO.N,+5V*%
X185205600Y-133341400D03*
D32*
%TO.P,T3,2,Pin_2*%
%TO.N,GND*%
X185205600Y-135881400D03*
%TO.P,T3,3,Pin_3*%
%TO.N,unconnected-(T3-Pad3)*%
X185205600Y-138421400D03*
%TO.P,T3,4,Pin_4*%
%TO.N,RTDSCLK*%
X185205600Y-140961400D03*
%TO.P,T3,5,Pin_5*%
%TO.N,RTDMISO*%
X185205600Y-143501400D03*
%TO.P,T3,6,Pin_6*%
%TO.N,RTDMOSI*%
X185205600Y-146041400D03*
%TO.P,T3,7,Pin_7*%
%TO.N,RsideCS*%
X185205600Y-148581400D03*
%TO.P,T3,8,Pin_8*%
%TO.N,unconnected-(T3-Pad8)*%
X185205600Y-151121400D03*
%TD*%
D20*
%TO.P,D8,1*%
%TO.N,Net-(D8-Pad1)*%
X114476300Y-50716300D03*
D21*
%TO.P,D8,2*%
%TO.N,GND*%
X114476300Y-64816300D03*
%TD*%
D26*
%TO.P,R58,1*%
%TO.N,+VDC*%
X145684100Y-54609900D03*
D27*
%TO.P,R58,2*%
%TO.N,Net-(Q20-Pad1)*%
X148224100Y-54609900D03*
%TD*%
D24*
%TO.P,Q23,1,S*%
%TO.N,GND*%
X70303900Y-89526600D03*
D25*
%TO.P,Q23,2,G*%
%TO.N,Net-(D1-Pad1)*%
X71573900Y-89526600D03*
%TO.P,Q23,3,D*%
%TO.N,Net-(Q22-Pad1)*%
X72843900Y-89526600D03*
%TD*%
D35*
%TO.P,Q2,1,S*%
%TO.N,GND*%
X80900100Y-143056000D03*
D36*
%TO.P,Q2,2,G*%
%TO.N,Sense2-10*%
X80900100Y-141786000D03*
%TO.P,Q2,3,D*%
%TO.N,Net-(D3-Pad1)*%
X80900100Y-140516000D03*
%TD*%
D37*
%TO.P,D6,1*%
%TO.N,Net-(C15-Pad2)*%
X120888400Y-83319600D03*
D38*
%TO.P,D6,2*%
%TO.N,GND*%
X120888400Y-54719600D03*
%TD*%
D31*
%TO.P,J9,1,Pin_1*%
%TO.N,/Sheet6152913C/RSCOM2TX*%
X110783000Y-129287000D03*
D32*
%TO.P,J9,2,Pin_2*%
%TO.N,/Sheet6152913C/RSCOM2RX*%
X113323000Y-129287000D03*
%TO.P,J9,3,Pin_3*%
%TO.N,GND*%
X115863000Y-129287000D03*
%TD*%
D35*
%TO.P,U2,1,REF*%
%TO.N,Net-(IC12-Pad5)*%
X126761900Y-107716700D03*
D36*
%TO.P,U2,2,A*%
%TO.N,GND*%
X126761900Y-106446700D03*
%TO.P,U2,3,K*%
%TO.N,Net-(IC12-Pad5)*%
X126761900Y-105176700D03*
%TD*%
D24*
%TO.P,Q24,1,D*%
%TO.N,/A1*%
X156465700Y-115613100D03*
D25*
%TO.P,Q24,2,G*%
%TO.N,Net-(IC19-Pad2)*%
X157735700Y-115613100D03*
%TO.P,Q24,3,S*%
%TO.N,Net-(D10-Pad1)*%
X159005700Y-115613100D03*
%TD*%
D26*
%TO.P,L4,1,1*%
%TO.N,Net-(D9-Pad1)*%
X199771300Y-98617200D03*
D27*
%TO.P,L4,2,2*%
%TO.N,GND*%
X189611300Y-98617200D03*
%TD*%
D24*
%TO.P,Q15,1,S*%
%TO.N,GND*%
X140001700Y-90159900D03*
D25*
%TO.P,Q15,2,G*%
%TO.N,OUTPUT4*%
X141271700Y-90159900D03*
%TO.P,Q15,3,D*%
%TO.N,Net-(Q15-Pad3)*%
X142541700Y-90159900D03*
%TD*%
D26*
%TO.P,R31,1*%
%TO.N,+5V*%
X125172400Y-110772600D03*
D27*
%TO.P,R31,2*%
%TO.N,Net-(IC12-Pad5)*%
X127712400Y-110772600D03*
%TD*%
D26*
%TO.P,R67,1*%
%TO.N,GND*%
X137262100Y-122136700D03*
D27*
%TO.P,R67,2*%
%TO.N,ThrottlePositionADC*%
X139802100Y-122136700D03*
%TD*%
D26*
%TO.P,R24,1*%
%TO.N,GND*%
X103527600Y-91520800D03*
D27*
%TO.P,R24,2*%
%TO.N,Net-(C19-Pad1)*%
X106067600Y-91520800D03*
%TD*%
D39*
%TO.P,J21,1,Pin_1*%
%TO.N,Net-(J21-Pad1)*%
X91265200Y-55743100D03*
D40*
%TO.P,J21,2,Pin_2*%
%TO.N,GND*%
X86185200Y-55743100D03*
%TO.P,J21,3,Pin_3*%
%TO.N,PowerOn*%
X81105200Y-55743100D03*
%TD*%
D31*
%TO.P,T4,1,Pin_1*%
%TO.N,+5V*%
X204282700Y-133341400D03*
D32*
%TO.P,T4,2,Pin_2*%
%TO.N,GND*%
X204282700Y-135881400D03*
%TO.P,T4,3,Pin_3*%
%TO.N,unconnected-(T4-Pad3)*%
X204282700Y-138421400D03*
%TO.P,T4,4,Pin_4*%
%TO.N,RTDSCLK*%
X204282700Y-140961400D03*
%TO.P,T4,5,Pin_5*%
%TO.N,RTDMISO*%
X204282700Y-143501400D03*
%TO.P,T4,6,Pin_6*%
%TO.N,RTDMOSI*%
X204282700Y-146041400D03*
%TO.P,T4,7,Pin_7*%
%TO.N,FrontCS*%
X204282700Y-148581400D03*
%TO.P,T4,8,Pin_8*%
%TO.N,unconnected-(T4-Pad8)*%
X204282700Y-151121400D03*
%TD*%
D26*
%TO.P,C19,1*%
%TO.N,Net-(C19-Pad1)*%
X103764500Y-95181000D03*
%TO.P,C19,2*%
%TO.N,+10V*%
X111264500Y-95181000D03*
%TD*%
D30*
%TO.P,C14,1*%
%TO.N,+VSW*%
X113074300Y-80554800D03*
D26*
%TO.P,C14,2*%
%TO.N,GND*%
X113074300Y-78054800D03*
%TD*%
%TO.P,R46,1*%
%TO.N,OUTPUTLED2*%
X154933700Y-95182900D03*
D27*
%TO.P,R46,2*%
%TO.N,GND*%
X152393700Y-95182900D03*
%TD*%
D26*
%TO.P,R9,1*%
%TO.N,Sense2-7*%
X118390500Y-142064600D03*
D27*
%TO.P,R9,2*%
%TO.N,GND*%
X118390500Y-144604600D03*
%TD*%
D26*
%TO.P,R72,1*%
%TO.N,GND*%
X166193800Y-130785400D03*
D27*
%TO.P,R72,2*%
%TO.N,Sense1-6*%
X168733800Y-130785400D03*
%TD*%
D24*
%TO.P,Q19,1,S*%
%TO.N,GND*%
X138302400Y-54077800D03*
D25*
%TO.P,Q19,2,G*%
%TO.N,OUTPUT1*%
X139572400Y-54077800D03*
%TO.P,Q19,3,D*%
%TO.N,Net-(Q19-Pad3)*%
X140842400Y-54077800D03*
%TD*%
D31*
%TO.P,J6,1,Pin_1*%
%TO.N,unconnected-(J6-Pad1)*%
X93896800Y-105925600D03*
D32*
%TO.P,J6,2,Pin_2*%
%TO.N,unconnected-(J6-Pad2)*%
X91356800Y-105925600D03*
%TO.P,J6,3,Pin_3*%
%TO.N,GPSBat*%
X88816800Y-105925600D03*
%TO.P,J6,4,Pin_4*%
%TO.N,unconnected-(J6-Pad4)*%
X86276800Y-105925600D03*
%TO.P,J6,5,Pin_5*%
%TO.N,GPSTX*%
X83736800Y-105925600D03*
%TO.P,J6,6,Pin_6*%
%TO.N,GPSRX*%
X81196800Y-105925600D03*
%TO.P,J6,7,Pin_7*%
%TO.N,GND*%
X78656800Y-105925600D03*
%TO.P,J6,8,Pin_8*%
%TO.N,+5V*%
X76116800Y-105925600D03*
%TO.P,J6,9,Pin_9*%
%TO.N,unconnected-(J6-Pad9)*%
X73576800Y-105925600D03*
%TD*%
D26*
%TO.P,R37,1*%
%TO.N,+5V*%
X153369000Y-108072800D03*
D27*
%TO.P,R37,2*%
%TO.N,SCL*%
X153369000Y-110612800D03*
%TD*%
D26*
%TO.P,C2,1*%
%TO.N,Sense2-7*%
X119512100Y-132503500D03*
%TO.P,C2,2*%
%TO.N,GND*%
X119512100Y-137503500D03*
%TD*%
D28*
%TO.P,Q20,1*%
%TO.N,Net-(Q20-Pad1)*%
X152969100Y-50748700D03*
D29*
%TO.P,Q20,2*%
%TO.N,Sense2-3*%
X152969100Y-53288700D03*
%TO.P,Q20,3*%
%TO.N,+VDC*%
X152969100Y-55828700D03*
%TD*%
D26*
%TO.P,R33,1*%
%TO.N,Net-(IC14-Pad1)*%
X224611300Y-86399600D03*
D27*
%TO.P,R33,2*%
%TO.N,GND*%
X222071300Y-86399600D03*
%TD*%
D31*
%TO.P,J22,1,Pin_1*%
%TO.N,GND*%
X94384900Y-97908600D03*
D32*
%TO.P,J22,2,Pin_2*%
%TO.N,+2V5*%
X91844900Y-97908600D03*
%TO.P,J22,3,Pin_3*%
%TO.N,+VDC*%
X89304900Y-97908600D03*
%TO.P,J22,4,Pin_4*%
%TO.N,+5V*%
X86764900Y-97908600D03*
%TO.P,J22,5,Pin_5*%
%TO.N,+3.3VA*%
X84224900Y-97908600D03*
%TO.P,J22,6,Pin_6*%
%TO.N,+10V*%
X81684900Y-97908600D03*
%TO.P,J22,7,Pin_7*%
%TO.N,+VSW*%
X79144900Y-97908600D03*
%TD*%
D26*
%TO.P,R2,1*%
%TO.N,GND*%
X154518800Y-135417500D03*
D27*
%TO.P,R2,2*%
%TO.N,Sense1-10*%
X157058800Y-135417500D03*
%TD*%
D41*
%TO.P,Z5,1*%
%TO.N,+VDC*%
X139400400Y-84637100D03*
D42*
%TO.P,Z5,2*%
%TO.N,Net-(Q17-Pad1)*%
X150100400Y-84637100D03*
%TD*%
D26*
%TO.P,C36,1*%
%TO.N,+5V*%
X158411400Y-104207200D03*
%TO.P,C36,2*%
%TO.N,GND*%
X158411400Y-111707200D03*
%TD*%
%TO.P,R49,1*%
%TO.N,+VDC*%
X165995500Y-91505500D03*
D27*
%TO.P,R49,2*%
%TO.N,Net-(Q14-Pad1)*%
X163455500Y-91505500D03*
%TD*%
D20*
%TO.P,D9,1*%
%TO.N,Net-(D9-Pad1)*%
X189287900Y-115880600D03*
D21*
%TO.P,D9,2*%
%TO.N,Net-(C30-Pad1)*%
X189287900Y-101780600D03*
%TD*%
D26*
%TO.P,R1,1*%
%TO.N,+5V*%
X218111900Y-89695600D03*
D27*
%TO.P,R1,2*%
%TO.N,SDDetect*%
X218111900Y-87155600D03*
%TD*%
D24*
%TO.P,Q12,1,S*%
%TO.N,GND*%
X158237900Y-92748100D03*
D25*
%TO.P,Q12,2,G*%
%TO.N,OUTPUTLED2*%
X159507900Y-92748100D03*
%TO.P,Q12,3,D*%
%TO.N,Net-(Q12-Pad3)*%
X160777900Y-92748100D03*
%TD*%
D30*
%TO.P,C39,1*%
%TO.N,GND*%
X105777600Y-104378800D03*
D26*
%TO.P,C39,2*%
%TO.N,Net-(C39-Pad2)*%
X105777600Y-106878800D03*
%TD*%
D30*
%TO.P,C40,1*%
%TO.N,Net-(C40-Pad1)*%
X101718200Y-117243200D03*
D26*
%TO.P,C40,2*%
%TO.N,+5V*%
X101718200Y-119743200D03*
%TD*%
%TO.P,R11,1*%
%TO.N,+5V*%
X74694700Y-124310600D03*
D27*
%TO.P,R11,2*%
%TO.N,Net-(IC7-Pad7)*%
X77234700Y-124310600D03*
%TD*%
D26*
%TO.P,R8,1*%
%TO.N,Sense2-10*%
X80495900Y-146081600D03*
D27*
%TO.P,R8,2*%
%TO.N,GND*%
X80495900Y-148621600D03*
%TD*%
D26*
%TO.P,C16,1*%
%TO.N,+VSW*%
X115811000Y-75003600D03*
%TO.P,C16,2*%
%TO.N,GND*%
X115811000Y-67503600D03*
%TD*%
%TO.P,R10,1*%
%TO.N,Sense2-4*%
X108188900Y-144400100D03*
D27*
%TO.P,R10,2*%
%TO.N,GND*%
X108188900Y-146940100D03*
%TD*%
D26*
%TO.P,R47,1*%
%TO.N,+VDC*%
X147470900Y-69262600D03*
D27*
%TO.P,R47,2*%
%TO.N,Net-(Q13-Pad1)*%
X150010900Y-69262600D03*
%TD*%
D43*
%TO.P,RV2,1,1*%
%TO.N,Net-(IC14-Pad4)*%
X234269300Y-71412700D03*
%TO.P,RV2,2,2*%
%TO.N,Net-(J31-Pad1)*%
X234269300Y-73952700D03*
%TO.P,RV2,3,3*%
%TO.N,GND*%
X234269300Y-76492700D03*
%TD*%
D26*
%TO.P,R12,1*%
%TO.N,Net-(D1-Pad1)*%
X79646200Y-76718500D03*
D27*
%TO.P,R12,2*%
%TO.N,GND*%
X82186200Y-76718500D03*
%TD*%
D26*
%TO.P,R32,1*%
%TO.N,Net-(K1-Pad1)*%
X222515100Y-83302700D03*
D27*
%TO.P,R32,2*%
%TO.N,Net-(IC14-Pad1)*%
X225055100Y-83302700D03*
%TD*%
D24*
%TO.P,Q3,1,S*%
%TO.N,GND*%
X115308000Y-142905600D03*
D25*
%TO.P,Q3,2,G*%
%TO.N,Sense2-7*%
X114038000Y-142905600D03*
%TO.P,Q3,3,D*%
%TO.N,Net-(D2-Pad1)*%
X112768000Y-142905600D03*
%TD*%
D44*
%TO.P,IC13,1,OUT*%
%TO.N,Net-(C30-Pad1)*%
X192128300Y-102051900D03*
D45*
%TO.P,IC13,2,FB*%
%TO.N,Net-(C27-Pad1)*%
X192128300Y-104591900D03*
%TO.P,IC13,3,SHDN*%
%TO.N,GND*%
X192128300Y-107131900D03*
%TO.P,IC13,4,REF*%
%TO.N,Net-(C27-Pad1)*%
X192128300Y-109671900D03*
%TO.P,IC13,5,GND*%
%TO.N,GND*%
X199748300Y-109671900D03*
%TO.P,IC13,6,V+_1*%
%TO.N,Net-(C28-Pad1)*%
X199748300Y-107131900D03*
%TO.P,IC13,7,V+_2*%
X199748300Y-104591900D03*
%TO.P,IC13,8,LX*%
%TO.N,Net-(D9-Pad1)*%
X199748300Y-102051900D03*
%TD*%
D31*
%TO.P,J8,1,Pin_1*%
%TO.N,SWMOSI*%
X229872200Y-121547800D03*
D32*
%TO.P,J8,2,Pin_2*%
%TO.N,RTDMOSI*%
X229872200Y-124087800D03*
%TO.P,J8,3,Pin_3*%
%TO.N,MOSI*%
X229872200Y-126627800D03*
%TD*%
D26*
%TO.P,R42,1*%
%TO.N,Net-(Q9-Pad1)*%
X147908100Y-63328600D03*
D27*
%TO.P,R42,2*%
%TO.N,Net-(Q7-Pad3)*%
X145368100Y-63328600D03*
%TD*%
D26*
%TO.P,C15,1*%
%TO.N,Net-(C15-Pad1)*%
X125959500Y-92097700D03*
%TO.P,C15,2*%
%TO.N,Net-(C15-Pad2)*%
X125959500Y-84597700D03*
%TD*%
%TO.P,R34,1*%
%TO.N,Net-(C32-Pad1)*%
X222538900Y-89478600D03*
D27*
%TO.P,R34,2*%
%TO.N,GND*%
X225078900Y-89478600D03*
%TD*%
D30*
%TO.P,C18,1*%
%TO.N,+5V*%
X134997900Y-87964700D03*
D26*
%TO.P,C18,2*%
%TO.N,GND*%
X129997900Y-87964700D03*
%TD*%
D28*
%TO.P,Q17,1*%
%TO.N,Net-(Q17-Pad1)*%
X152969100Y-85396500D03*
D29*
%TO.P,Q17,2*%
%TO.N,Sense2-12*%
X152969100Y-87936500D03*
%TO.P,Q17,3*%
%TO.N,+VDC*%
X152969100Y-90476500D03*
%TD*%
D33*
%TO.P,C27,1*%
%TO.N,Net-(C27-Pad1)*%
X211031400Y-119290600D03*
%TO.P,C27,2*%
%TO.N,GND*%
X211031400Y-129290600D03*
%TD*%
%TO.P,C29,1*%
%TO.N,Net-(C28-Pad1)*%
X218110400Y-119260900D03*
%TO.P,C29,2*%
%TO.N,GND*%
X218110400Y-129260900D03*
%TD*%
D30*
%TO.P,C13,1*%
%TO.N,+VSW*%
X110508700Y-70406100D03*
D26*
%TO.P,C13,2*%
%TO.N,GND*%
X110508700Y-67906100D03*
%TD*%
%TO.P,R69,1*%
%TO.N,GND*%
X137248100Y-128241300D03*
D27*
%TO.P,R69,2*%
%TO.N,AFR2*%
X139788100Y-128241300D03*
%TD*%
D24*
%TO.P,Q11,1,S*%
%TO.N,GND*%
X140261800Y-64541200D03*
D25*
%TO.P,Q11,2,G*%
%TO.N,OUTPUT3*%
X141531800Y-64541200D03*
%TO.P,Q11,3,D*%
%TO.N,Net-(Q11-Pad3)*%
X142801800Y-64541200D03*
%TD*%
D26*
%TO.P,R20,1*%
%TO.N,GND*%
X154613400Y-130738100D03*
D27*
%TO.P,R20,2*%
%TO.N,Sense1-4*%
X157153400Y-130738100D03*
%TD*%
D26*
%TO.P,R66,1*%
%TO.N,GND*%
X137262100Y-119061900D03*
D27*
%TO.P,R66,2*%
%TO.N,SpareBufferedADC*%
X139802100Y-119061900D03*
%TD*%
D26*
%TO.P,R45,1*%
%TO.N,OUTPUT3*%
X142435400Y-69333500D03*
D27*
%TO.P,R45,2*%
%TO.N,GND*%
X139895400Y-69333500D03*
%TD*%
D26*
%TO.P,C1,1*%
%TO.N,Sense2-10*%
X98393200Y-139624000D03*
%TO.P,C1,2*%
%TO.N,GND*%
X98393200Y-144624000D03*
%TD*%
D22*
%TO.P,D2,1,K*%
%TO.N,Net-(D2-Pad1)*%
X106014900Y-128035400D03*
D23*
%TO.P,D2,2,A*%
%TO.N,Net-(D2-Pad2)*%
X95854900Y-128035400D03*
%TD*%
D26*
%TO.P,R16,1*%
%TO.N,+5V*%
X74643200Y-128969800D03*
D27*
%TO.P,R16,2*%
%TO.N,IN1TTL*%
X77183200Y-128969800D03*
%TD*%
D26*
%TO.P,C21,1*%
%TO.N,Net-(C21-Pad1)*%
X124890200Y-50980700D03*
%TO.P,C21,2*%
%TO.N,GND*%
X117390200Y-50980700D03*
%TD*%
D31*
%TO.P,J3,1,Pin_1*%
%TO.N,+5V*%
X226581200Y-111690700D03*
D32*
%TO.P,J3,2,Pin_2*%
%TO.N,unconnected-(J3-Pad2)*%
X226581200Y-109150700D03*
%TO.P,J3,3,Pin_3*%
%TO.N,GND*%
X226581200Y-106610700D03*
%TO.P,J3,4,Pin_4*%
%TO.N,SCLK*%
X226581200Y-104070700D03*
%TO.P,J3,5,Pin_5*%
%TO.N,MISO*%
X226581200Y-101530700D03*
%TO.P,J3,6,Pin_6*%
%TO.N,MOSI*%
X226581200Y-98990700D03*
%TO.P,J3,7,Pin_7*%
%TO.N,SDCS*%
X226581200Y-96450700D03*
%TO.P,J3,8,Pin_8*%
%TO.N,SDDetect*%
X226581200Y-93910700D03*
%TD*%
D26*
%TO.P,R26,1*%
%TO.N,+3.3VP*%
X96498000Y-54101900D03*
D27*
%TO.P,R26,2*%
%TO.N,Net-(IC11-Pad1)*%
X99038000Y-54101900D03*
%TD*%
D26*
%TO.P,R18,1*%
%TO.N,+5V*%
X85160400Y-128969800D03*
D27*
%TO.P,R18,2*%
%TO.N,IN3TTL*%
X87700400Y-128969800D03*
%TD*%
D31*
%TO.P,T2,1,Pin_1*%
%TO.N,+5V*%
X185138800Y-97249500D03*
D32*
%TO.P,T2,2,Pin_2*%
%TO.N,GND*%
X185138800Y-99789500D03*
%TO.P,T2,3,Pin_3*%
%TO.N,unconnected-(T2-Pad3)*%
X185138800Y-102329500D03*
%TO.P,T2,4,Pin_4*%
%TO.N,RTDSCLK*%
X185138800Y-104869500D03*
%TO.P,T2,5,Pin_5*%
%TO.N,RTDMISO*%
X185138800Y-107409500D03*
%TO.P,T2,6,Pin_6*%
%TO.N,RTDMOSI*%
X185138800Y-109949500D03*
%TO.P,T2,7,Pin_7*%
%TO.N,LsideCS*%
X185138800Y-112489500D03*
%TO.P,T2,8,Pin_8*%
%TO.N,unconnected-(T2-Pad8)*%
X185138800Y-115029500D03*
%TD*%
D26*
%TO.P,R27,1*%
%TO.N,+VSW*%
X124580100Y-137553400D03*
D27*
%TO.P,R27,2*%
%TO.N,Net-(IC12-Pad3)*%
X124580100Y-140093400D03*
%TD*%
D44*
%TO.P,IC17,1,C1+*%
%TO.N,Net-(C37-Pad1)*%
X117227000Y-121483700D03*
D45*
%TO.P,IC17,2,V+*%
%TO.N,Net-(C40-Pad1)*%
X117227000Y-118943700D03*
%TO.P,IC17,3,C1-*%
%TO.N,Net-(C37-Pad2)*%
X117227000Y-116403700D03*
%TO.P,IC17,4,C2+*%
%TO.N,Net-(C38-Pad1)*%
X117227000Y-113863700D03*
%TO.P,IC17,5,C2-*%
%TO.N,Net-(C38-Pad2)*%
X117227000Y-111323700D03*
%TO.P,IC17,6,V-*%
%TO.N,Net-(C39-Pad2)*%
X117227000Y-108783700D03*
%TO.P,IC17,7,T2OUT*%
%TO.N,/Sheet6152913C/RSCOM2TX*%
X117227000Y-106243700D03*
%TO.P,IC17,8,R2IN*%
%TO.N,/Sheet6152913C/RSCOM2RX*%
X117227000Y-103703700D03*
%TO.P,IC17,9,R2OUT*%
%TO.N,Com2RX*%
X109607000Y-103703700D03*
%TO.P,IC17,10,T2IN*%
%TO.N,Com2TX*%
X109607000Y-106243700D03*
%TO.P,IC17,11,T1IN*%
%TO.N,Com1TX*%
X109607000Y-108783700D03*
%TO.P,IC17,12,R1OUT*%
%TO.N,Com1RX*%
X109607000Y-111323700D03*
%TO.P,IC17,13,R1IN*%
%TO.N,Sense1-8*%
X109607000Y-113863700D03*
%TO.P,IC17,14,T1OUT*%
%TO.N,Sense1-11*%
X109607000Y-116403700D03*
%TO.P,IC17,15,GND*%
%TO.N,GND*%
X109607000Y-118943700D03*
%TO.P,IC17,16,VCC*%
%TO.N,+5V*%
X109607000Y-121483700D03*
%TD*%
D26*
%TO.P,R4,1*%
%TO.N,GND*%
X160658800Y-135417500D03*
D27*
%TO.P,R4,2*%
%TO.N,Sense1-1*%
X163198800Y-135417500D03*
%TD*%
D26*
%TO.P,R30,1*%
%TO.N,GND*%
X140349900Y-139564900D03*
D27*
%TO.P,R30,2*%
%TO.N,+2V5*%
X137809900Y-139564900D03*
%TD*%
D41*
%TO.P,Z1,1*%
%TO.N,+VDC*%
X139490600Y-60519100D03*
D42*
%TO.P,Z1,2*%
%TO.N,Net-(Q9-Pad1)*%
X150190600Y-60519100D03*
%TD*%
D26*
%TO.P,R60,1*%
%TO.N,GND*%
X171913200Y-130738100D03*
D27*
%TO.P,R60,2*%
%TO.N,Sense1-9*%
X174453200Y-130738100D03*
%TD*%
D26*
%TO.P,R50,1*%
%TO.N,Net-(Q14-Pad1)*%
X163902400Y-94613000D03*
D27*
%TO.P,R50,2*%
%TO.N,Net-(Q12-Pad3)*%
X166442400Y-94613000D03*
%TD*%
D30*
%TO.P,C28,1*%
%TO.N,Net-(C28-Pad1)*%
X185902000Y-123934200D03*
D26*
%TO.P,C28,2*%
%TO.N,GND*%
X190902000Y-123934200D03*
%TD*%
D30*
%TO.P,C38,1*%
%TO.N,Net-(C38-Pad1)*%
X101718200Y-111166200D03*
D26*
%TO.P,C38,2*%
%TO.N,Net-(C38-Pad2)*%
X101718200Y-108666200D03*
%TD*%
D41*
%TO.P,Z8,1*%
%TO.N,+VDC*%
X83647500Y-89837000D03*
D42*
%TO.P,Z8,2*%
%TO.N,Net-(Q21-Pad1)*%
X83647500Y-79137000D03*
%TD*%
D41*
%TO.P,Z7,1*%
%TO.N,+VDC*%
X139423800Y-48453400D03*
D42*
%TO.P,Z7,2*%
%TO.N,Net-(Q20-Pad1)*%
X150123800Y-48453400D03*
%TD*%
D41*
%TO.P,Z3,1*%
%TO.N,+VDC*%
X139451700Y-72110600D03*
D42*
%TO.P,Z3,2*%
%TO.N,Net-(Q13-Pad1)*%
X150151700Y-72110600D03*
%TD*%
D46*
%TO.P,U1,1,1*%
%TO.N,Net-(Q6-Pad3)*%
X73402700Y-61747000D03*
%TO.P,U1,2,2*%
%TO.N,+VDC*%
X73402700Y-84347000D03*
%TD*%
D43*
%TO.P,RV1,1,1*%
%TO.N,Net-(C30-Pad1)*%
X234282700Y-61210200D03*
%TO.P,RV1,2,2*%
%TO.N,Net-(J24-Pad1)*%
X234282700Y-63750200D03*
%TO.P,RV1,3,3*%
%TO.N,GND*%
X234282700Y-66290200D03*
%TD*%
D24*
%TO.P,Q7,1,S*%
%TO.N,GND*%
X129439400Y-51033300D03*
D25*
%TO.P,Q7,2,G*%
%TO.N,OUTPUT2*%
X130709400Y-51033300D03*
%TO.P,Q7,3,D*%
%TO.N,Net-(Q7-Pad3)*%
X131979400Y-51033300D03*
%TD*%
D30*
%TO.P,C26,1*%
%TO.N,+3.3VP*%
X101104300Y-64850900D03*
D26*
%TO.P,C26,2*%
%TO.N,GND*%
X106104300Y-64850900D03*
%TD*%
%TO.P,R25,1*%
%TO.N,Net-(C19-Pad1)*%
X108692700Y-91511200D03*
D27*
%TO.P,R25,2*%
%TO.N,+10V*%
X111232700Y-91511200D03*
%TD*%
D26*
%TO.P,C20,1*%
%TO.N,Net-(C20-Pad1)*%
X97028100Y-78937300D03*
%TO.P,C20,2*%
%TO.N,GND*%
X97028100Y-71437300D03*
%TD*%
D31*
%TO.P,T1,1,Pin_1*%
%TO.N,+5V*%
X206318600Y-78031400D03*
D32*
%TO.P,T1,2,Pin_2*%
%TO.N,GND*%
X208858600Y-78031400D03*
%TO.P,T1,3,Pin_3*%
%TO.N,unconnected-(T1-Pad3)*%
X211398600Y-78031400D03*
%TO.P,T1,4,Pin_4*%
%TO.N,RTDSCLK*%
X213938600Y-78031400D03*
%TO.P,T1,5,Pin_5*%
%TO.N,RTDMISO*%
X216478600Y-78031400D03*
%TO.P,T1,6,Pin_6*%
%TO.N,RTDMOSI*%
X219018600Y-78031400D03*
%TO.P,T1,7,Pin_7*%
%TO.N,WaterCS*%
X221558600Y-78031400D03*
%TO.P,T1,8,Pin_8*%
%TO.N,unconnected-(T1-Pad8)*%
X224098600Y-78031400D03*
%TD*%
D31*
%TO.P,J1,1,Pin_1*%
%TO.N,SWSCLK*%
X234522200Y-121547800D03*
D32*
%TO.P,J1,2,Pin_2*%
%TO.N,RTDSCLK*%
X234522200Y-124087800D03*
%TO.P,J1,3,Pin_3*%
%TO.N,SCLK*%
X234522200Y-126627800D03*
%TD*%
D26*
%TO.P,R29,1*%
%TO.N,VoltageSensor*%
X140349900Y-144204100D03*
D27*
%TO.P,R29,2*%
%TO.N,GND*%
X137809900Y-144204100D03*
%TD*%
D35*
%TO.P,Q5,1,S*%
%TO.N,GND*%
X87981600Y-89848500D03*
D36*
%TO.P,Q5,2,G*%
%TO.N,Net-(D1-Pad1)*%
X87981600Y-88578500D03*
%TO.P,Q5,3,D*%
%TO.N,Net-(Q5-Pad3)*%
X87981600Y-87308500D03*
%TD*%
D26*
%TO.P,R15,1*%
%TO.N,+5V*%
X90206200Y-124300000D03*
D27*
%TO.P,R15,2*%
%TO.N,Net-(IC7-Pad1)*%
X92746200Y-124300000D03*
%TD*%
D30*
%TO.P,C22,1*%
%TO.N,+VSW*%
X95632700Y-66514500D03*
D26*
%TO.P,C22,2*%
%TO.N,GND*%
X95632700Y-64014500D03*
%TD*%
D47*
%TO.P,IC12,1,OUTA*%
%TO.N,VoltageSensor*%
X127218200Y-137301300D03*
D48*
%TO.P,IC12,2,-INA*%
X127218200Y-139841300D03*
%TO.P,IC12,3,+INA*%
%TO.N,Net-(IC12-Pad3)*%
X127218200Y-142381300D03*
%TO.P,IC12,4,V-*%
%TO.N,GND*%
X127218200Y-144921300D03*
%TO.P,IC12,5,+INB*%
%TO.N,Net-(IC12-Pad5)*%
X135158200Y-144921300D03*
%TO.P,IC12,6,-INB*%
X135158200Y-142381300D03*
%TO.P,IC12,7,OUTB*%
%TO.N,+2V5*%
X135158200Y-139841300D03*
%TO.P,IC12,8,V+*%
%TO.N,+5V*%
X135158200Y-137301300D03*
%TD*%
D28*
%TO.P,Q14,1*%
%TO.N,Net-(Q14-Pad1)*%
X162856400Y-67378000D03*
D29*
%TO.P,Q14,2*%
%TO.N,Sense2-8*%
X162856400Y-64838000D03*
%TO.P,Q14,3*%
%TO.N,+VDC*%
X162856400Y-62298000D03*
%TD*%
D30*
%TO.P,C23,1*%
%TO.N,+10V*%
X101039200Y-73440900D03*
D26*
%TO.P,C23,2*%
%TO.N,GND*%
X106039200Y-73440900D03*
%TD*%
%TO.P,C4,1*%
%TO.N,Sense2-1*%
X109658300Y-133418000D03*
%TO.P,C4,2*%
%TO.N,GND*%
X104658300Y-133418000D03*
%TD*%
%TO.P,R62,1*%
%TO.N,+VDC*%
X81820500Y-72188200D03*
D27*
%TO.P,R62,2*%
%TO.N,Net-(Q21-Pad1)*%
X79280500Y-72188200D03*
%TD*%
D31*
%TO.P,T5,1,Pin_1*%
%TO.N,+5V*%
X204215900Y-97249500D03*
D32*
%TO.P,T5,2,Pin_2*%
%TO.N,GND*%
X204215900Y-99789500D03*
%TO.P,T5,3,Pin_3*%
%TO.N,unconnected-(T5-Pad3)*%
X204215900Y-102329500D03*
%TO.P,T5,4,Pin_4*%
%TO.N,RTDSCLK*%
X204215900Y-104869500D03*
%TO.P,T5,5,Pin_5*%
%TO.N,RTDMISO*%
X204215900Y-107409500D03*
%TO.P,T5,6,Pin_6*%
%TO.N,RTDMOSI*%
X204215900Y-109949500D03*
%TO.P,T5,7,Pin_7*%
%TO.N,AmbientCS*%
X204215900Y-112489500D03*
%TO.P,T5,8,Pin_8*%
%TO.N,unconnected-(T5-Pad8)*%
X204215900Y-115029500D03*
%TD*%
D26*
%TO.P,R35,1*%
%TO.N,Net-(IC14-Pad6)*%
X215533800Y-84508000D03*
D27*
%TO.P,R35,2*%
%TO.N,+VSW*%
X218073800Y-84508000D03*
%TD*%
D26*
%TO.P,R53,1*%
%TO.N,+VDC*%
X147321700Y-81789700D03*
D27*
%TO.P,R53,2*%
%TO.N,Net-(Q17-Pad1)*%
X149861700Y-81789700D03*
%TD*%
D26*
%TO.P,R38,1*%
%TO.N,+5V*%
X150284600Y-108072800D03*
D27*
%TO.P,R38,2*%
%TO.N,SDA*%
X150284600Y-110612800D03*
%TD*%
D26*
%TO.P,R55,1*%
%TO.N,+VDC*%
X182285400Y-83181700D03*
D27*
%TO.P,R55,2*%
%TO.N,Net-(Q18-Pad1)*%
X179745400Y-83181700D03*
%TD*%
D31*
%TO.P,J23,1,Pin_1*%
%TO.N,+10V*%
X177429000Y-93759200D03*
D32*
%TO.P,J23,2,Pin_2*%
%TO.N,Net-(C28-Pad1)*%
X177429000Y-96299200D03*
%TD*%
D26*
%TO.P,R52,1*%
%TO.N,OUTPUTSiren*%
X176759400Y-87990300D03*
D27*
%TO.P,R52,2*%
%TO.N,GND*%
X174219400Y-87990300D03*
%TD*%
D26*
%TO.P,C17,1*%
%TO.N,Net-(C17-Pad1)*%
X117048200Y-86173200D03*
%TO.P,C17,2*%
%TO.N,GND*%
X117048200Y-93673200D03*
%TD*%
%TO.P,R44,1*%
%TO.N,Net-(Q10-Pad1)*%
X166497800Y-83480000D03*
D27*
%TO.P,R44,2*%
%TO.N,Net-(Q8-Pad3)*%
X169037800Y-83480000D03*
%TD*%
D22*
%TO.P,D5,1,K*%
%TO.N,Net-(D5-Pad1)*%
X89215600Y-132497900D03*
D23*
%TO.P,D5,2,A*%
%TO.N,Net-(D5-Pad2)*%
X79055600Y-132497900D03*
%TD*%
D12*
%TO.P,C32,1*%
%TO.N,Net-(C32-Pad1)*%
X213364300Y-96645700D03*
%TO.P,C32,2*%
%TO.N,GND*%
X214864300Y-96645700D03*
%TD*%
D24*
%TO.P,Q25,1,S*%
%TO.N,GND*%
X212398800Y-83214400D03*
D25*
%TO.P,Q25,2,G*%
%TO.N,RPMEN*%
X211128800Y-83214400D03*
%TO.P,Q25,3,D*%
%TO.N,Net-(K1-Pad6)*%
X209858800Y-83214400D03*
%TD*%
D28*
%TO.P,Q21,1*%
%TO.N,Net-(Q21-Pad1)*%
X88471600Y-82669100D03*
D29*
%TO.P,Q21,2*%
%TO.N,+VSW*%
X88471600Y-80129100D03*
%TO.P,Q21,3*%
%TO.N,+VDC*%
X88471600Y-77589100D03*
%TD*%
D30*
%TO.P,C25,1*%
%TO.N,+VDC*%
X98051600Y-58524400D03*
D26*
%TO.P,C25,2*%
%TO.N,GND*%
X98051600Y-61024400D03*
%TD*%
%TO.P,R19,1*%
%TO.N,+5V*%
X90456400Y-128969800D03*
D27*
%TO.P,R19,2*%
%TO.N,Logging*%
X92996400Y-128969800D03*
%TD*%
D26*
%TO.P,R68,1*%
%TO.N,GND*%
X137247800Y-125193500D03*
D27*
%TO.P,R68,2*%
%TO.N,AltCurrent*%
X139787800Y-125193500D03*
%TD*%
D26*
%TO.P,R70,1*%
%TO.N,RPMEN*%
X215032600Y-89695600D03*
D27*
%TO.P,R70,2*%
%TO.N,GND*%
X215032600Y-87155600D03*
%TD*%
D26*
%TO.P,R6,1*%
%TO.N,GND*%
X140895900Y-136279400D03*
D27*
%TO.P,R6,2*%
%TO.N,OilPressure*%
X140895900Y-133739400D03*
%TD*%
D26*
%TO.P,R54,1*%
%TO.N,Net-(Q17-Pad1)*%
X147711900Y-87463200D03*
D27*
%TO.P,R54,2*%
%TO.N,Net-(Q15-Pad3)*%
X145171900Y-87463200D03*
%TD*%
D26*
%TO.P,R3,1*%
%TO.N,GND*%
X160616300Y-130785400D03*
D27*
%TO.P,R3,2*%
%TO.N,Sense1-7*%
X163156300Y-130785400D03*
%TD*%
D26*
%TO.P,R28,1*%
%TO.N,Net-(IC12-Pad3)*%
X124586900Y-142739400D03*
D27*
%TO.P,R28,2*%
%TO.N,GND*%
X124586900Y-145279400D03*
%TD*%
D31*
%TO.P,J7,1,Pin_1*%
%TO.N,+5V*%
X131045500Y-106400900D03*
D32*
%TO.P,J7,2,Pin_2*%
%TO.N,+10V*%
X133585500Y-106400900D03*
%TO.P,J7,3,Pin_3*%
%TO.N,Vacuum1*%
X131045500Y-108940900D03*
%TO.P,J7,4,Pin_4*%
%TO.N,+2V5*%
X133585500Y-108940900D03*
%TO.P,J7,5,Pin_5*%
%TO.N,Vacuum2*%
X131045500Y-111480900D03*
%TO.P,J7,6,Pin_6*%
%TO.N,GND*%
X133585500Y-111480900D03*
%TD*%
D26*
%TO.P,R40,1*%
%TO.N,OUTPUTLED1*%
X163398800Y-88349200D03*
D27*
%TO.P,R40,2*%
%TO.N,GND*%
X160858800Y-88349200D03*
%TD*%
D26*
%TO.P,C24,1*%
%TO.N,Net-(C24-Pad1)*%
X110383600Y-57414700D03*
%TO.P,C24,2*%
%TO.N,GND*%
X110383600Y-64914700D03*
%TD*%
%TO.P,R39,1*%
%TO.N,OUTPUT2*%
X131603800Y-54678100D03*
D27*
%TO.P,R39,2*%
%TO.N,GND*%
X129063800Y-54678100D03*
%TD*%
D26*
%TO.P,R51,1*%
%TO.N,OUTPUT4*%
X142096800Y-93759800D03*
D27*
%TO.P,R51,2*%
%TO.N,GND*%
X139556800Y-93759800D03*
%TD*%
D31*
%TO.P,J2,1,Pin_1*%
%TO.N,SWMISO*%
X225222200Y-121547800D03*
D32*
%TO.P,J2,2,Pin_2*%
%TO.N,RTDMISO*%
X225222200Y-124087800D03*
%TO.P,J2,3,Pin_3*%
%TO.N,MISO*%
X225222200Y-126627800D03*
%TD*%
D28*
%TO.P,Q9,1*%
%TO.N,Net-(Q9-Pad1)*%
X152969100Y-62298000D03*
D29*
%TO.P,Q9,2*%
%TO.N,Sense2-6*%
X152969100Y-64838000D03*
%TO.P,Q9,3*%
%TO.N,+VDC*%
X152969100Y-67378000D03*
%TD*%
D31*
%TO.P,J31,1,Pin_1*%
%TO.N,Net-(J31-Pad1)*%
X150145600Y-137205600D03*
D32*
%TO.P,J31,2,Pin_2*%
%TO.N,/A10*%
X150145600Y-139745600D03*
%TD*%
D26*
%TO.P,C3,1*%
%TO.N,Sense2-4*%
X114841200Y-132433600D03*
%TO.P,C3,2*%
%TO.N,GND*%
X114841200Y-137433600D03*
%TD*%
%TO.P,R13,1*%
%TO.N,+5V*%
X79847600Y-124300000D03*
D27*
%TO.P,R13,2*%
%TO.N,Net-(IC7-Pad5)*%
X82387600Y-124300000D03*
%TD*%
D22*
%TO.P,D4,1,K*%
%TO.N,Net-(D4-Pad1)*%
X89215600Y-137290500D03*
D23*
%TO.P,D4,2,A*%
%TO.N,Net-(D4-Pad2)*%
X79055600Y-137290500D03*
%TD*%
D26*
%TO.P,R36,1*%
%TO.N,GND*%
X166288400Y-135464800D03*
D27*
%TO.P,R36,2*%
%TO.N,Sense1-12*%
X168828400Y-135464800D03*
%TD*%
D31*
%TO.P,T6,1,Pin_1*%
%TO.N,+5V*%
X155695300Y-141069100D03*
D32*
%TO.P,T6,2,Pin_2*%
%TO.N,GND*%
X158235300Y-141069100D03*
%TO.P,T6,3,Pin_3*%
%TO.N,unconnected-(T6-Pad3)*%
X160775300Y-141069100D03*
%TO.P,T6,4,Pin_4*%
%TO.N,RTDSCLK*%
X163315300Y-141069100D03*
%TO.P,T6,5,Pin_5*%
%TO.N,RTDMISO*%
X165855300Y-141069100D03*
%TO.P,T6,6,Pin_6*%
%TO.N,RTDMOSI*%
X168395300Y-141069100D03*
%TO.P,T6,7,Pin_7*%
%TO.N,CarbCS*%
X170935300Y-141069100D03*
%TO.P,T6,8,Pin_8*%
%TO.N,unconnected-(T6-Pad8)*%
X173475300Y-141069100D03*
%TD*%
D26*
%TO.P,R17,1*%
%TO.N,+5V*%
X79880700Y-128961300D03*
D27*
%TO.P,R17,2*%
%TO.N,IN2TTL*%
X82420700Y-128961300D03*
%TD*%
D26*
%TO.P,R63,1*%
%TO.N,Net-(Q22-Pad1)*%
X76015800Y-88348200D03*
D27*
%TO.P,R63,2*%
%TO.N,+3.3VP*%
X76015800Y-90888200D03*
%TD*%
D24*
%TO.P,Q1,1,S*%
%TO.N,GND*%
X105116400Y-139102200D03*
D25*
%TO.P,Q1,2,G*%
%TO.N,Sense2-1*%
X103846400Y-139102200D03*
%TO.P,Q1,3,D*%
%TO.N,Net-(D5-Pad1)*%
X102576400Y-139102200D03*
%TD*%
D26*
%TO.P,R23,1*%
%TO.N,+10V*%
X98369900Y-91532800D03*
D27*
%TO.P,R23,2*%
%TO.N,Net-(IC10-Pad1)*%
X100909900Y-91532800D03*
%TD*%
D30*
%TO.P,C37,1*%
%TO.N,Net-(C37-Pad1)*%
X105777600Y-115358800D03*
D26*
%TO.P,C37,2*%
%TO.N,Net-(C37-Pad2)*%
X105777600Y-112858800D03*
%TD*%
D33*
%TO.P,L1,1,1*%
%TO.N,Net-(C15-Pad2)*%
X125176300Y-81011700D03*
D34*
%TO.P,L1,2,2*%
%TO.N,+5V*%
X140416300Y-81011700D03*
%TD*%
D24*
%TO.P,Q4,1,S*%
%TO.N,GND*%
X104959000Y-145284700D03*
D25*
%TO.P,Q4,2,G*%
%TO.N,Sense2-4*%
X103689000Y-145284700D03*
%TO.P,Q4,3,D*%
%TO.N,Net-(D4-Pad1)*%
X102419000Y-145284700D03*
%TD*%
D47*
%TO.P,IC14,1,TACH+*%
%TO.N,Net-(IC14-Pad1)*%
X227755400Y-90720400D03*
D48*
%TO.P,IC14,2,CP1*%
%TO.N,Net-(C31-Pad1)*%
X230295400Y-90720400D03*
%TO.P,IC14,3,CP2/IN+*%
%TO.N,Net-(C32-Pad1)*%
X232835400Y-90720400D03*
%TO.P,IC14,4,EMIT*%
%TO.N,Net-(IC14-Pad4)*%
X235375400Y-90720400D03*
%TO.P,IC14,5,COL*%
%TO.N,+VSW*%
X235375400Y-82780400D03*
%TO.P,IC14,6,V+*%
%TO.N,Net-(IC14-Pad6)*%
X232835400Y-82780400D03*
%TO.P,IC14,7,IN-*%
%TO.N,Net-(IC14-Pad4)*%
X230295400Y-82780400D03*
%TO.P,IC14,8,TACH-/GND*%
%TO.N,GND*%
X227755400Y-82780400D03*
%TD*%
D26*
%TO.P,R7,1*%
%TO.N,GND*%
X137809900Y-136273900D03*
D27*
%TO.P,R7,2*%
%TO.N,AFR1*%
X137809900Y-133733900D03*
%TD*%
D28*
%TO.P,Q10,1*%
%TO.N,Net-(Q10-Pad1)*%
X162809300Y-55828700D03*
D29*
%TO.P,Q10,2*%
%TO.N,Sense2-11*%
X162809300Y-53288700D03*
%TO.P,Q10,3*%
%TO.N,+VDC*%
X162809300Y-50748700D03*
%TD*%
D33*
%TO.P,L3,1,1*%
%TO.N,Net-(D8-Pad1)*%
X111539800Y-50273700D03*
D34*
%TO.P,L3,2,2*%
%TO.N,+3.3VP*%
X96299800Y-50273700D03*
%TD*%
D28*
%TO.P,Q18,1*%
%TO.N,Net-(Q18-Pad1)*%
X162856400Y-78927300D03*
D29*
%TO.P,Q18,2*%
%TO.N,Sense2-5*%
X162856400Y-76387300D03*
%TO.P,Q18,3*%
%TO.N,+VDC*%
X162856400Y-73847300D03*
%TD*%
D22*
%TO.P,D3,1,K*%
%TO.N,Net-(D3-Pad1)*%
X93649500Y-150182100D03*
D23*
%TO.P,D3,2,A*%
%TO.N,Net-(D3-Pad2)*%
X83489500Y-150182100D03*
%TD*%
D26*
%TO.P,R14,1*%
%TO.N,+5V*%
X85053400Y-124300000D03*
D27*
%TO.P,R14,2*%
%TO.N,Net-(IC7-Pad3)*%
X87593400Y-124300000D03*
%TD*%
D26*
%TO.P,R57,1*%
%TO.N,OUTPUT1*%
X141143800Y-57709500D03*
D27*
%TO.P,R57,2*%
%TO.N,GND*%
X138603800Y-57709500D03*
%TD*%
D49*
%TO.P,IC16,1,32KHZ*%
%TO.N,unconnected-(IC16-Pad1)*%
X173122300Y-109425800D03*
%TO.P,IC16,2,VCC*%
%TO.N,+5V*%
X173122300Y-110695800D03*
%TO.P,IC16,3,~{INT}/SQW*%
%TO.N,unconnected-(IC16-Pad3)*%
X173122300Y-111965800D03*
%TO.P,IC16,4,~{RST}*%
%TO.N,unconnected-(IC16-Pad4)*%
X173122300Y-113235800D03*
%TO.P,IC16,5,N.C._1*%
%TO.N,GND*%
X173122300Y-114505800D03*
%TO.P,IC16,6,N.C._2*%
X173122300Y-115775800D03*
%TO.P,IC16,7,N.C._3*%
X173122300Y-117045800D03*
%TO.P,IC16,8,N.C._4*%
X173122300Y-118315800D03*
%TO.P,IC16,9,N.C._5*%
X163698300Y-118315800D03*
%TO.P,IC16,10,N.C._6*%
X163698300Y-117045800D03*
%TO.P,IC16,11,N.C._7*%
X163698300Y-115775800D03*
%TO.P,IC16,12,N.C._8*%
X163698300Y-114505800D03*
%TO.P,IC16,13,GND*%
X163698300Y-113235800D03*
%TO.P,IC16,14,VBAT*%
%TO.N,Net-(D10-Pad1)*%
X163698300Y-111965800D03*
%TO.P,IC16,15,SDA*%
%TO.N,SDA*%
X163698300Y-110695800D03*
%TO.P,IC16,16,SCL*%
%TO.N,SCL*%
X163698300Y-109425800D03*
%TD*%
D41*
%TO.P,Z2,1*%
%TO.N,+VDC*%
X177929300Y-48427000D03*
D42*
%TO.P,Z2,2*%
%TO.N,Net-(Q10-Pad1)*%
X167229300Y-48427000D03*
%TD*%
D41*
%TO.P,Z6,1*%
%TO.N,+VDC*%
X177929300Y-53623000D03*
D42*
%TO.P,Z6,2*%
%TO.N,Net-(Q18-Pad1)*%
X167229300Y-53623000D03*
%TD*%
D41*
%TO.P,Z4,1*%
%TO.N,+VDC*%
X177929300Y-51059400D03*
D42*
%TO.P,Z4,2*%
%TO.N,Net-(Q14-Pad1)*%
X167229300Y-51059400D03*
%TD*%
D50*
%TO.N,GND*%
X78790500Y-119627600D03*
X73710300Y-119627600D03*
X90003300Y-121230000D03*
X86535800Y-122398100D03*
X71921100Y-92287100D03*
X88227800Y-122082700D03*
X99885200Y-122596500D03*
X166780300Y-105632500D03*
X153749900Y-93826600D03*
X85089700Y-121256300D03*
%TO.N,Net-(J31-Pad1)*%
X170132600Y-106666900D03*
%TO.N,Net-(C15-Pad2)*%
X125393000Y-75213100D03*
%TO.N,Net-(D2-Pad2)*%
X86756000Y-112141900D03*
%TO.N,Net-(D3-Pad2)*%
X88790200Y-111911000D03*
X82764500Y-141249200D03*
%TO.N,Net-(D4-Pad2)*%
X78787900Y-110720900D03*
%TO.N,GPSRX*%
X128764500Y-102168500D03*
%TO.N,FuelPressure2*%
X127090500Y-124155000D03*
%TO.N,FuelPressure1*%
X127178200Y-118854900D03*
%TO.N,OilPressure*%
X152188200Y-137925000D03*
X130950500Y-132325700D03*
%TO.N,SCL*%
X175231900Y-94662900D03*
%TO.N,SDA*%
X187538800Y-76015700D03*
X189799300Y-95515000D03*
%TO.N,WaterCS*%
X183626600Y-139449900D03*
X217743900Y-139630300D03*
%TO.N,Net-(IC7-Pad1)*%
X92718500Y-112130000D03*
%TO.N,+2V5*%
X129639900Y-106347400D03*
%TO.N,Net-(C19-Pad1)*%
X107083000Y-77289400D03*
%TO.N,Net-(IC7-Pad3)*%
X87638500Y-112166100D03*
%TO.N,Net-(IC7-Pad7)*%
X77478500Y-112148500D03*
%TO.N,GPSBat*%
X98856000Y-137745100D03*
%TO.N,Net-(C28-Pad1)*%
X201464300Y-115722100D03*
%TO.N,Net-(C30-Pad1)*%
X190133400Y-106772700D03*
X202507700Y-99673100D03*
%TO.N,Net-(D5-Pad2)*%
X76169200Y-110720900D03*
%TO.N,Net-(IC7-Pad5)*%
X82558500Y-112147200D03*
%TO.N,IN3TTL*%
X83800400Y-119679700D03*
%TO.N,IN2TTL*%
X129799200Y-118880400D03*
X138953300Y-103193300D03*
X86942100Y-121511400D03*
%TO.N,IN1TTL*%
X91486900Y-119536500D03*
X102537900Y-118613200D03*
%TO.N,/A1*%
X138939800Y-138856100D03*
%TO.N,/Sheet6152913C/RSCOM2RX*%
X123432300Y-109569400D03*
%TO.N,RPMEN*%
X200839200Y-116393500D03*
%TO.N,Com2RX*%
X137911900Y-103328100D03*
%TO.N,Sense2-1*%
X182330400Y-88296500D03*
X178289300Y-91327000D03*
X148854600Y-127239200D03*
%TO.N,Sense2-4*%
X172486409Y-105553819D03*
X167391500Y-111041600D03*
X182545100Y-91926200D03*
X158209000Y-129818700D03*
%TO.N,Com2TX*%
X128507100Y-98813300D03*
%TO.N,Com1RX*%
X138872900Y-113656700D03*
%TO.N,Sense2-7*%
X147624900Y-99119200D03*
X150943700Y-95450300D03*
%TO.N,Sense2-10*%
X162733400Y-83451500D03*
X103684300Y-84769800D03*
%TO.N,Sense1-1*%
X183802800Y-111193900D03*
X194752900Y-82759400D03*
%TO.N,Sense1-3*%
X195846400Y-82691000D03*
%TO.N,Sense1-4*%
X135168800Y-131134200D03*
X180288900Y-91355900D03*
%TO.N,Sense1-7*%
X183610900Y-93657600D03*
X159386800Y-129339300D03*
X187857200Y-92611100D03*
X126766500Y-131885700D03*
%TO.N,Sense1-10*%
X129667900Y-131686900D03*
X185133700Y-90868500D03*
X176627700Y-108109500D03*
%TO.N,Sense1-11*%
X183308200Y-99474000D03*
X116427100Y-114644600D03*
X186140800Y-91843700D03*
%TO.N,SDCS*%
X208297200Y-104422100D03*
%TO.N,SDDetect*%
X202099100Y-111481100D03*
%TO.N,Vacuum1*%
X135459500Y-140977300D03*
%TO.N,OUTPUTLED2*%
X174196800Y-96546400D03*
%TO.N,OUTPUTLED1*%
X176041300Y-96693700D03*
%TO.N,OUTPUTSiren*%
X166022200Y-99186700D03*
%TO.N,OUTPUT4*%
X149848600Y-99111000D03*
X152156500Y-96749100D03*
%TO.N,OUTPUT3*%
X149632400Y-95253500D03*
%TO.N,OUTPUT2*%
X124129000Y-99472400D03*
X102213100Y-96849600D03*
%TO.N,OUTPUT1*%
X149060100Y-96797200D03*
%TO.N,Sense1-6*%
X185811400Y-94841900D03*
X132177800Y-127964100D03*
X191445100Y-86545900D03*
%TO.N,+VSW*%
X134180800Y-104050400D03*
X102686600Y-81371200D03*
%TO.N,Net-(IC19-Pad2)*%
X162410600Y-106675000D03*
%TO.N,Sense1-9*%
X129650900Y-122205000D03*
X191771100Y-98899200D03*
%TO.N,Sense1-12*%
X178841500Y-109731400D03*
X167245900Y-125276700D03*
X185855200Y-90458000D03*
X130030200Y-123407500D03*
%TO.N,Sense1-8*%
X168207300Y-113662300D03*
X183066400Y-100866400D03*
X193058600Y-81702600D03*
X118323900Y-115909100D03*
%TO.N,SWSCLK*%
X206434100Y-113714800D03*
%TO.N,RTDSCLK*%
X186331100Y-113223600D03*
X209194000Y-98811500D03*
%TO.N,RTDMOSI*%
X218207700Y-122723000D03*
%TD*%
D51*
%TO.N,Net-(C31-Pad1)*%
X232393984Y-88621816D02*
X230295400Y-90720400D01*
X232393984Y-88385908D02*
X232393984Y-88621816D01*
D52*
%TO.N,GND*%
X231222280Y-86310908D02*
X232393984Y-86310908D01*
X230171272Y-85259900D02*
X231222280Y-86310908D01*
X230235000Y-85259900D02*
X230171272Y-85259900D01*
X166288000Y-135465000D02*
X166288000Y-133172500D01*
X137810000Y-136274000D02*
X140890000Y-136274000D01*
D53*
X173122000Y-115458500D02*
X173122300Y-115458800D01*
D52*
X173122000Y-118316000D02*
X173122000Y-116411000D01*
D53*
X137262000Y-125925600D02*
X137247800Y-125911400D01*
D52*
X192128300Y-107132300D02*
X194668000Y-109672000D01*
D53*
X166288000Y-133172500D02*
X166288400Y-133172900D01*
D52*
X137099000Y-114994000D02*
X137262000Y-115158000D01*
D53*
X163698300Y-113871200D02*
X163698300Y-114505800D01*
X160658800Y-133123200D02*
X160658800Y-135417500D01*
D52*
X190902000Y-123934000D02*
X193580000Y-126612500D01*
X158411000Y-111707000D02*
X157611000Y-112507000D01*
X105116000Y-133876000D02*
X104658300Y-133418300D01*
D53*
X173122300Y-114981900D02*
X173122300Y-114505800D01*
D52*
X116692000Y-142906000D02*
X118390000Y-144605000D01*
D53*
X165471400Y-105049500D02*
X166421500Y-105049500D01*
D54*
X97028100Y-71437300D02*
X92903300Y-71437300D01*
D52*
X197208000Y-109672000D02*
X199748000Y-109672000D01*
D53*
X173122000Y-116411000D02*
X173122300Y-116411300D01*
D52*
X146707000Y-112507000D02*
X144220000Y-114994000D01*
X136743000Y-146603000D02*
X137810000Y-145536000D01*
X163698000Y-117680900D02*
X163698000Y-117045800D01*
D53*
X166288400Y-133172900D02*
X166288400Y-135464800D01*
D52*
X133547000Y-146603000D02*
X136743000Y-146603000D01*
X124587000Y-145279000D02*
X126860000Y-145279000D01*
X137262000Y-125925600D02*
X137262000Y-128227000D01*
D55*
X86185200Y-55743100D02*
X86185200Y-56964800D01*
D53*
X154518800Y-133125700D02*
X154518800Y-135417500D01*
D52*
X160616000Y-130785000D02*
X164612000Y-126790000D01*
X111072000Y-140783000D02*
X108145000Y-140783000D01*
D55*
X86185200Y-56964800D02*
X79687400Y-63462600D01*
D52*
X205687000Y-126597500D02*
X208380000Y-129291000D01*
X111072000Y-144057000D02*
X111072000Y-140783000D01*
D53*
X163698000Y-117680900D02*
X163698300Y-117681200D01*
X197208000Y-109672000D02*
X199748200Y-109672000D01*
D52*
X108145000Y-140783000D02*
X106464000Y-139102000D01*
X171913000Y-119525000D02*
X173122000Y-118316000D01*
X230235000Y-85259900D02*
X227755200Y-82780600D01*
D53*
X173122300Y-118315800D02*
X171834700Y-118315800D01*
D52*
X170189000Y-126790000D02*
X171913000Y-126790000D01*
X154519000Y-135418000D02*
X154519000Y-133125500D01*
D53*
X173122300Y-117045800D02*
X171834700Y-117045800D01*
X166780300Y-105408300D02*
X166780300Y-105632500D01*
X137262100Y-120802100D02*
X137262100Y-119061900D01*
X167013900Y-129965100D02*
X166193800Y-130785200D01*
D52*
X162410700Y-113236000D02*
X159940000Y-113236000D01*
X160659000Y-133123000D02*
X160659000Y-130828000D01*
D53*
X137262100Y-123624200D02*
X137262100Y-122136700D01*
X171834700Y-117045800D02*
X171834700Y-118315800D01*
D52*
X144220000Y-114994000D02*
X137099000Y-114994000D01*
X113958000Y-140783000D02*
X115308000Y-139433000D01*
X166288000Y-133172500D02*
X166288000Y-130880000D01*
X114841000Y-137434000D02*
X115308000Y-137900000D01*
D53*
X163698300Y-117681200D02*
X163698300Y-118315800D01*
X173122000Y-114982200D02*
X173122300Y-114981900D01*
D52*
X137262000Y-120802200D02*
X137262000Y-123624300D01*
X211031000Y-129291000D02*
X204441000Y-135881000D01*
X115308000Y-137900000D02*
X115308000Y-139433000D01*
X172102000Y-133219500D02*
X172102000Y-130927000D01*
D53*
X154519000Y-133125500D02*
X154518800Y-133125700D01*
D52*
X163698000Y-117045800D02*
X163698000Y-115775800D01*
X193580000Y-126612500D02*
X196258000Y-129291000D01*
D53*
X160659000Y-133123000D02*
X160658800Y-133123200D01*
D52*
X160659000Y-135418000D02*
X160659000Y-133123000D01*
X137099000Y-114994000D02*
X134760600Y-112655600D01*
X199748000Y-120659000D02*
X202994000Y-123904000D01*
X163698000Y-115775800D02*
X163698000Y-113870900D01*
D53*
X134760600Y-112655600D02*
X134760600Y-111480900D01*
D52*
X159940000Y-113236000D02*
X158411400Y-111707400D01*
X137810000Y-144870000D02*
X137810000Y-144204000D01*
X154519000Y-133125500D02*
X154519000Y-130833000D01*
X105116000Y-139102000D02*
X105116000Y-133876000D01*
X137810000Y-145536000D02*
X137810000Y-144870000D01*
X166194000Y-130785000D02*
X167013900Y-129965100D01*
X172102000Y-135512000D02*
X172102000Y-133219500D01*
X127218500Y-144921000D02*
X131865000Y-144921000D01*
X111072000Y-140783000D02*
X113958000Y-140783000D01*
X115308000Y-142906000D02*
X116692000Y-142906000D01*
D53*
X137247800Y-125911400D02*
X137247800Y-125193500D01*
X173122300Y-116411300D02*
X173122300Y-117045800D01*
D52*
X137262000Y-115158000D02*
X137262000Y-120802200D01*
X126860000Y-145279000D02*
X127218000Y-144921000D01*
X173122000Y-115458500D02*
X173122000Y-114982200D01*
D53*
X173122300Y-115458800D02*
X173122300Y-115775800D01*
D52*
X163698000Y-113236000D02*
X162410700Y-113236000D01*
X106464000Y-139102000D02*
X105116600Y-139102000D01*
X208380000Y-129291000D02*
X211031000Y-129291000D01*
X163698000Y-113870900D02*
X163698000Y-113236000D01*
X164612000Y-126790000D02*
X170189000Y-126790000D01*
X108189000Y-146940000D02*
X111072000Y-144057000D01*
D53*
X193580000Y-126612500D02*
X190902000Y-123934500D01*
X162410700Y-113236000D02*
X162410700Y-113235800D01*
X163698000Y-113870900D02*
X163698300Y-113871200D01*
D52*
X194668000Y-109672000D02*
X197208000Y-109672000D01*
X106534000Y-145285000D02*
X108189000Y-146940000D01*
D53*
X133585500Y-111480900D02*
X134760600Y-111480900D01*
X163698300Y-113235800D02*
X162410700Y-113235800D01*
D52*
X154613000Y-130738000D02*
X158562000Y-126790000D01*
X118390900Y-144605000D02*
X123912000Y-144605000D01*
X158562000Y-126790000D02*
X164612000Y-126790000D01*
D53*
X166421500Y-105049500D02*
X166780300Y-105408300D01*
D52*
X196258000Y-129291000D02*
X208380000Y-129291000D01*
X104959300Y-145285000D02*
X106534000Y-145285000D01*
X199748000Y-109672000D02*
X199748000Y-120659000D01*
X137262000Y-123624300D02*
X137262000Y-125925600D01*
X171913000Y-130738000D02*
X171913000Y-126790000D01*
X134760600Y-112655600D02*
X133586000Y-111481000D01*
D53*
X172102200Y-133219700D02*
X172102200Y-135512100D01*
D52*
X123912000Y-144605000D02*
X124587000Y-145279000D01*
X119442000Y-137434000D02*
X114841600Y-137434000D01*
X115308000Y-139433000D02*
X115308000Y-142905600D01*
D53*
X205687000Y-126597500D02*
X205686900Y-126597500D01*
X205686900Y-126597500D02*
X202993900Y-123904500D01*
D52*
X202994000Y-123904000D02*
X205687000Y-126597500D01*
X173122000Y-116411000D02*
X173122000Y-115458500D01*
D53*
X137262000Y-120802200D02*
X137262100Y-120802100D01*
D52*
X163698000Y-118316000D02*
X163698000Y-117680900D01*
D53*
X172102000Y-133219500D02*
X172102200Y-133219700D01*
D52*
X167013900Y-129965100D02*
X170189000Y-126790000D01*
X171913000Y-126790000D02*
X171913000Y-119525000D01*
X157611000Y-112507000D02*
X146707000Y-112507000D01*
X211031800Y-129291000D02*
X218081000Y-129291000D01*
D53*
X137262000Y-123624300D02*
X137262100Y-123624200D01*
D52*
X173122000Y-114982200D02*
X173122000Y-114506000D01*
X131865000Y-144921000D02*
X133547000Y-146603000D01*
D54*
%TO.N,+5V*%
X85053400Y-126790000D02*
X90128000Y-126790000D01*
D52*
X85053400Y-124300000D02*
X85053400Y-126790000D01*
X163760000Y-103018000D02*
X162571000Y-104207000D01*
X172071000Y-110696000D02*
X169028000Y-107653000D01*
D54*
X76116800Y-105926000D02*
X74694700Y-107348000D01*
D52*
X162571000Y-104207000D02*
X158411600Y-104207000D01*
X85053400Y-126790000D02*
X85053400Y-128863000D01*
X79847600Y-126790000D02*
X79847600Y-128928000D01*
X173122000Y-110696000D02*
X172071000Y-110696000D01*
D54*
X90128000Y-126790000D02*
X90206200Y-126869000D01*
X79847600Y-126790000D02*
X85053400Y-126790000D01*
X74694700Y-107348000D02*
X74694700Y-124310600D01*
X74694700Y-126790000D02*
X79847600Y-126790000D01*
D52*
X169028000Y-107653000D02*
X169028000Y-103018000D01*
X169028000Y-103018000D02*
X163760000Y-103018000D01*
X90206200Y-126869000D02*
X90206200Y-128720000D01*
D54*
X74694700Y-126790000D02*
X74694700Y-128918000D01*
X74694700Y-124310600D02*
X74694700Y-126790000D01*
D52*
X79847600Y-124300000D02*
X79847600Y-126790000D01*
X90206200Y-124300000D02*
X90206200Y-126869000D01*
D54*
%TO.N,+10V*%
X102249000Y-105645640D02*
X106680997Y-110077637D01*
X85817000Y-102041000D02*
X95061500Y-102041000D01*
X98322900Y-131961000D02*
X98322900Y-105302000D01*
X115968000Y-105083000D02*
X123341000Y-105083000D01*
X129761000Y-149052000D02*
X126626000Y-152187000D01*
X110972363Y-110077637D02*
X111106000Y-109944000D01*
X81684900Y-97908600D02*
X85817000Y-102041000D01*
X123341000Y-105083000D02*
X124817000Y-103608000D01*
X126626000Y-152187000D02*
X105025000Y-152187000D01*
X124817000Y-103608000D02*
X132403000Y-103608000D01*
X100467000Y-134105000D02*
X98322900Y-131961000D01*
X95061500Y-102041000D02*
X98322900Y-105302000D01*
X111106000Y-109944000D02*
X115968000Y-105083000D01*
X132403000Y-103608000D02*
X133586000Y-104790000D01*
X106680997Y-110077637D02*
X110972363Y-110077637D01*
X105025000Y-152187000D02*
X100467000Y-147629000D01*
X98322900Y-105302000D02*
X102249000Y-105302000D01*
X100467000Y-147629000D02*
X100467000Y-134105000D01*
X133586000Y-104790000D02*
X133586000Y-106400900D01*
X102249000Y-105302000D02*
X102249000Y-105645640D01*
D53*
%TO.N,Net-(D10-Pad1)*%
X162598500Y-118980400D02*
X159855800Y-116237700D01*
X164985900Y-118809900D02*
X164815400Y-118980400D01*
X159855800Y-116237700D02*
X159855800Y-115613100D01*
X164815400Y-118980400D02*
X162598500Y-118980400D01*
X164985900Y-111965800D02*
X164985900Y-118809900D01*
X159005700Y-115613100D02*
X159855800Y-115613100D01*
X163698300Y-111965800D02*
X164985900Y-111965800D01*
%TO.N,SCLK*%
X226946400Y-105245800D02*
X226581200Y-105245800D01*
X233347100Y-124644900D02*
X233347100Y-111646500D01*
X226581200Y-104070700D02*
X226581200Y-105245800D01*
X234522200Y-126627800D02*
X234522200Y-125452700D01*
X233347100Y-111646500D02*
X226946400Y-105245800D01*
X234154900Y-125452700D02*
X233347100Y-124644900D01*
X234522200Y-125452700D02*
X234154900Y-125452700D01*
%TO.N,ThrottlePositionADC*%
X166672400Y-148568200D02*
X166672400Y-149051900D01*
X162409800Y-146929600D02*
X165033800Y-146929600D01*
X156870500Y-140072100D02*
X156870500Y-141390300D01*
X165033800Y-146929600D02*
X166672400Y-148568200D01*
X139802100Y-123261800D02*
X140060200Y-123261800D01*
X140060200Y-123261800D02*
X156870500Y-140072100D01*
X139802100Y-122136700D02*
X139802100Y-123261800D01*
X167861100Y-149051900D02*
X166672400Y-149051900D01*
X156870500Y-141390300D02*
X162409800Y-146929600D01*
D54*
%TO.N,Net-(C15-Pad2)*%
X125393000Y-75213100D02*
X125393000Y-80795300D01*
D53*
%TO.N,Net-(D3-Pad2)*%
X83489500Y-150182100D02*
X83489500Y-141974200D01*
X83489500Y-141974200D02*
X82764500Y-141249200D01*
%TO.N,Net-(D9-Pad1)*%
X189287900Y-114768000D02*
X193086800Y-110969100D01*
X193086800Y-110969100D02*
X193086800Y-109330300D01*
X189287900Y-115880600D02*
X189287900Y-114768000D01*
X192103500Y-105861900D02*
X195938300Y-105861900D01*
X191208700Y-107551100D02*
X191208700Y-106756700D01*
X195938300Y-105861900D02*
X199748300Y-102051900D01*
X191208700Y-106756700D02*
X192103500Y-105861900D01*
X191900400Y-108242800D02*
X191208700Y-107551100D01*
X199771300Y-102028900D02*
X199771300Y-98617200D01*
X191999300Y-108242800D02*
X191900400Y-108242800D01*
X193086800Y-109330300D02*
X191999300Y-108242800D01*
%TO.N,AltCurrent*%
X145001100Y-142550100D02*
X145001100Y-149051900D01*
X136661700Y-131010600D02*
X136661700Y-136733200D01*
X139855600Y-137404600D02*
X145001100Y-142550100D01*
X138662700Y-127443700D02*
X138662700Y-129009600D01*
X136661700Y-136733200D02*
X137333100Y-137404600D01*
X138662700Y-129009600D02*
X136661700Y-131010600D01*
X137333100Y-137404600D02*
X139855600Y-137404600D01*
X139787800Y-125193500D02*
X139787800Y-126318600D01*
X139787800Y-126318600D02*
X138662700Y-127443700D01*
%TO.N,AFR2*%
X153159200Y-137999200D02*
X143401300Y-128241300D01*
X153159200Y-141970000D02*
X153159200Y-137999200D01*
X143401300Y-128241300D02*
X139788100Y-128241300D01*
X160241100Y-149051900D02*
X159052400Y-149051900D01*
X159052400Y-147863200D02*
X153159200Y-141970000D01*
X159052400Y-149051900D02*
X159052400Y-147863200D01*
%TO.N,AFR1*%
X140210500Y-135009400D02*
X141277700Y-135009400D01*
X146759500Y-140491200D02*
X146759500Y-144024600D01*
X150377800Y-147642900D02*
X155103400Y-147642900D01*
X138935000Y-133733900D02*
X140210500Y-135009400D01*
X137809900Y-133733900D02*
X138935000Y-133733900D01*
X155103400Y-147642900D02*
X156512400Y-149051900D01*
X157701100Y-149051900D02*
X156512400Y-149051900D01*
X141277700Y-135009400D02*
X146759500Y-140491200D01*
X146759500Y-144024600D02*
X150377800Y-147642900D01*
%TO.N,SCL*%
X155681100Y-109425800D02*
X154494100Y-110612800D01*
X153369000Y-110612800D02*
X154494100Y-110612800D01*
X163698300Y-109425800D02*
X155681100Y-109425800D01*
%TO.N,SDA*%
X150284600Y-110612800D02*
X151409700Y-110612800D01*
X162410700Y-110695800D02*
X162254200Y-110539300D01*
X162254200Y-110539300D02*
X156825300Y-110539300D01*
X163698300Y-110695800D02*
X162410700Y-110695800D01*
X155578500Y-111786100D02*
X152583000Y-111786100D01*
X156825300Y-110539300D02*
X155578500Y-111786100D01*
X152583000Y-111786100D02*
X151409700Y-110612800D01*
%TO.N,WaterCS*%
X183626600Y-139449900D02*
X181879800Y-137703100D01*
X180191500Y-137703100D02*
X179209800Y-136721400D01*
X178021100Y-136351900D02*
X179209800Y-136351900D01*
X181879800Y-137703100D02*
X180191500Y-137703100D01*
X179209800Y-136721400D02*
X179209800Y-136351900D01*
%TO.N,/Sheet6152913C/RSCOM2TX*%
X117227000Y-106243700D02*
X110783000Y-112687700D01*
X110783000Y-112687700D02*
X110783000Y-129287000D01*
%TO.N,+3.3VP*%
X163371400Y-105999500D02*
X163371400Y-106624600D01*
X165483800Y-119007900D02*
X162498700Y-121993000D01*
X165483800Y-108737000D02*
X165483800Y-119007900D01*
X162498700Y-121993000D02*
X160082800Y-121993000D01*
X163371400Y-106624600D02*
X165483800Y-108737000D01*
%TO.N,+2V5*%
X135158000Y-139841000D02*
X137534000Y-139841000D01*
%TO.N,Net-(C27-Pad1)*%
X190758600Y-108302200D02*
X192128300Y-109671900D01*
X192128300Y-104591900D02*
X190758600Y-105961600D01*
X190758600Y-105961600D02*
X190758600Y-108302200D01*
%TO.N,Net-(C28-Pad1)*%
X199748300Y-104591900D02*
X199748300Y-107131900D01*
%TO.N,Net-(C30-Pad1)*%
X189287900Y-101780600D02*
X190133400Y-102626100D01*
X190133400Y-102626100D02*
X190133400Y-106772700D01*
D54*
%TO.N,Net-(D7-Pad1)*%
X92892200Y-85548400D02*
X95498200Y-85548400D01*
X95498200Y-85548400D02*
X96052200Y-86102400D01*
D53*
%TO.N,RPMEN*%
X211318800Y-99430300D02*
X204609600Y-106139500D01*
X215032600Y-89695600D02*
X211318800Y-93409400D01*
X203727100Y-106139500D02*
X200839200Y-109027400D01*
X211318800Y-93409400D02*
X211318800Y-99430300D01*
X204609600Y-106139500D02*
X203727100Y-106139500D01*
X200839200Y-109027400D02*
X200839200Y-116393500D01*
D56*
%TO.N,Sense2-3*%
X180857000Y-59252400D02*
X179038000Y-57432700D01*
X179038000Y-57432700D02*
X157113000Y-57432700D01*
X157113000Y-57432700D02*
X152969100Y-53288800D01*
D53*
%TO.N,Net-(IC12-Pad5)*%
X135158200Y-143650800D02*
X135158200Y-142381300D01*
X135158000Y-144286000D02*
X135158000Y-143651000D01*
X126761900Y-107716700D02*
X126761900Y-108566800D01*
X135158000Y-143651000D02*
X135158200Y-143650800D01*
X135158000Y-144286000D02*
X135158200Y-144286200D01*
X127712400Y-109517300D02*
X127712400Y-110772600D01*
X135158200Y-144286200D02*
X135158200Y-144921300D01*
X135158000Y-143651000D02*
X135158000Y-142381000D01*
X135158000Y-144921000D02*
X135158000Y-144286000D01*
X126761900Y-108566800D02*
X127712400Y-109517300D01*
%TO.N,Sense2-7*%
X128501500Y-119923700D02*
X128501500Y-119256800D01*
X132410300Y-110955200D02*
X133154600Y-110210900D01*
X133154600Y-110210900D02*
X134056700Y-110210900D01*
X132410300Y-115348000D02*
X132410300Y-110955200D01*
X142252300Y-99119200D02*
X147624900Y-99119200D01*
X119512100Y-128913100D02*
X128501500Y-119923700D01*
X119512100Y-132503500D02*
X119512100Y-128913100D01*
X134056700Y-110210900D02*
X141109900Y-103157700D01*
X141109900Y-103157700D02*
X141109900Y-100261600D01*
X141109900Y-100261600D02*
X142252300Y-99119200D01*
X128501500Y-119256800D02*
X132410300Y-115348000D01*
%TO.N,Sense1-1*%
X187676500Y-101458400D02*
X185535400Y-103599500D01*
X188482300Y-91224600D02*
X188482300Y-96801500D01*
X185535400Y-103599500D02*
X184743300Y-103599500D01*
X194752900Y-84954000D02*
X188482300Y-91224600D01*
X184743300Y-103599500D02*
X183802800Y-104540000D01*
X183802800Y-104540000D02*
X183802800Y-111193900D01*
X187676500Y-97607300D02*
X187676500Y-101458400D01*
X188482300Y-96801500D02*
X187676500Y-97607300D01*
X194752900Y-82759400D02*
X194752900Y-84954000D01*
%TO.N,Sense1-3*%
X179291100Y-133399600D02*
X180230000Y-132460700D01*
X181057100Y-132460700D02*
X188175200Y-125342600D01*
X179291100Y-134300300D02*
X179291100Y-133399600D01*
X174642200Y-135512100D02*
X175767300Y-135512100D01*
X180230000Y-132460700D02*
X181057100Y-132460700D01*
X175767300Y-135512100D02*
X176278700Y-135000700D01*
X178590700Y-135000700D02*
X179291100Y-134300300D01*
X195846400Y-90386600D02*
X195846400Y-82691000D01*
X188175200Y-98057800D02*
X195846400Y-90386600D01*
X176278700Y-135000700D02*
X178590700Y-135000700D01*
X188175200Y-125342600D02*
X188175200Y-98057800D01*
%TO.N,Sense1-10*%
X179291100Y-99187300D02*
X179291100Y-106290300D01*
X177676500Y-107060700D02*
X176627700Y-108109500D01*
X184236200Y-94242200D02*
X179291100Y-99187300D01*
X178520700Y-107060700D02*
X177676500Y-107060700D01*
X184236200Y-91766000D02*
X184236200Y-94242200D01*
X185133700Y-90868500D02*
X184236200Y-91766000D01*
X179291100Y-106290300D02*
X178520700Y-107060700D01*
%TO.N,Sense1-11*%
X183308200Y-96443400D02*
X183308200Y-99474000D01*
X186140800Y-91843700D02*
X185361200Y-92623300D01*
X185361200Y-94390400D02*
X183308200Y-96443400D01*
X185361200Y-92623300D02*
X185361200Y-94390400D01*
%TO.N,SDDetect*%
X218111900Y-87155600D02*
X218111900Y-88280700D01*
X202099100Y-110383000D02*
X203802600Y-108679500D01*
X217830500Y-88280700D02*
X218111900Y-88280700D01*
X216986800Y-89124400D02*
X217830500Y-88280700D01*
X216986800Y-96661500D02*
X216986800Y-89124400D01*
X204968800Y-108679500D02*
X216986800Y-96661500D01*
X202099100Y-111481100D02*
X202099100Y-110383000D01*
X203802600Y-108679500D02*
X204968800Y-108679500D01*
%TO.N,Vacuum1*%
X139921100Y-149051900D02*
X139921100Y-147710800D01*
X139079900Y-143876700D02*
X139079900Y-146869600D01*
X136180500Y-140977300D02*
X139079900Y-143876700D01*
X139079900Y-146869600D02*
X139921100Y-147710800D01*
X135459500Y-140977300D02*
X136180500Y-140977300D01*
%TO.N,OUTPUTLED2*%
X173308400Y-122197000D02*
X174410000Y-121095400D01*
X174410000Y-121095400D02*
X174410000Y-106175100D01*
X173308400Y-131215400D02*
X173308400Y-122197000D01*
X178511700Y-132504100D02*
X174597100Y-132504100D01*
X171823100Y-98920100D02*
X174196800Y-96546400D01*
X179372400Y-131271900D02*
X179372400Y-131643400D01*
X179372400Y-131643400D02*
X178511700Y-132504100D01*
X171823100Y-103588200D02*
X171823100Y-98920100D01*
X174597100Y-132504100D02*
X173308400Y-131215400D01*
X180561100Y-131271900D02*
X179372400Y-131271900D01*
X174410000Y-106175100D02*
X171823100Y-103588200D01*
%TO.N,OUTPUTLED1*%
X180189500Y-127543200D02*
X179372400Y-126726100D01*
X177541800Y-124921900D02*
X175980400Y-123360500D01*
X175980400Y-123360500D02*
X175980400Y-104471600D01*
X176623700Y-97276100D02*
X176041300Y-96693700D01*
X179372400Y-126726100D02*
X179372400Y-125840200D01*
X178454100Y-124921900D02*
X177541800Y-124921900D01*
X175980400Y-104471600D02*
X176623700Y-103828300D01*
X180561100Y-128731900D02*
X180561100Y-127543200D01*
X176623700Y-103828300D02*
X176623700Y-97276100D01*
X180561100Y-127543200D02*
X180189500Y-127543200D01*
X179372400Y-125840200D02*
X178454100Y-124921900D01*
D52*
%TO.N,Net-(Q18-Pad1)*%
X168321000Y-54715000D02*
X167229300Y-53623300D01*
X182479000Y-58218000D02*
X178976000Y-54715000D01*
X178976000Y-54715000D02*
X168321000Y-54715000D01*
X162856200Y-78927100D02*
X168634000Y-73149400D01*
X168634000Y-73149400D02*
X174582000Y-73149400D01*
X182479000Y-65253000D02*
X182479000Y-58218000D01*
X174582000Y-73149400D02*
X182479000Y-65253000D01*
D53*
%TO.N,SpareBufferedADC*%
X141938200Y-124486700D02*
X141938200Y-122323100D01*
X141938200Y-122323100D02*
X139802100Y-120187000D01*
X154416900Y-136965400D02*
X141938200Y-124486700D01*
X169212400Y-149051900D02*
X169212400Y-148532900D01*
X158431000Y-136965400D02*
X154416900Y-136965400D01*
X139802100Y-119061900D02*
X139802100Y-120187000D01*
X162045300Y-141461500D02*
X162045300Y-140579700D01*
X162045300Y-140579700D02*
X158431000Y-136965400D01*
X163221600Y-142637800D02*
X162045300Y-141461500D01*
X170401100Y-149051900D02*
X169212400Y-149051900D01*
X163317300Y-142637800D02*
X163221600Y-142637800D01*
X169212400Y-148532900D02*
X163317300Y-142637800D01*
%TO.N,Sense1-6*%
X186813900Y-91177100D02*
X186813900Y-92070500D01*
X191445100Y-86545900D02*
X186813900Y-91177100D01*
X186813900Y-92070500D02*
X185811400Y-93073000D01*
X185811400Y-93073000D02*
X185811400Y-94841900D01*
D55*
%TO.N,+VSW*%
X115011000Y-75803600D02*
X115811000Y-75003600D01*
X110587100Y-70484300D02*
X110509000Y-70406100D01*
D54*
X233346000Y-80750900D02*
X221831000Y-80750900D01*
D55*
X93345100Y-80129100D02*
X97670600Y-75803600D01*
X99816500Y-71140600D02*
X99816500Y-70698300D01*
X99816500Y-70698300D02*
X95632700Y-66514500D01*
D54*
X94509100Y-94573800D02*
X94509100Y-89790200D01*
D55*
X97670600Y-73286400D02*
X99816500Y-71140600D01*
D54*
X79144900Y-97908600D02*
X82479700Y-94573800D01*
X90012100Y-81128600D02*
X89012600Y-80129100D01*
D53*
X133571100Y-103440700D02*
X134180800Y-104050400D01*
D55*
X97670600Y-75803600D02*
X97670600Y-73286400D01*
D54*
X235375000Y-82780400D02*
X233346000Y-80750900D01*
X94509100Y-89790200D02*
X90012100Y-85293200D01*
X97676000Y-97740700D02*
X133571100Y-97740700D01*
X221831000Y-80750900D02*
X191376292Y-80750900D01*
X221831000Y-80750900D02*
X218074000Y-84508000D01*
X183650000Y-88477192D02*
X183650000Y-89177900D01*
D55*
X115811000Y-75003600D02*
X115811000Y-77818100D01*
D53*
X133571100Y-97740700D02*
X133571100Y-103440700D01*
D55*
X115811000Y-77818100D02*
X113074200Y-80554700D01*
X115811000Y-75003600D02*
X115106000Y-75003600D01*
X88471600Y-80129100D02*
X89012600Y-80129100D01*
X115106000Y-75003600D02*
X110587100Y-70484300D01*
D54*
X179189000Y-89177900D02*
X170626000Y-97740700D01*
X90012100Y-85293200D02*
X90012100Y-81128600D01*
D55*
X89012600Y-80129100D02*
X93345100Y-80129100D01*
D54*
X183650000Y-89177900D02*
X179189000Y-89177900D01*
X170626000Y-97740700D02*
X133571100Y-97740700D01*
X94509100Y-94573800D02*
X97676000Y-97740700D01*
D55*
X97670600Y-75803600D02*
X115011000Y-75803600D01*
D54*
X82479700Y-94573800D02*
X94509100Y-94573800D01*
X191376292Y-80750900D02*
X183650000Y-88477192D01*
D53*
%TO.N,Net-(D1-Pad1)*%
X79281200Y-86958500D02*
X80706300Y-88383600D01*
X79281200Y-77083500D02*
X79281200Y-86958500D01*
X80706300Y-89808700D02*
X80706300Y-88383600D01*
D55*
%TO.N,Net-(J21-Pad1)*%
X89829200Y-68896700D02*
X91265200Y-67460700D01*
X91265200Y-67460700D02*
X91265200Y-55743100D01*
X88471600Y-68896700D02*
X89829200Y-68896700D01*
D53*
%TO.N,Net-(Q21-Pad1)*%
X80916200Y-77111700D02*
X80916200Y-74949000D01*
X83647500Y-79137000D02*
X82941500Y-79137000D01*
X80916200Y-74949000D02*
X79280500Y-73313300D01*
X82941500Y-79137000D02*
X80916200Y-77111700D01*
X79280500Y-72188200D02*
X79280500Y-73313300D01*
%TO.N,Net-(Q5-Pad3)*%
X86562200Y-85039000D02*
X87981600Y-86458400D01*
X82270500Y-70202600D02*
X86562200Y-74494300D01*
X82270500Y-69077500D02*
X82270500Y-70202600D01*
X86562200Y-74494300D02*
X86562200Y-85039000D01*
X87981600Y-87308500D02*
X87981600Y-86458400D01*
%TO.N,Net-(IC19-Pad2)*%
X165118300Y-106324400D02*
X164126300Y-105332400D01*
X165471400Y-106949500D02*
X165471400Y-106324400D01*
X164126300Y-105332400D02*
X162642700Y-105332400D01*
X165471400Y-106324400D02*
X165118300Y-106324400D01*
X162642700Y-105332400D02*
X162410600Y-105564500D01*
X162410600Y-105564500D02*
X162410600Y-106675000D01*
%TO.N,Sense1-12*%
X184782400Y-94332600D02*
X182441300Y-96673700D01*
X182441300Y-96673700D02*
X182441300Y-108316700D01*
X182441300Y-108316700D02*
X181026600Y-109731400D01*
X184782400Y-92230300D02*
X184782400Y-94332600D01*
X181026600Y-109731400D02*
X178841500Y-109731400D01*
X185855200Y-90458000D02*
X185855200Y-91157500D01*
X185855200Y-91157500D02*
X184782400Y-92230300D01*
%TO.N,Sense1-8*%
X187714200Y-91307000D02*
X193299300Y-85721900D01*
X183066400Y-100866400D02*
X183259500Y-101059500D01*
X185550400Y-101059500D02*
X186455800Y-100154100D01*
X183259500Y-101059500D02*
X185550400Y-101059500D01*
X186455800Y-93065200D02*
X187714200Y-91806800D01*
X193299300Y-81943300D02*
X193058600Y-81702600D01*
X186455800Y-100154100D02*
X186455800Y-93065200D01*
X193299300Y-85721900D02*
X193299300Y-81943300D01*
X187714200Y-91806800D02*
X187714200Y-91307000D01*
%TO.N,RTDSCLK*%
X186331100Y-113223600D02*
X186331100Y-106871700D01*
X209194000Y-99031800D02*
X204531400Y-103694400D01*
X209194000Y-98811500D02*
X209194000Y-99031800D01*
X204531400Y-103694400D02*
X204215900Y-103694400D01*
X204215900Y-104869500D02*
X204215900Y-103694400D01*
X186331100Y-106871700D02*
X185504000Y-106044600D01*
X185138800Y-104869500D02*
X185138800Y-106044600D01*
X185504000Y-106044600D02*
X185138800Y-106044600D01*
%TD*%
%TA.AperFunction,Conductor*%
%TO.N,GND*%
G36*
X112895346Y-47598319D02*
G01*
X112963431Y-47618442D01*
X113009828Y-47672180D01*
X113021121Y-47724822D01*
X113014651Y-49347090D01*
X112994377Y-49415130D01*
X112940537Y-49461408D01*
X112870223Y-49471232D01*
X112805760Y-49441482D01*
X112781219Y-49412422D01*
X112766558Y-49388498D01*
X112763976Y-49384284D01*
X112609769Y-49203731D01*
X112429216Y-49049524D01*
X112425008Y-49046945D01*
X112425002Y-49046941D01*
X112230983Y-48928046D01*
X112226763Y-48925460D01*
X112222193Y-48923567D01*
X112222189Y-48923565D01*
X112011967Y-48836489D01*
X112011965Y-48836488D01*
X112007394Y-48834595D01*
X111927191Y-48815340D01*
X111781324Y-48780320D01*
X111781318Y-48780319D01*
X111776511Y-48779165D01*
X111539800Y-48760535D01*
X111303089Y-48779165D01*
X111298282Y-48780319D01*
X111298276Y-48780320D01*
X111152409Y-48815340D01*
X111072206Y-48834595D01*
X111067635Y-48836488D01*
X111067633Y-48836489D01*
X110857411Y-48923565D01*
X110857407Y-48923567D01*
X110852837Y-48925460D01*
X110848617Y-48928046D01*
X110654598Y-49046941D01*
X110654592Y-49046945D01*
X110650384Y-49049524D01*
X110469831Y-49203731D01*
X110315624Y-49384284D01*
X110313045Y-49388492D01*
X110313041Y-49388498D01*
X110268362Y-49461408D01*
X110191560Y-49586737D01*
X110100695Y-49806106D01*
X110045265Y-50036989D01*
X110026635Y-50273700D01*
X110045265Y-50510411D01*
X110100695Y-50741294D01*
X110191560Y-50960663D01*
X110194146Y-50964883D01*
X110313041Y-51158902D01*
X110313045Y-51158908D01*
X110315624Y-51163116D01*
X110469831Y-51343669D01*
X110650384Y-51497876D01*
X110654592Y-51500455D01*
X110654598Y-51500459D01*
X110848617Y-51619354D01*
X110852837Y-51621940D01*
X110857407Y-51623833D01*
X110857411Y-51623835D01*
X111067633Y-51710911D01*
X111072206Y-51712805D01*
X111152409Y-51732060D01*
X111298276Y-51767080D01*
X111298282Y-51767081D01*
X111303089Y-51768235D01*
X111539800Y-51786865D01*
X111776511Y-51768235D01*
X111781318Y-51767081D01*
X111781324Y-51767080D01*
X111927191Y-51732060D01*
X112007394Y-51712805D01*
X112011967Y-51710911D01*
X112222189Y-51623835D01*
X112222193Y-51623833D01*
X112226763Y-51621940D01*
X112230983Y-51619354D01*
X112425002Y-51500459D01*
X112425008Y-51500455D01*
X112429216Y-51497876D01*
X112609769Y-51343669D01*
X112763976Y-51163116D01*
X112766561Y-51158898D01*
X112773776Y-51147125D01*
X112826425Y-51099494D01*
X112896466Y-51087888D01*
X112961663Y-51115992D01*
X113001317Y-51174883D01*
X113007207Y-51213464D01*
X112999684Y-53099599D01*
X112963558Y-62157521D01*
X112963480Y-62177001D01*
X112943206Y-62245041D01*
X112889366Y-62291319D01*
X112837417Y-62302498D01*
X98887948Y-62295356D01*
X98819839Y-62275319D01*
X98773374Y-62221640D01*
X98763306Y-62151360D01*
X98772405Y-62130355D01*
X98774145Y-62113546D01*
X98765956Y-62097966D01*
X98064412Y-61396422D01*
X98050468Y-61388808D01*
X98048635Y-61388939D01*
X98042020Y-61393190D01*
X97336523Y-62098687D01*
X97328909Y-62112631D01*
X97330085Y-62129082D01*
X97341209Y-62157521D01*
X97327218Y-62227126D01*
X97277818Y-62278117D01*
X97215624Y-62294500D01*
X94555550Y-62293138D01*
X94522858Y-62293121D01*
X94454748Y-62273084D01*
X94408283Y-62219405D01*
X94396926Y-62168047D01*
X94388560Y-61029875D01*
X96739083Y-61029875D01*
X96758072Y-61246919D01*
X96759975Y-61257712D01*
X96816364Y-61468161D01*
X96820110Y-61478453D01*
X96912186Y-61675911D01*
X96917669Y-61685406D01*
X96954109Y-61737448D01*
X96964588Y-61745824D01*
X96978034Y-61738756D01*
X97679578Y-61037212D01*
X97685956Y-61025532D01*
X98416008Y-61025532D01*
X98416139Y-61027365D01*
X98420390Y-61033980D01*
X99125887Y-61739477D01*
X99137662Y-61745907D01*
X99149677Y-61736611D01*
X99185531Y-61685406D01*
X99191014Y-61675911D01*
X99283090Y-61478453D01*
X99286836Y-61468161D01*
X99343225Y-61257712D01*
X99345128Y-61246919D01*
X99364117Y-61029875D01*
X99364117Y-61018925D01*
X99345128Y-60801881D01*
X99343225Y-60791088D01*
X99286836Y-60580639D01*
X99283090Y-60570347D01*
X99191014Y-60372889D01*
X99185531Y-60363394D01*
X99149091Y-60311352D01*
X99138612Y-60302976D01*
X99125166Y-60310044D01*
X98423622Y-61011588D01*
X98416008Y-61025532D01*
X97685956Y-61025532D01*
X97687192Y-61023268D01*
X97687061Y-61021435D01*
X97682810Y-61014820D01*
X96977313Y-60309323D01*
X96965538Y-60302893D01*
X96953523Y-60312189D01*
X96917669Y-60363394D01*
X96912186Y-60372889D01*
X96820110Y-60570347D01*
X96816364Y-60580639D01*
X96759975Y-60791088D01*
X96758072Y-60801881D01*
X96739083Y-61018925D01*
X96739083Y-61029875D01*
X94388560Y-61029875D01*
X94376377Y-59372534D01*
X96743100Y-59372534D01*
X96749855Y-59434716D01*
X96800985Y-59571105D01*
X96888339Y-59687661D01*
X97004895Y-59775015D01*
X97141284Y-59826145D01*
X97184852Y-59830878D01*
X97200086Y-59832533D01*
X97200089Y-59832533D01*
X97203466Y-59832900D01*
X97206785Y-59832900D01*
X97273710Y-59856553D01*
X97309404Y-59902556D01*
X97311334Y-59901541D01*
X97317042Y-59912400D01*
X97317232Y-59912645D01*
X97317253Y-59912803D01*
X97337244Y-59950834D01*
X98038788Y-60652378D01*
X98052732Y-60659992D01*
X98054565Y-60659861D01*
X98061180Y-60655610D01*
X98766677Y-59950113D01*
X98789471Y-59908371D01*
X98791647Y-59898371D01*
X98841853Y-59848173D01*
X98895414Y-59832949D01*
X98896319Y-59832900D01*
X98899734Y-59832900D01*
X98903130Y-59832531D01*
X98903132Y-59832531D01*
X98915479Y-59831190D01*
X98961916Y-59826145D01*
X99098305Y-59775015D01*
X99214861Y-59687661D01*
X99302215Y-59571105D01*
X99353345Y-59434716D01*
X99360100Y-59372534D01*
X99360100Y-57676266D01*
X99353345Y-57614084D01*
X99302215Y-57477695D01*
X99255003Y-57414700D01*
X109070102Y-57414700D01*
X109090057Y-57642787D01*
X109091481Y-57648100D01*
X109091481Y-57648102D01*
X109098118Y-57672869D01*
X109149316Y-57863943D01*
X109151639Y-57868924D01*
X109151639Y-57868925D01*
X109243751Y-58066462D01*
X109243754Y-58066467D01*
X109246077Y-58071449D01*
X109377402Y-58259000D01*
X109539300Y-58420898D01*
X109543808Y-58424055D01*
X109543811Y-58424057D01*
X109621989Y-58478798D01*
X109726851Y-58552223D01*
X109731833Y-58554546D01*
X109731838Y-58554549D01*
X109929375Y-58646661D01*
X109934357Y-58648984D01*
X109939665Y-58650406D01*
X109939667Y-58650407D01*
X110150198Y-58706819D01*
X110150200Y-58706819D01*
X110155513Y-58708243D01*
X110383600Y-58728198D01*
X110611687Y-58708243D01*
X110617000Y-58706819D01*
X110617002Y-58706819D01*
X110827533Y-58650407D01*
X110827535Y-58650406D01*
X110832843Y-58648984D01*
X110837825Y-58646661D01*
X111035362Y-58554549D01*
X111035367Y-58554546D01*
X111040349Y-58552223D01*
X111145211Y-58478798D01*
X111223389Y-58424057D01*
X111223392Y-58424055D01*
X111227900Y-58420898D01*
X111389798Y-58259000D01*
X111521123Y-58071449D01*
X111523446Y-58066467D01*
X111523449Y-58066462D01*
X111615561Y-57868925D01*
X111615561Y-57868924D01*
X111617884Y-57863943D01*
X111669083Y-57672869D01*
X111675719Y-57648102D01*
X111675719Y-57648100D01*
X111677143Y-57642787D01*
X111697098Y-57414700D01*
X111677143Y-57186613D01*
X111617884Y-56965457D01*
X111615561Y-56960475D01*
X111523449Y-56762938D01*
X111523446Y-56762933D01*
X111521123Y-56757951D01*
X111389798Y-56570400D01*
X111227900Y-56408502D01*
X111223392Y-56405345D01*
X111223389Y-56405343D01*
X111145211Y-56350602D01*
X111040349Y-56277177D01*
X111035367Y-56274854D01*
X111035362Y-56274851D01*
X110837825Y-56182739D01*
X110837824Y-56182739D01*
X110832843Y-56180416D01*
X110827535Y-56178994D01*
X110827533Y-56178993D01*
X110617002Y-56122581D01*
X110617000Y-56122581D01*
X110611687Y-56121157D01*
X110383600Y-56101202D01*
X110155513Y-56121157D01*
X110150200Y-56122581D01*
X110150198Y-56122581D01*
X109939667Y-56178993D01*
X109939665Y-56178994D01*
X109934357Y-56180416D01*
X109929376Y-56182739D01*
X109929375Y-56182739D01*
X109731838Y-56274851D01*
X109731833Y-56274854D01*
X109726851Y-56277177D01*
X109621989Y-56350602D01*
X109543811Y-56405343D01*
X109543808Y-56405345D01*
X109539300Y-56408502D01*
X109377402Y-56570400D01*
X109246077Y-56757951D01*
X109243754Y-56762933D01*
X109243751Y-56762938D01*
X109151639Y-56960475D01*
X109149316Y-56965457D01*
X109090057Y-57186613D01*
X109070102Y-57414700D01*
X99255003Y-57414700D01*
X99214861Y-57361139D01*
X99098305Y-57273785D01*
X98961916Y-57222655D01*
X98899734Y-57215900D01*
X97203466Y-57215900D01*
X97141284Y-57222655D01*
X97004895Y-57273785D01*
X96888339Y-57361139D01*
X96800985Y-57477695D01*
X96749855Y-57614084D01*
X96743100Y-57676266D01*
X96743100Y-59372534D01*
X94376377Y-59372534D01*
X94370323Y-58549066D01*
X94337633Y-54101900D01*
X95184502Y-54101900D01*
X95204457Y-54329987D01*
X95263716Y-54551143D01*
X95266039Y-54556124D01*
X95266039Y-54556125D01*
X95358151Y-54753662D01*
X95358154Y-54753667D01*
X95360477Y-54758649D01*
X95491802Y-54946200D01*
X95653700Y-55108098D01*
X95658208Y-55111255D01*
X95658211Y-55111257D01*
X95736389Y-55165998D01*
X95841251Y-55239423D01*
X95846233Y-55241746D01*
X95846238Y-55241749D01*
X96043775Y-55333861D01*
X96048757Y-55336184D01*
X96054065Y-55337606D01*
X96054067Y-55337607D01*
X96264598Y-55394019D01*
X96264600Y-55394019D01*
X96269913Y-55395443D01*
X96498000Y-55415398D01*
X96726087Y-55395443D01*
X96731400Y-55394019D01*
X96731402Y-55394019D01*
X96941933Y-55337607D01*
X96941935Y-55337606D01*
X96947243Y-55336184D01*
X96952225Y-55333861D01*
X97149762Y-55241749D01*
X97149767Y-55241746D01*
X97154749Y-55239423D01*
X97259611Y-55165998D01*
X97337789Y-55111257D01*
X97337792Y-55111255D01*
X97342300Y-55108098D01*
X97504198Y-54946200D01*
X97635523Y-54758649D01*
X97637846Y-54753667D01*
X97637849Y-54753662D01*
X97653805Y-54719443D01*
X97700722Y-54666158D01*
X97768999Y-54646697D01*
X97836959Y-54667239D01*
X97882195Y-54719443D01*
X97898151Y-54753662D01*
X97898154Y-54753667D01*
X97900477Y-54758649D01*
X98031802Y-54946200D01*
X98193700Y-55108098D01*
X98198208Y-55111255D01*
X98198211Y-55111257D01*
X98276389Y-55165998D01*
X98381251Y-55239423D01*
X98386233Y-55241746D01*
X98386238Y-55241749D01*
X98583775Y-55333861D01*
X98588757Y-55336184D01*
X98594065Y-55337606D01*
X98594067Y-55337607D01*
X98804598Y-55394019D01*
X98804600Y-55394019D01*
X98809913Y-55395443D01*
X99038000Y-55415398D01*
X99266087Y-55395443D01*
X99271400Y-55394019D01*
X99271402Y-55394019D01*
X99481933Y-55337607D01*
X99481935Y-55337606D01*
X99487243Y-55336184D01*
X99492225Y-55333861D01*
X99689762Y-55241749D01*
X99689767Y-55241746D01*
X99694749Y-55239423D01*
X99799611Y-55165998D01*
X99877789Y-55111257D01*
X99877792Y-55111255D01*
X99882300Y-55108098D01*
X100044198Y-54946200D01*
X100175523Y-54758649D01*
X100177846Y-54753667D01*
X100177849Y-54753662D01*
X100269961Y-54556125D01*
X100269961Y-54556124D01*
X100272284Y-54551143D01*
X100331543Y-54329987D01*
X100351498Y-54101900D01*
X100331543Y-53873813D01*
X100272284Y-53652657D01*
X100193805Y-53484357D01*
X100177849Y-53450138D01*
X100177846Y-53450133D01*
X100175523Y-53445151D01*
X100044198Y-53257600D01*
X99882300Y-53095702D01*
X99877792Y-53092545D01*
X99877789Y-53092543D01*
X99799611Y-53037802D01*
X99694749Y-52964377D01*
X99689767Y-52962054D01*
X99689762Y-52962051D01*
X99492225Y-52869939D01*
X99492224Y-52869939D01*
X99487243Y-52867616D01*
X99481935Y-52866194D01*
X99481933Y-52866193D01*
X99271402Y-52809781D01*
X99271400Y-52809781D01*
X99266087Y-52808357D01*
X99038000Y-52788402D01*
X98809913Y-52808357D01*
X98804600Y-52809781D01*
X98804598Y-52809781D01*
X98594067Y-52866193D01*
X98594065Y-52866194D01*
X98588757Y-52867616D01*
X98583776Y-52869939D01*
X98583775Y-52869939D01*
X98386238Y-52962051D01*
X98386233Y-52962054D01*
X98381251Y-52964377D01*
X98276389Y-53037802D01*
X98198211Y-53092543D01*
X98198208Y-53092545D01*
X98193700Y-53095702D01*
X98031802Y-53257600D01*
X97900477Y-53445151D01*
X97898154Y-53450133D01*
X97898151Y-53450138D01*
X97882195Y-53484357D01*
X97835278Y-53537642D01*
X97767001Y-53557103D01*
X97699041Y-53536561D01*
X97653805Y-53484357D01*
X97637849Y-53450138D01*
X97637846Y-53450133D01*
X97635523Y-53445151D01*
X97504198Y-53257600D01*
X97342300Y-53095702D01*
X97337792Y-53092545D01*
X97337789Y-53092543D01*
X97259611Y-53037802D01*
X97154749Y-52964377D01*
X97149767Y-52962054D01*
X97149762Y-52962051D01*
X96952225Y-52869939D01*
X96952224Y-52869939D01*
X96947243Y-52867616D01*
X96941935Y-52866194D01*
X96941933Y-52866193D01*
X96731402Y-52809781D01*
X96731400Y-52809781D01*
X96726087Y-52808357D01*
X96498000Y-52788402D01*
X96269913Y-52808357D01*
X96264600Y-52809781D01*
X96264598Y-52809781D01*
X96054067Y-52866193D01*
X96054065Y-52866194D01*
X96048757Y-52867616D01*
X96043776Y-52869939D01*
X96043775Y-52869939D01*
X95846238Y-52962051D01*
X95846233Y-52962054D01*
X95841251Y-52964377D01*
X95736389Y-53037802D01*
X95658211Y-53092543D01*
X95658208Y-53092545D01*
X95653700Y-53095702D01*
X95491802Y-53257600D01*
X95360477Y-53445151D01*
X95358154Y-53450133D01*
X95358151Y-53450138D01*
X95342195Y-53484357D01*
X95263716Y-53652657D01*
X95204457Y-53873813D01*
X95184502Y-54101900D01*
X94337633Y-54101900D01*
X94309492Y-50273700D01*
X94786635Y-50273700D01*
X94805265Y-50510411D01*
X94860695Y-50741294D01*
X94951560Y-50960663D01*
X94954146Y-50964883D01*
X95073041Y-51158902D01*
X95073045Y-51158908D01*
X95075624Y-51163116D01*
X95229831Y-51343669D01*
X95410384Y-51497876D01*
X95414592Y-51500455D01*
X95414598Y-51500459D01*
X95608617Y-51619354D01*
X95612837Y-51621940D01*
X95617407Y-51623833D01*
X95617411Y-51623835D01*
X95827633Y-51710911D01*
X95832206Y-51712805D01*
X95912409Y-51732060D01*
X96058276Y-51767080D01*
X96058282Y-51767081D01*
X96063089Y-51768235D01*
X96299800Y-51786865D01*
X96536511Y-51768235D01*
X96541318Y-51767081D01*
X96541324Y-51767080D01*
X96687191Y-51732060D01*
X96767394Y-51712805D01*
X96771967Y-51710911D01*
X96982189Y-51623835D01*
X96982193Y-51623833D01*
X96986763Y-51621940D01*
X96990983Y-51619354D01*
X97185002Y-51500459D01*
X97185008Y-51500455D01*
X97189216Y-51497876D01*
X97369769Y-51343669D01*
X97523976Y-51163116D01*
X97526555Y-51158908D01*
X97526559Y-51158902D01*
X97645454Y-50964883D01*
X97648040Y-50960663D01*
X97738905Y-50741294D01*
X97794335Y-50510411D01*
X97812965Y-50273700D01*
X97794335Y-50036989D01*
X97738905Y-49806106D01*
X97648040Y-49586737D01*
X97571238Y-49461408D01*
X97526559Y-49388498D01*
X97526555Y-49388492D01*
X97523976Y-49384284D01*
X97369769Y-49203731D01*
X97189216Y-49049524D01*
X97185008Y-49046945D01*
X97185002Y-49046941D01*
X96990983Y-48928046D01*
X96986763Y-48925460D01*
X96982193Y-48923567D01*
X96982189Y-48923565D01*
X96771967Y-48836489D01*
X96771965Y-48836488D01*
X96767394Y-48834595D01*
X96687191Y-48815340D01*
X96541324Y-48780320D01*
X96541318Y-48780319D01*
X96536511Y-48779165D01*
X96299800Y-48760535D01*
X96063089Y-48779165D01*
X96058282Y-48780319D01*
X96058276Y-48780320D01*
X95912409Y-48815340D01*
X95832206Y-48834595D01*
X95827635Y-48836488D01*
X95827633Y-48836489D01*
X95617411Y-48923565D01*
X95617407Y-48923567D01*
X95612837Y-48925460D01*
X95608617Y-48928046D01*
X95414598Y-49046941D01*
X95414592Y-49046945D01*
X95410384Y-49049524D01*
X95229831Y-49203731D01*
X95075624Y-49384284D01*
X95073045Y-49388492D01*
X95073041Y-49388498D01*
X95028362Y-49461408D01*
X94951560Y-49586737D01*
X94860695Y-49806106D01*
X94805265Y-50036989D01*
X94786635Y-50273700D01*
X94309492Y-50273700D01*
X94290518Y-47692437D01*
X94310019Y-47624171D01*
X94363332Y-47577285D01*
X94416739Y-47565511D01*
X112895346Y-47598319D01*
G37*
%TD.AperFunction*%
%TD*%
M02*
