M48
INCH,TZ
T1C0.0157
T2C0.0236
T3C0.0287
T4C0.0295
T5C0.0299
T6C0.0315
T7C0.0394
T8C0.0400
T9C0.0413
T10C0.0433
T11C0.0504
T12C0.0512
T13C0.0547
T14C0.0591
T15C0.0610
T16C0.1200
%
G90
G05
T1
X28315Y-36334
X29020Y-47097
X29988Y-43591
X30503Y-44153
X31019Y-43591
X31020Y-47097
X32503Y-44152
X32584Y-55610
X32992Y-47118
X33500Y-47739
X34069Y-48188
X34156Y-44150
X34229Y-47839
X34503Y-44160
X34735Y-48064
X34957Y-44059
X35434Y-47728
X36018Y-47062
X36503Y-44146
X38920Y-54230
X39325Y-48266
X40241Y-38130
X40369Y-46698
X40428Y-32036
X40821Y-33374
X42159Y-30429
X45837Y-45136
X46584Y-45634
X48595Y-43138
X48870Y-39162
X49367Y-29611
X49908Y-51924
X50036Y-48880
X50070Y-46793
X50593Y-38903
X50695Y-40224
X51039Y-41869
X51044Y-48112
X51050Y-51845
X51102Y-46803
X51193Y-48586
X51555Y-52097
X52039Y-50380
X52827Y-40965
X53216Y-51628
X53331Y-55503
X54296Y-40680
X54674Y-44747
X54701Y-54668
X54706Y-40627
X58120Y-39023
X58604Y-50094
X58685Y-38109
X58910Y-37501
X58996Y-39020
X59427Y-37579
X59904Y-38090
X59917Y-54301
X60531Y-36940
X62287Y-51110
X62751Y-50921
X63941Y-41998
X64068Y-32855
X65363Y-39050
X65662Y-41588
X65845Y-49322
X65902Y-43717
X66223Y-44749
X66981Y-41995
X67908Y-41557
X68581Y-38010
X68989Y-37269
X69308Y-38068
X69538Y-42563
X70193Y-35956
X70410Y-43201
X70980Y-35967
X71784Y-34762
X71868Y-36191
X72073Y-39711
X72169Y-39163
X72288Y-36873
X72294Y-54902
X72363Y-43777
X72887Y-35775
X73154Y-37339
X73171Y-35613
X73284Y-36159
X73359Y-44576
X73834Y-29927
X73960Y-36461
X74724Y-37604
X74856Y-42036
X75372Y-34073
X75500Y-38937
X76007Y-32166
X76674Y-32582
X77105Y-32556
X79071Y-45824
X79317Y-45560
X79567Y-43890
X79727Y-39241
X81273Y-44770
X82007Y-41111
X82360Y-38902
X85726Y-54973
X85909Y-48316
T2
X84002Y-38049
X84592Y-38049
T3
X50086Y-54056
X50086Y-55056
X50086Y-56056
X50086Y-57056
X53212Y-54056
X53212Y-55056
X53212Y-56056
X53212Y-57056
X89667Y-32591
X89667Y-35717
X90667Y-32591
X90667Y-35717
X91667Y-32591
X91667Y-35717
X92667Y-32591
X92667Y-35717
T4
X27679Y-35247
X28179Y-35247
X28679Y-35247
X31850Y-55321
X31850Y-55821
X31850Y-56321
X32932Y-31156
X32932Y-35369
X34638Y-34373
X34638Y-34873
X34638Y-35373
X40322Y-57199
X40384Y-54765
X40822Y-57199
X40884Y-54765
X41322Y-57199
X41384Y-54765
X44397Y-56262
X44897Y-56262
X45397Y-56262
X49906Y-41408
X49906Y-41908
X49906Y-42408
X50960Y-20092
X51460Y-20092
X51960Y-20092
X54450Y-21290
X54882Y-33322
X54891Y-19076
X54902Y-28390
X54918Y-23826
X54950Y-21290
X55119Y-35496
X55221Y-25410
X55450Y-21290
X55619Y-35496
X55721Y-25410
X56119Y-35496
X56221Y-25410
X59095Y-33322
X59104Y-19076
X59115Y-28390
X59130Y-23826
X61601Y-45517
X62101Y-45517
X62298Y-36515
X62601Y-45517
X62798Y-36515
X63298Y-36515
X63343Y-33354
X63843Y-33354
X64343Y-33354
X65838Y-19066
X65838Y-20102
X65838Y-21111
X68750Y-33234
X69250Y-33234
X69750Y-33234
X70051Y-19066
X70051Y-20102
X70051Y-21111
X82622Y-32762
X83122Y-32762
X83622Y-32762
T5
X43152Y-40828
X43152Y-41828
X43152Y-42828
X43152Y-43828
X43152Y-44828
X43152Y-45828
X43152Y-46828
X43152Y-47828
X46152Y-40828
X46152Y-41828
X46152Y-42828
X46152Y-43828
X46152Y-44828
X46152Y-45828
X46152Y-46828
X46152Y-47828
X74738Y-33332
X74738Y-36332
X75641Y-40178
X75641Y-41178
X75641Y-42178
X75641Y-43178
X75738Y-33332
X75738Y-36332
X78641Y-40178
X78641Y-41178
X78641Y-42178
X78641Y-43178
X79738Y-33332
X79738Y-36332
X80738Y-33332
X80738Y-36332
T6
X29387Y-50776
X29407Y-48941
X29927Y-34783
X29927Y-35783
X30387Y-50776
X30407Y-48941
X31213Y-28421
X31357Y-30204
X31373Y-24985
X31373Y-25985
X31390Y-27196
X31436Y-48937
X31449Y-50772
X31691Y-57512
X31691Y-58512
X32213Y-28421
X32357Y-30204
X32390Y-27196
X32436Y-48937
X32449Y-50772
X33486Y-48937
X33528Y-50776
X34486Y-48937
X34528Y-50776
X35514Y-48937
X35613Y-50776
X36514Y-48937
X36613Y-50776
X37651Y-25203
X37651Y-26187
X37991Y-21300
X38200Y-28125
X38200Y-31078
X38603Y-23041
X38603Y-24025
X38728Y-36037
X38737Y-54970
X38737Y-56939
X38991Y-21300
X39728Y-36037
X39779Y-28914
X39805Y-25532
X40047Y-42782
X40047Y-43766
X40047Y-46159
X40047Y-47143
X40759Y-36032
X40852Y-37473
X41204Y-52527
X41645Y-41094
X41645Y-42078
X41645Y-44433
X41645Y-45417
X41748Y-28914
X41759Y-36032
X41773Y-25532
X42577Y-54426
X42577Y-55426
X42594Y-56850
X42594Y-57850
X42792Y-36028
X43173Y-52527
X43458Y-22604
X43458Y-25557
X43507Y-26735
X43507Y-27719
X43792Y-36028
X43805Y-37473
X44517Y-30730
X44517Y-31714
X45213Y-52139
X45213Y-54108
X45595Y-26576
X45595Y-29529
X46082Y-33926
X46082Y-36879
X46217Y-20071
X46610Y-55931
X46610Y-56931
X47052Y-52167
X47052Y-54135
X47247Y-47054
X47266Y-48865
X48247Y-47054
X48266Y-48865
X49047Y-54155
X49047Y-55155
X49050Y-56197
X49050Y-57197
X49169Y-20071
X49280Y-43611
X49590Y-33306
X49590Y-36259
X50280Y-43611
X50813Y-21527
X51180Y-34632
X51813Y-21527
X53149Y-34632
X54035Y-49289
X54035Y-50489
X54040Y-46875
X54040Y-48085
X54056Y-30348
X54256Y-52651
X54256Y-53651
X54256Y-54947
X54256Y-56773
X54568Y-22720
X54944Y-36913
X55035Y-49289
X55035Y-50489
X55040Y-46875
X55040Y-48085
X55056Y-30348
X55077Y-27297
X55256Y-54947
X55256Y-56773
X55471Y-52653
X55471Y-53653
X55568Y-22720
X55944Y-36913
X56077Y-27297
X57154Y-34434
X57179Y-20274
X57232Y-24933
X57356Y-21500
X57898Y-22726
X58001Y-32201
X58012Y-30153
X58012Y-31153
X58059Y-27269
X58154Y-34434
X58179Y-20274
X58232Y-24933
X58356Y-21500
X58898Y-22726
X59001Y-32201
X59059Y-27269
X59167Y-42548
X59167Y-43548
X59998Y-37474
X60381Y-42548
X60381Y-43548
X60834Y-53314
X60871Y-51472
X60998Y-37474
X61834Y-53314
X61871Y-51472
X62367Y-41026
X62367Y-43979
X63235Y-51490
X63251Y-53314
X63330Y-34783
X64235Y-51490
X64251Y-53314
X64330Y-34783
X64353Y-36026
X64529Y-37249
X65353Y-36026
X65381Y-34092
X65431Y-51490
X65468Y-53333
X65529Y-37249
X65550Y-32866
X66381Y-34092
X66431Y-51490
X66468Y-53333
X66550Y-32866
X67682Y-51472
X67757Y-53351
X68590Y-34642
X68682Y-51472
X68757Y-53351
X69590Y-34642
X70766Y-32749
X70943Y-33956
X71766Y-32749
X71943Y-33956
X73190Y-48793
X74650Y-38826
X75158Y-48793
X77950Y-48781
X78650Y-38826
X79919Y-48781
X84659Y-34313
X84659Y-35313
X84856Y-33271
X85856Y-33271
X85871Y-34313
X85871Y-35313
X87430Y-34016
X87604Y-32796
X87614Y-35228
X88430Y-34016
X88604Y-32796
X88614Y-35228
X92232Y-28115
X92232Y-29115
X92232Y-30115
X92237Y-24099
X92237Y-25099
X92237Y-26099
T7
X28967Y-41703
X29967Y-41703
X30967Y-41703
X31159Y-38547
X31967Y-41703
X32159Y-38547
X32967Y-41703
X33159Y-38547
X33967Y-41703
X34159Y-38547
X34967Y-41703
X35159Y-38547
X35967Y-41703
X36159Y-38547
X36967Y-41703
X37159Y-38547
X37816Y-33899
X37913Y-19793
X43615Y-50900
X43816Y-33899
X43913Y-19793
X44615Y-50900
X45615Y-50900
X49282Y-31894
X51593Y-41890
X51593Y-42890
X51593Y-43890
X52593Y-41890
X52593Y-42890
X52593Y-43890
X55282Y-31894
X59112Y-54018
X59112Y-55018
X61297Y-55539
X62297Y-55539
X63297Y-55539
X64297Y-55539
X65297Y-55539
X66297Y-55539
X67297Y-55539
X68297Y-55539
X69854Y-36913
X69854Y-37913
X71333Y-36566
X71333Y-37566
X72889Y-38287
X72889Y-39287
X72889Y-40287
X72889Y-41287
X72889Y-42287
X72889Y-43287
X72889Y-44287
X72889Y-45287
X72916Y-52497
X72916Y-53497
X72916Y-54497
X72916Y-55497
X72916Y-56497
X72916Y-57497
X72916Y-58497
X72916Y-59497
X80400Y-38287
X80400Y-39287
X80400Y-40287
X80400Y-41287
X80400Y-42287
X80400Y-43287
X80400Y-44287
X80400Y-45287
X80426Y-52497
X80426Y-53497
X80426Y-54497
X80426Y-55497
X80426Y-56497
X80426Y-57497
X80426Y-58497
X80426Y-59497
X81228Y-30721
X82228Y-30721
X83083Y-46965
X83083Y-50902
X83228Y-30721
X84228Y-30721
X85228Y-30721
X85870Y-46953
X85870Y-50890
X86228Y-30721
X87228Y-30721
X88228Y-30721
X88670Y-47853
X88670Y-48853
X88670Y-49853
X89205Y-36973
X89205Y-37973
X89205Y-38973
X89205Y-39973
X89205Y-40973
X89205Y-41973
X89205Y-42973
X89205Y-43973
X90501Y-47853
X90501Y-48853
X90501Y-49853
X92332Y-47853
X92332Y-48853
X92332Y-49853
T8
X40487Y-39682
X41487Y-39682
X42487Y-39682
X43487Y-39682
X44087Y-58682
X44487Y-39682
X45087Y-58682
X45487Y-39682
X46087Y-58682
X46487Y-39682
X47087Y-58682
X47487Y-39682
X48087Y-58682
X48487Y-39682
X49087Y-58682
X49487Y-39682
X50087Y-58682
X51087Y-39682
X51087Y-58682
X52087Y-39682
X53087Y-39682
X53087Y-58682
X54087Y-39682
X54087Y-58682
X55087Y-39682
X55087Y-58682
X56087Y-39682
X56087Y-58682
X57087Y-39682
X57087Y-58682
X58087Y-39682
X58087Y-58682
X59087Y-58682
X60087Y-39682
X60087Y-58682
X61087Y-39682
X62087Y-39682
X62087Y-58682
X63087Y-39682
X63087Y-58682
X64087Y-39682
X64087Y-58682
X65087Y-39682
X65087Y-58682
X66087Y-39682
X66087Y-58682
X67087Y-39682
X67087Y-58682
X68087Y-58682
X69087Y-58682
X70087Y-39682
X70087Y-40682
X70087Y-41682
X70087Y-42682
X70087Y-43682
X70087Y-44682
X70087Y-45682
X70087Y-46682
X70087Y-47682
X70087Y-48682
X70087Y-49682
X70087Y-50682
X70087Y-51682
X70087Y-52682
X70087Y-53682
X70087Y-54682
X70087Y-55682
X70087Y-56682
X71087Y-39682
X71087Y-40682
X71087Y-41682
X71087Y-42682
X71087Y-43682
X71087Y-44682
X71087Y-45682
X71087Y-46682
X71087Y-47682
X71087Y-48682
X71087Y-49682
X71087Y-50682
X71087Y-51682
X71087Y-52682
X71087Y-53682
X71087Y-54682
X71087Y-55682
X71087Y-56682
T9
X36572Y-28129
X36572Y-33680
X45069Y-19967
X45069Y-25518
X74523Y-40071
X74523Y-45622
T10
X31124Y-52165
X31124Y-54051
X31774Y-31358
X31774Y-35358
X32870Y-59127
X35124Y-52165
X35124Y-54051
X36870Y-59127
X37738Y-50408
X41738Y-50408
X59025Y-48029
X63025Y-48029
X66704Y-23328
X66704Y-30828
X67452Y-27828
X68204Y-23328
X68204Y-30828
X68952Y-27828
X69704Y-23328
X69704Y-30828
X70452Y-27828
X71204Y-23328
X71204Y-30828
X71952Y-27828
X72705Y-23328
X72705Y-30828
X73453Y-27828
X74205Y-23328
X74205Y-30828
X74953Y-27828
X75705Y-23328
X75705Y-30828
X76453Y-27828
X77205Y-23328
X77205Y-30828
X77953Y-27828
T11
X34831Y-26125
X34831Y-27125
X34831Y-28125
X34831Y-30547
X34831Y-31547
X34831Y-32547
X60224Y-19980
X60224Y-20980
X60224Y-21980
X60224Y-24527
X60224Y-25527
X60224Y-26527
X60224Y-29074
X60224Y-30074
X60224Y-31074
X60224Y-33621
X60224Y-34621
X60224Y-35621
X64098Y-19980
X64098Y-20980
X64098Y-21980
X64117Y-24527
X64117Y-25527
X64117Y-26527
X64117Y-29074
X64117Y-30074
X64117Y-31074
T12
X31931Y-21946
X33931Y-21946
X35931Y-21946
T13
X27789Y-37743
X27789Y-38743
X27789Y-39743
T14
X47594Y-21543
X47594Y-32803
T15
X28899Y-24310
X28899Y-33207
T16
X38587Y-58682
X39087Y-39682
X59087Y-45682
X59087Y-56682
X68587Y-39682
X71087Y-58682
T0
M30
