%TF.GenerationSoftware,KiCad,Pcbnew,(6.0.0)*%
%TF.CreationDate,2022-04-28T11:50:28-07:00*%
%TF.ProjectId,AMS-Mega2560-Base,414d532d-4d65-4676-9132-3536302d4261,rev?*%
%TF.SameCoordinates,Original*%
%TF.FileFunction,Copper,L3,Inr*%
%TF.FilePolarity,Positive*%
%FSLAX46Y46*%
G04 Gerber Fmt 4.6, Leading zero omitted, Abs format (unit mm)*
G04 Created by KiCad (PCBNEW (6.0.0)) date 2022-04-28 11:50:28*
%MOMM*%
%LPD*%
G01*
G04 APERTURE LIST*
%TA.AperFunction,ComponentPad*%
%ADD10C,1.727200*%
%TD*%
%TA.AperFunction,ComponentPad*%
%ADD11O,1.727200X1.727200*%
%TD*%
%TA.AperFunction,ComponentPad*%
%ADD12O,1.727200X2.032000*%
%TD*%
%TA.AperFunction,ComponentPad*%
%ADD13C,4.064000*%
%TD*%
%TA.AperFunction,ComponentPad*%
%ADD14C,1.650000*%
%TD*%
%TA.AperFunction,ComponentPad*%
%ADD15R,1.575000X1.575000*%
%TD*%
%TA.AperFunction,ComponentPad*%
%ADD16C,1.575000*%
%TD*%
%TA.AperFunction,ComponentPad*%
%ADD17R,2.200000X2.200000*%
%TD*%
%TA.AperFunction,ComponentPad*%
%ADD18O,2.200000X2.200000*%
%TD*%
%TA.AperFunction,ComponentPad*%
%ADD19R,1.050000X1.500000*%
%TD*%
%TA.AperFunction,ComponentPad*%
%ADD20O,1.050000X1.500000*%
%TD*%
%TA.AperFunction,ComponentPad*%
%ADD21C,1.600000*%
%TD*%
%TA.AperFunction,ComponentPad*%
%ADD22O,1.600000X1.600000*%
%TD*%
%TA.AperFunction,ComponentPad*%
%ADD23R,1.920000X1.920000*%
%TD*%
%TA.AperFunction,ComponentPad*%
%ADD24C,1.920000*%
%TD*%
%TA.AperFunction,ComponentPad*%
%ADD25R,2.000000X2.000000*%
%TD*%
%TA.AperFunction,ComponentPad*%
%ADD26C,2.000000*%
%TD*%
%TA.AperFunction,ComponentPad*%
%ADD27R,1.700000X1.700000*%
%TD*%
%TA.AperFunction,ComponentPad*%
%ADD28O,1.700000X1.700000*%
%TD*%
%TA.AperFunction,ComponentPad*%
%ADD29O,2.000000X2.000000*%
%TD*%
%TA.AperFunction,ComponentPad*%
%ADD30R,1.500000X1.050000*%
%TD*%
%TA.AperFunction,ComponentPad*%
%ADD31O,1.500000X1.050000*%
%TD*%
%TA.AperFunction,ComponentPad*%
%ADD32R,2.250000X2.250000*%
%TD*%
%TA.AperFunction,ComponentPad*%
%ADD33C,2.250000*%
%TD*%
%TA.AperFunction,ComponentPad*%
%ADD34R,2.600000X2.600000*%
%TD*%
%TA.AperFunction,ComponentPad*%
%ADD35C,2.600000*%
%TD*%
%TA.AperFunction,ComponentPad*%
%ADD36C,1.200000*%
%TD*%
%TA.AperFunction,ComponentPad*%
%ADD37R,1.600000X1.600000*%
%TD*%
%TA.AperFunction,ComponentPad*%
%ADD38R,1.150000X1.150000*%
%TD*%
%TA.AperFunction,ComponentPad*%
%ADD39C,1.150000*%
%TD*%
%TA.AperFunction,ComponentPad*%
%ADD40C,1.440000*%
%TD*%
%TA.AperFunction,ComponentPad*%
%ADD41R,1.160000X1.160000*%
%TD*%
%TA.AperFunction,ComponentPad*%
%ADD42C,1.160000*%
%TD*%
%TA.AperFunction,ComponentPad*%
%ADD43R,2.085000X2.085000*%
%TD*%
%TA.AperFunction,ComponentPad*%
%ADD44C,2.085000*%
%TD*%
%TA.AperFunction,ComponentPad*%
%ADD45C,2.360000*%
%TD*%
%TA.AperFunction,ComponentPad*%
%ADD46R,1.130000X1.130000*%
%TD*%
%TA.AperFunction,ComponentPad*%
%ADD47C,1.130000*%
%TD*%
%TA.AperFunction,ViaPad*%
%ADD48C,0.600000*%
%TD*%
%TA.AperFunction,ViaPad*%
%ADD49C,1.524000*%
%TD*%
%TA.AperFunction,Conductor*%
%ADD50C,0.250000*%
%TD*%
%TA.AperFunction,Conductor*%
%ADD51C,0.635000*%
%TD*%
%TA.AperFunction,Conductor*%
%ADD52C,1.524000*%
%TD*%
G04 APERTURE END LIST*
D10*
%TO.N,GND*%
%TO.C,P4*%
X178021100Y-143971900D03*
D11*
X180561100Y-143971900D03*
%TO.N,SCLK*%
X178021100Y-141431900D03*
%TO.N,unconnected-(P4-Pad4)*%
X180561100Y-141431900D03*
%TO.N,MISO*%
X178021100Y-138891900D03*
%TO.N,MOSI*%
X180561100Y-138891900D03*
%TO.N,WaterCS*%
X178021100Y-136351900D03*
%TO.N,Logging*%
X180561100Y-136351900D03*
%TO.N,LsideCS*%
X178021100Y-133811900D03*
%TO.N,IN3TTL*%
X180561100Y-133811900D03*
%TO.N,RsideCS*%
X178021100Y-131271900D03*
%TO.N,OUTPUTLED2*%
X180561100Y-131271900D03*
%TO.N,FrontCS*%
X178021100Y-128731900D03*
%TO.N,OUTPUTLED1*%
X180561100Y-128731900D03*
%TO.N,AmbientCS*%
X178021100Y-126191900D03*
%TO.N,RPMEN*%
X180561100Y-126191900D03*
%TO.N,CarbCS*%
X178021100Y-123651900D03*
%TO.N,unconnected-(P4-Pad18)*%
X180561100Y-123651900D03*
%TO.N,SDCS*%
X178021100Y-121111900D03*
%TO.N,unconnected-(P4-Pad20)*%
X180561100Y-121111900D03*
%TO.N,SDDetect*%
X178021100Y-118571900D03*
%TO.N,unconnected-(P4-Pad22)*%
X180561100Y-118571900D03*
%TO.N,unconnected-(P4-Pad23)*%
X178021100Y-116031900D03*
%TO.N,unconnected-(P4-Pad24)*%
X180561100Y-116031900D03*
%TO.N,unconnected-(P4-Pad25)*%
X178021100Y-113491900D03*
%TO.N,unconnected-(P4-Pad26)*%
X180561100Y-113491900D03*
%TO.N,unconnected-(P4-Pad27)*%
X178021100Y-110951900D03*
%TO.N,unconnected-(P4-Pad28)*%
X180561100Y-110951900D03*
%TO.N,unconnected-(P4-Pad29)*%
X178021100Y-108411900D03*
%TO.N,unconnected-(P4-Pad30)*%
X180561100Y-108411900D03*
%TO.N,unconnected-(P4-Pad31)*%
X178021100Y-105871900D03*
%TO.N,unconnected-(P4-Pad32)*%
X180561100Y-105871900D03*
%TO.N,unconnected-(P4-Pad33)*%
X178021100Y-103331900D03*
%TO.N,unconnected-(P4-Pad34)*%
X180561100Y-103331900D03*
%TO.N,unconnected-(P4-Pad35)*%
X178021100Y-100791900D03*
%TO.N,unconnected-(P4-Pad36)*%
X180561100Y-100791900D03*
%TD*%
D12*
%TO.N,unconnected-(P1-Pad1)*%
%TO.C,P1*%
X111981100Y-149051900D03*
%TO.N,unconnected-(P1-Pad2)*%
X114521100Y-149051900D03*
%TO.N,unconnected-(P1-Pad3)*%
X117061100Y-149051900D03*
%TO.N,unconnected-(P1-Pad4)*%
X119601100Y-149051900D03*
%TO.N,unconnected-(P1-Pad5)*%
X122141100Y-149051900D03*
%TO.N,GND*%
X124681100Y-149051900D03*
X127221100Y-149051900D03*
%TO.N,+10V*%
X129761100Y-149051900D03*
%TD*%
%TO.N,VoltageSensor*%
%TO.C,P2*%
X134841100Y-149051900D03*
%TO.N,/A1*%
X137381100Y-149051900D03*
%TO.N,Vacuum1*%
X139921100Y-149051900D03*
%TO.N,Vacuum2*%
X142461100Y-149051900D03*
%TO.N,AltCurrent*%
X145001100Y-149051900D03*
%TO.N,FuelPressure1*%
X147541100Y-149051900D03*
%TO.N,FuelPressure2*%
X150081100Y-149051900D03*
%TO.N,OilPressure*%
X152621100Y-149051900D03*
%TD*%
%TO.N,AFR1*%
%TO.C,P3*%
X157701100Y-149051900D03*
%TO.N,AFR2*%
X160241100Y-149051900D03*
%TO.N,/A10*%
X162781100Y-149051900D03*
%TO.N,GPSBat*%
X165321100Y-149051900D03*
%TO.N,ThrottlePositionADC*%
X167861100Y-149051900D03*
%TO.N,SpareBufferedADC*%
X170401100Y-149051900D03*
%TO.N,unconnected-(P3-Pad7)*%
X172941100Y-149051900D03*
%TO.N,unconnected-(P3-Pad8)*%
X175481100Y-149051900D03*
%TD*%
%TO.N,SCL*%
%TO.C,P5*%
X102837100Y-100791900D03*
%TO.N,SDA*%
X105377100Y-100791900D03*
%TO.N,unconnected-(P5-Pad3)*%
X107917100Y-100791900D03*
%TO.N,GND*%
X110457100Y-100791900D03*
%TO.N,unconnected-(P5-Pad5)*%
X112997100Y-100791900D03*
%TO.N,unconnected-(P5-Pad6)*%
X115537100Y-100791900D03*
%TO.N,unconnected-(P5-Pad7)*%
X118077100Y-100791900D03*
%TO.N,unconnected-(P5-Pad8)*%
X120617100Y-100791900D03*
%TO.N,unconnected-(P5-Pad9)*%
X123157100Y-100791900D03*
%TO.N,OUTPUTSiren*%
X125697100Y-100791900D03*
%TD*%
%TO.N,OUTPUT4*%
%TO.C,P6*%
X129761100Y-100791900D03*
%TO.N,OUTPUT3*%
X132301100Y-100791900D03*
%TO.N,OUTPUT2*%
X134841100Y-100791900D03*
%TO.N,OUTPUT1*%
X137381100Y-100791900D03*
%TO.N,IN2TTL*%
X139921100Y-100791900D03*
%TO.N,IN1TTL*%
X142461100Y-100791900D03*
%TO.N,unconnected-(P6-Pad7)*%
X145001100Y-100791900D03*
%TO.N,unconnected-(P6-Pad8)*%
X147541100Y-100791900D03*
%TD*%
%TO.N,GPSTX*%
%TO.C,P7*%
X152621100Y-100791900D03*
%TO.N,GPSRX*%
X155161100Y-100791900D03*
%TO.N,ComTX*%
X157701100Y-100791900D03*
%TO.N,ComRX*%
X160241100Y-100791900D03*
%TO.N,unconnected-(P7-Pad5)*%
X162781100Y-100791900D03*
%TO.N,unconnected-(P7-Pad6)*%
X165321100Y-100791900D03*
%TO.N,SDA*%
X167861100Y-100791900D03*
%TO.N,SCL*%
X170401100Y-100791900D03*
%TD*%
D13*
%TO.N,unconnected-(P8-Pad1)*%
%TO.C,P8*%
X98011100Y-149051900D03*
%TD*%
%TO.N,unconnected-(P9-Pad1)*%
%TO.C,P9*%
X150081100Y-143971900D03*
%TD*%
%TO.N,unconnected-(P10-Pad1)*%
%TO.C,P10*%
X180561100Y-149051900D03*
%TD*%
%TO.N,unconnected-(P11-Pad1)*%
%TO.C,P11*%
X99281100Y-100791900D03*
%TD*%
%TO.N,unconnected-(P12-Pad1)*%
%TO.C,P12*%
X150081100Y-116031900D03*
%TD*%
%TO.N,unconnected-(P13-Pad1)*%
%TO.C,P13*%
X174211100Y-100791900D03*
%TD*%
D14*
%TO.N,Sense1-1*%
%TO.C,J4*%
X196101600Y-78302400D03*
%TO.N,SCL*%
X198001600Y-70682400D03*
%TO.N,Sense1-3*%
X196101600Y-59252400D03*
%TO.N,Sense1-4*%
X192291600Y-78302400D03*
%TO.N,SDA*%
X194191600Y-70682400D03*
%TO.N,Sense1-6*%
X192291600Y-59252400D03*
%TO.N,Sense1-7*%
X188481600Y-78302400D03*
%TO.N,Sense1-8*%
X190381600Y-70682400D03*
%TO.N,Sense1-9*%
X188481600Y-59252400D03*
%TO.N,Sense1-10*%
X184671600Y-78302400D03*
%TO.N,Sense1-11*%
X186571600Y-70682400D03*
%TO.N,Sense1-12*%
X184671600Y-59252400D03*
%TD*%
%TO.N,Sense2-1*%
%TO.C,J5*%
X180857300Y-78302400D03*
%TO.N,Sense2-2*%
X182757300Y-70682400D03*
%TO.N,Sense2-3*%
X180857300Y-59252400D03*
%TO.N,Sense2-4*%
X177047300Y-78302400D03*
%TO.N,Sense2-5*%
X178947300Y-70682400D03*
%TO.N,Sense2-6*%
X177047300Y-59252400D03*
%TO.N,Sense2-7*%
X173237300Y-78302400D03*
%TO.N,Sense2-8*%
X175137300Y-70682400D03*
%TO.N,Sense2-9*%
X173237300Y-59252400D03*
%TO.N,Sense2-10*%
X169427300Y-78302400D03*
%TO.N,Sense2-11*%
X171327300Y-70682400D03*
%TO.N,Sense2-12*%
X169427300Y-59252400D03*
%TD*%
D15*
%TO.N,Net-(D7-Pad1)*%
%TO.C,D7*%
X92892200Y-85548400D03*
D16*
%TO.N,GND*%
X92892200Y-71448400D03*
%TD*%
D17*
%TO.N,Net-(D10-Pad1)*%
%TO.C,D10*%
X149922800Y-121993000D03*
D18*
%TO.N,+3.3VP*%
X160082800Y-121993000D03*
%TD*%
D19*
%TO.N,GND*%
%TO.C,Q8*%
X160890100Y-84718700D03*
D20*
%TO.N,OUTPUTLED1*%
X162160100Y-84718700D03*
%TO.N,Net-(Q8-Pad3)*%
X163430100Y-84718700D03*
%TD*%
D21*
%TO.N,+VDC*%
%TO.C,R43*%
X168607800Y-86594000D03*
D22*
%TO.N,Net-(Q10-Pad1)*%
X166067800Y-86594000D03*
%TD*%
D17*
%TO.N,Net-(D1-Pad1)*%
%TO.C,D1*%
X80706300Y-89808700D03*
D18*
%TO.N,PowerOn*%
X80706300Y-79648700D03*
%TD*%
D19*
%TO.N,GND*%
%TO.C,Q16*%
X174624500Y-84413200D03*
D20*
%TO.N,OUTPUTSiren*%
X175894500Y-84413200D03*
%TO.N,Net-(Q16-Pad3)*%
X177164500Y-84413200D03*
%TD*%
D23*
%TO.N,Net-(Q13-Pad1)*%
%TO.C,Q13*%
X152969100Y-73847300D03*
D24*
%TO.N,Sense2-9*%
X152969100Y-76387300D03*
%TO.N,+VDC*%
X152969100Y-78927300D03*
%TD*%
D21*
%TO.N,Sense2-1*%
%TO.C,R5*%
X108144700Y-138243300D03*
D22*
%TO.N,GND*%
X108144700Y-140783300D03*
%TD*%
D21*
%TO.N,GND*%
%TO.C,R65*%
X120056900Y-124116900D03*
D22*
%TO.N,FuelPressure2*%
X122596900Y-124116900D03*
%TD*%
D21*
%TO.N,Net-(Q18-Pad1)*%
%TO.C,R56*%
X180195400Y-86247700D03*
D22*
%TO.N,Net-(Q16-Pad3)*%
X182735400Y-86247700D03*
%TD*%
D23*
%TO.N,Net-(Q6-Pad1)*%
%TO.C,Q6*%
X88471600Y-71436700D03*
D24*
%TO.N,Net-(J21-Pad1)*%
X88471600Y-68896700D03*
%TO.N,Net-(Q6-Pad3)*%
X88471600Y-66356700D03*
%TD*%
D25*
%TO.N,Net-(C30-Pad1)*%
%TO.C,C30*%
X197993900Y-123904500D03*
D26*
%TO.N,GND*%
X202993900Y-123904500D03*
%TD*%
D21*
%TO.N,Net-(Q20-Pad1)*%
%TO.C,R59*%
X147774100Y-51494800D03*
D22*
%TO.N,Net-(Q19-Pad3)*%
X145234100Y-51494800D03*
%TD*%
D21*
%TO.N,Net-(Q13-Pad1)*%
%TO.C,R48*%
X147351500Y-76587800D03*
D22*
%TO.N,Net-(Q11-Pad3)*%
X147351500Y-79127800D03*
%TD*%
D21*
%TO.N,GND*%
%TO.C,R64*%
X120006400Y-119516000D03*
D22*
%TO.N,FuelPressure1*%
X122546400Y-119516000D03*
%TD*%
D21*
%TO.N,Net-(IC9-Pad5)*%
%TO.C,R22*%
X139843100Y-77085100D03*
D22*
%TO.N,GND*%
X137303100Y-77085100D03*
%TD*%
D21*
%TO.N,+VDC*%
%TO.C,R41*%
X147061400Y-57723300D03*
D22*
%TO.N,Net-(Q9-Pad1)*%
X149601400Y-57723300D03*
%TD*%
D27*
%TO.N,Net-(J24-Pad1)*%
%TO.C,J24*%
X181186800Y-92877800D03*
D28*
%TO.N,Net-(IC14-Pad1)*%
X181186800Y-95417800D03*
%TD*%
D26*
%TO.N,Net-(D7-Pad1)*%
%TO.C,L2*%
X96052200Y-86102400D03*
D29*
%TO.N,+10V*%
X111292200Y-86102400D03*
%TD*%
D21*
%TO.N,Net-(Q6-Pad1)*%
%TO.C,R21*%
X79687400Y-66002600D03*
D22*
%TO.N,GND*%
X79687400Y-63462600D03*
%TD*%
D21*
%TO.N,Net-(Q21-Pad1)*%
%TO.C,R61*%
X79730500Y-69077500D03*
D22*
%TO.N,Net-(Q5-Pad3)*%
X82270500Y-69077500D03*
%TD*%
D27*
%TO.N,+5V*%
%TO.C,T3*%
X185205600Y-133341400D03*
D28*
%TO.N,GND*%
X185205600Y-135881400D03*
%TO.N,unconnected-(T3-Pad3)*%
X185205600Y-138421400D03*
%TO.N,RTDSCLK*%
X185205600Y-140961400D03*
%TO.N,RTDMISO*%
X185205600Y-143501400D03*
%TO.N,RTDMOSI*%
X185205600Y-146041400D03*
%TO.N,RsideCS*%
X185205600Y-148581400D03*
%TO.N,unconnected-(T3-Pad8)*%
X185205600Y-151121400D03*
%TD*%
D15*
%TO.N,Net-(D8-Pad1)*%
%TO.C,D8*%
X114476300Y-50716300D03*
D16*
%TO.N,GND*%
X114476300Y-64816300D03*
%TD*%
D21*
%TO.N,+VDC*%
%TO.C,R58*%
X145684100Y-54609900D03*
D22*
%TO.N,Net-(Q20-Pad1)*%
X148224100Y-54609900D03*
%TD*%
D19*
%TO.N,GND*%
%TO.C,Q23*%
X70303900Y-89526600D03*
D20*
%TO.N,Net-(D1-Pad1)*%
X71573900Y-89526600D03*
%TO.N,Net-(Q22-Pad1)*%
X72843900Y-89526600D03*
%TD*%
D30*
%TO.N,GND*%
%TO.C,Q2*%
X80900100Y-143056000D03*
D31*
%TO.N,Sense2-10*%
X80900100Y-141786000D03*
%TO.N,Net-(D3-Pad1)*%
X80900100Y-140516000D03*
%TD*%
D32*
%TO.N,Net-(C15-Pad2)*%
%TO.C,D6*%
X120888400Y-83319600D03*
D33*
%TO.N,GND*%
X120888400Y-54719600D03*
%TD*%
D30*
%TO.N,Net-(IC12-Pad5)*%
%TO.C,U2*%
X126761900Y-107716700D03*
D31*
%TO.N,GND*%
X126761900Y-106446700D03*
%TO.N,Net-(IC12-Pad5)*%
X126761900Y-105176700D03*
%TD*%
D19*
%TO.N,/A1*%
%TO.C,Q24*%
X156465700Y-115613100D03*
D20*
%TO.N,Net-(IC19-Pad2)*%
X157735700Y-115613100D03*
%TO.N,Net-(D10-Pad1)*%
X159005700Y-115613100D03*
%TD*%
D21*
%TO.N,Net-(D9-Pad1)*%
%TO.C,L4*%
X199771300Y-98617200D03*
D22*
%TO.N,GND*%
X189611300Y-98617200D03*
%TD*%
D19*
%TO.N,GND*%
%TO.C,Q15*%
X140001700Y-90159900D03*
D20*
%TO.N,OUTPUT4*%
X141271700Y-90159900D03*
%TO.N,Net-(Q15-Pad3)*%
X142541700Y-90159900D03*
%TD*%
D21*
%TO.N,+5V*%
%TO.C,R31*%
X125172400Y-110772600D03*
D22*
%TO.N,Net-(IC12-Pad5)*%
X127712400Y-110772600D03*
%TD*%
D21*
%TO.N,GND*%
%TO.C,R67*%
X137262100Y-122136700D03*
D22*
%TO.N,ThrottlePositionADC*%
X139802100Y-122136700D03*
%TD*%
D21*
%TO.N,GND*%
%TO.C,R24*%
X103527600Y-91520800D03*
D22*
%TO.N,Net-(C19-Pad1)*%
X106067600Y-91520800D03*
%TD*%
D34*
%TO.N,Net-(J21-Pad1)*%
%TO.C,J21*%
X91265200Y-55743100D03*
D35*
%TO.N,GND*%
X86185200Y-55743100D03*
%TO.N,PowerOn*%
X81105200Y-55743100D03*
%TD*%
D27*
%TO.N,+5V*%
%TO.C,T4*%
X204282700Y-133341400D03*
D28*
%TO.N,GND*%
X204282700Y-135881400D03*
%TO.N,unconnected-(T4-Pad3)*%
X204282700Y-138421400D03*
%TO.N,RTDSCLK*%
X204282700Y-140961400D03*
%TO.N,RTDMISO*%
X204282700Y-143501400D03*
%TO.N,RTDMOSI*%
X204282700Y-146041400D03*
%TO.N,FrontCS*%
X204282700Y-148581400D03*
%TO.N,unconnected-(T4-Pad8)*%
X204282700Y-151121400D03*
%TD*%
D21*
%TO.N,Net-(C19-Pad1)*%
%TO.C,C19*%
X103764500Y-95181000D03*
%TO.N,+10V*%
X111264500Y-95181000D03*
%TD*%
D36*
%TO.N,Net-(K1-Pad1)*%
%TO.C,K1*%
X205074100Y-84663800D03*
%TO.N,+5V*%
X202534100Y-84663800D03*
%TO.N,Net-(K1-Pad6)*%
X192374100Y-84663800D03*
%TO.N,Sense2-2*%
X189834100Y-84663800D03*
X189834100Y-92283800D03*
%TO.N,unconnected-(K1-Pad9)*%
X192374100Y-92283800D03*
%TO.N,unconnected-(K1-Pad13)*%
X202534100Y-92283800D03*
%TO.N,Net-(K1-Pad1)*%
X205074100Y-92283800D03*
%TD*%
D37*
%TO.N,+VSW*%
%TO.C,C14*%
X113074300Y-80554800D03*
D21*
%TO.N,GND*%
X113074300Y-78054800D03*
%TD*%
%TO.N,OUTPUTLED2*%
%TO.C,R46*%
X154933700Y-95182900D03*
D22*
%TO.N,GND*%
X152393700Y-95182900D03*
%TD*%
D21*
%TO.N,Sense2-7*%
%TO.C,R9*%
X118390500Y-142064600D03*
D22*
%TO.N,GND*%
X118390500Y-144604600D03*
%TD*%
D19*
%TO.N,GND*%
%TO.C,Q19*%
X138302400Y-54077800D03*
D20*
%TO.N,OUTPUT1*%
X139572400Y-54077800D03*
%TO.N,Net-(Q19-Pad3)*%
X140842400Y-54077800D03*
%TD*%
D27*
%TO.N,unconnected-(J6-Pad1)*%
%TO.C,J6*%
X93896800Y-105925600D03*
D28*
%TO.N,unconnected-(J6-Pad2)*%
X91356800Y-105925600D03*
%TO.N,GPSBat*%
X88816800Y-105925600D03*
%TO.N,unconnected-(J6-Pad4)*%
X86276800Y-105925600D03*
%TO.N,GPSTX*%
X83736800Y-105925600D03*
%TO.N,GPSRX*%
X81196800Y-105925600D03*
%TO.N,GND*%
X78656800Y-105925600D03*
%TO.N,+5V*%
X76116800Y-105925600D03*
%TO.N,unconnected-(J6-Pad9)*%
X73576800Y-105925600D03*
%TD*%
D21*
%TO.N,+5V*%
%TO.C,R37*%
X153369000Y-108072800D03*
D22*
%TO.N,SCL*%
X153369000Y-110612800D03*
%TD*%
D21*
%TO.N,Sense2-7*%
%TO.C,C2*%
X119512100Y-132503500D03*
%TO.N,GND*%
X119512100Y-137503500D03*
%TD*%
D23*
%TO.N,Net-(Q20-Pad1)*%
%TO.C,Q20*%
X152969100Y-50748700D03*
D24*
%TO.N,Sense2-3*%
X152969100Y-53288700D03*
%TO.N,+VDC*%
X152969100Y-55828700D03*
%TD*%
D21*
%TO.N,Net-(IC14-Pad1)*%
%TO.C,R33*%
X224611300Y-86399600D03*
D22*
%TO.N,GND*%
X222071300Y-86399600D03*
%TD*%
D27*
%TO.N,GND*%
%TO.C,J22*%
X94384900Y-97908600D03*
D28*
%TO.N,+2V5*%
X91844900Y-97908600D03*
%TO.N,+VDC*%
X89304900Y-97908600D03*
%TO.N,+5V*%
X86764900Y-97908600D03*
%TO.N,+3.3VA*%
X84224900Y-97908600D03*
%TO.N,+10V*%
X81684900Y-97908600D03*
%TO.N,+VSW*%
X79144900Y-97908600D03*
%TD*%
D38*
%TO.N,+VDC*%
%TO.C,Z5*%
X139400400Y-84637100D03*
D39*
%TO.N,Net-(Q17-Pad1)*%
X150100400Y-84637100D03*
%TD*%
D21*
%TO.N,+5V*%
%TO.C,C36*%
X158411400Y-104207200D03*
%TO.N,GND*%
X158411400Y-111707200D03*
%TD*%
%TO.N,+VDC*%
%TO.C,R49*%
X165995500Y-91505500D03*
D22*
%TO.N,Net-(Q14-Pad1)*%
X163455500Y-91505500D03*
%TD*%
D15*
%TO.N,Net-(D9-Pad1)*%
%TO.C,D9*%
X189287900Y-115880600D03*
D16*
%TO.N,Net-(C30-Pad1)*%
X189287900Y-101780600D03*
%TD*%
D21*
%TO.N,+5V*%
%TO.C,R1*%
X218111900Y-89695600D03*
D22*
%TO.N,SDDetect*%
X218111900Y-87155600D03*
%TD*%
D19*
%TO.N,GND*%
%TO.C,Q12*%
X158237900Y-92748100D03*
D20*
%TO.N,OUTPUTLED2*%
X159507900Y-92748100D03*
%TO.N,Net-(Q12-Pad3)*%
X160777900Y-92748100D03*
%TD*%
D37*
%TO.N,GND*%
%TO.C,C39*%
X105777600Y-104378800D03*
D21*
%TO.N,Net-(C39-Pad2)*%
X105777600Y-106878800D03*
%TD*%
D37*
%TO.N,Net-(C40-Pad1)*%
%TO.C,C40*%
X101718200Y-117243200D03*
D21*
%TO.N,+5V*%
X101718200Y-119743200D03*
%TD*%
%TO.N,+5V*%
%TO.C,R11*%
X74694700Y-124310600D03*
D22*
%TO.N,Net-(IC7-Pad7)*%
X77234700Y-124310600D03*
%TD*%
D21*
%TO.N,Sense2-10*%
%TO.C,R8*%
X80495900Y-146081600D03*
D22*
%TO.N,GND*%
X80495900Y-148621600D03*
%TD*%
D21*
%TO.N,+VSW*%
%TO.C,C16*%
X115811000Y-75003600D03*
%TO.N,GND*%
X115811000Y-67503600D03*
%TD*%
%TO.N,Sense2-4*%
%TO.C,R10*%
X108188900Y-144400100D03*
D22*
%TO.N,GND*%
X108188900Y-146940100D03*
%TD*%
D21*
%TO.N,+VDC*%
%TO.C,R47*%
X147470900Y-69262600D03*
D22*
%TO.N,Net-(Q13-Pad1)*%
X150010900Y-69262600D03*
%TD*%
D40*
%TO.N,Net-(IC14-Pad4)*%
%TO.C,RV2*%
X234269300Y-71412700D03*
%TO.N,Net-(J31-Pad1)*%
X234269300Y-73952700D03*
%TO.N,GND*%
X234269300Y-76492700D03*
%TD*%
D21*
%TO.N,Net-(D1-Pad1)*%
%TO.C,R12*%
X79646200Y-76718500D03*
D22*
%TO.N,GND*%
X82186200Y-76718500D03*
%TD*%
D21*
%TO.N,Net-(K1-Pad1)*%
%TO.C,R32*%
X222515100Y-83302700D03*
D22*
%TO.N,Net-(IC14-Pad1)*%
X225055100Y-83302700D03*
%TD*%
D19*
%TO.N,GND*%
%TO.C,Q3*%
X115308000Y-142905600D03*
D20*
%TO.N,Sense2-7*%
X114038000Y-142905600D03*
%TO.N,Net-(D2-Pad1)*%
X112768000Y-142905600D03*
%TD*%
D41*
%TO.N,Net-(C30-Pad1)*%
%TO.C,IC13*%
X192128300Y-102051900D03*
D42*
%TO.N,Net-(C27-Pad1)*%
X192128300Y-104591900D03*
%TO.N,GND*%
X192128300Y-107131900D03*
%TO.N,Net-(C27-Pad1)*%
X192128300Y-109671900D03*
%TO.N,GND*%
X199748300Y-109671900D03*
%TO.N,Net-(C28-Pad1)*%
X199748300Y-107131900D03*
X199748300Y-104591900D03*
%TO.N,Net-(D9-Pad1)*%
X199748300Y-102051900D03*
%TD*%
D27*
%TO.N,SWMOSI*%
%TO.C,J8*%
X229872200Y-121547800D03*
D28*
%TO.N,RTDMOSI*%
X229872200Y-124087800D03*
%TO.N,MOSI*%
X229872200Y-126627800D03*
%TD*%
D21*
%TO.N,Net-(Q9-Pad1)*%
%TO.C,R42*%
X147908100Y-63328600D03*
D22*
%TO.N,Net-(Q7-Pad3)*%
X145368100Y-63328600D03*
%TD*%
D21*
%TO.N,Net-(C15-Pad1)*%
%TO.C,C15*%
X125959500Y-92097700D03*
%TO.N,Net-(C15-Pad2)*%
X125959500Y-84597700D03*
%TD*%
%TO.N,Net-(C32-Pad1)*%
%TO.C,R34*%
X222538900Y-89478600D03*
D22*
%TO.N,GND*%
X225078900Y-89478600D03*
%TD*%
D37*
%TO.N,+5V*%
%TO.C,C18*%
X134997900Y-87964700D03*
D21*
%TO.N,GND*%
X129997900Y-87964700D03*
%TD*%
D23*
%TO.N,Net-(Q17-Pad1)*%
%TO.C,Q17*%
X152969100Y-85396500D03*
D24*
%TO.N,Sense2-12*%
X152969100Y-87936500D03*
%TO.N,+VDC*%
X152969100Y-90476500D03*
%TD*%
D26*
%TO.N,Net-(C27-Pad1)*%
%TO.C,C27*%
X211031400Y-119290600D03*
%TO.N,GND*%
X211031400Y-129290600D03*
%TD*%
%TO.N,Net-(C28-Pad1)*%
%TO.C,C29*%
X218110400Y-119260900D03*
%TO.N,GND*%
X218110400Y-129260900D03*
%TD*%
D37*
%TO.N,+VSW*%
%TO.C,C13*%
X110508700Y-70406100D03*
D21*
%TO.N,GND*%
X110508700Y-67906100D03*
%TD*%
%TO.N,GND*%
%TO.C,R69*%
X137248100Y-128241300D03*
D22*
%TO.N,AFR2*%
X139788100Y-128241300D03*
%TD*%
D19*
%TO.N,GND*%
%TO.C,Q11*%
X140261800Y-64541200D03*
D20*
%TO.N,OUTPUT3*%
X141531800Y-64541200D03*
%TO.N,Net-(Q11-Pad3)*%
X142801800Y-64541200D03*
%TD*%
D21*
%TO.N,GND*%
%TO.C,R66*%
X137262100Y-119061900D03*
D22*
%TO.N,SpareBufferedADC*%
X139802100Y-119061900D03*
%TD*%
D21*
%TO.N,OUTPUT3*%
%TO.C,R45*%
X142435400Y-69333500D03*
D22*
%TO.N,GND*%
X139895400Y-69333500D03*
%TD*%
D43*
%TO.N,Net-(Q22-Pad1)*%
%TO.C,Q22*%
X70584100Y-95867200D03*
D44*
%TO.N,+3.3VA*%
X70584100Y-98407200D03*
%TO.N,+3.3VP*%
X70584100Y-100947200D03*
%TD*%
D21*
%TO.N,Sense2-10*%
%TO.C,C1*%
X98393200Y-139624000D03*
%TO.N,GND*%
X98393200Y-144624000D03*
%TD*%
D17*
%TO.N,Net-(D2-Pad1)*%
%TO.C,D2*%
X106014900Y-128035400D03*
D18*
%TO.N,Net-(D2-Pad2)*%
X95854900Y-128035400D03*
%TD*%
D21*
%TO.N,+5V*%
%TO.C,R16*%
X74643200Y-128969800D03*
D22*
%TO.N,IN1TTL*%
X77183200Y-128969800D03*
%TD*%
D21*
%TO.N,Net-(C21-Pad1)*%
%TO.C,C21*%
X124890200Y-50980700D03*
%TO.N,GND*%
X117390200Y-50980700D03*
%TD*%
D27*
%TO.N,+5V*%
%TO.C,J3*%
X226581200Y-111690700D03*
D28*
%TO.N,unconnected-(J3-Pad2)*%
X226581200Y-109150700D03*
%TO.N,GND*%
X226581200Y-106610700D03*
%TO.N,SCLK*%
X226581200Y-104070700D03*
%TO.N,MISO*%
X226581200Y-101530700D03*
%TO.N,MOSI*%
X226581200Y-98990700D03*
%TO.N,SDCS*%
X226581200Y-96450700D03*
%TO.N,SDDetect*%
X226581200Y-93910700D03*
%TD*%
D21*
%TO.N,+3.3VP*%
%TO.C,R26*%
X96498000Y-54101900D03*
D22*
%TO.N,Net-(IC11-Pad1)*%
X99038000Y-54101900D03*
%TD*%
D21*
%TO.N,+5V*%
%TO.C,R18*%
X85160400Y-128969800D03*
D22*
%TO.N,IN3TTL*%
X87700400Y-128969800D03*
%TD*%
D27*
%TO.N,+5V*%
%TO.C,T2*%
X185138800Y-97249500D03*
D28*
%TO.N,GND*%
X185138800Y-99789500D03*
%TO.N,unconnected-(T2-Pad3)*%
X185138800Y-102329500D03*
%TO.N,RTDSCLK*%
X185138800Y-104869500D03*
%TO.N,RTDMISO*%
X185138800Y-107409500D03*
%TO.N,RTDMOSI*%
X185138800Y-109949500D03*
%TO.N,LsideCS*%
X185138800Y-112489500D03*
%TO.N,unconnected-(T2-Pad8)*%
X185138800Y-115029500D03*
%TD*%
D21*
%TO.N,+VSW*%
%TO.C,R27*%
X124580100Y-137553400D03*
D22*
%TO.N,Net-(IC12-Pad3)*%
X124580100Y-140093400D03*
%TD*%
D41*
%TO.N,Net-(C37-Pad1)*%
%TO.C,IC17*%
X117227000Y-121483700D03*
D42*
%TO.N,Net-(C40-Pad1)*%
X117227000Y-118943700D03*
%TO.N,Net-(C37-Pad2)*%
X117227000Y-116403700D03*
%TO.N,Net-(C38-Pad1)*%
X117227000Y-113863700D03*
%TO.N,Net-(C38-Pad2)*%
X117227000Y-111323700D03*
%TO.N,Net-(C39-Pad2)*%
X117227000Y-108783700D03*
%TO.N,unconnected-(IC17-Pad7)*%
X117227000Y-106243700D03*
%TO.N,unconnected-(IC17-Pad8)*%
X117227000Y-103703700D03*
%TO.N,unconnected-(IC17-Pad9)*%
X109607000Y-103703700D03*
%TO.N,unconnected-(IC17-Pad10)*%
X109607000Y-106243700D03*
%TO.N,ComTX*%
X109607000Y-108783700D03*
%TO.N,ComRX*%
X109607000Y-111323700D03*
%TO.N,Sense1-8*%
X109607000Y-113863700D03*
%TO.N,Sense1-11*%
X109607000Y-116403700D03*
%TO.N,GND*%
X109607000Y-118943700D03*
%TO.N,+5V*%
X109607000Y-121483700D03*
%TD*%
D21*
%TO.N,GND*%
%TO.C,R30*%
X140349900Y-139564900D03*
D22*
%TO.N,+2V5*%
X137809900Y-139564900D03*
%TD*%
D38*
%TO.N,+VDC*%
%TO.C,Z1*%
X139490600Y-60519100D03*
D39*
%TO.N,Net-(Q9-Pad1)*%
X150190600Y-60519100D03*
%TD*%
D21*
%TO.N,Net-(Q14-Pad1)*%
%TO.C,R50*%
X163902400Y-94613000D03*
D22*
%TO.N,Net-(Q12-Pad3)*%
X166442400Y-94613000D03*
%TD*%
D25*
%TO.N,Net-(C28-Pad1)*%
%TO.C,C28*%
X185902000Y-123934200D03*
D26*
%TO.N,GND*%
X190902000Y-123934200D03*
%TD*%
D37*
%TO.N,Net-(C38-Pad1)*%
%TO.C,C38*%
X101718200Y-111166200D03*
D21*
%TO.N,Net-(C38-Pad2)*%
X101718200Y-108666200D03*
%TD*%
D38*
%TO.N,+VDC*%
%TO.C,Z8*%
X83647500Y-89837000D03*
D39*
%TO.N,Net-(Q21-Pad1)*%
X83647500Y-79137000D03*
%TD*%
D38*
%TO.N,+VDC*%
%TO.C,Z7*%
X139423800Y-48453400D03*
D39*
%TO.N,Net-(Q20-Pad1)*%
X150123800Y-48453400D03*
%TD*%
D38*
%TO.N,+VDC*%
%TO.C,Z3*%
X139451700Y-72110600D03*
D39*
%TO.N,Net-(Q13-Pad1)*%
X150151700Y-72110600D03*
%TD*%
D45*
%TO.N,Net-(Q6-Pad3)*%
%TO.C,U1*%
X73402700Y-61747000D03*
%TO.N,+VDC*%
X73402700Y-84347000D03*
%TD*%
D40*
%TO.N,Net-(C30-Pad1)*%
%TO.C,RV1*%
X234282700Y-61210200D03*
%TO.N,Net-(J24-Pad1)*%
X234282700Y-63750200D03*
%TO.N,GND*%
X234282700Y-66290200D03*
%TD*%
D19*
%TO.N,GND*%
%TO.C,Q7*%
X129439400Y-51033300D03*
D20*
%TO.N,OUTPUT2*%
X130709400Y-51033300D03*
%TO.N,Net-(Q7-Pad3)*%
X131979400Y-51033300D03*
%TD*%
D37*
%TO.N,+3.3VP*%
%TO.C,C26*%
X101104300Y-64850900D03*
D21*
%TO.N,GND*%
X106104300Y-64850900D03*
%TD*%
%TO.N,Net-(C19-Pad1)*%
%TO.C,R25*%
X108692700Y-91511200D03*
D22*
%TO.N,+10V*%
X111232700Y-91511200D03*
%TD*%
D21*
%TO.N,Net-(C20-Pad1)*%
%TO.C,C20*%
X97028100Y-78937300D03*
%TO.N,GND*%
X97028100Y-71437300D03*
%TD*%
D27*
%TO.N,+5V*%
%TO.C,T1*%
X206318600Y-78031400D03*
D28*
%TO.N,GND*%
X208858600Y-78031400D03*
%TO.N,unconnected-(T1-Pad3)*%
X211398600Y-78031400D03*
%TO.N,RTDSCLK*%
X213938600Y-78031400D03*
%TO.N,RTDMISO*%
X216478600Y-78031400D03*
%TO.N,RTDMOSI*%
X219018600Y-78031400D03*
%TO.N,WaterCS*%
X221558600Y-78031400D03*
%TO.N,unconnected-(T1-Pad8)*%
X224098600Y-78031400D03*
%TD*%
D27*
%TO.N,SWSCLK*%
%TO.C,J1*%
X234522200Y-121547800D03*
D28*
%TO.N,RTDSCLK*%
X234522200Y-124087800D03*
%TO.N,SCLK*%
X234522200Y-126627800D03*
%TD*%
D21*
%TO.N,VoltageSensor*%
%TO.C,R29*%
X140349900Y-144204100D03*
D22*
%TO.N,GND*%
X137809900Y-144204100D03*
%TD*%
D30*
%TO.N,GND*%
%TO.C,Q5*%
X87981600Y-89848500D03*
D31*
%TO.N,Net-(D1-Pad1)*%
X87981600Y-88578500D03*
%TO.N,Net-(Q5-Pad3)*%
X87981600Y-87308500D03*
%TD*%
D21*
%TO.N,+5V*%
%TO.C,R15*%
X90206200Y-124300000D03*
D22*
%TO.N,Net-(IC7-Pad1)*%
X92746200Y-124300000D03*
%TD*%
D37*
%TO.N,+VSW*%
%TO.C,C22*%
X95632700Y-66514500D03*
D21*
%TO.N,GND*%
X95632700Y-64014500D03*
%TD*%
D46*
%TO.N,VoltageSensor*%
%TO.C,IC12*%
X127218200Y-137301300D03*
D47*
X127218200Y-139841300D03*
%TO.N,Net-(IC12-Pad3)*%
X127218200Y-142381300D03*
%TO.N,GND*%
X127218200Y-144921300D03*
%TO.N,Net-(IC12-Pad5)*%
X135158200Y-144921300D03*
%TO.N,GND*%
X135158200Y-142381300D03*
%TO.N,+2V5*%
X135158200Y-139841300D03*
%TO.N,+5V*%
X135158200Y-137301300D03*
%TD*%
D23*
%TO.N,Net-(Q14-Pad1)*%
%TO.C,Q14*%
X162856400Y-67378000D03*
D24*
%TO.N,Sense2-8*%
X162856400Y-64838000D03*
%TO.N,+VDC*%
X162856400Y-62298000D03*
%TD*%
D37*
%TO.N,+10V*%
%TO.C,C23*%
X101039200Y-73440900D03*
D21*
%TO.N,GND*%
X106039200Y-73440900D03*
%TD*%
%TO.N,Sense2-1*%
%TO.C,C4*%
X109658300Y-133418000D03*
%TO.N,GND*%
X104658300Y-133418000D03*
%TD*%
%TO.N,+VDC*%
%TO.C,R62*%
X81820500Y-72188200D03*
D22*
%TO.N,Net-(Q21-Pad1)*%
X79280500Y-72188200D03*
%TD*%
D27*
%TO.N,+5V*%
%TO.C,T5*%
X204215900Y-97249500D03*
D28*
%TO.N,GND*%
X204215900Y-99789500D03*
%TO.N,unconnected-(T5-Pad3)*%
X204215900Y-102329500D03*
%TO.N,RTDSCLK*%
X204215900Y-104869500D03*
%TO.N,RTDMISO*%
X204215900Y-107409500D03*
%TO.N,RTDMOSI*%
X204215900Y-109949500D03*
%TO.N,AmbientCS*%
X204215900Y-112489500D03*
%TO.N,unconnected-(T5-Pad8)*%
X204215900Y-115029500D03*
%TD*%
D21*
%TO.N,Net-(IC14-Pad6)*%
%TO.C,R35*%
X215533800Y-84508000D03*
D22*
%TO.N,+VSW*%
X218073800Y-84508000D03*
%TD*%
D21*
%TO.N,+VDC*%
%TO.C,R53*%
X147321700Y-81789700D03*
D22*
%TO.N,Net-(Q17-Pad1)*%
X149861700Y-81789700D03*
%TD*%
D21*
%TO.N,+5V*%
%TO.C,R38*%
X150284600Y-108072800D03*
D22*
%TO.N,SDA*%
X150284600Y-110612800D03*
%TD*%
D21*
%TO.N,+VDC*%
%TO.C,R55*%
X182285400Y-83181700D03*
D22*
%TO.N,Net-(Q18-Pad1)*%
X179745400Y-83181700D03*
%TD*%
D27*
%TO.N,+10V*%
%TO.C,J23*%
X177429000Y-93759200D03*
D28*
%TO.N,Net-(C28-Pad1)*%
X177429000Y-96299200D03*
%TD*%
D21*
%TO.N,OUTPUTSiren*%
%TO.C,R52*%
X176759400Y-87990300D03*
D22*
%TO.N,GND*%
X174219400Y-87990300D03*
%TD*%
D21*
%TO.N,Net-(C17-Pad1)*%
%TO.C,C17*%
X117048200Y-86173200D03*
%TO.N,GND*%
X117048200Y-93673200D03*
%TD*%
%TO.N,Net-(Q10-Pad1)*%
%TO.C,R44*%
X166497800Y-83480000D03*
D22*
%TO.N,Net-(Q8-Pad3)*%
X169037800Y-83480000D03*
%TD*%
D17*
%TO.N,Net-(D5-Pad1)*%
%TO.C,D5*%
X89215600Y-132497900D03*
D18*
%TO.N,Net-(D5-Pad2)*%
X79055600Y-132497900D03*
%TD*%
D37*
%TO.N,Net-(C32-Pad1)*%
%TO.C,C32*%
X213364300Y-96645700D03*
D21*
%TO.N,GND*%
X215864300Y-96645700D03*
%TD*%
D19*
%TO.N,GND*%
%TO.C,Q25*%
X212398800Y-83214400D03*
D20*
%TO.N,RPMEN*%
X211128800Y-83214400D03*
%TO.N,Net-(K1-Pad6)*%
X209858800Y-83214400D03*
%TD*%
D23*
%TO.N,Net-(Q21-Pad1)*%
%TO.C,Q21*%
X88471600Y-82669100D03*
D24*
%TO.N,+VSW*%
X88471600Y-80129100D03*
%TO.N,+VDC*%
X88471600Y-77589100D03*
%TD*%
D37*
%TO.N,+VDC*%
%TO.C,C25*%
X98051600Y-58524400D03*
D21*
%TO.N,GND*%
X98051600Y-61024400D03*
%TD*%
%TO.N,+5V*%
%TO.C,R19*%
X90456400Y-128969800D03*
D22*
%TO.N,Logging*%
X92996400Y-128969800D03*
%TD*%
D21*
%TO.N,GND*%
%TO.C,R68*%
X137247800Y-125193500D03*
D22*
%TO.N,AltCurrent*%
X139787800Y-125193500D03*
%TD*%
D21*
%TO.N,RPMEN*%
%TO.C,R70*%
X215032600Y-89695600D03*
D22*
%TO.N,GND*%
X215032600Y-87155600D03*
%TD*%
D21*
%TO.N,GND*%
%TO.C,R6*%
X140895900Y-136279400D03*
D22*
%TO.N,OilPressure*%
X140895900Y-133739400D03*
%TD*%
D21*
%TO.N,Net-(Q17-Pad1)*%
%TO.C,R54*%
X147711900Y-87463200D03*
D22*
%TO.N,Net-(Q15-Pad3)*%
X145171900Y-87463200D03*
%TD*%
D21*
%TO.N,Net-(IC12-Pad3)*%
%TO.C,R28*%
X124586900Y-142739400D03*
D22*
%TO.N,GND*%
X124586900Y-145279400D03*
%TD*%
D27*
%TO.N,+5V*%
%TO.C,J7*%
X131045500Y-106400900D03*
D28*
%TO.N,+10V*%
X133585500Y-106400900D03*
%TO.N,Vacuum1*%
X131045500Y-108940900D03*
%TO.N,+2V5*%
X133585500Y-108940900D03*
%TO.N,Vacuum2*%
X131045500Y-111480900D03*
%TO.N,GND*%
X133585500Y-111480900D03*
%TD*%
D21*
%TO.N,OUTPUTLED1*%
%TO.C,R40*%
X163398800Y-88349200D03*
D22*
%TO.N,GND*%
X160858800Y-88349200D03*
%TD*%
D21*
%TO.N,Net-(C24-Pad1)*%
%TO.C,C24*%
X110383600Y-57414700D03*
%TO.N,GND*%
X110383600Y-64914700D03*
%TD*%
%TO.N,OUTPUT2*%
%TO.C,R39*%
X131603800Y-54678100D03*
D22*
%TO.N,GND*%
X129063800Y-54678100D03*
%TD*%
D21*
%TO.N,OUTPUT4*%
%TO.C,R51*%
X142096800Y-93759800D03*
D22*
%TO.N,GND*%
X139556800Y-93759800D03*
%TD*%
D27*
%TO.N,SWMISO*%
%TO.C,J2*%
X225222200Y-121547800D03*
D28*
%TO.N,RTDMISO*%
X225222200Y-124087800D03*
%TO.N,MISO*%
X225222200Y-126627800D03*
%TD*%
D23*
%TO.N,Net-(Q9-Pad1)*%
%TO.C,Q9*%
X152969100Y-62298000D03*
D24*
%TO.N,Sense2-6*%
X152969100Y-64838000D03*
%TO.N,+VDC*%
X152969100Y-67378000D03*
%TD*%
D27*
%TO.N,Net-(J31-Pad1)*%
%TO.C,J31*%
X150145600Y-137205600D03*
D28*
%TO.N,/A10*%
X150145600Y-139745600D03*
%TD*%
D21*
%TO.N,Sense2-4*%
%TO.C,C3*%
X114841200Y-132433600D03*
%TO.N,GND*%
X114841200Y-137433600D03*
%TD*%
%TO.N,+5V*%
%TO.C,R13*%
X79847600Y-124300000D03*
D22*
%TO.N,Net-(IC7-Pad5)*%
X82387600Y-124300000D03*
%TD*%
D17*
%TO.N,Net-(D4-Pad1)*%
%TO.C,D4*%
X89215600Y-137290500D03*
D18*
%TO.N,Net-(D4-Pad2)*%
X79055600Y-137290500D03*
%TD*%
D27*
%TO.N,+5V*%
%TO.C,T6*%
X155695300Y-141069100D03*
D28*
%TO.N,GND*%
X158235300Y-141069100D03*
%TO.N,unconnected-(T6-Pad3)*%
X160775300Y-141069100D03*
%TO.N,RTDSCLK*%
X163315300Y-141069100D03*
%TO.N,RTDMISO*%
X165855300Y-141069100D03*
%TO.N,RTDMOSI*%
X168395300Y-141069100D03*
%TO.N,CarbCS*%
X170935300Y-141069100D03*
%TO.N,unconnected-(T6-Pad8)*%
X173475300Y-141069100D03*
%TD*%
D21*
%TO.N,+5V*%
%TO.C,R17*%
X79880700Y-128961300D03*
D22*
%TO.N,IN2TTL*%
X82420700Y-128961300D03*
%TD*%
D21*
%TO.N,Net-(Q22-Pad1)*%
%TO.C,R63*%
X76015800Y-88348200D03*
D22*
%TO.N,+3.3VP*%
X76015800Y-90888200D03*
%TD*%
D19*
%TO.N,GND*%
%TO.C,Q1*%
X105116400Y-139102200D03*
D20*
%TO.N,Sense2-1*%
X103846400Y-139102200D03*
%TO.N,Net-(D5-Pad1)*%
X102576400Y-139102200D03*
%TD*%
D21*
%TO.N,+10V*%
%TO.C,R23*%
X98369900Y-91532800D03*
D22*
%TO.N,Net-(IC10-Pad1)*%
X100909900Y-91532800D03*
%TD*%
D37*
%TO.N,Net-(C37-Pad1)*%
%TO.C,C37*%
X105777600Y-115358800D03*
D21*
%TO.N,Net-(C37-Pad2)*%
X105777600Y-112858800D03*
%TD*%
D26*
%TO.N,Net-(C15-Pad2)*%
%TO.C,L1*%
X125176300Y-81011700D03*
D29*
%TO.N,+5V*%
X140416300Y-81011700D03*
%TD*%
D19*
%TO.N,GND*%
%TO.C,Q4*%
X104959000Y-145284700D03*
D20*
%TO.N,Sense2-4*%
X103689000Y-145284700D03*
%TO.N,Net-(D4-Pad1)*%
X102419000Y-145284700D03*
%TD*%
D46*
%TO.N,Net-(IC14-Pad1)*%
%TO.C,IC14*%
X227755400Y-90720400D03*
D47*
%TO.N,Net-(C31-Pad1)*%
X230295400Y-90720400D03*
%TO.N,Net-(C32-Pad1)*%
X232835400Y-90720400D03*
%TO.N,Net-(IC14-Pad4)*%
X235375400Y-90720400D03*
%TO.N,+VSW*%
X235375400Y-82780400D03*
%TO.N,Net-(IC14-Pad6)*%
X232835400Y-82780400D03*
%TO.N,Net-(IC14-Pad4)*%
X230295400Y-82780400D03*
%TO.N,GND*%
X227755400Y-82780400D03*
%TD*%
D21*
%TO.N,GND*%
%TO.C,R7*%
X137809900Y-136273900D03*
D22*
%TO.N,AFR1*%
X137809900Y-133733900D03*
%TD*%
D23*
%TO.N,Net-(Q10-Pad1)*%
%TO.C,Q10*%
X162809300Y-55828700D03*
D24*
%TO.N,Sense2-11*%
X162809300Y-53288700D03*
%TO.N,+VDC*%
X162809300Y-50748700D03*
%TD*%
D26*
%TO.N,Net-(D8-Pad1)*%
%TO.C,L3*%
X111539800Y-50273700D03*
D29*
%TO.N,+3.3VP*%
X96299800Y-50273700D03*
%TD*%
D40*
%TO.N,Sense1-3*%
%TO.C,RV4*%
X115792700Y-126844700D03*
%TO.N,/BufferedADC/ADCIN4*%
X113252700Y-126844700D03*
%TO.N,GND*%
X110712700Y-126844700D03*
%TD*%
D23*
%TO.N,Net-(Q18-Pad1)*%
%TO.C,Q18*%
X162856400Y-78927300D03*
D24*
%TO.N,Sense2-5*%
X162856400Y-76387300D03*
%TO.N,+VDC*%
X162856400Y-73847300D03*
%TD*%
D17*
%TO.N,Net-(D3-Pad1)*%
%TO.C,D3*%
X93649500Y-150182100D03*
D18*
%TO.N,Net-(D3-Pad2)*%
X83489500Y-150182100D03*
%TD*%
D21*
%TO.N,+5V*%
%TO.C,R14*%
X85053400Y-124300000D03*
D22*
%TO.N,Net-(IC7-Pad3)*%
X87593400Y-124300000D03*
%TD*%
D21*
%TO.N,OUTPUT1*%
%TO.C,R57*%
X141143800Y-57709500D03*
D22*
%TO.N,GND*%
X138603800Y-57709500D03*
%TD*%
D38*
%TO.N,+VDC*%
%TO.C,Z2*%
X177929300Y-48427000D03*
D39*
%TO.N,Net-(Q10-Pad1)*%
X167229300Y-48427000D03*
%TD*%
D38*
%TO.N,+VDC*%
%TO.C,Z6*%
X177929300Y-53623000D03*
D39*
%TO.N,Net-(Q18-Pad1)*%
X167229300Y-53623000D03*
%TD*%
D38*
%TO.N,+VDC*%
%TO.C,Z4*%
X177929300Y-51059400D03*
D39*
%TO.N,Net-(Q14-Pad1)*%
X167229300Y-51059400D03*
%TD*%
D48*
%TO.N,GND*%
X110487300Y-99127300D03*
X108094100Y-104973700D03*
X78854300Y-92284100D03*
X82353100Y-74800000D03*
X110712700Y-123312200D03*
X90603300Y-74800000D03*
X114140700Y-99127300D03*
X104412100Y-137377800D03*
X85904500Y-117495100D03*
X71921100Y-92284100D03*
X159762900Y-103778800D03*
X206647900Y-128534300D03*
X194382000Y-108700800D03*
X170680700Y-113689800D03*
X78151200Y-104032800D03*
X90698000Y-89834700D03*
X76208500Y-119627600D03*
X203269200Y-130939200D03*
X160186600Y-89519400D03*
X103314000Y-143214500D03*
X79160951Y-121395509D03*
X111572500Y-131806900D03*
X160814200Y-112598200D03*
X83832800Y-119566800D03*
X88658800Y-117495100D03*
X165539000Y-104206600D03*
X158971100Y-98645700D03*
X233851300Y-83896500D03*
%TO.N,+5V*%
X174596200Y-110429200D03*
X130111700Y-122548300D03*
X130523800Y-131075700D03*
%TO.N,+VDC*%
X102686400Y-58609600D03*
%TO.N,Net-(D10-Pad1)*%
X159566300Y-112394000D03*
%TO.N,Net-(J31-Pad1)*%
X223087000Y-147260200D03*
%TO.N,ThrottlePositionADC*%
X134113100Y-125425100D03*
%TO.N,Net-(D2-Pad2)*%
X94490900Y-114315200D03*
X85398600Y-114315200D03*
%TO.N,Net-(D3-Pad2)*%
X90698000Y-113689800D03*
%TO.N,Net-(D4-Pad2)*%
X81288500Y-110720900D03*
%TO.N,AltCurrent*%
X132545700Y-126799000D03*
%TO.N,AFR2*%
X135592400Y-133060000D03*
%TO.N,FuelPressure1*%
X126820300Y-116173300D03*
%TO.N,AFR1*%
X132115900Y-132402500D03*
%TO.N,OilPressure*%
X126638600Y-131876200D03*
%TO.N,SCL*%
X164758000Y-108175100D03*
%TO.N,SDA*%
X161501300Y-110389700D03*
X119801300Y-113075400D03*
%TO.N,WaterCS*%
X208562000Y-79403400D03*
%TO.N,FrontCS*%
X185622100Y-129920800D03*
%TO.N,Logging*%
X94460600Y-131038500D03*
X78791000Y-118932900D03*
X94471300Y-119494500D03*
%TO.N,Net-(IC7-Pad1)*%
X94292600Y-110720900D03*
%TO.N,+3.3VP*%
X155502500Y-119259300D03*
X159795500Y-108717600D03*
%TO.N,+2V5*%
X129515600Y-113868200D03*
X116145100Y-114147600D03*
%TO.N,Net-(C19-Pad1)*%
X105545700Y-78954500D03*
%TO.N,Net-(IC7-Pad3)*%
X87735600Y-116658700D03*
%TO.N,Net-(IC7-Pad7)*%
X78760900Y-110624500D03*
%TO.N,GPSBat*%
X113634800Y-150403100D03*
%TO.N,Net-(C27-Pad1)*%
X203288900Y-120306400D03*
%TO.N,Net-(C30-Pad1)*%
X198482100Y-109031100D03*
%TO.N,Net-(C31-Pad1)*%
X233763300Y-89774700D03*
%TO.N,Net-(D5-Pad2)*%
X73638400Y-109764700D03*
X75886000Y-131503200D03*
%TO.N,Net-(IC7-Pad5)*%
X83832800Y-110720900D03*
%TO.N,IN3TTL*%
X82813900Y-121266700D03*
%TO.N,IN2TTL*%
X87757400Y-121397200D03*
X130196600Y-121747900D03*
%TO.N,IN1TTL*%
X92424300Y-122982200D03*
X130358500Y-127521300D03*
%TO.N,/A1*%
X164329700Y-119493700D03*
X168519800Y-147072600D03*
X166109800Y-131258400D03*
%TO.N,RPMEN*%
X204995600Y-124828700D03*
X211008300Y-86240900D03*
%TO.N,Sense2-1*%
X118138400Y-124367400D03*
X112584500Y-131884500D03*
X131918000Y-121500400D03*
X163322600Y-70530800D03*
%TO.N,Sense2-4*%
X170595100Y-80739400D03*
X117297600Y-124679500D03*
X146123200Y-123359700D03*
%TO.N,Sense2-7*%
X153956200Y-130240500D03*
%TO.N,Sense2-10*%
X133863700Y-135550900D03*
D49*
%TO.N,Sense2-12*%
X167982000Y-71925800D03*
D48*
%TO.N,Sense1-1*%
X135936300Y-128611300D03*
X153341700Y-127242800D03*
X170927100Y-104822400D03*
X178587000Y-99305900D03*
%TO.N,Sense1-3*%
X113968000Y-130628100D03*
X152618900Y-130270500D03*
%TO.N,Sense1-4*%
X136323400Y-131385300D03*
X154394500Y-130950300D03*
%TO.N,Sense1-7*%
X132563900Y-110121500D03*
X140238600Y-107854200D03*
X142133700Y-97841700D03*
X186911000Y-88578500D03*
X129698700Y-131250900D03*
%TO.N,Sense1-10*%
X170074000Y-98017800D03*
X131917700Y-125007000D03*
X126773500Y-128271600D03*
X146135200Y-99672500D03*
%TO.N,Sense1-11*%
X155987700Y-113651200D03*
%TO.N,OUTPUTLED2*%
X183307500Y-93517400D03*
%TO.N,OUTPUTLED1*%
X183850100Y-128131900D03*
X187490200Y-93381100D03*
%TO.N,SpareBufferedADC*%
X136035800Y-117361600D03*
%TO.N,Sense1-6*%
X132526600Y-122040100D03*
X164367000Y-63109900D03*
%TO.N,+VSW*%
X120912200Y-132073900D03*
X104724800Y-81515900D03*
%TO.N,Net-(IC19-Pad2)*%
X165647700Y-114537800D03*
%TO.N,Sense1-12*%
X171268700Y-68922600D03*
X132286000Y-119128100D03*
X160739500Y-68922600D03*
%TO.N,Sense1-8*%
X143556000Y-117810600D03*
X113803100Y-117038700D03*
X170012200Y-81750300D03*
%TO.N,/BufferedADC/ADCIN4*%
X131216000Y-126593100D03*
X135106300Y-119500100D03*
%TO.N,RTDSCLK*%
X179151600Y-137426900D03*
%TO.N,RTDMOSI*%
X210180500Y-108740500D03*
%TD*%
D50*
%TO.N,GND*%
X160858800Y-85825300D02*
X160858800Y-88349200D01*
X107063500Y-140783300D02*
X107019400Y-140783300D01*
X108094100Y-103154900D02*
X108094100Y-104973700D01*
X105384200Y-145284700D02*
X105809300Y-145284700D01*
X83832800Y-119566800D02*
X85904500Y-117495100D01*
X117265200Y-144012500D02*
X116158300Y-142905600D01*
X223196600Y-86602700D02*
X224947200Y-88353300D01*
X158237900Y-92748100D02*
X158237900Y-91468100D01*
X81621200Y-144627400D02*
X81621200Y-146652400D01*
X105809300Y-142037500D02*
X105809300Y-145284700D01*
X80900100Y-143056000D02*
X80900100Y-143906300D01*
X110457100Y-99157500D02*
X110487300Y-99127300D01*
X115733200Y-142905600D02*
X115733200Y-138325600D01*
X114841200Y-137433600D02*
X114841200Y-135075600D01*
X107154100Y-140783300D02*
X107063500Y-140783300D01*
X78151200Y-104032800D02*
X77959900Y-103841500D01*
X160890100Y-85794000D02*
X160858800Y-85825300D01*
X114841200Y-135075600D02*
X111572500Y-131806900D01*
X80495900Y-148621600D02*
X80495900Y-147496300D01*
X77959900Y-103841500D02*
X77959900Y-93178500D01*
X107063600Y-146539000D02*
X105809300Y-145284700D01*
X160890100Y-84718700D02*
X160890100Y-85794000D01*
X111572500Y-131806900D02*
X111572500Y-127704500D01*
X234282700Y-66290200D02*
X232712200Y-67860700D01*
X70303900Y-90666900D02*
X70303900Y-89526600D01*
X71921100Y-92284100D02*
X70303900Y-90666900D01*
X107063600Y-146940100D02*
X107063600Y-146539000D01*
X108188900Y-146940100D02*
X107063600Y-146940100D01*
X77959900Y-93178500D02*
X78854300Y-92284100D01*
X110712700Y-120049400D02*
X110712700Y-123312200D01*
X165539000Y-104206600D02*
X162968800Y-106776800D01*
X104959000Y-145284700D02*
X105384200Y-145284700D01*
X117265200Y-144604600D02*
X117265200Y-144012500D01*
X81621200Y-146652400D02*
X80777300Y-147496300D01*
X109607000Y-118943700D02*
X110712700Y-120049400D01*
X233851300Y-76910700D02*
X234269300Y-76492700D01*
X94384900Y-93521600D02*
X94384900Y-97908600D01*
X107063500Y-140783300D02*
X105809300Y-142037500D01*
X115733200Y-138325600D02*
X114841200Y-137433600D01*
X233851300Y-83896500D02*
X233851300Y-76910700D01*
X82186200Y-76718500D02*
X82186200Y-74966900D01*
X158971100Y-102987000D02*
X158971100Y-98645700D01*
X159762900Y-103778800D02*
X158971100Y-102987000D01*
X108144700Y-140783300D02*
X107154100Y-140783300D01*
X105384200Y-145284700D02*
X103314000Y-143214500D01*
X158237900Y-91468100D02*
X160186600Y-89519400D01*
X76208500Y-109549200D02*
X76208500Y-119627600D01*
X111572500Y-127704500D02*
X110712700Y-126844700D01*
X118390500Y-144604600D02*
X117265200Y-144604600D01*
X104658300Y-133418000D02*
X104658300Y-137131600D01*
X224947200Y-88353300D02*
X225078900Y-88353300D01*
X162968800Y-110443600D02*
X160814200Y-112598200D01*
X115733200Y-142905600D02*
X116158300Y-142905600D01*
X110457100Y-100791900D02*
X109268200Y-100791900D01*
X105116400Y-139102200D02*
X105966700Y-139102200D01*
X232712200Y-74935600D02*
X234269300Y-76492700D01*
X115308000Y-142905600D02*
X115733200Y-142905600D01*
X162968800Y-106776800D02*
X162968800Y-110443600D01*
X80777300Y-147496300D02*
X80495900Y-147496300D01*
X110712700Y-123312200D02*
X110712700Y-126844700D01*
X82186200Y-74966900D02*
X82353100Y-74800000D01*
X90698000Y-89834700D02*
X94384900Y-93521600D01*
X109268200Y-100791900D02*
X109268200Y-101980800D01*
X104658300Y-137131600D02*
X104412100Y-137377800D01*
X78656800Y-107100900D02*
X76208500Y-109549200D01*
X109268200Y-101980800D02*
X108094100Y-103154900D01*
X107019400Y-140783300D02*
X105966700Y-139730600D01*
X80900100Y-143906300D02*
X81621200Y-144627400D01*
X78656800Y-105925600D02*
X78656800Y-107100900D01*
X232712200Y-67860700D02*
X232712200Y-74935600D01*
X105966700Y-139730600D02*
X105966700Y-139102200D01*
X222071300Y-86399600D02*
X223196600Y-86399600D01*
X225078900Y-89478600D02*
X225078900Y-88353300D01*
X223196600Y-86399600D02*
X223196600Y-86602700D01*
X110457100Y-100791900D02*
X110457100Y-99157500D01*
%TO.N,+5V*%
X157646900Y-142244400D02*
X157905800Y-142244400D01*
X204364500Y-132084300D02*
X204282700Y-132166100D01*
X185205600Y-133341400D02*
X185205600Y-134516700D01*
X157905800Y-142244400D02*
X164051100Y-148389700D01*
X134778200Y-108462000D02*
X134778200Y-112925300D01*
X130111700Y-122547300D02*
X130111700Y-122548300D01*
X76116800Y-106513200D02*
X76116800Y-107100900D01*
X130523800Y-133095300D02*
X134729800Y-137301300D01*
X202534100Y-82991200D02*
X202534100Y-84663800D01*
X204282700Y-133341400D02*
X204282700Y-132166100D01*
X129571300Y-121488900D02*
X129571300Y-122006900D01*
X129571300Y-122006900D02*
X130111700Y-122547300D01*
X79880700Y-128961300D02*
X81046700Y-130127300D01*
X131045500Y-106400900D02*
X130457900Y-106400900D01*
X129713500Y-130265400D02*
X130523800Y-131075700D01*
X74694700Y-108523000D02*
X76116800Y-107100900D01*
X185645600Y-149851400D02*
X186380900Y-149116100D01*
X182259300Y-151409700D02*
X183817600Y-149851400D01*
X203848600Y-98424800D02*
X202126500Y-100146900D01*
X134778200Y-112925300D02*
X131165900Y-116537600D01*
X130457900Y-106400900D02*
X129870200Y-106400900D01*
X164051100Y-148389700D02*
X164051100Y-149642000D01*
X129870200Y-106400900D02*
X125498500Y-110772600D01*
X130457900Y-106400900D02*
X131647200Y-107590200D01*
X81046700Y-130127300D02*
X84002900Y-130127300D01*
X76116800Y-105925600D02*
X77292100Y-105925600D01*
X133906400Y-107590200D02*
X134778200Y-108462000D01*
X204215900Y-97249500D02*
X204215900Y-98424800D01*
X129921400Y-121138800D02*
X129571300Y-121488900D01*
X202126500Y-100146900D02*
X202126500Y-118200500D01*
X84002900Y-130127300D02*
X85160400Y-128969800D01*
X75849100Y-125465000D02*
X74694700Y-124310600D01*
X85589600Y-98276000D02*
X85589600Y-97908600D01*
X78192200Y-104658100D02*
X79207500Y-104658100D01*
X74694700Y-124310600D02*
X74694700Y-108523000D01*
X206318600Y-78031400D02*
X206318600Y-79206700D01*
X225405900Y-109707500D02*
X226213800Y-110515400D01*
X77292100Y-105925600D02*
X77292100Y-105558200D01*
X131165900Y-116537600D02*
X131165900Y-116888800D01*
X77292100Y-105558200D02*
X78192200Y-104658100D01*
X125498500Y-110772600D02*
X125172400Y-110772600D01*
X129713500Y-122946500D02*
X129713500Y-130265400D01*
X226213800Y-110515400D02*
X226581200Y-110515400D01*
X186380900Y-149116100D02*
X186380900Y-135324600D01*
X206318600Y-79206700D02*
X202534100Y-82991200D01*
X189948400Y-97249500D02*
X202534100Y-84663800D01*
X218111900Y-89695600D02*
X218111900Y-100998400D01*
X131647200Y-107590200D02*
X133906400Y-107590200D01*
X79847600Y-124300000D02*
X78682600Y-125465000D01*
X76116800Y-106513200D02*
X76116800Y-105925600D01*
X130523800Y-131075700D02*
X130523800Y-133095300D01*
X86764900Y-97908600D02*
X85589600Y-97908600D01*
X130111700Y-122548300D02*
X129713500Y-122946500D01*
X165818800Y-151409700D02*
X182259300Y-151409700D01*
X156870600Y-141468100D02*
X157646900Y-142244400D01*
X155695300Y-141069100D02*
X156870600Y-141069100D01*
X185138800Y-97249500D02*
X189948400Y-97249500D01*
X218111900Y-100998400D02*
X225405900Y-108292400D01*
X129921400Y-118133300D02*
X129921400Y-121138800D01*
X79207500Y-104658100D02*
X85589600Y-98276000D01*
X225405900Y-108292400D02*
X225405900Y-109707500D01*
X164051100Y-149642000D02*
X165818800Y-151409700D01*
X78682600Y-125465000D02*
X75849100Y-125465000D01*
X202126500Y-118200500D02*
X204364500Y-120438500D01*
X185573000Y-134516700D02*
X185205600Y-134516700D01*
X186380900Y-135324600D02*
X185573000Y-134516700D01*
X131165900Y-116888800D02*
X129921400Y-118133300D01*
X226581200Y-111690700D02*
X226581200Y-110515400D01*
X204364500Y-120438500D02*
X204364500Y-132084300D01*
X183817600Y-149851400D02*
X185645600Y-149851400D01*
X204215900Y-98424800D02*
X203848600Y-98424800D01*
X156870600Y-141069100D02*
X156870600Y-141468100D01*
X134729800Y-137301300D02*
X135158200Y-137301300D01*
%TO.N,+10V*%
X122832500Y-111856800D02*
X122832500Y-105851000D01*
X132410200Y-105603600D02*
X132410200Y-106400900D01*
D51*
X111264000Y-95181000D02*
X111264000Y-93796100D01*
D50*
X121397300Y-113292000D02*
X122832500Y-111856800D01*
X133585500Y-106400900D02*
X132410200Y-106400900D01*
X111264000Y-93796100D02*
X111264500Y-93796600D01*
D51*
X101039000Y-88863600D02*
X98369900Y-91532800D01*
D50*
X124427100Y-100210300D02*
X124427100Y-104256400D01*
X124427100Y-104256400D02*
X131063000Y-104256400D01*
X111264500Y-95181000D02*
X119397800Y-95181000D01*
X111232700Y-91511300D02*
X111232700Y-91511200D01*
X119397800Y-95181000D02*
X124427100Y-100210300D01*
X125705500Y-135982800D02*
X121397300Y-131674600D01*
D51*
X111248500Y-91527100D02*
X111233000Y-91511200D01*
D50*
X101039200Y-73440900D02*
X101039000Y-73440900D01*
X122832500Y-105851000D02*
X124427100Y-104256400D01*
X121397300Y-131674600D02*
X121397300Y-113292000D01*
X131063000Y-104256400D02*
X132410200Y-105603600D01*
D51*
X111264000Y-91543000D02*
X111248500Y-91527100D01*
X101039000Y-73440900D02*
X101039000Y-88863600D01*
D50*
X125705500Y-139609200D02*
X125705500Y-135982800D01*
D51*
X111264000Y-93796100D02*
X111264000Y-91543000D01*
D50*
X111248500Y-91527100D02*
X111232700Y-91511300D01*
X129761100Y-149051900D02*
X129761100Y-143664800D01*
X129761100Y-143664800D02*
X125705500Y-139609200D01*
X111264500Y-93796600D02*
X111264500Y-95181000D01*
%TO.N,+VDC*%
X73402700Y-84347000D02*
X77932400Y-84347000D01*
X96926300Y-60493600D02*
X97770200Y-59649700D01*
X147470900Y-69262600D02*
X149355500Y-67378000D01*
X168607800Y-88893200D02*
X165995500Y-91505500D01*
X82747200Y-89161800D02*
X82747200Y-89837000D01*
X168607800Y-86594000D02*
X168607800Y-88893200D01*
X88471600Y-77589100D02*
X88698600Y-77589100D01*
X150184100Y-78927300D02*
X152969100Y-78927300D01*
X98051600Y-58524400D02*
X98051600Y-59649700D01*
X96926300Y-69361400D02*
X96926300Y-60493600D01*
X77932400Y-84347000D02*
X82747200Y-89161800D01*
X83647500Y-89837000D02*
X82747200Y-89837000D01*
X88698600Y-77589100D02*
X96926300Y-69361400D01*
X147321700Y-81789700D02*
X150184100Y-78927300D01*
X97770200Y-59649700D02*
X98051600Y-59649700D01*
X149355500Y-67378000D02*
X152969100Y-67378000D01*
%TO.N,Net-(D10-Pad1)*%
X149922800Y-121993000D02*
X151348100Y-121993000D01*
X153701100Y-121993000D02*
X159005700Y-116688400D01*
X159566300Y-112394000D02*
X159566300Y-113977200D01*
X159566300Y-113977200D02*
X159005700Y-114537800D01*
X159005700Y-115613100D02*
X159005700Y-116688400D01*
X159005700Y-115532600D02*
X159005700Y-115613100D01*
X151348100Y-121993000D02*
X153701100Y-121993000D01*
X159005700Y-115532600D02*
X159005700Y-114537800D01*
%TO.N,Net-(J31-Pad1)*%
X234269300Y-73952700D02*
X236804800Y-76488200D01*
X236804800Y-133542400D02*
X223087000Y-147260200D01*
X236804800Y-76488200D02*
X236804800Y-133542400D01*
%TO.N,SCLK*%
X234522200Y-125452500D02*
X234154800Y-125452500D01*
X226948500Y-105246000D02*
X226581200Y-105246000D01*
X226581200Y-104070700D02*
X226581200Y-105246000D01*
X233346900Y-124644600D02*
X233346900Y-111644400D01*
X234522200Y-126627800D02*
X234522200Y-125452500D01*
X233346900Y-111644400D02*
X226948500Y-105246000D01*
X234154800Y-125452500D02*
X233346900Y-124644600D01*
%TO.N,MOSI*%
X235727400Y-108944900D02*
X235727400Y-127107300D01*
X232896500Y-125387900D02*
X230418200Y-122909600D01*
X226948500Y-100166000D02*
X235727400Y-108944900D01*
X228662600Y-123581200D02*
X228662600Y-125418200D01*
X230418200Y-122909600D02*
X229334200Y-122909600D01*
X235727400Y-127107300D02*
X234967400Y-127867300D01*
X232896500Y-126706200D02*
X232896500Y-125387900D01*
X226581200Y-98990700D02*
X226581200Y-100166000D01*
X226581200Y-100166000D02*
X226948500Y-100166000D01*
X228662600Y-125418200D02*
X229872200Y-126627800D01*
X229334200Y-122909600D02*
X228662600Y-123581200D01*
X234967400Y-127867300D02*
X234057600Y-127867300D01*
X234057600Y-127867300D02*
X232896500Y-126706200D01*
%TO.N,MISO*%
X226213800Y-102706000D02*
X226581200Y-102706000D01*
X225222200Y-126627800D02*
X225222200Y-125452500D01*
X227763600Y-108670600D02*
X226973700Y-107880700D01*
X225589500Y-125452500D02*
X227763600Y-123278400D01*
X225222200Y-125452500D02*
X225589500Y-125452500D01*
X225405900Y-103513900D02*
X226213800Y-102706000D01*
X226581200Y-101530700D02*
X226581200Y-102706000D01*
X227763600Y-123278400D02*
X227763600Y-108670600D01*
X225405900Y-107140700D02*
X225405900Y-103513900D01*
X226145900Y-107880700D02*
X225405900Y-107140700D01*
X226973700Y-107880700D02*
X226145900Y-107880700D01*
%TO.N,Net-(D3-Pad1)*%
X82886400Y-151607400D02*
X90798900Y-151607400D01*
X82130300Y-149271100D02*
X82034300Y-149367100D01*
X82034300Y-149367100D02*
X82034300Y-150755300D01*
X93649500Y-150182100D02*
X92224200Y-150182100D01*
X82034300Y-150755300D02*
X82886400Y-151607400D01*
X82130300Y-140670900D02*
X82130300Y-149271100D01*
X81975400Y-140516000D02*
X82130300Y-140670900D01*
X90798900Y-151607400D02*
X92224200Y-150182100D01*
X80900100Y-140516000D02*
X81975400Y-140516000D01*
%TO.N,ThrottlePositionADC*%
X139802100Y-122136700D02*
X140972000Y-122136700D01*
X166672200Y-148557000D02*
X166672200Y-149051900D01*
X136276200Y-123262000D02*
X134113100Y-125425100D01*
X139239500Y-122136700D02*
X139802100Y-122136700D01*
X167861100Y-149051900D02*
X166672200Y-149051900D01*
X165023600Y-147007600D02*
X165122800Y-147007600D01*
X139239500Y-122136700D02*
X138676800Y-122136700D01*
X165122800Y-147007600D02*
X166672200Y-148557000D01*
X137832900Y-123262000D02*
X136276200Y-123262000D01*
X159410700Y-140575400D02*
X159410700Y-141394700D01*
X140972000Y-122136700D02*
X159410700Y-140575400D01*
X138676800Y-122418100D02*
X137832900Y-123262000D01*
X138676800Y-122136700D02*
X138676800Y-122418100D01*
X159410700Y-141394700D02*
X165023600Y-147007600D01*
%TO.N,Net-(D2-Pad2)*%
X95854900Y-115679200D02*
X94490900Y-114315200D01*
X95854900Y-128035400D02*
X95854900Y-115679200D01*
%TO.N,Net-(D3-Pad2)*%
X90446000Y-130571700D02*
X88423400Y-130571700D01*
X91581700Y-129436000D02*
X90446000Y-130571700D01*
X88423400Y-130571700D02*
X83489500Y-135505600D01*
X90698000Y-113689800D02*
X91581700Y-114573500D01*
X91581700Y-114573500D02*
X91581700Y-129436000D01*
X83489500Y-135505600D02*
X83489500Y-150182100D01*
%TO.N,Net-(D4-Pad2)*%
X78311200Y-130216900D02*
X77630300Y-130897800D01*
X77630300Y-134439900D02*
X79055600Y-135865200D01*
X81262200Y-110747200D02*
X81262200Y-124593700D01*
X77630300Y-130897800D02*
X77630300Y-134439900D01*
X78311200Y-127544700D02*
X78311200Y-130216900D01*
X79055600Y-137290500D02*
X79055600Y-135865200D01*
X81262200Y-124593700D02*
X78311200Y-127544700D01*
X81288500Y-110720900D02*
X81262200Y-110747200D01*
%TO.N,Net-(D9-Pad1)*%
X189287900Y-106117700D02*
X192243000Y-103162600D01*
X189287900Y-115880600D02*
X189287900Y-106117700D01*
X192243000Y-103162600D02*
X198637600Y-103162600D01*
X198637600Y-103162600D02*
X199748300Y-102051900D01*
%TO.N,AltCurrent*%
X139079900Y-139239000D02*
X134943100Y-135102200D01*
X139787800Y-125193500D02*
X139787800Y-126318800D01*
X135194200Y-129447500D02*
X137708400Y-129447500D01*
X138662500Y-127444100D02*
X139787800Y-126318800D01*
X134943100Y-135102200D02*
X134943100Y-129698600D01*
X134943100Y-129698600D02*
X135194200Y-129447500D01*
X145001100Y-149051900D02*
X145001100Y-147232400D01*
X137708400Y-129447500D02*
X138662500Y-128493400D01*
X138662500Y-128493400D02*
X138662500Y-127444100D01*
X145001100Y-147232400D02*
X139079900Y-141311200D01*
X139079900Y-141311200D02*
X139079900Y-139239000D01*
X135194200Y-129447500D02*
X132545700Y-126799000D01*
%TO.N,FuelPressure2*%
X137399900Y-150909700D02*
X147554500Y-150909700D01*
X122596900Y-124116900D02*
X122596900Y-130795900D01*
X150081100Y-149051900D02*
X148892200Y-149051900D01*
X128108600Y-139839000D02*
X136111100Y-147841500D01*
X122596900Y-130795900D02*
X128108600Y-136307600D01*
X136111100Y-147841500D02*
X136111100Y-149620900D01*
X147554500Y-150909700D02*
X148892200Y-149572000D01*
X148892200Y-149572000D02*
X148892200Y-149051900D01*
X136111100Y-149620900D02*
X137399900Y-150909700D01*
X128108600Y-136307600D02*
X128108600Y-139839000D01*
%TO.N,AFR2*%
X151731800Y-141219100D02*
X149886300Y-141219100D01*
X159052200Y-148539500D02*
X151731800Y-141219100D01*
X159052200Y-149051900D02*
X159052200Y-148539500D01*
X142908100Y-132486600D02*
X139788100Y-129366600D01*
X160241100Y-149051900D02*
X159052200Y-149051900D01*
X149886300Y-141219100D02*
X142908100Y-134240900D01*
X139285800Y-129366600D02*
X135592400Y-133060000D01*
X139788100Y-128241300D02*
X139788100Y-129366600D01*
X139788100Y-129366600D02*
X139285800Y-129366600D01*
X142908100Y-134240900D02*
X142908100Y-132486600D01*
%TO.N,FuelPressure1*%
X136204000Y-147284900D02*
X137471100Y-147284900D01*
X139420600Y-150403100D02*
X145497900Y-150403100D01*
X146352200Y-149548800D02*
X146352200Y-149051900D01*
X124762500Y-120611900D02*
X124762500Y-131575300D01*
X128558900Y-135371700D02*
X128558900Y-139639800D01*
X123666600Y-119327000D02*
X123666600Y-119516000D01*
X145497900Y-150403100D02*
X146352200Y-149548800D01*
X138651100Y-148464900D02*
X138651100Y-149633600D01*
X122546400Y-119516000D02*
X123666600Y-119516000D01*
X147541100Y-149051900D02*
X146352200Y-149051900D01*
X138651100Y-149633600D02*
X139420600Y-150403100D01*
X137471100Y-147284900D02*
X138651100Y-148464900D01*
X123666600Y-119516000D02*
X124762500Y-120611900D01*
X124762500Y-131575300D02*
X128558900Y-135371700D01*
X126820300Y-116173300D02*
X123666600Y-119327000D01*
X128558900Y-139639800D02*
X136204000Y-147284900D01*
%TO.N,AFR1*%
X154129600Y-146669300D02*
X156512200Y-149051900D01*
X146253800Y-138223500D02*
X146253800Y-143478400D01*
X137809900Y-133733900D02*
X138935200Y-133733900D01*
X138935200Y-133733900D02*
X140070500Y-132598600D01*
X146253800Y-143478400D02*
X149444700Y-146669300D01*
X142457800Y-134427500D02*
X146253800Y-138223500D01*
X142457800Y-133632900D02*
X142457800Y-134427500D01*
X157701100Y-149051900D02*
X156512200Y-149051900D01*
X141423500Y-132598600D02*
X142457800Y-133632900D01*
X149444700Y-146669300D02*
X154129600Y-146669300D01*
X140070500Y-132598600D02*
X141423500Y-132598600D01*
%TO.N,OilPressure*%
X145733900Y-139421300D02*
X145733900Y-143669900D01*
X141177300Y-134864700D02*
X145733900Y-139421300D01*
X145733900Y-143669900D02*
X149262000Y-147198000D01*
X150116000Y-147198000D02*
X151432200Y-148514200D01*
X152621100Y-149051900D02*
X151432200Y-149051900D01*
X140895900Y-134864700D02*
X141177300Y-134864700D01*
X149262000Y-147198000D02*
X150116000Y-147198000D01*
X151432200Y-148514200D02*
X151432200Y-149051900D01*
X140895900Y-133739400D02*
X140895900Y-134864700D01*
%TO.N,SCL*%
X191104100Y-85269800D02*
X191104100Y-77579900D01*
X170401100Y-102532000D02*
X170401100Y-100791900D01*
X179755400Y-89203800D02*
X187170100Y-89203800D01*
X164758000Y-108175100D02*
X170401100Y-102532000D01*
X187170100Y-89203800D02*
X191104100Y-85269800D01*
X191104100Y-77579900D02*
X198001600Y-70682400D01*
X171590000Y-97369200D02*
X179755400Y-89203800D01*
X170401100Y-100791900D02*
X171590000Y-100791900D01*
X171590000Y-100791900D02*
X171590000Y-97369200D01*
%TO.N,SDA*%
X105377100Y-100791900D02*
X106566000Y-100791900D01*
X187574700Y-71832800D02*
X186076600Y-71832800D01*
X109584500Y-107513700D02*
X110512400Y-107513700D01*
X115573900Y-112575200D02*
X119301100Y-112575200D01*
X166672200Y-100791900D02*
X166672200Y-101980800D01*
X106566000Y-101980800D02*
X107345200Y-102760000D01*
X166672200Y-101980800D02*
X161501400Y-107151600D01*
X167861100Y-97667900D02*
X167861100Y-99450600D01*
X107345200Y-102760000D02*
X107345200Y-105274400D01*
X106566000Y-100791900D02*
X106566000Y-101980800D01*
X189888100Y-69519400D02*
X187574700Y-71832800D01*
X167861100Y-100791900D02*
X166672200Y-100791900D01*
X173238600Y-76670200D02*
X171878400Y-78030400D01*
X175283600Y-76670200D02*
X173238600Y-76670200D01*
X186076600Y-71832800D02*
X183763000Y-69519200D01*
X171878400Y-78030400D02*
X171878400Y-93650600D01*
X181434000Y-70519800D02*
X175283600Y-76670200D01*
X193028600Y-69519400D02*
X189888100Y-69519400D01*
X161501400Y-110389700D02*
X161501300Y-110389700D01*
X119301100Y-112575200D02*
X119801300Y-113075400D01*
X182264000Y-69519200D02*
X181434000Y-70349200D01*
X107345200Y-105274400D02*
X109584500Y-107513700D01*
X167861100Y-100791900D02*
X167861100Y-99450600D01*
X194191600Y-70682400D02*
X193028600Y-69519400D01*
X110512400Y-107513700D02*
X115573900Y-112575200D01*
X181434000Y-70349200D02*
X181434000Y-70519800D01*
X171878400Y-93650600D02*
X167861100Y-97667900D01*
X161501400Y-107151600D02*
X161501400Y-110389700D01*
X183763000Y-69519200D02*
X182264000Y-69519200D01*
%TO.N,WaterCS*%
X184576600Y-131521300D02*
X184576600Y-118067500D01*
X180934900Y-135163000D02*
X184576600Y-131521300D01*
X187689800Y-105171300D02*
X190640600Y-102220500D01*
X203804100Y-84161300D02*
X208562000Y-79403400D01*
X179210000Y-136351900D02*
X179210000Y-135980300D01*
X178021100Y-136351900D02*
X179210000Y-136351900D01*
X184576600Y-118067500D02*
X187689800Y-114954300D01*
X190640600Y-102220500D02*
X190640600Y-99768900D01*
X179210000Y-135980300D02*
X180027300Y-135163000D01*
X180027300Y-135163000D02*
X180934900Y-135163000D01*
X203804100Y-86605400D02*
X203804100Y-84161300D01*
X187689800Y-114954300D02*
X187689800Y-105171300D01*
X190640600Y-99768900D02*
X203804100Y-86605400D01*
%TO.N,Net-(C37-Pad1)*%
X117227000Y-121483700D02*
X116321700Y-121483700D01*
X105777600Y-115358800D02*
X110196800Y-115358800D01*
X110196800Y-115358800D02*
X116321700Y-121483700D01*
%TO.N,LsideCS*%
X180027300Y-132623000D02*
X179210000Y-133440300D01*
X180955900Y-132623000D02*
X180027300Y-132623000D01*
X185138800Y-112489500D02*
X185138800Y-113664800D01*
X183224800Y-115211500D02*
X183224800Y-130354100D01*
X183224800Y-130354100D02*
X180955900Y-132623000D01*
X184771500Y-113664800D02*
X183224800Y-115211500D01*
X185138800Y-113664800D02*
X184771500Y-113664800D01*
X179210000Y-133440300D02*
X179210000Y-133811900D01*
X178021100Y-133811900D02*
X179210000Y-133811900D01*
%TO.N,CarbCS*%
X178021100Y-123651900D02*
X178021100Y-124840800D01*
X177649600Y-124840800D02*
X170935300Y-131555100D01*
X178021100Y-124840800D02*
X177649600Y-124840800D01*
X170935300Y-131555100D02*
X170935300Y-141069100D01*
%TO.N,RsideCS*%
X180046800Y-140080900D02*
X179210100Y-139244200D01*
X178021100Y-131271900D02*
X178021100Y-132460800D01*
X185205600Y-147406100D02*
X184838300Y-147406100D01*
X182751000Y-141871300D02*
X180960600Y-140080900D01*
X184838300Y-147406100D02*
X182751000Y-145318800D01*
X179210100Y-139244200D02*
X179210100Y-138377600D01*
X177541800Y-137621900D02*
X176832200Y-136912300D01*
X178454400Y-137621900D02*
X177541800Y-137621900D01*
X185205600Y-148581400D02*
X185205600Y-147406100D01*
X179210100Y-138377600D02*
X178454400Y-137621900D01*
X177649500Y-132460800D02*
X178021100Y-132460800D01*
X180960600Y-140080900D02*
X180046800Y-140080900D01*
X176832200Y-133278100D02*
X177649500Y-132460800D01*
X176832200Y-136912300D02*
X176832200Y-133278100D01*
X182751000Y-145318800D02*
X182751000Y-141871300D01*
%TO.N,FrontCS*%
X203107400Y-148581400D02*
X203107400Y-147406100D01*
X204282700Y-148581400D02*
X203107400Y-148581400D01*
X203107400Y-147406100D02*
X185622100Y-129920800D01*
%TO.N,Logging*%
X93517200Y-130095100D02*
X94460600Y-131038500D01*
X92996400Y-130095100D02*
X93517200Y-130095100D01*
X92996400Y-128969800D02*
X92996400Y-130095100D01*
X92996400Y-126858500D02*
X92996400Y-128969800D01*
X94471300Y-125383600D02*
X92996400Y-126858500D01*
X94471300Y-119494500D02*
X94471300Y-125383600D01*
%TO.N,Net-(IC7-Pad1)*%
X93842300Y-111171200D02*
X93842300Y-123203900D01*
X94292600Y-110720900D02*
X93842300Y-111171200D01*
X93842300Y-123203900D02*
X92746200Y-124300000D01*
%TO.N,+3.3VP*%
X159795500Y-108717600D02*
X157249300Y-111263800D01*
X156035100Y-114276600D02*
X155502500Y-114809200D01*
D51*
X101104000Y-63387700D02*
X101104000Y-64850900D01*
D50*
X157249300Y-113314500D02*
X156287200Y-114276600D01*
X101104300Y-63388000D02*
X101104300Y-64850900D01*
X155502500Y-114809200D02*
X155502500Y-119259300D01*
X101104000Y-63387700D02*
X101104300Y-63388000D01*
X76015800Y-90888200D02*
X76015800Y-95515500D01*
X156287200Y-114276600D02*
X156035100Y-114276600D01*
X76015800Y-95515500D02*
X70584100Y-100947200D01*
D51*
X96498000Y-54101900D02*
X101104000Y-58708200D01*
D50*
X157249300Y-111263800D02*
X157249300Y-113314500D01*
D51*
X101104000Y-58708200D02*
X101104000Y-63387700D01*
D50*
%TO.N,Net-(D4-Pad1)*%
X102419000Y-145284700D02*
X101568700Y-145284700D01*
X101568700Y-145284700D02*
X94999800Y-138715800D01*
X89215600Y-137290500D02*
X90640900Y-137290500D01*
X94999800Y-138715800D02*
X92066200Y-138715800D01*
X92066200Y-138715800D02*
X90640900Y-137290500D01*
%TO.N,+2V5*%
X132410200Y-108940900D02*
X132410200Y-109308300D01*
X130747800Y-110116200D02*
X129515600Y-111348400D01*
X128220400Y-120929100D02*
X128220400Y-122566700D01*
X129515600Y-111348400D02*
X129515600Y-113868200D01*
X98765200Y-104461600D02*
X100501900Y-104461600D01*
X129515600Y-116628400D02*
X128570500Y-117573500D01*
X131602300Y-110116200D02*
X130747800Y-110116200D01*
X100501900Y-104461600D02*
X108715900Y-112675600D01*
X132410200Y-109308300D02*
X131602300Y-110116200D01*
X108715900Y-112675600D02*
X114673100Y-112675600D01*
X128355800Y-133038900D02*
X135158200Y-139841300D01*
X128355800Y-122702100D02*
X128355800Y-133038900D01*
X128220400Y-122566700D02*
X128355800Y-122702100D01*
X93020200Y-97908600D02*
X93020200Y-98716600D01*
X133585500Y-108940900D02*
X132410200Y-108940900D01*
X128570500Y-117573500D02*
X128570500Y-120579000D01*
X91844900Y-97908600D02*
X93020200Y-97908600D01*
X93020200Y-98716600D02*
X98765200Y-104461600D01*
X114673100Y-112675600D02*
X116145100Y-114147600D01*
X128570500Y-120579000D02*
X128220400Y-120929100D01*
X129515600Y-113868200D02*
X129515600Y-116628400D01*
D51*
%TO.N,Net-(C19-Pad1)*%
X103764000Y-95181000D02*
X103764000Y-93823900D01*
D50*
X103764500Y-95181000D02*
X103764000Y-95181000D01*
D51*
X108683000Y-91520800D02*
X108688000Y-91516000D01*
X106068000Y-91520800D02*
X108683000Y-91520800D01*
X108688000Y-91516000D02*
X108693000Y-91511200D01*
D50*
X108688000Y-91516000D02*
X108692700Y-91511300D01*
D51*
X103764000Y-93823900D02*
X106068000Y-91520800D01*
D50*
X106067600Y-90958100D02*
X106067600Y-90395500D01*
X106067600Y-90958100D02*
X106068000Y-90958500D01*
X106067600Y-91520800D02*
X106067600Y-90958100D01*
X108692700Y-91511300D02*
X108692700Y-91511200D01*
X106068000Y-90958500D02*
X106068000Y-91520800D01*
X106067600Y-90395500D02*
X105545700Y-89873600D01*
X105545700Y-89873600D02*
X105545700Y-78954500D01*
%TO.N,Net-(D2-Pad1)*%
X112768000Y-134871100D02*
X112768000Y-142905600D01*
X106014900Y-129460700D02*
X107357600Y-129460700D01*
X106014900Y-128035400D02*
X106014900Y-129460700D01*
X107357600Y-129460700D02*
X112768000Y-134871100D01*
%TO.N,Net-(IC7-Pad3)*%
X87735600Y-116658700D02*
X87735600Y-117456200D01*
X88859900Y-121908200D02*
X87593400Y-123174700D01*
X87735600Y-117456200D02*
X88859800Y-118580400D01*
X87593400Y-124300000D02*
X87593400Y-123174700D01*
X88859800Y-118580400D02*
X88859900Y-118580400D01*
X88859900Y-118580400D02*
X88859900Y-121908200D01*
%TO.N,Net-(IC7-Pad7)*%
X77234700Y-112150700D02*
X78760900Y-110624500D01*
X77234700Y-124310600D02*
X77234700Y-112150700D01*
%TO.N,GPSBat*%
X98845000Y-125639000D02*
X110765000Y-137559000D01*
X110765000Y-137559000D02*
X110765000Y-144438600D01*
X98845000Y-114336500D02*
X98845000Y-125639000D01*
X89992100Y-106293000D02*
X90800000Y-107100900D01*
X88816800Y-105925600D02*
X89992100Y-105925600D01*
X90800000Y-107100900D02*
X91609400Y-107100900D01*
X113328000Y-150096300D02*
X113634800Y-150403100D01*
X110765000Y-144438600D02*
X113328000Y-147001600D01*
X113328000Y-147001600D02*
X113328000Y-150096300D01*
X89992100Y-105925600D02*
X89992100Y-106293000D01*
X91609400Y-107100900D02*
X98845000Y-114336500D01*
%TO.N,Net-(C27-Pad1)*%
X193047800Y-106190900D02*
X200102400Y-106190900D01*
X200826300Y-106914800D02*
X200826300Y-117843800D01*
X193047800Y-105511400D02*
X192128300Y-104591900D01*
X192128300Y-109671900D02*
X193047800Y-108752400D01*
X200826300Y-117843800D02*
X203288900Y-120306400D01*
X200102400Y-106190900D02*
X200826300Y-106914800D01*
X193047800Y-106190900D02*
X193047800Y-105511400D01*
X193047800Y-108752400D02*
X193047800Y-106190900D01*
%TO.N,Net-(C28-Pad1)*%
X197856800Y-110654100D02*
X197856800Y-108772100D01*
X197856800Y-108772100D02*
X199497000Y-107131900D01*
X185902000Y-123934200D02*
X185902000Y-122608900D01*
X185902000Y-122608900D02*
X197856800Y-110654100D01*
X199497000Y-107131900D02*
X199748300Y-107131900D01*
%TO.N,Net-(C30-Pad1)*%
X234282700Y-61210200D02*
X235375600Y-62303100D01*
X235375600Y-64198400D02*
X234553800Y-65020200D01*
X212668600Y-77637200D02*
X212668600Y-78427400D01*
X212668600Y-78427400D02*
X192128300Y-98967700D01*
X235375600Y-62303100D02*
X235375600Y-64198400D01*
X198482100Y-109031100D02*
X198482100Y-122091000D01*
X198482100Y-122091000D02*
X197993900Y-122579200D01*
X192128300Y-98967700D02*
X192128300Y-102051900D01*
X234553800Y-65020200D02*
X225285600Y-65020200D01*
X225285600Y-65020200D02*
X212668600Y-77637200D01*
X197993900Y-123904500D02*
X197993900Y-122579200D01*
%TO.N,Net-(C31-Pad1)*%
X233763300Y-89774800D02*
X233763300Y-89774700D01*
X231241000Y-89774800D02*
X233763300Y-89774800D01*
X230295400Y-90720400D02*
X231241000Y-89774800D01*
%TO.N,Net-(C32-Pad1)*%
X216572300Y-89634000D02*
X216572300Y-92312400D01*
X222538900Y-89478600D02*
X221589400Y-88529100D01*
X217677200Y-88529100D02*
X216572300Y-89634000D01*
X221589400Y-88529100D02*
X217677200Y-88529100D01*
X213364300Y-96645700D02*
X213364300Y-95520400D01*
X216572300Y-92312400D02*
X213364300Y-95520400D01*
%TO.N,Net-(D5-Pad1)*%
X95121800Y-132497900D02*
X89215600Y-132497900D01*
X102576400Y-139102200D02*
X101726100Y-139102200D01*
X101726100Y-139102200D02*
X95121800Y-132497900D01*
%TO.N,Net-(D5-Pad2)*%
X73638400Y-109764700D02*
X73544300Y-109858800D01*
X73544300Y-126070700D02*
X75886000Y-128412400D01*
X73544300Y-109858800D02*
X73544300Y-126070700D01*
X75886000Y-128412400D02*
X75886000Y-131503200D01*
%TO.N,Net-(IC7-Pad5)*%
X82140900Y-122928000D02*
X82387600Y-123174700D01*
X82140900Y-112412800D02*
X82140900Y-122928000D01*
X83832800Y-110720900D02*
X82140900Y-112412800D01*
X82387600Y-124300000D02*
X82387600Y-123174700D01*
%TO.N,Net-(IC14-Pad1)*%
X225055100Y-83302700D02*
X225055100Y-84428000D01*
X225055100Y-84428000D02*
X224611300Y-84871800D01*
X227755400Y-90720400D02*
X227755400Y-89543700D01*
X224611300Y-84871800D02*
X224611300Y-86399600D01*
X227755400Y-89543700D02*
X224611300Y-86399600D01*
%TO.N,IN3TTL*%
X87700400Y-127844500D02*
X86409500Y-126553600D01*
X88054200Y-120765000D02*
X83315600Y-120765000D01*
X86409500Y-126553600D02*
X86409500Y-123653600D01*
X86409500Y-123653600D02*
X88409600Y-121653500D01*
X83315600Y-120765000D02*
X82813900Y-121266700D01*
X87700400Y-128969800D02*
X87700400Y-127844500D01*
X88409600Y-121653500D02*
X88409600Y-121120400D01*
X88409600Y-121120400D02*
X88054200Y-120765000D01*
%TO.N,IN2TTL*%
X131616200Y-117075400D02*
X130371700Y-118319900D01*
X139613300Y-108727100D02*
X131616200Y-116724200D01*
X83546000Y-124191700D02*
X86340400Y-121397300D01*
X82420700Y-127836000D02*
X83546000Y-126710700D01*
X83546000Y-126710700D02*
X83546000Y-124191700D01*
X130371700Y-121572800D02*
X130196600Y-121747900D01*
X131616200Y-116724200D02*
X131616200Y-117075400D01*
X130371700Y-118319900D02*
X130371700Y-121572800D01*
X87757400Y-121397300D02*
X87757400Y-121397200D01*
X82420700Y-128961300D02*
X82420700Y-127836000D01*
X86340400Y-121397300D02*
X87757400Y-121397300D01*
X139613300Y-102441000D02*
X139613300Y-108727100D01*
X139921100Y-100791900D02*
X139921100Y-102133200D01*
X139921100Y-102133200D02*
X139613300Y-102441000D01*
%TO.N,IN1TTL*%
X132066500Y-117520000D02*
X130822000Y-118764500D01*
X132066500Y-116910800D02*
X132066500Y-117520000D01*
X130822000Y-118764500D02*
X130822000Y-124383800D01*
X130358500Y-124847300D02*
X130358500Y-127521300D01*
X142461100Y-100791900D02*
X142461100Y-106516200D01*
X130822000Y-124383800D02*
X130358500Y-124847300D01*
X142461100Y-106516200D02*
X132066500Y-116910800D01*
%TO.N,/A1*%
X167125300Y-132273900D02*
X167125300Y-145678100D01*
X166109800Y-131258400D02*
X167125300Y-132273900D01*
X167125300Y-145678100D02*
X168519800Y-147072600D01*
%TO.N,RPMEN*%
X204610100Y-101059500D02*
X203769900Y-101059500D01*
X211128800Y-83214400D02*
X211128800Y-84289700D01*
X211008300Y-84410200D02*
X211008300Y-86240900D01*
X211008300Y-86240900D02*
X206280400Y-90968800D01*
X202576800Y-102252600D02*
X202576800Y-116921900D01*
X206280400Y-99389200D02*
X204610100Y-101059500D01*
X206280400Y-90968800D02*
X206280400Y-99389200D01*
X211128800Y-84289700D02*
X211008300Y-84410200D01*
X203769900Y-101059500D02*
X202576800Y-102252600D01*
X202576800Y-116921900D02*
X204995600Y-119340700D01*
X204995600Y-119340700D02*
X204995600Y-124828700D01*
%TO.N,Sense2-1*%
X112584500Y-131884500D02*
X112584500Y-129416000D01*
X132295800Y-122698200D02*
X131891400Y-122293800D01*
X156716100Y-95012100D02*
X154636300Y-97091900D01*
X159298500Y-75385400D02*
X159298500Y-89770600D01*
X117825100Y-124054100D02*
X118138400Y-124367400D01*
X131891400Y-122293800D02*
X131891400Y-121527000D01*
X131891400Y-121527000D02*
X131918000Y-121500400D01*
X163322600Y-70530800D02*
X163322600Y-71361300D01*
X154636300Y-97091900D02*
X154433000Y-97091900D01*
X154433000Y-97091900D02*
X134026700Y-117498200D01*
X134026700Y-121445700D02*
X132774200Y-122698200D01*
X114522700Y-127477800D02*
X114522700Y-126570000D01*
X132774200Y-122698200D02*
X132295800Y-122698200D01*
X156716100Y-92353000D02*
X156716100Y-95012100D01*
X117038600Y-124054100D02*
X117825100Y-124054100D01*
X107928300Y-138026900D02*
X108144700Y-138243300D01*
X103846400Y-138026900D02*
X107928300Y-138026900D01*
X163322600Y-71361300D02*
X159298500Y-75385400D01*
X159298500Y-89770600D02*
X156716100Y-92353000D01*
X103846400Y-139102200D02*
X103846400Y-138026900D01*
X114522700Y-126570000D02*
X117038600Y-124054100D01*
X112584500Y-129416000D02*
X114522700Y-127477800D01*
X134026700Y-117498200D02*
X134026700Y-121445700D01*
%TO.N,VoltageSensor*%
X127218200Y-139841300D02*
X134841100Y-147464200D01*
X134841100Y-147464200D02*
X134841100Y-149051900D01*
%TO.N,Net-(IC12-Pad3)*%
X124580100Y-142732600D02*
X124586900Y-142739400D01*
X124580100Y-140093400D02*
X124580100Y-142732600D01*
%TO.N,Net-(IC12-Pad5)*%
X127319800Y-120022300D02*
X127319800Y-122939900D01*
X126761900Y-105176700D02*
X127837200Y-105176700D01*
X127669900Y-111940400D02*
X127669900Y-119672200D01*
X129009200Y-138772300D02*
X135158200Y-144921300D01*
X127669900Y-119672200D02*
X127319800Y-120022300D01*
X126761900Y-107716700D02*
X127837200Y-107716700D01*
X127398900Y-133574700D02*
X129009200Y-135185000D01*
X127319800Y-122939900D02*
X127398900Y-123019000D01*
X127837200Y-105176700D02*
X127837200Y-107716700D01*
X127712400Y-110772600D02*
X127712400Y-111897900D01*
X127712400Y-111897900D02*
X127669900Y-111940400D01*
X127398900Y-123019000D02*
X127398900Y-133574700D01*
X129009200Y-135185000D02*
X129009200Y-138772300D01*
%TO.N,Net-(IC14-Pad4)*%
X236315700Y-84071500D02*
X235375400Y-85011800D01*
X230295400Y-82780400D02*
X232526800Y-85011800D01*
X233218800Y-74439200D02*
X234002300Y-75222700D01*
X235375400Y-85011800D02*
X235375400Y-90720400D01*
X236315700Y-77050000D02*
X236315700Y-84071500D01*
X233218800Y-72463200D02*
X233218800Y-74439200D01*
X232526800Y-85011800D02*
X235375400Y-85011800D01*
X234002300Y-75222700D02*
X234488400Y-75222700D01*
X234488400Y-75222700D02*
X236315700Y-77050000D01*
X234269300Y-71412700D02*
X233218800Y-72463200D01*
%TO.N,Net-(IC14-Pad6)*%
X232835400Y-82780400D02*
X231890500Y-81835500D01*
X231890500Y-81835500D02*
X218206300Y-81835500D01*
X218206300Y-81835500D02*
X215533800Y-84508000D01*
%TO.N,Sense2-4*%
X146123200Y-123359700D02*
X146123200Y-116371800D01*
X117297600Y-124679500D02*
X117297600Y-129977200D01*
X170649100Y-92711800D02*
X170649100Y-80793400D01*
X155232600Y-109198200D02*
X161511100Y-102919700D01*
X153140000Y-109198200D02*
X155232600Y-109198200D01*
X161511100Y-100123900D02*
X164629000Y-97006000D01*
X161511100Y-102919700D02*
X161511100Y-100123900D01*
X151505800Y-110832400D02*
X153140000Y-109198200D01*
X146123200Y-116371800D02*
X151505800Y-110989200D01*
X117297600Y-129977200D02*
X114841200Y-132433600D01*
X151505800Y-110989200D02*
X151505800Y-110832400D01*
X166354900Y-97006000D02*
X170649100Y-92711800D01*
X170649100Y-80793400D02*
X170595100Y-80739400D01*
X164629000Y-97006000D02*
X166354900Y-97006000D01*
%TO.N,Sense2-7*%
X169106800Y-97377400D02*
X169106800Y-101908700D01*
X152706500Y-128990800D02*
X153956200Y-130240500D01*
X152706500Y-125925400D02*
X152706500Y-128990800D01*
X164067000Y-106948500D02*
X164067000Y-114564900D01*
X164067000Y-114564900D02*
X152706500Y-125925400D01*
X172328800Y-94155400D02*
X169106800Y-97377400D01*
X118337900Y-133677700D02*
X118337900Y-142012000D01*
X169106800Y-101908700D02*
X164067000Y-106948500D01*
X172328800Y-79210900D02*
X172328800Y-94155400D01*
X118337900Y-142012000D02*
X118390500Y-142064600D01*
X119512100Y-132503500D02*
X118337900Y-133677700D01*
X173237300Y-78302400D02*
X172328800Y-79210900D01*
D52*
%TO.N,Sense2-9*%
X152969100Y-76387300D02*
X154327000Y-76387300D01*
X167928000Y-56347800D02*
X170333000Y-56347800D01*
D50*
X173237300Y-59252400D02*
X173237000Y-59252400D01*
D52*
X163543000Y-57750200D02*
X166526000Y-57750200D01*
X154327000Y-76387300D02*
X158981000Y-71733100D01*
X158981000Y-62312800D02*
X163543000Y-57750200D01*
X170333000Y-56347800D02*
X173237000Y-59252400D01*
X166526000Y-57750200D02*
X167928000Y-56347800D01*
X158981000Y-71733100D02*
X158981000Y-62312800D01*
D50*
%TO.N,Sense2-10*%
X169739000Y-85772700D02*
X167912500Y-83946200D01*
X169739000Y-89364800D02*
X169739000Y-85772700D01*
X153891100Y-100223000D02*
X160290600Y-93823500D01*
X133863700Y-133151300D02*
X131910900Y-131198500D01*
X80900100Y-141786000D02*
X79824800Y-141786000D01*
X135745300Y-122715000D02*
X135745300Y-119049100D01*
X135745300Y-119049100D02*
X135388100Y-118691900D01*
X167912500Y-83946200D02*
X167912500Y-79817200D01*
X164101500Y-92630900D02*
X166472900Y-92630900D01*
X167912500Y-79817200D02*
X169427300Y-78302400D01*
X162908900Y-93823500D02*
X164101500Y-92630900D01*
X133863700Y-135550900D02*
X133863700Y-133151300D01*
X135388100Y-117064300D02*
X149437900Y-103014500D01*
X160290600Y-93823500D02*
X162908900Y-93823500D01*
X80495900Y-146081600D02*
X79824800Y-145410500D01*
X131910900Y-131198500D02*
X131910900Y-126549400D01*
X153891100Y-101366700D02*
X153891100Y-100223000D01*
X166472900Y-92630900D02*
X169739000Y-89364800D01*
X135388100Y-118691900D02*
X135388100Y-117064300D01*
X152243300Y-103014500D02*
X153891100Y-101366700D01*
X131910900Y-126549400D02*
X135745300Y-122715000D01*
X79824800Y-145410500D02*
X79824800Y-141786000D01*
X149437900Y-103014500D02*
X152243300Y-103014500D01*
D52*
%TO.N,Sense2-12*%
X167982000Y-60697400D02*
X168704500Y-59974900D01*
X167982000Y-71925800D02*
X167982000Y-60697400D01*
D50*
X168704500Y-59974900D02*
X168704800Y-59974900D01*
X168704800Y-59974900D02*
X169427300Y-59252400D01*
D52*
X168704500Y-59974900D02*
X169427000Y-59252400D01*
D50*
%TO.N,Net-(J24-Pad1)*%
X181186800Y-92877800D02*
X187095100Y-92877800D01*
X189110800Y-90862100D02*
X189396000Y-90862100D01*
X216507900Y-63750200D02*
X234282700Y-63750200D01*
X189396000Y-90862100D02*
X216507900Y-63750200D01*
X187095100Y-92877800D02*
X189110800Y-90862100D01*
%TO.N,Sense1-1*%
X188544900Y-89802500D02*
X189181800Y-89802500D01*
X178587000Y-97447500D02*
X179504200Y-96530300D01*
X179504200Y-96530300D02*
X179504200Y-91728000D01*
X178587000Y-99305900D02*
X178587000Y-97447500D01*
X164517300Y-114991100D02*
X164517300Y-111232200D01*
X196101600Y-82882700D02*
X196101600Y-78302400D01*
X187967700Y-90379700D02*
X188544900Y-89802500D01*
X153341700Y-127242800D02*
X153341700Y-126166700D01*
X164517300Y-111232200D02*
X170927100Y-104822400D01*
X180852500Y-90379700D02*
X187967700Y-90379700D01*
X189181800Y-89802500D02*
X196101600Y-82882700D01*
X153341700Y-126166700D02*
X164517300Y-114991100D01*
X179504200Y-91728000D02*
X180852500Y-90379700D01*
%TO.N,Sense1-3*%
X179212300Y-106384000D02*
X179212300Y-98556400D01*
X180880200Y-90988900D02*
X188258900Y-90988900D01*
X188258900Y-90988900D02*
X188836000Y-90411800D01*
X167486500Y-115999600D02*
X176344200Y-107141900D01*
X115792700Y-126844700D02*
X113968000Y-128669400D01*
X188836000Y-90411800D02*
X189209400Y-90411800D01*
X154641600Y-131590700D02*
X166420941Y-119811359D01*
X189209400Y-90411800D02*
X199166600Y-80454600D01*
X166404948Y-116783171D02*
X166404948Y-119795366D01*
X113968000Y-128669400D02*
X113968000Y-130628100D01*
X167486500Y-115999600D02*
X167188519Y-115999600D01*
X180010900Y-97757800D02*
X180010900Y-91858200D01*
X199166600Y-62317400D02*
X196101600Y-59252400D01*
X179212300Y-98556400D02*
X180010900Y-97757800D01*
X178454400Y-107141900D02*
X179212300Y-106384000D01*
X166404948Y-119795366D02*
X166420941Y-119811359D01*
X176344200Y-107141900D02*
X178454400Y-107141900D01*
X153939100Y-131590700D02*
X154641600Y-131590700D01*
X167188519Y-115999600D02*
X166404948Y-116783171D01*
X199166600Y-80454600D02*
X199166600Y-62317400D01*
X152618900Y-130270500D02*
X153939100Y-131590700D01*
X180010900Y-91858200D02*
X180880200Y-90988900D01*
%TO.N,Sense1-4*%
X180665900Y-89929400D02*
X179053900Y-91541400D01*
X193300500Y-79311300D02*
X193300500Y-85046900D01*
X179053900Y-91541400D02*
X179053900Y-96343700D01*
X176704200Y-105672400D02*
X165533300Y-116843300D01*
X188358600Y-89351900D02*
X187781100Y-89929400D01*
X165533300Y-116843300D02*
X165533300Y-119811500D01*
X176704200Y-98693400D02*
X176704200Y-105672400D01*
X193300500Y-85046900D02*
X188995500Y-89351900D01*
X179053900Y-96343700D02*
X176704200Y-98693400D01*
X165533300Y-119811500D02*
X154394500Y-130950300D01*
X192291600Y-78302400D02*
X193300500Y-79311300D01*
X188995500Y-89351900D02*
X188358600Y-89351900D01*
X187781100Y-89929400D02*
X180665900Y-89929400D01*
%TO.N,Sense1-7*%
X132563900Y-110121500D02*
X132220900Y-110464500D01*
X130715600Y-116351000D02*
X130715600Y-116702200D01*
X129256400Y-122328900D02*
X129256400Y-130808600D01*
X141191100Y-98784300D02*
X141191100Y-106901700D01*
X186911000Y-88578500D02*
X186911000Y-79873000D01*
X132220900Y-110464500D02*
X132220900Y-114845700D01*
X142133700Y-97841700D02*
X141191100Y-98784300D01*
X186911000Y-79873000D02*
X188481600Y-78302400D01*
X132220900Y-114845700D02*
X130715600Y-116351000D01*
X129121000Y-122193500D02*
X129256400Y-122328900D01*
X130715600Y-116702200D02*
X129471100Y-117946700D01*
X129471100Y-117946700D02*
X129471100Y-120952200D01*
X129256400Y-130808600D02*
X129698700Y-131250900D01*
X129121000Y-121302300D02*
X129121000Y-122193500D01*
X129471100Y-120952200D02*
X129121000Y-121302300D01*
X141191100Y-106901700D02*
X140238600Y-107854200D01*
%TO.N,Sense1-10*%
X146190100Y-103424100D02*
X132516800Y-117097400D01*
X184671600Y-85941900D02*
X182983300Y-87630200D01*
X180461600Y-87630200D02*
X170074000Y-98017800D01*
X131272300Y-118951100D02*
X131272300Y-124361600D01*
X132516800Y-117706600D02*
X131272300Y-118951100D01*
X184671600Y-78302400D02*
X184671600Y-85941900D01*
X182983300Y-87630200D02*
X180461600Y-87630200D01*
X146190100Y-99727400D02*
X146190100Y-103424100D01*
X146135200Y-99672500D02*
X146190100Y-99727400D01*
X131272300Y-124361600D02*
X131917700Y-125007000D01*
X132516800Y-117097400D02*
X132516800Y-117706600D01*
%TO.N,Sense1-11*%
X174620200Y-74651600D02*
X171221600Y-78050200D01*
X171221600Y-92776200D02*
X164051100Y-99946700D01*
X164051100Y-99946700D02*
X164051100Y-103577600D01*
X182077400Y-69068900D02*
X180824400Y-70321900D01*
X164051100Y-103577600D02*
X155987700Y-111641000D01*
X155987700Y-111641000D02*
X155987700Y-113651200D01*
X180824400Y-70321900D02*
X180824400Y-70481100D01*
X184958100Y-69068900D02*
X182077400Y-69068900D01*
X176653900Y-74651600D02*
X174620200Y-74651600D01*
X171221600Y-78050200D02*
X171221600Y-92776200D01*
X180824400Y-70481100D02*
X176653900Y-74651600D01*
X186571600Y-70682400D02*
X184958100Y-69068900D01*
%TO.N,SDDetect*%
X223808900Y-89127000D02*
X222407100Y-87725200D01*
X226581200Y-92735400D02*
X223808900Y-89963100D01*
X223808900Y-89963100D02*
X223808900Y-89127000D01*
X226581200Y-93910700D02*
X226581200Y-92735400D01*
X219806800Y-87725200D02*
X219237200Y-87155600D01*
X218111900Y-87155600D02*
X219237200Y-87155600D01*
X222407100Y-87725200D02*
X219806800Y-87725200D01*
%TO.N,Vacuum1*%
X135526400Y-144030900D02*
X135597900Y-144030900D01*
X139921100Y-149051900D02*
X139921100Y-147710600D01*
X129459500Y-134998400D02*
X129459500Y-137964000D01*
X129459500Y-137964000D02*
X135526400Y-144030900D01*
X131045500Y-108940900D02*
X128885700Y-111100700D01*
X128120200Y-120343800D02*
X127770100Y-120693900D01*
X128885700Y-116621400D02*
X128120200Y-117386900D01*
X128885700Y-111100700D02*
X128885700Y-116621400D01*
X127905500Y-122888700D02*
X127905500Y-133444400D01*
X127770100Y-120693900D02*
X127770100Y-122753300D01*
X127905500Y-133444400D02*
X129459500Y-134998400D01*
X135597900Y-144030900D02*
X139277600Y-147710600D01*
X128120200Y-117386900D02*
X128120200Y-120343800D01*
X127770100Y-122753300D02*
X127905500Y-122888700D01*
X139277600Y-147710600D02*
X139921100Y-147710600D01*
%TO.N,Vacuum2*%
X142461100Y-149051900D02*
X141272200Y-149051900D01*
X141272200Y-147863000D02*
X141272200Y-149051900D01*
X128806100Y-122515500D02*
X128806100Y-132219300D01*
X130265300Y-113436400D02*
X130265300Y-116515600D01*
X130265300Y-116515600D02*
X129020800Y-117760100D01*
X129020800Y-120765600D02*
X128670700Y-121115700D01*
X139079900Y-142493100D02*
X139079900Y-145670700D01*
X131045500Y-112656200D02*
X130265300Y-113436400D01*
X128670700Y-122380100D02*
X128806100Y-122515500D01*
X131045500Y-111480900D02*
X131045500Y-112656200D01*
X129020800Y-117760100D02*
X129020800Y-120765600D01*
X139079900Y-145670700D02*
X141272200Y-147863000D01*
X128670700Y-121115700D02*
X128670700Y-122380100D01*
X128806100Y-132219300D02*
X139079900Y-142493100D01*
%TO.N,/A10*%
X156652100Y-145076800D02*
X151320900Y-139745600D01*
X161592200Y-149051900D02*
X161592200Y-148531800D01*
X162781100Y-149051900D02*
X161592200Y-149051900D01*
X158137200Y-145076800D02*
X156652100Y-145076800D01*
X150145600Y-139745600D02*
X151320900Y-139745600D01*
X161592200Y-148531800D02*
X158137200Y-145076800D01*
%TO.N,OUTPUTLED2*%
X180932700Y-130083000D02*
X181750000Y-129265700D01*
X186360200Y-106907900D02*
X185591800Y-106139500D01*
X184744600Y-106139500D02*
X183307500Y-104702400D01*
X186360200Y-107894000D02*
X186360200Y-106907900D01*
X183307500Y-104702400D02*
X183307500Y-93517400D01*
X185591800Y-106139500D02*
X184744600Y-106139500D01*
X185574700Y-108679500D02*
X186360200Y-107894000D01*
X181750000Y-111597800D02*
X184668300Y-108679500D01*
X180561100Y-130083000D02*
X180932700Y-130083000D01*
X180561100Y-131271900D02*
X180561100Y-130083000D01*
X181750000Y-129265700D02*
X181750000Y-111597800D01*
X184668300Y-108679500D02*
X185574700Y-108679500D01*
%TO.N,OUTPUTLED1*%
X162160100Y-87110500D02*
X162160100Y-84718700D01*
X184742200Y-103599500D02*
X185531000Y-103599500D01*
X183952500Y-102809800D02*
X184742200Y-103599500D01*
X186840800Y-104909300D02*
X186840800Y-115073300D01*
X186840800Y-115073300D02*
X183850100Y-118064000D01*
X183850100Y-118064000D02*
X183850100Y-128131900D01*
X186835800Y-93381100D02*
X183952500Y-96264400D01*
X187490200Y-93381100D02*
X186835800Y-93381100D01*
X183952500Y-96264400D02*
X183952500Y-102809800D01*
X185531000Y-103599500D02*
X186840800Y-104909300D01*
X163398800Y-88349200D02*
X162160100Y-87110500D01*
%TO.N,Net-(Q7-Pad3)*%
X146504100Y-51132300D02*
X146504100Y-53629700D01*
X146841600Y-53967200D02*
X146841600Y-55547700D01*
X132829700Y-51033300D02*
X133543500Y-50319500D01*
X133543500Y-50319500D02*
X145691300Y-50319500D01*
X145691300Y-50319500D02*
X146504100Y-51132300D01*
X145368100Y-57021200D02*
X145368100Y-63328600D01*
X146841600Y-55547700D02*
X145368100Y-57021200D01*
X146504100Y-53629700D02*
X146841600Y-53967200D01*
X131979400Y-51033300D02*
X132829700Y-51033300D01*
%TO.N,OUTPUTSiren*%
X176759400Y-87990300D02*
X175894500Y-87125400D01*
X175894500Y-87125400D02*
X175894500Y-84413200D01*
%TO.N,Net-(Q10-Pad1)*%
X174392200Y-60280600D02*
X174392200Y-55589900D01*
X169463900Y-72368100D02*
X169463900Y-65208900D01*
X174392200Y-55589900D02*
X167229300Y-48427000D01*
X166497800Y-83480000D02*
X166497800Y-75334200D01*
X166497800Y-75334200D02*
X169463900Y-72368100D01*
X169463900Y-65208900D02*
X174392200Y-60280600D01*
%TO.N,OUTPUT4*%
X142096800Y-93759800D02*
X141271700Y-92934700D01*
X141271700Y-92934700D02*
X141271700Y-90159900D01*
%TO.N,OUTPUT3*%
X142435400Y-69333500D02*
X141531800Y-68429900D01*
X138950400Y-83477000D02*
X138950400Y-80574600D01*
X132301100Y-100791900D02*
X133646500Y-102137300D01*
X133646500Y-102137300D02*
X137875400Y-102137300D01*
X138950400Y-80574600D02*
X142435400Y-77089600D01*
X142435400Y-77089600D02*
X142435400Y-69333500D01*
X137875400Y-102137300D02*
X138596200Y-101416500D01*
X138596200Y-99615300D02*
X138425000Y-99444100D01*
X141531800Y-68429900D02*
X141531800Y-64541200D01*
X138596200Y-101416500D02*
X138596200Y-99615300D01*
X138425000Y-99444100D02*
X138425000Y-84002400D01*
X138425000Y-84002400D02*
X138950400Y-83477000D01*
%TO.N,Net-(Q11-Pad3)*%
X143652100Y-74584400D02*
X147070200Y-78002500D01*
X143652100Y-64541200D02*
X143652100Y-74584400D01*
X147351500Y-79127800D02*
X147351500Y-78002500D01*
X142801800Y-64541200D02*
X143652100Y-64541200D01*
X147070200Y-78002500D02*
X147351500Y-78002500D01*
%TO.N,OUTPUT2*%
X131021600Y-84982500D02*
X131021600Y-55260300D01*
X131021600Y-55260300D02*
X131603800Y-54678100D01*
X133652200Y-100791900D02*
X133652200Y-87613100D01*
X133652200Y-87613100D02*
X131021600Y-84982500D01*
X134841100Y-100791900D02*
X133652200Y-100791900D01*
%TO.N,Net-(Q13-Pad1)*%
X147351500Y-74910800D02*
X150151700Y-72110600D01*
X147351500Y-76587800D02*
X147351500Y-74910800D01*
X150151700Y-72110600D02*
X150010900Y-71969800D01*
X150010900Y-71969800D02*
X150010900Y-69262600D01*
%TO.N,Net-(Q14-Pad1)*%
X163455500Y-90380200D02*
X164532400Y-89303300D01*
X164532400Y-70339300D02*
X162856400Y-68663300D01*
X162856400Y-67378000D02*
X162856400Y-68663300D01*
X163455500Y-91505500D02*
X163455500Y-90380200D01*
X164532400Y-89303300D02*
X164532400Y-70339300D01*
%TO.N,OUTPUT1*%
X141143800Y-57709500D02*
X140549100Y-57709500D01*
X138500000Y-83290500D02*
X137381100Y-84409400D01*
X140549100Y-57709500D02*
X138500000Y-59758600D01*
X137381100Y-84409400D02*
X137381100Y-100791900D01*
X138500000Y-59758600D02*
X138500000Y-83290500D01*
X139572400Y-56732800D02*
X140549100Y-57709500D01*
X139572400Y-54077800D02*
X139572400Y-56732800D01*
%TO.N,Net-(Q16-Pad3)*%
X180056900Y-84413200D02*
X177164500Y-84413200D01*
X181610100Y-86247700D02*
X181610100Y-85966400D01*
X182735400Y-86247700D02*
X181610100Y-86247700D01*
X181610100Y-85966400D02*
X180056900Y-84413200D01*
%TO.N,Net-(Q17-Pad1)*%
X150512400Y-84225100D02*
X150100400Y-84637100D01*
X147711900Y-87025600D02*
X150100400Y-84637100D01*
X150512400Y-84225100D02*
X151683800Y-85396500D01*
X149861700Y-82915000D02*
X150512400Y-83565700D01*
X149861700Y-81789700D02*
X149861700Y-82915000D01*
X150512400Y-83565700D02*
X150512400Y-84225100D01*
X152969100Y-85396500D02*
X151683800Y-85396500D01*
X147711900Y-87463200D02*
X147711900Y-87025600D01*
%TO.N,Net-(Q19-Pad3)*%
X140842400Y-54077800D02*
X141692700Y-54077800D01*
X144108800Y-51661700D02*
X144108800Y-51494800D01*
X141692700Y-54077800D02*
X144108800Y-51661700D01*
X145234100Y-51494800D02*
X144108800Y-51494800D01*
%TO.N,Net-(Q20-Pad1)*%
X150123800Y-49145100D02*
X150123800Y-48453400D01*
X147774100Y-51494800D02*
X150123800Y-49145100D01*
X148224100Y-54609900D02*
X148224100Y-51944800D01*
X148224100Y-51944800D02*
X147774100Y-51494800D01*
%TO.N,SpareBufferedADC*%
X169212200Y-148560500D02*
X169212200Y-149051900D01*
X138676800Y-118780600D02*
X138676800Y-119061900D01*
X162045300Y-141482400D02*
X168260800Y-147697900D01*
X170401100Y-149051900D02*
X169212200Y-149051900D01*
X162045300Y-140618100D02*
X162045300Y-141482400D01*
X139239500Y-119061900D02*
X138676800Y-119061900D01*
X136035800Y-117361600D02*
X137257800Y-117361600D01*
X139802100Y-119061900D02*
X140927400Y-119061900D01*
X140927400Y-119500200D02*
X162045300Y-140618100D01*
X139239500Y-119061900D02*
X139802100Y-119061900D01*
X137257800Y-117361600D02*
X138676800Y-118780600D01*
X168260800Y-147697900D02*
X168349600Y-147697900D01*
X168349600Y-147697900D02*
X169212200Y-148560500D01*
X140927400Y-119061900D02*
X140927400Y-119500200D01*
%TO.N,Sense1-6*%
X161364800Y-72456900D02*
X157088000Y-76733700D01*
X157088000Y-76733700D02*
X157088000Y-90528400D01*
X157088000Y-90528400D02*
X153663700Y-93952700D01*
X161364800Y-61966600D02*
X161364800Y-72456900D01*
X153663700Y-93952700D02*
X153663700Y-97224300D01*
X164367000Y-61921400D02*
X163458200Y-61012600D01*
X162318800Y-61012600D02*
X161364800Y-61966600D01*
X133417500Y-121149200D02*
X132526600Y-122040100D01*
X133417500Y-117470500D02*
X133417500Y-121149200D01*
X164367000Y-63109900D02*
X164367000Y-61921400D01*
X153663700Y-97224300D02*
X133417500Y-117470500D01*
X163458200Y-61012600D02*
X162318800Y-61012600D01*
%TO.N,+VSW*%
X117309600Y-104973700D02*
X117216600Y-104973700D01*
X113074300Y-81117400D02*
X113074000Y-81117100D01*
X109895700Y-84296000D02*
X113074300Y-81117400D01*
X122170100Y-109834200D02*
X117309600Y-104973700D01*
D51*
X113074000Y-80554800D02*
X115811000Y-77818100D01*
D50*
X117216600Y-104973700D02*
X114348100Y-102105200D01*
D51*
X115811000Y-77818100D02*
X115811000Y-75003600D01*
D50*
X118841800Y-130003500D02*
X118841800Y-114985600D01*
X122170100Y-111657300D02*
X122170100Y-109834200D01*
X114348100Y-100264200D02*
X109895700Y-95811800D01*
X113074000Y-81117100D02*
X113074000Y-80554800D01*
X113074300Y-80554800D02*
X113074300Y-81117400D01*
X120912200Y-132073900D02*
X118841800Y-130003500D01*
X118841800Y-114985600D02*
X122170100Y-111657300D01*
X109895700Y-95811800D02*
X109895700Y-84296000D01*
X114348100Y-102105200D02*
X114348100Y-100264200D01*
%TO.N,PowerOn*%
X83410300Y-58048200D02*
X83410300Y-72450500D01*
X83410300Y-72450500D02*
X80916200Y-74944600D01*
X80916200Y-78013500D02*
X80706300Y-78223400D01*
X80706300Y-79648700D02*
X80706300Y-78223400D01*
X81105200Y-55743100D02*
X83410300Y-58048200D01*
X80916200Y-74944600D02*
X80916200Y-78013500D01*
%TO.N,Net-(Q21-Pad1)*%
X79280500Y-72188200D02*
X79280500Y-73313500D01*
X80115900Y-81076600D02*
X81707900Y-81076600D01*
X78505200Y-74088800D02*
X78505200Y-79465900D01*
X87179600Y-82669100D02*
X83647500Y-79137000D01*
X78505200Y-79465900D02*
X80115900Y-81076600D01*
X88471600Y-82669100D02*
X87179600Y-82669100D01*
X79280500Y-73313500D02*
X78505200Y-74088800D01*
X81707900Y-81076600D02*
X83647500Y-79137000D01*
%TO.N,Net-(Q5-Pad3)*%
X82270500Y-69077500D02*
X81145200Y-69077500D01*
X79609400Y-70202800D02*
X78050800Y-71761400D01*
X78050800Y-71761400D02*
X78050800Y-79654700D01*
X81145200Y-69077500D02*
X81145200Y-69358900D01*
X78050800Y-79654700D02*
X85704600Y-87308500D01*
X85704600Y-87308500D02*
X87981600Y-87308500D01*
X80301300Y-70202800D02*
X79609400Y-70202800D01*
X81145200Y-69358900D02*
X80301300Y-70202800D01*
%TO.N,Net-(Q22-Pad1)*%
X70590200Y-94499400D02*
X72843900Y-92245700D01*
X70584100Y-94499400D02*
X70590200Y-94499400D01*
X72843900Y-92245700D02*
X72843900Y-89526600D01*
X70584100Y-95867200D02*
X70584100Y-94499400D01*
%TO.N,Sense1-12*%
X154710700Y-90552800D02*
X149142900Y-96120600D01*
X160739500Y-71572500D02*
X154710700Y-77601300D01*
X184671600Y-59252400D02*
X175001400Y-68922600D01*
X154710700Y-77601300D02*
X154710700Y-90552800D01*
X132967100Y-117284000D02*
X132967100Y-118447000D01*
X132967100Y-118447000D02*
X132286000Y-119128100D01*
X149142900Y-101108200D02*
X132967100Y-117284000D01*
X175001400Y-68922600D02*
X171268700Y-68922600D01*
X149142900Y-96120600D02*
X149142900Y-101108200D01*
X160739500Y-68922600D02*
X160739500Y-71572500D01*
%TO.N,Sense1-8*%
X160736900Y-95851900D02*
X166872100Y-95851900D01*
X156431100Y-101970300D02*
X156431100Y-100157700D01*
X149956900Y-109342800D02*
X150633600Y-109342800D01*
X151682300Y-108294100D02*
X151682300Y-106719100D01*
X143556000Y-115743700D02*
X149956900Y-109342800D01*
X156431100Y-100157700D02*
X160736900Y-95851900D01*
X151682300Y-106719100D02*
X156431100Y-101970300D01*
X109607000Y-113863700D02*
X110628100Y-113863700D01*
X166872100Y-95851900D02*
X170189900Y-92534100D01*
X143556000Y-117810600D02*
X143556000Y-115743700D01*
X170189900Y-81928000D02*
X170012200Y-81750300D01*
X110628100Y-113863700D02*
X113803100Y-117038700D01*
X150633600Y-109342800D02*
X151682300Y-108294100D01*
X170189900Y-92534100D02*
X170189900Y-81928000D01*
%TO.N,/BufferedADC/ADCIN4*%
X135106300Y-119500100D02*
X135106300Y-122702800D01*
X135106300Y-122702800D02*
X131216000Y-126593100D01*
%TO.N,Sense2-2*%
X189834100Y-77759200D02*
X182757300Y-70682400D01*
X189834100Y-84663800D02*
X189834100Y-77759200D01*
%TO.N,RTDSCLK*%
X184030300Y-140667600D02*
X180984600Y-137621900D01*
X204215900Y-104869500D02*
X204215900Y-103694200D01*
X180984600Y-137621900D02*
X179346600Y-137621900D01*
X204215900Y-104869500D02*
X204215900Y-106044800D01*
X203040600Y-106852700D02*
X203848500Y-106044800D01*
X205458000Y-125250700D02*
X205667000Y-125041700D01*
X179346600Y-137621900D02*
X179151600Y-137426900D01*
X205667000Y-119370800D02*
X203040600Y-116744400D01*
X207181000Y-101096400D02*
X207181000Y-90952600D01*
X185205600Y-140961400D02*
X184030300Y-140961400D01*
X204215900Y-103694200D02*
X204583200Y-103694200D01*
X204583200Y-103694200D02*
X207181000Y-101096400D01*
X203848500Y-106044800D02*
X204215900Y-106044800D01*
X203040600Y-116744400D02*
X203040600Y-106852700D01*
X207181000Y-90952600D02*
X213482500Y-84651100D01*
X213482500Y-79662800D02*
X213938600Y-79206700D01*
X205458000Y-138959300D02*
X205458000Y-125250700D01*
X213482500Y-84651100D02*
X213482500Y-79662800D01*
X204282700Y-139786100D02*
X204631200Y-139786100D01*
X205667000Y-125041700D02*
X205667000Y-119370800D01*
X204282700Y-140961400D02*
X204282700Y-139786100D01*
X204631200Y-139786100D02*
X205458000Y-138959300D01*
X184030300Y-140961400D02*
X184030300Y-140667600D01*
X213938600Y-78031400D02*
X213938600Y-79206700D01*
%TO.N,RTDMISO*%
X183963500Y-107409500D02*
X181610100Y-109762900D01*
X209518800Y-108963200D02*
X209921400Y-109365800D01*
X209518800Y-107409500D02*
X209518800Y-89251700D01*
X177681000Y-112140900D02*
X165484500Y-124337400D01*
X216478600Y-78031400D02*
X216478600Y-79206700D01*
X225222200Y-124087800D02*
X224046900Y-124087800D01*
X209921400Y-109365800D02*
X210097700Y-109365800D01*
X165855300Y-131888100D02*
X165855300Y-141069100D01*
X204215900Y-107409500D02*
X205391200Y-107409500D01*
X210097700Y-109365800D02*
X224046900Y-123315000D01*
X180012100Y-109762900D02*
X179372100Y-110402900D01*
X165855200Y-131888100D02*
X165855300Y-131888100D01*
X209518800Y-89251700D02*
X213932800Y-84837700D01*
X179372100Y-110402900D02*
X179372100Y-111304200D01*
X165484500Y-131517400D02*
X165855200Y-131888100D01*
X181610100Y-109762900D02*
X180012100Y-109762900D01*
X205391200Y-107409500D02*
X209518800Y-107409500D01*
X213932800Y-84837700D02*
X213932800Y-81752500D01*
X179372100Y-111304200D02*
X178535400Y-112140900D01*
X224046900Y-123315000D02*
X224046900Y-124087800D01*
X213932800Y-81752500D02*
X216478600Y-79206700D01*
X185138800Y-107409500D02*
X183963500Y-107409500D01*
X165484500Y-124337400D02*
X165484500Y-131517400D01*
X209518800Y-107409500D02*
X209518800Y-108963200D01*
X178535400Y-112140900D02*
X177681000Y-112140900D01*
%TO.N,RTDMOSI*%
X230344300Y-127832600D02*
X206117300Y-127832600D01*
X205908300Y-128041600D02*
X205908300Y-143607900D01*
X210180500Y-90416100D02*
X214383200Y-86213400D01*
X214383200Y-86213400D02*
X214383200Y-83842100D01*
X205908300Y-143607900D02*
X204650100Y-144866100D01*
X230239500Y-125263100D02*
X231063100Y-126086700D01*
X206117300Y-112658900D02*
X204583200Y-111124800D01*
X204583200Y-111124800D02*
X204215900Y-111124800D01*
X229872200Y-124087800D02*
X229872200Y-125263100D01*
X229872200Y-125263100D02*
X230239500Y-125263100D01*
X231063100Y-127113800D02*
X230344300Y-127832600D01*
X219018600Y-78031400D02*
X219018600Y-79206700D01*
X214383200Y-83842100D02*
X219018600Y-79206700D01*
X204650100Y-144866100D02*
X204282700Y-144866100D01*
X210180500Y-108740500D02*
X210180500Y-90416100D01*
X231063100Y-126086700D02*
X231063100Y-127113800D01*
X206117300Y-127832600D02*
X206117300Y-112658900D01*
X204282700Y-146041400D02*
X204282700Y-144866100D01*
X204215900Y-109949500D02*
X204215900Y-111124800D01*
X206117300Y-127832600D02*
X205908300Y-128041600D01*
%TD*%
M02*
