%TF.GenerationSoftware,KiCad,Pcbnew,(6.0.0)*%
%TF.CreationDate,2022-07-17T07:01:51-07:00*%
%TF.ProjectId,AMS-Mega2560-Base,414d532d-4d65-4676-9132-3536302d4261,rev?*%
%TF.SameCoordinates,Original*%
%TF.FileFunction,Soldermask,Top*%
%TF.FilePolarity,Negative*%
%FSLAX46Y46*%
G04 Gerber Fmt 4.6, Leading zero omitted, Abs format (unit mm)*
G04 Created by KiCad (PCBNEW (6.0.0)) date 2022-07-17 07:01:51*
%MOMM*%
%LPD*%
G01*
G04 APERTURE LIST*
%ADD10R,2.085000X2.085000*%
%ADD11C,2.085000*%
%ADD12C,1.200000*%
%ADD13R,1.525000X0.650000*%
%ADD14C,1.727200*%
%ADD15O,1.727200X1.727200*%
%ADD16O,1.727200X2.032000*%
%ADD17C,4.064000*%
%ADD18C,1.650000*%
%ADD19R,1.575000X1.575000*%
%ADD20C,1.575000*%
%ADD21R,2.200000X2.200000*%
%ADD22O,2.200000X2.200000*%
%ADD23R,1.050000X1.500000*%
%ADD24O,1.050000X1.500000*%
%ADD25C,1.600000*%
%ADD26O,1.600000X1.600000*%
%ADD27R,1.920000X1.920000*%
%ADD28C,1.920000*%
%ADD29R,1.600000X1.600000*%
%ADD30R,1.700000X1.700000*%
%ADD31O,1.700000X1.700000*%
%ADD32C,2.000000*%
%ADD33O,2.000000X2.000000*%
%ADD34R,1.500000X1.050000*%
%ADD35O,1.500000X1.050000*%
%ADD36R,2.250000X2.250000*%
%ADD37C,2.250000*%
%ADD38R,0.910000X2.160000*%
%ADD39R,10.800000X10.410000*%
%ADD40R,2.600000X2.600000*%
%ADD41C,2.600000*%
%ADD42R,1.450000X2.100000*%
%ADD43R,1.150000X1.150000*%
%ADD44C,1.150000*%
%ADD45R,1.528000X0.650000*%
%ADD46C,1.440000*%
%ADD47R,1.160000X1.160000*%
%ADD48C,1.160000*%
%ADD49C,1.300000*%
%ADD50C,1.050000*%
%ADD51R,2.300000X4.500000*%
%ADD52C,2.360000*%
%ADD53R,1.130000X1.130000*%
%ADD54C,1.130000*%
G04 APERTURE END LIST*
D10*
%TO.C,Q22*%
X70584100Y-95867200D03*
D11*
X70584100Y-98407200D03*
X70584100Y-100947200D03*
%TD*%
D12*
%TO.C,K1*%
X205074100Y-84663800D03*
X202534100Y-84663800D03*
X192374100Y-84663800D03*
X189834100Y-84663800D03*
X189834100Y-92283800D03*
X192374100Y-92283800D03*
X202534100Y-92283800D03*
X205074100Y-92283800D03*
%TD*%
D13*
%TO.C,IC20*%
X128388000Y-116960100D03*
X128388000Y-118230100D03*
X128388000Y-119500100D03*
X128388000Y-120770100D03*
X128388000Y-122040100D03*
X128388000Y-123310100D03*
X128388000Y-124580100D03*
X133812000Y-124580100D03*
X133812000Y-123310100D03*
X133812000Y-122040100D03*
X133812000Y-120770100D03*
X133812000Y-119500100D03*
X133812000Y-118230100D03*
X133812000Y-116960100D03*
%TD*%
%TO.C,IC6*%
X128386900Y-126341400D03*
X128386900Y-127611400D03*
X128386900Y-128881400D03*
X128386900Y-130151400D03*
X128386900Y-131421400D03*
X128386900Y-132691400D03*
X128386900Y-133961400D03*
X133810900Y-133961400D03*
X133810900Y-132691400D03*
X133810900Y-131421400D03*
X133810900Y-130151400D03*
X133810900Y-128881400D03*
X133810900Y-127611400D03*
X133810900Y-126341400D03*
%TD*%
D14*
%TO.C,P4*%
X178021100Y-143971900D03*
D15*
X180561100Y-143971900D03*
X178021100Y-141431900D03*
X180561100Y-141431900D03*
X178021100Y-138891900D03*
X180561100Y-138891900D03*
X178021100Y-136351900D03*
X180561100Y-136351900D03*
X178021100Y-133811900D03*
X180561100Y-133811900D03*
X178021100Y-131271900D03*
X180561100Y-131271900D03*
X178021100Y-128731900D03*
X180561100Y-128731900D03*
X178021100Y-126191900D03*
X180561100Y-126191900D03*
X178021100Y-123651900D03*
X180561100Y-123651900D03*
X178021100Y-121111900D03*
X180561100Y-121111900D03*
X178021100Y-118571900D03*
X180561100Y-118571900D03*
X178021100Y-116031900D03*
X180561100Y-116031900D03*
X178021100Y-113491900D03*
X180561100Y-113491900D03*
X178021100Y-110951900D03*
X180561100Y-110951900D03*
X178021100Y-108411900D03*
X180561100Y-108411900D03*
X178021100Y-105871900D03*
X180561100Y-105871900D03*
X178021100Y-103331900D03*
X180561100Y-103331900D03*
X178021100Y-100791900D03*
X180561100Y-100791900D03*
%TD*%
D16*
%TO.C,P1*%
X111981100Y-149051900D03*
X114521100Y-149051900D03*
X117061100Y-149051900D03*
X119601100Y-149051900D03*
X122141100Y-149051900D03*
X124681100Y-149051900D03*
X127221100Y-149051900D03*
X129761100Y-149051900D03*
%TD*%
%TO.C,P2*%
X134841100Y-149051900D03*
X137381100Y-149051900D03*
X139921100Y-149051900D03*
X142461100Y-149051900D03*
X145001100Y-149051900D03*
X147541100Y-149051900D03*
X150081100Y-149051900D03*
X152621100Y-149051900D03*
%TD*%
%TO.C,P3*%
X157701100Y-149051900D03*
X160241100Y-149051900D03*
X162781100Y-149051900D03*
X165321100Y-149051900D03*
X167861100Y-149051900D03*
X170401100Y-149051900D03*
X172941100Y-149051900D03*
X175481100Y-149051900D03*
%TD*%
%TO.C,P5*%
X102837100Y-100791900D03*
X105377100Y-100791900D03*
X107917100Y-100791900D03*
X110457100Y-100791900D03*
X112997100Y-100791900D03*
X115537100Y-100791900D03*
X118077100Y-100791900D03*
X120617100Y-100791900D03*
X123157100Y-100791900D03*
X125697100Y-100791900D03*
%TD*%
%TO.C,P6*%
X129761100Y-100791900D03*
X132301100Y-100791900D03*
X134841100Y-100791900D03*
X137381100Y-100791900D03*
X139921100Y-100791900D03*
X142461100Y-100791900D03*
X145001100Y-100791900D03*
X147541100Y-100791900D03*
%TD*%
%TO.C,P7*%
X152621100Y-100791900D03*
X155161100Y-100791900D03*
X157701100Y-100791900D03*
X160241100Y-100791900D03*
X162781100Y-100791900D03*
X165321100Y-100791900D03*
X167861100Y-100791900D03*
X170401100Y-100791900D03*
%TD*%
D17*
%TO.C,P8*%
X98011100Y-149051900D03*
%TD*%
%TO.C,P9*%
X150081100Y-143971900D03*
%TD*%
%TO.C,P10*%
X180561100Y-149051900D03*
%TD*%
%TO.C,P11*%
X99281100Y-100791900D03*
%TD*%
%TO.C,P12*%
X150081100Y-116031900D03*
%TD*%
%TO.C,P13*%
X174211100Y-100791900D03*
%TD*%
D18*
%TO.C,J4*%
X196101600Y-78302400D03*
X198001600Y-70682400D03*
X196101600Y-59252400D03*
X192291600Y-78302400D03*
X194191600Y-70682400D03*
X192291600Y-59252400D03*
X188481600Y-78302400D03*
X190381600Y-70682400D03*
X188481600Y-59252400D03*
X184671600Y-78302400D03*
X186571600Y-70682400D03*
X184671600Y-59252400D03*
%TD*%
%TO.C,J5*%
X180857300Y-78302400D03*
X182757300Y-70682400D03*
X180857300Y-59252400D03*
X177047300Y-78302400D03*
X178947300Y-70682400D03*
X177047300Y-59252400D03*
X173237300Y-78302400D03*
X175137300Y-70682400D03*
X173237300Y-59252400D03*
X169427300Y-78302400D03*
X171327300Y-70682400D03*
X169427300Y-59252400D03*
%TD*%
D19*
%TO.C,D7*%
X92892200Y-85548400D03*
D20*
X92892200Y-71448400D03*
%TD*%
D21*
%TO.C,D10*%
X149922800Y-121993000D03*
D22*
X160082800Y-121993000D03*
%TD*%
D23*
%TO.C,Q8*%
X160890100Y-84718700D03*
D24*
X162160100Y-84718700D03*
X163430100Y-84718700D03*
%TD*%
D25*
%TO.C,R43*%
X168607800Y-86594000D03*
D26*
X166067800Y-86594000D03*
%TD*%
D21*
%TO.C,D1*%
X80706300Y-89808700D03*
D22*
X80706300Y-79648700D03*
%TD*%
D23*
%TO.C,Q16*%
X174624500Y-84413200D03*
D24*
X175894500Y-84413200D03*
X177164500Y-84413200D03*
%TD*%
D27*
%TO.C,Q13*%
X152969100Y-73847300D03*
D28*
X152969100Y-76387300D03*
X152969100Y-78927300D03*
%TD*%
D25*
%TO.C,R5*%
X108144700Y-138243300D03*
D26*
X108144700Y-140783300D03*
%TD*%
D25*
%TO.C,R65*%
X120056900Y-124116900D03*
D26*
X122596900Y-124116900D03*
%TD*%
D25*
%TO.C,R71*%
X172102200Y-135512100D03*
D26*
X174642200Y-135512100D03*
%TD*%
D25*
%TO.C,R56*%
X180195400Y-86247700D03*
D26*
X182735400Y-86247700D03*
%TD*%
D27*
%TO.C,Q6*%
X88471600Y-71436700D03*
D28*
X88471600Y-68896700D03*
X88471600Y-66356700D03*
%TD*%
D29*
%TO.C,C30*%
X197993900Y-123904500D03*
D25*
X202993900Y-123904500D03*
%TD*%
%TO.C,R59*%
X147774100Y-51494800D03*
D26*
X145234100Y-51494800D03*
%TD*%
D25*
%TO.C,R48*%
X147351500Y-76587800D03*
D26*
X147351500Y-79127800D03*
%TD*%
D25*
%TO.C,R64*%
X120006400Y-119516000D03*
D26*
X122546400Y-119516000D03*
%TD*%
D25*
%TO.C,R22*%
X139843100Y-77085100D03*
D26*
X137303100Y-77085100D03*
%TD*%
D25*
%TO.C,R41*%
X147061400Y-57723300D03*
D26*
X149601400Y-57723300D03*
%TD*%
D30*
%TO.C,J24*%
X181186800Y-92877800D03*
D31*
X181186800Y-95417800D03*
%TD*%
D32*
%TO.C,L2*%
X96052200Y-86102400D03*
D33*
X111292200Y-86102400D03*
%TD*%
D25*
%TO.C,R21*%
X79687400Y-66002600D03*
D26*
X79687400Y-63462600D03*
%TD*%
D25*
%TO.C,R61*%
X79730500Y-69077500D03*
D26*
X82270500Y-69077500D03*
%TD*%
D30*
%TO.C,T3*%
X185205600Y-133341400D03*
D31*
X185205600Y-135881400D03*
X185205600Y-138421400D03*
X185205600Y-140961400D03*
X185205600Y-143501400D03*
X185205600Y-146041400D03*
X185205600Y-148581400D03*
X185205600Y-151121400D03*
%TD*%
D19*
%TO.C,D8*%
X114476300Y-50716300D03*
D20*
X114476300Y-64816300D03*
%TD*%
D25*
%TO.C,R58*%
X145684100Y-54609900D03*
D26*
X148224100Y-54609900D03*
%TD*%
D23*
%TO.C,Q23*%
X70303900Y-89526600D03*
D24*
X71573900Y-89526600D03*
X72843900Y-89526600D03*
%TD*%
D34*
%TO.C,Q2*%
X80900100Y-143056000D03*
D35*
X80900100Y-141786000D03*
X80900100Y-140516000D03*
%TD*%
D36*
%TO.C,D6*%
X120888400Y-83319600D03*
D37*
X120888400Y-54719600D03*
%TD*%
D30*
%TO.C,J9*%
X110783000Y-129287000D03*
D31*
X113323000Y-129287000D03*
X115863000Y-129287000D03*
%TD*%
D34*
%TO.C,U2*%
X126761900Y-107716700D03*
D35*
X126761900Y-106446700D03*
X126761900Y-105176700D03*
%TD*%
D23*
%TO.C,Q24*%
X156465700Y-115613100D03*
D24*
X157735700Y-115613100D03*
X159005700Y-115613100D03*
%TD*%
D25*
%TO.C,L4*%
X199771300Y-98617200D03*
D26*
X189611300Y-98617200D03*
%TD*%
D23*
%TO.C,Q15*%
X140001700Y-90159900D03*
D24*
X141271700Y-90159900D03*
X142541700Y-90159900D03*
%TD*%
D38*
%TO.C,IC9*%
X126848400Y-70987100D03*
X128118400Y-70987100D03*
X129388400Y-70987100D03*
X130658400Y-70987100D03*
X131928400Y-70987100D03*
X133198400Y-70987100D03*
X134468400Y-70987100D03*
D39*
X130658400Y-62667100D03*
%TD*%
D25*
%TO.C,R31*%
X125172400Y-110772600D03*
D26*
X127712400Y-110772600D03*
%TD*%
D25*
%TO.C,R67*%
X137262100Y-122136700D03*
D26*
X139802100Y-122136700D03*
%TD*%
D25*
%TO.C,R24*%
X103527600Y-91520800D03*
D26*
X106067600Y-91520800D03*
%TD*%
D40*
%TO.C,J21*%
X91265200Y-55743100D03*
D41*
X86185200Y-55743100D03*
X81105200Y-55743100D03*
%TD*%
D30*
%TO.C,T4*%
X204282700Y-133341400D03*
D31*
X204282700Y-135881400D03*
X204282700Y-138421400D03*
X204282700Y-140961400D03*
X204282700Y-143501400D03*
X204282700Y-146041400D03*
X204282700Y-148581400D03*
X204282700Y-151121400D03*
%TD*%
D25*
%TO.C,C19*%
X103764500Y-95181000D03*
X111264500Y-95181000D03*
%TD*%
D29*
%TO.C,C14*%
X113074300Y-80554800D03*
D25*
X113074300Y-78054800D03*
%TD*%
%TO.C,R46*%
X154933700Y-95182900D03*
D26*
X152393700Y-95182900D03*
%TD*%
D25*
%TO.C,R9*%
X118390500Y-142064600D03*
D26*
X118390500Y-144604600D03*
%TD*%
D25*
%TO.C,R72*%
X166193800Y-130785400D03*
D26*
X168733800Y-130785400D03*
%TD*%
D23*
%TO.C,Q19*%
X138302400Y-54077800D03*
D24*
X139572400Y-54077800D03*
X140842400Y-54077800D03*
%TD*%
D30*
%TO.C,J6*%
X93896800Y-105925600D03*
D31*
X91356800Y-105925600D03*
X88816800Y-105925600D03*
X86276800Y-105925600D03*
X83736800Y-105925600D03*
X81196800Y-105925600D03*
X78656800Y-105925600D03*
X76116800Y-105925600D03*
X73576800Y-105925600D03*
%TD*%
D25*
%TO.C,R37*%
X153369000Y-108072800D03*
D26*
X153369000Y-110612800D03*
%TD*%
D25*
%TO.C,C2*%
X119512100Y-132503500D03*
X119512100Y-137503500D03*
%TD*%
D27*
%TO.C,Q20*%
X152969100Y-50748700D03*
D28*
X152969100Y-53288700D03*
X152969100Y-55828700D03*
%TD*%
D25*
%TO.C,R33*%
X224611300Y-86399600D03*
D26*
X222071300Y-86399600D03*
%TD*%
D30*
%TO.C,J22*%
X94384900Y-97908600D03*
D31*
X91844900Y-97908600D03*
X89304900Y-97908600D03*
X86764900Y-97908600D03*
X84224900Y-97908600D03*
X81684900Y-97908600D03*
X79144900Y-97908600D03*
%TD*%
D25*
%TO.C,R2*%
X154518800Y-135417500D03*
D26*
X157058800Y-135417500D03*
%TD*%
D42*
%TO.C,IC7*%
X92718500Y-110579700D03*
X90178500Y-110579700D03*
X87638500Y-110579700D03*
X85098500Y-110579700D03*
X82558500Y-110579700D03*
X80018500Y-110579700D03*
X77478500Y-110579700D03*
X74938500Y-110579700D03*
X74938500Y-119679700D03*
X77478500Y-119679700D03*
X80018500Y-119679700D03*
X82558500Y-119679700D03*
X85098500Y-119679700D03*
X87638500Y-119679700D03*
X90178500Y-119679700D03*
X92718500Y-119679700D03*
%TD*%
D43*
%TO.C,Z5*%
X139400400Y-84637100D03*
D44*
X150100400Y-84637100D03*
%TD*%
D25*
%TO.C,C36*%
X158411400Y-104207200D03*
X158411400Y-111707200D03*
%TD*%
D45*
%TO.C,IC11*%
X101418300Y-53593900D03*
X101418300Y-54863900D03*
X101418300Y-56133900D03*
X101418300Y-57403900D03*
X106840300Y-57403900D03*
X106840300Y-56133900D03*
X106840300Y-54863900D03*
X106840300Y-53593900D03*
%TD*%
D25*
%TO.C,R49*%
X165995500Y-91505500D03*
D26*
X163455500Y-91505500D03*
%TD*%
D19*
%TO.C,D9*%
X189287900Y-115880600D03*
D20*
X189287900Y-101780600D03*
%TD*%
D25*
%TO.C,R1*%
X218111900Y-89695600D03*
D26*
X218111900Y-87155600D03*
%TD*%
D23*
%TO.C,Q12*%
X158237900Y-92748100D03*
D24*
X159507900Y-92748100D03*
X160777900Y-92748100D03*
%TD*%
D29*
%TO.C,C39*%
X105777600Y-104378800D03*
D25*
X105777600Y-106878800D03*
%TD*%
D29*
%TO.C,C40*%
X101718200Y-117243200D03*
D25*
X101718200Y-119743200D03*
%TD*%
%TO.C,R11*%
X74694700Y-124310600D03*
D26*
X77234700Y-124310600D03*
%TD*%
D25*
%TO.C,R8*%
X80495900Y-146081600D03*
D26*
X80495900Y-148621600D03*
%TD*%
D25*
%TO.C,C16*%
X115811000Y-75003600D03*
X115811000Y-67503600D03*
%TD*%
%TO.C,R10*%
X108188900Y-144400100D03*
D26*
X108188900Y-146940100D03*
%TD*%
D25*
%TO.C,R47*%
X147470900Y-69262600D03*
D26*
X150010900Y-69262600D03*
%TD*%
D46*
%TO.C,RV2*%
X234269300Y-71412700D03*
X234269300Y-73952700D03*
X234269300Y-76492700D03*
%TD*%
D25*
%TO.C,R12*%
X79646200Y-76718500D03*
D26*
X82186200Y-76718500D03*
%TD*%
D25*
%TO.C,R32*%
X222515100Y-83302700D03*
D26*
X225055100Y-83302700D03*
%TD*%
D23*
%TO.C,Q3*%
X115308000Y-142905600D03*
D24*
X114038000Y-142905600D03*
X112768000Y-142905600D03*
%TD*%
D47*
%TO.C,IC13*%
X192128300Y-102051900D03*
D48*
X192128300Y-104591900D03*
X192128300Y-107131900D03*
X192128300Y-109671900D03*
X199748300Y-109671900D03*
X199748300Y-107131900D03*
X199748300Y-104591900D03*
X199748300Y-102051900D03*
%TD*%
D30*
%TO.C,J8*%
X229872200Y-121547800D03*
D31*
X229872200Y-124087800D03*
X229872200Y-126627800D03*
%TD*%
D25*
%TO.C,R42*%
X147908100Y-63328600D03*
D26*
X145368100Y-63328600D03*
%TD*%
D25*
%TO.C,C15*%
X125959500Y-92097700D03*
X125959500Y-84597700D03*
%TD*%
%TO.C,R34*%
X222538900Y-89478600D03*
D26*
X225078900Y-89478600D03*
%TD*%
D29*
%TO.C,C18*%
X134997900Y-87964700D03*
D25*
X129997900Y-87964700D03*
%TD*%
D27*
%TO.C,Q17*%
X152969100Y-85396500D03*
D28*
X152969100Y-87936500D03*
X152969100Y-90476500D03*
%TD*%
D32*
%TO.C,C27*%
X211031400Y-119290600D03*
X211031400Y-129290600D03*
%TD*%
%TO.C,C29*%
X218110400Y-119260900D03*
X218110400Y-129260900D03*
%TD*%
D29*
%TO.C,C13*%
X110508700Y-70406100D03*
D25*
X110508700Y-67906100D03*
%TD*%
%TO.C,R69*%
X137248100Y-128241300D03*
D26*
X139788100Y-128241300D03*
%TD*%
D23*
%TO.C,Q11*%
X140261800Y-64541200D03*
D24*
X141531800Y-64541200D03*
X142801800Y-64541200D03*
%TD*%
D25*
%TO.C,R20*%
X154613400Y-130738100D03*
D26*
X157153400Y-130738100D03*
%TD*%
D25*
%TO.C,R66*%
X137262100Y-119061900D03*
D26*
X139802100Y-119061900D03*
%TD*%
D25*
%TO.C,R45*%
X142435400Y-69333500D03*
D26*
X139895400Y-69333500D03*
%TD*%
D25*
%TO.C,C1*%
X98393200Y-139624000D03*
X98393200Y-144624000D03*
%TD*%
D21*
%TO.C,D2*%
X106014900Y-128035400D03*
D22*
X95854900Y-128035400D03*
%TD*%
D45*
%TO.C,IC10*%
X106840300Y-82737900D03*
X106840300Y-81467900D03*
X106840300Y-80197900D03*
X106840300Y-78927900D03*
X101418300Y-78927900D03*
X101418300Y-80197900D03*
X101418300Y-81467900D03*
X101418300Y-82737900D03*
%TD*%
D25*
%TO.C,R16*%
X74643200Y-128969800D03*
D26*
X77183200Y-128969800D03*
%TD*%
D25*
%TO.C,C21*%
X124890200Y-50980700D03*
X117390200Y-50980700D03*
%TD*%
D30*
%TO.C,J3*%
X226581200Y-111690700D03*
D31*
X226581200Y-109150700D03*
X226581200Y-106610700D03*
X226581200Y-104070700D03*
X226581200Y-101530700D03*
X226581200Y-98990700D03*
X226581200Y-96450700D03*
X226581200Y-93910700D03*
%TD*%
D25*
%TO.C,R26*%
X96498000Y-54101900D03*
D26*
X99038000Y-54101900D03*
%TD*%
D25*
%TO.C,R18*%
X85160400Y-128969800D03*
D26*
X87700400Y-128969800D03*
%TD*%
D30*
%TO.C,T2*%
X185138800Y-97249500D03*
D31*
X185138800Y-99789500D03*
X185138800Y-102329500D03*
X185138800Y-104869500D03*
X185138800Y-107409500D03*
X185138800Y-109949500D03*
X185138800Y-112489500D03*
X185138800Y-115029500D03*
%TD*%
D25*
%TO.C,R27*%
X124580100Y-137553400D03*
D26*
X124580100Y-140093400D03*
%TD*%
D47*
%TO.C,IC17*%
X117227000Y-121483700D03*
D48*
X117227000Y-118943700D03*
X117227000Y-116403700D03*
X117227000Y-113863700D03*
X117227000Y-111323700D03*
X117227000Y-108783700D03*
X117227000Y-106243700D03*
X117227000Y-103703700D03*
X109607000Y-103703700D03*
X109607000Y-106243700D03*
X109607000Y-108783700D03*
X109607000Y-111323700D03*
X109607000Y-113863700D03*
X109607000Y-116403700D03*
X109607000Y-118943700D03*
X109607000Y-121483700D03*
%TD*%
D25*
%TO.C,R4*%
X160658800Y-135417500D03*
D26*
X163198800Y-135417500D03*
%TD*%
D49*
%TO.C,U3*%
X168461800Y-117557500D03*
D50*
X168461800Y-110107500D03*
D51*
X168461800Y-122032500D03*
X168461800Y-105632500D03*
%TD*%
D25*
%TO.C,R30*%
X140349900Y-139564900D03*
D26*
X137809900Y-139564900D03*
%TD*%
D43*
%TO.C,Z1*%
X139490600Y-60519100D03*
D44*
X150190600Y-60519100D03*
%TD*%
D25*
%TO.C,R60*%
X171913200Y-130738100D03*
D26*
X174453200Y-130738100D03*
%TD*%
D25*
%TO.C,R50*%
X163902400Y-94613000D03*
D26*
X166442400Y-94613000D03*
%TD*%
D29*
%TO.C,C28*%
X185902000Y-123934200D03*
D25*
X190902000Y-123934200D03*
%TD*%
D29*
%TO.C,C38*%
X101718200Y-111166200D03*
D25*
X101718200Y-108666200D03*
%TD*%
D43*
%TO.C,Z8*%
X83647500Y-89837000D03*
D44*
X83647500Y-79137000D03*
%TD*%
D43*
%TO.C,Z7*%
X139423800Y-48453400D03*
D44*
X150123800Y-48453400D03*
%TD*%
D43*
%TO.C,Z3*%
X139451700Y-72110600D03*
D44*
X150151700Y-72110600D03*
%TD*%
D52*
%TO.C,U1*%
X73402700Y-61747000D03*
X73402700Y-84347000D03*
%TD*%
D46*
%TO.C,RV1*%
X234282700Y-61210200D03*
X234282700Y-63750200D03*
X234282700Y-66290200D03*
%TD*%
D23*
%TO.C,Q7*%
X129439400Y-51033300D03*
D24*
X130709400Y-51033300D03*
X131979400Y-51033300D03*
%TD*%
D29*
%TO.C,C26*%
X101104300Y-64850900D03*
D25*
X106104300Y-64850900D03*
%TD*%
%TO.C,R25*%
X108692700Y-91511200D03*
D26*
X111232700Y-91511200D03*
%TD*%
D25*
%TO.C,C20*%
X97028100Y-78937300D03*
X97028100Y-71437300D03*
%TD*%
D30*
%TO.C,T1*%
X206318600Y-78031400D03*
D31*
X208858600Y-78031400D03*
X211398600Y-78031400D03*
X213938600Y-78031400D03*
X216478600Y-78031400D03*
X219018600Y-78031400D03*
X221558600Y-78031400D03*
X224098600Y-78031400D03*
%TD*%
D30*
%TO.C,J1*%
X234522200Y-121547800D03*
D31*
X234522200Y-124087800D03*
X234522200Y-126627800D03*
%TD*%
D25*
%TO.C,R29*%
X140349900Y-144204100D03*
D26*
X137809900Y-144204100D03*
%TD*%
D34*
%TO.C,Q5*%
X87981600Y-89848500D03*
D35*
X87981600Y-88578500D03*
X87981600Y-87308500D03*
%TD*%
D25*
%TO.C,R15*%
X90206200Y-124300000D03*
D26*
X92746200Y-124300000D03*
%TD*%
D29*
%TO.C,C22*%
X95632700Y-66514500D03*
D25*
X95632700Y-64014500D03*
%TD*%
D53*
%TO.C,IC12*%
X127218200Y-137301300D03*
D54*
X127218200Y-139841300D03*
X127218200Y-142381300D03*
X127218200Y-144921300D03*
X135158200Y-144921300D03*
X135158200Y-142381300D03*
X135158200Y-139841300D03*
X135158200Y-137301300D03*
%TD*%
D27*
%TO.C,Q14*%
X162856400Y-67378000D03*
D28*
X162856400Y-64838000D03*
X162856400Y-62298000D03*
%TD*%
D29*
%TO.C,C23*%
X101039200Y-73440900D03*
D25*
X106039200Y-73440900D03*
%TD*%
%TO.C,C4*%
X109658300Y-133418000D03*
X104658300Y-133418000D03*
%TD*%
%TO.C,R62*%
X81820500Y-72188200D03*
D26*
X79280500Y-72188200D03*
%TD*%
D30*
%TO.C,T5*%
X204215900Y-97249500D03*
D31*
X204215900Y-99789500D03*
X204215900Y-102329500D03*
X204215900Y-104869500D03*
X204215900Y-107409500D03*
X204215900Y-109949500D03*
X204215900Y-112489500D03*
X204215900Y-115029500D03*
%TD*%
D25*
%TO.C,R35*%
X215533800Y-84508000D03*
D26*
X218073800Y-84508000D03*
%TD*%
D25*
%TO.C,R53*%
X147321700Y-81789700D03*
D26*
X149861700Y-81789700D03*
%TD*%
D25*
%TO.C,R38*%
X150284600Y-108072800D03*
D26*
X150284600Y-110612800D03*
%TD*%
D25*
%TO.C,R55*%
X182285400Y-83181700D03*
D26*
X179745400Y-83181700D03*
%TD*%
D30*
%TO.C,J23*%
X177429000Y-93759200D03*
D31*
X177429000Y-96299200D03*
%TD*%
D25*
%TO.C,R52*%
X176759400Y-87990300D03*
D26*
X174219400Y-87990300D03*
%TD*%
D25*
%TO.C,C17*%
X117048200Y-86173200D03*
X117048200Y-93673200D03*
%TD*%
%TO.C,R44*%
X166497800Y-83480000D03*
D26*
X169037800Y-83480000D03*
%TD*%
D21*
%TO.C,D5*%
X89215600Y-132497900D03*
D22*
X79055600Y-132497900D03*
%TD*%
D12*
%TO.C,C32*%
X213364300Y-96645700D03*
X214864300Y-96645700D03*
%TD*%
D23*
%TO.C,Q25*%
X212398800Y-83214400D03*
D24*
X211128800Y-83214400D03*
X209858800Y-83214400D03*
%TD*%
D27*
%TO.C,Q21*%
X88471600Y-82669100D03*
D28*
X88471600Y-80129100D03*
X88471600Y-77589100D03*
%TD*%
D29*
%TO.C,C25*%
X98051600Y-58524400D03*
D25*
X98051600Y-61024400D03*
%TD*%
%TO.C,R19*%
X90456400Y-128969800D03*
D26*
X92996400Y-128969800D03*
%TD*%
D25*
%TO.C,R68*%
X137247800Y-125193500D03*
D26*
X139787800Y-125193500D03*
%TD*%
D25*
%TO.C,R70*%
X215032600Y-89695600D03*
D26*
X215032600Y-87155600D03*
%TD*%
D25*
%TO.C,R6*%
X140895900Y-136279400D03*
D26*
X140895900Y-133739400D03*
%TD*%
D25*
%TO.C,R54*%
X147711900Y-87463200D03*
D26*
X145171900Y-87463200D03*
%TD*%
D25*
%TO.C,R3*%
X160616300Y-130785400D03*
D26*
X163156300Y-130785400D03*
%TD*%
D25*
%TO.C,R28*%
X124586900Y-142739400D03*
D26*
X124586900Y-145279400D03*
%TD*%
D30*
%TO.C,J7*%
X131045500Y-106400900D03*
D31*
X133585500Y-106400900D03*
X131045500Y-108940900D03*
X133585500Y-108940900D03*
X131045500Y-111480900D03*
X133585500Y-111480900D03*
%TD*%
D25*
%TO.C,R40*%
X163398800Y-88349200D03*
D26*
X160858800Y-88349200D03*
%TD*%
D25*
%TO.C,C24*%
X110383600Y-57414700D03*
X110383600Y-64914700D03*
%TD*%
%TO.C,R39*%
X131603800Y-54678100D03*
D26*
X129063800Y-54678100D03*
%TD*%
D25*
%TO.C,R51*%
X142096800Y-93759800D03*
D26*
X139556800Y-93759800D03*
%TD*%
D30*
%TO.C,J2*%
X225222200Y-121547800D03*
D31*
X225222200Y-124087800D03*
X225222200Y-126627800D03*
%TD*%
D27*
%TO.C,Q9*%
X152969100Y-62298000D03*
D28*
X152969100Y-64838000D03*
X152969100Y-67378000D03*
%TD*%
D30*
%TO.C,J31*%
X150145600Y-137205600D03*
D31*
X150145600Y-139745600D03*
%TD*%
D25*
%TO.C,C3*%
X114841200Y-132433600D03*
X114841200Y-137433600D03*
%TD*%
%TO.C,R13*%
X79847600Y-124300000D03*
D26*
X82387600Y-124300000D03*
%TD*%
D21*
%TO.C,D4*%
X89215600Y-137290500D03*
D22*
X79055600Y-137290500D03*
%TD*%
D25*
%TO.C,R36*%
X166288400Y-135464800D03*
D26*
X168828400Y-135464800D03*
%TD*%
D30*
%TO.C,T6*%
X155695300Y-141069100D03*
D31*
X158235300Y-141069100D03*
X160775300Y-141069100D03*
X163315300Y-141069100D03*
X165855300Y-141069100D03*
X168395300Y-141069100D03*
X170935300Y-141069100D03*
X173475300Y-141069100D03*
%TD*%
D25*
%TO.C,R17*%
X79880700Y-128961300D03*
D26*
X82420700Y-128961300D03*
%TD*%
D25*
%TO.C,R63*%
X76015800Y-88348200D03*
D26*
X76015800Y-90888200D03*
%TD*%
D23*
%TO.C,Q1*%
X105116400Y-139102200D03*
D24*
X103846400Y-139102200D03*
X102576400Y-139102200D03*
%TD*%
D25*
%TO.C,R23*%
X98369900Y-91532800D03*
D26*
X100909900Y-91532800D03*
%TD*%
D29*
%TO.C,C37*%
X105777600Y-115358800D03*
D25*
X105777600Y-112858800D03*
%TD*%
D32*
%TO.C,L1*%
X125176300Y-81011700D03*
D33*
X140416300Y-81011700D03*
%TD*%
D23*
%TO.C,Q4*%
X104959000Y-145284700D03*
D24*
X103689000Y-145284700D03*
X102419000Y-145284700D03*
%TD*%
D53*
%TO.C,IC14*%
X227755400Y-90720400D03*
D54*
X230295400Y-90720400D03*
X232835400Y-90720400D03*
X235375400Y-90720400D03*
X235375400Y-82780400D03*
X232835400Y-82780400D03*
X230295400Y-82780400D03*
X227755400Y-82780400D03*
%TD*%
D25*
%TO.C,R7*%
X137809900Y-136273900D03*
D26*
X137809900Y-133733900D03*
%TD*%
D27*
%TO.C,Q10*%
X162809300Y-55828700D03*
D28*
X162809300Y-53288700D03*
X162809300Y-50748700D03*
%TD*%
D32*
%TO.C,L3*%
X111539800Y-50273700D03*
D33*
X96299800Y-50273700D03*
%TD*%
D27*
%TO.C,Q18*%
X162856400Y-78927300D03*
D28*
X162856400Y-76387300D03*
X162856400Y-73847300D03*
%TD*%
D21*
%TO.C,D3*%
X93649500Y-150182100D03*
D22*
X83489500Y-150182100D03*
%TD*%
D25*
%TO.C,R14*%
X85053400Y-124300000D03*
D26*
X87593400Y-124300000D03*
%TD*%
D25*
%TO.C,R57*%
X141143800Y-57709500D03*
D26*
X138603800Y-57709500D03*
%TD*%
D43*
%TO.C,Z2*%
X177929300Y-48427000D03*
D44*
X167229300Y-48427000D03*
%TD*%
D43*
%TO.C,Z6*%
X177929300Y-53623000D03*
D44*
X167229300Y-53623000D03*
%TD*%
D43*
%TO.C,Z4*%
X177929300Y-51059400D03*
D44*
X167229300Y-51059400D03*
%TD*%
M02*
