%TF.GenerationSoftware,KiCad,Pcbnew,(6.0.0)*%
%TF.CreationDate,2022-07-17T07:01:51-07:00*%
%TF.ProjectId,AMS-Mega2560-Base,414d532d-4d65-4676-9132-3536302d4261,rev?*%
%TF.SameCoordinates,Original*%
%TF.FileFunction,Legend,Bot*%
%TF.FilePolarity,Positive*%
%FSLAX46Y46*%
G04 Gerber Fmt 4.6, Leading zero omitted, Abs format (unit mm)*
G04 Created by KiCad (PCBNEW (6.0.0)) date 2022-07-17 07:01:51*
%MOMM*%
%LPD*%
G01*
G04 APERTURE LIST*
%ADD10C,0.254000*%
%ADD11C,0.150000*%
%ADD12C,0.200000*%
%ADD13C,0.120000*%
G04 APERTURE END LIST*
D10*
%TO.C,IC19*%
X166777976Y-104096159D02*
X166777976Y-102826159D01*
X165447500Y-103975207D02*
X165507976Y-104035683D01*
X165689405Y-104096159D01*
X165810357Y-104096159D01*
X165991786Y-104035683D01*
X166112738Y-103914731D01*
X166173214Y-103793778D01*
X166233691Y-103551874D01*
X166233691Y-103370445D01*
X166173214Y-103128540D01*
X166112738Y-103007588D01*
X165991786Y-102886636D01*
X165810357Y-102826159D01*
X165689405Y-102826159D01*
X165507976Y-102886636D01*
X165447500Y-102947112D01*
X164237976Y-104096159D02*
X164963691Y-104096159D01*
X164600833Y-104096159D02*
X164600833Y-102826159D01*
X164721786Y-103007588D01*
X164842738Y-103128540D01*
X164963691Y-103189016D01*
X163633214Y-104096159D02*
X163391310Y-104096159D01*
X163270357Y-104035683D01*
X163209881Y-103975207D01*
X163088929Y-103793778D01*
X163028453Y-103551874D01*
X163028453Y-103068064D01*
X163088929Y-102947112D01*
X163149405Y-102886636D01*
X163270357Y-102826159D01*
X163512262Y-102826159D01*
X163633214Y-102886636D01*
X163693691Y-102947112D01*
X163754167Y-103068064D01*
X163754167Y-103370445D01*
X163693691Y-103491397D01*
X163633214Y-103551874D01*
X163512262Y-103612350D01*
X163270357Y-103612350D01*
X163149405Y-103551874D01*
X163088929Y-103491397D01*
X163028453Y-103370445D01*
D11*
%TO.C,C31*%
X234431126Y-86705550D02*
X234478745Y-86657931D01*
X234526364Y-86515074D01*
X234526364Y-86419836D01*
X234478745Y-86276979D01*
X234383507Y-86181741D01*
X234288269Y-86134122D01*
X234097793Y-86086503D01*
X233954936Y-86086503D01*
X233764460Y-86134122D01*
X233669222Y-86181741D01*
X233573984Y-86276979D01*
X233526364Y-86419836D01*
X233526364Y-86515074D01*
X233573984Y-86657931D01*
X233621603Y-86705550D01*
X233526364Y-87038884D02*
X233526364Y-87657931D01*
X233907317Y-87324598D01*
X233907317Y-87467455D01*
X233954936Y-87562693D01*
X234002555Y-87610312D01*
X234097793Y-87657931D01*
X234335888Y-87657931D01*
X234431126Y-87610312D01*
X234478745Y-87562693D01*
X234526364Y-87467455D01*
X234526364Y-87181741D01*
X234478745Y-87086503D01*
X234431126Y-87038884D01*
X234526364Y-88610312D02*
X234526364Y-88038884D01*
X234526364Y-88324598D02*
X233526364Y-88324598D01*
X233669222Y-88229360D01*
X233764460Y-88134122D01*
X233812079Y-88038884D01*
D10*
%TO.C,IC16*%
X170254823Y-114445323D02*
X170254823Y-113175323D01*
X168924347Y-114324371D02*
X168984823Y-114384847D01*
X169166252Y-114445323D01*
X169287204Y-114445323D01*
X169468633Y-114384847D01*
X169589585Y-114263895D01*
X169650061Y-114142942D01*
X169710538Y-113901038D01*
X169710538Y-113719609D01*
X169650061Y-113477704D01*
X169589585Y-113356752D01*
X169468633Y-113235800D01*
X169287204Y-113175323D01*
X169166252Y-113175323D01*
X168984823Y-113235800D01*
X168924347Y-113296276D01*
X167714823Y-114445323D02*
X168440538Y-114445323D01*
X168077680Y-114445323D02*
X168077680Y-113175323D01*
X168198633Y-113356752D01*
X168319585Y-113477704D01*
X168440538Y-113538180D01*
X166626252Y-113175323D02*
X166868157Y-113175323D01*
X166989109Y-113235800D01*
X167049585Y-113296276D01*
X167170538Y-113477704D01*
X167231014Y-113719609D01*
X167231014Y-114203419D01*
X167170538Y-114324371D01*
X167110061Y-114384847D01*
X166989109Y-114445323D01*
X166747204Y-114445323D01*
X166626252Y-114384847D01*
X166565776Y-114324371D01*
X166505300Y-114203419D01*
X166505300Y-113901038D01*
X166565776Y-113780085D01*
X166626252Y-113719609D01*
X166747204Y-113659133D01*
X166989109Y-113659133D01*
X167110061Y-113719609D01*
X167170538Y-113780085D01*
X167231014Y-113901038D01*
%TO.C,Z2*%
X181220224Y-47741529D02*
X180373557Y-47741529D01*
X181220224Y-49011529D01*
X180373557Y-49011529D01*
X179950224Y-47862482D02*
X179889748Y-47802006D01*
X179768795Y-47741529D01*
X179466414Y-47741529D01*
X179345462Y-47802006D01*
X179284986Y-47862482D01*
X179224509Y-47983434D01*
X179224509Y-48104386D01*
X179284986Y-48285815D01*
X180010700Y-49011529D01*
X179224509Y-49011529D01*
%TO.C,Z6*%
X180954816Y-52981411D02*
X180108149Y-52981411D01*
X180954816Y-54251411D01*
X180108149Y-54251411D01*
X179080054Y-52981411D02*
X179321959Y-52981411D01*
X179442911Y-53041888D01*
X179503387Y-53102364D01*
X179624340Y-53283792D01*
X179684816Y-53525697D01*
X179684816Y-54009507D01*
X179624340Y-54130459D01*
X179563863Y-54190935D01*
X179442911Y-54251411D01*
X179201006Y-54251411D01*
X179080054Y-54190935D01*
X179019578Y-54130459D01*
X178959101Y-54009507D01*
X178959101Y-53707126D01*
X179019578Y-53586173D01*
X179080054Y-53525697D01*
X179201006Y-53465221D01*
X179442911Y-53465221D01*
X179563863Y-53525697D01*
X179624340Y-53586173D01*
X179684816Y-53707126D01*
%TO.C,Z4*%
X180940801Y-50437641D02*
X180094134Y-50437641D01*
X180940801Y-51707641D01*
X180094134Y-51707641D01*
X179066039Y-50860975D02*
X179066039Y-51707641D01*
X179368420Y-50377165D02*
X179670801Y-51284308D01*
X178884610Y-51284308D01*
D12*
%TO.C,IC19*%
X164496400Y-104539500D02*
X164346400Y-104539500D01*
X164346400Y-104539500D02*
X164346400Y-107459500D01*
X164346400Y-107459500D02*
X164496400Y-107459500D01*
X164496400Y-107459500D02*
X164496400Y-104539500D01*
X166096400Y-104499500D02*
X164846400Y-104499500D01*
D13*
%TO.C,C31*%
X233128984Y-87609660D02*
X233128984Y-87087156D01*
X231658984Y-87609660D02*
X231658984Y-87087156D01*
D12*
%TO.C,IC16*%
X174085300Y-108750800D02*
X172160300Y-108750800D01*
X171810300Y-108720800D02*
X165010300Y-108720800D01*
X171810300Y-119020800D02*
X171810300Y-108720800D01*
X165010300Y-119020800D02*
X171810300Y-119020800D01*
X165010300Y-108720800D02*
X165010300Y-119020800D01*
%TO.C,Z2*%
X177004300Y-48427000D02*
X174481300Y-48427000D01*
X174481300Y-49287000D02*
X174481300Y-47567000D01*
X174481300Y-48427000D02*
X173621300Y-47567000D01*
X170677300Y-49287000D02*
X174481300Y-49287000D01*
X170677300Y-48427000D02*
X168154300Y-48427000D01*
X174481300Y-47567000D02*
X170677300Y-47567000D01*
X170677300Y-47567000D02*
X170677300Y-49287000D01*
%TO.C,Z6*%
X174481300Y-54483000D02*
X174481300Y-52763000D01*
X170677300Y-53623000D02*
X168154300Y-53623000D01*
X170677300Y-52763000D02*
X170677300Y-54483000D01*
X174481300Y-52763000D02*
X170677300Y-52763000D01*
X170677300Y-54483000D02*
X174481300Y-54483000D01*
X177004300Y-53623000D02*
X174481300Y-53623000D01*
X174481300Y-53623000D02*
X173621300Y-52763000D01*
%TO.C,Z4*%
X170677300Y-51059400D02*
X168154300Y-51059400D01*
X177004300Y-51059400D02*
X174481300Y-51059400D01*
X174481300Y-51919400D02*
X174481300Y-50199400D01*
X170677300Y-51919400D02*
X174481300Y-51919400D01*
X174481300Y-50199400D02*
X170677300Y-50199400D01*
X170677300Y-50199400D02*
X170677300Y-51919400D01*
X174481300Y-51059400D02*
X173621300Y-50199400D01*
%TD*%
M02*
