M48
INCH,TZ
T1C0.0157
T2C0.0287
T3C0.0295
T4C0.0299
T5C0.0300
T6C0.0315
T7C0.0394
T8C0.0400
T9C0.0413
T10C0.0433
T11C0.0504
T12C0.0512
T13C0.0547
T14C0.0591
T15C0.0610
T16C0.1200
%
G90
G05
T1
X28315Y-36332
X28991Y-43214
X29876Y-51773
X30003Y-47097
X30768Y-40958
X31008Y-43553
X31020Y-46824
X31045Y-36332
X31166Y-47794
X32003Y-43591
X32422Y-29449
X32604Y-47743
X33005Y-43591
X33005Y-47074
X33621Y-45006
X33821Y-46258
X34542Y-45929
X34550Y-47794
X34905Y-46258
X35671Y-29449
X35708Y-35368
X35708Y-44760
X36388Y-48418
X37123Y-43591
X37189Y-51590
X37193Y-47045
X37201Y-45006
X40428Y-23075
X40675Y-56384
X41107Y-54086
X41230Y-32093
X41553Y-31084
X42557Y-41328
X43499Y-39026
X43588Y-48548
X43926Y-51892
X44325Y-51923
X44738Y-59214
X44804Y-46078
X44869Y-51428
X44937Y-39026
X45726Y-44940
X46180Y-49086
X46511Y-48964
X47166Y-44518
X47603Y-51998
X49858Y-51920
X49911Y-50501
X49929Y-45738
X50990Y-44830
X51062Y-51674
X51225Y-48247
X51259Y-47932
X51322Y-50205
X51387Y-51605
X51660Y-49840
X51936Y-49215
X51936Y-47835
X52014Y-52127
X52081Y-46901
X52176Y-48047
X52183Y-49921
X52191Y-43355
X52702Y-53366
X52800Y-49380
X53191Y-47047
X53383Y-52386
X53518Y-50634
X53557Y-46205
X53671Y-51726
X55212Y-42462
X55958Y-38520
X56518Y-46382
X57529Y-48567
X57534Y-39241
X60086Y-51288
X60371Y-50096
X60613Y-51276
X60785Y-51555
X61221Y-46952
X61412Y-44745
X62587Y-38837
X62821Y-44250
X62899Y-40858
X62912Y-42802
X63066Y-35244
X63283Y-27135
X63313Y-44330
X63583Y-43461
X64300Y-27768
X64697Y-47045
X64711Y-24846
X64865Y-42589
X65173Y-41026
X65216Y-45094
X65398Y-51677
X66346Y-57903
X66934Y-32185
X66958Y-38590
X67163Y-31787
X67197Y-44760
X67294Y-41269
X67429Y-27135
X68739Y-43476
X70310Y-39097
X70532Y-54105
X72168Y-36818
X72382Y-50446
X73080Y-51150
X73587Y-34873
X73815Y-36764
X76528Y-42796
X78143Y-42926
X80027Y-51551
X80035Y-47365
X80707Y-49145
X81357Y-50604
X82111Y-31261
X82748Y-42811
X83074Y-33953
X87830Y-57976
X92033Y-35344
X92067Y-33030
T2
X50086Y-54056
X50086Y-55056
X50086Y-56056
X50086Y-57056
X53212Y-54056
X53212Y-55056
X53212Y-56056
X53212Y-57056
X89667Y-32591
X89667Y-35717
X90667Y-32591
X90667Y-35717
X91667Y-32591
X91667Y-35717
X92667Y-32591
X92667Y-35717
T3
X27679Y-35247
X28179Y-35247
X28679Y-35247
X31850Y-55321
X31850Y-55821
X31850Y-56321
X32932Y-31156
X32932Y-35369
X34638Y-34373
X34638Y-34873
X34638Y-35373
X40322Y-57199
X40384Y-54765
X40822Y-57199
X40884Y-54765
X41322Y-57199
X41384Y-54765
X44397Y-56262
X44897Y-56262
X45397Y-56262
X49906Y-41408
X49906Y-41908
X49906Y-42408
X50960Y-20092
X51460Y-20092
X51960Y-20092
X54450Y-21290
X54882Y-33322
X54891Y-19076
X54902Y-28390
X54918Y-23826
X54950Y-21290
X55119Y-35496
X55221Y-25410
X55450Y-21290
X55619Y-35496
X55721Y-25410
X56119Y-35496
X56221Y-25410
X59095Y-33322
X59104Y-19076
X59115Y-28390
X59130Y-23826
X61601Y-45517
X62101Y-45517
X62298Y-36515
X62601Y-45517
X62798Y-36515
X63298Y-36515
X63343Y-33354
X63843Y-33354
X64343Y-33354
X65838Y-19066
X65838Y-20102
X65838Y-21111
X68750Y-33234
X69250Y-33234
X69750Y-33234
X70051Y-19066
X70051Y-20102
X70051Y-21111
X82622Y-32762
X83122Y-32762
X83622Y-32762
T4
X43152Y-40828
X43152Y-41828
X43152Y-42828
X43152Y-43828
X43152Y-44828
X43152Y-45828
X43152Y-46828
X43152Y-47828
X46152Y-40828
X46152Y-41828
X46152Y-42828
X46152Y-43828
X46152Y-44828
X46152Y-45828
X46152Y-46828
X46152Y-47828
X74738Y-33332
X74738Y-36332
X75641Y-40178
X75641Y-41178
X75641Y-42178
X75641Y-43178
X75738Y-33332
X75738Y-36332
X78641Y-40178
X78641Y-41178
X78641Y-42178
X78641Y-43178
X79738Y-33332
X79738Y-36332
X80738Y-33332
X80738Y-36332
T5
X66135Y-28317
T6
X29387Y-50776
X29407Y-48941
X29927Y-34783
X29927Y-35783
X30387Y-50776
X30407Y-48941
X31213Y-28421
X31357Y-30204
X31373Y-24985
X31373Y-25985
X31390Y-27196
X31436Y-48937
X31449Y-50772
X31691Y-57512
X31691Y-58512
X32213Y-28421
X32357Y-30204
X32390Y-27196
X32436Y-48937
X32449Y-50772
X33486Y-48937
X33528Y-50776
X34486Y-48937
X34528Y-50776
X35514Y-48937
X35613Y-50776
X36514Y-48937
X36613Y-50776
X37651Y-25203
X37651Y-26187
X37991Y-21300
X38200Y-28125
X38200Y-31078
X38603Y-23041
X38603Y-24025
X38728Y-36037
X38737Y-54970
X38737Y-56939
X38991Y-21300
X39728Y-36037
X39779Y-28914
X39805Y-25532
X40047Y-42782
X40047Y-43766
X40047Y-46159
X40047Y-47143
X40759Y-36032
X40852Y-37473
X41204Y-52527
X41645Y-41094
X41645Y-42078
X41645Y-44433
X41645Y-45417
X41748Y-28914
X41759Y-36032
X41773Y-25532
X42577Y-54426
X42577Y-55426
X42594Y-56850
X42594Y-57850
X42792Y-36028
X43173Y-52527
X43458Y-22604
X43458Y-25557
X43507Y-26735
X43507Y-27719
X43588Y-49939
X43792Y-36028
X43805Y-37473
X44517Y-30730
X44517Y-31714
X44588Y-49939
X45213Y-52139
X45213Y-54108
X45588Y-49939
X45595Y-26576
X45595Y-29529
X46082Y-33926
X46082Y-36879
X46217Y-20071
X46610Y-55931
X46610Y-56931
X47052Y-52167
X47052Y-54135
X47247Y-47054
X47266Y-48865
X48247Y-47054
X48266Y-48865
X49047Y-54155
X49047Y-55155
X49050Y-56197
X49050Y-57197
X49169Y-20071
X49280Y-43611
X49590Y-33306
X49590Y-36259
X50280Y-43611
X50813Y-21527
X51180Y-34632
X51813Y-21527
X53149Y-34632
X54035Y-49289
X54035Y-50489
X54040Y-46875
X54040Y-48085
X54056Y-30348
X54256Y-52651
X54256Y-53651
X54256Y-54947
X54256Y-56773
X54568Y-22720
X54944Y-36913
X55035Y-49289
X55035Y-50489
X55040Y-46875
X55040Y-48085
X55056Y-30348
X55077Y-27297
X55256Y-54947
X55256Y-56773
X55471Y-52653
X55471Y-53653
X55568Y-22720
X55944Y-36913
X56077Y-27297
X57154Y-34434
X57179Y-20274
X57232Y-24933
X57356Y-21500
X57898Y-22726
X58001Y-32201
X58012Y-30153
X58012Y-31153
X58059Y-27269
X58154Y-34434
X58179Y-20274
X58232Y-24933
X58356Y-21500
X58898Y-22726
X59001Y-32201
X59059Y-27269
X59167Y-42548
X59167Y-43548
X59998Y-37474
X60381Y-42548
X60381Y-43548
X60998Y-37474
X62367Y-41026
X62367Y-43979
X63330Y-34783
X64330Y-34783
X64353Y-36026
X64529Y-37249
X65353Y-36026
X65381Y-34092
X65529Y-37249
X65550Y-32866
X66381Y-34092
X66550Y-32866
X68590Y-34642
X69590Y-34642
X70766Y-32749
X70943Y-33956
X71766Y-32749
X71943Y-33956
X74650Y-38826
X78650Y-38826
X84002Y-38049
X84659Y-34313
X84659Y-35313
X84856Y-33271
X84986Y-38049
X85856Y-33271
X85871Y-34313
X85871Y-35313
X87430Y-34016
X87604Y-32796
X87614Y-35228
X88430Y-34016
X88604Y-32796
X88614Y-35228
X92232Y-28115
X92232Y-29115
X92232Y-30115
X92237Y-24099
X92237Y-25099
X92237Y-26099
T7
X28967Y-41703
X29967Y-41703
X30967Y-41703
X31159Y-38547
X31967Y-41703
X32159Y-38547
X32967Y-41703
X33159Y-38547
X33967Y-41703
X34159Y-38547
X34967Y-41703
X35159Y-38547
X35967Y-41703
X36159Y-38547
X36967Y-41703
X37159Y-38547
X37816Y-33899
X37913Y-19793
X43816Y-33899
X43913Y-19793
X49282Y-31894
X51593Y-41890
X51593Y-42890
X51593Y-43890
X52593Y-41890
X52593Y-42890
X52593Y-43890
X55282Y-31894
X59112Y-54018
X59112Y-55018
X61297Y-55539
X62297Y-55539
X63297Y-55539
X64297Y-55539
X65297Y-55539
X66297Y-55539
X67297Y-55539
X68297Y-55539
X69854Y-36913
X69854Y-37913
X71333Y-36566
X71333Y-37566
X72889Y-38287
X72889Y-39287
X72889Y-40287
X72889Y-41287
X72889Y-42287
X72889Y-43287
X72889Y-44287
X72889Y-45287
X72916Y-52497
X72916Y-53497
X72916Y-54497
X72916Y-55497
X72916Y-56497
X72916Y-57497
X72916Y-58497
X72916Y-59497
X73190Y-48793
X75158Y-48793
X77950Y-48781
X79919Y-48781
X80400Y-38287
X80400Y-39287
X80400Y-40287
X80400Y-41287
X80400Y-42287
X80400Y-43287
X80400Y-44287
X80400Y-45287
X80426Y-52497
X80426Y-53497
X80426Y-54497
X80426Y-55497
X80426Y-56497
X80426Y-57497
X80426Y-58497
X80426Y-59497
X81228Y-30721
X82228Y-30721
X83083Y-46965
X83083Y-50902
X83228Y-30721
X84228Y-30721
X85228Y-30721
X85870Y-46953
X85870Y-50890
X86228Y-30721
X87228Y-30721
X88228Y-30721
X88670Y-47853
X88670Y-48853
X88670Y-49853
X89205Y-36973
X89205Y-37973
X89205Y-38973
X89205Y-39973
X89205Y-40973
X89205Y-41973
X89205Y-42973
X89205Y-43973
X90501Y-47853
X90501Y-48853
X90501Y-49853
X92332Y-47853
X92332Y-48853
X92332Y-49853
T8
X40487Y-39682
X41487Y-39682
X42487Y-39682
X43487Y-39682
X44087Y-58682
X44487Y-39682
X45087Y-58682
X45487Y-39682
X46087Y-58682
X46487Y-39682
X47087Y-58682
X47487Y-39682
X48087Y-58682
X48487Y-39682
X49087Y-58682
X49487Y-39682
X50087Y-58682
X51087Y-39682
X51087Y-58682
X52087Y-39682
X53087Y-39682
X53087Y-58682
X54087Y-39682
X54087Y-58682
X55087Y-39682
X55087Y-58682
X56087Y-39682
X56087Y-58682
X57087Y-39682
X57087Y-58682
X58087Y-39682
X58087Y-58682
X59087Y-58682
X60087Y-39682
X60087Y-58682
X61087Y-39682
X62087Y-39682
X62087Y-58682
X63087Y-39682
X63087Y-58682
X64087Y-39682
X64087Y-58682
X65087Y-39682
X65087Y-58682
X66087Y-39682
X66087Y-58682
X67087Y-39682
X67087Y-58682
X68087Y-58682
X69087Y-58682
X70087Y-39682
X70087Y-40682
X70087Y-41682
X70087Y-42682
X70087Y-43682
X70087Y-44682
X70087Y-45682
X70087Y-46682
X70087Y-47682
X70087Y-48682
X70087Y-49682
X70087Y-50682
X70087Y-51682
X70087Y-52682
X70087Y-53682
X70087Y-54682
X70087Y-55682
X70087Y-56682
X71087Y-39682
X71087Y-40682
X71087Y-41682
X71087Y-42682
X71087Y-43682
X71087Y-44682
X71087Y-45682
X71087Y-46682
X71087Y-47682
X71087Y-48682
X71087Y-49682
X71087Y-50682
X71087Y-51682
X71087Y-52682
X71087Y-53682
X71087Y-54682
X71087Y-55682
X71087Y-56682
T9
X36572Y-28129
X36572Y-33680
X45069Y-19967
X45069Y-25518
X74523Y-40071
X74523Y-45622
T10
X31124Y-52165
X31124Y-54051
X31774Y-31358
X31774Y-35358
X32870Y-59127
X35124Y-52165
X35124Y-54051
X36870Y-59127
X37738Y-50408
X41738Y-50408
X59025Y-48029
X63025Y-48029
X66704Y-23328
X66704Y-30828
X67452Y-27828
X68204Y-23328
X68204Y-30828
X68952Y-27828
X69704Y-23328
X69704Y-30828
X70452Y-27828
X71204Y-23328
X71204Y-30828
X71952Y-27828
X72705Y-23328
X72705Y-30828
X73453Y-27828
X74205Y-23328
X74205Y-30828
X74953Y-27828
X75705Y-23328
X75705Y-30828
X76453Y-27828
X77205Y-23328
X77205Y-30828
X77953Y-27828
T11
X34831Y-26125
X34831Y-27125
X34831Y-28125
X34831Y-30547
X34831Y-31547
X34831Y-32547
X60224Y-19980
X60224Y-20980
X60224Y-21980
X60224Y-24527
X60224Y-25527
X60224Y-26527
X60224Y-29074
X60224Y-30074
X60224Y-31074
X60224Y-33621
X60224Y-34621
X60224Y-35621
X64098Y-19980
X64098Y-20980
X64098Y-21980
X64117Y-24527
X64117Y-25527
X64117Y-26527
X64117Y-29074
X64117Y-30074
X64117Y-31074
T12
X31931Y-21946
X33931Y-21946
X35931Y-21946
T13
X27789Y-37743
X27789Y-38743
X27789Y-39743
T14
X47594Y-21543
X47594Y-32803
T15
X28899Y-24310
X28899Y-33207
T16
X38587Y-58682
X39087Y-39682
X59087Y-45682
X59087Y-56682
X68587Y-39682
X71087Y-58682
T0
M30
