%TF.GenerationSoftware,KiCad,Pcbnew,(6.0.0)*%
%TF.CreationDate,2022-01-11T19:00:17-08:00*%
%TF.ProjectId,AMS-Vacuum-Sensor,414d532d-5661-4637-9575-6d2d53656e73,rev?*%
%TF.SameCoordinates,Original*%
%TF.FileFunction,Legend,Bot*%
%TF.FilePolarity,Positive*%
%FSLAX46Y46*%
G04 Gerber Fmt 4.6, Leading zero omitted, Abs format (unit mm)*
G04 Created by KiCad (PCBNEW (6.0.0)) date 2022-01-11 19:00:17*
%MOMM*%
%LPD*%
G01*
G04 APERTURE LIST*
%ADD10C,0.300000*%
%ADD11C,0.254000*%
%ADD12C,0.200000*%
G04 APERTURE END LIST*
D10*
X121278959Y-78705812D02*
X121778959Y-80205812D01*
X122278959Y-78705812D01*
X123350388Y-80134383D02*
X123207531Y-80205812D01*
X122921816Y-80205812D01*
X122778959Y-80134383D01*
X122707531Y-79991526D01*
X122707531Y-79420098D01*
X122778959Y-79277241D01*
X122921816Y-79205812D01*
X123207531Y-79205812D01*
X123350388Y-79277241D01*
X123421816Y-79420098D01*
X123421816Y-79562955D01*
X122707531Y-79705812D01*
X124064673Y-80205812D02*
X124064673Y-79205812D01*
X124064673Y-79491526D02*
X124136102Y-79348669D01*
X124207531Y-79277241D01*
X124350388Y-79205812D01*
X124493245Y-79205812D01*
X124921816Y-80134383D02*
X125064673Y-80205812D01*
X125350388Y-80205812D01*
X125493245Y-80134383D01*
X125564673Y-79991526D01*
X125564673Y-79920098D01*
X125493245Y-79777241D01*
X125350388Y-79705812D01*
X125136102Y-79705812D01*
X124993245Y-79634383D01*
X124921816Y-79491526D01*
X124921816Y-79420098D01*
X124993245Y-79277241D01*
X125136102Y-79205812D01*
X125350388Y-79205812D01*
X125493245Y-79277241D01*
X126207531Y-80062955D02*
X126278959Y-80134383D01*
X126207531Y-80205812D01*
X126136102Y-80134383D01*
X126207531Y-80062955D01*
X126207531Y-80205812D01*
X128850388Y-80205812D02*
X127993245Y-80205812D01*
X128421816Y-80205812D02*
X128421816Y-78705812D01*
X128278959Y-78920098D01*
X128136102Y-79062955D01*
X127993245Y-79134383D01*
X129493245Y-80062955D02*
X129564673Y-80134383D01*
X129493245Y-80205812D01*
X129421816Y-80134383D01*
X129493245Y-80062955D01*
X129493245Y-80205812D01*
X130493245Y-78705812D02*
X130636102Y-78705812D01*
X130778959Y-78777241D01*
X130850388Y-78848669D01*
X130921816Y-78991526D01*
X130993245Y-79277241D01*
X130993245Y-79634383D01*
X130921816Y-79920098D01*
X130850388Y-80062955D01*
X130778959Y-80134383D01*
X130636102Y-80205812D01*
X130493245Y-80205812D01*
X130350388Y-80134383D01*
X130278959Y-80062955D01*
X130207531Y-79920098D01*
X130136102Y-79634383D01*
X130136102Y-79277241D01*
X130207531Y-78991526D01*
X130278959Y-78848669D01*
X130350388Y-78777241D01*
X130493245Y-78705812D01*
D11*
%TO.C,R2*%
X129201605Y-94624381D02*
X128596843Y-94201048D01*
X129201605Y-93898667D02*
X127931605Y-93898667D01*
X127931605Y-94382476D01*
X127992082Y-94503428D01*
X128052558Y-94563905D01*
X128173510Y-94624381D01*
X128354939Y-94624381D01*
X128475891Y-94563905D01*
X128536367Y-94503428D01*
X128596843Y-94382476D01*
X128596843Y-93898667D01*
X128052558Y-95108190D02*
X127992082Y-95168667D01*
X127931605Y-95289619D01*
X127931605Y-95592000D01*
X127992082Y-95712952D01*
X128052558Y-95773428D01*
X128173510Y-95833905D01*
X128294462Y-95833905D01*
X128475891Y-95773428D01*
X129201605Y-95047714D01*
X129201605Y-95833905D01*
%TO.C,IC4*%
X125542474Y-99267839D02*
X124272474Y-99267839D01*
X125421522Y-100598315D02*
X125481998Y-100537839D01*
X125542474Y-100356410D01*
X125542474Y-100235458D01*
X125481998Y-100054029D01*
X125361046Y-99933077D01*
X125240093Y-99872601D01*
X124998189Y-99812124D01*
X124816760Y-99812124D01*
X124574855Y-99872601D01*
X124453903Y-99933077D01*
X124332951Y-100054029D01*
X124272474Y-100235458D01*
X124272474Y-100356410D01*
X124332951Y-100537839D01*
X124393427Y-100598315D01*
X124695808Y-101686886D02*
X125542474Y-101686886D01*
X124211998Y-101384505D02*
X125119141Y-101082124D01*
X125119141Y-101868315D01*
%TO.C,IC3*%
X110651472Y-99267839D02*
X109381472Y-99267839D01*
X110530520Y-100598315D02*
X110590996Y-100537839D01*
X110651472Y-100356410D01*
X110651472Y-100235458D01*
X110590996Y-100054029D01*
X110470044Y-99933077D01*
X110349091Y-99872601D01*
X110107187Y-99812124D01*
X109925758Y-99812124D01*
X109683853Y-99872601D01*
X109562901Y-99933077D01*
X109441949Y-100054029D01*
X109381472Y-100235458D01*
X109381472Y-100356410D01*
X109441949Y-100537839D01*
X109502425Y-100598315D01*
X109381472Y-101021648D02*
X109381472Y-101807839D01*
X109865282Y-101384505D01*
X109865282Y-101565934D01*
X109925758Y-101686886D01*
X109986234Y-101747362D01*
X110107187Y-101807839D01*
X110409568Y-101807839D01*
X110530520Y-101747362D01*
X110590996Y-101686886D01*
X110651472Y-101565934D01*
X110651472Y-101203077D01*
X110590996Y-101082124D01*
X110530520Y-101021648D01*
%TO.C,R1*%
X106376714Y-94317532D02*
X105771952Y-93894199D01*
X106376714Y-93591818D02*
X105106714Y-93591818D01*
X105106714Y-94075627D01*
X105167191Y-94196579D01*
X105227667Y-94257056D01*
X105348619Y-94317532D01*
X105530048Y-94317532D01*
X105651000Y-94257056D01*
X105711476Y-94196579D01*
X105771952Y-94075627D01*
X105771952Y-93591818D01*
X106376714Y-95527056D02*
X106376714Y-94801341D01*
X106376714Y-95164199D02*
X105106714Y-95164199D01*
X105288143Y-95043246D01*
X105409095Y-94922294D01*
X105469571Y-94801341D01*
D12*
%TO.C,R2*%
X132538728Y-98198483D02*
X132538728Y-91898483D01*
X132538728Y-91898483D02*
X130238728Y-91898483D01*
X131388728Y-98198483D02*
X131388728Y-101848483D01*
X130238728Y-98198483D02*
X132538728Y-98198483D01*
X131388728Y-88248483D02*
X131388728Y-91898483D01*
X130238728Y-91898483D02*
X130238728Y-98198483D01*
%TO.C,IC4*%
X127419951Y-102105601D02*
X127419951Y-98909601D01*
X127419951Y-98909601D02*
X122515951Y-98909601D01*
X122515951Y-98909601D02*
X122515951Y-102105601D01*
X122515951Y-102105601D02*
X127419951Y-102105601D01*
X122387951Y-97032601D02*
X122387951Y-98559601D01*
%TO.C,IC3*%
X107624949Y-98909601D02*
X107624949Y-102105601D01*
X112528949Y-98909601D02*
X107624949Y-98909601D01*
X112528949Y-102105601D02*
X112528949Y-98909601D01*
X107624949Y-102105601D02*
X112528949Y-102105601D01*
X107496949Y-97032601D02*
X107496949Y-98559601D01*
%TO.C,R1*%
X102339017Y-98198483D02*
X104639017Y-98198483D01*
X103489017Y-88248483D02*
X103489017Y-91898483D01*
X104639017Y-98198483D02*
X104639017Y-91898483D01*
X103489017Y-98198483D02*
X103489017Y-101848483D01*
X104639017Y-91898483D02*
X102339017Y-91898483D01*
X102339017Y-91898483D02*
X102339017Y-98198483D01*
%TD*%
M02*
