%TF.GenerationSoftware,KiCad,Pcbnew,(6.0.0)*%
%TF.CreationDate,2022-01-11T19:00:17-08:00*%
%TF.ProjectId,AMS-Vacuum-Sensor,414d532d-5661-4637-9575-6d2d53656e73,rev?*%
%TF.SameCoordinates,Original*%
%TF.FileFunction,Legend,Top*%
%TF.FilePolarity,Positive*%
%FSLAX46Y46*%
G04 Gerber Fmt 4.6, Leading zero omitted, Abs format (unit mm)*
G04 Created by KiCad (PCBNEW (6.0.0)) date 2022-01-11 19:00:17*
%MOMM*%
%LPD*%
G01*
G04 APERTURE LIST*
%ADD10C,0.300000*%
%ADD11C,0.254000*%
%ADD12C,0.150000*%
%ADD13C,0.100000*%
%ADD14C,0.200000*%
%ADD15C,0.120000*%
G04 APERTURE END LIST*
D10*
X122583200Y-113882115D02*
X123083200Y-115382115D01*
X123583200Y-113882115D01*
X124726057Y-115382115D02*
X124726057Y-114596401D01*
X124654629Y-114453544D01*
X124511772Y-114382115D01*
X124226057Y-114382115D01*
X124083200Y-114453544D01*
X124726057Y-115310686D02*
X124583200Y-115382115D01*
X124226057Y-115382115D01*
X124083200Y-115310686D01*
X124011772Y-115167829D01*
X124011772Y-115024972D01*
X124083200Y-114882115D01*
X124226057Y-114810686D01*
X124583200Y-114810686D01*
X124726057Y-114739258D01*
X126083200Y-115310686D02*
X125940343Y-115382115D01*
X125654629Y-115382115D01*
X125511772Y-115310686D01*
X125440343Y-115239258D01*
X125368915Y-115096401D01*
X125368915Y-114667829D01*
X125440343Y-114524972D01*
X125511772Y-114453544D01*
X125654629Y-114382115D01*
X125940343Y-114382115D01*
X126083200Y-114453544D01*
X126654629Y-114024972D02*
X126726057Y-113953544D01*
X126868915Y-113882115D01*
X127226057Y-113882115D01*
X127368915Y-113953544D01*
X127440343Y-114024972D01*
X127511772Y-114167829D01*
X127511772Y-114310686D01*
X127440343Y-114524972D01*
X126583200Y-115382115D01*
X127511772Y-115382115D01*
X107718284Y-113882115D02*
X108218284Y-115382115D01*
X108718284Y-113882115D01*
X109861141Y-115382115D02*
X109861141Y-114596401D01*
X109789713Y-114453544D01*
X109646856Y-114382115D01*
X109361141Y-114382115D01*
X109218284Y-114453544D01*
X109861141Y-115310686D02*
X109718284Y-115382115D01*
X109361141Y-115382115D01*
X109218284Y-115310686D01*
X109146856Y-115167829D01*
X109146856Y-115024972D01*
X109218284Y-114882115D01*
X109361141Y-114810686D01*
X109718284Y-114810686D01*
X109861141Y-114739258D01*
X111218284Y-115310686D02*
X111075427Y-115382115D01*
X110789713Y-115382115D01*
X110646856Y-115310686D01*
X110575427Y-115239258D01*
X110503999Y-115096401D01*
X110503999Y-114667829D01*
X110575427Y-114524972D01*
X110646856Y-114453544D01*
X110789713Y-114382115D01*
X111075427Y-114382115D01*
X111218284Y-114453544D01*
X112646856Y-115382115D02*
X111789713Y-115382115D01*
X112218284Y-115382115D02*
X112218284Y-113882115D01*
X112075427Y-114096401D01*
X111932570Y-114239258D01*
X111789713Y-114310686D01*
D11*
%TO.C,IC1*%
X108837187Y-95609965D02*
X108837187Y-94339965D01*
X110167663Y-95489013D02*
X110107187Y-95549489D01*
X109925758Y-95609965D01*
X109804806Y-95609965D01*
X109623377Y-95549489D01*
X109502425Y-95428537D01*
X109441949Y-95307584D01*
X109381472Y-95065680D01*
X109381472Y-94884251D01*
X109441949Y-94642346D01*
X109502425Y-94521394D01*
X109623377Y-94400442D01*
X109804806Y-94339965D01*
X109925758Y-94339965D01*
X110107187Y-94400442D01*
X110167663Y-94460918D01*
X111377187Y-95609965D02*
X110651472Y-95609965D01*
X111014329Y-95609965D02*
X111014329Y-94339965D01*
X110893377Y-94521394D01*
X110772425Y-94642346D01*
X110651472Y-94702822D01*
%TO.C,IC2*%
X123728189Y-95609965D02*
X123728189Y-94339965D01*
X125058665Y-95489013D02*
X124998189Y-95549489D01*
X124816760Y-95609965D01*
X124695808Y-95609965D01*
X124514379Y-95549489D01*
X124393427Y-95428537D01*
X124332951Y-95307584D01*
X124272474Y-95065680D01*
X124272474Y-94884251D01*
X124332951Y-94642346D01*
X124393427Y-94521394D01*
X124514379Y-94400442D01*
X124695808Y-94339965D01*
X124816760Y-94339965D01*
X124998189Y-94400442D01*
X125058665Y-94460918D01*
X125542474Y-94460918D02*
X125602951Y-94400442D01*
X125723903Y-94339965D01*
X126026284Y-94339965D01*
X126147236Y-94400442D01*
X126207712Y-94460918D01*
X126268189Y-94581870D01*
X126268189Y-94702822D01*
X126207712Y-94884251D01*
X125481998Y-95609965D01*
X126268189Y-95609965D01*
D12*
%TO.C,J1*%
X116506666Y-107104380D02*
X116506666Y-107818666D01*
X116459047Y-107961523D01*
X116363809Y-108056761D01*
X116220952Y-108104380D01*
X116125714Y-108104380D01*
X117506666Y-108104380D02*
X116935238Y-108104380D01*
X117220952Y-108104380D02*
X117220952Y-107104380D01*
X117125714Y-107247238D01*
X117030476Y-107342476D01*
X116935238Y-107390095D01*
D13*
%TO.C,IC1*%
X116976949Y-91335442D02*
X116976949Y-91335442D01*
D14*
X106876949Y-112735442D02*
X113276949Y-112735442D01*
X113276949Y-77335442D02*
X113276949Y-90435442D01*
X106876949Y-77335442D02*
X113276949Y-77335442D01*
X106876949Y-99435442D02*
X106876949Y-112735442D01*
D13*
X116876949Y-91335442D02*
X116876949Y-91335442D01*
D14*
X113276949Y-112735442D02*
X113276949Y-99435442D01*
X116426949Y-99435442D02*
X116426949Y-90435442D01*
X116426949Y-90435442D02*
X103726949Y-90435442D01*
X106876949Y-90435442D02*
X106876949Y-77335442D01*
X103726949Y-99435442D02*
X116426949Y-99435442D01*
X103726949Y-90435442D02*
X103726949Y-99435442D01*
D13*
X116976949Y-91335442D02*
G75*
G03*
X116876949Y-91335442I-50000J0D01*
G01*
X116876949Y-91335442D02*
G75*
G03*
X116976949Y-91335442I50000J0D01*
G01*
D14*
%TO.C,IC2*%
X121767951Y-112735442D02*
X128167951Y-112735442D01*
D13*
X131867951Y-91335442D02*
X131867951Y-91335442D01*
D14*
X121767951Y-99435442D02*
X121767951Y-112735442D01*
X128167951Y-77335442D02*
X128167951Y-90435442D01*
D13*
X131767951Y-91335442D02*
X131767951Y-91335442D01*
D14*
X128167951Y-112735442D02*
X128167951Y-99435442D01*
X118617951Y-99435442D02*
X131317951Y-99435442D01*
X131317951Y-99435442D02*
X131317951Y-90435442D01*
X118617951Y-90435442D02*
X118617951Y-99435442D01*
X121767951Y-77335442D02*
X128167951Y-77335442D01*
X131317951Y-90435442D02*
X118617951Y-90435442D01*
X121767951Y-90435442D02*
X121767951Y-77335442D01*
D13*
X131867951Y-91335442D02*
G75*
G03*
X131767951Y-91335442I-50000J0D01*
G01*
X131767951Y-91335442D02*
G75*
G03*
X131867951Y-91335442I50000J0D01*
G01*
D15*
%TO.C,J1*%
X119440000Y-108652000D02*
X119440000Y-116392000D01*
X114240000Y-116392000D02*
X119440000Y-116392000D01*
X116840000Y-111252000D02*
X116840000Y-108652000D01*
X114240000Y-111252000D02*
X114240000Y-116392000D01*
X114240000Y-108652000D02*
X115570000Y-108652000D01*
X114240000Y-111252000D02*
X116840000Y-111252000D01*
X114240000Y-109982000D02*
X114240000Y-108652000D01*
X116840000Y-108652000D02*
X119440000Y-108652000D01*
%TD*%
M02*
