%TF.GenerationSoftware,KiCad,Pcbnew,(6.0.0)*%
%TF.CreationDate,2022-01-11T19:00:17-08:00*%
%TF.ProjectId,AMS-Vacuum-Sensor,414d532d-5661-4637-9575-6d2d53656e73,rev?*%
%TF.SameCoordinates,Original*%
%TF.FileFunction,Copper,L2,Bot*%
%TF.FilePolarity,Positive*%
%FSLAX46Y46*%
G04 Gerber Fmt 4.6, Leading zero omitted, Abs format (unit mm)*
G04 Created by KiCad (PCBNEW (6.0.0)) date 2022-01-11 19:00:17*
%MOMM*%
%LPD*%
G01*
G04 APERTURE LIST*
%TA.AperFunction,ComponentPad*%
%ADD10R,1.365000X1.365000*%
%TD*%
%TA.AperFunction,ComponentPad*%
%ADD11C,1.365000*%
%TD*%
%TA.AperFunction,ComponentPad*%
%ADD12R,1.700000X1.700000*%
%TD*%
%TA.AperFunction,ComponentPad*%
%ADD13O,1.700000X1.700000*%
%TD*%
%TA.AperFunction,ComponentPad*%
%ADD14C,1.200000*%
%TD*%
%TA.AperFunction,SMDPad,CuDef*%
%ADD15R,0.650000X1.528000*%
%TD*%
%TA.AperFunction,ViaPad*%
%ADD16C,0.800000*%
%TD*%
%TA.AperFunction,Conductor*%
%ADD17C,0.250000*%
%TD*%
G04 APERTURE END LIST*
D10*
%TO.P,IC1,1,VCC*%
%TO.N,+10V*%
X113826949Y-91935442D03*
D11*
%TO.P,IC1,2,OUTPUT_A*%
%TO.N,Net-(IC1-Pad2)*%
X111326949Y-91935442D03*
%TO.P,IC1,3,GROUND*%
%TO.N,GND*%
X108826949Y-91935442D03*
%TO.P,IC1,4,OUTPUT_B*%
%TO.N,Net-(IC1-Pad4)*%
X106326949Y-91935442D03*
%TD*%
D10*
%TO.P,IC2,1,VCC*%
%TO.N,+10V*%
X128717951Y-91935442D03*
D11*
%TO.P,IC2,2,OUTPUT_A*%
%TO.N,Net-(IC2-Pad2)*%
X126217951Y-91935442D03*
%TO.P,IC2,3,GROUND*%
%TO.N,GND*%
X123717951Y-91935442D03*
%TO.P,IC2,4,OUTPUT_B*%
%TO.N,Net-(IC2-Pad4)*%
X121217951Y-91935442D03*
%TD*%
D12*
%TO.P,J1,1,Pin_1*%
%TO.N,+5VP*%
X115570000Y-109982000D03*
D13*
%TO.P,J1,2,Pin_2*%
%TO.N,+10V*%
X118110000Y-109982000D03*
%TO.P,J1,3,Pin_3*%
%TO.N,Net-(IC3-Pad7)*%
X115570000Y-112522000D03*
%TO.P,J1,4,Pin_4*%
%TO.N,+2V5*%
X118110000Y-112522000D03*
%TO.P,J1,5,Pin_5*%
%TO.N,Net-(IC4-Pad7)*%
X115570000Y-115062000D03*
%TO.P,J1,6,Pin_6*%
%TO.N,GND*%
X118110000Y-115062000D03*
%TD*%
D14*
%TO.P,R2,1*%
%TO.N,Net-(IC4-Pad2)*%
X131388728Y-87298483D03*
%TO.P,R2,2*%
%TO.N,Net-(IC4-Pad3)*%
X131388728Y-102798483D03*
%TD*%
D15*
%TO.P,IC4,1,-IN*%
%TO.N,Net-(IC2-Pad4)*%
X123062951Y-97796601D03*
%TO.P,IC4,2,RG_1*%
%TO.N,Net-(IC4-Pad2)*%
X124332951Y-97796601D03*
%TO.P,IC4,3,RG_2*%
%TO.N,Net-(IC4-Pad3)*%
X125602951Y-97796601D03*
%TO.P,IC4,4,+IN*%
%TO.N,Net-(IC2-Pad2)*%
X126872951Y-97796601D03*
%TO.P,IC4,5,-VS*%
%TO.N,GND*%
X126872951Y-103218601D03*
%TO.P,IC4,6,REF*%
%TO.N,+2V5*%
X125602951Y-103218601D03*
%TO.P,IC4,7,OUT*%
%TO.N,Net-(IC4-Pad7)*%
X124332951Y-103218601D03*
%TO.P,IC4,8,+VS*%
%TO.N,+5VP*%
X123062951Y-103218601D03*
%TD*%
%TO.P,IC3,1,-IN*%
%TO.N,Net-(IC1-Pad4)*%
X108171949Y-97796601D03*
%TO.P,IC3,2,RG_1*%
%TO.N,Net-(IC3-Pad2)*%
X109441949Y-97796601D03*
%TO.P,IC3,3,RG_2*%
%TO.N,Net-(IC3-Pad3)*%
X110711949Y-97796601D03*
%TO.P,IC3,4,+IN*%
%TO.N,Net-(IC1-Pad2)*%
X111981949Y-97796601D03*
%TO.P,IC3,5,-VS*%
%TO.N,GND*%
X111981949Y-103218601D03*
%TO.P,IC3,6,REF*%
%TO.N,+2V5*%
X110711949Y-103218601D03*
%TO.P,IC3,7,OUT*%
%TO.N,Net-(IC3-Pad7)*%
X109441949Y-103218601D03*
%TO.P,IC3,8,+VS*%
%TO.N,+5VP*%
X108171949Y-103218601D03*
%TD*%
D14*
%TO.P,R1,1*%
%TO.N,Net-(IC3-Pad2)*%
X103489017Y-87298483D03*
%TO.P,R1,2*%
%TO.N,Net-(IC3-Pad3)*%
X103489017Y-102798483D03*
%TD*%
D16*
%TO.N,+10V*%
X123461404Y-109984278D03*
%TO.N,GND*%
X114622654Y-97707045D03*
%TO.N,Net-(IC1-Pad4)*%
X106326949Y-97713633D03*
%TO.N,+5VP*%
X114650733Y-103730685D03*
X108171949Y-106452144D03*
%TO.N,Net-(IC4-Pad7)*%
X115026466Y-105186649D03*
%TD*%
D17*
%TO.N,+10V*%
X123461404Y-109984278D02*
X123459126Y-109982000D01*
X123459126Y-109982000D02*
X118110000Y-109982000D01*
%TO.N,Net-(IC1-Pad2)*%
X111981949Y-97796601D02*
X111981949Y-92590442D01*
X111981949Y-92590442D02*
X111326949Y-91935442D01*
%TO.N,GND*%
X126872951Y-102779601D02*
X124099294Y-100005944D01*
X111981949Y-103218601D02*
X112434792Y-103218601D01*
X126872951Y-103218601D02*
X126872951Y-102750579D01*
X124099294Y-100005944D02*
X114622654Y-100005944D01*
X126872951Y-103218601D02*
X126872951Y-102779601D01*
X114622654Y-100005944D02*
X114622654Y-97707045D01*
X112434792Y-103218601D02*
X114622654Y-101030739D01*
X114622654Y-101030739D02*
X114622654Y-100005944D01*
%TO.N,Net-(IC1-Pad4)*%
X106409917Y-97796601D02*
X106326949Y-97713633D01*
X108171949Y-97796601D02*
X106409917Y-97796601D01*
%TO.N,Net-(IC2-Pad2)*%
X126872951Y-92590442D02*
X126217951Y-91935442D01*
X126872951Y-97796601D02*
X126872951Y-92590442D01*
%TO.N,Net-(IC2-Pad4)*%
X121217951Y-91935442D02*
X121217951Y-95951601D01*
X121217951Y-95951601D02*
X123062951Y-97796601D01*
%TO.N,Net-(IC3-Pad2)*%
X103489017Y-91375647D02*
X109441949Y-97328579D01*
X103489017Y-87298483D02*
X103489017Y-91375647D01*
X109441949Y-97328579D02*
X109441949Y-97796601D01*
%TO.N,Net-(IC3-Pad3)*%
X110711949Y-100026098D02*
X110711949Y-97796601D01*
X110316501Y-100421546D02*
X110711949Y-100026098D01*
X103489017Y-102798483D02*
X105865954Y-100421546D01*
X105865954Y-100421546D02*
X110316501Y-100421546D01*
%TO.N,+2V5*%
X110711949Y-103218601D02*
X110711949Y-105650431D01*
X118110000Y-112522000D02*
X123013732Y-112522000D01*
X112006131Y-106944613D02*
X125602951Y-106944613D01*
X110711949Y-105650431D02*
X112006131Y-106944613D01*
X125602951Y-109932781D02*
X125602951Y-106944613D01*
X125602951Y-106944613D02*
X125602951Y-103218601D01*
X123013732Y-112522000D02*
X125602951Y-109932781D01*
%TO.N,Net-(IC3-Pad7)*%
X112975583Y-112522000D02*
X115570000Y-112522000D01*
X109441949Y-108988366D02*
X112975583Y-112522000D01*
X109441949Y-103218601D02*
X109441949Y-108988366D01*
%TO.N,+5VP*%
X117228690Y-101152728D02*
X114650733Y-103730685D01*
X123062951Y-101152728D02*
X117228690Y-101152728D01*
X123062951Y-103218601D02*
X123062951Y-101152728D01*
X108171949Y-103218601D02*
X108171949Y-106452144D01*
%TO.N,Net-(IC4-Pad2)*%
X124861439Y-90648735D02*
X128211691Y-87298483D01*
X124332951Y-93314201D02*
X124861439Y-92785713D01*
X124861439Y-92785713D02*
X124861439Y-90648735D01*
X128211691Y-87298483D02*
X131388728Y-87298483D01*
X124332951Y-97796601D02*
X124332951Y-93314201D01*
%TO.N,Net-(IC4-Pad3)*%
X129590833Y-102798483D02*
X125602951Y-98810601D01*
X125602951Y-98810601D02*
X125602951Y-97796601D01*
X131388728Y-102798483D02*
X129590833Y-102798483D01*
%TO.N,Net-(IC4-Pad7)*%
X122803903Y-105186649D02*
X124332951Y-103657601D01*
X124332951Y-103657601D02*
X124332951Y-103218601D01*
X115026466Y-105186649D02*
X122803903Y-105186649D01*
%TD*%
M02*
