M48
INCH,TZ
T1C0.0157
T2C0.0315
T3C0.0331
T4C0.0394
%
G90
G05
T1
X41861Y-38470
X42587Y-41910
X45127Y-38467
X45138Y-40839
X45286Y-41412
X48607Y-43301
T2
X40744Y-34369
X40744Y-40472
X51728Y-34369
X51728Y-40472
T3
X41861Y-36195
X42845Y-36195
X43830Y-36195
X44814Y-36195
X47724Y-36195
X48708Y-36195
X49692Y-36195
X50676Y-36195
T4
X45500Y-43300
X45500Y-44300
X45500Y-45300
X46500Y-43300
X46500Y-44300
X46500Y-45300
T0
M30
